<svg width="301" height="179" viewBox="0 0 301 179" fill="none" xmlns="http://www.w3.org/2000/svg">
<path d="M135.915 39.8811C109.59 40.1104 84.3094 44.7188 58.6968 48.5031C53.5681 48.5031 47.5683 49.5241 44.5208 52.3578C41.438 55.2243 32.3533 54.4676 27.6909 56.2393C6.90448 64.1379 9.25656 88.413 11.398 101.73C13.1131 112.395 16.3955 116.41 22.406 126.407C27.7066 135.224 30.6615 147.237 42.333 154.174C60.1783 164.781 85.6627 173.513 110.737 176.252C130.392 178.399 151.757 177.516 171.567 176.591C194.641 175.513 217.679 173.738 239.855 169.751C284.485 161.726 335.929 143.618 344.159 114.741C349.219 96.9895 347.774 77.2174 329.745 62.1608C319.79 53.8475 298.413 50.7437 282.39 47.5762C262.327 43.6104 256.139 39.8811 220.802 42.0906C192.749 41.7628 163.97 39.6367 135.915 39.8811Z" fill="#458244" stroke="#97B943" stroke-width="1.15169" stroke-linecap="round"/>
<rect width="12.2677" height="7.12952" transform="matrix(-1 0 0 1 62.0021 42.1981)" fill="#97B943"/>
<rect width="12.2677" height="7.12952" transform="matrix(-1 0 0 1 135.608 35.0686)" fill="#97B943"/>
<rect width="12.2677" height="7.12952" transform="matrix(-1 0 0 1 123.341 35.0686)" fill="#97B943"/>
<rect width="12.2677" height="7.12952" transform="matrix(-1 0 0 1 111.073 35.0686)" fill="#97B943"/>
<rect width="12.2677" height="7.12952" transform="matrix(-1 0 0 1 98.8052 42.1981)" fill="#97B943"/>
<rect width="12.2677" height="7.12952" transform="matrix(-1 0 0 1 86.5376 42.1981)" fill="#97B943"/>
<rect width="12.2677" height="7.12952" transform="matrix(-1 0 0 1 74.27 42.1981)" fill="#97B943"/>
<rect width="12.2677" height="7.12952" transform="matrix(-1 0 0 1 147.876 35.0686)" fill="#97B943"/>
<rect width="12.2677" height="7.12952" transform="matrix(-1 0 0 1 221.482 35.0686)" fill="#97B943"/>
<rect width="12.2677" height="7.12952" transform="matrix(-1 0 0 1 209.214 35.0686)" fill="#97B943"/>
<rect width="12.2677" height="7.12952" transform="matrix(-1 0 0 1 196.947 35.0686)" fill="#97B943"/>
<rect width="12.2677" height="7.12952" transform="matrix(-1 0 0 1 184.679 35.0686)" fill="#97B943"/>
<rect width="12.2677" height="7.12952" transform="matrix(-1 0 0 1 172.411 35.0686)" fill="#97B943"/>
<rect width="12.2677" height="7.12952" transform="matrix(-1 0 0 1 160.144 35.0686)" fill="#97B943"/>
<rect width="12.2677" height="7.12952" transform="matrix(-1 0 0 1 233.75 35.0686)" fill="#97B943"/>
<rect width="12.2677" height="7.12952" transform="matrix(-1 0 0 1 282.821 42.1981)" fill="#97B943"/>
<rect width="12.2677" height="7.12952" transform="matrix(-1 0 0 1 270.553 42.1981)" fill="#97B943"/>
<rect width="12.2677" height="7.12952" transform="matrix(-1 0 0 1 258.285 35.0686)" fill="#97B943"/>
<rect width="12.2677" height="7.12952" transform="matrix(-1 0 0 1 246.018 35.0686)" fill="#97B943"/>
<rect width="12.2677" height="7.12952" transform="matrix(-1 0 0 1 295.088 42.1981)" fill="#97B943"/>
<rect width="12.2677" height="7.12952" transform="matrix(-1 0 0 1 307.356 49.3278)" fill="#97B943"/>
<rect width="12.2677" height="7.12952" transform="matrix(-1 0 0 1 307.356 149.141)" fill="#97B943"/>
<rect width="12.2677" height="7.12952" transform="matrix(-1 0 0 1 282.821 156.271)" fill="#97B943"/>
<rect width="12.2677" height="7.12952" transform="matrix(-1 0 0 1 258.285 163.4)" fill="#97B943"/>
<rect width="12.2677" height="7.12952" transform="matrix(-1 0 0 1 295.088 156.271)" fill="#97B943"/>
<rect width="12.2677" height="7.12952" transform="matrix(-1 0 0 1 270.553 163.4)" fill="#97B943"/>
<rect width="12.2677" height="7.12952" transform="matrix(-1 0 0 1 246.018 163.4)" fill="#97B943"/>
<rect width="12.2677" height="7.12952" transform="matrix(-1 0 0 1 209.214 170.53)" fill="#97B943"/>
<rect width="12.2677" height="7.12952" transform="matrix(-1 0 0 1 233.75 170.53)" fill="#97B943"/>
<rect width="12.2677" height="7.12952" transform="matrix(-1 0 0 1 221.482 170.53)" fill="#97B943"/>
<rect width="12.2677" height="7.12952" transform="matrix(-1 0 0 1 196.947 170.53)" fill="#97B943"/>
<rect width="12.2677" height="7.12952" transform="matrix(-1 0 0 1 184.679 170.53)" fill="#97B943"/>
<rect width="12.2677" height="7.12952" transform="matrix(-1 0 0 1 172.411 170.53)" fill="#97B943"/>
<rect width="12.2677" height="7.12952" transform="matrix(-1 0 0 1 160.144 170.53)" fill="#97B943"/>
<rect width="12.2677" height="7.12952" transform="matrix(-1 0 0 1 147.876 170.53)" fill="#97B943"/>
<rect width="12.2677" height="7.12952" transform="matrix(-1 0 0 1 135.608 170.53)" fill="#97B943"/>
<rect width="12.2677" height="7.12952" transform="matrix(-1 0 0 1 123.341 170.53)" fill="#97B943"/>
<rect width="12.2677" height="7.12952" transform="matrix(-1 0 0 1 62.0021 156.271)" fill="#97B943"/>
<rect width="12.2677" height="7.12952" transform="matrix(-1 0 0 1 86.5376 163.4)" fill="#97B943"/>
<rect width="12.2677" height="7.12952" transform="matrix(-1 0 0 1 111.073 170.53)" fill="#97B943"/>
<rect width="12.2677" height="7.12952" transform="matrix(-1 0 0 1 98.8052 170.53)" fill="#97B943"/>
<rect width="12.2677" height="7.12952" transform="matrix(-1 0 0 1 74.27 163.4)" fill="#97B943"/>
<rect width="12.2677" height="7.12952" transform="matrix(-1 0 0 1 49.7345 149.141)" fill="#97B943"/>
<rect width="12.2677" height="7.12952" transform="matrix(-1 0 0 1 37.4668 127.752)" fill="#97B943"/>
<rect width="12.2677" height="7.12952" transform="matrix(-1 0 0 1 37.4668 134.882)" fill="#97B943"/>
<rect width="12.2677" height="7.12952" transform="matrix(-1 0 0 1 37.4668 142.011)" fill="#97B943"/>
<rect width="12.2677" height="7.12952" transform="matrix(-1 0 0 1 37.4668 120.623)" fill="#97B943"/>
<rect width="12.2677" height="7.12952" transform="matrix(-1 0 0 1 12.9314 92.105)" fill="#97B943"/>
<rect width="12.2677" height="7.12952" transform="matrix(-1 0 0 1 12.9314 99.2346)" fill="#97B943"/>
<rect width="12.2677" height="7.12952" transform="matrix(-1 0 0 1 25.199 106.364)" fill="#97B943"/>
<rect width="12.2677" height="7.12952" transform="matrix(-1 0 0 1 25.199 113.494)" fill="#97B943"/>
<rect width="12.2677" height="7.12952" transform="matrix(-1 0 0 1 25.199 120.623)" fill="#97B943"/>
<rect width="12.2677" height="7.12952" transform="matrix(-1 0 0 1 25.199 56.4573)" fill="#97B943"/>
<rect width="12.2677" height="7.12952" transform="matrix(-1 0 0 1 25.199 63.5868)" fill="#97B943"/>
<rect width="12.2677" height="7.12952" transform="matrix(-1 0 0 1 12.9314 70.7163)" fill="#97B943"/>
<rect width="12.2677" height="7.12952" transform="matrix(-1 0 0 1 12.9314 77.8459)" fill="#97B943"/>
<rect width="12.2677" height="7.12952" transform="matrix(-1 0 0 1 12.9314 84.9755)" fill="#97B943"/>
<rect width="12.2677" height="7.12952" transform="matrix(-1 0 0 1 37.4668 49.3278)" fill="#97B943"/>
<rect width="12.2677" height="7.12952" transform="matrix(-1 0 0 1 49.7345 49.3278)" fill="#97B943"/>
<path d="M35.7527 133.757C31.3938 133.594 30.6274 134.014 26.2616 134.014C23.9298 134.687 20.9818 134.586 20.8851 136.345C20.8076 137.753 21.7691 139.208 22.2437 140.555C22.7849 142.092 23.1127 143.663 23.7577 145.184C24.3428 146.563 25.6228 147.556 27.0184 148.609C29.2055 150.261 31.2355 152.281 33.8894 153.604C40.1721 156.736 50.1668 154.759 55.5115 151.538C59.3692 149.213 57.7948 145.246 55.6668 142.595C51.663 137.607 44.2048 134.071 35.7527 133.757Z" fill="#97B943" stroke="#97B943" stroke-width="1.15169" stroke-linecap="round"/>
<rect width="3.27139" height="2.20367" transform="matrix(-1 0 0 1 35.4219 132.03)" fill="#97B943"/>
<rect width="3.27139" height="2.20367" transform="matrix(-1 0 0 1 32.1501 132.03)" fill="#97B943"/>
<rect width="3.27139" height="2.20367" transform="matrix(-1 0 0 1 28.8789 132.03)" fill="#97B943"/>
<rect width="3.27139" height="2.20367" transform="matrix(-1 0 0 1 38.6931 132.03)" fill="#97B943"/>
<rect width="3.27139" height="2.20367" transform="matrix(-1 0 0 1 45.2361 134.234)" fill="#97B943"/>
<rect width="3.27139" height="2.20367" transform="matrix(-1 0 0 1 51.7784 136.438)" fill="#97B943"/>
<rect width="3.27139" height="2.20367" transform="matrix(-1 0 0 1 55.0503 138.641)" fill="#97B943"/>
<rect width="3.27139" height="2.20367" transform="matrix(-1 0 0 1 58.3214 140.845)" fill="#97B943"/>
<rect width="3.27139" height="2.20367" transform="matrix(-1 0 0 1 48.5072 134.234)" fill="#97B943"/>
<rect width="3.27139" height="2.20367" transform="matrix(-1 0 0 1 41.9642 134.234)" fill="#97B943"/>
<rect width="3.27139" height="2.20367" transform="matrix(-1 0 0 1 58.3214 143.049)" fill="#97B943"/>
<rect width="3.27139" height="2.20367" transform="matrix(-1 0 0 1 58.3214 145.253)" fill="#97B943"/>
<rect width="3.27139" height="2.20367" transform="matrix(-1 0 0 1 58.3214 147.456)" fill="#97B943"/>
<rect width="3.27139" height="2.20367" transform="matrix(-1 0 0 1 58.3214 149.66)" fill="#97B943"/>
<rect width="3.27139" height="2.20367" transform="matrix(-1 0 0 1 55.0503 151.864)" fill="#97B943"/>
<rect width="3.27139" height="2.20367" transform="matrix(-1 0 0 1 41.9642 154.067)" fill="#97B943"/>
<rect width="3.27139" height="2.20367" transform="matrix(-1 0 0 1 45.2361 154.067)" fill="#97B943"/>
<rect width="3.27139" height="2.20367" transform="matrix(-1 0 0 1 51.7784 151.864)" fill="#97B943"/>
<rect width="3.27139" height="2.20367" transform="matrix(-1 0 0 1 48.5072 154.067)" fill="#97B943"/>
<rect width="3.27139" height="2.20367" transform="matrix(-1 0 0 1 38.6931 154.067)" fill="#97B943"/>
<rect width="3.27139" height="2.20367" transform="matrix(-1 0 0 1 35.4219 151.864)" fill="#97B943"/>
<rect width="3.27139" height="2.20367" transform="matrix(-1 0 0 1 32.1501 149.66)" fill="#97B943"/>
<rect width="3.27139" height="2.20367" transform="matrix(-1 0 0 1 28.8789 147.456)" fill="#97B943"/>
<rect width="3.27139" height="2.20367" transform="matrix(-1 0 0 1 25.6078 145.253)" fill="#97B943"/>
<rect width="3.27139" height="2.20367" transform="matrix(-1 0 0 1 25.6078 143.049)" fill="#97B943"/>
<rect width="3.27139" height="2.20367" transform="matrix(-1 0 0 1 25.6078 140.845)" fill="#97B943"/>
<rect width="3.27139" height="2.20367" transform="matrix(-1 0 0 1 22.3359 138.641)" fill="#97B943"/>
<rect width="3.27139" height="2.20367" transform="matrix(-1 0 0 1 22.3359 136.438)" fill="#97B943"/>
<rect width="3.27139" height="2.20367" transform="matrix(-1 0 0 1 22.3359 134.234)" fill="#97B943"/>
<rect width="3.27139" height="2.20367" transform="matrix(-1 0 0 1 25.6078 134.234)" fill="#97B943"/>
<path d="M116.12 104.865C112.175 102.212 109.293 100.106 103.009 100.106C98.6971 100.106 88.2528 99.735 90.6456 103.609C93.866 108.823 106.348 113.404 115.985 111.394C121.032 110.342 118.72 106.613 116.12 104.865Z" fill="#97B943" stroke="#97B943" stroke-width="1.15169" stroke-linecap="round"/>
<rect width="5.72492" height="3.20829" transform="matrix(-1 0 0 1 115.776 100.66)" fill="#97B943"/>
<rect width="5.72492" height="3.20829" transform="matrix(-1 0 0 1 110.051 97.4518)" fill="#97B943"/>
<rect width="5.72492" height="3.20829" transform="matrix(-1 0 0 1 104.326 97.4518)" fill="#97B943"/>
<rect width="5.72492" height="3.20829" transform="matrix(-1 0 0 1 121.501 103.868)" fill="#97B943"/>
<rect width="5.72492" height="3.20829" transform="matrix(-1 0 0 1 121.501 107.076)" fill="#97B943"/>
<rect width="5.72492" height="3.20829" transform="matrix(-1 0 0 1 121.501 110.285)" fill="#97B943"/>
<rect width="5.72492" height="3.20829" transform="matrix(-1 0 0 1 92.876 103.868)" fill="#97B943"/>
<rect width="5.72492" height="3.20829" transform="matrix(-1 0 0 1 98.6013 107.076)" fill="#97B943"/>
<rect width="5.72492" height="3.20829" transform="matrix(-1 0 0 1 115.776 110.285)" fill="#97B943"/>
<rect width="5.72492" height="3.20829" transform="matrix(-1 0 0 1 110.051 110.285)" fill="#97B943"/>
<rect width="5.72492" height="3.20829" transform="matrix(-1 0 0 1 104.326 110.285)" fill="#97B943"/>
<rect width="5.72492" height="3.20829" transform="matrix(-1 0 0 1 92.876 100.66)" fill="#97B943"/>
<rect width="5.72492" height="3.20829" transform="matrix(-1 0 0 1 98.6013 97.4518)" fill="#97B943"/>
<path d="M349.657 132.06C350.095 125.147 348.148 118.279 347.838 111.386C346.09 108.32 344.72 107.738 340.559 105.792C333.873 102.663 322.712 102.426 314.668 103.511C307.24 104.514 297.302 108.65 295.12 113.058C290.918 121.547 308.055 130.592 318.88 134.188C327.313 136.99 349.088 141.053 349.657 132.06Z" fill="#97B943" stroke="#97B943" stroke-width="1.15169" stroke-linecap="round"/>
<rect width="8.76264" height="5.12434" transform="matrix(-1 0 0 1 300.171 111.622)" fill="#97B943"/>
<rect width="8.76264" height="5.12434" transform="matrix(-1 0 0 1 300.171 116.746)" fill="#97B943"/>
<rect width="8.76264" height="5.12434" transform="matrix(-1 0 0 1 300.171 121.871)" fill="#97B943"/>
<rect width="8.76264" height="5.12434" transform="matrix(-1 0 0 1 308.933 126.995)" fill="#97B943"/>
<rect width="8.76264" height="5.12434" transform="matrix(-1 0 0 1 300.171 106.498)" fill="#97B943"/>
<rect width="8.76264" height="5.12434" transform="matrix(-1 0 0 1 308.933 101.374)" fill="#97B943"/>
<path d="M246.365 21.3645C227.724 25.1443 190.567 71.9287 128.793 21.04C129.598 23.7833 128.016 20.6063 128.793 23.6939C128.873 30.3044 127.806 29.1891 128.793 31.2059C133.854 41.5494 128.448 48.965 126.163 61.9379C124.508 71.3367 131.203 77.0019 126.163 84.6316C123.747 88.2899 119.879 104.448 116.76 107.325C105.302 117.896 99.4786 117.946 83.8807 117.29C70.7477 116.737 67.4694 100.182 66.7459 88.2685C66.2939 80.8273 72.3 69.3115 71.338 61.9379C70.3205 54.1396 65.2255 50.1638 65.2255 42.3571C65.2255 42.3385 65.7602 24.3933 62.6779 27.8931C61.7282 28.9715 61.0015 34.2094 60.8288 35.7783C60.4736 39.0051 63.2464 65.5853 62.6776 68.8148C61.0995 77.7742 59.0917 64.8137 59.7194 73.6179C60.3828 82.9243 61.0538 91.5766 63.0066 100.446C64.293 106.289 67.7846 111.586 68.9648 117.616C70.1895 123.874 79.2888 123.169 83.7164 123.169C88.5065 123.169 93.4416 123.578 98.1803 122.702C104.861 121.467 111.381 118.809 118.109 118.13C129.102 117.02 140.116 117.394 151.105 118.549C170.479 120.586 190.017 119.809 209.454 119.809C226.151 119.809 245.116 122.693 261.228 117.103C273.041 113.005 283.87 105.791 296.279 104.319C305.029 103.281 313.577 105.801 322.33 105.485C330.815 105.179 339.31 101.642 346.163 95.9204C349.71 92.9586 348.955 93.0223 347.437 89.5749C345.268 84.6492 346.368 81.702 348.505 76.9773C352.262 68.6694 352.596 64.5494 349.984 55.9812C348.114 49.8473 345.682 50.9422 340.657 50.9422C335.69 50.9422 330.545 50.7146 325.659 49.6357C324.158 49.3045 319.78 48.9292 322.289 47.1162C337.98 35.7783 349.812 11.4233 346.163 8.98618C341.875 6.12212 320.482 24.8557 315.961 22.5741C313.392 21.2775 248.86 20.8586 246.365 21.3645Z" fill="#704F37"/>
<rect x="236.509" y="22.5645" width="2.77718" height="3.15344" fill="#44312C"/>
<rect x="130.976" y="25.7181" width="2.77718" height="3.15344" fill="#44312C"/>
<rect x="230.954" y="25.7181" width="2.77718" height="3.15344" fill="#44312C"/>
<rect x="136.531" y="28.8713" width="2.77718" height="3.15344" fill="#44312C"/>
<rect x="225.4" y="28.8713" width="2.77718" height="3.15344" fill="#44312C"/>
<rect x="142.085" y="32.0249" width="2.77718" height="3.15344" fill="#44312C"/>
<rect x="219.846" y="32.0249" width="2.77718" height="3.15344" fill="#44312C"/>
<rect x="147.639" y="35.1781" width="2.77718" height="3.15344" fill="#44312C"/>
<rect x="214.292" y="35.1781" width="2.77718" height="3.15344" fill="#44312C"/>
<rect x="153.193" y="38.3317" width="2.77718" height="3.15344" fill="#44312C"/>
<rect x="205.96" y="38.3317" width="2.77718" height="3.15344" fill="#44312C"/>
<rect x="164.302" y="41.4849" width="2.77718" height="3.15344" fill="#44312C"/>
<rect x="194.851" y="41.4849" width="2.77718" height="3.15344" fill="#44312C"/>
<rect x="128.199" y="22.5645" width="2.77718" height="3.15344" fill="#44312C"/>
<rect x="133.753" y="28.8713" width="2.77718" height="3.15344" fill="#44312C"/>
<rect x="139.307" y="32.0249" width="2.77718" height="3.15344" fill="#44312C"/>
<rect x="144.862" y="35.1781" width="2.77718" height="3.15344" fill="#44312C"/>
<rect x="150.416" y="38.3317" width="2.77718" height="3.15344" fill="#44312C"/>
<rect x="155.971" y="38.3317" width="2.77718" height="3.15344" fill="#44312C"/>
<rect x="158.748" y="41.4849" width="2.77718" height="3.15344" fill="#44312C"/>
<rect x="161.525" y="41.4849" width="2.77718" height="3.15344" fill="#44312C"/>
<rect x="167.079" y="41.4849" width="2.77718" height="3.15344" fill="#44312C"/>
<rect x="169.856" y="41.4849" width="2.77718" height="3.15344" fill="#44312C"/>
<rect x="172.634" y="41.4849" width="2.77718" height="3.15344" fill="#44312C"/>
<rect x="175.411" y="44.6385" width="2.77718" height="3.15344" fill="#44312C"/>
<rect x="178.188" y="44.6385" width="2.77718" height="3.15344" fill="#44312C"/>
<rect x="180.965" y="44.6385" width="2.77718" height="3.15344" fill="#44312C"/>
<rect x="183.743" y="44.6385" width="2.77718" height="3.15344" fill="#44312C"/>
<rect x="186.52" y="41.4849" width="2.77718" height="3.15344" fill="#44312C"/>
<rect x="189.297" y="41.4849" width="2.77718" height="3.15344" fill="#44312C"/>
<rect x="192.074" y="41.4849" width="2.77718" height="3.15344" fill="#44312C"/>
<rect x="197.628" y="41.4849" width="2.77718" height="3.15344" fill="#44312C"/>
<rect x="200.406" y="41.4849" width="2.77718" height="3.15344" fill="#44312C"/>
<rect x="203.183" y="38.3317" width="2.77718" height="3.15344" fill="#44312C"/>
<rect x="208.737" y="38.3317" width="2.77718" height="3.15344" fill="#44312C"/>
<rect x="211.514" y="35.1781" width="2.77718" height="3.15344" fill="#44312C"/>
<rect x="217.069" y="35.1781" width="2.77718" height="3.15344" fill="#44312C"/>
<rect x="222.623" y="32.0249" width="2.77718" height="3.15344" fill="#44312C"/>
<rect x="228.177" y="28.8713" width="2.77718" height="3.15344" fill="#44312C"/>
<rect x="233.731" y="25.7181" width="2.77718" height="3.15344" fill="#44312C"/>
<rect x="239.286" y="22.5645" width="2.77718" height="3.15344" fill="#44312C"/>
<rect x="242.063" y="19.4113" width="2.77718" height="3.15344" fill="#44312C"/>
<rect x="244.84" y="19.4113" width="2.77718" height="3.15344" fill="#44312C"/>
<rect x="247.617" y="19.4113" width="2.77718" height="3.15344" fill="#44312C"/>
<rect x="250.395" y="19.4113" width="2.77718" height="3.15344" fill="#44312C"/>
<rect x="253.172" y="19.4113" width="2.77718" height="3.15344" fill="#44312C"/>
<rect x="255.949" y="19.4113" width="2.77718" height="3.15344" fill="#44312C"/>
<rect x="258.726" y="19.4113" width="2.77718" height="3.15344" fill="#44312C"/>
<rect x="261.504" y="19.4113" width="2.77718" height="3.15344" fill="#44312C"/>
<rect x="264.281" y="19.4113" width="2.77718" height="3.15344" fill="#44312C"/>
<rect x="267.058" y="19.4113" width="2.77718" height="3.15344" fill="#44312C"/>
<rect x="269.835" y="19.4113" width="2.77718" height="3.15344" fill="#44312C"/>
<rect x="272.612" y="19.4113" width="2.77718" height="3.15344" fill="#44312C"/>
<rect x="275.389" y="19.4113" width="2.77718" height="3.15344" fill="#44312C"/>
<rect x="278.167" y="19.4113" width="2.77718" height="3.15344" fill="#44312C"/>
<rect x="280.944" y="19.4113" width="2.77718" height="3.15344" fill="#44312C"/>
<rect x="283.721" y="19.4113" width="2.77718" height="3.15344" fill="#44312C"/>
<rect x="286.498" y="19.4113" width="2.77718" height="3.15344" fill="#44312C"/>
<rect x="289.275" y="19.4113" width="2.77718" height="3.15344" fill="#44312C"/>
<rect x="292.053" y="19.4113" width="2.77718" height="3.15344" fill="#44312C"/>
<rect x="294.829" y="19.4113" width="2.77718" height="3.15344" fill="#44312C"/>
<rect x="297.607" y="19.4113" width="2.77718" height="3.15344" fill="#44312C"/>
<rect x="300.384" y="19.4113" width="2.77718" height="3.15344" fill="#44312C"/>
<rect x="297.607" y="101.4" width="2.77718" height="3.15344" fill="#44312C"/>
<rect x="300.384" y="101.4" width="2.77718" height="3.15344" fill="#44312C"/>
<rect x="294.829" y="101.4" width="2.77718" height="3.15344" fill="#44312C"/>
<rect x="286.498" y="104.554" width="2.77718" height="3.15344" fill="#44312C"/>
<rect x="278.167" y="107.708" width="2.77718" height="3.15344" fill="#44312C"/>
<rect x="269.835" y="110.861" width="2.77718" height="3.15344" fill="#44312C"/>
<rect x="264.281" y="114.014" width="2.77718" height="3.15344" fill="#44312C"/>
<rect x="261.504" y="114.014" width="2.77718" height="3.15344" fill="#44312C"/>
<rect x="267.058" y="114.014" width="2.77718" height="3.15344" fill="#44312C"/>
<rect x="272.612" y="110.861" width="2.77718" height="3.15344" fill="#44312C"/>
<rect x="275.389" y="107.708" width="2.77718" height="3.15344" fill="#44312C"/>
<rect x="280.944" y="107.708" width="2.77718" height="3.15344" fill="#44312C"/>
<rect x="283.721" y="104.554" width="2.77718" height="3.15344" fill="#44312C"/>
<rect x="289.275" y="104.554" width="2.77718" height="3.15344" fill="#44312C"/>
<rect x="292.053" y="104.554" width="2.77718" height="3.15344" fill="#44312C"/>
<rect x="258.726" y="114.014" width="2.77718" height="3.15344" fill="#44312C"/>
<rect x="253.172" y="117.168" width="2.77718" height="3.15344" fill="#44312C"/>
<rect x="208.737" y="117.168" width="2.77718" height="3.15344" fill="#44312C"/>
<rect x="211.514" y="117.168" width="2.77718" height="3.15344" fill="#44312C"/>
<rect x="214.292" y="117.168" width="2.77718" height="3.15344" fill="#44312C"/>
<rect x="217.069" y="117.168" width="2.77718" height="3.15344" fill="#44312C"/>
<rect x="219.846" y="117.168" width="2.77718" height="3.15344" fill="#44312C"/>
<rect x="222.623" y="117.168" width="2.77718" height="3.15344" fill="#44312C"/>
<rect x="225.4" y="120.321" width="2.77718" height="3.15344" fill="#44312C"/>
<rect x="228.177" y="120.321" width="2.77718" height="3.15344" fill="#44312C"/>
<rect x="230.954" y="120.321" width="2.77718" height="3.15344" fill="#44312C"/>
<rect x="233.731" y="120.321" width="2.77718" height="3.15344" fill="#44312C"/>
<rect x="236.509" y="120.321" width="2.77718" height="3.15344" fill="#44312C"/>
<rect x="239.286" y="120.321" width="2.77718" height="3.15344" fill="#44312C"/>
<rect x="242.063" y="120.321" width="2.77718" height="3.15344" fill="#44312C"/>
<rect x="244.84" y="117.168" width="2.77718" height="3.15344" fill="#44312C"/>
<rect x="247.617" y="117.168" width="2.77718" height="3.15344" fill="#44312C"/>
<rect x="250.395" y="117.168" width="2.77718" height="3.15344" fill="#44312C"/>
<rect x="255.949" y="117.168" width="2.77718" height="3.15344" fill="#44312C"/>
<rect x="258.726" y="117.168" width="2.77718" height="3.15344" fill="#44312C"/>
<rect x="150.416" y="117.168" width="2.77718" height="3.15344" fill="#44312C"/>
<rect x="153.193" y="117.168" width="2.77718" height="3.15344" fill="#44312C"/>
<rect x="155.971" y="117.168" width="2.77718" height="3.15344" fill="#44312C"/>
<rect x="158.748" y="117.168" width="2.77718" height="3.15344" fill="#44312C"/>
<rect x="161.525" y="117.168" width="2.77718" height="3.15344" fill="#44312C"/>
<rect x="164.302" y="117.168" width="2.77718" height="3.15344" fill="#44312C"/>
<rect x="167.079" y="117.168" width="2.77718" height="3.15344" fill="#44312C"/>
<rect x="169.856" y="117.168" width="2.77718" height="3.15344" fill="#44312C"/>
<rect x="172.634" y="117.168" width="2.77718" height="3.15344" fill="#44312C"/>
<rect x="175.411" y="117.168" width="2.77718" height="3.15344" fill="#44312C"/>
<rect x="178.188" y="117.168" width="2.77718" height="3.15344" fill="#44312C"/>
<rect x="180.965" y="117.168" width="2.77718" height="3.15344" fill="#44312C"/>
<rect x="183.743" y="117.168" width="2.77718" height="3.15344" fill="#44312C"/>
<rect x="186.52" y="117.168" width="2.77718" height="3.15344" fill="#44312C"/>
<rect x="189.297" y="117.168" width="2.77718" height="3.15344" fill="#44312C"/>
<rect x="192.074" y="117.168" width="2.77718" height="3.15344" fill="#44312C"/>
<rect x="194.851" y="117.168" width="2.77718" height="3.15344" fill="#44312C"/>
<rect x="197.628" y="117.168" width="2.77718" height="3.15344" fill="#44312C"/>
<rect x="200.406" y="117.168" width="2.77718" height="3.15344" fill="#44312C"/>
<rect x="203.183" y="117.168" width="2.77718" height="3.15344" fill="#44312C"/>
<rect x="205.96" y="117.168" width="2.77718" height="3.15344" fill="#44312C"/>
<rect x="117.09" y="117.168" width="2.77718" height="3.15344" fill="#44312C"/>
<rect x="119.867" y="117.168" width="2.77718" height="3.15344" fill="#44312C"/>
<rect x="122.645" y="117.168" width="2.77718" height="3.15344" fill="#44312C"/>
<rect x="125.422" y="117.168" width="2.77718" height="3.15344" fill="#44312C"/>
<rect x="128.199" y="117.168" width="2.77718" height="3.15344" fill="#44312C"/>
<rect x="130.976" y="117.168" width="2.77718" height="3.15344" fill="#44312C"/>
<rect x="133.753" y="117.168" width="2.77718" height="3.15344" fill="#44312C"/>
<rect x="136.531" y="117.168" width="2.77718" height="3.15344" fill="#44312C"/>
<rect x="139.307" y="117.168" width="2.77718" height="3.15344" fill="#44312C"/>
<rect x="142.085" y="117.168" width="2.77718" height="3.15344" fill="#44312C"/>
<rect x="144.862" y="117.168" width="2.77718" height="3.15344" fill="#44312C"/>
<rect x="147.639" y="117.168" width="2.77718" height="3.15344" fill="#44312C"/>
<rect x="111.536" y="117.168" width="2.77718" height="3.15344" fill="#44312C"/>
<rect x="100.427" y="120.321" width="2.77718" height="3.15344" fill="#44312C"/>
<rect x="97.6498" y="120.321" width="2.77718" height="3.15344" fill="#44312C"/>
<rect x="103.204" y="120.321" width="2.77718" height="3.15344" fill="#44312C"/>
<rect x="105.982" y="120.321" width="2.77718" height="3.15344" fill="#44312C"/>
<rect x="108.758" y="117.168" width="2.77718" height="3.15344" fill="#44312C"/>
<rect x="114.313" y="117.168" width="2.77718" height="3.15344" fill="#44312C"/>
<rect x="83.764" y="120.321" width="2.77718" height="3.15344" fill="#44312C"/>
<rect x="86.5411" y="120.321" width="2.77718" height="3.15344" fill="#44312C"/>
<rect x="89.3181" y="120.321" width="2.77718" height="3.15344" fill="#44312C"/>
<rect x="92.0957" y="120.321" width="2.77718" height="3.15344" fill="#44312C"/>
<rect x="94.8724" y="120.321" width="2.77718" height="3.15344" fill="#44312C"/>
<rect x="80.9867" y="120.321" width="2.77718" height="3.15344" fill="#44312C"/>
<rect x="67.1006" y="117.168" width="2.77718" height="3.15344" fill="#44312C"/>
<rect x="69.8779" y="120.321" width="2.77718" height="3.15344" fill="#44312C"/>
<rect x="72.6553" y="120.321" width="2.77718" height="3.15344" fill="#44312C"/>
<rect x="75.4324" y="120.321" width="2.77718" height="3.15344" fill="#44312C"/>
<rect x="78.2094" y="120.321" width="2.77718" height="3.15344" fill="#44312C"/>
<rect x="61.546" y="101.4" width="2.77718" height="3.15344" fill="#44312C"/>
<rect x="64.3239" y="104.554" width="2.77718" height="3.15344" fill="#44312C"/>
<rect x="64.3239" y="107.708" width="2.77718" height="3.15344" fill="#44312C"/>
<rect x="67.1006" y="110.861" width="2.77718" height="3.15344" fill="#44312C"/>
<rect x="67.1006" y="114.014" width="2.77718" height="3.15344" fill="#44312C"/>
<rect x="61.546" y="98.2467" width="2.77718" height="3.15344" fill="#44312C"/>
<rect x="58.7693" y="73.0194" width="2.77718" height="3.15344" fill="#44312C"/>
<rect x="58.7693" y="76.1731" width="2.77718" height="3.15344" fill="#44312C"/>
<rect x="58.7693" y="79.3268" width="2.77718" height="3.15344" fill="#44312C"/>
<rect x="58.7693" y="82.48" width="2.77718" height="3.15344" fill="#44312C"/>
<rect x="58.7693" y="85.6332" width="2.77718" height="3.15344" fill="#44312C"/>
<rect x="58.7693" y="88.7867" width="2.77718" height="3.15344" fill="#44312C"/>
<rect x="61.546" y="91.9399" width="2.77718" height="3.15344" fill="#44312C"/>
<rect x="61.546" y="95.0936" width="2.77718" height="3.15344" fill="#44312C"/>
<rect x="61.546" y="69.8657" width="2.77718" height="3.15344" fill="#44312C"/>
<rect x="58.7693" y="69.8657" width="2.77718" height="3.15344" fill="#44312C"/>
<rect x="61.546" y="66.7125" width="2.77718" height="3.15344" fill="#44312C"/>
<rect x="58.7693" y="35.1781" width="2.77718" height="3.15344" fill="#44312C"/>
<rect x="58.7693" y="38.3317" width="2.77718" height="3.15344" fill="#44312C"/>
<rect x="58.7693" y="41.4849" width="2.77718" height="3.15344" fill="#44312C"/>
<rect x="58.7693" y="44.6385" width="2.77718" height="3.15344" fill="#44312C"/>
<rect x="61.546" y="47.7917" width="2.77718" height="3.15344" fill="#44312C"/>
<rect x="61.546" y="50.9453" width="2.77718" height="3.15344" fill="#44312C"/>
<rect x="61.546" y="54.099" width="2.77718" height="3.15344" fill="#44312C"/>
<rect x="61.546" y="57.2522" width="2.77718" height="3.15344" fill="#44312C"/>
<rect x="61.546" y="60.4059" width="2.77718" height="3.15344" fill="#44312C"/>
<rect x="61.546" y="63.5591" width="2.77718" height="3.15344" fill="#44312C"/>
<rect x="61.546" y="28.8713" width="2.77718" height="3.15344" fill="#44312C"/>
<rect x="58.7693" y="32.0249" width="2.77718" height="3.15344" fill="#44312C"/>
<rect x="61.546" y="25.7181" width="2.77718" height="3.15344" fill="#44312C"/>
<rect x="64.3239" y="28.8713" width="2.77718" height="3.15344" fill="#44312C"/>
<rect x="64.3239" y="32.0249" width="2.77718" height="3.15344" fill="#44312C"/>
<rect x="64.3239" y="35.1781" width="2.77718" height="3.15344" fill="#44312C"/>
<rect x="64.3239" y="38.3317" width="2.77718" height="3.15344" fill="#44312C"/>
<rect x="64.3239" y="41.4849" width="2.77718" height="3.15344" fill="#44312C"/>
<rect x="64.3239" y="44.6385" width="2.77718" height="3.15344" fill="#44312C"/>
<rect x="64.3239" y="47.7917" width="2.77718" height="3.15344" fill="#44312C"/>
<rect x="67.1006" y="50.9453" width="2.77718" height="3.15344" fill="#44312C"/>
<rect x="67.1006" y="54.099" width="2.77718" height="3.15344" fill="#44312C"/>
<rect x="69.8779" y="57.2522" width="2.77718" height="3.15344" fill="#44312C"/>
<rect x="69.8779" y="60.4059" width="2.77718" height="3.15344" fill="#44312C"/>
<rect x="69.8779" y="63.5591" width="2.77718" height="3.15344" fill="#44312C"/>
<rect x="69.8779" y="66.7125" width="2.77718" height="3.15344" fill="#44312C"/>
<rect x="69.8779" y="69.8657" width="2.77718" height="3.15344" fill="#44312C"/>
<rect x="67.1006" y="73.0194" width="2.77718" height="3.15344" fill="#44312C"/>
<rect x="67.1006" y="76.1731" width="2.77718" height="3.15344" fill="#44312C"/>
<rect x="67.1006" y="79.3268" width="2.77718" height="3.15344" fill="#44312C"/>
<rect x="64.3239" y="82.48" width="2.77718" height="3.15344" fill="#44312C"/>
<rect x="64.3239" y="85.6332" width="2.77718" height="3.15344" fill="#44312C"/>
<rect x="64.3239" y="88.7867" width="2.77718" height="3.15344" fill="#44312C"/>
<rect x="67.1006" y="91.9399" width="2.77718" height="3.15344" fill="#44312C"/>
<rect x="67.1006" y="95.0936" width="2.77718" height="3.15344" fill="#44312C"/>
<rect x="67.1006" y="98.2467" width="2.77718" height="3.15344" fill="#44312C"/>
<rect x="67.1006" y="101.4" width="2.77718" height="3.15344" fill="#44312C"/>
<rect x="69.8779" y="104.554" width="2.77718" height="3.15344" fill="#44312C"/>
<rect x="69.8779" y="107.708" width="2.77718" height="3.15344" fill="#44312C"/>
<rect x="72.6553" y="110.861" width="2.77718" height="3.15344" fill="#44312C"/>
<rect x="75.4324" y="114.014" width="2.77718" height="3.15344" fill="#44312C"/>
<rect x="78.2094" y="114.014" width="2.77718" height="3.15344" fill="#44312C"/>
<rect x="80.9867" y="114.014" width="2.77718" height="3.15344" fill="#44312C"/>
<rect x="83.764" y="117.168" width="2.77718" height="3.15344" fill="#44312C"/>
<rect x="114.313" y="107.708" width="2.77718" height="3.15344" fill="#44312C"/>
<rect x="108.758" y="110.861" width="2.77718" height="3.15344" fill="#44312C"/>
<rect x="103.204" y="114.014" width="2.77718" height="3.15344" fill="#44312C"/>
<rect x="86.5411" y="117.168" width="2.77718" height="3.15344" fill="#44312C"/>
<rect x="89.3181" y="117.168" width="2.77718" height="3.15344" fill="#44312C"/>
<rect x="92.0957" y="117.168" width="2.77718" height="3.15344" fill="#44312C"/>
<rect x="94.8724" y="117.168" width="2.77718" height="3.15344" fill="#44312C"/>
<rect x="97.6498" y="114.014" width="2.77718" height="3.15344" fill="#44312C"/>
<rect x="100.427" y="114.014" width="2.77718" height="3.15344" fill="#44312C"/>
<rect x="105.982" y="114.014" width="2.77718" height="3.15344" fill="#44312C"/>
<rect x="111.536" y="107.708" width="2.77718" height="3.15344" fill="#44312C"/>
<rect x="114.313" y="104.554" width="2.77718" height="3.15344" fill="#44312C"/>
<rect x="122.645" y="85.6332" width="2.77718" height="3.15344" fill="#44312C"/>
<rect x="122.645" y="88.7867" width="2.77718" height="3.15344" fill="#44312C"/>
<rect x="122.645" y="91.9399" width="2.77718" height="3.15344" fill="#44312C"/>
<rect x="119.867" y="95.0936" width="2.77718" height="3.15344" fill="#44312C"/>
<rect x="119.867" y="98.2467" width="2.77718" height="3.15344" fill="#44312C"/>
<rect x="117.09" y="101.4" width="2.77718" height="3.15344" fill="#44312C"/>
<rect x="117.09" y="104.554" width="2.77718" height="3.15344" fill="#44312C"/>
<rect x="125.422" y="82.48" width="2.77718" height="3.15344" fill="#44312C"/>
<rect x="125.422" y="60.4059" width="2.77718" height="3.15344" fill="#44312C"/>
<rect x="125.422" y="63.5591" width="2.77718" height="3.15344" fill="#44312C"/>
<rect x="125.422" y="66.7125" width="2.77718" height="3.15344" fill="#44312C"/>
<rect x="125.422" y="69.8657" width="2.77718" height="3.15344" fill="#44312C"/>
<rect x="125.422" y="73.0194" width="2.77718" height="3.15344" fill="#44312C"/>
<rect x="125.422" y="76.1731" width="2.77718" height="3.15344" fill="#44312C"/>
<rect x="125.422" y="79.3268" width="2.77718" height="3.15344" fill="#44312C"/>
<rect x="128.199" y="32.0249" width="2.77718" height="3.15344" fill="#44312C"/>
<rect x="128.199" y="35.1781" width="2.77718" height="3.15344" fill="#44312C"/>
<rect x="128.199" y="38.3317" width="2.77718" height="3.15344" fill="#44312C"/>
<rect x="128.199" y="41.4849" width="2.77718" height="3.15344" fill="#44312C"/>
<rect x="128.199" y="44.6385" width="2.77718" height="3.15344" fill="#44312C"/>
<rect x="128.199" y="47.7917" width="2.77718" height="3.15344" fill="#44312C"/>
<rect x="128.199" y="50.9453" width="2.77718" height="3.15344" fill="#44312C"/>
<rect x="125.422" y="54.099" width="2.77718" height="3.15344" fill="#44312C"/>
<rect x="125.422" y="57.2522" width="2.77718" height="3.15344" fill="#44312C"/>
<rect x="128.199" y="28.8713" width="2.77718" height="3.15344" fill="#44312C"/>
<rect x="128.199" y="25.7181" width="2.77718" height="3.15344" fill="#44312C"/>
<path d="M132.469 26.2233C131.31 24.8334 129.985 23.4961 129.164 21.8009C130.775 21.8009 132.436 21.3425 133.944 21.7339C135.234 22.0686 136.62 22.007 137.927 22.3369C138.623 22.5125 139.156 22.8325 139.904 22.6384C144.74 21.3834 149.545 21.4553 154.509 21.4993C158.853 21.5379 162.965 21.9666 167.079 23.543C168.305 24.0132 169.557 25.4192 170.855 25.4192C172.754 25.4192 174.075 24.0897 175.635 23.007C179.492 20.3305 183.085 16.7994 186.523 13.4921C189.746 10.3911 192.833 5.96502 196.879 4.17832C198.116 3.63206 200.015 2.86017 201.334 2.8047C202.655 2.74918 203.219 4.04984 203.757 5.29038L203.783 5.35092C205.18 8.56701 205.642 11.3318 205.642 14.8658C205.642 18.2288 205.128 20.7473 208.298 22.2197C209.791 22.9134 211.659 23.0133 213.225 23.4425C216.446 24.3254 219.866 24.2131 223.154 24.2131C228.856 24.2131 233.846 22.5196 238.836 19.3719C240.739 18.1713 247.911 14.3423 248.661 19.2379C248.858 20.5269 250.583 24.388 249.561 25.4192C247.361 27.6396 245.69 30.5673 243.881 33.1919C242.064 35.8282 239.937 38.7449 237.242 40.194C235.299 41.2391 233.142 41.7452 231.135 42.6062C226.747 44.4882 221.911 46.1857 217.326 47.2966C210.873 48.8603 203.826 48.8094 197.263 48.9215C189.033 49.062 180.736 49.1811 172.508 48.9215C169.161 48.816 166.118 47.8772 162.845 47.2799C155.584 45.955 148.941 41.9142 142.973 37.1452C139.042 34.0042 135.759 30.1713 132.469 26.2233Z" fill="#704F37"/>
<rect x="128.384" y="22.5646" width="2.77718" height="3.15344" fill="#441510"/>
<rect x="131.161" y="25.7181" width="2.77718" height="3.15344" fill="#441510"/>
<rect x="128.384" y="19.4114" width="2.77718" height="3.15344" fill="#441510"/>
<rect x="133.938" y="28.8713" width="2.77718" height="3.15344" fill="#441510"/>
<rect x="136.716" y="32.025" width="2.77718" height="3.15344" fill="#441510"/>
<rect x="142.27" y="35.1781" width="2.77718" height="3.15344" fill="#441510"/>
<rect x="139.493" y="35.1781" width="2.77718" height="3.15344" fill="#441510"/>
<rect x="145.047" y="38.3318" width="2.77718" height="3.15344" fill="#441510"/>
<rect x="150.602" y="41.485" width="2.77718" height="3.15344" fill="#441510"/>
<rect x="156.156" y="44.6387" width="2.77718" height="3.15344" fill="#441510"/>
<rect x="147.824" y="41.485" width="2.77718" height="3.15344" fill="#441510"/>
<rect x="158.933" y="44.6387" width="2.77718" height="3.15344" fill="#441510"/>
<rect x="164.487" y="47.7919" width="2.77718" height="3.15344" fill="#441510"/>
<rect x="172.819" y="47.7919" width="2.77718" height="3.15344" fill="#441510"/>
<rect x="175.596" y="47.7919" width="2.77718" height="3.15344" fill="#441510"/>
<rect x="228.363" y="41.485" width="2.77718" height="3.15344" fill="#441510"/>
<rect x="220.031" y="44.6387" width="2.77718" height="3.15344" fill="#441510"/>
<rect x="222.808" y="44.6387" width="2.77718" height="3.15344" fill="#441510"/>
<rect x="225.586" y="41.485" width="2.77718" height="3.15344" fill="#441510"/>
<rect x="231.14" y="41.485" width="2.77718" height="3.15344" fill="#441510"/>
<rect x="233.917" y="38.3318" width="2.77718" height="3.15344" fill="#441510"/>
<rect x="236.694" y="38.3318" width="2.77718" height="3.15344" fill="#441510"/>
<rect x="242.248" y="32.025" width="2.77718" height="3.15344" fill="#441510"/>
<rect x="239.471" y="35.1781" width="2.77718" height="3.15344" fill="#441510"/>
<rect x="247.803" y="25.7181" width="2.77718" height="3.15344" fill="#441510"/>
<rect x="245.026" y="28.8713" width="2.77718" height="3.15344" fill="#441510"/>
<rect x="247.803" y="22.5646" width="2.77718" height="3.15344" fill="#441510"/>
<rect x="247.803" y="19.4114" width="2.77718" height="3.15344" fill="#441510"/>
<rect x="247.803" y="16.2577" width="2.77718" height="3.15344" fill="#441510"/>
<rect x="239.471" y="16.2577" width="2.77718" height="3.15344" fill="#441510"/>
<rect x="242.248" y="16.2577" width="2.77718" height="3.15344" fill="#441510"/>
<rect x="245.026" y="16.2577" width="2.77718" height="3.15344" fill="#441510"/>
<rect x="236.694" y="16.2577" width="2.77718" height="3.15344" fill="#441510"/>
<rect x="233.917" y="19.4114" width="2.77718" height="3.15344" fill="#441510"/>
<rect x="222.808" y="22.5646" width="2.77718" height="3.15344" fill="#441510"/>
<rect x="225.586" y="22.5646" width="2.77718" height="3.15344" fill="#441510"/>
<rect x="228.363" y="22.5646" width="2.77718" height="3.15344" fill="#441510"/>
<rect x="231.14" y="22.5646" width="2.77718" height="3.15344" fill="#441510"/>
<rect x="236.694" y="19.4114" width="2.77718" height="3.15344" fill="#441510"/>
<rect x="217.254" y="22.5646" width="2.77718" height="3.15344" fill="#441510"/>
<rect x="214.477" y="22.5646" width="2.77718" height="3.15344" fill="#441510"/>
<rect x="220.031" y="22.5646" width="2.77718" height="3.15344" fill="#441510"/>
<rect x="211.7" y="22.5646" width="2.77718" height="3.15344" fill="#441510"/>
<rect x="208.922" y="22.5646" width="2.77718" height="3.15344" fill="#441510"/>
<rect x="206.145" y="19.4114" width="2.77718" height="3.15344" fill="#441510"/>
<rect x="203.368" y="16.2577" width="2.77718" height="3.15344" fill="#441510"/>
<rect x="203.368" y="13.104" width="2.77718" height="3.15344" fill="#441510"/>
<rect x="203.368" y="6.79724" width="2.77718" height="3.15344" fill="#441510"/>
<rect x="203.368" y="9.95044" width="2.77718" height="3.15344" fill="#441510"/>
<rect x="203.368" y="3.64355" width="2.77718" height="3.15344" fill="#441510"/>
<rect x="200.591" y="0.490479" width="2.77718" height="3.15344" fill="#441510"/>
<rect x="197.814" y="0.490479" width="2.77718" height="3.15344" fill="#441510"/>
<rect x="195.037" y="3.64355" width="2.77718" height="3.15344" fill="#441510"/>
<rect x="189.482" y="6.79724" width="2.77718" height="3.15344" fill="#441510"/>
<rect x="186.705" y="9.95044" width="2.77718" height="3.15344" fill="#441510"/>
<rect x="192.259" y="3.64355" width="2.77718" height="3.15344" fill="#441510"/>
<rect x="186.705" y="13.104" width="2.77718" height="3.15344" fill="#441510"/>
<rect x="183.928" y="13.104" width="2.77718" height="3.15344" fill="#441510"/>
<rect x="181.151" y="16.2577" width="2.77718" height="3.15344" fill="#441510"/>
<rect x="178.373" y="19.4114" width="2.77718" height="3.15344" fill="#441510"/>
<rect x="175.596" y="19.4114" width="2.77718" height="3.15344" fill="#441510"/>
<rect x="175.596" y="22.5646" width="2.77718" height="3.15344" fill="#441510"/>
<rect x="172.819" y="22.5646" width="2.77718" height="3.15344" fill="#441510"/>
<rect x="170.042" y="22.5646" width="2.77718" height="3.15344" fill="#441510"/>
<rect x="167.264" y="22.5646" width="2.77718" height="3.15344" fill="#441510"/>
<rect x="164.487" y="22.5646" width="2.77718" height="3.15344" fill="#441510"/>
<rect x="153.379" y="19.4114" width="2.77718" height="3.15344" fill="#441510"/>
<rect x="156.156" y="19.4114" width="2.77718" height="3.15344" fill="#441510"/>
<rect x="158.933" y="19.4114" width="2.77718" height="3.15344" fill="#441510"/>
<rect x="161.71" y="19.4114" width="2.77718" height="3.15344" fill="#441510"/>
<rect x="139.493" y="19.4114" width="2.77718" height="3.15344" fill="#441510"/>
<rect x="142.27" y="19.4114" width="2.77718" height="3.15344" fill="#441510"/>
<rect x="145.047" y="19.4114" width="2.77718" height="3.15344" fill="#441510"/>
<rect x="147.824" y="19.4114" width="2.77718" height="3.15344" fill="#441510"/>
<rect x="150.602" y="19.4114" width="2.77718" height="3.15344" fill="#441510"/>
<rect x="139.493" y="22.5646" width="2.77718" height="3.15344" fill="#441510"/>
<rect x="136.716" y="19.4114" width="2.77718" height="3.15344" fill="#441510"/>
<rect x="133.938" y="19.4114" width="2.77718" height="3.15344" fill="#441510"/>
<rect x="131.161" y="19.4114" width="2.77718" height="3.15344" fill="#441510"/>
<path d="M97.0855 57.4655C87.9558 56.3503 79.2322 51.926 70.0394 51.926C70.0394 51.8519 70.0834 53.8168 70.4291 54.1221C71.2587 54.8548 71.5981 54.787 71.5981 56.056C71.5981 59.7502 71.9543 63.5907 71.194 67.1677C70.5036 70.4156 69.7271 73.4987 68.9426 76.706C68.5014 78.5095 68.4356 80.137 68.4952 82.0324C68.5453 83.6253 69.2364 85.5973 68.9859 87.1621C68.6474 89.2761 68.221 91.3325 68.221 93.5209C68.221 94.9403 67.7837 97.3444 68.4807 98.6015C69.1496 99.8077 69.4861 101.183 70.1838 102.387C70.9205 103.659 71.7495 104.848 72.5073 106.091C73.0341 106.955 73.3513 108.259 73.7341 109.221C74.097 110.134 74.8814 111.093 74.9753 112.106C75.0609 113.03 78.2853 114.071 78.872 114.4C80.5405 115.337 82.6785 116.531 84.5871 116.531C87.303 116.531 90.0941 115.667 92.7702 115.203C94.7192 114.866 96.7825 114.466 98.7596 114.466C99.6132 114.466 99.3568 114.95 99.9142 115.285C100.766 115.798 102.895 114.447 103.609 114.105C107.432 112.274 111.04 110.455 115.082 109.435C116.295 109.129 118.12 106.772 118.936 105.845C120.78 103.751 123.588 101.1 124.709 98.372C125.243 97.0712 125.014 95.4624 125.503 94.2421C126.416 91.9607 127.188 89.1778 127.711 86.736C128.307 83.948 127.97 80.8065 127.97 77.9515C127.97 73.4509 126.152 69.488 126.152 65.0371C126.152 62.3146 125.785 59.2166 126.412 56.5805C126.83 54.8197 127.537 53.2378 128.346 51.6638C128.486 51.3906 129.602 49.566 128.88 49.566C126.953 49.566 125.877 50.9805 124.074 51.5655C119.988 52.8912 115.672 54.6643 111.864 56.8263C110.2 57.7709 108.912 57.826 107.015 57.826C103.697 57.826 100.391 57.8692 97.0855 57.4655Z" fill="#1E1212" stroke="#473A39" stroke-width="1.15169" stroke-linecap="round"/>
<rect x="75.4374" y="50.9459" width="2.77697" height="3.15344" fill="#2D130A"/>
<rect x="86.5452" y="54.0986" width="2.77697" height="3.15344" fill="#2D130A"/>
<rect x="69.8831" y="50.9459" width="2.77697" height="3.15344" fill="#2D130A"/>
<rect x="72.6603" y="50.9459" width="2.77697" height="3.15344" fill="#2D130A"/>
<rect x="78.2141" y="50.9459" width="2.77697" height="3.15344" fill="#2D130A"/>
<rect x="80.9912" y="50.9459" width="2.77697" height="3.15344" fill="#2D130A"/>
<rect x="83.7678" y="54.0986" width="2.77697" height="3.15344" fill="#2D130A"/>
<rect x="89.3218" y="54.0986" width="2.77697" height="3.15344" fill="#2D130A"/>
<rect x="92.0992" y="54.0986" width="2.77697" height="3.15344" fill="#2D130A"/>
<rect x="94.8757" y="57.2523" width="2.77697" height="3.15344" fill="#2D130A"/>
<rect x="97.6527" y="57.2523" width="2.77697" height="3.15344" fill="#2D130A"/>
<rect x="100.43" y="57.2523" width="2.77697" height="3.15344" fill="#2D130A"/>
<rect x="103.206" y="57.2523" width="2.77697" height="3.15344" fill="#2D130A"/>
<rect x="105.984" y="57.2523" width="2.77697" height="3.15344" fill="#2D130A"/>
<rect x="108.761" y="57.2523" width="2.77697" height="3.15344" fill="#2D130A"/>
<rect x="111.538" y="54.0986" width="2.77697" height="3.15344" fill="#2D130A"/>
<rect x="119.869" y="50.9459" width="2.77697" height="3.15344" fill="#2D130A"/>
<rect x="114.315" y="54.0986" width="2.77697" height="3.15344" fill="#2D130A"/>
<rect x="117.092" y="50.9459" width="2.77697" height="3.15344" fill="#2D130A"/>
<rect x="122.646" y="50.9459" width="2.77697" height="3.15344" fill="#2D130A"/>
<rect x="125.423" y="47.7922" width="2.77697" height="3.15344" fill="#2D130A"/>
<rect x="128.199" y="47.7922" width="2.77697" height="3.15344" fill="#2D130A"/>
<rect x="128.199" y="50.9459" width="2.77697" height="3.15344" fill="#2D130A"/>
<rect x="125.423" y="50.9459" width="2.77697" height="3.15344" fill="#2D130A"/>
<rect x="125.423" y="54.0986" width="2.77697" height="3.15344" fill="#2D130A"/>
<rect x="125.423" y="57.2523" width="2.77697" height="3.15344" fill="#2D130A"/>
<rect x="125.423" y="60.406" width="2.77697" height="3.15344" fill="#2D130A"/>
<rect x="125.423" y="63.5596" width="2.77697" height="3.15344" fill="#2D130A"/>
<rect x="125.423" y="66.7133" width="2.77697" height="3.15344" fill="#2D130A"/>
<rect x="125.423" y="69.8663" width="2.77697" height="3.15344" fill="#2D130A"/>
<rect x="125.423" y="73.02" width="2.77697" height="3.15344" fill="#2D130A"/>
<rect x="125.423" y="76.1732" width="2.77697" height="3.15344" fill="#2D130A"/>
<rect x="125.423" y="79.3269" width="2.77697" height="3.15344" fill="#2D130A"/>
<rect x="125.423" y="82.48" width="2.77697" height="3.15344" fill="#2D130A"/>
<rect x="125.423" y="85.6337" width="2.77697" height="3.15344" fill="#2D130A"/>
<rect x="125.423" y="88.7869" width="2.77697" height="3.15344" fill="#2D130A"/>
<rect x="125.423" y="91.9406" width="2.77697" height="3.15344" fill="#2D130A"/>
<rect x="122.646" y="95.0942" width="2.77697" height="3.15344" fill="#2D130A"/>
<rect x="122.646" y="98.2473" width="2.77697" height="3.15344" fill="#2D130A"/>
<rect x="119.869" y="101.401" width="2.77697" height="3.15344" fill="#2D130A"/>
<rect x="117.092" y="104.554" width="2.77697" height="3.15344" fill="#2D130A"/>
<rect x="114.315" y="107.708" width="2.77697" height="3.15344" fill="#2D130A"/>
<rect x="105.984" y="110.861" width="2.77697" height="3.15344" fill="#2D130A"/>
<rect x="103.206" y="110.861" width="2.77697" height="3.15344" fill="#2D130A"/>
<rect x="108.761" y="110.861" width="2.77697" height="3.15344" fill="#2D130A"/>
<rect x="111.538" y="107.708" width="2.77697" height="3.15344" fill="#2D130A"/>
<rect x="103.206" y="114.015" width="2.77697" height="3.15344" fill="#2D130A"/>
<rect x="100.43" y="114.015" width="2.77697" height="3.15344" fill="#2D130A"/>
<rect x="97.6527" y="114.015" width="2.77697" height="3.15344" fill="#2D130A"/>
<rect x="92.0992" y="114.015" width="2.77697" height="3.15344" fill="#2D130A"/>
<rect x="94.8757" y="114.015" width="2.77697" height="3.15344" fill="#2D130A"/>
<rect x="89.3218" y="114.015" width="2.77697" height="3.15344" fill="#2D130A"/>
<rect x="83.7678" y="114.015" width="2.77697" height="3.15344" fill="#2D130A"/>
<rect x="86.5452" y="114.015" width="2.77697" height="3.15344" fill="#2D130A"/>
<rect x="80.9912" y="114.015" width="2.77697" height="3.15344" fill="#2D130A"/>
<rect x="78.2141" y="114.015" width="2.77697" height="3.15344" fill="#2D130A"/>
<rect x="72.6603" y="110.861" width="2.77697" height="3.15344" fill="#2D130A"/>
<rect x="75.4374" y="110.861" width="2.77697" height="3.15344" fill="#2D130A"/>
<rect x="72.6603" y="107.708" width="2.77697" height="3.15344" fill="#2D130A"/>
<rect x="69.8831" y="104.554" width="2.77697" height="3.15344" fill="#2D130A"/>
<rect x="69.8831" y="101.401" width="2.77697" height="3.15344" fill="#2D130A"/>
<rect x="67.1063" y="98.2473" width="2.77697" height="3.15344" fill="#2D130A"/>
<rect x="67.1063" y="95.0942" width="2.77697" height="3.15344" fill="#2D130A"/>
<rect x="67.1063" y="91.9406" width="2.77697" height="3.15344" fill="#2D130A"/>
<rect x="67.1063" y="85.6337" width="2.77697" height="3.15344" fill="#2D130A"/>
<rect x="67.1063" y="88.7869" width="2.77697" height="3.15344" fill="#2D130A"/>
<rect x="67.1063" y="82.48" width="2.77697" height="3.15344" fill="#2D130A"/>
<rect x="67.1063" y="79.3269" width="2.77697" height="3.15344" fill="#2D130A"/>
<rect x="67.1063" y="76.1732" width="2.77697" height="3.15344" fill="#2D130A"/>
<rect x="69.8831" y="66.7133" width="2.77697" height="3.15344" fill="#2D130A"/>
<rect x="69.8831" y="69.8663" width="2.77697" height="3.15344" fill="#2D130A"/>
<rect x="67.1063" y="73.02" width="2.77697" height="3.15344" fill="#2D130A"/>
<rect x="69.8831" y="57.2523" width="2.77697" height="3.15344" fill="#2D130A"/>
<rect x="69.8831" y="60.406" width="2.77697" height="3.15344" fill="#2D130A"/>
<rect x="69.8831" y="63.5596" width="2.77697" height="3.15344" fill="#2D130A"/>
<rect x="69.8831" y="54.0986" width="2.77697" height="3.15344" fill="#2D130A"/>
<path d="M130.764 101.131H144.921C146.748 101.131 149.511 101.698 151.295 101.023C155.931 99.268 159.574 93.7313 163.327 90.3966C166.388 87.6763 170.255 88.4448 173.927 88.4448C175.983 88.4448 179.809 89.6856 180.277 86.7642C181.31 80.3091 182.482 73.9996 185.338 68.2225C187.468 63.9144 190.675 57.6759 195.221 56.2681C196.754 55.7935 200.205 54.6302 199.471 57.1084C197.611 63.3863 197.116 77.8328 204.866 79.2282C211.191 80.3671 218.98 77.0225 223.153 71.6381C223.529 71.1532 227.317 67.4941 226.4 67.4635C226.277 67.4594 226.095 67.4539 225.87 67.4505C225.278 68.172 224.548 68.8132 223.583 69.3611C222.194 70.1497 220.456 70.9657 218.928 71.3128C217.688 71.5943 220.273 70.0034 220.599 68.7105C220.904 67.4968 224.357 67.4273 225.87 67.4505C227.237 65.7863 227.873 63.6951 228.978 61.3372C230.473 58.1483 235.581 58.0865 238.336 57.4608C240.745 56.9139 243.085 56.152 245.498 55.6446C247.171 55.293 248.878 54.0706 250.234 52.744C250.501 52.4614 250.77 52.1804 251.039 51.9014C251.062 51.875 251.085 51.8487 251.109 51.8224C254.416 48.0674 256.762 43.4515 260.109 39.6511C265.342 33.7092 270.81 28.1298 277.298 24.0371C278.458 23.3049 280.306 20.5867 280.306 23.5763C280.306 28.4956 276.785 32.1838 273.43 34.7717C268.342 38.696 262.691 41.2908 257.745 45.5335C255.496 47.463 253.239 49.6198 251.039 51.9014C250.788 52.1821 250.519 52.4653 250.234 52.744C246.946 56.2203 243.805 59.9509 241.034 63.5871C237.288 68.5027 233.712 74.2447 230.554 79.662C228.605 83.0056 225.934 85.9661 223.559 88.9328C222.07 90.793 220.882 92.4933 220.479 94.8965C220.377 95.5055 219.849 96.8447 220.217 97.4717C221.189 99.1284 225.417 98.6922 226.782 98.5831C235.598 97.8781 241.614 89.9635 249.748 87.0081C253.458 85.66 257.105 85.5172 260.968 85.5172C264.277 85.5172 267.513 86.0052 270.804 86.0052C272.697 86.0052 271.631 88.0584 271.974 89.746C273.29 96.2198 282.524 105.404 287.802 98.6915C290.124 95.7382 290.239 95.8027 294.104 95.276C298.18 94.7206 302.233 94.0669 306.327 93.7037C308.542 93.5073 310.959 93.6165 313.131 93.0802C314.762 92.6778 316.457 92.8363 318.121 92.8363C319.15 92.8363 318.374 93.1647 317.739 93.4326C314.719 94.7061 311.607 95.4753 308.428 96.0079C302.863 96.9403 297.134 97.5838 291.908 100.047C287.444 102.151 282.814 105.114 278.682 107.962C277.24 108.957 275.038 108.868 273.406 109.209C270.659 109.784 268.069 110.89 265.265 110.89C263.898 110.89 262.277 109.968 261.183 109.968C260.973 109.968 260.175 110.562 259.894 110.646C258.455 111.076 256.847 110.952 255.382 110.782C250.806 110.25 247.002 107.37 242.538 106.526C241.051 106.244 238.412 105.358 236.904 106.119C235.515 106.82 235.898 109.05 234.732 110.375C233.945 111.268 232.281 112.842 231.103 112.842C230.347 112.842 230.511 112.384 230.434 111.649C230.315 110.492 228.482 110.536 227.689 110.294C221.825 108.498 214.889 108.45 208.829 108.45C199.564 108.45 190.651 110.375 181.341 110.375C178.762 110.375 176.469 111.744 173.927 111.378C169.826 110.787 165.277 110.065 161.151 110.294C154.994 110.635 148.084 111.506 141.873 111.378C138.42 111.307 136.438 112 133.016 111.378C130.957 111.004 129.417 111.866 127.231 111.866C124.45 111.866 121.783 112.842 118.923 112.842C117.366 112.842 110.828 113.965 111.641 111.378C112.627 108.243 127.644 101.131 130.764 101.131Z" fill="#623825"/>
<rect x="130.932" y="99.2913" width="7.81543" height="8.8743" fill="#3B211D"/>
<rect x="138.747" y="99.2913" width="7.81543" height="8.8743" fill="#3B211D"/>
<rect x="123.116" y="99.2913" width="7.81543" height="8.8743" fill="#3B211D"/>
<rect x="146.562" y="99.2913" width="7.81543" height="8.8743" fill="#3B211D"/>
<rect x="154.378" y="90.4166" width="7.81543" height="8.8743" fill="#3B211D"/>
<rect x="162.193" y="81.5421" width="7.81543" height="8.8743" fill="#3B211D"/>
<rect x="170.009" y="81.5421" width="7.81543" height="8.8743" fill="#3B211D"/>
<rect x="177.824" y="81.5421" width="7.81543" height="8.8743" fill="#3B211D"/>
<rect x="177.824" y="63.7939" width="7.81543" height="8.8743" fill="#3B211D"/>
<rect x="177.824" y="72.6681" width="7.81543" height="8.8743" fill="#3B211D"/>
<rect x="185.639" y="54.9193" width="7.81543" height="8.8743" fill="#3B211D"/>
<rect x="193.455" y="54.9193" width="7.81543" height="8.8743" fill="#3B211D"/>
<rect x="193.455" y="63.7939" width="7.81543" height="8.8743" fill="#3B211D"/>
<rect x="193.455" y="72.6681" width="7.81543" height="8.8743" fill="#3B211D"/>
<rect x="201.27" y="72.6681" width="7.81543" height="8.8743" fill="#3B211D"/>
<rect x="209.086" y="72.6681" width="7.81543" height="8.8743" fill="#3B211D"/>
<rect x="216.901" y="72.6681" width="7.81543" height="8.8743" fill="#3B211D"/>
<rect x="216.901" y="63.7939" width="7.81543" height="8.8743" fill="#3B211D"/>
<rect x="224.717" y="63.7939" width="7.81543" height="8.8743" fill="#3B211D"/>
<rect x="224.717" y="54.9193" width="7.81543" height="8.8743" fill="#3B211D"/>
<rect x="232.532" y="54.9193" width="7.81543" height="8.8743" fill="#3B211D"/>
<rect x="240.348" y="54.9193" width="7.81543" height="8.8743" fill="#3B211D"/>
<rect x="248.163" y="46.0453" width="7.81543" height="8.8743" fill="#3B211D"/>
<rect x="255.979" y="37.1708" width="7.81543" height="8.8743" fill="#3B211D"/>
<rect x="263.794" y="28.2968" width="7.81543" height="8.8743" fill="#3B211D"/>
<rect x="271.609" y="19.4221" width="7.81543" height="8.8743" fill="#3B211D"/>
<rect x="279.425" y="19.4221" width="7.81543" height="8.8743" fill="#3B211D"/>
<rect x="271.609" y="28.2968" width="7.81543" height="8.8743" fill="#3B211D"/>
<rect x="263.794" y="37.1708" width="7.81543" height="8.8743" fill="#3B211D"/>
<rect x="232.532" y="63.7939" width="7.81543" height="8.8743" fill="#3B211D"/>
<rect x="224.717" y="72.6681" width="7.81543" height="8.8743" fill="#3B211D"/>
<rect x="224.717" y="81.5421" width="7.81543" height="8.8743" fill="#3B211D"/>
<rect x="216.901" y="81.5421" width="7.81543" height="8.8743" fill="#3B211D"/>
<rect x="216.901" y="90.4166" width="7.81543" height="8.8743" fill="#3B211D"/>
<rect x="224.717" y="90.4166" width="7.81543" height="8.8743" fill="#3B211D"/>
<rect x="232.532" y="90.4166" width="7.81543" height="8.8743" fill="#3B211D"/>
<rect x="240.348" y="81.5421" width="7.81543" height="8.8743" fill="#3B211D"/>
<rect x="248.163" y="81.5421" width="7.81543" height="8.8743" fill="#3B211D"/>
<rect x="255.979" y="81.5421" width="7.81543" height="8.8743" fill="#3B211D"/>
<rect x="263.794" y="81.5421" width="7.81543" height="8.8743" fill="#3B211D"/>
<rect x="271.609" y="81.5421" width="7.81543" height="8.8743" fill="#3B211D"/>
<rect x="271.609" y="90.4166" width="7.81543" height="8.8743" fill="#3B211D"/>
<rect x="279.425" y="99.2913" width="7.81543" height="8.8743" fill="#3B211D"/>
<rect x="287.24" y="90.4166" width="7.81543" height="8.8743" fill="#3B211D"/>
<rect x="295.056" y="90.4166" width="7.81543" height="8.8743" fill="#3B211D"/>
<rect x="287.24" y="99.2913" width="7.81543" height="8.8743" fill="#3B211D"/>
<rect x="271.609" y="99.2913" width="7.81543" height="8.8743" fill="#3B211D"/>
<rect x="271.609" y="108.165" width="7.81543" height="8.8743" fill="#3B211D"/>
<rect x="263.794" y="108.165" width="7.81543" height="8.8743" fill="#3B211D"/>
<rect x="255.979" y="108.165" width="7.81543" height="8.8743" fill="#3B211D"/>
<rect x="248.163" y="108.165" width="7.81543" height="8.8743" fill="#3B211D"/>
<rect x="240.348" y="99.2913" width="7.81543" height="8.8743" fill="#3B211D"/>
<rect x="232.532" y="99.2913" width="7.81543" height="8.8743" fill="#3B211D"/>
<rect x="232.532" y="108.165" width="7.81543" height="8.8743" fill="#3B211D"/>
<rect x="224.717" y="108.165" width="7.81543" height="8.8743" fill="#3B211D"/>
<rect x="209.086" y="108.165" width="7.81543" height="8.8743" fill="#3B211D"/>
<rect x="216.901" y="108.165" width="7.81543" height="8.8743" fill="#3B211D"/>
<rect x="201.27" y="108.165" width="7.81543" height="8.8743" fill="#3B211D"/>
<rect x="177.824" y="108.165" width="7.81543" height="8.8743" fill="#3B211D"/>
<rect x="185.639" y="108.165" width="7.81543" height="8.8743" fill="#3B211D"/>
<rect x="193.455" y="108.165" width="7.81543" height="8.8743" fill="#3B211D"/>
<rect x="170.009" y="108.165" width="7.81543" height="8.8743" fill="#3B211D"/>
<rect x="162.193" y="108.165" width="7.81543" height="8.8743" fill="#3B211D"/>
<rect x="154.378" y="108.165" width="7.81543" height="8.8743" fill="#3B211D"/>
<rect x="138.747" y="108.165" width="7.81543" height="8.8743" fill="#3B211D"/>
<rect x="146.562" y="108.165" width="7.81543" height="8.8743" fill="#3B211D"/>
<rect x="130.932" y="108.165" width="7.81543" height="8.8743" fill="#3B211D"/>
<rect x="123.116" y="108.165" width="7.81543" height="8.8743" fill="#3B211D"/>
<rect x="115.301" y="108.165" width="7.81543" height="8.8743" fill="#3B211D"/>
<rect x="107.485" y="108.165" width="7.81543" height="8.8743" fill="#3B211D"/>
<rect x="115.301" y="99.2913" width="7.81543" height="8.8743" fill="#3B211D"/>
<path d="M153.884 25.7065C158.127 24.1577 161.877 27.4092 166.362 27.4092C168.833 27.4092 169.259 27.255 171.703 27.4092C177.19 27.7553 175.104 22.9718 180.735 22.9718C181.53 22.9718 184.824 23.1507 188.791 23.5628C190.644 13.6953 194.745 3.15251 205.198 27.2935C206.029 27.8907 206.379 28.5597 206.051 29.3063C205.762 28.6101 205.478 27.9394 205.198 27.2935C202.524 25.3726 194.868 24.1941 188.791 23.5628C187.883 28.3963 187.515 33.0678 187.203 33.4215C185.432 35.4325 198.969 36.7169 196.991 38.4506C195.49 39.7666 194.119 41.5018 192.462 42.5653C189.599 44.4027 183.411 40.8682 180.735 39.8222C175.994 37.9691 170.61 35.4789 165.535 35.4789C160.034 35.4789 154.54 36.057 148.977 35.9932C148.018 35.9822 138.531 34.3836 139.59 33.4215C140.689 32.4237 141.374 30.7228 142.635 29.8212C145.671 27.651 150.49 26.945 153.884 25.7065Z" fill="#FEDBB2"/>
<path d="M166.362 27.4092C161.877 27.4092 158.127 24.1577 153.884 25.7065C150.49 26.945 145.671 27.651 142.635 29.8212C141.374 30.7228 140.689 32.4237 139.59 33.4215C138.531 34.3836 148.018 35.9822 148.977 35.9932C154.54 36.057 160.034 35.4789 165.535 35.4789C170.61 35.4789 175.994 37.9691 180.735 39.8222C183.411 40.8682 189.599 44.4027 192.462 42.5653C194.119 41.5018 195.49 39.7666 196.991 38.4506C198.969 36.7169 185.432 35.4325 187.203 33.4215C188.168 32.3264 189.678 -10.1588 206.051 29.3063C208.127 24.5906 183.127 22.9718 180.735 22.9718C175.104 22.9718 177.19 27.7553 171.703 27.4092C169.259 27.255 168.833 27.4092 166.362 27.4092Z" stroke="#AF8559" stroke-width="1.15169" stroke-linecap="round"/>
<rect x="166.363" y="24.4509" width="5.21028" height="5.9162" fill="#AF8559"/>
<rect x="155.942" y="24.4509" width="5.21028" height="5.9162" fill="#AF8559"/>
<rect x="161.153" y="24.4509" width="5.21028" height="5.9162" fill="#AF8559"/>
<rect x="150.731" y="24.4509" width="5.21028" height="5.9162" fill="#AF8559"/>
<rect x="145.521" y="24.4509" width="5.21028" height="5.9162" fill="#AF8559"/>
<rect x="140.311" y="24.4509" width="5.21028" height="5.9162" fill="#AF8559"/>
<rect x="135.101" y="30.3672" width="5.21028" height="5.9162" fill="#AF8559"/>
<rect x="140.311" y="30.3672" width="5.21028" height="5.9162" fill="#AF8559"/>
<rect x="145.521" y="30.3672" width="5.21028" height="5.9162" fill="#AF8559"/>
<rect x="150.731" y="30.3672" width="5.21028" height="5.9162" fill="#AF8559"/>
<rect x="155.942" y="30.3672" width="5.21028" height="5.9162" fill="#AF8559"/>
<rect x="161.153" y="30.3672" width="5.21028" height="5.9162" fill="#AF8559"/>
<rect x="176.784" y="36.2834" width="5.21028" height="5.9162" fill="#AF8559"/>
<rect x="166.363" y="30.3672" width="5.21028" height="5.9162" fill="#AF8559"/>
<rect x="171.573" y="36.2834" width="5.21028" height="5.9162" fill="#AF8559"/>
<rect x="181.994" y="36.2834" width="5.21028" height="5.9162" fill="#AF8559"/>
<rect x="187.204" y="42.1996" width="5.21028" height="5.9162" fill="#AF8559"/>
<rect x="192.414" y="42.1996" width="5.21028" height="5.9162" fill="#AF8559"/>
<rect x="192.414" y="36.2834" width="5.21028" height="5.9162" fill="#AF8559"/>
<rect x="187.204" y="30.3672" width="5.21028" height="5.9162" fill="#AF8559"/>
<rect x="197.625" y="12.6185" width="5.21028" height="5.9162" fill="#AF8559"/>
<rect x="187.204" y="12.6185" width="5.21028" height="5.9162" fill="#AF8559"/>
<rect x="197.625" y="18.5347" width="5.21028" height="5.9162" fill="#AF8559"/>
<rect x="187.204" y="18.5347" width="5.21028" height="5.9162" fill="#AF8559"/>
<rect x="202.834" y="24.4509" width="5.21028" height="5.9162" fill="#AF8559"/>
<rect x="187.204" y="24.4509" width="5.21028" height="5.9162" fill="#AF8559"/>
<rect x="192.414" y="6.70227" width="5.21028" height="5.9162" fill="#AF8559"/>
<rect x="181.994" y="18.5347" width="5.21028" height="5.9162" fill="#AF8559"/>
<rect x="192.414" y="18.5347" width="5.21028" height="5.9162" fill="#AF8559"/>
<rect x="197.625" y="24.4509" width="5.21028" height="5.9162" fill="#AF8559"/>
<rect x="176.784" y="18.5347" width="5.21028" height="5.9162" fill="#AF8559"/>
<rect x="171.573" y="24.4509" width="5.21028" height="5.9162" fill="#AF8559"/>
<path d="M133.475 80.2263C133.475 78.0152 133.12 75.2971 133.407 72.9796C133.232 69.0769 132.999 63.4361 136.419 61.7101C138.117 60.8532 139.747 59.8 141.427 58.9098C144.024 57.5338 147.589 58.1097 150.335 58.1097C154.488 58.1097 158.312 58.6304 162.364 59.6528C164.603 60.2176 167.05 61.2141 169.36 60.4528C173.596 59.0565 177.551 55.7773 181.489 53.595C187.139 50.4642 193.631 49.6837 199.155 46.2228C204.13 43.1061 208.023 39.2961 212.014 34.7645C214.491 31.9528 215.89 31.3642 219.287 31.3642C219.822 31.3642 222.957 30.9318 223.137 31.6499C223.829 34.4001 222.191 38.0034 220.898 40.1079C216.767 46.8259 208.797 46.3805 202.427 47.1943C199.463 47.5729 197.321 48.5256 194.852 50.3947C192.955 51.8304 190.767 52.5999 188.988 54.2522C185.967 57.0592 184.708 62.0901 183.528 66.1106C181.526 72.9301 179.665 81.341 171.876 80.6263C167.279 80.2045 158.185 76.4943 156.123 83.0266C153.557 91.1542 152.673 104.35 144.119 107.372C141.777 108.2 130.058 105.631 132.116 101.543C135.039 95.7347 133.475 86.6789 133.475 80.2263Z" fill="#7DA112"/>
<rect x="129.89" y="71.7805" width="5.21028" height="5.9162" fill="#0A3509"/>
<rect x="129.89" y="77.6968" width="5.21028" height="5.9162" fill="#0A3509"/>
<rect x="129.89" y="83.613" width="5.21028" height="5.9162" fill="#0A3509"/>
<rect x="129.89" y="89.5292" width="5.21028" height="5.9162" fill="#0A3509"/>
<rect x="129.89" y="95.4449" width="5.21028" height="5.9162" fill="#0A3509"/>
<rect x="129.89" y="101.362" width="5.21028" height="5.9162" fill="#0A3509"/>
<rect x="135.1" y="101.362" width="5.21028" height="5.9162" fill="#0A3509"/>
<rect x="140.311" y="107.278" width="5.21028" height="5.9162" fill="#0A3509"/>
<rect x="150.731" y="83.613" width="5.21028" height="5.9162" fill="#0A3509"/>
<rect x="150.731" y="89.5292" width="5.21028" height="5.9162" fill="#0A3509"/>
<rect x="150.731" y="95.4449" width="5.21028" height="5.9162" fill="#0A3509"/>
<rect x="145.521" y="101.362" width="5.21028" height="5.9162" fill="#0A3509"/>
<rect x="155.942" y="77.6968" width="5.21028" height="5.9162" fill="#0A3509"/>
<rect x="161.152" y="77.6968" width="5.21028" height="5.9162" fill="#0A3509"/>
<rect x="166.362" y="77.6968" width="5.21028" height="5.9162" fill="#0A3509"/>
<rect x="171.573" y="77.6968" width="5.21028" height="5.9162" fill="#0A3509"/>
<rect x="181.993" y="65.8643" width="5.21028" height="5.9162" fill="#0A3509"/>
<rect x="176.783" y="71.7805" width="5.21028" height="5.9162" fill="#0A3509"/>
<rect x="181.993" y="54.0319" width="5.21028" height="5.9162" fill="#0A3509"/>
<rect x="181.993" y="59.9481" width="5.21028" height="5.9162" fill="#0A3509"/>
<rect x="187.203" y="54.0319" width="5.21028" height="5.9162" fill="#0A3509"/>
<rect x="192.414" y="48.1152" width="5.21028" height="5.9162" fill="#0A3509"/>
<rect x="187.203" y="48.1152" width="5.21028" height="5.9162" fill="#0A3509"/>
<rect x="197.624" y="42.1995" width="5.21028" height="5.9162" fill="#0A3509"/>
<rect x="213.255" y="42.1995" width="5.21028" height="5.9162" fill="#0A3509"/>
<rect x="202.834" y="42.1995" width="5.21028" height="5.9162" fill="#0A3509"/>
<rect x="208.044" y="42.1995" width="5.21028" height="5.9162" fill="#0A3509"/>
<rect x="218.465" y="36.2833" width="5.21028" height="5.9162" fill="#0A3509"/>
<rect x="218.465" y="30.3671" width="5.21028" height="5.9162" fill="#0A3509"/>
<rect x="213.255" y="30.3671" width="5.21028" height="5.9162" fill="#0A3509"/>
<rect x="208.044" y="30.3671" width="5.21028" height="5.9162" fill="#0A3509"/>
<rect x="202.834" y="36.2833" width="5.21028" height="5.9162" fill="#0A3509"/>
<rect x="208.044" y="36.2833" width="5.21028" height="5.9162" fill="#0A3509"/>
<rect x="181.993" y="48.1152" width="5.21028" height="5.9162" fill="#0A3509"/>
<rect x="176.783" y="48.1152" width="5.21028" height="5.9162" fill="#0A3509"/>
<rect x="171.573" y="54.0319" width="5.21028" height="5.9162" fill="#0A3509"/>
<rect x="176.783" y="54.0319" width="5.21028" height="5.9162" fill="#0A3509"/>
<rect x="166.362" y="59.9481" width="5.21028" height="5.9162" fill="#0A3509"/>
<rect x="161.152" y="59.9481" width="5.21028" height="5.9162" fill="#0A3509"/>
<rect x="161.152" y="54.0319" width="5.21028" height="5.9162" fill="#0A3509"/>
<rect x="150.731" y="54.0319" width="5.21028" height="5.9162" fill="#0A3509"/>
<rect x="155.942" y="54.0319" width="5.21028" height="5.9162" fill="#0A3509"/>
<rect x="145.521" y="54.0319" width="5.21028" height="5.9162" fill="#0A3509"/>
<rect x="140.311" y="54.0319" width="5.21028" height="5.9162" fill="#0A3509"/>
<rect x="135.1" y="59.9481" width="5.21028" height="5.9162" fill="#0A3509"/>
<rect x="129.89" y="59.9481" width="5.21028" height="5.9162" fill="#0A3509"/>
<rect x="129.89" y="65.8643" width="5.21028" height="5.9162" fill="#0A3509"/>
<rect x="299.536" y="68.7035" width="6.04393" height="6.86279" fill="#797E00"/>
<path d="M295.878 43.1878C303.03 35.4773 310.803 27.6581 319.674 22.5986C322.008 22.5991 317.912 33.8482 319.764 35.8395C321.896 38.1332 344.423 13.5639 344.423 16.9082C344.423 19.1884 330.239 36.1004 330.193 38.436C330.171 39.5798 326.866 42.3307 326.187 43.1878C325.757 43.7305 323.616 44.4201 323.191 45.0097C321.469 47.4002 323.993 48.5295 321.523 49.7916C310.954 55.1924 313.651 39.7738 303.001 45.0097C298.082 47.4285 279.347 69.4532 274.653 72.4054C273.914 72.8703 272.421 74.7295 272.421 73.7701C272.421 72.5236 274.835 69.267 275.404 68.3359C281.129 58.9678 288.629 51.0022 295.878 43.1878Z" fill="#41893F"/>
<rect x="296.619" y="36.2836" width="5.21028" height="5.9162" fill="#40550E"/>
<rect x="291.409" y="42.1997" width="5.21028" height="5.9162" fill="#40550E"/>
<rect x="286.198" y="48.1155" width="5.21028" height="5.9162" fill="#40550E"/>
<rect x="280.988" y="54.0322" width="5.21028" height="5.9162" fill="#40550E"/>
<rect x="275.778" y="59.9485" width="5.21028" height="5.9162" fill="#40550E"/>
<rect x="270.567" y="65.8647" width="5.21028" height="5.9162" fill="#40550E"/>
<rect x="270.567" y="71.7808" width="5.21028" height="5.9162" fill="#40550E"/>
<rect x="291.409" y="48.1155" width="5.21028" height="5.9162" fill="#40550E"/>
<rect x="286.198" y="54.0322" width="5.21028" height="5.9162" fill="#40550E"/>
<rect x="280.988" y="59.9485" width="5.21028" height="5.9162" fill="#40550E"/>
<rect x="275.778" y="65.8647" width="5.21028" height="5.9162" fill="#40550E"/>
<rect x="296.619" y="42.1997" width="5.21028" height="5.9162" fill="#40550E"/>
<path d="M126.112 88.4932C123.76 94.428 117.741 94.6513 114.335 99.709C117.903 111.865 128.746 96.1655 130.992 91.6118C133.41 86.709 135.908 82.0342 137.143 76.6227C138.174 72.1079 139.366 67.7032 140.192 63.1171C141.005 58.6049 142.968 51.4657 146.561 48.9625C150.193 46.4314 154.125 44.297 157.938 42.1324C163.397 39.0332 169.275 38.716 171.383 31.3156C171.639 30.4176 173.037 26.8343 171.411 26.8343C169.114 26.8343 166.839 26.8448 164.552 26.5562C157.256 25.6357 149.613 25.1334 142.288 25.9999C140.144 26.2534 137.445 25.7275 135.401 26.5562C134.179 27.052 133.928 28.3896 133.061 29.4922C131.608 31.3401 132.028 34.0231 131.972 36.2913C131.834 41.9177 130.012 47.4583 130.012 53.2274C130.012 60.3623 128.763 67.1596 127.318 74.0885C126.657 77.2577 127.295 85.509 126.112 88.4932Z" fill="#F3D9BF"/>
<rect x="122.596" y="85.9788" width="5.21028" height="5.9162" fill="#866641"/>
<rect x="117.386" y="91.895" width="5.21028" height="5.9162" fill="#866641"/>
<rect x="112.175" y="97.8112" width="5.21028" height="5.9162" fill="#866641"/>
<rect x="122.596" y="74.1464" width="5.21028" height="5.9162" fill="#866641"/>
<rect x="122.596" y="80.0626" width="5.21028" height="5.9162" fill="#866641"/>
<rect x="122.596" y="68.2306" width="5.21028" height="5.9162" fill="#866641"/>
<rect x="127.806" y="50.4819" width="5.21028" height="5.9162" fill="#866641"/>
<rect x="127.806" y="56.3977" width="5.21028" height="5.9162" fill="#866641"/>
<rect x="127.806" y="62.3145" width="5.21028" height="5.9162" fill="#866641"/>
<rect x="127.806" y="68.2306" width="5.21028" height="5.9162" fill="#866641"/>
<rect x="127.806" y="38.649" width="5.21028" height="5.9162" fill="#866641"/>
<rect x="127.806" y="44.5653" width="5.21028" height="5.9162" fill="#866641"/>
<rect x="127.806" y="32.7334" width="5.21028" height="5.9162" fill="#866641"/>
<rect x="127.806" y="26.8167" width="5.21028" height="5.9162" fill="#866641"/>
<rect x="133.016" y="26.8167" width="5.21028" height="5.9162" fill="#866641"/>
<rect x="133.016" y="20.9009" width="5.21028" height="5.9162" fill="#866641"/>
<rect x="138.227" y="20.9009" width="5.21028" height="5.9162" fill="#866641"/>
<rect x="143.437" y="20.9009" width="5.21028" height="5.9162" fill="#866641"/>
<rect x="148.647" y="20.9009" width="5.21028" height="5.9162" fill="#866641"/>
<rect x="153.858" y="20.9009" width="5.21028" height="5.9162" fill="#866641"/>
<rect x="159.068" y="20.9009" width="5.21028" height="5.9162" fill="#866641"/>
<rect x="164.278" y="20.9009" width="5.21028" height="5.9162" fill="#866641"/>
<rect x="169.488" y="26.8167" width="5.21028" height="5.9162" fill="#866641"/>
<rect x="164.278" y="32.7334" width="5.21028" height="5.9162" fill="#866641"/>
<rect x="153.858" y="38.649" width="5.21028" height="5.9162" fill="#866641"/>
<rect x="159.068" y="38.649" width="5.21028" height="5.9162" fill="#866641"/>
<rect x="148.647" y="44.5653" width="5.21028" height="5.9162" fill="#866641"/>
<rect x="143.437" y="44.5653" width="5.21028" height="5.9162" fill="#866641"/>
<rect x="138.227" y="50.4819" width="5.21028" height="5.9162" fill="#866641"/>
<rect x="138.227" y="56.3977" width="5.21028" height="5.9162" fill="#866641"/>
<rect x="138.227" y="62.3145" width="5.21028" height="5.9162" fill="#866641"/>
<rect x="138.227" y="68.2306" width="5.21028" height="5.9162" fill="#866641"/>
<rect x="133.016" y="74.1464" width="5.21028" height="5.9162" fill="#866641"/>
<rect x="133.016" y="80.0626" width="5.21028" height="5.9162" fill="#866641"/>
<rect x="127.806" y="85.9788" width="5.21028" height="5.9162" fill="#866641"/>
<rect x="127.806" y="91.895" width="5.21028" height="5.9162" fill="#866641"/>
<rect x="122.596" y="97.8112" width="5.21028" height="5.9162" fill="#866641"/>
<rect x="117.386" y="103.727" width="5.21028" height="5.9162" fill="#866641"/>
<path d="M222.707 111.611C219.168 111.611 217.814 117.44 222.707 118.411C227.599 119.383 226.245 111.611 222.707 111.611Z" fill="white"/>
<path d="M219.125 111.189H221.746V113.723H219.125V111.189Z" fill="white"/>
<path d="M219.125 113.723H221.746V116.257H219.125V113.723Z" fill="white"/>
<path d="M219.125 116.257H221.746V118.791H219.125V116.257Z" fill="white"/>
<path d="M221.746 111.189L224.367 111.189V113.723L221.746 113.723V111.189Z" fill="white"/>
<path d="M221.746 116.257L224.367 116.257V118.791H221.746V116.257Z" fill="white"/>
<path d="M224.367 111.189H226.988V113.723H224.367V111.189Z" fill="white"/>
<path d="M224.367 113.723H226.988V116.257L224.367 116.257V113.723Z" fill="white"/>
<path d="M224.367 116.257L226.988 116.257V118.791H224.367V116.257Z" fill="white"/>
<path d="M215.31 101.298C213.253 101.298 212.465 104.687 215.31 105.252C218.155 105.817 217.367 101.298 215.31 101.298Z" fill="white"/>
<path d="M213.227 101.052H214.751V102.526H213.227V101.052Z" fill="white"/>
<path d="M213.227 102.526H214.751L214.751 103.999H213.227L213.227 102.526Z" fill="white"/>
<path d="M213.227 103.999H214.751V105.473H213.227V103.999Z" fill="white"/>
<path d="M214.751 101.052L216.275 101.052V102.526L214.751 102.526V101.052Z" fill="white"/>
<path d="M214.751 103.999L216.275 103.999V105.473H214.751V103.999Z" fill="white"/>
<path d="M216.275 101.052H217.799V102.526H216.275V101.052Z" fill="white"/>
<path d="M216.275 102.526H217.799V103.999L216.275 103.999V102.526Z" fill="white"/>
<path d="M216.275 103.999L217.799 103.999V105.473H216.275V103.999Z" fill="white"/>
<path d="M196.715 146.16C201.17 139.217 197.413 127.745 196.977 123.163C203.136 120.185 216.844 114.369 214.276 121.516C211.707 128.662 215.848 138.368 219.125 142.866L196.715 146.16Z" fill="white"/>
<path d="M195.797 124.62H199.729V128.421H195.797V124.62Z" fill="#621F1F"/>
<path d="M195.797 128.421H199.729V132.222H195.797V128.421Z" fill="#621F1F"/>
<path d="M195.797 132.222H199.729V136.024H195.797V132.222Z" fill="#621F1F"/>
<path d="M195.797 136.024H199.729V139.825H195.797V136.024Z" fill="#621F1F"/>
<path d="M195.797 139.825H199.729V143.626H195.797V139.825Z" fill="#621F1F"/>
<path d="M195.797 120.819H199.729V124.62H195.797V120.819Z" fill="#621F1F"/>
<path d="M195.797 143.626H199.729V147.428H195.797V143.626Z" fill="#621F1F"/>
<path d="M199.729 143.626L203.66 143.626V147.428H199.729V143.626Z" fill="#621F1F"/>
<path d="M203.66 143.626H207.592V147.428H203.66V143.626Z" fill="#621F1F"/>
<path d="M207.592 143.626H211.523V147.428H207.592V143.626Z" fill="#621F1F"/>
<path d="M211.523 143.626H215.455V147.428H211.523V143.626Z" fill="#621F1F"/>
<path d="M215.455 143.626H219.387V147.428H215.455V143.626Z" fill="#621F1F"/>
<path d="M211.523 124.62H215.455V128.421H211.523V124.62Z" fill="#621F1F"/>
<path d="M211.523 128.421H215.455V132.222H211.523V128.421Z" fill="#621F1F"/>
<path d="M211.523 132.222H215.455V136.024H211.523V132.222Z" fill="#621F1F"/>
<path d="M215.455 136.024L219.387 136.024V139.825H215.455L215.455 136.024Z" fill="#621F1F"/>
<path d="M215.455 139.825H219.387V143.626H215.455L215.455 139.825Z" fill="#621F1F"/>
<path d="M211.523 120.819H215.455V124.62H211.523V120.819Z" fill="#621F1F"/>
<path d="M199.729 120.819H203.66V124.62L199.729 124.62V120.819Z" fill="#621F1F"/>
<path d="M203.66 117.018H207.592V120.819L203.66 120.819V117.018Z" fill="#621F1F"/>
<path d="M207.592 117.018H211.523V120.819L207.592 120.819V117.018Z" fill="#621F1F"/>
<path d="M211.523 117.018H215.455V120.819H211.523V117.018Z" fill="#621F1F"/>
<path d="M223.402 122.656L208.336 127.534L195.458 126.489L179.13 119.607L176.1 105.756L184.18 97.3936L197.226 92.6896L211.029 89.7278L231.146 98.7003L231.987 116.82L223.402 122.656Z" fill="#DB1E1E"/>
<path d="M189.062 92.3411H194.112V97.5678H189.062V92.3411Z" fill="#6A0A0A"/>
<path d="M189.062 92.3411H194.112V97.5678H189.062V92.3411Z" fill="black" fill-opacity="0.2"/>
<path d="M178.961 97.5678H184.012V102.795H178.961V97.5678Z" fill="#6A0A0A"/>
<path d="M178.961 97.5678H184.012V102.795H178.961V97.5678Z" fill="black" fill-opacity="0.2"/>
<path d="M173.911 102.795L178.961 102.795L178.961 108.021H173.911V102.795Z" fill="#6A0A0A"/>
<path d="M173.911 102.795L178.961 102.795L178.961 108.021H173.911V102.795Z" fill="black" fill-opacity="0.2"/>
<path d="M173.911 108.021H178.961V113.248H173.911V108.021Z" fill="#6A0A0A"/>
<path d="M173.911 108.021H178.961V113.248H173.911V108.021Z" fill="black" fill-opacity="0.2"/>
<path d="M173.911 113.248H178.961V118.475H173.911V113.248Z" fill="#6A0A0A"/>
<path d="M173.911 113.248H178.961V118.475H173.911V113.248Z" fill="black" fill-opacity="0.2"/>
<path d="M178.961 118.475L184.012 118.475V123.701H178.961L178.961 118.475Z" fill="#6A0A0A"/>
<path d="M178.961 118.475L184.012 118.475V123.701H178.961L178.961 118.475Z" fill="black" fill-opacity="0.2"/>
<path d="M184.012 118.475H189.062V123.701H184.012V118.475Z" fill="#6A0A0A"/>
<path d="M184.012 118.475H189.062V123.701H184.012V118.475Z" fill="black" fill-opacity="0.2"/>
<path d="M184.012 92.3411H189.062V97.5678L184.012 97.5678L184.012 92.3411Z" fill="#6A0A0A"/>
<path d="M184.012 92.3411H189.062V97.5678L184.012 97.5678L184.012 92.3411Z" fill="black" fill-opacity="0.2"/>
<path d="M189.062 123.701L194.112 123.701V128.928H189.062L189.062 123.701Z" fill="#6A0A0A"/>
<path d="M189.062 123.701L194.112 123.701V128.928H189.062L189.062 123.701Z" fill="black" fill-opacity="0.2"/>
<path d="M194.112 123.701H199.162V128.928H194.112V123.701Z" fill="#6A0A0A"/>
<path d="M194.112 123.701H199.162V128.928H194.112V123.701Z" fill="black" fill-opacity="0.2"/>
<path d="M194.112 92.3411H199.162V97.5678H194.112V92.3411Z" fill="#6A0A0A"/>
<path d="M194.112 92.3411H199.162V97.5678H194.112V92.3411Z" fill="black" fill-opacity="0.2"/>
<path d="M199.162 123.701H204.212V128.928H199.162V123.701Z" fill="#6A0A0A"/>
<path d="M199.162 123.701H204.212V128.928H199.162V123.701Z" fill="black" fill-opacity="0.2"/>
<path d="M199.162 87.1144H204.212V92.3411L199.162 92.3411L199.162 87.1144Z" fill="#6A0A0A"/>
<path d="M199.162 87.1144H204.212V92.3411L199.162 92.3411L199.162 87.1144Z" fill="black" fill-opacity="0.2"/>
<path d="M204.212 123.701H209.262V128.928H204.212V123.701Z" fill="#6A0A0A"/>
<path d="M204.212 123.701H209.262V128.928H204.212V123.701Z" fill="black" fill-opacity="0.2"/>
<path d="M219.362 92.3411H224.412V97.5678H219.362V92.3411Z" fill="#6A0A0A"/>
<path d="M219.362 92.3411H224.412V97.5678H219.362V92.3411Z" fill="black" fill-opacity="0.2"/>
<path d="M229.462 97.5678H234.512V102.795H229.462V97.5678Z" fill="#6A0A0A"/>
<path d="M229.462 97.5678H234.512V102.795H229.462V97.5678Z" fill="black" fill-opacity="0.2"/>
<path d="M229.462 102.795H234.512V108.021H229.462V102.795Z" fill="#6A0A0A"/>
<path d="M229.462 102.795H234.512V108.021H229.462V102.795Z" fill="black" fill-opacity="0.2"/>
<path d="M229.462 108.021H234.512V113.248H229.462V108.021Z" fill="#6A0A0A"/>
<path d="M229.462 108.021H234.512V113.248H229.462V108.021Z" fill="black" fill-opacity="0.2"/>
<path d="M229.462 113.248H234.512V118.475H229.462V113.248Z" fill="#6A0A0A"/>
<path d="M229.462 113.248H234.512V118.475H229.462V113.248Z" fill="black" fill-opacity="0.2"/>
<path d="M224.412 118.475L229.462 118.475L229.462 123.701H224.412V118.475Z" fill="#6A0A0A"/>
<path d="M224.412 118.475L229.462 118.475L229.462 123.701H224.412V118.475Z" fill="black" fill-opacity="0.2"/>
<path d="M204.212 87.1144H209.262V92.3411H204.212V87.1144Z" fill="#6A0A0A"/>
<path d="M204.212 87.1144H209.262V92.3411H204.212V87.1144Z" fill="black" fill-opacity="0.2"/>
<path d="M209.262 123.701H214.312V128.928H209.262V123.701Z" fill="#6A0A0A"/>
<path d="M209.262 123.701H214.312V128.928H209.262V123.701Z" fill="black" fill-opacity="0.2"/>
<path d="M209.262 87.1144H214.312V92.3411H209.262V87.1144Z" fill="#6A0A0A"/>
<path d="M209.262 87.1144H214.312V92.3411H209.262V87.1144Z" fill="black" fill-opacity="0.2"/>
<path d="M214.312 123.701H219.362V128.928H214.312V123.701Z" fill="#6A0A0A"/>
<path d="M214.312 123.701H219.362V128.928H214.312V123.701Z" fill="black" fill-opacity="0.2"/>
<path d="M214.312 89.902H219.362L219.362 97.5678L214.312 97.5679V89.902Z" fill="#6A0A0A"/>
<path d="M214.312 89.902H219.362L219.362 97.5678L214.312 97.5679V89.902Z" fill="black" fill-opacity="0.2"/>
<path d="M219.362 118.475H224.412V123.701L219.362 123.701L219.362 118.475Z" fill="#6A0A0A"/>
<path d="M219.362 118.475H224.412V123.701L219.362 123.701L219.362 118.475Z" fill="black" fill-opacity="0.2"/>
<path d="M224.412 92.3411H229.462V99.6585H224.412L224.412 92.3411Z" fill="#6A0A0A"/>
<path d="M224.412 92.3411H229.462V99.6585H224.412L224.412 92.3411Z" fill="black" fill-opacity="0.2"/>
<path d="M189.062 111.68H198.152V121.088H189.062V111.68Z" fill="white"/>
<path d="M208.252 102.969H217.342V114.816H208.252V102.969Z" fill="white"/>
<path d="M194.112 95.9998H200.677V102.969H194.112V95.9998Z" fill="white"/>
<path d="M199.89 129.126H205.178V143.574H199.89V129.126Z" fill="#D9D9D9"/>
<path d="M178.739 101.34H184.027V119.123H178.739V101.34Z" fill="#7A0B0B"/>
<path d="M183.797 108.009H189.085V118.456H183.797V108.009Z" fill="#7A0B0B"/>
<path d="M263.404 139.138C264.334 138.647 266.672 134.7 267.861 134.7C269.05 134.7 273.427 134.433 274.549 134.433C276.08 134.433 277.432 134.813 278.674 135.831C280.58 137.394 282.091 138.475 282.091 141.196C282.091 143.526 281.078 144.238 279.97 146.055C277.723 149.74 274.351 152.064 270.071 151.562C268.539 151.383 266.713 150.762 265.947 149.326C264.948 147.453 263.404 146.262 262.111 144.62L262.1 144.605C261.206 143.47 260.979 143.182 261.257 141.748C261.49 140.552 262.385 139.675 263.404 139.138Z" fill="#CFD2C8" stroke="#4B3B3B" stroke-width="1.15169" stroke-linecap="round"/>
<rect x="262.826" y="135.918" width="3.30177" height="3.48091" fill="#4B3B3B"/>
<rect x="266.128" y="132.437" width="3.30177" height="3.48091" fill="#4B3B3B"/>
<rect x="269.429" y="132.437" width="3.30177" height="3.48091" fill="#4B3B3B"/>
<rect x="259.524" y="139.399" width="3.30177" height="3.48091" fill="#4B3B3B"/>
<rect x="259.524" y="142.88" width="3.30177" height="3.48091" fill="#4B3B3B"/>
<rect x="262.826" y="146.361" width="3.30177" height="3.48091" fill="#4B3B3B"/>
<rect x="266.128" y="149.842" width="3.30177" height="3.48091" fill="#4B3B3B"/>
<rect x="269.429" y="149.842" width="3.30177" height="3.48091" fill="#4B3B3B"/>
<rect x="276.033" y="146.361" width="3.30177" height="3.48091" fill="#4B3B3B"/>
<rect x="272.731" y="149.842" width="3.30177" height="3.48091" fill="#4B3B3B"/>
<rect x="279.335" y="142.88" width="3.30177" height="3.48091" fill="#4B3B3B"/>
<rect x="279.335" y="139.399" width="3.30177" height="3.48091" fill="#4B3B3B"/>
<rect x="279.335" y="135.918" width="3.30177" height="3.48091" fill="#4B3B3B"/>
<rect x="276.033" y="132.437" width="3.30177" height="3.48091" fill="#4B3B3B"/>
<rect x="272.731" y="132.437" width="3.30177" height="3.48091" fill="#4B3B3B"/>
<path d="M263.404 139.138C264.334 138.647 266.672 134.7 267.861 134.7C269.05 134.7 273.427 134.433 274.549 134.433C276.08 134.433 277.432 134.813 278.674 135.831C280.58 137.394 282.091 138.475 282.091 141.196C282.091 143.526 281.078 144.238 279.97 146.055C277.723 149.74 274.351 152.064 270.071 151.562C268.539 151.383 266.713 150.762 265.947 149.326C264.948 147.453 263.404 146.262 262.111 144.62L262.1 144.605C261.206 143.47 260.979 143.182 261.257 141.748C261.49 140.552 262.385 139.675 263.404 139.138Z" fill="#CFD2C8" stroke="#4B3B3B" stroke-width="1.15169" stroke-linecap="round"/>
<rect x="262.826" y="135.918" width="3.30177" height="3.48091" fill="#4B3B3B"/>
<rect x="266.128" y="132.437" width="3.30177" height="3.48091" fill="#4B3B3B"/>
<rect x="269.429" y="132.437" width="3.30177" height="3.48091" fill="#4B3B3B"/>
<rect x="259.524" y="139.399" width="3.30177" height="3.48091" fill="#4B3B3B"/>
<rect x="259.524" y="142.88" width="3.30177" height="3.48091" fill="#4B3B3B"/>
<rect x="262.826" y="146.361" width="3.30177" height="3.48091" fill="#4B3B3B"/>
<rect x="266.128" y="149.842" width="3.30177" height="3.48091" fill="#4B3B3B"/>
<rect x="269.429" y="149.842" width="3.30177" height="3.48091" fill="#4B3B3B"/>
<rect x="276.033" y="146.361" width="3.30177" height="3.48091" fill="#4B3B3B"/>
<rect x="272.731" y="149.842" width="3.30177" height="3.48091" fill="#4B3B3B"/>
<rect x="279.335" y="142.88" width="3.30177" height="3.48091" fill="#4B3B3B"/>
<rect x="279.335" y="139.399" width="3.30177" height="3.48091" fill="#4B3B3B"/>
<rect x="279.335" y="135.918" width="3.30177" height="3.48091" fill="#4B3B3B"/>
<rect x="276.033" y="132.437" width="3.30177" height="3.48091" fill="#4B3B3B"/>
<rect x="272.731" y="132.437" width="3.30177" height="3.48091" fill="#4B3B3B"/>
<path d="M243.894 130.313C245.288 129.578 248.795 123.659 250.577 123.659C252.36 123.659 258.923 123.259 260.605 123.259C262.9 123.259 264.928 123.828 266.79 125.355C269.648 127.698 271.913 129.32 271.913 133.4C271.913 136.893 270.394 137.96 268.733 140.685C265.364 146.209 260.308 149.694 253.892 148.943C251.594 148.674 248.857 147.743 247.708 145.59C246.209 142.781 243.895 140.995 241.956 138.533L241.939 138.511C240.599 136.81 240.259 136.378 240.676 134.228C241.024 132.433 242.366 131.119 243.894 130.313Z" fill="#CFD2C8" stroke="#4B3B3B" stroke-width="1.15169" stroke-linecap="round"/>
<rect x="243.028" y="125.486" width="4.95061" height="5.2192" fill="#4B3B3B"/>
<rect x="247.978" y="120.267" width="4.95061" height="5.2192" fill="#4B3B3B"/>
<rect x="252.929" y="120.267" width="4.95061" height="5.2192" fill="#4B3B3B"/>
<rect x="238.077" y="130.705" width="4.95061" height="5.2192" fill="#4B3B3B"/>
<rect x="238.077" y="135.924" width="4.95061" height="5.2192" fill="#4B3B3B"/>
<rect x="243.028" y="141.143" width="4.95061" height="5.2192" fill="#4B3B3B"/>
<rect x="247.978" y="146.362" width="4.95061" height="5.2192" fill="#4B3B3B"/>
<rect x="252.929" y="146.362" width="4.95061" height="5.2192" fill="#4B3B3B"/>
<rect x="262.83" y="141.143" width="4.95061" height="5.2192" fill="#8F8F8F"/>
<rect x="257.879" y="146.362" width="4.95061" height="5.2192" fill="#4B3B3B"/>
<rect x="267.781" y="135.924" width="4.95061" height="5.2192" fill="#797979"/>
<rect x="267.781" y="130.705" width="4.95061" height="5.2192" fill="#868686"/>
<rect x="267.781" y="125.486" width="4.95061" height="5.2192" fill="#4B3B3B"/>
<rect x="262.83" y="120.267" width="4.95061" height="5.2192" fill="#4B3B3B"/>
<rect x="257.879" y="120.267" width="4.95061" height="5.2192" fill="#4B3B3B"/>
<path d="M107.653 135.728C105.182 135.728 104.236 142.06 107.653 143.115C111.071 144.17 110.125 135.728 107.653 135.728Z" fill="white"/>
<rect x="105.151" y="135.269" width="1.83068" height="2.75278" fill="white"/>
<rect x="105.151" y="138.022" width="1.83068" height="2.75278" fill="white"/>
<rect x="105.151" y="140.775" width="1.83068" height="2.75278" fill="white"/>
<rect x="106.982" y="135.269" width="1.83068" height="2.75278" fill="white"/>
<rect x="106.982" y="140.775" width="1.83068" height="2.75278" fill="white"/>
<rect x="108.813" y="135.269" width="1.83068" height="2.75278" fill="white"/>
<rect x="108.813" y="138.022" width="1.83068" height="2.75278" fill="white"/>
<rect x="108.813" y="140.775" width="1.83068" height="2.75278" fill="white"/>
<path d="M117.143 132.11C115.706 132.11 115.156 135.791 117.143 136.405C119.13 137.018 118.58 132.11 117.143 132.11Z" fill="white"/>
<rect x="115.689" y="131.843" width="1.06445" height="1.6006" fill="white"/>
<rect x="115.689" y="133.444" width="1.06445" height="1.6006" fill="white"/>
<rect x="115.689" y="135.044" width="1.06445" height="1.6006" fill="white"/>
<rect x="116.753" y="131.843" width="1.06445" height="1.6006" fill="white"/>
<rect x="116.753" y="135.044" width="1.06445" height="1.6006" fill="white"/>
<rect x="117.818" y="131.843" width="1.06445" height="1.6006" fill="white"/>
<rect x="117.818" y="133.444" width="1.06445" height="1.6006" fill="white"/>
<rect x="117.818" y="135.044" width="1.06445" height="1.6006" fill="white"/>
<path d="M102.487 124.524C101.05 124.524 100.5 128.206 102.487 128.819C104.474 129.433 103.924 124.524 102.487 124.524Z" fill="white"/>
<rect x="101.033" y="124.258" width="1.06445" height="1.6006" fill="white"/>
<rect x="101.033" y="125.858" width="1.06445" height="1.6006" fill="white"/>
<rect x="101.033" y="127.459" width="1.06445" height="1.6006" fill="white"/>
<rect x="102.097" y="124.258" width="1.06445" height="1.6006" fill="white"/>
<rect x="102.097" y="127.459" width="1.06445" height="1.6006" fill="white"/>
<rect x="103.162" y="124.258" width="1.06445" height="1.6006" fill="white"/>
<rect x="103.162" y="125.858" width="1.06445" height="1.6006" fill="white"/>
<rect x="103.162" y="127.459" width="1.06445" height="1.6006" fill="white"/>
<path d="M89.4996 173.257C92.6118 165.714 89.9878 153.253 89.6827 148.275C93.9848 145.041 103.559 138.723 101.765 146.486C99.9711 154.249 102.864 164.792 105.152 169.678L89.4996 173.257Z" fill="white" stroke="#441A1A" stroke-width="0.383898"/>
<rect x="88.8588" y="149.858" width="2.74602" height="4.12917" fill="#441A1A"/>
<rect x="88.8588" y="153.987" width="2.74602" height="4.12917" fill="#441A1A"/>
<rect x="88.8588" y="158.117" width="2.74602" height="4.12917" fill="#441A1A"/>
<rect x="88.8588" y="162.246" width="2.74602" height="4.12917" fill="#441A1A"/>
<rect x="88.8588" y="166.375" width="2.74602" height="4.12917" fill="#441A1A"/>
<rect x="88.8588" y="145.729" width="2.74602" height="4.12917" fill="#441A1A"/>
<rect x="88.8588" y="170.504" width="2.74602" height="4.12917" fill="#441A1A"/>
<rect x="91.6046" y="170.504" width="2.74602" height="4.12917" fill="#441A1A"/>
<rect x="94.3507" y="170.504" width="2.74602" height="4.12917" fill="#441A1A"/>
<rect x="97.0964" y="170.504" width="2.74602" height="4.12917" fill="#441A1A"/>
<rect x="99.8427" y="170.504" width="2.74602" height="4.12917" fill="#441A1A"/>
<rect x="102.589" y="170.504" width="2.74602" height="4.12917" fill="#441A1A"/>
<rect x="99.8427" y="149.858" width="2.74602" height="4.12917" fill="#441A1A"/>
<rect x="99.8427" y="153.987" width="2.74602" height="4.12917" fill="#441A1A"/>
<rect x="99.8427" y="158.117" width="2.74602" height="4.12917" fill="#441A1A"/>
<rect x="102.589" y="162.246" width="2.74602" height="4.12917" fill="#441A1A"/>
<rect x="102.589" y="166.375" width="2.74602" height="4.12917" fill="#441A1A"/>
<rect x="99.8427" y="145.729" width="2.74602" height="4.12917" fill="#441A1A"/>
<rect x="91.6046" y="145.729" width="2.74602" height="4.12917" fill="#441A1A"/>
<rect x="94.3507" y="141.6" width="2.74602" height="4.12917" fill="#441A1A"/>
<rect x="97.0964" y="141.6" width="2.74602" height="4.12917" fill="#441A1A"/>
<rect x="99.8427" y="141.6" width="2.74602" height="4.12917" fill="#441A1A"/>
<path d="M90.9394 116.769C92.2168 116.677 93.522 116.751 94.8029 116.751C95.6075 116.751 95.9374 116.835 96.7106 117.168C97.5218 117.518 98.4398 117.879 99.3382 118.073C100.783 118.385 102.747 119.752 103.799 120.735C105.617 122.434 107.999 123.642 110.257 124.738C112.322 125.74 114.387 126.371 116.64 126.857C120.048 127.592 121.86 129.902 123.956 132.399C128.988 138.392 122.107 149.784 114.885 150.582C111.937 150.908 109.664 149.398 106.897 148.699C102.478 147.583 96.7778 145.991 92.3019 147.902C88.7777 149.407 86.0204 153.589 81.9621 153.589C77.2525 153.589 71.3851 151.964 68.1136 148.536C65.8652 146.18 64.8512 141.472 68.4682 140.042C72.8653 138.303 74.6795 134.285 77.3335 130.769C78.6871 128.976 79.5657 127.082 80.7676 125.227C81.9726 123.367 83.807 121.879 85.3963 120.337C86.8885 118.889 88.6908 116.931 90.9394 116.769Z" fill="white" stroke="#441A1A" stroke-width="1.15169" stroke-linecap="round"/>
<rect x="92.0032" y="114.286" width="3.15911" height="4.49612" fill="#441A1A"/>
<rect x="88.8422" y="114.286" width="3.21152" height="3.11639" fill="#441A1A"/>
<rect x="85.6305" y="117.402" width="3.21152" height="3.11639" fill="#441A1A"/>
<rect x="82.4192" y="117.402" width="3.21152" height="3.11639" fill="#441A1A"/>
<rect x="82.4192" y="120.518" width="3.21152" height="3.11639" fill="#441A1A"/>
<rect x="79.1561" y="120.417" width="5.26518" height="8.37912" fill="#441A1A"/>
<rect x="75.996" y="126.751" width="3.21152" height="3.11639" fill="#441A1A"/>
<rect x="75.996" y="129.867" width="3.21152" height="3.11639" fill="#441A1A"/>
<rect x="69.5729" y="136.1" width="3.21152" height="3.11639" fill="#441A1A"/>
<rect x="66.309" y="133.496" width="8.00307" height="8.78786" fill="#441A1A"/>
<rect x="63.5712" y="139.218" width="3.15911" height="6.13107" fill="#441A1A"/>
<rect x="66.309" y="145.35" width="4.00154" height="4.49612" fill="#441A1A"/>
<rect x="69.4681" y="148.619" width="4.00154" height="4.08738" fill="#441A1A"/>
<rect x="75.996" y="151.682" width="3.21152" height="3.11639" fill="#441A1A"/>
<rect x="72.7847" y="151.682" width="3.21152" height="3.11639" fill="#441A1A"/>
<rect x="79.2076" y="151.682" width="3.21152" height="3.11639" fill="#441A1A"/>
<rect x="88.8422" y="148.566" width="3.21152" height="3.11639" fill="#441A1A"/>
<rect x="82.3152" y="150.663" width="5.26518" height="4.08738" fill="#441A1A"/>
<rect x="85.6305" y="148.566" width="3.21152" height="3.11639" fill="#441A1A"/>
<rect x="92.0537" y="145.45" width="3.21152" height="3.11639" fill="#441A1A"/>
<rect x="95.265" y="145.45" width="3.21152" height="3.11639" fill="#441A1A"/>
<rect x="98.4768" y="145.45" width="3.21152" height="3.11639" fill="#441A1A"/>
<rect x="101.688" y="145.45" width="3.21152" height="3.11639" fill="#441A1A"/>
<rect x="104.85" y="147.598" width="3.21152" height="3.11639" fill="#441A1A"/>
<rect x="108.111" y="148.566" width="3.21152" height="3.11639" fill="#441A1A"/>
<rect x="111.323" y="148.566" width="3.21152" height="3.11639" fill="#441A1A"/>
<rect x="114.534" y="148.566" width="3.21152" height="3.11639" fill="#441A1A"/>
<rect x="124.169" y="132.984" width="3.21152" height="3.11639" fill="#441A1A"/>
<rect x="124.169" y="136.1" width="3.21152" height="3.11639" fill="#441A1A"/>
<rect x="124.169" y="139.217" width="3.21152" height="3.11639" fill="#441A1A"/>
<rect x="120.856" y="142.284" width="4.84397" height="3.06553" fill="#441A1A"/>
<rect x="119.382" y="145.35" width="4.84397" height="3.2699" fill="#441A1A"/>
<rect x="117.746" y="148.566" width="3.21152" height="3.11639" fill="#441A1A"/>
<rect x="120.958" y="129.867" width="3.21152" height="3.11639" fill="#441A1A"/>
<rect x="117.746" y="126.751" width="3.21152" height="3.11639" fill="#441A1A"/>
<rect x="114.534" y="126.751" width="3.21152" height="3.11639" fill="#441A1A"/>
<rect x="108.111" y="123.635" width="3.21152" height="3.11639" fill="#441A1A"/>
<rect x="111.323" y="123.635" width="3.21152" height="3.11639" fill="#441A1A"/>
<rect x="114.534" y="123.635" width="3.21152" height="3.11639" fill="#441A1A"/>
<rect x="104.9" y="120.518" width="3.21152" height="3.11639" fill="#441A1A"/>
<rect x="101.688" y="120.518" width="3.21152" height="3.11639" fill="#441A1A"/>
<rect x="98.4768" y="117.402" width="3.21152" height="3.11639" fill="#441A1A"/>
<rect x="101.688" y="117.402" width="3.21152" height="3.11639" fill="#441A1A"/>
<rect x="95.1624" y="114.899" width="3.36972" height="3.67864" fill="#441A1A"/>
<rect x="72.838" y="131.861" width="5.05457" height="4.29175" fill="#441A1A"/>
<path d="M81.683 128.2C82.2195 127.353 83.2104 126.197 83.4434 125.163C84.101 124.434 84.5777 123.482 85.6418 123.482C86.1478 123.482 86.6758 124.341 87.0484 124.659C87.982 125.455 87.4292 127.585 87.3011 128.621C87.0533 130.623 86.9934 132.598 86.4757 134.544C86.1942 135.602 85.5272 136.326 85.0522 137.263C84.7786 137.803 84.7294 138.392 84.471 138.954C83.5592 140.94 83.2086 142.594 83.1486 144.86C83.0942 146.91 83.5695 150.05 81.1776 150.382C80.1612 150.523 78.9378 150.469 77.9515 150.223C75.8704 149.703 73.4597 148.46 72.0133 146.7L72.0029 146.688C71.1928 145.702 70.1253 144.403 70.1013 142.991C70.0805 141.772 70.2807 141.229 71.1626 140.468C72.0702 139.685 73.1482 139.328 74.0769 138.581C75.5315 137.41 76.6967 135.529 77.7831 133.965C79.1057 132.061 80.4366 130.168 81.683 128.2Z" fill="#D9D9D9" stroke="#CEBBBB" stroke-width="1.15169" stroke-linecap="round"/>
<rect x="80.5602" y="124.004" width="3.51012" height="3.79218" fill="#CEBBBB"/>
<rect x="80.5602" y="127.796" width="3.51012" height="3.79218" fill="#CEBBBB"/>
<rect x="77.0499" y="127.796" width="3.51012" height="3.79218" fill="#CEBBBB"/>
<rect x="77.0499" y="131.589" width="3.51012" height="3.79218" fill="#CEBBBB"/>
<rect x="73.5397" y="135.381" width="3.51012" height="3.79218" fill="#CEBBBB"/>
<rect x="70.0298" y="135.381" width="3.51012" height="3.79218" fill="#CEBBBB"/>
<rect x="70.0298" y="139.173" width="3.51012" height="3.79218" fill="#CEBBBB"/>
<rect x="70.0999" y="142.488" width="3.36972" height="7.97039" fill="#CEBBBB"/>
<rect x="73.4696" y="146.78" width="8.00307" height="5.10922" fill="#CEBBBB"/>
<rect x="80.6302" y="146.78" width="3.36972" height="5.10922" fill="#CEBBBB"/>
<rect x="66.7302" y="142.079" width="3.51012" height="3.79218" fill="#CEBBBB"/>
<rect x="80.5602" y="142.965" width="3.51012" height="3.79218" fill="#CEBBBB"/>
<rect x="80.5602" y="139.173" width="3.51012" height="3.79218" fill="#CEBBBB"/>
<rect x="84.0701" y="139.173" width="3.51012" height="3.79218" fill="#CEBBBB"/>
<rect x="84.0701" y="135.381" width="3.51012" height="3.79218" fill="#CEBBBB"/>
<rect x="84.0701" y="131.589" width="3.51012" height="3.79218" fill="#CEBBBB"/>
<rect x="84.0701" y="127.796" width="3.51012" height="3.79218" fill="#CEBBBB"/>
<rect x="84.0701" y="124.004" width="3.51012" height="3.79218" fill="#CEBBBB"/>
<rect x="84" y="120.212" width="6.73943" height="3.88301" fill="#CEBBBB"/>
<rect x="88.8439" y="116.942" width="5.47579" height="3.88301" fill="#CEBBBB"/>
<rect x="91.5817" y="148.619" width="4.21215" height="21.8675" fill="#D9D9D9"/>
</svg>
