<svg width="94" height="277" viewBox="-10 0 96 277" xmlns="http://www.w3.org/2000/svg">
  <style>
    @keyframes morph {
      0% { opacity: 1; }
      14.29% { opacity: 1; }
      14.3% { opacity: 0; }
      100% { opacity: 0; }
    }
    .flame {
      position: absolute;
      opacity: 0;
      animation: morph 2s infinite ease-in-out;
      transform: translateX(-10px);
    }
    #candle-wick {
      transform: translateY(125px);
    }
    #frame1 { animation-delay: 0s; }
    #frame2 { animation-delay: 0.286s; }
    #frame3 { animation-delay: 0.571s; }
    #frame4 { animation-delay: 0.857s; }
    #frame5 { animation-delay: 1.143s; }
    #frame6 { animation-delay: 1.429s; }
    #frame7 { animation-delay: 1.714s; }
  </style>

  
  <g id="candle-wick"> <svg width="75" height="155" viewBox="0 0 75 155" fill="none" xmlns="http://www.w3.org/2000/svg">
<path d="M17.1712 23.2825L25.4613 20.6626L37.7163 19.0065L47.0877 13.8281L61.1448 9.38574L63.3075 11.3099L60.7137 12.8065L55.3778 55.138L58.9822 62.6209L60.9738 97.4695L63.3075 98.9661L61.1448 100.463H17.1712L12.8459 98.3247L17.1712 93.4074V26.4894L14.6481 24.9928L17.1712 23.2825Z" fill="#504439"/>
<rect x="19.6152" y="99.2314" width="6.15385" height="6.15385" fill="#504439"/>
<rect x="25.769" y="99.2314" width="6.15385" height="6.15385" fill="#504439"/>
<rect x="31.9229" y="99.2314" width="6.15385" height="6.15385" fill="#504439"/>
<rect x="38.0769" y="99.2314" width="6.15385" height="6.15385" fill="#504439"/>
<rect x="44.2307" y="99.2314" width="6.15385" height="6.15385" fill="#504439"/>
<rect x="50.3845" y="99.2314" width="6.15385" height="6.15385" fill="#504439"/>
<rect x="56.5383" y="99.2314" width="6.15385" height="6.15385" fill="#504439"/>
<rect x="13.4614" y="99.2314" width="6.15385" height="6.15385" fill="#504439"/>
<rect x="56.5383" y="56.1553" width="6.15385" height="6.15385" fill="#504439"/>
<rect x="50.3845" y="50.001" width="6.15385" height="6.15385" fill="#504439"/>
<rect x="56.5383" y="62.3086" width="6.15385" height="6.15385" fill="#504439"/>
<rect x="56.5383" y="68.4629" width="6.15385" height="6.15385" fill="#504439"/>
<rect x="56.5383" y="74.6162" width="6.15385" height="6.15385" fill="#504439"/>
<rect x="56.5383" y="80.7705" width="6.15385" height="6.15385" fill="#504439"/>
<rect x="56.5383" y="86.9238" width="6.15385" height="6.15385" fill="#504439"/>
<rect x="56.5383" y="93.0781" width="6.15385" height="6.15385" fill="#504439"/>
<rect x="62.6921" y="93.0781" width="6.15385" height="6.15385" fill="#504439"/>
<rect x="7.30762" y="93.0781" width="6.15385" height="6.15385" fill="#504439"/>
<rect x="13.4614" y="93.0781" width="6.15385" height="6.15385" fill="#504439"/>
<rect x="13.4614" y="25.3857" width="6.15385" height="6.15385" fill="#504439"/>
<rect x="13.4614" y="31.5391" width="6.15385" height="6.15385" fill="#504439"/>
<rect x="13.4614" y="37.6934" width="6.15385" height="6.15385" fill="#504439"/>
<rect x="13.4614" y="43.8467" width="6.15385" height="6.15385" fill="#504439"/>
<rect x="13.4614" y="50.001" width="6.15385" height="6.15385" fill="#504439"/>
<rect x="13.4614" y="56.1553" width="6.15385" height="6.15385" fill="#504439"/>
<rect x="13.4614" y="62.3086" width="6.15385" height="6.15385" fill="#504439"/>
<rect x="13.4614" y="68.4629" width="6.15385" height="6.15385" fill="#504439"/>
<rect x="13.4614" y="74.6162" width="6.15385" height="6.15385" fill="#504439"/>
<rect x="13.4614" y="80.7705" width="6.15385" height="6.15385" fill="#504439"/>
<rect x="13.4614" y="86.9238" width="6.15385" height="6.15385" fill="#504439"/>
<rect x="13.4614" y="19.2314" width="6.15385" height="6.15385" fill="#504439"/>
<rect x="56.5383" y="13.0781" width="6.15385" height="6.15385" fill="#504439"/>
<rect x="56.5383" y="19.2314" width="6.15385" height="6.15385" fill="#504439"/>
<rect x="56.5383" y="25.3857" width="6.15385" height="6.15385" fill="#504439"/>
<rect x="56.5383" y="31.5391" width="6.15385" height="6.15385" fill="#504439"/>
<rect x="56.5383" y="37.6934" width="6.15385" height="6.15385" fill="#504439"/>
<rect x="50.3845" y="43.8467" width="6.15385" height="6.15385" fill="#504439"/>
<rect x="56.5383" y="6.92383" width="6.15385" height="6.15385" fill="#504439"/>
<rect x="62.6921" y="6.92383" width="6.15385" height="6.15385" fill="#504439"/>
<rect x="44.2307" y="13.0781" width="6.15385" height="6.15385" fill="#504439"/>
<rect x="50.3845" y="6.92383" width="6.15385" height="6.15385" fill="#504439"/>
<rect x="19.6152" y="19.2314" width="6.15385" height="6.15385" fill="#504439"/>
<rect x="25.769" y="19.2314" width="6.15385" height="6.15385" fill="#504439"/>
<rect x="31.9229" y="19.2314" width="6.15385" height="6.15385" fill="#504439"/>
<rect x="31.9229" y="13.0781" width="6.15385" height="6.15385" fill="#504439"/>
<rect x="38.0769" y="13.0781" width="6.15385" height="6.15385" fill="#504439"/>
<path d="M33.1538 23.8468H18.0769L28.5384 34.3084L40.2307 45.693L54.3846 31.8468L58.0769 21.693V13.0776L63.6154 11.2314H57.1538L52.8461 17.693H40.2307L33.1538 23.8468Z" fill="#7A593F"/>
<rect x="19.6152" y="19.2314" width="6.15385" height="6.15385" fill="#7A593F"/>
<rect x="25.769" y="19.2314" width="6.15385" height="6.15385" fill="#7A593F"/>
<rect x="13.4614" y="19.2314" width="6.15385" height="6.15385" fill="#7A593F"/>
<rect x="31.9229" y="19.2314" width="6.15385" height="6.15385" fill="#7A593F"/>
<rect x="31.9229" y="13.0781" width="12.3077" height="6.15385" fill="#7A593F"/>
<rect x="44.2307" y="13.0781" width="6.15385" height="6.15385" fill="#7A593F"/>
<rect x="50.3845" y="13.0781" width="6.15385" height="6.15385" fill="#7A593F"/>
<rect x="50.3845" y="6.92383" width="12.3077" height="6.15385" fill="#7A593F"/>
<rect x="62.6921" y="6.92383" width="6.15385" height="6.15385" fill="#7A593F"/>
<rect x="56.5383" y="13.0781" width="6.15385" height="6.15385" fill="#7A593F"/>
<rect x="56.5383" y="19.2314" width="6.15385" height="6.15385" fill="#7A593F"/>
<rect x="50.3845" y="25.3857" width="6.15385" height="6.15385" fill="#7A593F"/>
<rect x="47.3076" y="31.5391" width="9.23077" height="6.15385" fill="#7A593F"/>
<rect x="41.769" y="37.6934" width="8.61539" height="6.15385" fill="#7A593F"/>
<rect x="38.0769" y="43.8467" width="6.15385" height="6.15385" fill="#7A593F"/>
<rect x="25.769" y="31.5391" width="6.15385" height="6.15385" fill="#7A593F"/>
<rect x="31.9229" y="37.6934" width="6.15385" height="6.15385" fill="#7A593F"/>
<rect x="19.6152" y="25.3857" width="6.15385" height="6.15385" fill="#7A593F"/>
<path d="M40.5384 94.6156L17.1538 85.0771V102.616H60.8461V85.0771L40.5384 94.6156Z" fill="#3F2E24"/>
<rect x="25.769" y="86.9238" width="6.15385" height="6.15385" fill="#3F2E24"/>
<rect x="19.6152" y="86.9238" width="6.15385" height="6.15385" fill="#3F2E24"/>
<rect x="31.9229" y="86.9238" width="6.15385" height="6.15385" fill="#3F2E24"/>
<rect x="13.4614" y="80.7695" width="6.15385" height="6.15385" fill="#3F2E24"/>
<rect x="38.0769" y="93.0771" width="6.15385" height="6.15385" fill="#3F2E24"/>
<rect x="44.2307" y="86.9238" width="6.15385" height="6.15385" fill="#3F2E24"/>
<rect x="50.3845" y="86.9238" width="6.15385" height="6.15385" fill="#3F2E24"/>
<rect x="56.5383" y="80.7695" width="6.15385" height="6.15385" fill="#3F2E24"/>
<rect x="56.5383" y="86.9238" width="6.15385" height="6.15385" fill="#3F2E24"/>
<rect x="56.5383" y="93.0771" width="12.3077" height="6.15385" fill="#3F2E24"/>
<rect x="56.5383" y="99.2314" width="6.15385" height="6.15385" fill="#3F2E24"/>
<rect x="19.6152" y="99.2314" width="6.15385" height="6.15385" fill="#3F2E24"/>
<rect x="25.769" y="99.2314" width="6.15385" height="6.15385" fill="#3F2E24"/>
<rect x="31.9229" y="99.2314" width="6.15385" height="6.15385" fill="#3F2E24"/>
<rect x="38.0769" y="99.2314" width="6.15385" height="6.15385" fill="#3F2E24"/>
<rect x="44.2307" y="99.2314" width="6.15385" height="6.15385" fill="#3F2E24"/>
<rect x="50.3845" y="99.2314" width="6.15385" height="6.15385" fill="#3F2E24"/>
<rect x="13.4614" y="99.2314" width="6.15385" height="6.15385" fill="#3F2E24"/>
<rect x="13.4614" y="86.9238" width="6.15385" height="6.15385" fill="#3F2E24"/>
<rect x="7.30762" y="93.0771" width="12.3077" height="6.15385" fill="#3F2E24"/>
<path fill-rule="evenodd" clip-rule="evenodd" d="M72.5383 102.924H3.61523V112.155H72.5383V102.924ZM56.5383 112.155H19.6153V136.155L42.3845 151.539L56.5383 136.155V112.155Z" fill="#D9D9D9"/>
<rect x="19.6152" y="112.77" width="36.9231" height="5.53846" fill="#BFC8D0"/>
<rect x="39.3076" y="117.077" width="17.2308" height="5.53846" fill="#BFC8D0"/>
<path d="M28.5383 16.7694L14.6922 18.0002L11.3076 23.2309V90.9232L6.07681 92.154L4.84604 98.9232L11.3076 102.308L4.84604 101.385L1.46143 106.308V109.385L6.07681 113.692H14.6922L17.7691 115.539L19.3076 138L43.3076 153.385L54.3845 142L58.9999 131.231V114.616L70.0768 113.692L74.3845 109.385V104.462L65.1537 101.385L70.0768 97.6925V93.0771L65.1537 90.0002V60.154L58.9999 53.0771V46.3078L65.1537 41.6925L66.6922 15.2309L71.3076 10.0002L65.1537 5.38477H54.0768L47.3076 11.5386H36.5383L28.5383 16.7694Z" stroke="#302626"/>
<rect x="13.4614" y="13.0771" width="6.15385" height="6.15385" fill="#302626"/>
<rect x="19.6155" y="13.0771" width="6.15385" height="6.15385" fill="#302626"/>
<rect x="25.7693" y="13.0771" width="6.15385" height="6.15385" fill="#302626"/>
<rect x="31.9231" y="6.92383" width="6.15385" height="6.15385" fill="#302626"/>
<rect x="38.0769" y="6.92383" width="6.15385" height="6.15385" fill="#302626"/>
<rect x="44.2307" y="6.92383" width="6.15385" height="6.15385" fill="#302626"/>
<rect x="50.3845" y="0.769531" width="6.15385" height="6.15385" fill="#302626"/>
<rect x="56.5386" y="0.769531" width="6.15385" height="6.15385" fill="#302626"/>
<rect x="62.6924" y="0.769531" width="6.15385" height="6.15385" fill="#302626"/>
<rect x="68.8462" y="6.92383" width="6.15385" height="6.15385" fill="#302626"/>
<rect x="62.6924" y="13.0771" width="6.15385" height="6.15385" fill="#302626"/>
<rect x="62.6924" y="19.2314" width="6.15385" height="6.15385" fill="#302626"/>
<rect x="62.6924" y="25.3848" width="6.15385" height="6.15385" fill="#302626"/>
<rect x="62.6924" y="31.5391" width="6.15385" height="6.15385" fill="#302626"/>
<rect x="62.6924" y="37.6924" width="6.15385" height="6.15385" fill="#302626"/>
<rect x="56.5386" y="43.8467" width="6.15385" height="6.15385" fill="#302626"/>
<rect x="56.5386" y="50" width="6.15385" height="6.15385" fill="#302626"/>
<rect x="62.6924" y="56.1543" width="6.15385" height="6.15385" fill="#302626"/>
<rect x="62.6924" y="62.3086" width="6.15385" height="6.15385" fill="#302626"/>
<rect x="62.6924" y="68.4619" width="6.15385" height="6.15385" fill="#302626"/>
<rect x="62.6924" y="74.6162" width="6.15385" height="6.15385" fill="#302626"/>
<rect x="62.6924" y="80.7695" width="6.15385" height="6.15385" fill="#302626"/>
<rect x="62.6924" y="86.9238" width="6.15385" height="6.15385" fill="#302626"/>
<rect x="68.8462" y="93.0771" width="6.15385" height="6.15385" fill="#302626"/>
<rect x="62.6924" y="99.2314" width="6.15385" height="6.15385" fill="#302626"/>
<rect x="68.8462" y="99.2314" width="6.15385" height="6.15385" fill="#302626"/>
<rect x="68.8462" y="105.385" width="6.15385" height="6.15385" fill="#302626"/>
<rect x="68.8462" y="111.539" width="6.15385" height="6.15385" fill="#302626"/>
<rect x="56.5386" y="111.539" width="6.15385" height="6.15385" fill="#302626"/>
<rect x="62.6924" y="111.539" width="6.15385" height="6.15385" fill="#302626"/>
<rect x="56.5386" y="117.692" width="6.15385" height="6.15385" fill="#302626"/>
<rect x="56.5386" y="123.847" width="6.15385" height="6.15385" fill="#302626"/>
<rect x="56.5386" y="130" width="6.15385" height="6.15385" fill="#302626"/>
<rect x="50.3845" y="136.154" width="6.15385" height="6.15385" fill="#302626"/>
<rect x="50.3845" y="142.309" width="6.15385" height="6.15385" fill="#302626"/>
<rect x="44.2307" y="148.462" width="6.15385" height="6.15385" fill="#302626"/>
<rect x="38.0769" y="148.462" width="6.15385" height="6.15385" fill="#302626"/>
<rect x="19.6155" y="136.154" width="6.15385" height="6.15385" fill="#302626"/>
<rect x="25.7693" y="142.309" width="6.15385" height="6.15385" fill="#302626"/>
<rect x="31.9231" y="142.309" width="6.15385" height="6.15385" fill="#302626"/>
<rect x="13.4614" y="136.154" width="6.15385" height="6.15385" fill="#302626"/>
<rect x="13.4614" y="117.692" width="6.15385" height="6.15385" fill="#302626"/>
<rect x="13.4614" y="123.847" width="6.15385" height="6.15385" fill="#302626"/>
<rect x="13.4614" y="130" width="6.15385" height="6.15385" fill="#302626"/>
<rect x="13.4614" y="111.539" width="6.15385" height="6.15385" fill="#302626"/>
<rect x="7.30762" y="111.539" width="6.15385" height="6.15385" fill="#302626"/>
<rect x="1.15381" y="111.539" width="6.15385" height="6.15385" fill="#302626"/>
<rect x="1.15381" y="105.385" width="6.15385" height="6.15385" fill="#302626"/>
<rect x="1.15381" y="99.2314" width="6.15385" height="6.15385" fill="#302626"/>
<rect x="7.30762" y="99.2314" width="6.15385" height="6.15385" fill="#302626"/>
<rect x="1.15381" y="93.0771" width="6.15385" height="6.15385" fill="#302626"/>
<rect x="1.15381" y="86.9238" width="6.15385" height="6.15385" fill="#302626"/>
<rect x="7.30762" y="86.9238" width="6.15385" height="6.15385" fill="#302626"/>
<rect x="7.30762" y="25.3848" width="6.15385" height="6.15385" fill="#302626"/>
<rect x="7.30762" y="31.5391" width="6.15385" height="6.15385" fill="#302626"/>
<rect x="7.30762" y="37.6924" width="6.15385" height="6.15385" fill="#302626"/>
<rect x="7.30762" y="43.8467" width="6.15385" height="6.15385" fill="#302626"/>
<rect x="7.30762" y="50" width="6.15385" height="6.15385" fill="#302626"/>
<rect x="7.30762" y="56.1543" width="6.15385" height="6.15385" fill="#302626"/>
<rect x="7.30762" y="62.3086" width="6.15385" height="6.15385" fill="#302626"/>
<rect x="7.30762" y="68.4619" width="6.15385" height="6.15385" fill="#302626"/>
<rect x="7.30762" y="74.6162" width="6.15385" height="6.15385" fill="#302626"/>
<rect x="7.30762" y="80.7695" width="6.15385" height="6.15385" fill="#302626"/>
<rect x="7.30762" y="19.2314" width="6.15385" height="6.15385" fill="#302626"/>
</svg>
 </g>
  
  <g id="frame1" class="flame"> <svg width="80" height="111" viewBox="0 0 80 111" fill="none" xmlns="http://www.w3.org/2000/svg">
<path d="M16.5225 48.2234C5.57947 50.308 6.70183 67.8533 8.63089 76.3654C11.998 95.9605 28.1254 99.5298 35.5052 98.865C56.4035 101.88 79.4992 72.0742 62.2939 58.6464C64.8192 47.3896 58.0851 45.9651 54.4023 46.66C57.0329 50.6554 59.0321 56.4575 45.9846 47.7023C32.9371 38.947 47.5629 17.9969 56.5067 8.61621C44.757 11.9168 22.9411 21.1237 29.6753 31.5467C36.4094 41.9696 21.959 55.3458 13.892 60.7309C11.2615 52.3926 16.5225 48.2234 16.5225 48.2234Z" fill="#F28C0E"/>
<rect x="6.15381" y="49.2314" width="6.15385" height="6.15385" fill="#F28C0E"/>
<rect x="6.15381" y="55.3848" width="6.15385" height="6.15385" fill="#F28C0E"/>
<rect x="6.15381" y="61.5391" width="6.15385" height="6.15385" fill="#F28C0E"/>
<rect x="6.15381" y="67.6924" width="6.15385" height="6.15385" fill="#F28C0E"/>
<rect x="12.3076" y="43.0771" width="6.15385" height="6.15385" fill="#F28C0E"/>
<rect x="6.15381" y="73.8467" width="6.15385" height="6.15385" fill="#F28C0E"/>
<rect x="12.3076" y="49.2314" width="6.15385" height="6.15385" fill="#F28C0E"/>
<rect x="12.3076" y="55.3848" width="6.15385" height="6.15385" fill="#F28C0E"/>
<rect x="30.7693" y="30.7695" width="6.15385" height="6.15385" fill="#F28C0E"/>
<rect x="30.7693" y="36.9238" width="6.15385" height="6.15385" fill="#F28C0E"/>
<rect x="24.6155" y="43.0771" width="6.15385" height="6.15385" fill="#F28C0E"/>
<rect x="18.4614" y="49.2314" width="11.0769" height="9.23077" fill="#F28C0E"/>
<rect x="24.6155" y="30.7695" width="6.15385" height="6.15385" fill="#F28C0E"/>
<rect x="49.2307" y="6.1543" width="6.15385" height="6.15385" fill="#F28C0E"/>
<rect x="36.9231" y="12.3086" width="6.15385" height="6.15385" fill="#F28C0E"/>
<rect x="30.7693" y="18.4619" width="6.15385" height="6.15385" fill="#F28C0E"/>
<rect x="24.6155" y="24.6162" width="6.15385" height="6.15385" fill="#F28C0E"/>
<rect x="43.0769" y="6.1543" width="6.15385" height="6.15385" fill="#F28C0E"/>
<rect x="55.3845" y="6.1543" width="6.15385" height="6.15385" fill="#F28C0E"/>
<rect x="49.2307" y="12.3086" width="6.15385" height="6.15385" fill="#F28C0E"/>
<rect x="43.0769" y="18.4619" width="6.15385" height="6.15385" fill="#F28C0E"/>
<rect x="40.6155" y="24.6162" width="8.61539" height="6.15385" fill="#F28C0E"/>
<rect x="36.9231" y="30.7695" width="6.15385" height="6.15385" fill="#F28C0E"/>
<rect x="36.9231" y="36.9238" width="6.15385" height="6.15385" fill="#F28C0E"/>
<rect x="40" y="43.0771" width="9.23077" height="9.23077" fill="#F28C0E"/>
<rect x="49.2307" y="49.2314" width="6.15385" height="6.15385" fill="#F28C0E"/>
<rect x="49.2307" y="43.0771" width="6.15385" height="6.15385" fill="#F28C0E"/>
<rect x="61.5386" y="49.2314" width="6.15385" height="6.15385" fill="#F28C0E"/>
<rect x="61.5386" y="55.3848" width="6.15385" height="6.15385" fill="#F28C0E"/>
<rect x="55.3845" y="43.0771" width="6.15385" height="9.84615" fill="#F28C0E"/>
<rect x="61.5386" y="61.5391" width="6.15385" height="6.15385" fill="#F28C0E"/>
<rect x="67.6924" y="67.6924" width="6.15385" height="6.15385" fill="#F28C0E"/>
<rect x="61.5386" y="73.8467" width="6.15385" height="6.15385" fill="#F28C0E"/>
<rect x="61.5386" y="80" width="6.15385" height="6.15385" fill="#F28C0E"/>
<rect x="55.3845" y="86.1543" width="6.15385" height="6.15385" fill="#F28C0E"/>
<rect x="49.2307" y="92.3086" width="6.15385" height="6.15385" fill="#F28C0E"/>
<rect x="36.9231" y="98.4619" width="6.15385" height="6.15385" fill="#F28C0E"/>
<rect x="43.0769" y="92.3086" width="6.15385" height="6.15385" fill="#F28C0E"/>
<rect x="30.7693" y="98.4619" width="6.15385" height="6.15385" fill="#F28C0E"/>
<rect x="6.15381" y="80" width="6.15385" height="6.15385" fill="#F28C0E"/>
<rect x="12.3076" y="86.1543" width="6.15385" height="6.15385" fill="#F28C0E"/>
<rect x="18.4614" y="92.3086" width="6.15385" height="6.15385" fill="#F28C0E"/>
<rect x="24.6155" y="92.3086" width="6.15385" height="6.15385" fill="#F28C0E"/>
<path d="M23.9714 74.1884C18.5071 75.2608 17.477 74.9285 18.4403 79.3078C20.1216 89.3892 32.4846 100.484 36.1696 100.142C46.605 101.693 64.3669 84.3546 55.7757 77.4462C57.0367 71.6548 47.4446 72.9257 45.6057 73.2832C46.9192 75.3388 47.9175 78.3239 41.4024 73.8195C34.8873 69.315 38.4035 64.5869 42.8695 59.7607C37.0024 61.4588 25.679 60.4486 29.0416 65.811C32.4043 71.1734 30.7651 75.141 26.737 77.9116C25.4235 73.6217 23.9714 74.1884 23.9714 74.1884Z" fill="#FFDD77"/>
<rect x="20.8545" y="71.7949" width="5.47009" height="5.47009" fill="#FFDD77"/>
<rect x="15.3845" y="71.7949" width="5.47009" height="5.47009" fill="#FFDD77"/>
<rect x="15.3845" y="77.2646" width="5.47009" height="5.47009" fill="#FFDD77"/>
<rect x="26.3247" y="77.2646" width="5.47009" height="5.47009" fill="#FFDD77"/>
<rect x="26.3247" y="66.3252" width="5.47009" height="5.47009" fill="#FFDD77"/>
<rect x="26.3247" y="71.7949" width="5.47009" height="5.47009" fill="#FFDD77"/>
<rect x="26.3247" y="60.8545" width="5.47009" height="5.47009" fill="#FFDD77"/>
<rect x="31.7947" y="60.8545" width="5.47009" height="5.47009" fill="#FFDD77"/>
<rect x="37.2649" y="55.3848" width="5.47009" height="5.47009" fill="#FFDD77"/>
<rect x="42.7349" y="55.3848" width="5.47009" height="5.47009" fill="#FFDD77"/>
<rect x="37.2649" y="60.8545" width="5.47009" height="5.47009" fill="#FFDD77"/>
<rect x="37.2649" y="66.3252" width="5.47009" height="5.47009" fill="#FFDD77"/>
<rect x="37.2649" y="71.7949" width="5.47009" height="5.47009" fill="#FFDD77"/>
<rect x="42.7349" y="71.7949" width="5.47009" height="5.47009" fill="#FFDD77"/>
<rect x="53.675" y="71.7949" width="5.47009" height="5.47009" fill="#FFDD77"/>
<rect x="48.2051" y="71.7949" width="5.47009" height="5.47009" fill="#FFDD77"/>
<rect x="53.675" y="77.2646" width="5.47009" height="5.47009" fill="#FFDD77"/>
<rect x="53.675" y="82.7354" width="5.47009" height="5.47009" fill="#FFDD77"/>
<rect x="51.0769" y="88" width="8" height="5.53846" fill="#FFDD77"/>
<rect x="42.7349" y="93.6748" width="5.47009" height="5.47009" fill="#FFDD77"/>
<rect x="37.2649" y="99.1455" width="5.47009" height="5.47009" fill="#FFDD77"/>
<rect x="48.2051" y="93.6748" width="5.47009" height="5.47009" fill="#FFDD77"/>
<rect x="32" y="97.8457" width="5.53846" height="6.76923" fill="#FFDD77"/>
<rect x="15.3845" y="82.7354" width="5.47009" height="5.47009" fill="#FFDD77"/>
<rect x="20.9229" y="84.9229" width="5.53846" height="8.61539" fill="#FFDD77"/>
<rect x="26.3247" y="93.6748" width="5.47009" height="5.47009" fill="#FFDD77"/>
<rect x="34.4614" y="85.5381" width="9.23077" height="9.23077" fill="#FFFC47"/>
<rect x="26.4614" y="78.1543" width="9.23077" height="9.23077" fill="#FFFC47"/>
<rect x="35.0769" y="78.1543" width="9.23077" height="9.23077" fill="#FFFC47"/>
<rect x="24.6155" y="98.4619" width="6.15385" height="6.15385" fill="#302626"/>
<rect x="30.7693" y="104.615" width="6.15385" height="6.15385" fill="#302626"/>
<rect x="18.4614" y="98.4619" width="6.15385" height="6.15385" fill="#302626"/>
<rect x="12.3076" y="92.3076" width="6.15385" height="6.15385" fill="#302626"/>
<rect x="6.15381" y="86.1543" width="6.15385" height="6.15385" fill="#302626"/>
<rect y="80" width="6.15385" height="6.15385" fill="#302626"/>
<rect y="55.3848" width="6.15385" height="6.15385" fill="#302626"/>
<rect y="61.5381" width="6.15385" height="6.15385" fill="#302626"/>
<rect y="67.6924" width="6.15385" height="6.15385" fill="#302626"/>
<rect y="73.8457" width="6.15385" height="6.15385" fill="#302626"/>
<rect y="49.2305" width="6.15385" height="6.15385" fill="#302626"/>
<rect x="6.15381" y="43.0771" width="6.15385" height="6.15385" fill="#302626"/>
<rect x="12.3076" y="36.9229" width="6.15385" height="6.15385" fill="#302626"/>
<rect x="18.4614" y="43.0771" width="6.15385" height="6.15385" fill="#302626"/>
<rect x="12.3076" y="43.0771" width="6.15385" height="6.15385" fill="#302626"/>
<rect x="24.6155" y="36.9229" width="6.15385" height="6.15385" fill="#302626"/>
<rect x="18.4614" y="30.7695" width="6.15385" height="6.15385" fill="#302626"/>
<rect x="18.4614" y="24.6152" width="6.15385" height="6.15385" fill="#302626"/>
<rect x="24.6155" y="18.4619" width="6.15385" height="6.15385" fill="#302626"/>
<rect x="30.7693" y="12.3076" width="6.15385" height="6.15385" fill="#302626"/>
<rect x="36.9231" y="6.1543" width="6.15385" height="6.15385" fill="#302626"/>
<rect x="43.0769" width="6.15385" height="6.15385" fill="#302626"/>
<rect x="49.2307" width="6.15385" height="6.15385" fill="#302626"/>
<rect x="55.3845" width="6.15385" height="6.15385" fill="#302626"/>
<rect x="61.5386" width="6.15385" height="6.15385" fill="#302626"/>
<rect x="61.5386" y="6.1543" width="6.15385" height="6.15385" fill="#302626"/>
<rect x="55.3845" y="12.3076" width="6.15385" height="6.15385" fill="#302626"/>
<rect x="49.2307" y="18.4619" width="6.15385" height="6.15385" fill="#302626"/>
<rect x="49.2307" y="24.6152" width="6.15385" height="6.15385" fill="#302626"/>
<rect x="43.0769" y="30.7695" width="6.15385" height="6.15385" fill="#302626"/>
<rect x="43.0769" y="36.9229" width="6.15385" height="6.15385" fill="#302626"/>
<rect x="49.2307" y="36.9229" width="6.15385" height="6.15385" fill="#302626"/>
<rect x="55.3845" y="36.9229" width="6.15385" height="6.15385" fill="#302626"/>
<rect x="61.5386" y="43.0771" width="6.15385" height="6.15385" fill="#302626"/>
<rect x="67.6924" y="49.2305" width="6.15385" height="6.15385" fill="#302626"/>
<rect x="67.6924" y="55.3848" width="6.15385" height="6.15385" fill="#302626"/>
<rect x="67.6924" y="61.5381" width="6.15385" height="6.15385" fill="#302626"/>
<rect x="73.8462" y="67.6924" width="6.15385" height="6.15385" fill="#302626"/>
<rect x="67.6924" y="73.8457" width="6.15385" height="6.15385" fill="#302626"/>
<rect x="61.5386" y="80" width="6.15385" height="6.15385" fill="#302626"/>
<rect x="61.5386" y="86.1543" width="6.15385" height="6.15385" fill="#302626"/>
<rect x="55.3845" y="92.3076" width="6.15385" height="6.15385" fill="#302626"/>
<rect x="49.2307" y="92.3076" width="6.15385" height="6.15385" fill="#302626"/>
<rect x="43.0769" y="98.4619" width="6.15385" height="6.15385" fill="#302626"/>
<rect x="36.9231" y="98.4619" width="6.15385" height="6.15385" fill="#302626"/>
</svg>
 </g>
  <g id="frame2" class="flame"> <svg width="83" height="111" viewBox="0 0 83 111" fill="none" xmlns="http://www.w3.org/2000/svg">
<path d="M10.5 59.6357C-0.44301 61.7203 5.07092 75.6237 6.99998 84.1357C17 97.5 32.1202 107.665 39.5 107C60.3984 110.015 91.7053 73.0636 74.5 59.6357C77.0253 48.379 72.1828 38.3051 68.5 39C71.1305 42.9955 76.0475 39.2553 63 30.5C49.9525 21.7447 56.0562 17.3807 65 8C53.2502 11.3006 32.636 14.9446 27 26C21.3922 37 26.567 39.6148 18.5 45C15.8695 36.6616 10.5 59.6357 10.5 59.6357Z" fill="#F28C0E"/>
<rect x="13.1536" y="49.2314" width="6.15385" height="6.15385" fill="#F28C0E"/>
<rect x="19.3074" y="43.0771" width="6.15385" height="6.15385" fill="#F28C0E"/>
<rect x="7" y="55" width="6.15385" height="6.15385" fill="#F28C0E"/>
<rect x="19" y="37" width="6.15385" height="6.15385" fill="#F28C0E"/>
<rect x="56.2305" y="6.1543" width="6.15385" height="6.15385" fill="#F28C0E"/>
<rect x="43.9229" y="12.3086" width="6.15385" height="6.15385" fill="#F28C0E"/>
<rect x="37.769" y="18.4619" width="6.15385" height="6.15385" fill="#F28C0E"/>
<rect x="31.6152" y="24.6162" width="6.15385" height="6.15385" fill="#F28C0E"/>
<rect x="50.0767" y="6.1543" width="6.15385" height="6.15385" fill="#F28C0E"/>
<rect x="62.3843" y="6.1543" width="6.15385" height="6.15385" fill="#F28C0E"/>
<rect x="56.2305" y="12.3086" width="6.15385" height="6.15385" fill="#F28C0E"/>
<rect x="50.0767" y="18.4619" width="6.15385" height="6.15385" fill="#F28C0E"/>
<rect x="31" y="18.5" width="6.15385" height="6.15385" fill="#F28C0E"/>
<rect x="63" y="30.7998" width="6.15385" height="6.15385" fill="#F28C0E"/>
<rect x="62" y="37" width="6.15385" height="6.15385" fill="#F28C0E"/>
<rect x="68.5383" y="49.2314" width="6.15385" height="6.15385" fill="#F28C0E"/>
<rect x="68.5383" y="55.3848" width="6.15385" height="6.15385" fill="#F28C0E"/>
<rect x="69" y="43" width="6.15385" height="6.15385" fill="#F28C0E"/>
<rect x="68.5383" y="80" width="6.15385" height="6.15385" fill="#F28C0E"/>
<rect x="62.3843" y="86.1543" width="6.15385" height="6.15385" fill="#F28C0E"/>
<rect x="7" y="80" width="6.15385" height="6.15385" fill="#F28C0E"/>
<rect x="13" y="87" width="6.15385" height="6.15385" fill="#F28C0E"/>
<rect x="19" y="93" width="6.15385" height="6.15385" fill="#F28C0E"/>
<rect x="25" y="99" width="6.15385" height="6.15385" fill="#F28C0E"/>
<path d="M27.4998 76C24.0283 79.7233 28.4998 81.4116 26.4998 83.5C28.1811 93.5813 39.4846 100.484 43.1696 100.142C53.605 101.693 71.5911 84.82 62.9998 77.9116C64.2608 72.1202 60.8387 73.8309 58.9998 74.1884C60.3133 76.244 53.2842 88.3078 48.4998 85C43.7153 81.6922 45.4035 64.5869 49.8695 59.7607C44.0024 61.4588 32.679 60.4486 36.0416 65.811C39.4043 71.1734 38.028 72.2294 33.9998 75C32.6863 70.7101 27.4998 76 27.4998 76Z" fill="#FFDD77"/>
<rect x="27.8547" y="71.7949" width="5.47009" height="5.47009" fill="#FFDD77"/>
<rect x="22.3845" y="71.7949" width="5.47009" height="5.47009" fill="#FFDD77"/>
<rect x="22.3845" y="77.2646" width="5.47009" height="5.47009" fill="#FFDD77"/>
<rect x="44.2698" y="71.79" width="5.47009" height="5.47009" fill="#FFDD77"/>
<rect x="44.2698" y="77.2598" width="5.47009" height="5.47009" fill="#FFDD77"/>
<rect x="44.2698" y="82.7305" width="5.47009" height="5.47009" fill="#FFDD77"/>
<rect x="49.7397" y="82.7305" width="5.47009" height="5.47009" fill="#FFDD77"/>
<rect x="55.2097" y="77.2598" width="5.47009" height="5.47009" fill="#FFDD77"/>
<rect x="55.2097" y="71.79" width="5.47009" height="5.47009" fill="#FFDD77"/>
<rect x="33.3247" y="66.3252" width="5.47009" height="5.47009" fill="#FFDD77"/>
<rect x="33.3247" y="71.7949" width="5.47009" height="5.47009" fill="#FFDD77"/>
<rect x="33.3247" y="60.8545" width="5.47009" height="5.47009" fill="#FFDD77"/>
<rect x="38.7947" y="60.8545" width="5.47009" height="5.47009" fill="#FFDD77"/>
<rect x="38.7947" y="55.3799" width="5.47009" height="5.47009" fill="#FFDD77"/>
<rect x="44.2649" y="55.3848" width="5.47009" height="5.47009" fill="#FFDD77"/>
<rect x="49.7349" y="55.3848" width="5.47009" height="5.47009" fill="#FFDD77"/>
<rect x="49.7349" y="49.9102" width="5.47009" height="5.47009" fill="#FFDD77"/>
<rect x="44.2649" y="60.8545" width="5.47009" height="5.47009" fill="#FFDD77"/>
<rect x="44.2649" y="66.3252" width="5.47009" height="5.47009" fill="#FFDD77"/>
<rect x="60.675" y="71.7949" width="5.47009" height="5.47009" fill="#FFDD77"/>
<rect x="60.675" y="77.2646" width="5.47009" height="5.47009" fill="#FFDD77"/>
<rect x="60.675" y="82.7354" width="5.47009" height="5.47009" fill="#FFDD77"/>
<rect x="58.0769" y="88" width="8" height="5.53846" fill="#FFDD77"/>
<rect x="49.7349" y="93.6748" width="5.47009" height="5.47009" fill="#FFDD77"/>
<rect x="44.2649" y="99.1455" width="5.47009" height="5.47009" fill="#FFDD77"/>
<rect x="49.7397" y="99.1455" width="5.47009" height="5.47009" fill="#FFDD77"/>
<rect x="55.2097" y="98.9004" width="5.47009" height="5.47009" fill="#FFDD77"/>
<rect x="55.2051" y="93.5" width="5.47009" height="5.47009" fill="#FFDD77"/>
<rect x="60.6797" y="92.9502" width="5.47009" height="5.47009" fill="#FFDD77"/>
<rect x="39" y="97.8457" width="5.53846" height="6.76923" fill="#FFDD77"/>
<rect x="22.3845" y="82.7354" width="5.47009" height="5.47009" fill="#FFDD77"/>
<rect x="27.9231" y="84.9229" width="5.53846" height="8.61539" fill="#FFDD77"/>
<rect x="33.4998" y="93.6748" width="5.47009" height="5.47009" fill="#FFDD77"/>
<rect x="28.0298" y="93.5996" width="5.47009" height="5.47009" fill="#FFDD77"/>
<rect x="33.4998" y="99.1396" width="5.47009" height="5.47009" fill="#FFDD77"/>
<rect x="43.4614" y="90.5381" width="9.23077" height="9.23077" fill="#FFFC47"/>
<rect x="34.4614" y="84.1543" width="9.23077" height="9.23077" fill="#FFFC47"/>
<rect x="31.6152" y="104.62" width="6.15385" height="6.15385" fill="#302626"/>
<rect x="37.769" y="104.615" width="6.15385" height="6.15385" fill="#302626"/>
<rect x="25.4612" y="104.62" width="6.15385" height="6.15385" fill="#302626"/>
<rect x="13.1497" y="92.3076" width="6.15385" height="6.15385" fill="#302626"/>
<rect x="19.3074" y="98.46" width="6.15385" height="6.15385" fill="#302626"/>
<rect x="6.99976" y="86.1543" width="6.15385" height="6.15385" fill="#302626"/>
<rect x="0.849854" y="80" width="6.15385" height="6.15385" fill="#302626"/>
<rect x="0.849854" y="55.3848" width="6.15385" height="6.15385" fill="#302626"/>
<rect x="0.849854" y="61.5381" width="6.15385" height="6.15385" fill="#302626"/>
<rect x="0.849854" y="67.6924" width="6.15385" height="6.15385" fill="#302626"/>
<rect x="0.849854" y="73.8457" width="6.15385" height="6.15385" fill="#302626"/>
<rect x="6.99976" y="49.2305" width="6.15385" height="6.15385" fill="#302626"/>
<rect x="13.1538" y="43.0771" width="6.15385" height="6.15385" fill="#302626"/>
<rect x="19.3074" y="24.6201" width="6.15385" height="6.15385" fill="#302626"/>
<rect x="19.3074" y="30.7695" width="6.15385" height="6.15385" fill="#302626"/>
<rect x="25.4612" y="24.6201" width="6.15385" height="6.15385" fill="#302626"/>
<rect x="25.4612" y="18.46" width="6.15385" height="6.15385" fill="#302626"/>
<rect x="31.6152" y="12.3096" width="6.15385" height="6.15385" fill="#302626"/>
<rect x="37.769" y="12.3076" width="6.15385" height="6.15385" fill="#302626"/>
<rect x="43.9229" y="6.1543" width="6.15385" height="6.15385" fill="#302626"/>
<rect x="50.0767" width="6.15385" height="6.15385" fill="#302626"/>
<rect x="56.2307" width="6.15385" height="6.15385" fill="#302626"/>
<rect x="62.3845" width="6.15385" height="6.15385" fill="#302626"/>
<rect x="68.5383" width="6.15385" height="6.15385" fill="#302626"/>
<rect x="68.5383" y="6.1543" width="6.15385" height="6.15385" fill="#302626"/>
<rect x="62.3845" y="12.3076" width="6.15385" height="6.15385" fill="#302626"/>
<rect x="56.2307" y="18.4619" width="6.15385" height="6.15385" fill="#302626"/>
<rect x="56.2307" y="24.6152" width="6.15385" height="6.15385" fill="#302626"/>
<rect x="68.5398" y="30.7695" width="6.15385" height="6.15385" fill="#302626"/>
<rect x="68.5398" y="36.9229" width="6.15385" height="6.15385" fill="#302626"/>
<rect x="13.1499" y="36.9229" width="6.15385" height="6.15385" fill="#302626"/>
<rect x="62.3799" y="24.6201" width="6.15385" height="6.15385" fill="#302626"/>
<path d="M74.6921 49.2305H80.846V55.3843H74.6921V49.2305Z" fill="#302626"/>
<path d="M74.6897 43.0801H80.8435V49.2339H74.6897V43.0801Z" fill="#302626"/>
<rect x="74.6921" y="55.3848" width="6.15385" height="6.15385" fill="#302626"/>
<rect x="74.6921" y="61.5381" width="6.15385" height="6.15385" fill="#302626"/>
<path d="M74.6897 67.6924H80.8435V73.8462H74.6897V67.6924Z" fill="#302626"/>
<rect x="74.6921" y="73.8457" width="6.15385" height="6.15385" fill="#302626"/>
<rect x="74.6899" y="80" width="6.15385" height="6.15385" fill="#302626"/>
<rect x="68.5383" y="86.1543" width="6.15385" height="6.15385" fill="#302626"/>
<rect x="62.3845" y="92.3076" width="6.15385" height="6.15385" fill="#302626"/>
<rect x="56.2305" y="98.46" width="6.15385" height="6.15385" fill="#302626"/>
<rect x="50.0767" y="104.62" width="6.15385" height="6.15385" fill="#302626"/>
<rect x="43.9229" y="104.62" width="6.15385" height="6.15385" fill="#302626"/>
</svg>
 </g>
  <g id="frame3" class="flame"> <svg width="81" height="112" viewBox="0 0 81 112" fill="none" xmlns="http://www.w3.org/2000/svg">
<path d="M10.5001 59.6348C3.99999 67.5 5.07098 75.6227 7.00004 84.1348C13.5 103.999 32.1202 111.165 39.5 110.5C60.3984 113.515 78.0001 90 78.0001 59.6348C78.0001 51.4768 73.0001 43 73.0001 43C69 38.5 66.2503 33 64.5001 29.5C61.5001 23.501 64.5001 14.5 60.0001 4.5C48.2503 7.8006 32.6361 14.9436 27.0001 25.999C21.3923 36.999 26.5671 39.6138 18.5001 44.999C15.8696 36.6607 10.5001 59.6348 10.5001 59.6348Z" fill="#F28C0E"/>
<rect x="13.1538" y="49.2305" width="6.15385" height="6.15385" fill="#F28C0E"/>
<rect x="19.3076" y="43.0771" width="6.15385" height="6.15385" fill="#F28C0E"/>
<rect x="7.00024" y="55" width="6.15385" height="6.15385" fill="#F28C0E"/>
<rect x="7" y="61" width="6.15385" height="6.15385" fill="#F28C0E"/>
<rect x="19.0002" y="37" width="6.15385" height="6.15385" fill="#F28C0E"/>
<rect x="56.2307" y="6.1543" width="6.15385" height="6.15385" fill="#F28C0E"/>
<rect x="43.95" y="6.09961" width="6.15385" height="6.15385" fill="#F28C0E"/>
<path d="M31.5 12H38V19H31.5V12Z" fill="#F28C0E"/>
<rect x="38" y="12" width="6.15385" height="6.15385" fill="#F28C0E"/>
<rect x="25" y="24.5" width="6.15385" height="6.15385" fill="#F28C0E"/>
<rect x="50.0769" y="6.1543" width="6.15385" height="6.15385" fill="#F28C0E"/>
<rect x="62.3845" y="6.1543" width="6.15385" height="6.15385" fill="#F28C0E"/>
<rect x="56.2307" y="12.3076" width="6.15385" height="6.15385" fill="#F28C0E"/>
<rect x="50.0769" y="18.4619" width="6.15385" height="6.15385" fill="#F28C0E"/>
<rect x="31.0002" y="18.5" width="6.15385" height="6.15385" fill="#F28C0E"/>
<rect x="62.0002" y="30.7998" width="6.15385" height="6.15385" fill="#F28C0E"/>
<rect x="62.0002" y="37" width="6.15385" height="6.15385" fill="#F28C0E"/>
<rect x="68.5386" y="49.2305" width="6.15385" height="6.15385" fill="#F28C0E"/>
<rect x="68.5386" y="55.3848" width="6.15385" height="6.15385" fill="#F28C0E"/>
<rect x="69.0002" y="43" width="6.15385" height="6.15385" fill="#F28C0E"/>
<rect x="68.5386" y="80" width="6.15385" height="6.15385" fill="#F28C0E"/>
<rect x="62.3845" y="86.1543" width="6.15385" height="6.15385" fill="#F28C0E"/>
<rect x="7.00024" y="80" width="6.15385" height="6.15385" fill="#F28C0E"/>
<rect x="13" y="93" width="6.15385" height="6.15385" fill="#F28C0E"/>
<rect x="19" y="99" width="6.15385" height="6.15385" fill="#F28C0E"/>
<rect x="56.3999" y="99" width="6.15385" height="6.15385" fill="#F28C0E"/>
<rect x="63" y="92.2998" width="6.15385" height="6.15385" fill="#F28C0E"/>
<rect x="19.0002" y="93" width="6.15385" height="6.15385" fill="#F28C0E"/>
<rect x="25.0002" y="99" width="6.15385" height="6.15385" fill="#F28C0E"/>
<path d="M31 81L30 89.5C30 89.5 31.5 106.971 47.5 106.5C63.5 106.029 59 93.5 65 82.5C68.2727 76.5 56 73.5 50.5 74.1884C56.5 81 53.2841 87.8078 48.4997 84.5C43.7153 81.1922 44.5 68.311 43.5 61.5C39.5 68.311 35.9999 71 35.9999 71L34.5 77.5L31 81Z" fill="#FFDD77"/>
<rect x="33.4998" y="99.1396" width="5.47009" height="5.47009" fill="#FFDD77"/>
<rect x="29.03" y="93.6699" width="5.47009" height="5.47009" fill="#FFDD77"/>
<rect x="29.03" y="88.2002" width="5.47009" height="5.47009" fill="#FFDD77"/>
<rect x="29.03" y="82.7305" width="5.47009" height="5.47009" fill="#FFDD77"/>
<rect x="29.03" y="77.2607" width="5.47009" height="5.47009" fill="#FFDD77"/>
<rect x="34.5002" y="71.79" width="5.47009" height="5.47009" fill="#FFDD77"/>
<rect x="34.5002" y="66.3203" width="5.47009" height="5.47009" fill="#FFDD77"/>
<rect x="39.97" y="60.8506" width="5.47009" height="5.47009" fill="#FFDD77"/>
<rect x="39.97" y="66.3203" width="5.47009" height="5.47009" fill="#FFDD77"/>
<rect x="39.97" y="71.79" width="5.47009" height="5.47009" fill="#FFDD77"/>
<rect x="42.97" y="77.2598" width="5.47009" height="5.47009" fill="#FFDD77"/>
<rect x="42.97" y="82.7305" width="5.47009" height="5.47009" fill="#FFDD77"/>
<rect x="48" y="83" width="5.47009" height="5.47009" fill="#FFDD77"/>
<rect x="53" y="78" width="5.47009" height="5.47009" fill="#FFDD77"/>
<rect x="50" y="73" width="5.47009" height="5.47009" fill="#FFDD77"/>
<path d="M53.0002 73H60.0002V76H53.0002V73Z" fill="#FFDD77"/>
<rect x="60" y="73" width="5.47009" height="5.47009" fill="#FFDD77"/>
<rect x="60" y="73" width="5.47009" height="5.47009" fill="#FFDD77"/>
<rect x="60" y="78" width="5.47009" height="5.47009" fill="#FFDD77"/>
<rect x="60" y="83" width="5.47009" height="5.47009" fill="#FFDD77"/>
<rect x="60" y="88" width="5.47009" height="5.47009" fill="#FFDD77"/>
<rect x="60" y="93" width="5.47009" height="5.47009" fill="#FFDD77"/>
<rect x="55" y="98" width="5" height="7" fill="#FFDD77"/>
<rect x="44.4614" y="91.5381" width="9.23077" height="9.23077" fill="#FFFC47"/>
<rect x="31.6152" y="104.62" width="6.15385" height="6.15385" fill="#302626"/>
<rect x="37.769" y="104.615" width="6.15385" height="6.15385" fill="#302626"/>
<rect x="25.4612" y="104.62" width="6.15385" height="6.15385" fill="#302626"/>
<rect x="19.3101" y="104.62" width="6.15385" height="6.15385" fill="#302626"/>
<rect x="7" y="92.3076" width="6.15385" height="6.15385" fill="#302626"/>
<rect x="13.1499" y="98.46" width="6.15385" height="6.15385" fill="#302626"/>
<rect x="6.99976" y="86.1543" width="6.15385" height="6.15385" fill="#302626"/>
<rect x="0.849854" y="80" width="6.15385" height="6.15385" fill="#302626"/>
<rect x="0.849854" y="55.3848" width="6.15385" height="6.15385" fill="#302626"/>
<rect x="0.849854" y="61.5381" width="6.15385" height="6.15385" fill="#302626"/>
<rect x="0.849854" y="67.6924" width="6.15385" height="6.15385" fill="#302626"/>
<rect x="0.849854" y="73.8457" width="6.15385" height="6.15385" fill="#302626"/>
<rect x="6.99976" y="49.2305" width="6.15385" height="6.15385" fill="#302626"/>
<rect x="13.1538" y="43.0771" width="6.15385" height="6.15385" fill="#302626"/>
<rect x="19.3074" y="24.6201" width="6.15385" height="6.15385" fill="#302626"/>
<rect x="19.3074" y="30.7695" width="6.15385" height="6.15385" fill="#302626"/>
<rect x="25.4612" y="12.3096" width="6.15385" height="6.15385" fill="#302626"/>
<rect x="25.4612" y="18.4697" width="6.15385" height="6.15385" fill="#302626"/>
<rect x="31.6152" y="6.15039" width="6.15385" height="6.15385" fill="#302626"/>
<rect x="37.769" y="6.15039" width="6.15385" height="6.15385" fill="#302626"/>
<rect x="43.9229" width="6.15385" height="6.15385" fill="#302626"/>
<rect x="50.0767" width="6.15385" height="6.15385" fill="#302626"/>
<rect x="56.2307" width="6.15385" height="6.15385" fill="#302626"/>
<rect x="62.3845" width="6.15385" height="6.15385" fill="#302626"/>
<rect x="62.3899" y="6.1543" width="6.15385" height="6.15385" fill="#302626"/>
<rect x="62.3845" y="12.3076" width="6.15385" height="6.15385" fill="#302626"/>
<rect x="62.3799" y="18.4619" width="6.15385" height="6.15385" fill="#302626"/>
<rect x="62.3899" y="30.7695" width="6.15385" height="6.15385" fill="#302626"/>
<rect x="68.5398" y="36.9229" width="6.15385" height="6.15385" fill="#302626"/>
<rect x="13.1499" y="36.9229" width="6.15385" height="6.15385" fill="#302626"/>
<rect x="62.3799" y="24.6201" width="6.15385" height="6.15385" fill="#302626"/>
<path d="M74.6921 49.2305H80.846V55.3843H74.6921V49.2305Z" fill="#302626"/>
<path d="M74.6897 43.0801H80.8435V49.2339H74.6897V43.0801Z" fill="#302626"/>
<rect x="74.6921" y="55.3848" width="6.15385" height="6.15385" fill="#302626"/>
<rect x="74.6921" y="61.5381" width="6.15385" height="6.15385" fill="#302626"/>
<path d="M74.6897 67.6924H80.8435V73.8462H74.6897V67.6924Z" fill="#302626"/>
<rect x="74.6921" y="73.8457" width="6.15385" height="6.15385" fill="#302626"/>
<rect x="74.6899" y="80" width="6.15385" height="6.15385" fill="#302626"/>
<rect x="68.5383" y="86.1543" width="6.15385" height="6.15385" fill="#302626"/>
<rect x="68.5383" y="92.2998" width="6.15385" height="6.15385" fill="#302626"/>
<rect x="62.3845" y="98.46" width="6.15385" height="6.15385" fill="#302626"/>
<rect x="56.2305" y="104.61" width="6.15385" height="6.15385" fill="#302626"/>
<rect x="50.0767" y="104.62" width="6.15385" height="6.15385" fill="#302626"/>
<rect x="43.9229" y="104.62" width="6.15385" height="6.15385" fill="#302626"/>
</svg>
 </g>
  <g id="frame4" class="flame"> <svg width="81" height="124" viewBox="0 0 81 124" fill="none" xmlns="http://www.w3.org/2000/svg">
<path d="M7 62C4.50008 69.6348 5.07117 87.6227 7.00023 96.1348C13.5002 115.999 32.1204 123.165 39.5002 122.5C60.3985 125.515 78.0003 102 78.0003 71.6348C78.0003 63.4768 71 58 71 58C70 50.5 66.2505 45 64.5002 41.5C61.5002 35.501 52.0002 16 48.5002 4C42.5002 14.5 32.6363 26.9436 27.0003 37.999C21.3925 48.999 25.567 47.6148 17.5 53C12 56.6716 7 62 7 62Z" fill="#F28C0E"/>
<rect x="13.1538" y="61.2305" width="6.15385" height="6.15385" fill="#F28C0E"/>
<rect x="19.3076" y="55.0771" width="6.15385" height="6.15385" fill="#F28C0E"/>
<rect x="7.00024" y="67" width="6.15385" height="6.15385" fill="#F28C0E"/>
<rect x="7" y="73" width="6.15385" height="6.15385" fill="#F28C0E"/>
<rect x="19.0002" y="49" width="6.15385" height="6.15385" fill="#F28C0E"/>
<rect x="56.2307" y="18.1543" width="6.15385" height="6.15385" fill="#F28C0E"/>
<rect x="43.95" y="18.0996" width="6.15385" height="6.15385" fill="#F28C0E"/>
<path d="M31.5 24H38V31H31.5V24Z" fill="#F28C0E"/>
<rect x="38" y="24" width="6.15385" height="6.15385" fill="#F28C0E"/>
<rect x="25" y="36.5" width="6.15385" height="6.15385" fill="#F28C0E"/>
<rect x="50.0769" y="18.1543" width="6.15385" height="6.15385" fill="#F28C0E"/>
<rect x="44" y="6" width="6.15385" height="6.15385" fill="#F28C0E"/>
<rect x="56.2307" y="24.3076" width="6.15385" height="6.15385" fill="#F28C0E"/>
<rect x="50.0769" y="30.4619" width="6.15385" height="6.15385" fill="#F28C0E"/>
<rect x="31.0002" y="30.5" width="6.15385" height="6.15385" fill="#F28C0E"/>
<rect x="62.0002" y="42.7998" width="6.15385" height="6.15385" fill="#F28C0E"/>
<rect x="62.0002" y="49" width="6.15385" height="6.15385" fill="#F28C0E"/>
<rect x="68.5386" y="61.2305" width="6.15385" height="6.15385" fill="#F28C0E"/>
<rect x="68.5386" y="67.3848" width="6.15385" height="6.15385" fill="#F28C0E"/>
<rect x="68.0002" y="55" width="6.15385" height="6.15385" fill="#F28C0E"/>
<rect x="37" y="18" width="6.15385" height="6.15385" fill="#F28C0E"/>
<rect x="13" y="55" width="6.15385" height="6.15385" fill="#F28C0E"/>
<rect x="7" y="61" width="6.15385" height="6.15385" fill="#F28C0E"/>
<rect x="68.5386" y="92" width="6.15385" height="6.15385" fill="#F28C0E"/>
<rect x="62.3845" y="98.1543" width="6.15385" height="6.15385" fill="#F28C0E"/>
<rect x="7.00024" y="92" width="6.15385" height="6.15385" fill="#F28C0E"/>
<rect x="13" y="105" width="6.15385" height="6.15385" fill="#F28C0E"/>
<rect x="19" y="111" width="6.15385" height="6.15385" fill="#F28C0E"/>
<rect x="56.3999" y="111" width="6.15385" height="6.15385" fill="#F28C0E"/>
<rect x="63" y="104.3" width="6.15385" height="6.15385" fill="#F28C0E"/>
<rect x="19.0002" y="105" width="6.15385" height="6.15385" fill="#F28C0E"/>
<rect x="25.0002" y="111" width="6.15385" height="6.15385" fill="#F28C0E"/>
<path d="M31.4998 90.5L27.4998 94.5C27.4998 94.5 26.5 102 33.4998 111.5C36.2984 115.97 39.6021 121.363 46.4998 121C53.457 120.634 55.5244 118.374 57.9998 112.5C59.9719 107.82 62.1787 99.9342 67.4998 95.5C72.1727 91.6059 60.5 88 55.4998 86.5C53.9998 90.5 51.4998 89.5 48.4998 89.5C45.4998 89.5 40.9998 82 40.9998 73.5C38.4998 82 38.9998 91.5 38.9998 91.5L35.9998 92.5L31.4998 90.5Z" fill="#FFDD77"/>
<rect x="33.4998" y="111.14" width="5.47009" height="5.47009" fill="#FFDD77"/>
<rect x="28" y="106" width="5.47009" height="5.47009" fill="#FFDD77"/>
<rect x="28" y="101" width="5.47009" height="5.47009" fill="#FFDD77"/>
<rect x="23" y="96" width="5.47009" height="5.47009" fill="#FFDD77"/>
<rect x="28" y="91" width="5.47009" height="5.47009" fill="#FFDD77"/>
<rect x="23" y="91" width="5.47009" height="5.47009" fill="#FFDD77"/>
<rect x="28" y="86" width="5.47009" height="5.47009" fill="#FFDD77"/>
<rect x="33" y="91" width="5.47009" height="5.47009" fill="#FFDD77"/>
<rect x="38" y="86" width="5.47009" height="5.47009" fill="#FFDD77"/>
<rect x="38" y="81" width="5.47009" height="5.47009" fill="#FFDD77"/>
<rect x="38" y="76" width="5.47009" height="5.47009" fill="#FFDD77"/>
<rect x="38" y="71" width="5.47009" height="5.47009" fill="#FFDD77"/>
<rect x="43" y="84" width="5.47009" height="5.47009" fill="#FFDD77"/>
<rect x="48" y="89" width="5.47009" height="5.47009" fill="#FFDD77"/>
<rect x="53" y="84" width="5.47009" height="5.47009" fill="#FFDD77"/>
<rect x="58" y="84" width="5.47009" height="5.47009" fill="#FFDD77"/>
<rect x="63" y="89" width="5.47009" height="5.47009" fill="#FFDD77"/>
<rect x="63" y="94" width="5.47009" height="5.47009" fill="#FFDD77"/>
<rect x="58" y="99" width="5.47009" height="5.47009" fill="#FFDD77"/>
<rect x="58" y="104" width="5.47009" height="5.47009" fill="#FFDD77"/>
<rect x="58" y="109" width="5.47009" height="5.47009" fill="#FFDD77"/>
<rect x="53" y="112" width="5.47009" height="5.47009" fill="#FFDD77"/>
<rect x="46.4614" y="103.538" width="9.23077" height="9.23077" fill="#FFFC47"/>
<rect x="46.4614" y="98.5381" width="9.23077" height="9.23077" fill="#FFFC47"/>
<rect x="37.4614" y="98.5381" width="9.23077" height="9.23077" fill="#FFFC47"/>
<rect x="31.6155" y="116.62" width="6.15385" height="6.15385" fill="#302626"/>
<rect x="37.7693" y="116.615" width="6.15385" height="6.15385" fill="#302626"/>
<rect x="25.4614" y="116.62" width="6.15385" height="6.15385" fill="#302626"/>
<rect x="19.3101" y="116.62" width="6.15385" height="6.15385" fill="#302626"/>
<rect x="7" y="104.308" width="6.15385" height="6.15385" fill="#302626"/>
<rect x="13.1501" y="110.46" width="6.15385" height="6.15385" fill="#302626"/>
<rect x="6.99976" y="98.1543" width="6.15385" height="6.15385" fill="#302626"/>
<rect x="0.849854" y="92" width="6.15385" height="6.15385" fill="#302626"/>
<rect x="0.849854" y="67.3848" width="6.15385" height="6.15385" fill="#302626"/>
<rect x="0.849854" y="73.5381" width="6.15385" height="6.15385" fill="#302626"/>
<rect x="0.849854" y="79.6924" width="6.15385" height="6.15385" fill="#302626"/>
<rect x="0.849854" y="85.8457" width="6.15385" height="6.15385" fill="#302626"/>
<rect x="0.899902" y="61.2695" width="6.15385" height="6.15385" fill="#302626"/>
<rect x="7" y="55" width="6.15385" height="6.15385" fill="#302626"/>
<rect x="19.3076" y="36.6201" width="6.15385" height="6.15385" fill="#302626"/>
<rect x="19.3076" y="42.7695" width="6.15385" height="6.15385" fill="#302626"/>
<rect x="25.4612" y="24.3096" width="6.15385" height="6.15385" fill="#302626"/>
<rect x="25.4612" y="30.4697" width="6.15385" height="6.15385" fill="#302626"/>
<rect x="31.6152" y="18.1504" width="6.15385" height="6.15385" fill="#302626"/>
<rect x="38" y="12" width="6.15385" height="6.15385" fill="#302626"/>
<rect x="38" y="6" width="6.15385" height="6.15385" fill="#302626"/>
<rect x="50.0769" y="12" width="6.15385" height="6.15385" fill="#302626"/>
<rect x="44" width="6.15385" height="6.15385" fill="#302626"/>
<rect x="50" y="6" width="6.15385" height="6.15385" fill="#302626"/>
<rect x="56.23" y="18.1543" width="6.15385" height="6.15385" fill="#302626"/>
<rect x="56.23" y="24.3076" width="6.15385" height="6.15385" fill="#302626"/>
<rect x="56.23" y="30.4619" width="6.15385" height="6.15385" fill="#302626"/>
<rect x="62.3901" y="42.7695" width="6.15385" height="6.15385" fill="#302626"/>
<rect x="68.54" y="48.9229" width="6.15385" height="6.15385" fill="#302626"/>
<rect x="13.1499" y="48.9229" width="6.15385" height="6.15385" fill="#302626"/>
<rect x="62.3799" y="36.6201" width="6.15385" height="6.15385" fill="#302626"/>
<path d="M74.6924 61.2305H80.8462V67.3843H74.6924V61.2305Z" fill="#302626"/>
<path d="M68.54 55.0801H74.6939V61.2339H68.54V55.0801Z" fill="#302626"/>
<rect x="74.6924" y="67.3848" width="6.15385" height="6.15385" fill="#302626"/>
<rect x="74.6924" y="73.5381" width="6.15385" height="6.15385" fill="#302626"/>
<path d="M74.6899 79.6924H80.8438V85.8462H74.6899V79.6924Z" fill="#302626"/>
<rect x="74.6924" y="85.8457" width="6.15385" height="6.15385" fill="#302626"/>
<rect x="74.6899" y="92" width="6.15385" height="6.15385" fill="#302626"/>
<rect x="68.5383" y="98.1543" width="6.15385" height="6.15385" fill="#302626"/>
<rect x="68.5383" y="104.3" width="6.15385" height="6.15385" fill="#302626"/>
<rect x="62.3845" y="110.46" width="6.15385" height="6.15385" fill="#302626"/>
<rect x="56.2305" y="116.61" width="6.15385" height="6.15385" fill="#302626"/>
<rect x="50.0769" y="116.62" width="6.15385" height="6.15385" fill="#302626"/>
<rect x="43.9231" y="116.62" width="6.15385" height="6.15385" fill="#302626"/>
</svg>
</g>
  <g id="frame5" class="flame"> <svg width="94" height="132" viewBox="0 0 94 132" fill="none" xmlns="http://www.w3.org/2000/svg">
<path d="M13.1503 62C10.6504 69.6348 6.57119 90.9879 8.50026 99.5C15.0002 119.364 17.5002 127.5 46.6503 127.5C75.6171 127.5 88.5002 95.5 88.5002 73.5C88.5002 65.3421 78.0002 65.5 78.0002 65.5C77.0002 58 71.6504 56.5 71.6504 46.5C71.6504 39.7927 61.5002 14.5 49.0002 7C49.0002 17.5 56.6363 33.9446 51.0003 45C45.3925 56 28.5673 44.1148 20.5003 49.5C15.0003 53.1716 13.1503 62 13.1503 62Z" fill="#F28C0E"/>
<rect x="19.0002" y="117.001" width="6.15385" height="6.15385" fill="#F28C0E"/>
<rect x="13.0002" y="111.001" width="6.15385" height="6.15385" fill="#F28C0E"/>
<rect x="7" y="98.4004" width="6.15385" height="6.15385" fill="#F28C0E"/>
<rect x="7" y="92.251" width="6.15385" height="6.15385" fill="#F28C0E"/>
<rect x="19.3999" y="49.2012" width="6.15385" height="6.15385" fill="#F28C0E"/>
<rect x="44" y="49.2012" width="6.15385" height="6.15385" fill="#F28C0E"/>
<rect x="50.1499" y="43.0508" width="6.15385" height="6.15385" fill="#F28C0E"/>
<rect x="50.1499" y="12.3008" width="6.15385" height="6.15385" fill="#F28C0E"/>
<rect x="56.3" y="18.4502" width="6.15385" height="6.15385" fill="#F28C0E"/>
<rect x="62.45" y="30.75" width="6.15385" height="6.15385" fill="#F28C0E"/>
<rect x="68.6001" y="55.3496" width="6.15385" height="6.15385" fill="#F28C0E"/>
<rect x="74.75" y="61.5" width="6.15385" height="6.15385" fill="#F28C0E"/>
<rect x="80.8999" y="67.6504" width="6.15385" height="6.15385" fill="#F28C0E"/>
<rect x="32" y="49.001" width="6.15385" height="6.15385" fill="#F28C0E"/>
<rect x="44" y="43.0508" width="6.15385" height="6.15385" fill="#F28C0E"/>
<path d="M36.5 101.5V108C36.5 108 37.5001 110 41.5 118C46 123.5 49.4998 127.5 54.5 127.5C61.1708 127.5 68.5 128.5 74 123.5C78.5 116 74.8571 106.5 74 102.5C73.0571 98.0999 74 95.5 69.5 91.5C67.8368 90.0216 65 92 62.5 90.5C60 89 56.3501 90 54.5 81.5C54.4998 97 52 85.5 50.5 94.5C48.3222 100.037 43.5 105.5 43.5 105.5L40.5 102.5L40 98.5L36.5 101.5Z" fill="#FFDD77"/>
<rect x="41" y="118" width="5.47009" height="5.47009" fill="#FFDD77"/>
<rect x="35.53" y="112.53" width="5.47009" height="5.47009" fill="#FFDD77"/>
<rect x="35.53" y="107.06" width="5.47009" height="5.47009" fill="#FFDD77"/>
<rect x="35.53" y="101.59" width="5.47009" height="5.47009" fill="#FFDD77"/>
<rect x="35.53" y="96.1201" width="5.47009" height="5.47009" fill="#FFDD77"/>
<rect x="41" y="101.59" width="5.47009" height="5.47009" fill="#FFDD77"/>
<rect x="46.47" y="96.1201" width="5.47009" height="5.47009" fill="#FFDD77"/>
<rect x="46.47" y="90.6504" width="5.47009" height="5.47009" fill="#FFDD77"/>
<rect x="51.9399" y="85.1797" width="5.47009" height="5.47009" fill="#FFDD77"/>
<rect x="57.4099" y="85.1797" width="5.47009" height="5.47009" fill="#FFDD77"/>
<rect x="62.8799" y="90.6504" width="5.47009" height="5.47009" fill="#FFDD77"/>
<rect x="68.3501" y="90.6504" width="5.47009" height="5.47009" fill="#FFDD77"/>
<rect x="68.3501" y="96.1201" width="5.47009" height="5.47009" fill="#FFDD77"/>
<rect x="74" y="102" width="5.47009" height="5.47009" fill="#FFDD77"/>
<rect x="51.9399" y="79.71" width="5.47009" height="5.47009" fill="#FFDD77"/>
<rect x="56.6116" y="112.538" width="9.23077" height="9.23077" fill="#FFFC47"/>
<rect x="47.6116" y="106.538" width="9.23077" height="9.23077" fill="#FFFC47"/>
<rect x="37.8499" y="123" width="6.15385" height="6.15385" fill="#302626"/>
<rect x="44" y="123" width="6.15385" height="6.15385" fill="#302626"/>
<rect x="31.7" y="123" width="6.15385" height="6.15385" fill="#302626"/>
<rect x="25.55" y="123" width="6.15385" height="6.15385" fill="#302626"/>
<rect x="7.09985" y="110.7" width="6.15385" height="6.15385" fill="#302626"/>
<rect x="13.25" y="116.85" width="6.15385" height="6.15385" fill="#302626"/>
<rect x="19.3999" y="123" width="6.15385" height="6.15385" fill="#302626"/>
<rect x="7.09985" y="104.55" width="6.15385" height="6.15385" fill="#302626"/>
<rect x="0.949951" y="98.4004" width="6.15385" height="6.15385" fill="#302626"/>
<rect x="7.09985" y="73.7998" width="6.15385" height="6.15385" fill="#302626"/>
<rect x="7.09985" y="79.9502" width="6.15385" height="6.15385" fill="#302626"/>
<rect x="7.09985" y="86.0996" width="6.15385" height="6.15385" fill="#302626"/>
<rect x="0.949951" y="92.25" width="6.15385" height="6.15385" fill="#302626"/>
<rect x="7.09985" y="67.6504" width="6.15385" height="6.15385" fill="#302626"/>
<rect x="7.09985" y="61.5" width="6.15385" height="6.15385" fill="#302626"/>
<rect x="25.55" y="43.0498" width="6.15385" height="6.15385" fill="#302626"/>
<rect x="19.3999" y="43.0498" width="6.15385" height="6.15385" fill="#302626"/>
<rect x="50.1499" y="30.75" width="6.15385" height="6.15385" fill="#302626"/>
<rect x="50.1499" y="36.9004" width="6.15385" height="6.15385" fill="#302626"/>
<rect x="44" y="43.0498" width="6.15385" height="6.15385" fill="#302626"/>
<rect x="37.8499" y="49.2002" width="6.15385" height="6.15385" fill="#302626"/>
<rect x="31.7" y="43.0498" width="6.15385" height="6.15385" fill="#302626"/>
<rect x="50.1499" y="24.5996" width="6.15385" height="6.15385" fill="#302626"/>
<rect x="50.1499" y="18.4502" width="6.15385" height="6.15385" fill="#302626"/>
<rect x="44" y="12.2998" width="6.15385" height="6.15385" fill="#302626"/>
<rect x="62.45" y="18.4502" width="6.15385" height="6.15385" fill="#302626"/>
<rect x="44" y="6.15039" width="6.15385" height="6.15385" fill="#302626"/>
<rect x="56.3" y="12.2998" width="6.15385" height="6.15385" fill="#302626"/>
<rect x="50.1499" y="6.15039" width="6.15385" height="6.15385" fill="#302626"/>
<rect x="44" width="6.15385" height="6.15385" fill="#302626"/>
<rect x="62.45" y="24.5996" width="6.15385" height="6.15385" fill="#302626"/>
<rect x="68.5999" y="30.75" width="6.15385" height="6.15385" fill="#302626"/>
<rect x="68.5999" y="36.9004" width="6.15385" height="6.15385" fill="#302626"/>
<rect x="68.5999" y="49.2002" width="6.15385" height="6.15385" fill="#302626"/>
<rect x="74.75" y="55.3496" width="6.15385" height="6.15385" fill="#302626"/>
<rect x="13.25" y="55.3496" width="6.15385" height="6.15385" fill="#302626"/>
<rect x="13.25" y="49.2002" width="6.15385" height="6.15385" fill="#302626"/>
<rect x="68.5999" y="43.0498" width="6.15385" height="6.15385" fill="#302626"/>
<path d="M87.05 67.6504H93.2039V73.8042H87.05V67.6504Z" fill="#302626"/>
<path d="M80.8999 61.5H87.0537V67.6538H80.8999V61.5Z" fill="#302626"/>
<rect x="87.05" y="73.7998" width="6.15385" height="6.15385" fill="#302626"/>
<rect x="87.05" y="79.9502" width="6.15385" height="6.15385" fill="#302626"/>
<path d="M80.8999 86.0996H87.0537V92.2535H80.8999V86.0996Z" fill="#302626"/>
<rect x="80.8999" y="92.25" width="6.15385" height="6.15385" fill="#302626"/>
<rect x="80.8999" y="98.4004" width="6.15385" height="6.15385" fill="#302626"/>
<rect x="74.75" y="104.55" width="6.15385" height="6.15385" fill="#302626"/>
<rect x="74.75" y="110.7" width="6.15385" height="6.15385" fill="#302626"/>
<rect x="74.75" y="116.85" width="6.15385" height="6.15385" fill="#302626"/>
<rect x="68.5999" y="123" width="6.15385" height="6.15385" fill="#302626"/>
<rect x="62.45" y="123" width="6.15385" height="6.15385" fill="#302626"/>
<rect x="56.3" y="123" width="6.15385" height="6.15385" fill="#302626"/>
<rect x="50.1499" y="123" width="6.15385" height="6.15385" fill="#302626"/>
</svg>
 </g>
  <g id="frame6" class="flame"> <svg width="93" height="125" viewBox="0 0 93 125" fill="none" xmlns="http://www.w3.org/2000/svg">
<path d="M21.9999 57.5C15 57.5 5.62117 84.9879 7.55024 93.5C14.0502 113.364 16.5502 121.5 45.7003 121.5C74.667 121.5 87 101.5 87 79.5C87 71.3421 79.5 51 79.5 51C78.5 43.5 72.5 46.5 72.5 36.5C72.5 29.7927 67 10.5 54.5 3C54.5 13.5 51.0931 27.4639 48.5 31C43 38.5 33.067 37.6148 25 43C19.5 46.6716 21.9999 57.5 21.9999 57.5Z" fill="#F28C0E"/>
<rect x="18.0503" y="111" width="6.15385" height="6.15385" fill="#F28C0E"/>
<rect x="12.0999" y="104.699" width="6.15385" height="6.15385" fill="#F28C0E"/>
<rect x="6.1001" y="92.4805" width="6.15385" height="6.15385" fill="#F28C0E"/>
<rect x="6.1001" y="86.29" width="6.15385" height="6.15385" fill="#F28C0E"/>
<rect x="12" y="61" width="6.15385" height="6.15385" fill="#F28C0E"/>
<rect x="12" y="67" width="6.15385" height="6.15385" fill="#F28C0E"/>
<rect x="18.23" y="55.4795" width="6.15385" height="6.15385" fill="#F28C0E"/>
<rect x="36.8999" y="37.0498" width="6.15385" height="6.15385" fill="#F28C0E"/>
<rect x="43.05" y="30.8994" width="6.15385" height="6.15385" fill="#F28C0E"/>
<rect x="55.3101" y="6.2998" width="6.15385" height="6.15385" fill="#F28C0E"/>
<rect x="67.6499" y="37.0498" width="6.15385" height="6.15385" fill="#F28C0E"/>
<rect x="73.75" y="49.3496" width="6.15385" height="6.15385" fill="#F28C0E"/>
<rect x="79.95" y="67.7998" width="6.15385" height="6.15385" fill="#F28C0E"/>
<rect x="79.95" y="86.25" width="6.15385" height="6.15385" fill="#F28C0E"/>
<rect x="73.8" y="104.7" width="6.15385" height="6.15385" fill="#F28C0E"/>
<path d="M34.5 95.5L38 97C38 97 38 107.5 39.5 111C44 116.5 46.4998 119 51.5 119C58.1708 119 62.5 121.5 68 116.5C74.5 110.591 78.8571 100.5 78 96.5C77.0571 92.0999 74 90.5 71.5 90C68.6411 89.4282 58 92 55.5 90.5C53 89 53.5 83 56 75C51.5 85 50 83.5 45.5 87.5C42.05 89 43.5 88 43.5 88L34 92L34.5 95.5Z" fill="#FFDD77"/>
<rect x="40.05" y="112" width="5.47009" height="5.47009" fill="#FFDD77"/>
<rect x="34.5801" y="106.53" width="5.47009" height="5.47009" fill="#FFDD77"/>
<rect x="34.5801" y="101.06" width="5.47009" height="5.47009" fill="#FFDD77"/>
<rect x="34.5801" y="95.5898" width="5.47009" height="5.47009" fill="#FFDD77"/>
<rect x="29.1101" y="90.1201" width="5.47009" height="5.47009" fill="#FFDD77"/>
<rect x="34.5801" y="87" width="5.47009" height="5.47009" fill="#FFDD77"/>
<rect x="40.05" y="87" width="5.47009" height="5.47009" fill="#FFDD77"/>
<rect x="45.52" y="82" width="5.47009" height="5.47009" fill="#FFDD77"/>
<rect x="50.99" y="77" width="5.47009" height="5.47009" fill="#FFDD77"/>
<rect x="50.99" y="82" width="5.47009" height="5.47009" fill="#FFDD77"/>
<rect x="50.99" y="87" width="5.47009" height="5.47009" fill="#FFDD77"/>
<rect x="56.46" y="90" width="5.47009" height="5.47009" fill="#FFDD77"/>
<rect x="61.9299" y="90" width="5.47009" height="5.47009" fill="#FFDD77"/>
<rect x="67.3999" y="85" width="5.47009" height="5.47009" fill="#FFDD77"/>
<rect x="72.8701" y="90.1201" width="5.47009" height="5.47009" fill="#FFDD77"/>
<rect x="72.8701" y="95.5898" width="5.47009" height="5.47009" fill="#FFDD77"/>
<rect x="72.8701" y="101.06" width="5.47009" height="5.47009" fill="#FFDD77"/>
<rect x="72.8701" y="106.53" width="5.47009" height="5.47009" fill="#FFDD77"/>
<rect x="50.99" y="72" width="5.47009" height="5.47009" fill="#FFDD77"/>
<rect x="56" y="103" width="9.23077" height="9.23077" fill="#FFFC47"/>
<rect x="47" y="103" width="9.23077" height="9.23077" fill="#FFFC47"/>
<rect x="51" y="94" width="9.23077" height="9.23077" fill="#FFFC47"/>
<rect x="36.8999" y="117" width="6.15385" height="6.15385" fill="#302626"/>
<rect x="43.05" y="117" width="6.15385" height="6.15385" fill="#302626"/>
<rect x="30.75" y="117" width="6.15385" height="6.15385" fill="#302626"/>
<rect x="24.6001" y="117" width="6.15385" height="6.15385" fill="#302626"/>
<rect x="6.1499" y="104.7" width="6.15385" height="6.15385" fill="#302626"/>
<rect x="12.3" y="110.85" width="6.15385" height="6.15385" fill="#302626"/>
<rect x="18.45" y="117" width="6.15385" height="6.15385" fill="#302626"/>
<rect x="6.1499" y="98.5498" width="6.15385" height="6.15385" fill="#302626"/>
<rect y="92.4004" width="6.15385" height="6.15385" fill="#302626"/>
<rect x="6.1499" y="67.7998" width="6.15385" height="6.15385" fill="#302626"/>
<rect x="6.1499" y="73.9502" width="6.15385" height="6.15385" fill="#302626"/>
<rect x="6.1499" y="80.0996" width="6.15385" height="6.15385" fill="#302626"/>
<rect y="86.25" width="6.15385" height="6.15385" fill="#302626"/>
<rect x="6.1499" y="61.6504" width="6.15385" height="6.15385" fill="#302626"/>
<rect x="12.1499" y="55.5" width="6.15385" height="6.15385" fill="#302626"/>
<rect x="24.6001" y="37.0498" width="6.15385" height="6.15385" fill="#302626"/>
<rect x="49.05" y="24.75" width="6.15385" height="6.15385" fill="#302626"/>
<rect x="43.05" y="24.75" width="6.15385" height="6.15385" fill="#302626"/>
<rect x="36.8999" y="30.9004" width="6.15385" height="6.15385" fill="#302626"/>
<rect x="30.75" y="37.0498" width="6.15385" height="6.15385" fill="#302626"/>
<rect x="49.05" y="18.5996" width="6.15385" height="6.15385" fill="#302626"/>
<rect x="49.05" y="12.4502" width="6.15385" height="6.15385" fill="#302626"/>
<rect x="49.05" y="6.2998" width="6.15385" height="6.15385" fill="#302626"/>
<rect x="61.5" y="12.4502" width="6.15385" height="6.15385" fill="#302626"/>
<rect x="49.05" y="0.150391" width="6.15385" height="6.15385" fill="#302626"/>
<rect x="61.5" y="6.2998" width="6.15385" height="6.15385" fill="#302626"/>
<rect x="55.2" y="0.150391" width="6.15385" height="6.15385" fill="#302626"/>
<rect x="67.6499" y="18.5996" width="6.15385" height="6.15385" fill="#302626"/>
<rect x="67.6499" y="24.75" width="6.15385" height="6.15385" fill="#302626"/>
<rect x="67.6499" y="30.9004" width="6.15385" height="6.15385" fill="#302626"/>
<rect x="73.6499" y="43.2002" width="6.15385" height="6.15385" fill="#302626"/>
<rect x="79.95" y="49.3496" width="6.15385" height="6.15385" fill="#302626"/>
<rect x="18.45" y="49.3496" width="6.15385" height="6.15385" fill="#302626"/>
<rect x="18.45" y="43.2002" width="6.15385" height="6.15385" fill="#302626"/>
<rect x="73.6499" y="37.0498" width="6.15385" height="6.15385" fill="#302626"/>
<path d="M79.95 61.6504H86.1038V67.8042H79.95V61.6504Z" fill="#302626"/>
<path d="M79.95 55.5H86.1038V61.6538H79.95V55.5Z" fill="#302626"/>
<rect x="86.1001" y="67.7998" width="6.15385" height="6.15385" fill="#302626"/>
<rect x="86.1001" y="73.9502" width="6.15385" height="6.15385" fill="#302626"/>
<path d="M86.1001 80.0996H92.2539V86.2535H86.1001V80.0996Z" fill="#302626"/>
<rect x="86.1001" y="86.25" width="6.15385" height="6.15385" fill="#302626"/>
<rect x="79.95" y="92.4004" width="6.15385" height="6.15385" fill="#302626"/>
<rect x="79.95" y="98.5498" width="6.15385" height="6.15385" fill="#302626"/>
<rect x="79.95" y="104.7" width="6.15385" height="6.15385" fill="#302626"/>
<rect x="73.8" y="110.85" width="6.15385" height="6.15385" fill="#302626"/>
<rect x="67.6499" y="110.85" width="6.15385" height="6.15385" fill="#302626"/>
<rect x="61.5" y="117" width="6.15385" height="6.15385" fill="#302626"/>
<rect x="55.3501" y="117" width="6.15385" height="6.15385" fill="#302626"/>
<rect x="49.2" y="117" width="6.15385" height="6.15385" fill="#302626"/>
</svg>
 </g>
 <g id="frame7" class="flame"> <svg width="87" height="117" viewBox="0 0 87 117" fill="none" xmlns="http://www.w3.org/2000/svg">
<path d="M19.0001 50.5C12.0002 50.5 7.07116 75.9879 9.00023 84.5C15.5002 104.364 25.5001 115.35 39.7004 115.35C57.6109 115.35 75.0002 95 83.0002 81C77.5 74 78 46 60.5002 43.5C60.5002 29 56.0001 16.5008 56.0001 16.5008C55.0001 9.00083 63.5001 14.5 63.5001 11.5008C63.5001 4.7935 69.0001 -1.4994 48.0001 4.00002C48.0001 14.5 49.5001 23 45.0001 23C35.6995 23 33.5671 32.1148 25.5001 37.5C20.0001 41.1716 19.0001 50.5 19.0001 50.5Z" fill="#F28C0E"/>
<rect x="61.6501" y="98.5498" width="6.15385" height="6.15385" fill="#F28C0E"/>
<rect x="67.8003" y="92.3994" width="6.15385" height="6.15385" fill="#F28C0E"/>
<rect x="67.7502" y="49.3496" width="6.15385" height="6.15385" fill="#F28C0E"/>
<rect x="55.3503" y="43.2002" width="6.15385" height="6.15385" fill="#F28C0E"/>
<rect x="55.3503" y="24.75" width="6.15385" height="6.15385" fill="#F28C0E"/>
<rect x="55.3503" y="18.6006" width="6.15385" height="6.15385" fill="#F28C0E"/>
<rect x="55.3503" y="18.6006" width="6.15385" height="6.15385" fill="#F28C0E"/>
<rect x="37.0002" y="24.75" width="6.15385" height="6.15385" fill="#F28C0E"/>
<rect x="37.0503" y="24.75" width="6.15385" height="6.15385" fill="#F28C0E"/>
<rect x="30.9001" y="30.8994" width="6.15385" height="6.15385" fill="#F28C0E"/>
<rect x="30.9502" y="30.8994" width="6.15385" height="6.15385" fill="#F28C0E"/>
<rect x="24.7502" y="37.0498" width="6.15385" height="6.15385" fill="#F28C0E"/>
<rect x="24.8003" y="37.0498" width="6.15385" height="6.15385" fill="#F28C0E"/>
<rect x="18.5002" y="49.3496" width="6.15385" height="6.15385" fill="#F28C0E"/>
<rect x="12.3604" y="55.5" width="6.15385" height="6.15385" fill="#F28C0E"/>
<rect x="6.15015" y="80.0996" width="6.15385" height="6.15385" fill="#F28C0E"/>
<rect x="6.15015" y="86.2305" width="6.15385" height="6.15385" fill="#F28C0E"/>
<rect x="12" y="93" width="6.15385" height="6.15385" fill="#F28C0E"/>
<rect x="12" y="98.5498" width="6.15385" height="6.15385" fill="#F28C0E"/>
<rect x="18" y="98.5498" width="6.15385" height="6.15385" fill="#F28C0E"/>
<rect x="55.3503" y="6.2998" width="6.15385" height="6.15385" fill="#F28C0E"/>
<rect x="55.3503" y="6.2998" width="6.15385" height="6.15385" fill="#F28C0E"/>
<path d="M28.5 89.3496L32 90.8496C32 90.8496 32 101.35 33.5 104.85C38 110.35 38.4998 112 43.5 112C50.1708 112 52 114 57.5 109C64 103.091 66.5 110.85 66.5 106C66.5 101.5 66.9 90 66.9 84.5C66.9 82 52 85.8496 49.5 84.3496C47 82.8496 47.5 76.8496 50 68.8496C45.5 78.8496 44 77.3496 39.5 81.3496C36.05 82.8496 36 85.8496 36 85.8496H28L28.5 89.3496Z" fill="#FFDD77"/>
<rect x="34.05" y="105.85" width="5.47009" height="5.47009" fill="#FFDD77"/>
<rect x="28.5801" y="100.38" width="5.47009" height="5.47009" fill="#FFDD77"/>
<rect x="28.5801" y="94.9092" width="5.47009" height="5.47009" fill="#FFDD77"/>
<rect x="28.5801" y="89.4395" width="5.47009" height="5.47009" fill="#FFDD77"/>
<rect x="23.5" y="84" width="5.47009" height="5.47009" fill="#FFDD77"/>
<rect x="23.5" y="89" width="5.47009" height="5.47009" fill="#FFDD77"/>
<rect x="29" y="84" width="5.47009" height="5.47009" fill="#FFDD77"/>
<rect x="34" y="84" width="5.47009" height="5.47009" fill="#FFDD77"/>
<rect x="34" y="79" width="5.47009" height="5.47009" fill="#FFDD77"/>
<rect x="39" y="79" width="5.47009" height="5.47009" fill="#FFDD77"/>
<rect x="40" y="74" width="5.47009" height="5.47009" fill="#FFDD77"/>
<rect x="44.99" y="70.8496" width="5.47009" height="5.47009" fill="#FFDD77"/>
<rect x="44.99" y="75.8496" width="5.47009" height="5.47009" fill="#FFDD77"/>
<rect x="44.99" y="80.8496" width="5.47009" height="5.47009" fill="#FFDD77"/>
<rect x="50.46" y="83.8496" width="5.47009" height="5.47009" fill="#FFDD77"/>
<rect x="55.9299" y="83.8496" width="5.47009" height="5.47009" fill="#FFDD77"/>
<rect x="61.3999" y="78.8496" width="5.47009" height="5.47009" fill="#FFDD77"/>
<rect x="56" y="78.8496" width="5.47009" height="5.47009" fill="#FFDD77"/>
<rect x="44.99" y="65.8496" width="5.47009" height="5.47009" fill="#FFDD77"/>
<rect x="50" y="96.8496" width="9.23077" height="9.23077" fill="#FFFC47"/>
<rect x="41" y="92" width="9.23077" height="9.23077" fill="#FFFC47"/>
<rect x="45" y="87.8496" width="9.23077" height="9.23077" fill="#FFFC47"/>
<rect x="30.8999" y="110.85" width="6.15385" height="6.15385" fill="#302626"/>
<rect x="37.05" y="110.85" width="6.15385" height="6.15385" fill="#302626"/>
<rect x="24.75" y="110.85" width="6.15385" height="6.15385" fill="#302626"/>
<rect x="18.6001" y="104.7" width="6.15385" height="6.15385" fill="#302626"/>
<rect x="6.30005" y="98.5498" width="6.15385" height="6.15385" fill="#302626"/>
<rect x="12.45" y="104.7" width="6.15385" height="6.15385" fill="#302626"/>
<rect x="6.30005" y="92.3994" width="6.15385" height="6.15385" fill="#302626"/>
<rect y="86.2998" width="6.15385" height="6.15385" fill="#302626"/>
<rect x="6.30005" y="61.6494" width="6.15385" height="6.15385" fill="#302626"/>
<rect x="6.30005" y="67.7998" width="6.15385" height="6.15385" fill="#302626"/>
<rect x="6.30005" y="73.9492" width="6.15385" height="6.15385" fill="#302626"/>
<rect y="80.1504" width="6.15385" height="6.15385" fill="#302626"/>
<rect x="6.30005" y="55.5" width="6.15385" height="6.15385" fill="#302626"/>
<rect x="18.6001" y="37.0498" width="6.15385" height="6.15385" fill="#302626"/>
<rect x="43.05" y="18.5996" width="6.15385" height="6.15385" fill="#302626"/>
<rect x="37.05" y="18.5996" width="6.15385" height="6.15385" fill="#302626"/>
<rect x="30.8999" y="24.75" width="6.15385" height="6.15385" fill="#302626"/>
<rect x="24.75" y="30.8994" width="6.15385" height="6.15385" fill="#302626"/>
<rect x="43.05" y="12.4492" width="6.15385" height="6.15385" fill="#302626"/>
<rect x="43.05" y="6.2998" width="6.15385" height="6.15385" fill="#302626"/>
<rect x="43.05" y="0.149414" width="6.15385" height="6.15385" fill="#302626"/>
<rect x="61.3999" y="6.2998" width="6.15385" height="6.15385" fill="#302626"/>
<rect x="49.2" y="0.150391" width="6.15385" height="6.15385" fill="#302626"/>
<rect x="61.3999" y="0.149414" width="6.15385" height="6.15385" fill="#302626"/>
<path d="M55.3501 0.150391H61.504V6.30424H55.3501V0.150391Z" fill="#302626"/>
<rect x="55.3501" y="12.4492" width="6.15385" height="6.15385" fill="#302626"/>
<rect x="61.3999" y="18.5996" width="6.15385" height="6.15385" fill="#302626"/>
<rect x="61.3999" y="24.75" width="6.15385" height="6.15385" fill="#302626"/>
<rect x="55.3501" y="37.0498" width="6.15385" height="6.15385" fill="#302626"/>
<rect x="67.55" y="43.1992" width="6.15385" height="6.15385" fill="#302626"/>
<rect x="61.3999" y="43.1992" width="6.15385" height="6.15385" fill="#302626"/>
<rect x="12.3601" y="49.3496" width="6.15385" height="6.15385" fill="#302626"/>
<rect x="18.6001" y="43.2002" width="6.15385" height="6.15385" fill="#302626"/>
<rect x="55.3501" y="30.8994" width="6.15385" height="6.15385" fill="#302626"/>
<path d="M73.8999 55.5H80.0537V61.6538H73.8999V55.5Z" fill="#302626"/>
<path d="M73.8999 49.3496H80.0537V55.5035H73.8999V49.3496Z" fill="#302626"/>
<rect x="73.8999" y="61.6494" width="6.15385" height="6.15385" fill="#302626"/>
<rect x="73.8999" y="67.7998" width="6.15385" height="6.15385" fill="#302626"/>
<path d="M80.1001 73.9492H86.2539V80.1031H80.1001V73.9492Z" fill="#302626"/>
<rect x="80.1001" y="80.0996" width="6.15385" height="6.15385" fill="#302626"/>
<rect x="73.95" y="86.25" width="6.15385" height="6.15385" fill="#302626"/>
<rect x="73.95" y="92.3994" width="6.15385" height="6.15385" fill="#302626"/>
<rect x="67.8" y="98.5498" width="6.15385" height="6.15385" fill="#302626"/>
<rect x="61.6499" y="104.699" width="6.15385" height="6.15385" fill="#302626"/>
<rect x="55.5" y="104.7" width="6.15385" height="6.15385" fill="#302626"/>
<rect x="49.3501" y="110.85" width="6.15385" height="6.15385" fill="#302626"/>
<rect x="43.2" y="110.85" width="6.15385" height="6.15385" fill="#302626"/>
</svg>
 </g>
</svg>
