<svg width="300" height="139" viewBox="0 0 300 139" fill="none" xmlns="http://www.w3.org/2000/svg">
<path fill-rule="evenodd" clip-rule="evenodd" d="M284.234 9.74365H87.099V29.7437H81.7165H15.7806C15.7806 48.0492 42.8359 63.809 81.7165 70.888C91.7267 72.7105 102.521 73.9575 113.839 74.5246C127.502 79.0788 136.385 86.4634 136.385 94.7986C136.385 97.8919 135.161 100.854 132.924 103.59H81.7165V119.852V128.718H239.828V119.411V103.59H203.189C201.208 100.998 200.132 98.2111 200.132 95.3093C200.132 83.8521 216.914 74.1913 239.828 71.2076V29.7437H284.234V9.74365Z" fill="#9381A9"/>
<rect x="90.463" y="7.69238" width="10.0922" height="7.69231" fill="#9381A9"/>
<rect x="100.555" y="7.69238" width="10.0922" height="7.69231" fill="#9381A9"/>
<rect x="110.648" y="7.69238" width="10.0922" height="7.69231" fill="#9381A9"/>
<rect x="120.74" y="7.69238" width="10.0922" height="7.69231" fill="#9381A9"/>
<rect x="130.832" y="7.69238" width="10.0922" height="7.69231" fill="#9381A9"/>
<rect x="140.924" y="7.69238" width="10.0922" height="7.69231" fill="#9381A9"/>
<rect x="151.016" y="7.69238" width="10.0922" height="7.69231" fill="#9381A9"/>
<rect x="161.109" y="7.69238" width="10.0922" height="7.69231" fill="#9381A9"/>
<rect x="171.201" y="7.69238" width="10.0922" height="7.69231" fill="#9381A9"/>
<rect x="181.293" y="7.69238" width="10.0922" height="7.69231" fill="#9381A9"/>
<rect x="191.385" y="7.69238" width="10.0922" height="7.69231" fill="#9381A9"/>
<rect x="201.478" y="7.69238" width="10.0922" height="7.69231" fill="#9381A9"/>
<rect x="211.57" y="7.69238" width="10.0922" height="7.69231" fill="#9381A9"/>
<rect x="221.662" y="7.69238" width="10.0922" height="7.69231" fill="#9381A9"/>
<rect x="231.754" y="7.69238" width="10.0922" height="7.69231" fill="#9381A9"/>
<rect x="241.847" y="7.69238" width="10.0922" height="7.69231" fill="#9381A9"/>
<rect x="251.939" y="7.69238" width="10.0922" height="7.69231" fill="#9381A9"/>
<rect x="262.031" y="7.69238" width="10.0922" height="7.69231" fill="#9381A9"/>
<rect x="272.123" y="7.69238" width="10.0922" height="7.69231" fill="#9381A9"/>
<rect x="80.3708" y="7.69238" width="10.0922" height="7.69231" fill="#9381A9"/>
<rect x="282.215" y="7.69238" width="10.0922" height="7.69231" fill="#9381A9"/>
<rect x="80.3708" y="15.3848" width="10.0922" height="7.69231" fill="#9381A9"/>
<rect x="80.3708" y="23.0771" width="10.0922" height="7.69231" fill="#9381A9"/>
<rect x="19.8174" y="23.0771" width="10.0922" height="7.69231" fill="#9381A9"/>
<rect x="29.9097" y="23.0771" width="10.0922" height="7.69231" fill="#9381A9"/>
<rect x="40.002" y="23.0771" width="10.0922" height="7.69231" fill="#9381A9"/>
<rect x="50.0942" y="23.0771" width="10.0922" height="7.69231" fill="#9381A9"/>
<rect x="60.1863" y="23.0771" width="10.0922" height="7.69231" fill="#9381A9"/>
<rect x="70.2786" y="23.0771" width="10.0922" height="7.69231" fill="#9381A9"/>
<rect x="9.72522" y="23.0771" width="10.0922" height="7.69231" fill="#9381A9"/>
<rect x="9.72522" y="30.769" width="10.0922" height="7.69231" fill="#9381A9"/>
<rect x="15.7806" y="38.4614" width="14.1291" height="7.69231" fill="#9381A9"/>
<rect x="19.8174" y="46.1538" width="10.0922" height="7.69231" fill="#9381A9"/>
<rect x="29.9097" y="51.2822" width="10.0922" height="10.2564" fill="#9381A9"/>
<rect x="50.0942" y="61.5386" width="10.0922" height="7.69231" fill="#9381A9"/>
<rect x="40.002" y="53.8462" width="10.0922" height="7.69231" fill="#9381A9"/>
<rect x="60.1863" y="61.5386" width="10.0922" height="7.69231" fill="#9381A9"/>
<rect x="70.2786" y="65.1284" width="10.0922" height="11.7949" fill="#9381A9"/>
<rect x="80.3708" y="69.231" width="10.0922" height="7.69231" fill="#9381A9"/>
<rect x="90.463" y="69.231" width="10.0922" height="7.69231" fill="#9381A9"/>
<rect x="100.555" y="69.231" width="10.0922" height="7.69231" fill="#9381A9"/>
<rect x="110.648" y="69.231" width="10.0922" height="7.69231" fill="#9381A9"/>
<rect x="120.74" y="76.9229" width="12.7835" height="7.69231" fill="#9381A9"/>
<rect x="130.832" y="84.6152" width="10.0922" height="7.69231" fill="#9381A9"/>
<rect x="130.832" y="92.3076" width="10.0922" height="7.69231" fill="#9381A9"/>
<rect x="130.832" y="100" width="10.0922" height="7.69231" fill="#9381A9"/>
<rect x="80.3708" y="100" width="10.0922" height="7.69231" fill="#9381A9"/>
<rect x="90.463" y="100" width="10.0922" height="7.69231" fill="#9381A9"/>
<rect x="100.555" y="100" width="10.0922" height="7.69231" fill="#9381A9"/>
<rect x="110.648" y="100" width="10.0922" height="7.69231" fill="#9381A9"/>
<rect x="120.74" y="100" width="10.0922" height="7.69231" fill="#9381A9"/>
<rect x="80.3708" y="107.692" width="10.0922" height="7.69231" fill="#9381A9"/>
<rect x="80.3708" y="115.385" width="10.0922" height="7.69231" fill="#9381A9"/>
<rect x="80.3708" y="123.077" width="10.0922" height="7.69231" fill="#9381A9"/>
<rect x="90.463" y="123.077" width="10.0922" height="7.69231" fill="#9381A9"/>
<rect x="100.555" y="123.077" width="10.0922" height="7.69231" fill="#9381A9"/>
<rect x="110.648" y="123.077" width="10.0922" height="7.69231" fill="#9381A9"/>
<rect x="120.74" y="123.077" width="10.0922" height="7.69231" fill="#9381A9"/>
<rect x="130.832" y="123.077" width="10.0922" height="7.69231" fill="#9381A9"/>
<rect x="140.924" y="123.077" width="10.0922" height="7.69231" fill="#9381A9"/>
<rect x="151.016" y="123.077" width="10.0922" height="7.69231" fill="#9381A9"/>
<rect x="161.109" y="123.077" width="10.0922" height="7.69231" fill="#9381A9"/>
<rect x="171.201" y="123.077" width="10.0922" height="7.69231" fill="#9381A9"/>
<rect x="181.293" y="123.077" width="10.0922" height="7.69231" fill="#9381A9"/>
<rect x="191.385" y="123.077" width="10.0922" height="7.69231" fill="#9381A9"/>
<rect x="201.478" y="123.077" width="10.0922" height="7.69231" fill="#9381A9"/>
<rect x="211.57" y="123.077" width="10.0922" height="7.69231" fill="#9381A9"/>
<rect x="221.662" y="123.077" width="10.0922" height="7.69231" fill="#9381A9"/>
<rect x="231.754" y="123.077" width="10.0922" height="7.69231" fill="#9381A9"/>
<rect x="231.754" y="115.385" width="10.0922" height="7.69231" fill="#9381A9"/>
<rect x="231.754" y="100" width="10.0922" height="7.69231" fill="#9381A9"/>
<rect x="231.754" y="107.692" width="10.0922" height="7.69231" fill="#9381A9"/>
<rect x="201.478" y="100" width="10.0922" height="7.69231" fill="#9381A9"/>
<rect x="211.57" y="100" width="10.0922" height="7.69231" fill="#9381A9"/>
<rect x="221.662" y="100" width="10.0922" height="7.69231" fill="#9381A9"/>
<rect x="191.385" y="92.3076" width="10.0922" height="7.69231" fill="#9381A9"/>
<rect x="221.662" y="69.231" width="10.0922" height="7.69231" fill="#9381A9"/>
<rect x="201.478" y="76.9229" width="10.0922" height="7.69231" fill="#9381A9"/>
<rect x="195.422" y="84.6152" width="16.1476" height="7.69231" fill="#9381A9"/>
<rect x="211.57" y="73.3335" width="10.0922" height="11.2821" fill="#9381A9"/>
<rect x="231.754" y="69.231" width="10.0922" height="7.69231" fill="#9381A9"/>
<rect x="231.754" y="30.769" width="10.0922" height="7.69231" fill="#9381A9"/>
<rect x="231.754" y="38.4614" width="10.0922" height="7.69231" fill="#9381A9"/>
<rect x="231.754" y="46.1538" width="10.0922" height="7.69231" fill="#9381A9"/>
<rect x="231.754" y="53.8462" width="10.0922" height="7.69231" fill="#9381A9"/>
<rect x="231.754" y="61.5386" width="10.0922" height="7.69231" fill="#9381A9"/>
<rect x="231.754" y="23.0771" width="10.0922" height="7.69231" fill="#9381A9"/>
<rect x="241.847" y="23.0771" width="10.0922" height="7.69231" fill="#9381A9"/>
<rect x="251.939" y="23.0771" width="10.0922" height="7.69231" fill="#9381A9"/>
<rect x="262.031" y="23.0771" width="10.0922" height="7.69231" fill="#9381A9"/>
<rect x="272.123" y="23.0771" width="10.0922" height="7.69231" fill="#9381A9"/>
<rect x="282.215" y="23.0771" width="10.0922" height="7.69231" fill="#9381A9"/>
<rect x="282.215" y="15.3848" width="10.0922" height="7.69231" fill="#9381A9"/>
<path d="M71.7224 32.9915C65.6162 40.5128 30.5905 33.8462 13.8409 29.5727V23.9317H56.0329C63.8069 23.8177 77.8285 25.4701 71.7224 32.9915Z" fill="#C6B6D9"/>
<rect x="14.053" y="28.2051" width="6.36059" height="5.1282" fill="#C6B6D9"/>
<rect x="64.9377" y="33.3335" width="6.36059" height="5.1282" fill="#C6B6D9"/>
<rect x="45.856" y="33.3335" width="6.36059" height="5.1282" fill="#C6B6D9"/>
<rect x="20.4135" y="28.2051" width="6.36059" height="5.1282" fill="#C6B6D9"/>
<rect x="26.7742" y="28.2051" width="6.36059" height="5.1282" fill="#C6B6D9"/>
<rect x="33.1348" y="33.3335" width="6.36059" height="5.1282" fill="#C6B6D9"/>
<rect x="39.4953" y="33.3335" width="6.36059" height="5.1282" fill="#C6B6D9"/>
<rect x="52.2166" y="33.3335" width="6.36059" height="5.1282" fill="#C6B6D9"/>
<rect x="58.5771" y="33.3335" width="6.36059" height="5.1282" fill="#C6B6D9"/>
<rect x="7.69238" y="28.2051" width="6.36059" height="5.1282" fill="#C6B6D9"/>
<rect x="71.2983" y="28.2051" width="6.36059" height="5.1282" fill="#C6B6D9"/>
<rect x="64.9377" y="23.0771" width="6.36059" height="5.1282" fill="#C6B6D9"/>
<rect x="58.5771" y="23.0771" width="6.36059" height="5.1282" fill="#C6B6D9"/>
<rect x="52.2166" y="23.0771" width="6.36059" height="5.1282" fill="#C6B6D9"/>
<rect x="14.053" y="23.0771" width="6.36059" height="5.1282" fill="#C6B6D9"/>
<rect x="20.4135" y="23.0771" width="6.36059" height="5.1282" fill="#C6B6D9"/>
<rect x="26.7742" y="23.0771" width="6.36059" height="5.1282" fill="#C6B6D9"/>
<rect x="33.1348" y="23.0771" width="6.36059" height="5.1282" fill="#C6B6D9"/>
<rect x="39.4953" y="23.0771" width="6.36059" height="5.1282" fill="#C6B6D9"/>
<rect x="45.856" y="23.0771" width="6.36059" height="5.1282" fill="#C6B6D9"/>
<rect x="7.69232" y="23.0771" width="6.36059" height="5.1282" fill="#C6B6D9"/>
<path d="M289.03 23.4712H85.5556L101.44 26.4294L170.021 30.0919L197 26.4294L283.735 28.1198L289.03 23.4712Z" fill="#C6B6D9"/>
<rect x="88.0769" y="20.5127" width="7.5641" height="4.22601" fill="#C6B6D9"/>
<rect x="95.641" y="20.5127" width="7.5641" height="4.22601" fill="#C6B6D9"/>
<rect x="103.205" y="20.5127" width="7.5641" height="4.22601" fill="#C6B6D9"/>
<rect x="110.769" y="20.5127" width="7.5641" height="4.22601" fill="#C6B6D9"/>
<rect x="118.333" y="20.5127" width="7.5641" height="4.22601" fill="#C6B6D9"/>
<rect x="125.897" y="20.5127" width="7.5641" height="4.22601" fill="#C6B6D9"/>
<rect x="133.462" y="20.5127" width="7.5641" height="4.22601" fill="#C6B6D9"/>
<rect x="141.026" y="20.5127" width="7.5641" height="4.22601" fill="#C6B6D9"/>
<rect x="148.59" y="20.5127" width="7.5641" height="4.22601" fill="#C6B6D9"/>
<rect x="156.154" y="20.5127" width="7.5641" height="4.22601" fill="#C6B6D9"/>
<rect x="163.718" y="20.5127" width="7.5641" height="4.22601" fill="#C6B6D9"/>
<rect x="171.282" y="20.5127" width="7.5641" height="4.22601" fill="#C6B6D9"/>
<rect x="178.846" y="20.5127" width="7.5641" height="4.22601" fill="#C6B6D9"/>
<rect x="186.41" y="20.5127" width="7.5641" height="4.22601" fill="#C6B6D9"/>
<rect x="193.974" y="20.5127" width="7.5641" height="4.22601" fill="#C6B6D9"/>
<rect x="201.538" y="20.5127" width="7.5641" height="4.22601" fill="#C6B6D9"/>
<rect x="209.103" y="20.5127" width="7.5641" height="4.22601" fill="#C6B6D9"/>
<rect x="216.667" y="20.5127" width="7.5641" height="4.22601" fill="#C6B6D9"/>
<rect x="224.231" y="20.5127" width="7.5641" height="4.22601" fill="#C6B6D9"/>
<rect x="231.795" y="20.5127" width="7.5641" height="4.22601" fill="#C6B6D9"/>
<rect x="239.359" y="20.5127" width="7.5641" height="4.22601" fill="#C6B6D9"/>
<rect x="246.923" y="20.5127" width="7.5641" height="4.22601" fill="#C6B6D9"/>
<rect x="254.487" y="20.5127" width="7.5641" height="4.22601" fill="#C6B6D9"/>
<rect x="262.051" y="20.5127" width="7.5641" height="4.22601" fill="#C6B6D9"/>
<rect x="269.615" y="20.5127" width="7.5641" height="4.22601" fill="#C6B6D9"/>
<rect x="277.179" y="20.5127" width="7.5641" height="4.22601" fill="#C6B6D9"/>
<rect x="284.744" y="20.5127" width="7.5641" height="4.22601" fill="#C6B6D9"/>
<rect x="80.5128" y="20.5127" width="7.5641" height="4.22601" fill="#C6B6D9"/>
<rect x="284.744" y="24.7388" width="7.5641" height="4.22601" fill="#C6B6D9"/>
<rect x="277.179" y="24.7388" width="7.5641" height="4.22601" fill="#C6B6D9"/>
<rect x="216.667" y="24.7388" width="7.5641" height="4.22601" fill="#C6B6D9"/>
<rect x="193.974" y="24.7388" width="7.5641" height="4.22601" fill="#C6B6D9"/>
<rect x="201.538" y="24.7388" width="7.5641" height="4.22601" fill="#C6B6D9"/>
<rect x="209.103" y="24.7388" width="7.5641" height="4.22601" fill="#C6B6D9"/>
<rect x="224.231" y="24.7388" width="7.5641" height="4.22601" fill="#C6B6D9"/>
<rect x="231.795" y="24.7388" width="7.5641" height="4.22601" fill="#C6B6D9"/>
<rect x="239.359" y="24.7388" width="7.5641" height="4.22601" fill="#C6B6D9"/>
<rect x="246.923" y="24.7388" width="7.5641" height="4.22601" fill="#C6B6D9"/>
<rect x="254.487" y="24.7388" width="7.5641" height="4.22601" fill="#C6B6D9"/>
<rect x="262.051" y="24.7388" width="7.5641" height="4.22601" fill="#C6B6D9"/>
<rect x="269.615" y="24.7388" width="7.5641" height="4.22601" fill="#C6B6D9"/>
<rect x="186.41" y="24.7388" width="7.5641" height="4.22601" fill="#C6B6D9"/>
<rect x="171.282" y="28.9648" width="7.5641" height="4.22601" fill="#C6B6D9"/>
<rect x="178.846" y="24.7388" width="7.5641" height="4.22601" fill="#C6B6D9"/>
<rect x="163.718" y="28.9648" width="7.5641" height="4.22601" fill="#C6B6D9"/>
<rect x="103.205" y="24.7388" width="7.5641" height="4.22601" fill="#C6B6D9"/>
<rect x="110.769" y="24.7388" width="7.5641" height="4.22601" fill="#C6B6D9"/>
<rect x="118.333" y="24.7388" width="7.5641" height="4.22601" fill="#C6B6D9"/>
<rect x="125.897" y="24.7388" width="7.5641" height="4.22601" fill="#C6B6D9"/>
<rect x="133.462" y="24.7388" width="7.5641" height="4.22601" fill="#C6B6D9"/>
<rect x="141.026" y="24.7388" width="7.5641" height="4.22601" fill="#C6B6D9"/>
<rect x="148.59" y="28.9648" width="7.5641" height="4.22601" fill="#C6B6D9"/>
<rect x="156.154" y="28.9648" width="7.5641" height="4.22601" fill="#C6B6D9"/>
<rect x="95.641" y="24.7388" width="7.5641" height="4.22601" fill="#C6B6D9"/>
<path d="M88.9573 21.4531C86.0114 32.2129 81.8872 57.0543 88.9573 70.342" stroke="#C6B6D9"/>
<rect x="82.5641" y="20.5127" width="5.64103" height="9.40171" fill="#C6B6D9"/>
<rect x="82.5641" y="29.9146" width="5.64103" height="9.40171" fill="#C6B6D9"/>
<rect x="82.5641" y="39.3159" width="5.64103" height="9.40171" fill="#C6B6D9"/>
<rect x="82.5641" y="48.7178" width="5.64103" height="9.40171" fill="#C6B6D9"/>
<rect x="82.5641" y="58.1196" width="5.64103" height="9.40171" fill="#C6B6D9"/>
<rect x="88.2051" y="20.5127" width="5.64103" height="9.40171" fill="#C6B6D9"/>
<rect x="88.2051" y="67.5215" width="5.64103" height="9.40171" fill="#C6B6D9"/>
<path d="M67.4359 31.0259C64.6154 38.1199 60.6667 55.1797 67.4359 66.6669" stroke="#C6B6D9"/>
<rect x="63.5897" y="30.769" width="7.69231" height="7.69231" fill="#C6B6D9"/>
<rect x="63.5897" y="38.4614" width="7.69231" height="7.69231" fill="#C6B6D9"/>
<rect x="63.5897" y="46.1538" width="7.69231" height="7.69231" fill="#C6B6D9"/>
<rect x="63.5897" y="53.8462" width="7.69231" height="7.69231" fill="#C6B6D9"/>
<rect x="63.5897" y="61.5386" width="7.69231" height="7.69231" fill="#C6B6D9"/>
<path d="M118.325 113.333L86.9744 104.872H130.53L118.325 113.333Z" fill="#C6B6D9"/>
<rect x="109.231" y="107.692" width="7.17949" height="7.69231" fill="#C6B6D9"/>
<rect x="87.6923" y="100" width="7.17949" height="7.69231" fill="#C6B6D9"/>
<rect x="94.8718" y="107.692" width="7.17949" height="7.69231" fill="#C6B6D9"/>
<rect x="102.051" y="107.692" width="7.17949" height="7.69231" fill="#C6B6D9"/>
<rect x="80.5128" y="100" width="7.17949" height="7.69231" fill="#C6B6D9"/>
<rect x="116.41" y="107.692" width="7.17949" height="7.69231" fill="#C6B6D9"/>
<rect x="123.59" y="100" width="7.17949" height="7.69231" fill="#C6B6D9"/>
<rect x="94.8718" y="100" width="7.17949" height="7.69231" fill="#C6B6D9"/>
<rect x="102.051" y="100" width="7.17949" height="7.69231" fill="#C6B6D9"/>
<rect x="109.231" y="100" width="7.17949" height="7.69231" fill="#C6B6D9"/>
<rect x="116.41" y="100" width="7.17949" height="7.69231" fill="#C6B6D9"/>
<path d="M236.41 108.205L207.484 105.128H236.41V108.205Z" fill="#C6B6D9"/>
<rect x="207.692" y="100" width="7.69231" height="7.69231" fill="#C6B6D9"/>
<rect x="215.385" y="100" width="7.69231" height="7.69231" fill="#C6B6D9"/>
<rect x="223.077" y="100" width="7.69231" height="7.69231" fill="#C6B6D9"/>
<rect x="230.769" y="107.692" width="7.69231" height="7.69231" fill="#C6B6D9"/>
<rect x="200" y="100" width="7.69231" height="7.69231" fill="#C6B6D9"/>
<rect x="230.769" y="100" width="7.69231" height="7.69231" fill="#C6B6D9"/>
<path d="M180.769 74.1024L230.256 60.5127L236.667 34.6152V70.2563H224.359L216.154 80.5127H208.718V87.4357L199.487 91.2819L195.641 105.384L184.872 99.487L180.769 74.1024Z" fill="#382E2E"/>
<path d="M180.769 74.1024L230.256 60.5127L236.667 34.6152V70.2563H224.359L216.154 80.5127H208.718V87.4357L199.487 91.2819L195.641 105.384L184.872 99.487L180.769 74.1024Z" fill="black" fill-opacity="0.2"/>
<rect x="207.692" y="61.5386" width="7.69231" height="7.69231" fill="#382E2E"/>
<rect x="207.692" y="61.5386" width="7.69231" height="7.69231" fill="black" fill-opacity="0.2"/>
<rect x="176.923" y="69.231" width="7.69231" height="7.69231" fill="#382E2E"/>
<rect x="176.923" y="69.231" width="7.69231" height="7.69231" fill="black" fill-opacity="0.2"/>
<rect x="184.615" y="69.231" width="7.69231" height="7.69231" fill="#382E2E"/>
<rect x="184.615" y="69.231" width="7.69231" height="7.69231" fill="black" fill-opacity="0.2"/>
<rect x="192.308" y="69.231" width="7.69231" height="7.69231" fill="#382E2E"/>
<rect x="192.308" y="69.231" width="7.69231" height="7.69231" fill="black" fill-opacity="0.2"/>
<rect x="200" y="61.5386" width="7.69231" height="7.69231" fill="#382E2E"/>
<rect x="200" y="61.5386" width="7.69231" height="7.69231" fill="black" fill-opacity="0.2"/>
<rect x="215.385" y="61.5386" width="7.69231" height="7.69231" fill="#382E2E"/>
<rect x="215.385" y="61.5386" width="7.69231" height="7.69231" fill="black" fill-opacity="0.2"/>
<rect x="223.077" y="53.8462" width="7.69231" height="7.69231" fill="#382E2E"/>
<rect x="223.077" y="53.8462" width="7.69231" height="7.69231" fill="black" fill-opacity="0.2"/>
<rect x="176.923" y="76.9229" width="7.69231" height="7.69231" fill="#382E2E"/>
<rect x="176.923" y="76.9229" width="7.69231" height="7.69231" fill="black" fill-opacity="0.2"/>
<rect x="176.923" y="84.6152" width="7.69231" height="7.69231" fill="#382E2E"/>
<rect x="176.923" y="84.6152" width="7.69231" height="7.69231" fill="black" fill-opacity="0.2"/>
<rect x="176.923" y="92.3076" width="7.69231" height="7.69231" fill="#382E2E"/>
<rect x="176.923" y="92.3076" width="7.69231" height="7.69231" fill="black" fill-opacity="0.2"/>
<rect x="184.615" y="92.3076" width="7.69231" height="7.69231" fill="#382E2E"/>
<rect x="184.615" y="92.3076" width="7.69231" height="7.69231" fill="black" fill-opacity="0.2"/>
<rect x="192.308" y="100" width="7.69231" height="7.69231" fill="#382E2E"/>
<rect x="192.308" y="100" width="7.69231" height="7.69231" fill="black" fill-opacity="0.2"/>
<rect x="184.615" y="100" width="7.69231" height="7.69231" fill="#382E2E"/>
<rect x="184.615" y="100" width="7.69231" height="7.69231" fill="black" fill-opacity="0.2"/>
<rect x="192.308" y="92.3076" width="7.69231" height="7.69231" fill="#382E2E"/>
<rect x="192.308" y="92.3076" width="7.69231" height="7.69231" fill="black" fill-opacity="0.2"/>
<rect x="192.308" y="84.6152" width="7.69231" height="7.69231" fill="#382E2E"/>
<rect x="192.308" y="84.6152" width="7.69231" height="7.69231" fill="black" fill-opacity="0.2"/>
<rect x="200" y="84.6152" width="7.69231" height="7.69231" fill="#382E2E"/>
<rect x="200" y="84.6152" width="7.69231" height="7.69231" fill="black" fill-opacity="0.2"/>
<rect x="207.692" y="84.6152" width="7.69231" height="7.69231" fill="#382E2E"/>
<rect x="207.692" y="84.6152" width="7.69231" height="7.69231" fill="black" fill-opacity="0.2"/>
<rect x="207.692" y="76.9229" width="7.69231" height="7.69231" fill="#382E2E"/>
<rect x="207.692" y="76.9229" width="7.69231" height="7.69231" fill="black" fill-opacity="0.2"/>
<rect x="215.385" y="76.9229" width="7.69231" height="7.69231" fill="#382E2E"/>
<rect x="215.385" y="76.9229" width="7.69231" height="7.69231" fill="black" fill-opacity="0.2"/>
<rect x="215.385" y="69.231" width="7.69231" height="7.69231" fill="#382E2E"/>
<rect x="215.385" y="69.231" width="7.69231" height="7.69231" fill="black" fill-opacity="0.2"/>
<rect x="223.077" y="69.231" width="7.69231" height="7.69231" fill="#382E2E"/>
<rect x="223.077" y="69.231" width="7.69231" height="7.69231" fill="black" fill-opacity="0.2"/>
<rect x="230.769" y="69.231" width="7.69231" height="7.69231" fill="#382E2E"/>
<rect x="230.769" y="69.231" width="7.69231" height="7.69231" fill="black" fill-opacity="0.2"/>
<rect x="230.769" y="30.769" width="7.69231" height="7.69231" fill="#382E2E"/>
<rect x="230.769" y="30.769" width="7.69231" height="7.69231" fill="black" fill-opacity="0.2"/>
<rect x="230.769" y="38.4614" width="7.69231" height="7.69231" fill="#382E2E"/>
<rect x="230.769" y="38.4614" width="7.69231" height="7.69231" fill="black" fill-opacity="0.2"/>
<rect x="230.769" y="46.1538" width="7.69231" height="7.69231" fill="#382E2E"/>
<rect x="230.769" y="46.1538" width="7.69231" height="7.69231" fill="black" fill-opacity="0.2"/>
<rect x="230.769" y="53.8462" width="7.69231" height="7.69231" fill="#382E2E"/>
<rect x="230.769" y="53.8462" width="7.69231" height="7.69231" fill="black" fill-opacity="0.2"/>
<rect x="230.769" y="61.5386" width="7.69231" height="7.69231" fill="#382E2E"/>
<rect x="230.769" y="61.5386" width="7.69231" height="7.69231" fill="black" fill-opacity="0.2"/>
<path d="M99.4872 125.897L232.821 118.718V125.897H99.4872Z" stroke="#4F2323"/>
<rect x="223.077" y="115.385" width="7.69231" height="7.69231" fill="#4F2323"/>
<rect x="100" y="123.077" width="7.69231" height="7.69231" fill="#4F2323"/>
<rect x="107.692" y="123.077" width="7.69231" height="7.69231" fill="#4F2323"/>
<rect x="115.385" y="123.077" width="7.69231" height="7.69231" fill="#4F2323"/>
<rect x="123.077" y="123.077" width="7.69231" height="7.69231" fill="#4F2323"/>
<rect x="130.769" y="123.077" width="7.69231" height="7.69231" fill="#4F2323"/>
<rect x="138.462" y="123.077" width="7.69231" height="7.69231" fill="#4F2323"/>
<rect x="146.154" y="123.077" width="7.69231" height="7.69231" fill="#4F2323"/>
<rect x="153.846" y="115.385" width="7.69231" height="7.69231" fill="#4F2323"/>
<rect x="161.538" y="115.385" width="7.69231" height="7.69231" fill="#4F2323"/>
<rect x="169.231" y="115.385" width="7.69231" height="7.69231" fill="#4F2323"/>
<rect x="176.923" y="115.385" width="7.69231" height="7.69231" fill="#4F2323"/>
<rect x="184.615" y="115.385" width="7.69231" height="7.69231" fill="#4F2323"/>
<rect x="192.308" y="115.385" width="7.69231" height="7.69231" fill="#4F2323"/>
<rect x="200" y="115.385" width="7.69231" height="7.69231" fill="#4F2323"/>
<rect x="207.692" y="115.385" width="7.69231" height="7.69231" fill="#4F2323"/>
<rect x="215.385" y="115.385" width="7.69231" height="7.69231" fill="#4F2323"/>
<rect x="230.769" y="115.385" width="7.69231" height="7.69231" fill="#4F2323"/>
<rect x="92.3077" y="123.077" width="7.69231" height="7.69231" fill="#4F2323"/>
<rect x="153.846" y="123.077" width="7.69231" height="7.69231" fill="#4F2323"/>
<rect x="161.538" y="123.077" width="7.69231" height="7.69231" fill="#4F2323"/>
<rect x="169.231" y="123.077" width="7.69231" height="7.69231" fill="#4F2323"/>
<rect x="176.923" y="123.077" width="7.69231" height="7.69231" fill="#4F2323"/>
<rect x="184.615" y="123.077" width="7.69231" height="7.69231" fill="#4F2323"/>
<rect x="192.308" y="123.077" width="7.69231" height="7.69231" fill="#4F2323"/>
<rect x="200" y="123.077" width="7.69231" height="7.69231" fill="#4F2323"/>
<rect x="207.692" y="123.077" width="7.69231" height="7.69231" fill="#4F2323"/>
<rect x="215.385" y="123.077" width="7.69231" height="7.69231" fill="#4F2323"/>
<rect x="223.077" y="123.077" width="7.69231" height="7.69231" fill="#4F2323"/>
<rect x="230.769" y="123.077" width="7.69231" height="7.69231" fill="#4F2323"/>
<rect x="75.3846" y="36.4102" width="6.66667" height="30.2564" fill="#4F2323"/>
<rect x="56.9231" y="40" width="6.66667" height="20" fill="#4F2323"/>
<rect x="129.744" y="76.9229" width="16.4103" height="27.1795" fill="#4F2323"/>
<rect x="84.6154" width="7.69231" height="7.69231" fill="#43332C"/>
<rect x="92.3077" width="7.69231" height="7.69231" fill="#43332C"/>
<rect x="100" width="7.69231" height="7.69231" fill="#43332C"/>
<rect x="107.692" width="7.69231" height="7.69231" fill="#43332C"/>
<rect x="115.385" width="7.69231" height="7.69231" fill="#43332C"/>
<rect x="123.077" width="7.69231" height="7.69231" fill="#43332C"/>
<rect x="130.769" width="7.69231" height="7.69231" fill="#43332C"/>
<rect x="138.462" width="7.69231" height="7.69231" fill="#43332C"/>
<rect x="146.154" width="7.69231" height="7.69231" fill="#43332C"/>
<rect x="153.846" width="7.69231" height="7.69231" fill="#43332C"/>
<rect x="161.538" width="7.69231" height="7.69231" fill="#43332C"/>
<rect x="169.231" width="7.69231" height="7.69231" fill="#43332C"/>
<rect x="176.923" width="7.69231" height="7.69231" fill="#43332C"/>
<rect x="184.615" width="7.69231" height="7.69231" fill="#43332C"/>
<rect x="192.308" width="7.69231" height="7.69231" fill="#43332C"/>
<rect x="200" width="7.69231" height="7.69231" fill="#43332C"/>
<rect x="207.692" width="7.69231" height="7.69231" fill="#43332C"/>
<rect x="215.385" width="7.69231" height="7.69231" fill="#43332C"/>
<rect x="223.077" width="7.69231" height="7.69231" fill="#43332C"/>
<rect x="230.769" width="7.69231" height="7.69231" fill="#43332C"/>
<rect x="238.462" width="7.69231" height="7.69231" fill="#43332C"/>
<rect x="246.154" width="7.69231" height="7.69231" fill="#43332C"/>
<rect x="253.846" width="7.69231" height="7.69231" fill="#43332C"/>
<rect x="261.538" width="7.69231" height="7.69231" fill="#43332C"/>
<rect x="269.231" width="7.69231" height="7.69231" fill="#43332C"/>
<rect x="276.923" width="7.69231" height="7.69231" fill="#43332C"/>
<rect x="284.615" width="7.69231" height="7.69231" fill="#43332C"/>
<rect x="292.308" y="7.69238" width="7.69231" height="7.69231" fill="#43332C"/>
<rect x="292.308" y="15.3848" width="7.69231" height="7.69231" fill="#43332C"/>
<rect x="292.308" y="23.0771" width="7.69231" height="7.69231" fill="#43332C"/>
<rect x="284.615" y="30.769" width="7.69231" height="7.69231" fill="#43332C"/>
<rect x="247.179" y="30.769" width="14.359" height="7.69231" fill="#43332C"/>
<rect x="261.538" y="30.769" width="7.69231" height="7.69231" fill="#43332C"/>
<rect x="269.231" y="30.769" width="7.69231" height="7.69231" fill="#43332C"/>
<rect x="276.923" y="30.769" width="7.69231" height="7.69231" fill="#43332C"/>
<rect x="241.026" y="30.769" width="7.69231" height="7.69231" fill="#43332C"/>
<rect x="241.026" y="38.4614" width="7.69231" height="7.69231" fill="#43332C"/>
<rect x="241.026" y="46.1538" width="7.69231" height="7.69231" fill="#43332C"/>
<rect x="241.026" y="53.8462" width="7.69231" height="7.69231" fill="#43332C"/>
<rect x="241.026" y="61.5386" width="7.69231" height="7.69231" fill="#43332C"/>
<rect x="238.462" y="69.231" width="7.69231" height="7.69231" fill="#43332C"/>
<rect x="222.564" y="76.9229" width="7.69231" height="7.69231" fill="#43332C"/>
<rect x="215.385" y="84.6152" width="7.69231" height="7.69231" fill="#43332C"/>
<rect x="207.692" y="92.3076" width="7.69231" height="7.69231" fill="#43332C"/>
<rect x="223.077" y="84.6152" width="7.69231" height="7.69231" fill="#43332C"/>
<rect x="200" y="92.3076" width="7.69231" height="7.69231" fill="#43332C"/>
<rect x="230.769" y="100" width="7.69231" height="7.69231" fill="#43332C"/>
<rect x="215.385" y="92.3076" width="7.69231" height="7.69231" fill="#43332C"/>
<rect x="223.077" y="100" width="7.69231" height="7.69231" fill="#43332C"/>
<rect x="238.462" y="100" width="7.69231" height="7.69231" fill="#43332C"/>
<rect x="238.462" y="107.692" width="7.69231" height="7.69231" fill="#43332C"/>
<rect x="238.462" y="115.385" width="7.69231" height="7.69231" fill="#43332C"/>
<rect x="238.462" y="123.077" width="7.69231" height="7.69231" fill="#43332C"/>
<rect x="230.769" y="130.769" width="7.69231" height="7.69231" fill="#43332C"/>
<rect x="92.3077" y="130.769" width="7.69231" height="7.69231" fill="#43332C"/>
<rect x="100" y="130.769" width="7.69231" height="7.69231" fill="#43332C"/>
<rect x="107.692" y="130.769" width="7.69231" height="7.69231" fill="#43332C"/>
<rect x="115.385" y="130.769" width="7.69231" height="7.69231" fill="#43332C"/>
<rect x="123.077" y="130.769" width="7.69231" height="7.69231" fill="#43332C"/>
<rect x="130.769" y="130.769" width="7.69231" height="7.69231" fill="#43332C"/>
<rect x="138.462" y="130.769" width="7.69231" height="7.69231" fill="#43332C"/>
<rect x="146.154" y="130.769" width="7.69231" height="7.69231" fill="#43332C"/>
<rect x="153.846" y="130.769" width="7.69231" height="7.69231" fill="#43332C"/>
<rect x="161.538" y="130.769" width="7.69231" height="7.69231" fill="#43332C"/>
<rect x="169.231" y="130.769" width="7.69231" height="7.69231" fill="#43332C"/>
<rect x="176.923" y="130.769" width="7.69231" height="7.69231" fill="#43332C"/>
<rect x="184.615" y="130.769" width="7.69231" height="7.69231" fill="#43332C"/>
<rect x="192.308" y="130.769" width="7.69231" height="7.69231" fill="#43332C"/>
<rect x="200" y="130.769" width="7.69231" height="7.69231" fill="#43332C"/>
<rect x="207.692" y="130.769" width="7.69231" height="7.69231" fill="#43332C"/>
<rect x="215.385" y="130.769" width="7.69231" height="7.69231" fill="#43332C"/>
<rect x="223.077" y="130.769" width="7.69231" height="7.69231" fill="#43332C"/>
<rect x="84.6154" y="130.769" width="7.69231" height="7.69231" fill="#43332C"/>
<rect x="76.9231" y="123.077" width="7.69231" height="7.69231" fill="#43332C"/>
<rect x="76.9231" y="107.692" width="7.69231" height="7.69231" fill="#43332C"/>
<rect x="76.9231" y="115.385" width="7.69231" height="7.69231" fill="#43332C"/>
<rect x="76.9231" y="100" width="7.69231" height="7.69231" fill="#43332C"/>
<rect x="84.6154" y="92.3076" width="7.69231" height="7.69231" fill="#43332C"/>
<rect x="92.3077" y="92.3076" width="7.69231" height="7.69231" fill="#43332C"/>
<rect x="100" y="92.3076" width="7.69231" height="7.69231" fill="#43332C"/>
<rect x="107.692" y="92.3076" width="7.69231" height="7.69231" fill="#43332C"/>
<rect x="115.385" y="92.3076" width="7.69231" height="7.69231" fill="#43332C"/>
<rect x="123.077" y="92.3076" width="7.69231" height="7.69231" fill="#43332C"/>
<rect x="123.077" y="84.6152" width="7.69231" height="7.69231" fill="#43332C"/>
<rect x="115.385" y="76.9229" width="7.69231" height="7.69231" fill="#43332C"/>
<rect x="100" y="76.9229" width="7.69231" height="7.69231" fill="#43332C"/>
<rect x="76.9231" y="76.9229" width="7.69231" height="7.69231" fill="#43332C"/>
<rect x="84.6154" y="76.9229" width="7.69231" height="7.69231" fill="#43332C"/>
<rect x="92.3077" y="76.9229" width="7.69231" height="7.69231" fill="#43332C"/>
<rect x="107.692" y="76.9229" width="7.69231" height="7.69231" fill="#43332C"/>
<rect x="69.2308" y="69.231" width="7.69231" height="7.69231" fill="#43332C"/>
<rect x="61.5385" y="69.231" width="7.69231" height="7.69231" fill="#43332C"/>
<rect x="53.8461" y="69.231" width="7.69231" height="7.69231" fill="#43332C"/>
<rect x="46.1539" y="61.5386" width="7.69231" height="7.69231" fill="#43332C"/>
<rect x="30.7692" y="61.5386" width="7.69231" height="7.69231" fill="#43332C"/>
<rect x="38.4615" y="61.5386" width="7.69231" height="7.69231" fill="#43332C"/>
<rect x="23.0769" y="53.8462" width="7.69231" height="7.69231" fill="#43332C"/>
<rect x="15.3846" y="53.8462" width="7.69231" height="7.69231" fill="#43332C"/>
<rect x="15.3846" y="46.1538" width="7.69231" height="7.69231" fill="#43332C"/>
<rect x="7.69232" y="38.4614" width="7.69231" height="7.69231" fill="#43332C"/>
<rect y="30.769" width="9.74359" height="7.69231" fill="#43332C"/>
<rect y="23.0771" width="7.69231" height="7.69231" fill="#43332C"/>
<rect x="7.69232" y="15.3848" width="7.69231" height="7.69231" fill="#43332C"/>
<rect x="15.3846" y="15.3848" width="7.69231" height="7.69231" fill="#43332C"/>
<rect x="23.0769" y="15.3848" width="7.69231" height="7.69231" fill="#43332C"/>
<rect x="30.7692" y="15.3848" width="7.69231" height="7.69231" fill="#43332C"/>
<rect x="38.4615" y="15.3848" width="7.69231" height="7.69231" fill="#43332C"/>
<rect x="46.1539" y="15.3848" width="7.69231" height="7.69231" fill="#43332C"/>
<rect x="53.8461" y="15.3848" width="7.69231" height="7.69231" fill="#43332C"/>
<rect x="61.5385" y="15.3848" width="7.69231" height="7.69231" fill="#43332C"/>
<rect x="69.2308" y="15.3848" width="7.69231" height="7.69231" fill="#43332C"/>
<rect x="76.9231" y="15.3848" width="7.69231" height="7.69231" fill="#43332C"/>
<rect x="76.9231" y="7.69238" width="7.69231" height="7.69231" fill="#43332C"/>
</svg>
