<svg width="38" height="59" viewBox="0 0 38 59" fill="none" xmlns="http://www.w3.org/2000/svg">
<path fill-rule="evenodd" clip-rule="evenodd" d="M7.375 55H35.875V43.75H7.375L1.5 48.6875L7.375 54.875V55Z" fill="#777272"/>
<rect x="36.25" y="55" width="1.25" height="1.25" transform="rotate(-180 36.25 55)" fill="#777272"/>
<rect x="35" y="55" width="1.25" height="1.25" transform="rotate(-180 35 55)" fill="#777272"/>
<rect x="33.75" y="55" width="1.25" height="1.25" transform="rotate(-180 33.75 55)" fill="#777272"/>
<rect x="32.5" y="55" width="1.25" height="1.25" transform="rotate(-180 32.5 55)" fill="#777272"/>
<rect x="31.25" y="55" width="1.25" height="1.25" transform="rotate(-180 31.25 55)" fill="#777272"/>
<rect x="30" y="55" width="1.25" height="1.25" transform="rotate(-180 30 55)" fill="#777272"/>
<rect x="28.75" y="55" width="1.25" height="1.25" transform="rotate(-180 28.75 55)" fill="#777272"/>
<rect x="27.5" y="55" width="1.25" height="1.25" transform="rotate(-180 27.5 55)" fill="#777272"/>
<rect x="26.25" y="55" width="1.25" height="1.25" transform="rotate(-180 26.25 55)" fill="#777272"/>
<rect x="25" y="55" width="1.25" height="1.25" transform="rotate(-180 25 55)" fill="#777272"/>
<rect x="23.75" y="55" width="1.25" height="1.25" transform="rotate(-180 23.75 55)" fill="#777272"/>
<rect x="22.5" y="55" width="1.25" height="1.25" transform="rotate(-180 22.5 55)" fill="#777272"/>
<rect x="21.25" y="55" width="1.25" height="1.25" transform="rotate(-180 21.25 55)" fill="#777272"/>
<rect x="20" y="55" width="1.25" height="1.25" transform="rotate(-180 20 55)" fill="#777272"/>
<rect x="18.75" y="55" width="1.25" height="1.25" transform="rotate(-180 18.75 55)" fill="#777272"/>
<rect x="17.5" y="55" width="1.25" height="1.25" transform="rotate(-180 17.5 55)" fill="#777272"/>
<rect x="16.25" y="55" width="1.25" height="1.25" transform="rotate(-180 16.25 55)" fill="#777272"/>
<rect x="15" y="55" width="1.25" height="1.25" transform="rotate(-180 15 55)" fill="#777272"/>
<rect x="13.75" y="55" width="1.25" height="1.25" transform="rotate(-180 13.75 55)" fill="#777272"/>
<rect x="12.5" y="55" width="1.25" height="1.25" transform="rotate(-180 12.5 55)" fill="#777272"/>
<rect x="11.25" y="55" width="1.25" height="1.25" transform="rotate(-180 11.25 55)" fill="#777272"/>
<rect x="10" y="55" width="1.25" height="1.25" transform="rotate(-180 10 55)" fill="#777272"/>
<rect x="8.75" y="55" width="1.25" height="1.25" transform="rotate(-180 8.75 55)" fill="#777272"/>
<rect x="7.5" y="55" width="1.25" height="1.25" transform="rotate(-180 7.5 55)" fill="#777272"/>
<rect x="36.25" y="53.75" width="1.25" height="1.25" transform="rotate(-180 36.25 53.75)" fill="#777272"/>
<rect x="36.25" y="52.5" width="1.25" height="1.25" transform="rotate(-180 36.25 52.5)" fill="#777272"/>
<rect x="36.25" y="51.25" width="1.25" height="1.25" transform="rotate(-180 36.25 51.25)" fill="#777272"/>
<rect x="36.25" y="50" width="1.25" height="1.25" transform="rotate(-180 36.25 50)" fill="#777272"/>
<rect x="36.25" y="48.75" width="1.25" height="1.25" transform="rotate(-180 36.25 48.75)" fill="#777272"/>
<rect x="36.25" y="47.5" width="1.25" height="1.25" transform="rotate(-180 36.25 47.5)" fill="#777272"/>
<rect x="36.25" y="46.25" width="1.25" height="1.25" transform="rotate(-180 36.25 46.25)" fill="#777272"/>
<rect x="36.25" y="45" width="1.25" height="1.25" transform="rotate(-180 36.25 45)" fill="#777272"/>
<rect x="36.25" y="43.75" width="1.25" height="1.25" transform="rotate(-180 36.25 43.75)" fill="#777272"/>
<rect x="35" y="45" width="1.25" height="1.25" transform="rotate(-180 35 45)" fill="#777272"/>
<rect x="33.75" y="43.75" width="1.25" height="1.25" transform="rotate(-180 33.75 43.75)" fill="#777272"/>
<rect x="32.5" y="43.75" width="1.25" height="1.25" transform="rotate(-180 32.5 43.75)" fill="#777272"/>
<rect x="31.25" y="43.75" width="1.25" height="1.25" transform="rotate(-180 31.25 43.75)" fill="#777272"/>
<rect x="30" y="43.75" width="1.25" height="1.25" transform="rotate(-180 30 43.75)" fill="#777272"/>
<rect x="28.75" y="43.75" width="1.25" height="1.25" transform="rotate(-180 28.75 43.75)" fill="#777272"/>
<rect x="27.5" y="43.75" width="1.25" height="1.25" transform="rotate(-180 27.5 43.75)" fill="#777272"/>
<rect x="26.25" y="43.75" width="1.25" height="1.25" transform="rotate(-180 26.25 43.75)" fill="#777272"/>
<rect x="25" y="43.75" width="1.25" height="1.25" transform="rotate(-180 25 43.75)" fill="#777272"/>
<rect x="23.75" y="45" width="1.25" height="1.25" transform="rotate(-180 23.75 45)" fill="#777272"/>
<rect x="22.5" y="43.75" width="1.25" height="1.25" transform="rotate(-180 22.5 43.75)" fill="#777272"/>
<rect x="21.25" y="45" width="1.25" height="1.25" transform="rotate(-180 21.25 45)" fill="#777272"/>
<rect x="20" y="43.75" width="1.25" height="1.25" transform="rotate(-180 20 43.75)" fill="#777272"/>
<rect x="18.75" y="43.75" width="1.25" height="1.25" transform="rotate(-180 18.75 43.75)" fill="#777272"/>
<rect x="17.5" y="43.75" width="1.25" height="1.25" transform="rotate(-180 17.5 43.75)" fill="#777272"/>
<rect x="16.25" y="43.75" width="1.25" height="1.25" transform="rotate(-180 16.25 43.75)" fill="#777272"/>
<rect x="15" y="43.75" width="1.25" height="1.25" transform="rotate(-180 15 43.75)" fill="#777272"/>
<rect x="13.75" y="43.75" width="1.25" height="1.25" transform="rotate(-180 13.75 43.75)" fill="#777272"/>
<rect x="12.5" y="43.75" width="1.25" height="1.25" transform="rotate(-180 12.5 43.75)" fill="#777272"/>
<rect x="11.25" y="45" width="1.25" height="1.25" transform="rotate(-180 11.25 45)" fill="#777272"/>
<rect x="10" y="45" width="1.25" height="1.25" transform="rotate(-180 10 45)" fill="#777272"/>
<rect x="8.75" y="43.75" width="1.25" height="1.25" transform="rotate(-180 8.75 43.75)" fill="#777272"/>
<rect x="7.5" y="43.75" width="1.25" height="1.25" transform="rotate(-180 7.5 43.75)" fill="#777272"/>
<rect x="3.25" y="48.75" width="2" height="1.25" transform="rotate(-180 3.25 48.75)" fill="#777272"/>
<rect x="3.75" y="47.5" width="1.25" height="1.25" transform="rotate(-180 3.75 47.5)" fill="#777272"/>
<rect x="6.25" y="46.25" width="1.25" height="1.25" transform="rotate(-180 6.25 46.25)" fill="#777272"/>
<rect x="7.5" y="45" width="1.25" height="1.25" transform="rotate(-180 7.5 45)" fill="#777272"/>
<rect x="5" y="47.5" width="1.25" height="1.25" transform="rotate(-180 5 47.5)" fill="#777272"/>
<rect x="6.25" y="53.75" width="1.25" height="1.25" transform="rotate(-180 6.25 53.75)" fill="#777272"/>
<rect x="5" y="52.5" width="1.25" height="1.25" transform="rotate(-180 5 52.5)" fill="#777272"/>
<rect x="3.75" y="51.25" width="1.25" height="1.25" transform="rotate(-180 3.75 51.25)" fill="#777272"/>
<rect x="2.5" y="50" width="1.25" height="1.25" transform="rotate(-180 2.5 50)" fill="#777272"/>
<path d="M3.25 48.9375L32.875 48.9375L23.375 47.5625V44.125L12.25 43.1875L11.625 47.5625L5.9375 46.875L3.25 48.9375Z" fill="#574747"/>
<rect x="32.5" y="49.9999" width="1.25" height="1.25" transform="rotate(-180 32.5 49.9999)" fill="#574747"/>
<rect x="31.2499" y="49.9999" width="1.25" height="1.25" transform="rotate(-180 31.2499 49.9999)" fill="#574747"/>
<rect x="29.9999" y="49.9999" width="1.25" height="1.25" transform="rotate(-180 29.9999 49.9999)" fill="#574747"/>
<rect x="28.75" y="49.9999" width="1.25" height="1.25" transform="rotate(-180 28.75 49.9999)" fill="#574747"/>
<rect x="27.4999" y="49.9999" width="1.25" height="1.25" transform="rotate(-180 27.4999 49.9999)" fill="#574747"/>
<rect x="26.2499" y="49.9999" width="1.25" height="1.25" transform="rotate(-180 26.2499 49.9999)" fill="#574747"/>
<rect x="25" y="49.9999" width="1.25" height="1.25" transform="rotate(-180 25 49.9999)" fill="#574747"/>
<rect x="23.75" y="49.9999" width="1.25" height="1.25" transform="rotate(-180 23.75 49.9999)" fill="#574747"/>
<rect x="22.4999" y="49.9999" width="1.25" height="1.25" transform="rotate(-180 22.4999 49.9999)" fill="#574747"/>
<rect x="21.25" y="49.9999" width="1.25" height="1.25" transform="rotate(-180 21.25 49.9999)" fill="#574747"/>
<rect x="19.9999" y="49.9999" width="1.25" height="1.25" transform="rotate(-180 19.9999 49.9999)" fill="#574747"/>
<rect x="18.7499" y="49.9999" width="1.25" height="1.25" transform="rotate(-180 18.7499 49.9999)" fill="#574747"/>
<rect x="17.5" y="49.9999" width="1.25" height="1.25" transform="rotate(-180 17.5 49.9999)" fill="#574747"/>
<rect x="16.2499" y="49.9999" width="1.25" height="1.25" transform="rotate(-180 16.2499 49.9999)" fill="#574747"/>
<rect x="14.9999" y="49.9999" width="1.25" height="1.25" transform="rotate(-180 14.9999 49.9999)" fill="#574747"/>
<rect x="13.75" y="49.9999" width="1.25" height="1.25" transform="rotate(-180 13.75 49.9999)" fill="#574747"/>
<rect x="12.4999" y="49.9999" width="1.25" height="1.25" transform="rotate(-180 12.4999 49.9999)" fill="#574747"/>
<rect x="11.2499" y="49.9999" width="1.25" height="1.25" transform="rotate(-180 11.2499 49.9999)" fill="#574747"/>
<rect x="10" y="49.9999" width="1.25" height="1.25" transform="rotate(-180 10 49.9999)" fill="#574747"/>
<rect x="8.74994" y="49.9999" width="1.25" height="1.25" transform="rotate(-180 8.74994 49.9999)" fill="#574747"/>
<rect x="7.5" y="49.9999" width="1.25" height="1.25" transform="rotate(-180 7.5 49.9999)" fill="#574747"/>
<rect x="6.25" y="49.9999" width="1.25" height="1.25" transform="rotate(-180 6.25 49.9999)" fill="#574747"/>
<rect x="4.99994" y="49.9999" width="1.25" height="1.25" transform="rotate(-180 4.99994 49.9999)" fill="#574747"/>
<rect x="33.75" y="50" width="1.25" height="1.25" transform="rotate(-180 33.75 50)" fill="#574747"/>
<rect x="3.75" y="49.9999" width="1.25" height="1.25" transform="rotate(-180 3.75 49.9999)" fill="#574747"/>
<rect x="4.99994" y="48.75" width="1.25" height="1.25" transform="rotate(-180 4.99994 48.75)" fill="#574747"/>
<rect x="6.25" y="47.5" width="1.25" height="1.25" transform="rotate(-180 6.25 47.5)" fill="#574747"/>
<rect x="11.2499" y="47.5" width="1.25" height="1.25" transform="rotate(-180 11.2499 47.5)" fill="#574747"/>
<rect x="10" y="47.5" width="1.25" height="1.25" transform="rotate(-180 10 47.5)" fill="#574747"/>
<rect x="8.74994" y="47.5" width="1.25" height="1.25" transform="rotate(-180 8.74994 47.5)" fill="#574747"/>
<rect x="7.5" y="47.5" width="1.25" height="1.25" transform="rotate(-180 7.5 47.5)" fill="#574747"/>
<rect x="12.4999" y="48.75" width="1.25" height="1.25" transform="rotate(-180 12.4999 48.75)" fill="#574747"/>
<rect x="12.4999" y="47.5" width="1.25" height="1.25" transform="rotate(-180 12.4999 47.5)" fill="#574747"/>
<rect x="12.4999" y="46.2499" width="1.25" height="1.25" transform="rotate(-180 12.4999 46.2499)" fill="#574747"/>
<rect x="12.4999" y="45" width="1.25" height="1.25" transform="rotate(-180 12.4999 45)" fill="#574747"/>
<rect x="12.4999" y="43.75" width="1.25" height="1.25" transform="rotate(-180 12.4999 43.75)" fill="#574747"/>
<rect x="23.75" y="45" width="1.25" height="1.25" transform="rotate(-180 23.75 45)" fill="#574747"/>
<rect x="22.4999" y="45" width="1.25" height="1.25" transform="rotate(-180 22.4999 45)" fill="#574747"/>
<rect x="21.25" y="45" width="1.25" height="1.25" transform="rotate(-180 21.25 45)" fill="#574747"/>
<rect x="19.9999" y="45" width="1.25" height="1.25" transform="rotate(-180 19.9999 45)" fill="#574747"/>
<rect x="18.7499" y="43.75" width="1.25" height="1.25" transform="rotate(-180 18.7499 43.75)" fill="#574747"/>
<rect x="17.5" y="43.75" width="1.25" height="1.25" transform="rotate(-180 17.5 43.75)" fill="#574747"/>
<rect x="16.2499" y="43.75" width="1.25" height="1.25" transform="rotate(-180 16.2499 43.75)" fill="#574747"/>
<rect x="14.9999" y="43.75" width="1.25" height="1.25" transform="rotate(-180 14.9999 43.75)" fill="#574747"/>
<rect x="13.75" y="43.75" width="1.25" height="1.25" transform="rotate(-180 13.75 43.75)" fill="#574747"/>
<rect x="23.75" y="47.5" width="1.25" height="1.25" transform="rotate(-180 23.75 47.5)" fill="#574747"/>
<rect x="23.75" y="46.2499" width="1.25" height="1.25" transform="rotate(-180 23.75 46.2499)" fill="#574747"/>
<rect x="23.75" y="48.75" width="1.25" height="1.25" transform="rotate(-180 23.75 48.75)" fill="#574747"/>
<rect x="27.4999" y="48.75" width="1.25" height="1.25" transform="rotate(-180 27.4999 48.75)" fill="#574747"/>
<rect x="31.2499" y="48.75" width="1.25" height="1.25" transform="rotate(-180 31.2499 48.75)" fill="#574747"/>
<rect x="29.9999" y="48.75" width="1.25" height="1.25" transform="rotate(-180 29.9999 48.75)" fill="#574747"/>
<rect x="28.75" y="48.75" width="1.25" height="1.25" transform="rotate(-180 28.75 48.75)" fill="#574747"/>
<rect x="26.2499" y="48.75" width="1.25" height="1.25" transform="rotate(-180 26.2499 48.75)" fill="#574747"/>
<rect x="25" y="48.75" width="1.25" height="1.25" transform="rotate(-180 25 48.75)" fill="#574747"/>
<path d="M22.125 54.8751C22.125 56.1868 21.0617 57.2501 19.75 57.2501H15.25C13.9383 57.2501 12.875 56.1868 12.875 54.8751L12.875 4.25012C12.875 2.93845 13.9383 1.87512 15.25 1.87512H19.75C21.0617 1.87512 22.125 2.93845 22.125 4.25012L22.125 54.8751Z" fill="#6E3C3C"/>
<rect x="20" y="57.5002" width="1.25" height="1.25" transform="rotate(-180 20 57.5002)" fill="#6E3C3C"/>
<rect x="18.75" y="57.5002" width="1.25" height="1.25" transform="rotate(-180 18.75 57.5002)" fill="#6E3C3C"/>
<rect x="17.5" y="57.5002" width="1.25" height="1.25" transform="matrix(-1 0 0 -1 35 115)" fill="#6E3C3C"/>
<rect x="16.25" y="57.5002" width="1.25" height="1.25" transform="rotate(-180 16.25 57.5002)" fill="#6E3C3C"/>
<rect x="13.75" y="55.0001" width="1.25" height="1.25" transform="rotate(-180 13.75 55.0001)" fill="#6E3C3C"/>
<rect x="13.75" y="53.75" width="1.25" height="1.25" transform="rotate(-180 13.75 53.75)" fill="#6E3C3C"/>
<rect x="13.75" y="52.5002" width="1.25" height="1.25" transform="rotate(-180 13.75 52.5002)" fill="#6E3C3C"/>
<rect x="13.75" y="51.2501" width="1.25" height="1.25" transform="rotate(-180 13.75 51.2501)" fill="#6E3C3C"/>
<rect x="13.75" y="50" width="1.25" height="1.25" transform="rotate(-180 13.75 50)" fill="#6E3C3C"/>
<rect x="13.75" y="48.7502" width="1.25" height="1.25" transform="rotate(-180 13.75 48.7502)" fill="#6E3C3C"/>
<rect x="13.75" y="47.5001" width="1.25" height="1.25" transform="rotate(-180 13.75 47.5001)" fill="#6E3C3C"/>
<rect x="13.75" y="46.25" width="1.25" height="1.25" transform="rotate(-180 13.75 46.25)" fill="#6E3C3C"/>
<rect x="13.75" y="45.0002" width="1.25" height="1.25" transform="rotate(-180 13.75 45.0002)" fill="#6E3C3C"/>
<rect x="13.75" y="43.7501" width="1.25" height="1.25" transform="rotate(-180 13.75 43.7501)" fill="#6E3C3C"/>
<rect x="13.75" y="42.5" width="1.25" height="1.25" transform="rotate(-180 13.75 42.5)" fill="#6E3C3C"/>
<rect x="13.75" y="41.2502" width="1.25" height="1.25" transform="rotate(-180 13.75 41.2502)" fill="#6E3C3C"/>
<rect x="13.75" y="40.0001" width="1.25" height="1.25" transform="rotate(-180 13.75 40.0001)" fill="#6E3C3C"/>
<rect x="13.75" y="38.7502" width="1.25" height="1.25" transform="rotate(-180 13.75 38.7502)" fill="#6E3C3C"/>
<rect x="13.75" y="37.5002" width="1.25" height="1.25" transform="rotate(-180 13.75 37.5002)" fill="#6E3C3C"/>
<rect x="13.75" y="36.2501" width="1.25" height="1.25" transform="rotate(-180 13.75 36.2501)" fill="#6E3C3C"/>
<rect x="13.75" y="35" width="1.25" height="1.25" transform="rotate(-180 13.75 35)" fill="#6E3C3C"/>
<rect x="13.75" y="33.7502" width="1.25" height="1.25" transform="rotate(-180 13.75 33.7502)" fill="#6E3C3C"/>
<rect x="13.75" y="32.5001" width="1.25" height="1.25" transform="rotate(-180 13.75 32.5001)" fill="#6E3C3C"/>
<rect x="13.75" y="31.2502" width="1.25" height="1.25" transform="rotate(-180 13.75 31.2502)" fill="#6E3C3C"/>
<rect x="13.75" y="30.0002" width="1.25" height="1.25" transform="rotate(-180 13.75 30.0002)" fill="#6E3C3C"/>
<rect x="13.75" y="28.7501" width="1.25" height="1.25" transform="rotate(-180 13.75 28.7501)" fill="#6E3C3C"/>
<rect x="13.75" y="27.5002" width="1.25" height="1.25" transform="rotate(-180 13.75 27.5002)" fill="#6E3C3C"/>
<rect x="13.75" y="26.2502" width="1.25" height="1.25" transform="rotate(-180 13.75 26.2502)" fill="#6E3C3C"/>
<rect x="13.75" y="25.0001" width="1.25" height="1.25" transform="rotate(-180 13.75 25.0001)" fill="#6E3C3C"/>
<rect x="13.75" y="23.7502" width="1.25" height="1.25" transform="rotate(-180 13.75 23.7502)" fill="#6E3C3C"/>
<rect x="13.75" y="22.5002" width="1.25" height="1.25" transform="rotate(-180 13.75 22.5002)" fill="#6E3C3C"/>
<rect x="13.75" y="21.2502" width="1.25" height="1.25" transform="rotate(-180 13.75 21.2502)" fill="#6E3C3C"/>
<rect x="13.75" y="20.0002" width="1.25" height="1.25" transform="rotate(-180 13.75 20.0002)" fill="#6E3C3C"/>
<rect x="13.75" y="18.7502" width="1.25" height="1.25" transform="rotate(-180 13.75 18.7502)" fill="#6E3C3C"/>
<rect x="13.75" y="17.5002" width="1.25" height="1.25" transform="rotate(-180 13.75 17.5002)" fill="#6E3C3C"/>
<rect x="13.75" y="16.2502" width="1.25" height="1.25" transform="rotate(-180 13.75 16.2502)" fill="#6E3C3C"/>
<rect x="13.75" y="15.0002" width="1.25" height="1.25" transform="rotate(-180 13.75 15.0002)" fill="#6E3C3C"/>
<rect x="13.75" y="13.7501" width="1.25" height="1.25" transform="rotate(-180 13.75 13.7501)" fill="#6E3C3C"/>
<rect x="13.75" y="12.5002" width="1.25" height="1.25" transform="rotate(-180 13.75 12.5002)" fill="#6E3C3C"/>
<rect x="13.75" y="11.2502" width="1.25" height="1.25" transform="rotate(-180 13.75 11.2502)" fill="#6E3C3C"/>
<rect x="13.75" y="10.0001" width="1.25" height="1.25" transform="rotate(-180 13.75 10.0001)" fill="#6E3C3C"/>
<rect x="13.75" y="8.75024" width="1.25" height="1.25" transform="rotate(-180 13.75 8.75024)" fill="#6E3C3C"/>
<rect x="13.75" y="7.50024" width="1.25" height="1.25" transform="rotate(-180 13.75 7.50024)" fill="#6E3C3C"/>
<rect x="13.75" y="6.25012" width="1.25" height="1.25" transform="rotate(-180 13.75 6.25012)" fill="#6E3C3C"/>
<rect x="13.75" y="5.00024" width="1.25" height="1.25" transform="rotate(-180 13.75 5.00024)" fill="#6E3C3C"/>
<rect x="20" y="2.50024" width="1.25" height="1.25" transform="rotate(-180 20 2.50024)" fill="#6E3C3C"/>
<rect x="18.75" y="2.50024" width="1.25" height="1.25" transform="rotate(-180 18.75 2.50024)" fill="#6E3C3C"/>
<rect x="17.5" y="2.50024" width="1.25" height="1.25" transform="rotate(-180 17.5 2.50024)" fill="#6E3C3C"/>
<rect x="16.25" y="2.50024" width="1.25" height="1.25" transform="rotate(-180 16.25 2.50024)" fill="#6E3C3C"/>
<rect x="22.5" y="55.0001" width="1.25" height="1.25" transform="matrix(-1 0 0 -1 45 110)" fill="#6E3C3C"/>
<rect x="22.5" y="53.75" width="1.25" height="1.25" transform="rotate(-180 22.5 53.75)" fill="#6E3C3C"/>
<rect x="22.5" y="52.5002" width="1.25" height="1.25" transform="matrix(-1 0 0 -1 45 105)" fill="#6E3C3C"/>
<rect x="22.5" y="51.2501" width="1.25" height="1.25" transform="rotate(-180 22.5 51.2501)" fill="#6E3C3C"/>
<rect x="22.5" y="50" width="1.25" height="1.25" transform="rotate(-180 22.5 50)" fill="#6E3C3C"/>
<rect x="22.5" y="48.7502" width="1.25" height="1.25" transform="rotate(-180 22.5 48.7502)" fill="#6E3C3C"/>
<rect x="22.5" y="47.5001" width="1.25" height="1.25" transform="rotate(-180 22.5 47.5001)" fill="#6E3C3C"/>
<rect x="22.5" y="46.25" width="1.25" height="1.25" transform="rotate(-180 22.5 46.25)" fill="#6E3C3C"/>
<rect x="22.5" y="45.0002" width="1.25" height="1.25" transform="rotate(-180 22.5 45.0002)" fill="#6E3C3C"/>
<rect x="22.5" y="43.7501" width="1.25" height="1.25" transform="rotate(-180 22.5 43.7501)" fill="#6E3C3C"/>
<rect x="22.5" y="42.5" width="1.25" height="1.25" transform="rotate(-180 22.5 42.5)" fill="#6E3C3C"/>
<rect x="22.5" y="41.2502" width="1.25" height="1.25" transform="rotate(-180 22.5 41.2502)" fill="#6E3C3C"/>
<rect x="22.5" y="40.0001" width="1.25" height="1.25" transform="rotate(-180 22.5 40.0001)" fill="#6E3C3C"/>
<rect x="22.5" y="38.7502" width="1.25" height="1.25" transform="rotate(-180 22.5 38.7502)" fill="#6E3C3C"/>
<rect x="22.5" y="37.5002" width="1.25" height="1.25" transform="rotate(-180 22.5 37.5002)" fill="#6E3C3C"/>
<rect x="22.5" y="36.2501" width="1.25" height="1.25" transform="rotate(-180 22.5 36.2501)" fill="#6E3C3C"/>
<rect x="22.5" y="35" width="1.25" height="1.25" transform="rotate(-180 22.5 35)" fill="#6E3C3C"/>
<rect x="22.5" y="33.7502" width="1.25" height="1.25" transform="rotate(-180 22.5 33.7502)" fill="#6E3C3C"/>
<rect x="22.5" y="32.5001" width="1.25" height="1.25" transform="rotate(-180 22.5 32.5001)" fill="#6E3C3C"/>
<rect x="22.5" y="31.2502" width="1.25" height="1.25" transform="rotate(-180 22.5 31.2502)" fill="#6E3C3C"/>
<rect x="22.5" y="30.0002" width="1.25" height="1.25" transform="rotate(-180 22.5 30.0002)" fill="#6E3C3C"/>
<rect x="22.5" y="28.7501" width="1.25" height="1.25" transform="rotate(-180 22.5 28.7501)" fill="#6E3C3C"/>
<rect x="22.5" y="27.5002" width="1.25" height="1.25" transform="rotate(-180 22.5 27.5002)" fill="#6E3C3C"/>
<rect x="22.5" y="26.2502" width="1.25" height="1.25" transform="rotate(-180 22.5 26.2502)" fill="#6E3C3C"/>
<rect x="22.5" y="25.0001" width="1.25" height="1.25" transform="rotate(-180 22.5 25.0001)" fill="#6E3C3C"/>
<rect x="22.5" y="23.7502" width="1.25" height="1.25" transform="rotate(-180 22.5 23.7502)" fill="#6E3C3C"/>
<rect x="22.5" y="22.5002" width="1.25" height="1.25" transform="rotate(-180 22.5 22.5002)" fill="#6E3C3C"/>
<rect x="22.5" y="21.2502" width="1.25" height="1.25" transform="rotate(-180 22.5 21.2502)" fill="#6E3C3C"/>
<rect x="22.5" y="20.0002" width="1.25" height="1.25" transform="rotate(-180 22.5 20.0002)" fill="#6E3C3C"/>
<rect x="22.5" y="18.7502" width="1.25" height="1.25" transform="rotate(-180 22.5 18.7502)" fill="#6E3C3C"/>
<rect x="22.5" y="17.5002" width="1.25" height="1.25" transform="rotate(-180 22.5 17.5002)" fill="#6E3C3C"/>
<rect x="22.5" y="16.2502" width="1.25" height="1.25" transform="rotate(-180 22.5 16.2502)" fill="#6E3C3C"/>
<rect x="22.5" y="15.0002" width="1.25" height="1.25" transform="rotate(-180 22.5 15.0002)" fill="#6E3C3C"/>
<rect x="22.5" y="13.7501" width="1.25" height="1.25" transform="rotate(-180 22.5 13.7501)" fill="#6E3C3C"/>
<rect x="22.5" y="12.5002" width="1.25" height="1.25" transform="rotate(-180 22.5 12.5002)" fill="#6E3C3C"/>
<rect x="22.5" y="11.2502" width="1.25" height="1.25" transform="rotate(-180 22.5 11.2502)" fill="#6E3C3C"/>
<rect x="22.5" y="10.0001" width="1.25" height="1.25" transform="rotate(-180 22.5 10.0001)" fill="#6E3C3C"/>
<rect x="22.5" y="8.75024" width="1.25" height="1.25" transform="rotate(-180 22.5 8.75024)" fill="#6E3C3C"/>
<rect x="22.5" y="7.50024" width="1.25" height="1.25" transform="rotate(-180 22.5 7.50024)" fill="#6E3C3C"/>
<rect x="22.5" y="6.25012" width="1.25" height="1.25" transform="rotate(-180 22.5 6.25012)" fill="#6E3C3C"/>
<rect x="22.5" y="5.00024" width="1.25" height="1.25" transform="rotate(-180 22.5 5.00024)" fill="#6E3C3C"/>
<rect x="22.5" y="3.75024" width="1.25" height="1.25" transform="rotate(-180 22.5 3.75024)" fill="#6E3C3C"/>
<rect x="21.25" y="2.50024" width="1.25" height="1.25" transform="rotate(-180 21.25 2.50024)" fill="#6E3C3C"/>
<rect x="13.75" y="3.75024" width="1.25" height="1.25" transform="rotate(-180 13.75 3.75024)" fill="#6E3C3C"/>
<rect x="15" y="2.50024" width="1.25" height="1.25" transform="rotate(-180 15 2.50024)" fill="#6E3C3C"/>
<rect x="15" y="57.5002" width="1.25" height="1.25" transform="rotate(-180 15 57.5002)" fill="#6E3C3C"/>
<rect x="13.75" y="56.2502" width="1.25" height="1.25" transform="rotate(-180 13.75 56.2502)" fill="#6E3C3C"/>
<rect x="21.25" y="57.5002" width="1.25" height="1.25" transform="rotate(-180 21.25 57.5002)" fill="#6E3C3C"/>
<rect x="22.5" y="56.2502" width="1.25" height="1.25" transform="rotate(-180 22.5 56.2502)" fill="#6E3C3C"/>
<path d="M13.125 21.875L13.125 42.1875L15.625 25.75L20.125 21.875H13.125Z" fill="#5A1E1E"/>
<rect x="13.75" y="42.4999" width="1.25" height="1.25" transform="rotate(-180 13.75 42.4999)" fill="#5A1E1E"/>
<rect x="13.75" y="41.25" width="1.25" height="1.25" transform="rotate(-180 13.75 41.25)" fill="#5A1E1E"/>
<rect x="13.75" y="40" width="1.25" height="1.25" transform="rotate(-180 13.75 40)" fill="#5A1E1E"/>
<rect x="13.75" y="38.75" width="1.25" height="1.25" transform="rotate(-180 13.75 38.75)" fill="#5A1E1E"/>
<rect x="13.75" y="37.5" width="1.25" height="1.25" transform="rotate(-180 13.75 37.5)" fill="#5A1E1E"/>
<rect x="13.75" y="36.25" width="1.25" height="1.25" transform="rotate(-180 13.75 36.25)" fill="#5A1E1E"/>
<rect x="13.75" y="34.9999" width="1.25" height="1.25" transform="rotate(-180 13.75 34.9999)" fill="#5A1E1E"/>
<rect x="13.75" y="33.75" width="1.25" height="1.25" transform="rotate(-180 13.75 33.75)" fill="#5A1E1E"/>
<rect x="13.75" y="32.5" width="1.25" height="1.25" transform="rotate(-180 13.75 32.5)" fill="#5A1E1E"/>
<rect x="13.75" y="31.2499" width="1.25" height="1.25" transform="rotate(-180 13.75 31.2499)" fill="#5A1E1E"/>
<rect x="13.75" y="30" width="1.25" height="1.25" transform="rotate(-180 13.75 30)" fill="#5A1E1E"/>
<rect x="13.75" y="28.75" width="1.25" height="1.25" transform="rotate(-180 13.75 28.75)" fill="#5A1E1E"/>
<rect x="13.75" y="27.4999" width="1.25" height="1.25" transform="rotate(-180 13.75 27.4999)" fill="#5A1E1E"/>
<rect x="13.75" y="26.25" width="1.25" height="1.25" transform="rotate(-180 13.75 26.25)" fill="#5A1E1E"/>
<rect x="13.75" y="25" width="1.25" height="1.25" transform="rotate(-180 13.75 25)" fill="#5A1E1E"/>
<rect x="13.75" y="23.75" width="1.25" height="1.25" transform="rotate(-180 13.75 23.75)" fill="#5A1E1E"/>
<rect x="13.75" y="22.5001" width="1.25" height="1.25" transform="rotate(-180 13.75 22.5001)" fill="#5A1E1E"/>
<rect x="20" y="22.5001" width="1.25" height="1.25" transform="rotate(-180 20 22.5001)" fill="#5A1E1E"/>
<rect x="18.75" y="22.5001" width="1.25" height="1.25" transform="rotate(-180 18.75 22.5001)" fill="#5A1E1E"/>
<rect x="17.5" y="22.5001" width="1.25" height="1.25" transform="rotate(-180 17.5 22.5001)" fill="#5A1E1E"/>
<rect x="16.25" y="22.5001" width="1.25" height="1.25" transform="rotate(-180 16.25 22.5001)" fill="#5A1E1E"/>
<rect x="15" y="22.5001" width="1.25" height="1.25" transform="rotate(-180 15 22.5001)" fill="#5A1E1E"/>
<rect x="21.25" y="22.5001" width="1.25" height="1.25" transform="rotate(-180 21.25 22.5001)" fill="#5A1E1E"/>
<rect x="16.25" y="26.25" width="1.25" height="1.25" transform="rotate(-180 16.25 26.25)" fill="#5A1E1E"/>
<rect x="17.5" y="25" width="1.25" height="1.25" transform="rotate(-180 17.5 25)" fill="#5A1E1E"/>
<rect x="18.75" y="23.75" width="1.25" height="1.25" transform="rotate(-180 18.75 23.75)" fill="#5A1E1E"/>
<rect x="20" y="23.75" width="1.25" height="1.25" transform="rotate(-180 20 23.75)" fill="#5A1E1E"/>
<rect x="15" y="37.5" width="1.25" height="1.25" transform="rotate(-180 15 37.5)" fill="#5A1E1E"/>
<rect x="15" y="36.25" width="1.25" height="1.25" transform="rotate(-180 15 36.25)" fill="#5A1E1E"/>
<rect x="15" y="34.9999" width="1.25" height="1.25" transform="rotate(-180 15 34.9999)" fill="#5A1E1E"/>
<rect x="15" y="33.75" width="1.25" height="1.25" transform="rotate(-180 15 33.75)" fill="#5A1E1E"/>
<rect x="15" y="32.5" width="1.25" height="1.25" transform="rotate(-180 15 32.5)" fill="#5A1E1E"/>
<rect x="15" y="31.2499" width="1.25" height="1.25" transform="rotate(-180 15 31.2499)" fill="#5A1E1E"/>
<rect x="16.25" y="30" width="1.25" height="1.25" transform="rotate(-180 16.25 30)" fill="#5A1E1E"/>
<rect x="16.25" y="28.75" width="1.25" height="1.25" transform="rotate(-180 16.25 28.75)" fill="#5A1E1E"/>
<rect x="16.25" y="27.4999" width="1.25" height="1.25" transform="rotate(-180 16.25 27.4999)" fill="#5A1E1E"/>
<path d="M24.25 20C24.25 20.6904 23.6904 21.25 23 21.25H13C12.3096 21.25 11.75 20.6904 11.75 20V18.75C11.75 18.0596 12.3096 17.5 13 17.5H23C23.6904 17.5 24.25 18.0596 24.25 18.75V20Z" fill="#D9D9D9"/>
<rect x="22.9999" y="21.2499" width="1.25" height="1.25" transform="rotate(-180 22.9999 21.2499)" fill="#D9D9D9"/>
<rect x="21.7499" y="21.2499" width="1.25" height="1.25" transform="rotate(-180 21.7499 21.2499)" fill="#D9D9D9"/>
<rect x="20.4999" y="21.2499" width="1.25" height="1.25" transform="rotate(-180 20.4999 21.2499)" fill="#D9D9D9"/>
<rect x="19.2499" y="21.2499" width="1.25" height="1.25" transform="rotate(-180 19.2499 21.2499)" fill="#D9D9D9"/>
<rect x="17.9999" y="21.2499" width="1.25" height="1.25" transform="rotate(-180 17.9999 21.2499)" fill="#D9D9D9"/>
<rect x="16.7499" y="21.2499" width="1.25" height="1.25" transform="rotate(-180 16.7499 21.2499)" fill="#D9D9D9"/>
<rect x="15.4999" y="21.2499" width="1.25" height="1.25" transform="rotate(-180 15.4999 21.2499)" fill="#D9D9D9"/>
<rect x="14.2499" y="21.2499" width="1.25" height="1.25" transform="rotate(-180 14.2499 21.2499)" fill="#D9D9D9"/>
<rect x="12.9999" y="21.2499" width="1.25" height="1.25" transform="rotate(-180 12.9999 21.2499)" fill="#D9D9D9"/>
<rect x="11.7499" y="19.9998" width="1.25" height="1.25" transform="rotate(-180 11.7499 19.9998)" fill="#D9D9D9"/>
<rect x="11.7499" y="18.75" width="1.25" height="1.25" transform="rotate(-180 11.7499 18.75)" fill="#D9D9D9"/>
<rect x="22.9999" y="17.4999" width="1.25" height="1.25" transform="rotate(-180 22.9999 17.4999)" fill="#D9D9D9"/>
<rect x="21.7499" y="17.4999" width="1.25" height="1.25" transform="rotate(-180 21.7499 17.4999)" fill="#D9D9D9"/>
<rect x="20.4999" y="17.4999" width="1.25" height="1.25" transform="rotate(-180 20.4999 17.4999)" fill="#D9D9D9"/>
<rect x="19.2499" y="17.4999" width="1.25" height="1.25" transform="rotate(-180 19.2499 17.4999)" fill="#D9D9D9"/>
<rect x="17.9999" y="17.4999" width="1.25" height="1.25" transform="rotate(-180 17.9999 17.4999)" fill="#D9D9D9"/>
<rect x="16.7499" y="17.4999" width="1.25" height="1.25" transform="rotate(-180 16.7499 17.4999)" fill="#D9D9D9"/>
<rect x="15.4999" y="17.4999" width="1.25" height="1.25" transform="rotate(-180 15.4999 17.4999)" fill="#D9D9D9"/>
<rect x="14.2499" y="17.4999" width="1.25" height="1.25" transform="rotate(-180 14.2499 17.4999)" fill="#D9D9D9"/>
<rect x="12.9999" y="17.4999" width="1.25" height="1.25" transform="rotate(-180 12.9999 17.4999)" fill="#D9D9D9"/>
<rect x="24.2499" y="19.9998" width="1.25" height="1.25" transform="rotate(-180 24.2499 19.9998)" fill="#D9D9D9"/>
<rect x="24.2499" y="18.75" width="1.25" height="1.25" transform="rotate(-180 24.2499 18.75)" fill="#D9D9D9"/>
<rect x="24.2499" y="21.2499" width="1.25" height="1.25" transform="rotate(-180 24.2499 21.2499)" fill="#D9D9D9"/>
<rect x="12.9999" y="18.75" width="1.25" height="1.25" transform="rotate(-180 12.9999 18.75)" fill="#D9D9D9"/>
<path d="M23.7466 13.5607C23.8175 14.2474 23.3183 14.8616 22.6316 14.9325L12.6845 15.9596C11.9978 16.0305 11.3836 15.5313 11.3127 14.8446L11.1843 13.6012C11.1134 12.9145 11.6126 12.3003 12.2993 12.2294L22.2464 11.2023C22.9331 11.1314 23.5473 11.6306 23.6182 12.3173L23.7466 13.5607Z" fill="#D9D9D9"/>
<rect x="22.7565" y="14.9661" width="1.25" height="1.25" transform="rotate(174.105 22.7565 14.9661)" fill="#D9D9D9"/>
<rect x="21.5132" y="15.0945" width="1.25" height="1.25" transform="rotate(174.105 21.5132 15.0945)" fill="#D9D9D9"/>
<rect x="20.2698" y="15.2228" width="1.25" height="1.25" transform="rotate(174.105 20.2698 15.2228)" fill="#D9D9D9"/>
<rect x="19.0264" y="15.3512" width="1.25" height="1.25" transform="rotate(174.105 19.0264 15.3512)" fill="#D9D9D9"/>
<rect x="17.783" y="15.4797" width="1.25" height="1.25" transform="rotate(174.105 17.783 15.4797)" fill="#D9D9D9"/>
<rect x="16.5396" y="15.608" width="1.25" height="1.25" transform="rotate(174.105 16.5396 15.608)" fill="#D9D9D9"/>
<rect x="15.2962" y="15.7365" width="1.25" height="1.25" transform="rotate(174.105 15.2962 15.7365)" fill="#D9D9D9"/>
<rect x="14.0529" y="15.8647" width="1.25" height="1.25" transform="rotate(174.105 14.0529 15.8647)" fill="#D9D9D9"/>
<rect x="12.8094" y="15.9932" width="1.25" height="1.25" transform="rotate(174.105 12.8094 15.9932)" fill="#D9D9D9"/>
<rect x="11.4377" y="14.8782" width="1.25" height="1.25" transform="rotate(174.105 11.4377 14.8782)" fill="#D9D9D9"/>
<rect x="11.3093" y="13.6348" width="1.25" height="1.25" transform="rotate(174.105 11.3093 13.6348)" fill="#D9D9D9"/>
<rect x="22.3714" y="11.236" width="1.25" height="1.25" transform="rotate(174.105 22.3714 11.236)" fill="#D9D9D9"/>
<rect x="21.128" y="11.3643" width="1.25" height="1.25" transform="rotate(174.105 21.128 11.3643)" fill="#D9D9D9"/>
<rect x="19.8846" y="11.4928" width="1.25" height="1.25" transform="rotate(174.105 19.8846 11.4928)" fill="#D9D9D9"/>
<rect x="18.6412" y="11.6211" width="1.25" height="1.25" transform="rotate(174.105 18.6412 11.6211)" fill="#D9D9D9"/>
<rect x="17.3978" y="11.7495" width="1.25" height="1.25" transform="rotate(174.105 17.3978 11.7495)" fill="#D9D9D9"/>
<rect x="16.1544" y="11.8779" width="1.25" height="1.25" transform="rotate(174.105 16.1544 11.8779)" fill="#D9D9D9"/>
<rect x="14.9111" y="12.0062" width="1.25" height="1.25" transform="rotate(174.105 14.9111 12.0062)" fill="#D9D9D9"/>
<rect x="13.6677" y="12.1348" width="1.25" height="1.25" transform="rotate(174.105 13.6677 12.1348)" fill="#D9D9D9"/>
<rect x="12.4243" y="12.2632" width="1.25" height="1.25" transform="rotate(174.105 12.4243 12.2632)" fill="#D9D9D9"/>
<rect x="23.8715" y="13.5944" width="1.25" height="1.25" transform="rotate(174.105 23.8715 13.5944)" fill="#D9D9D9"/>
<rect x="23.7432" y="12.3508" width="1.25" height="1.25" transform="rotate(174.105 23.7432 12.3508)" fill="#D9D9D9"/>
<rect x="12.5527" y="13.5063" width="1.25" height="1.25" transform="rotate(174.105 12.5527 13.5063)" fill="#D9D9D9"/>
<rect x="23.9999" y="14.8375" width="1.25" height="1.25" transform="rotate(174.105 23.9999 14.8375)" fill="#D9D9D9"/>
<path d="M23.3268 8.50794C23.3251 9.19829 22.7641 9.75658 22.0737 9.7549L12.0738 9.73064C11.3834 9.72896 10.8251 9.16796 10.8268 8.47761L10.8298 7.22761C10.8315 6.53726 11.3925 5.97897 12.0829 5.98065L22.0828 6.00491C22.7732 6.00659 23.3315 6.56759 23.3298 7.25794L23.3268 8.50794Z" fill="#D9D9D9"/>
<rect x="22.4878" y="10.9966" width="1.25" height="1.25" transform="rotate(-179.861 22.4878 10.9966)" fill="#D9D9D9"/>
<rect x="21.2378" y="10.9934" width="1.25" height="1.25" transform="rotate(-179.861 21.2378 10.9934)" fill="#D9D9D9"/>
<rect x="19.9878" y="10.9906" width="1.25" height="1.25" transform="rotate(-179.861 19.9878 10.9906)" fill="#D9D9D9"/>
<rect x="18.7378" y="10.9875" width="1.25" height="1.25" transform="rotate(-179.861 18.7378 10.9875)" fill="#D9D9D9"/>
<rect x="17.4878" y="10.9845" width="1.25" height="1.25" transform="rotate(-179.861 17.4878 10.9845)" fill="#D9D9D9"/>
<rect x="16.2378" y="10.9813" width="1.25" height="1.25" transform="rotate(-179.861 16.2378 10.9813)" fill="#D9D9D9"/>
<rect x="14.9878" y="10.9784" width="1.25" height="1.25" transform="rotate(-179.861 14.9878 10.9784)" fill="#D9D9D9"/>
<rect x="13.7378" y="10.9753" width="1.25" height="1.25" transform="rotate(-179.861 13.7378 10.9753)" fill="#D9D9D9"/>
<rect x="12.4879" y="10.9724" width="1.25" height="1.25" transform="rotate(-179.861 12.4879 10.9724)" fill="#D9D9D9"/>
<rect x="11.2439" y="8.46936" width="1.25" height="1.25" transform="rotate(-179.861 11.2439 8.46936)" fill="#D9D9D9"/>
<rect x="11.2408" y="9.71936" width="1.25" height="1.25" transform="rotate(-179.861 11.2408 9.71936)" fill="#D9D9D9"/>
<rect x="22.4969" y="7.24658" width="1.25" height="1.25" transform="rotate(-179.861 22.4969 7.24658)" fill="#D9D9D9"/>
<rect x="21.2469" y="7.24365" width="1.25" height="1.25" transform="rotate(-179.861 21.2469 7.24365)" fill="#D9D9D9"/>
<rect x="19.9969" y="7.2406" width="1.25" height="1.25" transform="rotate(-179.861 19.9969 7.2406)" fill="#D9D9D9"/>
<rect x="18.7469" y="7.23755" width="1.25" height="1.25" transform="rotate(-179.861 18.7469 7.23755)" fill="#D9D9D9"/>
<rect x="17.4969" y="7.2345" width="1.25" height="1.25" transform="rotate(-179.861 17.4969 7.2345)" fill="#D9D9D9"/>
<rect x="16.2469" y="7.23157" width="1.25" height="1.25" transform="rotate(-179.861 16.2469 7.23157)" fill="#D9D9D9"/>
<rect x="14.9969" y="7.22852" width="1.25" height="1.25" transform="rotate(-179.861 14.9969 7.22852)" fill="#D9D9D9"/>
<rect x="13.7469" y="7.22534" width="1.25" height="1.25" transform="rotate(-179.861 13.7469 7.22534)" fill="#D9D9D9"/>
<rect x="12.4969" y="7.22241" width="1.25" height="1.25" transform="rotate(-179.861 12.4969 7.22241)" fill="#D9D9D9"/>
<rect x="23.7438" y="8.49976" width="1.25" height="1.25" transform="rotate(-179.861 23.7438 8.49976)" fill="#D9D9D9"/>
<rect x="23.7408" y="9.74963" width="1.25" height="1.25" transform="rotate(-179.861 23.7408 9.74963)" fill="#D9D9D9"/>
<rect x="23.7469" y="7.24976" width="1.25" height="1.25" transform="rotate(-179.861 23.7469 7.24976)" fill="#D9D9D9"/>
<rect x="11.2469" y="7.21948" width="1.25" height="1.25" transform="rotate(-179.861 11.2469 7.21948)" fill="#D9D9D9"/>
<rect x="12.4908" y="9.72241" width="1.25" height="1.25" transform="rotate(-179.861 12.4908 9.72241)" fill="#D9D9D9"/>
<path d="M21.5625 17.1875H13.0625L11.9375 19.125L22 18.1875L19 19.6875" stroke="#CFBCB8" stroke-width="0.25"/>
<rect x="21.25" y="17.5" width="1.25" height="1.25" transform="rotate(-180 21.25 17.5)" fill="#CFBCB8"/>
<rect x="20" y="17.5" width="1.25" height="1.25" transform="rotate(-180 20 17.5)" fill="#CFBCB8"/>
<rect x="18.75" y="17.5" width="1.25" height="1.25" transform="rotate(-180 18.75 17.5)" fill="#CFBCB8"/>
<rect x="17.5" y="17.5" width="1.25" height="1.25" transform="rotate(-180 17.5 17.5)" fill="#CFBCB8"/>
<rect x="16.25" y="17.5" width="1.25" height="1.25" transform="rotate(-180 16.25 17.5)" fill="#CFBCB8"/>
<rect x="15" y="17.5" width="1.25" height="1.25" transform="rotate(-180 15 17.5)" fill="#CFBCB8"/>
<rect x="13.75" y="17.5" width="1.25" height="1.25" transform="rotate(-180 13.75 17.5)" fill="#CFBCB8"/>
<rect x="22.5" y="17.5" width="1.25" height="1.25" transform="rotate(-180 22.5 17.5)" fill="#CFBCB8"/>
<rect x="13.75" y="18.75" width="1.25" height="1.25" transform="rotate(-180 13.75 18.75)" fill="#CFBCB8"/>
<rect x="12.5" y="19.9999" width="1.25" height="1.25" transform="rotate(-180 12.5 19.9999)" fill="#CFBCB8"/>
<rect x="22.5" y="18.75" width="1.25" height="1.25" transform="rotate(-180 22.5 18.75)" fill="#CFBCB8"/>
<rect x="21.25" y="18.75" width="1.25" height="1.25" transform="rotate(-180 21.25 18.75)" fill="#CFBCB8"/>
<rect x="20" y="18.75" width="1.25" height="1.25" transform="rotate(-180 20 18.75)" fill="#CFBCB8"/>
<rect x="18.75" y="18.75" width="1.25" height="1.25" transform="rotate(-180 18.75 18.75)" fill="#CFBCB8"/>
<rect x="17.5" y="18.75" width="1.25" height="1.25" transform="rotate(-180 17.5 18.75)" fill="#CFBCB8"/>
<rect x="16.25" y="19.9999" width="1.25" height="1.25" transform="rotate(-180 16.25 19.9999)" fill="#CFBCB8"/>
<rect x="15" y="19.9999" width="1.25" height="1.25" transform="rotate(-180 15 19.9999)" fill="#CFBCB8"/>
<rect x="13.75" y="19.9999" width="1.25" height="1.25" transform="rotate(-180 13.75 19.9999)" fill="#CFBCB8"/>
<rect x="20" y="19.9999" width="1.25" height="1.25" transform="rotate(-180 20 19.9999)" fill="#CFBCB8"/>
<rect x="21.25" y="19.9999" width="1.25" height="1.25" transform="rotate(-180 21.25 19.9999)" fill="#CFBCB8"/>
<path d="M21.125 10.875L13.625 11.8125L17.875 12.9375L13.625 13.5625" stroke="#CFBCB8" stroke-width="0.25"/>
<rect x="21.25" y="11.2498" width="1.25" height="1.25" transform="rotate(-180 21.25 11.2498)" fill="#CFBCB8"/>
<rect x="20" y="11.2498" width="1.25" height="1.25" transform="rotate(-180 20 11.2498)" fill="#CFBCB8"/>
<rect x="18.75" y="11.2498" width="1.25" height="1.25" transform="rotate(-180 18.75 11.2498)" fill="#CFBCB8"/>
<rect x="17.5" y="12.4998" width="1.25" height="1.25" transform="rotate(-180 17.5 12.4998)" fill="#CFBCB8"/>
<rect x="16.25" y="12.4998" width="1.25" height="1.25" transform="rotate(-180 16.25 12.4998)" fill="#CFBCB8"/>
<rect x="15" y="12.4998" width="1.25" height="1.25" transform="rotate(-180 15 12.4998)" fill="#CFBCB8"/>
<rect x="13.75" y="12.4998" width="1.25" height="1.25" transform="rotate(-180 13.75 12.4998)" fill="#CFBCB8"/>
<rect x="17.5" y="13.7498" width="1.25" height="1.25" transform="rotate(-180 17.5 13.7498)" fill="#CFBCB8"/>
<rect x="18.75" y="13.7498" width="1.25" height="1.25" transform="rotate(-180 18.75 13.7498)" fill="#CFBCB8"/>
<rect x="16.25" y="13.7498" width="1.25" height="1.25" transform="rotate(-180 16.25 13.7498)" fill="#CFBCB8"/>
<rect x="15" y="13.7498" width="1.25" height="1.25" transform="rotate(-180 15 13.7498)" fill="#CFBCB8"/>
<rect x="13.75" y="13.7498" width="1.25" height="1.25" transform="rotate(-180 13.75 13.7498)" fill="#CFBCB8"/>
<path d="M22.25 6.87524L12 8.25024L19.6875 9.06274L15.5625 10.1877" stroke="#CFBCB8" stroke-width="0.25"/>
<rect x="13.75" y="8.75024" width="1.25" height="1.25" transform="rotate(-180 13.75 8.75024)" fill="#CFBCB8"/>
<rect x="22.5" y="7.50024" width="1.25" height="1.25" transform="rotate(-180 22.5 7.50024)" fill="#CFBCB8"/>
<rect x="21.25" y="7.50024" width="1.25" height="1.25" transform="rotate(-180 21.25 7.50024)" fill="#CFBCB8"/>
<rect x="20" y="7.50024" width="1.25" height="1.25" transform="rotate(-180 20 7.50024)" fill="#CFBCB8"/>
<rect x="18.75" y="7.50024" width="1.25" height="1.25" transform="rotate(-180 18.75 7.50024)" fill="#CFBCB8"/>
<rect x="17.5" y="8.75024" width="1.25" height="1.25" transform="rotate(-180 17.5 8.75024)" fill="#CFBCB8"/>
<rect x="16.25" y="8.75024" width="1.25" height="1.25" transform="rotate(-180 16.25 8.75024)" fill="#CFBCB8"/>
<rect x="15" y="8.75024" width="1.25" height="1.25" transform="rotate(-180 15 8.75024)" fill="#CFBCB8"/>
<rect x="12.5" y="8.75024" width="1.25" height="1.25" transform="rotate(-180 12.5 8.75024)" fill="#CFBCB8"/>
<rect x="20" y="10.0002" width="1.25" height="1.25" transform="rotate(-180 20 10.0002)" fill="#CFBCB8"/>
<rect x="18.75" y="10.0002" width="1.25" height="1.25" transform="rotate(-180 18.75 10.0002)" fill="#CFBCB8"/>
<rect x="17.5" y="10.0002" width="1.25" height="1.25" transform="rotate(-180 17.5 10.0002)" fill="#CFBCB8"/>
<rect x="16.25" y="11.2502" width="1.25" height="1.25" transform="rotate(-180 16.25 11.2502)" fill="#CFBCB8"/>
<path d="M13.5625 5.50024L21.5625 5.50024L14.625 2.43774L13.5625 5.50024Z" fill="#5A1E1E"/>
<rect x="21.25" y="6.25" width="1.25" height="1.25" transform="rotate(-180 21.25 6.25)" fill="#5A1E1E"/>
<rect x="20" y="6.25" width="1.25" height="1.25" transform="rotate(-180 20 6.25)" fill="#5A1E1E"/>
<rect x="18.75" y="6.25" width="1.25" height="1.25" transform="rotate(-180 18.75 6.25)" fill="#5A1E1E"/>
<rect x="17.5" y="6.25" width="1.25" height="1.25" transform="rotate(-180 17.5 6.25)" fill="#5A1E1E"/>
<rect x="16.25" y="6.25" width="1.25" height="1.25" transform="rotate(-180 16.25 6.25)" fill="#5A1E1E"/>
<rect x="15" y="6.25" width="1.25" height="1.25" transform="rotate(-180 15 6.25)" fill="#5A1E1E"/>
<rect x="22.5002" y="6.25" width="1.25" height="1.25" transform="rotate(-180 22.5002 6.25)" fill="#5A1E1E"/>
<rect x="13.75" y="6.25" width="1.25" height="1.25" transform="rotate(-180 13.75 6.25)" fill="#5A1E1E"/>
<rect x="15" y="5" width="1.25" height="1.25" transform="rotate(-180 15 5)" fill="#5A1E1E"/>
<rect x="15" y="3.75" width="1.25" height="1.25" transform="rotate(-180 15 3.75)" fill="#5A1E1E"/>
<rect x="15" y="2.5" width="1.25" height="1.25" transform="rotate(-180 15 2.5)" fill="#5A1E1E"/>
<rect x="20" y="5" width="1.25" height="1.25" transform="rotate(-180 20 5)" fill="#5A1E1E"/>
<rect x="16.25" y="3.75" width="1.25" height="1.25" transform="rotate(-180 16.25 3.75)" fill="#5A1E1E"/>
<rect x="18.75" y="5" width="1.25" height="1.25" transform="rotate(-180 18.75 5)" fill="#5A1E1E"/>
<rect x="17.5" y="3.75" width="1.25" height="1.25" transform="rotate(-180 17.5 3.75)" fill="#5A1E1E"/>
<path d="M21.8125 49.2499L21.8125 30.0624" stroke="#A17952" stroke-width="0.25"/>
<rect x="22.5" y="48.75" width="1.25" height="1.25" transform="rotate(-180 22.5 48.75)" fill="#A17952"/>
<rect x="22.5" y="47.5" width="1.25" height="1.25" transform="rotate(-180 22.5 47.5)" fill="#A17952"/>
<rect x="22.5" y="46.2499" width="1.25" height="1.25" transform="rotate(-180 22.5 46.2499)" fill="#A17952"/>
<rect x="22.5" y="45" width="1.25" height="1.25" transform="rotate(-180 22.5 45)" fill="#A17952"/>
<rect x="22.5" y="43.75" width="1.25" height="1.25" transform="rotate(-180 22.5 43.75)" fill="#A17952"/>
<rect x="22.5" y="42.4999" width="1.25" height="1.25" transform="rotate(-180 22.5 42.4999)" fill="#A17952"/>
<rect x="22.5" y="41.25" width="1.25" height="1.25" transform="rotate(-180 22.5 41.25)" fill="#A17952"/>
<rect x="22.5" y="40" width="1.25" height="1.25" transform="rotate(-180 22.5 40)" fill="#A17952"/>
<rect x="22.5" y="38.75" width="1.25" height="1.25" transform="rotate(-180 22.5 38.75)" fill="#A17952"/>
<rect x="22.5" y="37.5" width="1.25" height="1.25" transform="rotate(-180 22.5 37.5)" fill="#A17952"/>
<rect x="22.5" y="36.25" width="1.25" height="1.25" transform="rotate(-180 22.5 36.25)" fill="#A17952"/>
<rect x="22.5" y="34.9999" width="1.25" height="1.25" transform="rotate(-180 22.5 34.9999)" fill="#A17952"/>
<rect x="22.5" y="33.75" width="1.25" height="1.25" transform="rotate(-180 22.5 33.75)" fill="#A17952"/>
<rect x="22.5" y="32.5" width="1.25" height="1.25" transform="rotate(-180 22.5 32.5)" fill="#A17952"/>
<rect x="22.5" y="31.2499" width="1.25" height="1.25" transform="rotate(-180 22.5 31.2499)" fill="#A17952"/>
<rect x="22.5" y="50" width="1.25" height="1.25" transform="rotate(-180 22.5 50)" fill="#A17952"/>
<path d="M23.375 20.125V18.375L21.3125 20.125H18" stroke="#F6F6F6" stroke-width="0.25"/>
<rect x="23.75" y="20" width="1.25" height="1.25" transform="rotate(-180 23.75 20)" fill="#F6F6F6"/>
<rect x="23.75" y="21.25" width="1.25" height="1.25" transform="rotate(-180 23.75 21.25)" fill="#F6F6F6"/>
<rect x="23.75" y="18.75" width="1.25" height="1.25" transform="rotate(-180 23.75 18.75)" fill="#F6F6F6"/>
<rect x="22.5" y="20" width="1.25" height="1.25" transform="rotate(-180 22.5 20)" fill="#F6F6F6"/>
<rect x="22.5" y="21.25" width="1.25" height="1.25" transform="rotate(-180 22.5 21.25)" fill="#F6F6F6"/>
<rect x="21.25" y="21.25" width="1.25" height="1.25" transform="rotate(-180 21.25 21.25)" fill="#F6F6F6"/>
<rect x="20" y="21.25" width="1.25" height="1.25" transform="rotate(-180 20 21.25)" fill="#F6F6F6"/>
<rect x="18.75" y="21.25" width="1.25" height="1.25" transform="rotate(-180 18.75 21.25)" fill="#F6F6F6"/>
<rect x="20" y="15.0002" width="1.25" height="1.25" transform="rotate(-180 20 15.0002)" fill="#F6F6F6"/>
<rect x="22.5" y="13.7502" width="1.25" height="1.25" transform="rotate(-180 22.5 13.7502)" fill="#F6F6F6"/>
<rect x="21.25" y="15.0002" width="1.25" height="1.25" transform="rotate(-180 21.25 15.0002)" fill="#F6F6F6"/>
<rect x="18.75" y="15.0002" width="1.25" height="1.25" transform="rotate(-180 18.75 15.0002)" fill="#F6F6F6"/>
<rect x="17.5" y="15.0002" width="1.25" height="1.25" transform="rotate(-180 17.5 15.0002)" fill="#F6F6F6"/>
<path d="M23.1875 8.25V6.4375" stroke="#F6F6F6" stroke-width="0.25"/>
<rect x="23.75" y="8.75" width="1.25" height="1.25" transform="rotate(-180 23.75 8.75)" fill="#F6F6F6"/>
<rect x="23.75" y="7.49976" width="1.25" height="1.25" transform="rotate(-180 23.75 7.49976)" fill="#F6F6F6"/>
<path d="M35.625 53.7499V42.8749" stroke="#FFF7F4" stroke-width="0.25"/>
<rect x="36.25" y="53.75" width="1.25" height="1.25" transform="rotate(-180 36.25 53.75)" fill="#FFF7F4"/>
<rect x="36.25" y="52.5" width="1.25" height="1.25" transform="rotate(-180 36.25 52.5)" fill="#FFF7F4"/>
<rect x="36.25" y="51.25" width="1.25" height="1.25" transform="rotate(-180 36.25 51.25)" fill="#FFF7F4"/>
<rect x="36.25" y="49.9999" width="1.25" height="1.25" transform="rotate(-180 36.25 49.9999)" fill="#FFF7F4"/>
<rect x="36.25" y="48.75" width="1.25" height="1.25" transform="rotate(-180 36.25 48.75)" fill="#FFF7F4"/>
<rect x="36.25" y="47.5" width="1.25" height="1.25" transform="rotate(-180 36.25 47.5)" fill="#FFF7F4"/>
<rect x="36.25" y="46.2499" width="1.25" height="1.25" transform="rotate(-180 36.25 46.2499)" fill="#FFF7F4"/>
<rect x="36.25" y="45" width="1.25" height="1.25" transform="rotate(-180 36.25 45)" fill="#FFF7F4"/>
<rect x="36.25" y="43.75" width="1.25" height="1.25" transform="rotate(-180 36.25 43.75)" fill="#FFF7F4"/>
<rect x="36.25" y="56.25" width="1.25" height="1.25" transform="rotate(-180 36.25 56.25)" fill="#504541"/>
<rect x="35" y="56.25" width="1.25" height="1.25" transform="rotate(-180 35 56.25)" fill="#504541"/>
<rect x="33.75" y="56.25" width="1.25" height="1.25" transform="rotate(-180 33.75 56.25)" fill="#504541"/>
<rect x="32.5" y="56.25" width="1.25" height="1.25" transform="rotate(-180 32.5 56.25)" fill="#504541"/>
<rect x="31.25" y="56.25" width="1.25" height="1.25" transform="rotate(-180 31.25 56.25)" fill="#504541"/>
<rect x="30" y="56.25" width="1.25" height="1.25" transform="rotate(-180 30 56.25)" fill="#504541"/>
<rect x="28.75" y="56.25" width="1.25" height="1.25" transform="rotate(-180 28.75 56.25)" fill="#504541"/>
<rect x="27.5" y="56.25" width="1.25" height="1.25" transform="rotate(-180 27.5 56.25)" fill="#504541"/>
<rect x="26.25" y="56.25" width="1.25" height="1.25" transform="rotate(-180 26.25 56.25)" fill="#504541"/>
<rect x="25" y="56.25" width="1.25" height="1.25" transform="rotate(-180 25 56.25)" fill="#504541"/>
<rect x="23.75" y="56.25" width="1.25" height="1.25" transform="rotate(-180 23.75 56.25)" fill="#504541"/>
<rect x="22.5" y="57.5001" width="1.25" height="1.25" transform="matrix(-1 0 0 -1 45 115)" fill="#504541"/>
<rect x="21.25" y="58.75" width="1.25" height="1.25" transform="rotate(-180 21.25 58.75)" fill="#504541"/>
<rect x="20" y="58.75" width="1.25" height="1.25" transform="rotate(-180 20 58.75)" fill="#504541"/>
<rect x="18.75" y="58.75" width="1.25" height="1.25" transform="rotate(-180 18.75 58.75)" fill="#504541"/>
<rect x="17.5" y="58.75" width="1.25" height="1.25" transform="rotate(-180 17.5 58.75)" fill="#504541"/>
<rect x="16.25" y="58.75" width="1.25" height="1.25" transform="rotate(-180 16.25 58.75)" fill="#504541"/>
<rect x="15" y="58.75" width="1.25" height="1.25" transform="rotate(-180 15 58.75)" fill="#504541"/>
<rect x="13.75" y="57.5001" width="1.25" height="1.25" transform="rotate(-180 13.75 57.5001)" fill="#504541"/>
<rect x="12.5" y="56.25" width="1.25" height="1.25" transform="rotate(-180 12.5 56.25)" fill="#504541"/>
<rect x="11.25" y="56.25" width="1.25" height="1.25" transform="rotate(-180 11.25 56.25)" fill="#504541"/>
<rect x="10" y="56.25" width="1.25" height="1.25" transform="rotate(-180 10 56.25)" fill="#504541"/>
<rect x="8.75" y="56.25" width="1.25" height="1.25" transform="rotate(-180 8.75 56.25)" fill="#504541"/>
<rect x="7.5" y="56.25" width="1.25" height="1.25" transform="rotate(-180 7.5 56.25)" fill="#504541"/>
<rect x="6.25" y="56.25" width="1.25" height="2.75" transform="rotate(-180 6.25 56.25)" fill="#504541"/>
<rect x="5" y="55" width="1.25" height="2.5" transform="rotate(-180 5 55)" fill="#504541"/>
<rect x="3.75" y="53.75" width="1.25" height="2.5" transform="rotate(-180 3.75 53.75)" fill="#504541"/>
<rect x="2.5" y="52.5" width="1.25" height="2.5" transform="rotate(-180 2.5 52.5)" fill="#504541"/>
<rect x="1.25" y="51.25" width="1.25" height="1.25" transform="rotate(-180 1.25 51.25)" fill="#504541"/>
<rect x="1.25" y="50" width="1.25" height="1.25" transform="rotate(-180 1.25 50)" fill="#504541"/>
<rect x="1.25" y="48.75" width="1.25" height="1.25" transform="rotate(-180 1.25 48.75)" fill="#504541"/>
<rect x="1.25" y="47.5" width="1.25" height="1.25" transform="rotate(-180 1.25 47.5)" fill="#504541"/>
<rect x="5" y="46.25" width="2.5" height="1.25" transform="rotate(-180 5 46.25)" fill="#504541"/>
<rect x="5" y="45" width="1.25" height="1.25" transform="rotate(-180 5 45)" fill="#504541"/>
<rect x="2.5" y="47.5" width="1.25" height="2.5" transform="rotate(-180 2.5 47.5)" fill="#504541"/>
<rect x="6.25" y="45" width="1.25" height="1.25" transform="rotate(-180 6.25 45)" fill="#504541"/>
<rect x="6.25" y="43.75" width="1.25" height="1.25" transform="rotate(-180 6.25 43.75)" fill="#504541"/>
<rect x="11.25" y="43.75" width="1.25" height="1.25" transform="rotate(-180 11.25 43.75)" fill="#504541"/>
<rect x="10" y="43.75" width="1.25" height="1.25" transform="rotate(-180 10 43.75)" fill="#504541"/>
<rect x="8.75" y="43.75" width="1.25" height="1.25" transform="rotate(-180 8.75 43.75)" fill="#504541"/>
<rect x="7.5" y="43.75" width="1.25" height="1.25" transform="rotate(-180 7.5 43.75)" fill="#504541"/>
<rect x="12.5" y="42.5" width="1.25" height="1.25" transform="rotate(-180 12.5 42.5)" fill="#504541"/>
<rect x="12.5" y="41.25" width="1.25" height="1.25" transform="rotate(-180 12.5 41.25)" fill="#504541"/>
<rect x="12.5" y="40" width="1.25" height="1.25" transform="rotate(-180 12.5 40)" fill="#504541"/>
<rect x="12.5" y="38.7501" width="1.25" height="1.25" transform="rotate(-180 12.5 38.7501)" fill="#504541"/>
<rect x="12.5" y="37.5" width="1.25" height="1.25" transform="rotate(-180 12.5 37.5)" fill="#504541"/>
<rect x="12.5" y="36.25" width="1.25" height="1.25" transform="rotate(-180 12.5 36.25)" fill="#504541"/>
<rect x="12.5" y="35" width="1.25" height="1.25" transform="rotate(-180 12.5 35)" fill="#504541"/>
<rect x="12.5" y="33.75" width="1.25" height="1.25" transform="rotate(-180 12.5 33.75)" fill="#504541"/>
<rect x="12.5" y="32.5" width="1.25" height="1.25" transform="rotate(-180 12.5 32.5)" fill="#504541"/>
<rect x="12.5" y="31.25" width="1.25" height="1.25" transform="rotate(-180 12.5 31.25)" fill="#504541"/>
<rect x="12.5" y="30" width="1.25" height="1.25" transform="rotate(-180 12.5 30)" fill="#504541"/>
<rect x="12.5" y="28.75" width="1.25" height="1.25" transform="rotate(-180 12.5 28.75)" fill="#504541"/>
<rect x="12.5" y="27.5" width="1.25" height="1.25" transform="rotate(-180 12.5 27.5)" fill="#504541"/>
<rect x="12.5" y="26.25" width="1.25" height="1.25" transform="rotate(-180 12.5 26.25)" fill="#504541"/>
<rect x="12.5" y="25" width="1.25" height="1.25" transform="rotate(-180 12.5 25)" fill="#504541"/>
<rect x="12.5" y="23.75" width="1.25" height="1.25" transform="rotate(-180 12.5 23.75)" fill="#504541"/>
<rect x="12.5" y="22.5" width="1.25" height="1.25" transform="rotate(-180 12.5 22.5)" fill="#504541"/>
<rect x="11.75" y="21.8751" width="1.75" height="1.875" transform="rotate(-180 11.75 21.8751)" fill="#504541"/>
<rect x="10" y="20" width="1.25" height="1.25" transform="rotate(-180 10 20)" fill="#504541"/>
<rect x="11.25" y="20" width="1.25" height="1.25" transform="rotate(-180 11.25 20)" fill="#504541"/>
<rect x="11.25" y="18.75" width="1.25" height="1.25" transform="rotate(-180 11.25 18.75)" fill="#504541"/>
<rect x="12.5" y="17.5" width="1.25" height="1.25" transform="rotate(-180 12.5 17.5)" fill="#504541"/>
<rect x="11.25" y="17.5" width="1.25" height="1.25" transform="rotate(-180 11.25 17.5)" fill="#504541"/>
<rect x="11.25" y="16.25" width="1.25" height="1.25" transform="rotate(-180 11.25 16.25)" fill="#504541"/>
<rect x="11.25" y="15" width="1.25" height="1.25" transform="rotate(-180 11.25 15)" fill="#504541"/>
<rect x="10" y="15" width="1.25" height="1.25" transform="rotate(-180 10 15)" fill="#504541"/>
<rect x="11.25" y="13.75" width="1.25" height="1.25" transform="rotate(-180 11.25 13.75)" fill="#504541"/>
<rect x="11.25" y="12.5" width="1.25" height="1.25" transform="rotate(-180 11.25 12.5)" fill="#504541"/>
<rect x="12.5" y="12.5" width="1.25" height="1.25" transform="rotate(-180 12.5 12.5)" fill="#504541"/>
<rect x="11.25" y="11.25" width="1.25" height="1.25" transform="rotate(-180 11.25 11.25)" fill="#504541"/>
<rect x="10.125" y="10.375" width="1.375" height="1.625" transform="rotate(-180 10.125 10.375)" fill="#504541"/>
<rect x="10" y="8.75" width="1.25" height="1.25" transform="rotate(-180 10 8.75)" fill="#504541"/>
<rect x="11.25" y="7.49988" width="1.25" height="2" transform="rotate(-180 11.25 7.49988)" fill="#504541"/>
<rect x="12.5" y="6.25" width="1.25" height="1.25" transform="rotate(-180 12.5 6.25)" fill="#504541"/>
<rect x="12.5" y="5.00012" width="1.25" height="1.25" transform="rotate(-180 12.5 5.00012)" fill="#504541"/>
<rect x="12.5" y="3.75" width="1.25" height="1.25" transform="rotate(-180 12.5 3.75)" fill="#504541"/>
<rect x="13.75" y="2.5" width="1.25" height="1.25" transform="rotate(-180 13.75 2.5)" fill="#504541"/>
<rect x="13.75" y="1.25" width="1.25" height="1.25" transform="rotate(-180 13.75 1.25)" fill="#504541"/>
<rect x="18.75" y="1.25" width="1.25" height="1.25" transform="rotate(-180 18.75 1.25)" fill="#504541"/>
<rect x="21.25" y="1.25" width="1.25" height="1.25" transform="rotate(-180 21.25 1.25)" fill="#504541"/>
<rect x="20" y="1.25" width="1.25" height="1.25" transform="rotate(-180 20 1.25)" fill="#504541"/>
<rect x="17.5" y="1.25" width="1.25" height="1.25" transform="rotate(-180 17.5 1.25)" fill="#504541"/>
<rect x="16.25" y="1.25" width="1.25" height="1.25" transform="rotate(-180 16.25 1.25)" fill="#504541"/>
<rect x="15" y="1.25" width="1.25" height="1.25" transform="rotate(-180 15 1.25)" fill="#504541"/>
<rect x="22.5" y="1.25" width="1.25" height="1.25" transform="rotate(-180 22.5 1.25)" fill="#504541"/>
<rect x="23.75" y="2.5" width="2.625" height="1.25" transform="rotate(-180 23.75 2.5)" fill="#504541"/>
<rect x="23.75" y="3.75" width="1.25" height="1.25" transform="rotate(-180 23.75 3.75)" fill="#504541"/>
<rect x="23.75" y="5.00012" width="1.25" height="1.25" transform="rotate(-180 23.75 5.00012)" fill="#504541"/>
<rect x="25" y="10" width="1.25" height="1.25" transform="rotate(-180 25 10)" fill="#504541"/>
<rect x="25" y="8.75" width="1.25" height="1.25" transform="rotate(-180 25 8.75)" fill="#504541"/>
<rect x="25" y="7.49988" width="1.25" height="1.25" transform="rotate(-180 25 7.49988)" fill="#504541"/>
<rect x="25" y="6.25" width="2.5" height="1.25" transform="rotate(-180 25 6.25)" fill="#504541"/>
<rect x="25" y="15" width="1.25" height="1.25" transform="rotate(-180 25 15)" fill="#504541"/>
<rect x="25" y="13.75" width="1.25" height="1.25" transform="rotate(-180 25 13.75)" fill="#504541"/>
<rect x="25" y="12.5" width="1.25" height="1.25" transform="rotate(-180 25 12.5)" fill="#504541"/>
<rect x="25" y="11.25" width="1.25" height="1.25" transform="rotate(-180 25 11.25)" fill="#504541"/>
<rect x="23.75" y="16.25" width="1.25" height="1.25" transform="rotate(-180 23.75 16.25)" fill="#504541"/>
<rect x="25" y="18.75" width="1.25" height="1.25" transform="rotate(-180 25 18.75)" fill="#504541"/>
<rect x="25" y="17.5" width="1.25" height="1.25" transform="rotate(-180 25 17.5)" fill="#504541"/>
<rect x="25" y="16.25" width="1.25" height="1.25" transform="rotate(-180 25 16.25)" fill="#504541"/>
<rect x="25" y="21.25" width="1.25" height="1.25" transform="rotate(-180 25 21.25)" fill="#504541"/>
<rect x="25" y="20" width="1.25" height="1.25" transform="rotate(-180 25 20)" fill="#504541"/>
<rect x="25" y="22.5" width="2.5" height="1.25" transform="rotate(-180 25 22.5)" fill="#504541"/>
<rect x="23.75" y="41.25" width="1.25" height="1.25" transform="rotate(-180 23.75 41.25)" fill="#504541"/>
<rect x="23.75" y="40" width="1.25" height="1.25" transform="rotate(-180 23.75 40)" fill="#504541"/>
<rect x="23.75" y="38.7501" width="1.25" height="1.25" transform="rotate(-180 23.75 38.7501)" fill="#504541"/>
<rect x="23.75" y="37.5" width="1.25" height="1.25" transform="rotate(-180 23.75 37.5)" fill="#504541"/>
<rect x="23.75" y="36.25" width="1.25" height="1.25" transform="rotate(-180 23.75 36.25)" fill="#504541"/>
<rect x="23.75" y="35" width="1.25" height="1.25" transform="rotate(-180 23.75 35)" fill="#504541"/>
<rect x="23.75" y="33.75" width="1.25" height="1.25" transform="rotate(-180 23.75 33.75)" fill="#504541"/>
<rect x="23.75" y="32.5" width="1.25" height="1.25" transform="rotate(-180 23.75 32.5)" fill="#504541"/>
<rect x="23.75" y="31.25" width="1.25" height="1.25" transform="rotate(-180 23.75 31.25)" fill="#504541"/>
<rect x="23.75" y="30" width="1.25" height="1.25" transform="rotate(-180 23.75 30)" fill="#504541"/>
<rect x="23.75" y="28.75" width="1.25" height="1.25" transform="rotate(-180 23.75 28.75)" fill="#504541"/>
<rect x="23.75" y="27.5" width="1.25" height="1.25" transform="rotate(-180 23.75 27.5)" fill="#504541"/>
<rect x="23.75" y="26.25" width="1.25" height="1.25" transform="rotate(-180 23.75 26.25)" fill="#504541"/>
<rect x="23.75" y="25" width="1.25" height="1.25" transform="rotate(-180 23.75 25)" fill="#504541"/>
<rect x="23.75" y="23.75" width="1.25" height="1.25" transform="rotate(-180 23.75 23.75)" fill="#504541"/>
<rect x="23.75" y="43.75" width="1.25" height="2.5" transform="rotate(-180 23.75 43.75)" fill="#504541"/>
<rect x="33.75" y="42.5" width="1.25" height="1.25" transform="rotate(-180 33.75 42.5)" fill="#504541"/>
<rect x="32.5" y="42.5" width="1.25" height="1.25" transform="rotate(-180 32.5 42.5)" fill="#504541"/>
<rect x="31.25" y="42.5" width="1.25" height="1.25" transform="rotate(-180 31.25 42.5)" fill="#504541"/>
<rect x="30" y="42.5" width="1.25" height="1.25" transform="rotate(-180 30 42.5)" fill="#504541"/>
<rect x="28.75" y="42.5" width="1.25" height="1.25" transform="rotate(-180 28.75 42.5)" fill="#504541"/>
<rect x="27.5" y="42.5" width="1.25" height="1.25" transform="rotate(-180 27.5 42.5)" fill="#504541"/>
<rect x="26.25" y="42.5" width="1.25" height="1.25" transform="rotate(-180 26.25 42.5)" fill="#504541"/>
<rect x="25" y="42.5" width="1.25" height="1.25" transform="rotate(-180 25 42.5)" fill="#504541"/>
<rect x="35" y="42.5" width="1.25" height="1.25" transform="rotate(-180 35 42.5)" fill="#504541"/>
<rect x="36.25" y="43.75" width="2.5" height="1.25" transform="rotate(-180 36.25 43.75)" fill="#504541"/>
<rect x="37.5" y="45" width="1.25" height="1.25" transform="rotate(-180 37.5 45)" fill="#504541"/>
<rect x="37.5" y="53.75" width="1.25" height="1.25" transform="rotate(-180 37.5 53.75)" fill="#504541"/>
<rect x="37.5" y="52.5" width="1.25" height="1.25" transform="rotate(-180 37.5 52.5)" fill="#504541"/>
<rect x="37.5" y="51.25" width="1.25" height="1.25" transform="rotate(-180 37.5 51.25)" fill="#504541"/>
<rect x="37.5" y="50" width="1.25" height="1.25" transform="rotate(-180 37.5 50)" fill="#504541"/>
<rect x="37.5" y="48.75" width="1.25" height="1.25" transform="rotate(-180 37.5 48.75)" fill="#504541"/>
<rect x="37.5" y="47.5" width="1.25" height="1.25" transform="rotate(-180 37.5 47.5)" fill="#504541"/>
<rect x="37.5" y="46.25" width="1.25" height="1.25" transform="rotate(-180 37.5 46.25)" fill="#504541"/>
<rect x="37.5" y="55" width="1.25" height="1.25" transform="rotate(-180 37.5 55)" fill="#504541"/>
</svg>
