<svg width="248" height="220" viewBox="0 0 248 220" fill="none" xmlns="http://www.w3.org/2000/svg">
<path d="M4.3685 149.156H40.0222C43.2746 149.156 47.0653 146.31 50.4481 146.208C54.5131 146.085 58.6018 146.328 62.633 146.839C65.9286 147.257 70.7958 147.119 73.8096 148.945C75.8898 150.206 77.6101 151.094 79.4087 152.946C80.3097 153.874 81.8252 154.637 82.9698 155.146C87.0057 156.939 89.4872 162.601 90.4137 166.868C91.0739 169.908 90.9929 172.937 90.9929 176.039C90.9929 177.258 90.1684 177.201 89.2553 177.584C84.1722 179.716 77.6201 178.637 72.2651 178.637C61.455 178.637 50.7742 179.479 39.9364 179.479H39.8985C32.4173 179.479 24.9934 179.479 17.7118 181.538C16.0795 181.999 13.9116 182.506 12.4131 181.374C8.83133 178.67 5.85341 174.454 5.07643 169.746C4.14437 164.098 3.81981 158.424 3.4246 152.712C3.31979 151.198 2.6492 149.156 4.3685 149.156Z" fill="#621F1F" stroke="black" stroke-width="0.383898" stroke-linecap="round"/>
<rect x="5.53918" y="147.208" width="5.53909" height="6.04133" fill="black"/>
<rect x="11.0782" y="147.208" width="5.53909" height="6.04133" fill="black"/>
<rect x="16.6173" y="147.208" width="5.53909" height="6.04133" fill="black"/>
<rect x="22.1564" y="147.208" width="5.53909" height="6.04133" fill="black"/>
<rect x="27.6956" y="147.208" width="5.53909" height="6.04133" fill="black"/>
<rect x="33.2346" y="147.208" width="5.53909" height="6.04133" fill="black"/>
<rect x="38.7737" y="147.208" width="5.53909" height="6.04133" fill="black"/>
<rect y="147.208" width="5.53909" height="6.04133" fill="black"/>
<rect y="153.25" width="5.53909" height="6.04133" fill="black"/>
<rect y="159.291" width="5.53909" height="6.04133" fill="black"/>
<rect y="165.332" width="5.53909" height="6.04133" fill="black"/>
<rect x="5.53918" y="171.373" width="5.53909" height="6.04133" fill="black"/>
<rect x="11.0782" y="177.415" width="5.53909" height="6.04133" fill="black"/>
<rect x="16.6173" y="177.415" width="5.53909" height="6.04133" fill="black"/>
<rect x="22.1564" y="177.415" width="5.53909" height="6.04133" fill="black"/>
<rect x="27.6956" y="177.415" width="5.53909" height="6.04133" fill="black"/>
<rect x="33.2346" y="177.415" width="5.53909" height="6.04133" fill="black"/>
<rect x="38.7737" y="177.415" width="5.53909" height="6.04133" fill="black"/>
<rect x="44.3127" y="177.415" width="5.53909" height="6.04133" fill="black"/>
<rect x="49.8519" y="177.415" width="5.53909" height="6.04133" fill="black"/>
<rect x="55.391" y="177.415" width="5.53909" height="6.04133" fill="black"/>
<rect x="60.9301" y="177.415" width="5.53909" height="6.04133" fill="black"/>
<rect x="66.4691" y="177.415" width="5.53909" height="6.04133" fill="black"/>
<rect x="72.0083" y="177.415" width="5.53909" height="6.04133" fill="black"/>
<rect x="77.5474" y="177.415" width="5.53909" height="6.04133" fill="black"/>
<rect x="83.0864" y="177.415" width="5.53909" height="6.04133" fill="black"/>
<rect x="88.6256" y="177.415" width="5.53909" height="6.04133" fill="black"/>
<rect x="88.6256" y="171.373" width="5.53909" height="6.04133" fill="black"/>
<rect x="88.6256" y="165.332" width="5.53909" height="6.04133" fill="black"/>
<rect x="83.0864" y="153.25" width="5.53909" height="6.04133" fill="black"/>
<rect x="88.6256" y="159.291" width="5.53909" height="6.04133" fill="black"/>
<rect x="77.5474" y="153.25" width="5.53909" height="6.04133" fill="black"/>
<rect x="77.5474" y="147.208" width="5.53909" height="6.04133" fill="black"/>
<rect x="72.0083" y="147.208" width="5.53909" height="6.04133" fill="black"/>
<rect x="60.9301" y="141.167" width="5.53909" height="6.04133" fill="black"/>
<rect x="66.4691" y="147.208" width="5.53909" height="6.04133" fill="black"/>
<rect x="49.8519" y="141.167" width="5.53909" height="6.04133" fill="black"/>
<rect x="55.391" y="141.167" width="5.53909" height="6.04133" fill="black"/>
<rect x="44.3127" y="141.167" width="5.53909" height="6.04133" fill="black"/>
<path d="M236.074 162.519C238.185 163.425 239.437 164.986 241.748 165.266C245.991 165.266 245.571 168.147 245.571 171.818C245.571 175.485 248.486 188.816 243.932 189.092C242.027 189.208 240.541 191.14 238.744 191.442C235.723 191.949 232.376 190.486 229.49 189.688C212.338 184.945 194.73 182.806 177.606 177.444C168.335 174.54 159.626 170.349 150.663 166.59C148.492 165.679 150.52 156.225 150.815 154.511C151.836 148.571 153.572 144.792 156.428 139.785C157.74 137.485 158.721 135.086 161.495 136.409C164.323 137.759 166.941 139.668 169.111 142.035C171.227 144.343 174.835 144.7 177.637 145.311C189.604 147.922 201.599 151.38 213.47 154.544C221.184 156.6 228.686 159.347 236.074 162.519Z" fill="#813014" stroke="#371F00" stroke-width="1.15169" stroke-linecap="round"/>
<rect width="5.53909" height="6.04133" transform="matrix(-1 0 0 1 242.059 161.707)" fill="#371F00"/>
<rect width="5.53909" height="6.04133" transform="matrix(-1 0 0 1 236.52 161.707)" fill="#371F00"/>
<rect width="5.53909" height="6.04133" transform="matrix(-1 0 0 1 230.98 155.666)" fill="#371F00"/>
<rect width="5.53909" height="6.04133" transform="matrix(-1 0 0 1 236.52 155.666)" fill="#371F00"/>
<rect width="5.53909" height="6.04133" transform="matrix(-1 0 0 1 225.441 155.666)" fill="#371F00"/>
<rect width="5.53909" height="6.04133" transform="matrix(-1 0 0 1 219.902 149.624)" fill="#371F00"/>
<rect width="5.53909" height="6.04133" transform="matrix(-1 0 0 1 214.363 149.624)" fill="#371F00"/>
<rect width="5.53909" height="6.04133" transform="matrix(-1 0 0 1 186.668 143.583)" fill="#371F00"/>
<rect width="5.53909" height="6.04133" transform="matrix(-1 0 0 1 208.824 149.624)" fill="#371F00"/>
<rect width="5.53909" height="6.04133" transform="matrix(-1 0 0 1 203.285 149.624)" fill="#371F00"/>
<rect width="5.53909" height="6.04133" transform="matrix(-1 0 0 1 197.746 143.583)" fill="#371F00"/>
<rect width="5.53909" height="6.04133" transform="matrix(-1 0 0 1 192.207 143.583)" fill="#371F00"/>
<rect width="5.53909" height="6.04133" transform="matrix(-1 0 0 1 181.129 143.583)" fill="#371F00"/>
<rect width="5.53909" height="6.04133" transform="matrix(-1 0 0 1 175.589 143.583)" fill="#371F00"/>
<rect width="5.53909" height="6.04133" transform="matrix(-1 0 0 1 170.051 137.542)" fill="#371F00"/>
<rect width="5.53909" height="6.04133" transform="matrix(-1 0 0 1 164.511 131.5)" fill="#371F00"/>
<rect width="5.53909" height="6.04133" transform="matrix(-1 0 0 1 158.972 137.542)" fill="#371F00"/>
<rect width="5.53909" height="6.04133" transform="matrix(-1 0 0 1 153.433 143.583)" fill="#371F00"/>
<rect width="5.53909" height="6.04133" transform="matrix(-1 0 0 1 153.433 149.624)" fill="#371F00"/>
<rect width="5.53909" height="6.04133" transform="matrix(-1 0 0 1 153.433 155.666)" fill="#371F00"/>
<rect width="5.53909" height="6.04133" transform="matrix(-1 0 0 1 153.433 161.707)" fill="#371F00"/>
<rect width="5.53909" height="6.04133" transform="matrix(-1 0 0 1 164.511 167.748)" fill="#371F00"/>
<rect width="5.53909" height="6.04133" transform="matrix(-1 0 0 1 181.129 173.79)" fill="#371F00"/>
<rect width="5.53909" height="6.04133" transform="matrix(-1 0 0 1 175.589 173.79)" fill="#371F00"/>
<rect width="5.53909" height="6.04133" transform="matrix(-1 0 0 1 170.051 167.748)" fill="#371F00"/>
<rect width="5.53909" height="6.04133" transform="matrix(-1 0 0 1 158.972 167.748)" fill="#371F00"/>
<rect width="5.53909" height="6.04133" transform="matrix(-1 0 0 1 203.285 179.831)" fill="#371F00"/>
<rect width="5.53909" height="6.04133" transform="matrix(-1 0 0 1 230.98 185.873)" fill="#371F00"/>
<rect width="5.53909" height="6.04133" transform="matrix(-1 0 0 1 225.441 185.873)" fill="#371F00"/>
<rect width="5.53909" height="6.04133" transform="matrix(-1 0 0 1 219.902 185.873)" fill="#371F00"/>
<rect width="5.53909" height="6.04133" transform="matrix(-1 0 0 1 214.363 179.831)" fill="#371F00"/>
<rect width="5.53909" height="6.04133" transform="matrix(-1 0 0 1 208.824 179.831)" fill="#371F00"/>
<rect width="5.53909" height="6.04133" transform="matrix(-1 0 0 1 197.746 179.831)" fill="#371F00"/>
<rect width="5.53909" height="6.04133" transform="matrix(-1 0 0 1 192.207 179.831)" fill="#371F00"/>
<rect width="5.53909" height="6.04133" transform="matrix(-1 0 0 1 186.668 173.79)" fill="#371F00"/>
<rect width="5.53909" height="6.04133" transform="matrix(-1 0 0 1 236.52 185.873)" fill="#371F00"/>
<rect width="5.53909" height="6.04133" transform="matrix(-1 0 0 1 242.059 185.873)" fill="#371F00"/>
<rect width="5.53909" height="6.04133" transform="matrix(-1 0 0 1 247.598 185.873)" fill="#371F00"/>
<rect width="5.53909" height="6.04133" transform="matrix(-1 0 0 1 247.598 173.79)" fill="#371F00"/>
<rect width="5.53909" height="6.04133" transform="matrix(-1 0 0 1 247.598 179.831)" fill="#371F00"/>
<rect width="5.53909" height="6.04133" transform="matrix(-1 0 0 1 247.598 167.748)" fill="#371F00"/>
<rect width="5.53909" height="6.04133" transform="matrix(-1 0 0 1 247.598 161.707)" fill="#371F00"/>
<path d="M210.18 184.019C212.291 184.925 213.543 186.485 215.854 186.765C220.097 186.765 219.677 189.647 219.677 193.318C219.677 196.985 222.592 210.316 218.038 210.592C216.133 210.707 214.647 212.64 212.85 212.941C209.829 213.448 206.482 211.986 203.596 211.187C186.444 206.445 168.836 204.306 151.712 198.943C142.441 196.04 133.732 191.849 124.769 188.089C122.598 187.178 124.626 177.725 124.921 176.01C125.942 170.071 127.678 166.291 130.534 161.284C131.846 158.984 132.828 156.585 135.601 157.909C138.429 159.258 141.047 161.168 143.217 163.534C145.333 165.843 148.941 166.199 151.743 166.811C163.71 169.421 175.705 172.88 187.576 176.043C195.291 178.099 202.792 180.847 210.18 184.019Z" fill="#592E20" stroke="#371F00" stroke-width="1.15169" stroke-linecap="round"/>
<rect width="5.53909" height="6.04133" transform="matrix(-1 0 0 1 216.165 183.206)" fill="#371F00"/>
<rect width="5.53909" height="6.04133" transform="matrix(-1 0 0 1 210.626 183.206)" fill="#371F00"/>
<rect width="5.53909" height="6.04133" transform="matrix(-1 0 0 1 205.087 177.165)" fill="#371F00"/>
<rect width="5.53909" height="6.04133" transform="matrix(-1 0 0 1 210.626 177.165)" fill="#371F00"/>
<rect width="5.53909" height="6.04133" transform="matrix(-1 0 0 1 199.547 177.165)" fill="#371F00"/>
<rect width="5.53909" height="6.04133" transform="matrix(-1 0 0 1 194.008 171.124)" fill="#371F00"/>
<rect width="5.53909" height="6.04133" transform="matrix(-1 0 0 1 188.469 171.124)" fill="#371F00"/>
<rect width="5.53909" height="6.04133" transform="matrix(-1 0 0 1 160.774 165.083)" fill="#371F00"/>
<rect width="5.53909" height="6.04133" transform="matrix(-1 0 0 1 182.93 171.124)" fill="#371F00"/>
<rect width="5.53909" height="6.04133" transform="matrix(-1 0 0 1 177.391 171.124)" fill="#371F00"/>
<rect width="5.53909" height="6.04133" transform="matrix(-1 0 0 1 171.852 165.083)" fill="#371F00"/>
<rect width="5.53909" height="6.04133" transform="matrix(-1 0 0 1 166.313 165.083)" fill="#371F00"/>
<rect width="5.53909" height="6.04133" transform="matrix(-1 0 0 1 155.235 165.083)" fill="#371F00"/>
<rect width="5.53909" height="6.04133" transform="matrix(-1 0 0 1 149.696 165.083)" fill="#371F00"/>
<rect width="5.53909" height="6.04133" transform="matrix(-1 0 0 1 144.157 159.041)" fill="#371F00"/>
<rect width="5.53909" height="6.04133" transform="matrix(-1 0 0 1 138.617 153)" fill="#371F00"/>
<rect width="5.53909" height="6.04133" transform="matrix(-1 0 0 1 133.078 159.041)" fill="#371F00"/>
<rect width="5.53909" height="6.04133" transform="matrix(-1 0 0 1 127.539 165.083)" fill="#371F00"/>
<rect width="5.53909" height="6.04133" transform="matrix(-1 0 0 1 127.539 171.124)" fill="#371F00"/>
<rect width="5.53909" height="6.04133" transform="matrix(-1 0 0 1 127.539 177.165)" fill="#371F00"/>
<rect width="5.53909" height="6.04133" transform="matrix(-1 0 0 1 127.539 183.206)" fill="#371F00"/>
<rect width="5.53909" height="6.04133" transform="matrix(-1 0 0 1 138.617 189.248)" fill="#371F00"/>
<rect width="5.53909" height="6.04133" transform="matrix(-1 0 0 1 155.235 195.289)" fill="#371F00"/>
<rect width="5.53909" height="6.04133" transform="matrix(-1 0 0 1 149.696 195.289)" fill="#371F00"/>
<rect width="5.53909" height="6.04133" transform="matrix(-1 0 0 1 144.157 189.248)" fill="#371F00"/>
<rect width="5.53909" height="6.04133" transform="matrix(-1 0 0 1 133.078 189.248)" fill="#371F00"/>
<rect width="5.53909" height="6.04133" transform="matrix(-1 0 0 1 177.391 201.331)" fill="#371F00"/>
<rect width="5.53909" height="6.04133" transform="matrix(-1 0 0 1 205.087 207.372)" fill="#371F00"/>
<rect width="5.53909" height="6.04133" transform="matrix(-1 0 0 1 199.547 207.372)" fill="#371F00"/>
<rect width="5.53909" height="6.04133" transform="matrix(-1 0 0 1 194.008 207.372)" fill="#371F00"/>
<rect width="5.53909" height="6.04133" transform="matrix(-1 0 0 1 188.469 201.331)" fill="#371F00"/>
<rect width="5.53909" height="6.04133" transform="matrix(-1 0 0 1 182.93 201.331)" fill="#371F00"/>
<rect width="5.53909" height="6.04133" transform="matrix(-1 0 0 1 171.852 201.331)" fill="#371F00"/>
<rect width="5.53909" height="6.04133" transform="matrix(-1 0 0 1 166.313 201.331)" fill="#371F00"/>
<rect width="5.53909" height="6.04133" transform="matrix(-1 0 0 1 160.774 195.289)" fill="#371F00"/>
<rect width="5.53909" height="6.04133" transform="matrix(-1 0 0 1 210.626 207.372)" fill="#371F00"/>
<rect width="5.53909" height="6.04133" transform="matrix(-1 0 0 1 216.165 207.372)" fill="#371F00"/>
<rect width="5.53909" height="6.04133" transform="matrix(-1 0 0 1 221.704 207.372)" fill="#371F00"/>
<rect width="5.53909" height="6.04133" transform="matrix(-1 0 0 1 221.704 195.289)" fill="#371F00"/>
<rect width="5.53909" height="6.04133" transform="matrix(-1 0 0 1 221.704 201.331)" fill="#371F00"/>
<rect width="5.53909" height="6.04133" transform="matrix(-1 0 0 1 221.704 189.248)" fill="#371F00"/>
<rect width="5.53909" height="6.04133" transform="matrix(-1 0 0 1 221.704 183.206)" fill="#371F00"/>
<path d="M63.8425 175.094C56.4266 175.094 50.7793 172.68 46.1844 165.925C40.6711 157.821 44.0707 144.569 46.466 136.006C48.0932 130.189 49.5245 124.324 50.4883 118.326C50.7903 116.447 51.3672 113.33 50.4481 111.526C50.3577 111.349 50.2633 111.198 50.1738 111.073C49.4483 110.493 49.7564 110.493 50.1738 111.073C50.1972 111.092 50.2215 111.111 50.247 111.131C53.7131 113.831 57.0039 116.672 60.1822 119.774C61.676 121.231 66.8651 128.014 67.4626 123.941C68.287 118.321 69.9216 112.939 70.9218 107.358C71.9829 101.439 71.8067 95.4584 71.8067 89.4592C71.8067 77.3177 73.1695 66.3505 75.0648 54.4067C75.5809 51.1544 76.0002 48.0849 76.1509 44.7991C76.2318 43.0338 77.5194 45.4143 77.8 45.7204C85.2098 53.802 92.2411 59.964 96.9866 70.5072C97.2963 71.1954 98.1108 74.764 98.6357 72.5691C100.03 66.7394 102.91 61.4366 104.951 55.8545C109.24 44.1223 114.944 31.6575 115.248 18.7401C115.313 15.9625 114.63 7.70918 115.248 10.4047C119.077 27.1114 127.122 43.7866 133.912 59.2764C137.048 66.4318 140.207 73.6334 143.766 80.5535C144.673 82.3164 146.278 84.5263 146.381 86.6515C146.477 88.6395 145.188 94.3165 146.14 92.6179C149.896 85.9138 157.7 81.5684 162.148 75.1575C162.879 74.104 163.691 73.0252 163.757 71.6478C163.77 71.3939 163.602 69.1847 164.119 69.4104C165.449 69.9907 165.801 78.7512 165.929 79.8955C166.634 86.182 166.653 92.4398 166.653 98.7598C166.653 103.466 165.415 107.656 170.636 101.962C173.034 99.3459 175.528 96.2722 177.353 93.1443C178.117 91.8348 178.725 89.9171 179.324 92.2669C180.629 97.3918 179.686 103.83 179.686 109.157C179.686 114.495 180.133 120.072 179.646 125.389C179.166 130.62 179.817 140.242 177.353 144.64C175.127 148.614 180.035 157.446 177.353 161.103C173.573 166.256 162.093 170.898 157.31 175.094C152.022 179.734 142.697 173.379 136.405 175.094C130.407 176.73 123.335 176.216 117.259 175.27C110.765 174.258 104.37 174.846 97.8715 174.129C91.2941 173.404 85.1345 172.725 78.4838 172.725C76.8172 172.725 73.3838 172.041 71.8067 172.901C69.9256 173.927 69.6902 175.094 67.4626 175.094H63.8425Z" fill="#DA2929"/>
<path d="M63.8425 175.094C56.4266 175.094 50.7793 172.68 46.1844 165.925C40.6711 157.821 44.0707 144.569 46.466 136.006C48.0932 130.189 49.5245 124.324 50.4883 118.326C50.7903 116.447 51.3672 113.33 50.4481 111.526C49.9222 110.494 49.2588 110.361 50.247 111.131C53.7131 113.831 57.0039 116.672 60.1822 119.774C61.676 121.231 66.8651 128.014 67.4626 123.941C68.287 118.321 69.9216 112.939 70.9218 107.358C71.9829 101.439 71.8067 95.4584 71.8067 89.4592C71.8067 77.3177 73.1695 66.3505 75.0648 54.4067C75.5809 51.1544 76.0002 48.0849 76.1509 44.7991C76.2318 43.0338 77.5194 45.4143 77.8 45.7204C85.2098 53.802 92.2411 59.964 96.9866 70.5072C97.2963 71.1954 98.1108 74.764 98.6357 72.5691C100.03 66.7394 102.91 61.4366 104.951 55.8545C109.24 44.1223 114.944 31.6575 115.248 18.7401C115.313 15.9625 114.63 7.70918 115.248 10.4047C119.077 27.1114 127.122 43.7866 133.912 59.2764C137.048 66.4318 140.207 73.6334 143.766 80.5535C144.673 82.3164 146.278 84.5263 146.381 86.6515C146.477 88.6395 145.188 94.3165 146.14 92.6179C149.896 85.9138 157.7 81.5684 162.148 75.1575C162.879 74.104 163.691 73.0252 163.757 71.6478C163.77 71.3939 163.602 69.1847 164.119 69.4104C165.449 69.9907 165.801 78.7512 165.929 79.8955C166.634 86.182 166.653 92.4398 166.653 98.7598C166.653 103.466 165.415 107.656 170.636 101.962C173.034 99.3459 175.528 96.2722 177.353 93.1443C178.117 91.8348 178.725 89.9171 179.324 92.2669C180.629 97.3918 179.686 103.83 179.686 109.157C179.686 114.495 180.133 120.072 179.646 125.389C179.166 130.62 179.817 140.242 177.353 144.64C175.127 148.614 180.035 157.446 177.353 161.103C173.573 166.256 162.093 170.898 157.31 175.094C152.022 179.734 142.697 173.379 136.405 175.094C130.407 176.73 123.335 176.216 117.259 175.27C110.765 174.258 104.37 174.846 97.8715 174.129C91.2941 173.404 85.1345 172.725 78.4838 172.725C76.8172 172.725 73.3838 172.041 71.8067 172.901C69.9256 173.927 69.6902 175.094 67.4626 175.094C65.7732 175.094 64.0838 175.094 62.3945 175.094" stroke="#8C0707" stroke-width="1.15169" stroke-linecap="round"/>
<rect x="45.1436" y="165.03" width="5.53909" height="6.04133" fill="#8C0707"/>
<rect x="56.2218" y="171.071" width="5.53909" height="6.04133" fill="#8C0707"/>
<rect x="50.6827" y="171.071" width="5.53909" height="6.04133" fill="#8C0707"/>
<rect x="61.7609" y="171.071" width="5.53909" height="6.04133" fill="#8C0707"/>
<rect x="45.1436" y="134.823" width="5.53909" height="6.04133" fill="#8C0707"/>
<rect x="39.6046" y="140.864" width="5.53909" height="6.04133" fill="#8C0707"/>
<rect x="39.6046" y="146.906" width="5.53909" height="6.04133" fill="#8C0707"/>
<rect x="39.6046" y="152.947" width="5.53909" height="6.04133" fill="#8C0707"/>
<rect x="39.6046" y="158.989" width="5.53909" height="6.04133" fill="#8C0707"/>
<rect x="45.1436" y="116.699" width="5.53909" height="6.04133" fill="#8C0707"/>
<rect x="45.1436" y="122.74" width="5.53909" height="6.04133" fill="#8C0707"/>
<rect x="45.1436" y="128.782" width="5.53909" height="6.04133" fill="#8C0707"/>
<rect x="50.6827" y="110.658" width="5.53909" height="6.04133" fill="#8C0707"/>
<rect x="45.1436" y="110.658" width="5.53909" height="6.04133" fill="#8C0707"/>
<rect x="56.2218" y="116.699" width="5.53909" height="6.04133" fill="#8C0707"/>
<rect x="61.7609" y="122.74" width="5.53909" height="6.04133" fill="#8C0707"/>
<rect x="67.3" y="122.74" width="5.53909" height="6.04133" fill="#8C0707"/>
<rect x="67.3" y="104.617" width="5.53909" height="6.04133" fill="#8C0707"/>
<rect x="67.3" y="110.658" width="5.53909" height="6.04133" fill="#8C0707"/>
<rect x="67.3" y="116.699" width="5.53909" height="6.04133" fill="#8C0707"/>
<rect x="67.3" y="86.4927" width="5.53909" height="6.04133" fill="#8C0707"/>
<rect x="67.3" y="92.5337" width="5.53909" height="6.04133" fill="#8C0707"/>
<rect x="67.3" y="98.5752" width="5.53909" height="6.04133" fill="#8C0707"/>
<rect x="72.8391" y="56.2861" width="5.53909" height="6.04133" fill="#8C0707"/>
<rect x="72.8391" y="62.3276" width="5.53909" height="6.04133" fill="#8C0707"/>
<rect x="67.3" y="68.3687" width="5.53909" height="6.04133" fill="#8C0707"/>
<rect x="67.3" y="74.4102" width="5.53909" height="6.04133" fill="#8C0707"/>
<rect x="67.3" y="80.4512" width="5.53909" height="6.04133" fill="#8C0707"/>
<rect x="72.8391" y="50.2446" width="5.53909" height="6.04133" fill="#8C0707"/>
<rect x="72.8391" y="44.2036" width="5.53909" height="6.04133" fill="#8C0707"/>
<rect x="78.3782" y="44.2036" width="5.53909" height="6.04133" fill="#8C0707"/>
<rect x="83.9174" y="50.2446" width="5.53909" height="6.04133" fill="#8C0707"/>
<rect x="89.4564" y="56.2861" width="5.53909" height="6.04133" fill="#8C0707"/>
<rect x="89.4564" y="62.3276" width="5.53909" height="6.04133" fill="#8C0707"/>
<rect x="94.9955" y="68.3687" width="5.53909" height="6.04133" fill="#8C0707"/>
<rect x="100.535" y="56.2861" width="5.53909" height="6.04133" fill="#8C0707"/>
<rect x="100.535" y="62.3276" width="5.53909" height="6.04133" fill="#8C0707"/>
<rect x="100.535" y="50.2446" width="5.53909" height="6.04133" fill="#8C0707"/>
<rect x="111.613" y="20.0381" width="5.53909" height="6.04133" fill="#8C0707"/>
<rect x="111.613" y="26.0791" width="5.53909" height="6.04133" fill="#8C0707"/>
<rect x="111.613" y="32.1206" width="5.53909" height="6.04133" fill="#8C0707"/>
<rect x="106.074" y="38.1616" width="5.53909" height="6.04133" fill="#8C0707"/>
<rect x="106.074" y="44.2036" width="5.53909" height="6.04133" fill="#8C0707"/>
<rect x="111.613" y="13.9966" width="5.53909" height="6.04133" fill="#8C0707"/>
<rect x="111.613" y="7.95508" width="5.53909" height="6.04133" fill="#8C0707"/>
<rect x="117.152" y="20.0381" width="5.53909" height="6.04133" fill="#8C0707"/>
<rect x="117.152" y="26.0791" width="5.53909" height="6.04133" fill="#8C0707"/>
<rect x="122.691" y="32.1206" width="5.53909" height="6.04133" fill="#8C0707"/>
<rect x="122.691" y="38.1616" width="5.53909" height="6.04133" fill="#8C0707"/>
<rect x="128.23" y="44.2036" width="5.53909" height="6.04133" fill="#8C0707"/>
<rect x="128.23" y="50.2446" width="5.53909" height="6.04133" fill="#8C0707"/>
<rect x="133.769" y="56.2861" width="5.53909" height="6.04133" fill="#8C0707"/>
<rect x="133.769" y="62.3276" width="5.53909" height="6.04133" fill="#8C0707"/>
<rect x="139.308" y="68.3687" width="5.53909" height="6.04133" fill="#8C0707"/>
<rect x="139.308" y="74.4102" width="5.53909" height="6.04133" fill="#8C0707"/>
<rect x="139.308" y="80.4512" width="5.53909" height="6.04133" fill="#8C0707"/>
<rect x="144.847" y="80.4512" width="5.53909" height="6.04133" fill="#8C0707"/>
<rect x="144.847" y="86.4927" width="5.53909" height="6.04133" fill="#8C0707"/>
<rect x="144.847" y="92.5337" width="5.53909" height="6.04133" fill="#8C0707"/>
<rect x="155.926" y="74.4102" width="5.53909" height="6.04133" fill="#8C0707"/>
<rect x="150.386" y="80.4512" width="5.53909" height="6.04133" fill="#8C0707"/>
<rect x="161.465" y="74.4102" width="5.53909" height="6.04133" fill="#8C0707"/>
<rect x="161.465" y="68.3687" width="5.53909" height="6.04133" fill="#8C0707"/>
<rect x="161.465" y="80.4512" width="5.53909" height="6.04133" fill="#8C0707"/>
<rect x="161.465" y="86.4927" width="5.53909" height="6.04133" fill="#8C0707"/>
<rect x="161.465" y="92.5337" width="5.53909" height="6.04133" fill="#8C0707"/>
<rect x="161.465" y="98.5752" width="5.53909" height="6.04133" fill="#8C0707"/>
<rect x="167.004" y="98.5752" width="5.53909" height="6.04133" fill="#8C0707"/>
<rect x="172.543" y="92.5337" width="5.53909" height="6.04133" fill="#8C0707"/>
<rect x="178.082" y="86.4927" width="5.53909" height="6.04133" fill="#8C0707"/>
<rect x="178.082" y="92.5337" width="5.53909" height="6.04133" fill="#8C0707"/>
<rect x="178.082" y="98.5752" width="5.53909" height="6.04133" fill="#8C0707"/>
<rect x="178.082" y="104.617" width="5.53909" height="6.04133" fill="#8C0707"/>
<rect x="178.082" y="110.658" width="5.53909" height="6.04133" fill="#8C0707"/>
<rect x="178.082" y="116.699" width="5.53909" height="6.04133" fill="#8C0707"/>
<rect x="178.082" y="122.74" width="5.53909" height="6.04133" fill="#8C0707"/>
<rect x="178.082" y="128.782" width="5.53909" height="6.04133" fill="#8C0707"/>
<rect x="178.082" y="134.823" width="5.53909" height="6.04133" fill="#8C0707"/>
<rect x="172.543" y="140.864" width="5.53909" height="6.04133" fill="#8C0707"/>
<rect x="172.543" y="146.906" width="5.53909" height="6.04133" fill="#8C0707"/>
<rect x="172.543" y="152.947" width="5.53909" height="6.04133" fill="#8C0707"/>
<rect x="172.543" y="158.989" width="5.53909" height="6.04133" fill="#8C0707"/>
<rect x="167.004" y="165.03" width="5.53909" height="6.04133" fill="#8C0707"/>
<rect x="155.926" y="171.071" width="5.53909" height="6.04133" fill="#8C0707"/>
<rect x="161.465" y="165.03" width="5.53909" height="6.04133" fill="#8C0707"/>
<rect x="133.769" y="171.071" width="5.53909" height="6.04133" fill="#8C0707"/>
<rect x="139.308" y="171.071" width="5.53909" height="6.04133" fill="#8C0707"/>
<rect x="144.847" y="171.071" width="5.53909" height="6.04133" fill="#8C0707"/>
<rect x="150.386" y="171.071" width="5.53909" height="6.04133" fill="#8C0707"/>
<rect x="117.152" y="171.071" width="5.53909" height="6.04133" fill="#8C0707"/>
<rect x="122.691" y="171.071" width="5.53909" height="6.04133" fill="#8C0707"/>
<rect x="128.23" y="171.071" width="5.53909" height="6.04133" fill="#8C0707"/>
<rect x="100.535" y="171.071" width="5.53909" height="6.04133" fill="#8C0707"/>
<rect x="106.074" y="171.071" width="5.53909" height="6.04133" fill="#8C0707"/>
<rect x="111.613" y="171.071" width="5.53909" height="6.04133" fill="#8C0707"/>
<rect x="94.9955" y="171.071" width="5.53909" height="6.04133" fill="#8C0707"/>
<rect x="78.3782" y="171.071" width="5.53909" height="6.04133" fill="#8C0707"/>
<rect x="83.9174" y="171.071" width="5.53909" height="6.04133" fill="#8C0707"/>
<rect x="89.4564" y="171.071" width="5.53909" height="6.04133" fill="#8C0707"/>
<rect x="72.8391" y="171.071" width="5.53909" height="6.04133" fill="#8C0707"/>
<rect x="67.3" y="171.071" width="5.53909" height="6.04133" fill="#8C0707"/>
<path d="M83.9981 166.398C76.8218 166.398 69.6056 165.993 62.8686 162.948C60.619 161.931 55.5242 158.97 55.5242 155.584C55.5242 150.659 56.0326 145.79 56.0326 140.888" stroke="#DB1E1E" stroke-width="1.15169" stroke-linecap="round"/>
<path d="M65.4206 149.064C68.1391 153.141 64.4754 165.344 70.9763 165.344C74.8158 165.344 80.2386 169.633 84.2296 170.601C88.9391 171.742 93.0525 172.572 97.9514 172.572C102.061 172.572 106.059 173.886 110.167 173.886H130.616C138.374 173.886 143.461 172.707 150.195 168.301C155.73 164.679 160.907 161.18 164.82 155.489C168.069 150.763 166.049 141.227 165.556 135.85C165.515 135.398 164.656 129.85 164.352 130.265C163.769 131.059 163.26 132.319 162.846 133.222C160.571 138.184 160.692 144.827 156.052 148.261C151.633 151.532 152.196 140.771 151.232 138.406C149.511 134.182 149.893 126.471 149.893 121.979V108.656C149.893 107.423 149.837 106.342 148.689 107.525C142.211 114.197 141.392 124.751 137.243 133.003C135.691 136.089 134.987 136.404 133.494 133.149C132.184 130.292 131.753 126.398 130.884 123.294C128.314 114.121 124.017 105.431 121.111 96.3548C119.415 91.0574 118.599 85.5023 116.894 80.2207C116.887 80.1972 115.909 76.4448 115.589 77.6656C112.409 89.8055 106.908 100.623 102.336 112.343C100.7 116.536 100.125 119.351 95.8094 119.351C92.2351 119.351 88.7907 116.369 86.3715 113.73C85.3414 112.606 83.0247 110.331 83.0247 108.583V111.503C83.0247 115.002 84.773 117.784 84.832 121.322C84.9737 129.823 83.271 137.313 81.8533 145.56C81.3462 148.51 81.1513 150.356 78.0715 149.429C75.4155 148.63 72.6034 148.275 69.9053 147.604C68.0146 147.134 65.4603 145.706 63.5464 145.706C62.3449 145.706 64.7139 148.004 65.4206 149.064Z" fill="#FFC277" stroke="#FFC277" stroke-width="1.15169" stroke-linecap="round"/>
<rect x="64.0736" y="150.801" width="5.082" height="5.54278" fill="#FFC277"/>
<rect x="64.0736" y="156.343" width="5.082" height="5.54278" fill="#FFC277"/>
<rect x="64.0736" y="161.886" width="5.082" height="5.54278" fill="#FFC277"/>
<rect x="69.1556" y="161.886" width="5.082" height="5.54278" fill="#FFC277"/>
<rect x="64.0736" y="145.258" width="5.082" height="5.54278" fill="#FFC277"/>
<rect x="58.9916" y="145.258" width="5.082" height="5.54278" fill="#FFC277"/>
<rect x="69.1556" y="145.258" width="5.082" height="5.54278" fill="#FFC277"/>
<rect x="74.2375" y="145.258" width="5.082" height="5.54278" fill="#FFC277"/>
<rect x="79.3196" y="145.258" width="5.082" height="5.54278" fill="#FFC277"/>
<rect x="84.4016" y="123.087" width="5.082" height="5.54278" fill="#FFC277"/>
<rect x="79.3196" y="128.629" width="5.082" height="5.54278" fill="#FFC277"/>
<rect x="79.3196" y="134.172" width="5.082" height="5.54278" fill="#FFC277"/>
<rect x="79.3196" y="139.715" width="5.082" height="5.54278" fill="#FFC277"/>
<rect x="84.4016" y="117.544" width="5.082" height="5.54278" fill="#FFC277"/>
<rect x="79.3196" y="112.001" width="5.082" height="5.54278" fill="#FFC277"/>
<rect x="79.3196" y="106.458" width="5.082" height="5.54278" fill="#FFC277"/>
<rect x="84.4016" y="112.001" width="5.082" height="5.54278" fill="#FFC277"/>
<rect x="89.4835" y="117.544" width="5.082" height="5.54278" fill="#FFC277"/>
<rect x="94.5656" y="117.544" width="5.082" height="5.54278" fill="#FFC277"/>
<rect x="99.6475" y="112.001" width="5.082" height="5.54278" fill="#FFC277"/>
<rect x="109.812" y="78.7446" width="5.082" height="5.54278" fill="#FFC277"/>
<rect x="109.812" y="84.2871" width="5.082" height="5.54278" fill="#FFC277"/>
<rect x="109.812" y="89.8301" width="5.082" height="5.54278" fill="#FFC277"/>
<rect x="104.729" y="95.373" width="5.082" height="5.54278" fill="#FFC277"/>
<rect x="104.729" y="100.916" width="5.082" height="5.54278" fill="#FFC277"/>
<rect x="99.6475" y="106.458" width="5.082" height="5.54278" fill="#FFC277"/>
<rect x="114.894" y="73.2017" width="5.082" height="5.54278" fill="#FFC277"/>
<rect x="114.894" y="78.7446" width="5.082" height="5.54278" fill="#FFC277"/>
<rect x="114.894" y="84.2871" width="5.082" height="5.54278" fill="#FFC277"/>
<rect x="119.976" y="89.8301" width="5.082" height="5.54278" fill="#FFC277"/>
<rect x="119.976" y="95.373" width="5.082" height="5.54278" fill="#FFC277"/>
<rect x="119.976" y="100.916" width="5.082" height="5.54278" fill="#FFC277"/>
<rect x="125.057" y="106.458" width="5.082" height="5.54278" fill="#FFC277"/>
<rect x="125.057" y="112.001" width="5.082" height="5.54278" fill="#FFC277"/>
<rect x="125.057" y="117.544" width="5.082" height="5.54278" fill="#FFC277"/>
<rect x="130.14" y="123.087" width="5.082" height="5.54278" fill="#FFC277"/>
<rect x="130.14" y="128.629" width="5.082" height="5.54278" fill="#FFC277"/>
<rect x="135.222" y="128.629" width="5.082" height="5.54278" fill="#FFC277"/>
<rect x="145.385" y="106.458" width="5.082" height="5.54278" fill="#FFC277"/>
<rect x="140.304" y="112.001" width="5.082" height="5.54278" fill="#FFC277"/>
<rect x="140.304" y="117.544" width="5.082" height="5.54278" fill="#FFC277"/>
<rect x="135.222" y="123.087" width="5.082" height="5.54278" fill="#FFC277"/>
<rect x="145.385" y="112.001" width="5.082" height="5.54278" fill="#FFC277"/>
<rect x="145.385" y="117.544" width="5.082" height="5.54278" fill="#FFC277"/>
<rect x="145.385" y="123.087" width="5.082" height="5.54278" fill="#FFC277"/>
<rect x="145.385" y="128.629" width="5.082" height="5.54278" fill="#FFC277"/>
<rect x="150.468" y="134.172" width="5.082" height="5.54278" fill="#FFC277"/>
<rect x="150.468" y="139.715" width="5.082" height="5.54278" fill="#FFC277"/>
<rect x="150.468" y="145.258" width="5.082" height="5.54278" fill="#FFC277"/>
<rect x="155.55" y="145.258" width="5.082" height="5.54278" fill="#FFC277"/>
<rect x="160.631" y="134.172" width="5.082" height="5.54278" fill="#FFC277"/>
<rect x="155.55" y="139.715" width="5.082" height="5.54278" fill="#FFC277"/>
<rect x="160.631" y="128.629" width="5.082" height="5.54278" fill="#FFC277"/>
<rect x="165.714" y="139.715" width="5.082" height="5.54278" fill="#FFC277"/>
<rect x="165.714" y="145.258" width="5.082" height="5.54278" fill="#FFC277"/>
<rect x="165.714" y="150.801" width="5.082" height="5.54278" fill="#FFC277"/>
<rect x="160.631" y="150.801" width="5.082" height="5.54278" fill="#FFC277"/>
<rect x="160.631" y="156.343" width="5.082" height="5.54278" fill="#FFC277"/>
<rect x="150.468" y="161.886" width="5.082" height="5.54278" fill="#FFC277"/>
<rect x="155.55" y="161.886" width="5.082" height="5.54278" fill="#FFC277"/>
<rect x="145.385" y="167.429" width="5.082" height="5.54278" fill="#FFC277"/>
<rect x="130.14" y="172.972" width="5.082" height="5.54278" fill="#FFC277"/>
<rect x="135.222" y="172.972" width="5.082" height="5.54278" fill="#FFC277"/>
<rect x="140.304" y="167.429" width="5.082" height="5.54278" fill="#FFC277"/>
<rect x="109.812" y="172.972" width="5.082" height="5.54278" fill="#FFC277"/>
<rect x="114.894" y="172.972" width="5.082" height="5.54278" fill="#FFC277"/>
<rect x="119.976" y="172.972" width="5.082" height="5.54278" fill="#FFC277"/>
<rect x="125.057" y="172.972" width="5.082" height="5.54278" fill="#FFC277"/>
<rect x="99.6475" y="167.429" width="5.082" height="5.54278" fill="#FFC277"/>
<rect x="104.729" y="172.972" width="5.082" height="5.54278" fill="#FFC277"/>
<rect x="94.5656" y="167.429" width="5.082" height="5.54278" fill="#FFC277"/>
<rect x="84.4016" y="167.429" width="5.082" height="5.54278" fill="#FFC277"/>
<rect x="89.4835" y="167.429" width="5.082" height="5.54278" fill="#FFC277"/>
<rect x="79.3196" y="167.429" width="5.082" height="5.54278" fill="#FFC277"/>
<rect x="74.2375" y="161.886" width="5.082" height="5.54278" fill="#FFC277"/>
<path d="M95.4806 172.277H111.197C111.474 172.732 111.066 171.676 111.197 174.106C111.249 175.069 112.056 175.297 112.547 175.833C114.087 177.512 119.689 176.391 121.674 176.391C125.188 176.391 128.983 174.702 132.152 173.166C136.408 171.103 140.985 169.165 144.725 166.107C147.497 163.839 150.529 160.886 152.059 157.422C152.284 156.912 154.815 152.248 153.526 152.165C151.859 152.058 150.097 153.401 148.822 154.451C146.713 156.189 145.917 155.914 143.979 154.451C142.334 153.208 141.812 150.721 140.324 149.423C139.385 148.604 139.016 144.878 138.857 143.709C138.773 143.086 138.339 137.839 137.507 140.382C136.871 142.323 136.361 146.543 134.154 147.036C131.948 147.528 128.961 147.385 126.703 147.112C122.793 146.638 119.156 142.965 117.483 139.316C115.257 134.46 113.725 129.179 111.849 124.155C111.381 122.904 110.796 121.704 110.033 123.368C108.881 125.879 108.93 129.322 108.17 132.053C107.636 133.973 105.751 140.585 103.234 140.738C101.714 140.83 92.3329 134.72 93.4084 138.071C94.162 140.42 100.93 159.283 96.9009 159.91C92.8382 160.543 88.7582 160.393 84.6539 160.393C84.1866 160.393 81.4359 159.765 81.1149 160.037C80.9633 160.166 81.4295 160.64 81.4408 160.85C81.6484 164.699 82.0971 168.967 85.236 171.363C87.7519 173.284 92.6089 172.277 95.4806 172.277Z" fill="#FFDD77" stroke="#F28C0E" stroke-width="1.15169" stroke-linecap="round"/>
<rect x="95.2725" y="168.957" width="5.53909" height="6.04133" fill="#F28C0E"/>
<rect x="100.812" y="168.957" width="5.53909" height="6.04133" fill="#F28C0E"/>
<rect x="106.351" y="168.957" width="5.53909" height="6.04133" fill="#F28C0E"/>
<rect x="84.1943" y="168.957" width="5.53909" height="6.04133" fill="#F28C0E"/>
<rect x="89.7333" y="168.957" width="5.53909" height="6.04133" fill="#F28C0E"/>
<rect x="78.6552" y="162.916" width="5.53909" height="6.04133" fill="#F28C0E"/>
<rect x="78.6552" y="156.875" width="5.53909" height="6.04133" fill="#F28C0E"/>
<rect x="84.1943" y="156.875" width="5.53909" height="6.04133" fill="#F28C0E"/>
<rect x="89.7333" y="156.875" width="5.53909" height="6.04133" fill="#F28C0E"/>
<rect x="95.2725" y="156.875" width="5.53909" height="6.04133" fill="#F28C0E"/>
<rect x="89.7333" y="138.75" width="5.53909" height="6.04133" fill="#F28C0E"/>
<rect x="95.2725" y="144.791" width="5.53909" height="6.04133" fill="#F28C0E"/>
<rect x="95.2725" y="150.833" width="5.53909" height="6.04133" fill="#F28C0E"/>
<rect x="89.7333" y="132.708" width="5.53909" height="6.04133" fill="#F28C0E"/>
<rect x="95.2725" y="132.708" width="5.53909" height="6.04133" fill="#F28C0E"/>
<rect x="100.812" y="138.75" width="5.53909" height="6.04133" fill="#F28C0E"/>
<rect x="106.351" y="132.708" width="5.53909" height="6.04133" fill="#F28C0E"/>
<rect x="106.351" y="126.667" width="5.53909" height="6.04133" fill="#F28C0E"/>
<rect x="106.351" y="120.626" width="5.53909" height="6.04133" fill="#F28C0E"/>
<rect x="111.89" y="126.667" width="5.53909" height="6.04133" fill="#F28C0E"/>
<rect x="111.89" y="132.708" width="5.53909" height="6.04133" fill="#F28C0E"/>
<rect x="117.429" y="138.75" width="5.53909" height="6.04133" fill="#F28C0E"/>
<rect x="122.968" y="144.791" width="5.53909" height="6.04133" fill="#F28C0E"/>
<rect x="128.507" y="144.791" width="5.53909" height="6.04133" fill="#F28C0E"/>
<rect x="134.046" y="144.791" width="5.53909" height="6.04133" fill="#F28C0E"/>
<rect x="134.046" y="138.75" width="5.53909" height="6.04133" fill="#F28C0E"/>
<rect x="139.585" y="144.791" width="5.53909" height="6.04133" fill="#F28C0E"/>
<rect x="139.585" y="150.833" width="5.53909" height="6.04133" fill="#F28C0E"/>
<rect x="145.124" y="150.833" width="5.53909" height="6.04133" fill="#F28C0E"/>
<rect x="150.663" y="150.833" width="5.53909" height="6.04133" fill="#F28C0E"/>
<rect x="150.663" y="156.875" width="5.53909" height="6.04133" fill="#F28C0E"/>
<rect x="139.585" y="162.916" width="5.53909" height="6.04133" fill="#F28C0E"/>
<rect x="145.124" y="162.916" width="5.53909" height="6.04133" fill="#F28C0E"/>
<rect x="134.046" y="168.957" width="5.53909" height="6.04133" fill="#F28C0E"/>
<rect x="128.507" y="168.957" width="5.53909" height="6.04133" fill="#F28C0E"/>
<rect x="122.968" y="174.998" width="5.53909" height="6.04133" fill="#F28C0E"/>
<rect x="117.429" y="174.998" width="5.53909" height="6.04133" fill="#F28C0E"/>
<rect x="111.89" y="174.998" width="5.53909" height="6.04133" fill="#F28C0E"/>
<path d="M82.4395 76.1081V62.6549L82.4148 62.5739C81.399 59.2506 80.625 56.7181 80.6728 53.0199C80.6912 51.591 80.8776 45.0117 82.4395 48.8448C85.697 56.8386 90.2138 64.4601 90.6519 73.5388C90.7933 76.4691 90.8842 84.9711 86.4312 83.3522C82.8272 82.0419 82.4395 80.0147 82.4395 76.1081Z" fill="#FFDD77" stroke="#FFDD77" stroke-width="1.15169" stroke-linecap="round"/>
<rect x="78.3783" y="62.3276" width="5.53909" height="6.04133" fill="#FFDD77"/>
<rect x="78.3783" y="68.3687" width="5.53909" height="6.04133" fill="#FFDD77"/>
<rect x="78.3783" y="74.4102" width="5.53909" height="6.04133" fill="#FFDD77"/>
<rect x="83.9175" y="80.4512" width="5.53909" height="6.04133" fill="#FFDD77"/>
<rect x="89.4564" y="74.4102" width="5.53909" height="6.04133" fill="#FFDD77"/>
<rect x="89.4564" y="68.3687" width="5.53909" height="6.04133" fill="#FFDD77"/>
<rect x="83.9175" y="50.2446" width="5.53909" height="6.04133" fill="#FFDD77"/>
<rect x="83.9175" y="56.2861" width="5.53909" height="6.04133" fill="#FFDD77"/>
<rect x="83.9175" y="62.3276" width="5.53909" height="6.04133" fill="#FFDD77"/>
<rect x="78.3782" y="44.2036" width="5.53909" height="6.04133" fill="#FFDD77"/>
<rect x="78.3783" y="50.2446" width="5.53909" height="6.04133" fill="#FFDD77"/>
<rect x="78.3783" y="56.2861" width="5.53909" height="6.04133" fill="#FFDD77"/>
<path d="M133.677 68.4593C133.677 66.9154 133.759 66.6494 133.889 67.2523C134.836 64.9013 138.659 65.5532 139.697 67.817C140.618 69.8261 140.744 71.3111 140.744 73.5623C140.744 76.3127 142.51 78.9276 142.51 81.9482C142.51 87.3175 141.208 92.7674 139.239 97.6496C139.035 98.1544 136.464 103.438 135.574 102.36C134.081 100.551 135.443 90.7275 135.443 88.55C135.443 82.9687 134.359 69.4321 133.889 67.2523C133.753 67.591 133.677 67.9919 133.677 68.4593Z" fill="#FFC277" stroke="#FFC277" stroke-width="1.15169" stroke-linecap="round"/>
<rect x="128.23" y="64.1396" width="5.53909" height="6.04133" fill="#FFC277"/>
<rect x="133.769" y="64.1396" width="5.53909" height="6.04133" fill="#FFC277"/>
<rect x="133.769" y="70.1812" width="5.53909" height="6.04133" fill="#FFC277"/>
<rect x="133.769" y="76.2222" width="5.53909" height="6.04133" fill="#FFC277"/>
<rect x="133.769" y="82.2637" width="5.53909" height="6.04133" fill="#FFC277"/>
<rect x="133.769" y="88.3047" width="5.53909" height="6.04133" fill="#FFC277"/>
<rect x="133.769" y="94.3462" width="5.53909" height="6.04133" fill="#FFC277"/>
<rect x="133.769" y="100.388" width="5.53909" height="6.04133" fill="#FFC277"/>
<rect x="139.308" y="82.2637" width="5.53909" height="6.04133" fill="#FFC277"/>
<rect x="139.308" y="88.3047" width="5.53909" height="6.04133" fill="#FFC277"/>
<rect x="139.308" y="94.3462" width="5.53909" height="6.04133" fill="#FFC277"/>
<rect x="139.308" y="76.2222" width="5.53909" height="6.04133" fill="#FFC277"/>
<rect x="139.308" y="70.1812" width="5.53909" height="6.04133" fill="#FFC277"/>
<rect x="139.308" y="64.1396" width="5.53909" height="6.04133" fill="#FFC277"/>
<path d="M162.567 119.501C157.474 122.625 158.412 118.825 158.412 115.326C158.412 113.354 156.687 104.37 158.117 103.121C159.798 101.655 162.823 96.3501 165.348 99.4103C167.499 102.017 166.735 108.344 166.366 111.404L166.362 111.436C165.875 115.473 165.844 117.49 162.567 119.501Z" fill="#FFDD77" stroke="#FFDD77" stroke-width="1.15169" stroke-linecap="round"/>
<rect x="161.465" y="116.699" width="5.53909" height="6.04133" fill="#FFDD77"/>
<rect x="155.926" y="116.699" width="5.53909" height="6.04133" fill="#FFDD77"/>
<rect x="155.926" y="110.658" width="5.53909" height="6.04133" fill="#FFDD77"/>
<rect x="161.465" y="110.658" width="5.53909" height="6.04133" fill="#FFDD77"/>
<rect x="161.465" y="98.5752" width="5.53909" height="6.04133" fill="#FFDD77"/>
<rect x="161.465" y="104.617" width="5.53909" height="6.04133" fill="#FFDD77"/>
<rect x="155.926" y="98.5752" width="5.53909" height="6.04133" fill="#FFDD77"/>
<rect x="161.465" y="92.5337" width="5.53909" height="6.04133" fill="#FFDD77"/>
<rect x="155.926" y="104.617" width="5.53909" height="6.04133" fill="#FFDD77"/>
<path d="M34.2341 190.007C32.1234 190.914 30.8711 192.474 28.5603 192.754C24.3174 192.754 24.7373 195.635 24.7373 199.306C24.7373 202.974 21.8217 216.305 26.3757 216.581C28.2814 216.696 29.7671 218.629 31.5641 218.93C34.5848 219.437 37.9319 217.974 40.8182 217.176C57.9704 212.434 75.5783 210.295 92.7018 204.932C101.973 202.029 110.682 197.838 119.645 194.078C121.816 193.167 119.788 183.714 119.493 181.999C118.472 176.06 116.737 172.28 113.88 167.273C112.568 164.973 111.587 162.574 108.813 163.898C105.985 165.247 103.368 167.156 101.197 169.523C99.081 171.832 95.4731 172.188 92.6715 172.799C80.7041 175.41 68.7095 178.869 56.8384 182.032C49.1236 184.088 41.6221 186.836 34.2341 190.007Z" fill="#813014" stroke="#371F00" stroke-width="1.15169" stroke-linecap="round"/>
<rect x="28.2494" y="189.195" width="5.53909" height="6.04133" fill="#371F00"/>
<rect x="33.7886" y="189.195" width="5.53909" height="6.04133" fill="#371F00"/>
<rect x="39.3276" y="183.154" width="5.53909" height="6.04133" fill="#371F00"/>
<rect x="33.7886" y="183.154" width="5.53909" height="6.04133" fill="#371F00"/>
<rect x="44.8667" y="183.154" width="5.53909" height="6.04133" fill="#371F00"/>
<rect x="50.4059" y="177.112" width="5.53909" height="6.04133" fill="#371F00"/>
<rect x="55.9448" y="177.112" width="5.53909" height="6.04133" fill="#371F00"/>
<rect x="83.6403" y="171.071" width="5.53909" height="6.04133" fill="#371F00"/>
<rect x="61.484" y="177.112" width="5.53909" height="6.04133" fill="#371F00"/>
<rect x="67.0232" y="177.112" width="5.53909" height="6.04133" fill="#371F00"/>
<rect x="72.5621" y="171.071" width="5.53909" height="6.04133" fill="#371F00"/>
<rect x="78.1013" y="171.071" width="5.53909" height="6.04133" fill="#371F00"/>
<rect x="89.1794" y="171.071" width="5.53909" height="6.04133" fill="#371F00"/>
<rect x="94.7186" y="171.071" width="5.53909" height="6.04133" fill="#371F00"/>
<rect x="100.258" y="165.03" width="5.53909" height="6.04133" fill="#371F00"/>
<rect x="105.797" y="158.989" width="5.53909" height="6.04133" fill="#371F00"/>
<rect x="111.336" y="165.03" width="5.53909" height="6.04133" fill="#371F00"/>
<rect x="116.875" y="171.071" width="5.53909" height="6.04133" fill="#371F00"/>
<rect x="116.875" y="177.112" width="5.53909" height="6.04133" fill="#371F00"/>
<rect x="116.875" y="183.154" width="5.53909" height="6.04133" fill="#371F00"/>
<rect x="116.875" y="189.195" width="5.53909" height="6.04133" fill="#371F00"/>
<rect x="105.797" y="195.236" width="5.53909" height="6.04133" fill="#371F00"/>
<rect x="89.1794" y="201.278" width="5.53909" height="6.04133" fill="#371F00"/>
<rect x="94.7186" y="201.278" width="5.53909" height="6.04133" fill="#371F00"/>
<rect x="100.258" y="195.236" width="5.53909" height="6.04133" fill="#371F00"/>
<rect x="111.336" y="195.236" width="5.53909" height="6.04133" fill="#371F00"/>
<rect x="67.0232" y="207.319" width="5.53909" height="6.04133" fill="#371F00"/>
<rect x="39.3276" y="213.36" width="5.53909" height="6.04133" fill="#371F00"/>
<rect x="44.8667" y="213.36" width="5.53909" height="6.04133" fill="#371F00"/>
<rect x="50.4059" y="213.36" width="5.53909" height="6.04133" fill="#371F00"/>
<rect x="55.9448" y="207.319" width="5.53909" height="6.04133" fill="#371F00"/>
<rect x="61.484" y="207.319" width="5.53909" height="6.04133" fill="#371F00"/>
<rect x="72.5621" y="207.319" width="5.53909" height="6.04133" fill="#371F00"/>
<rect x="78.1013" y="207.319" width="5.53909" height="6.04133" fill="#371F00"/>
<rect x="83.6403" y="201.278" width="5.53909" height="6.04133" fill="#371F00"/>
<rect x="33.7886" y="213.36" width="5.53909" height="6.04133" fill="#371F00"/>
<rect x="28.2494" y="213.36" width="5.53909" height="6.04133" fill="#371F00"/>
<rect x="22.7103" y="213.36" width="5.53909" height="6.04133" fill="#371F00"/>
<rect x="22.7103" y="201.278" width="5.53909" height="6.04133" fill="#371F00"/>
<rect x="22.7103" y="207.319" width="5.53909" height="6.04133" fill="#371F00"/>
<rect x="22.7103" y="195.236" width="5.53909" height="6.04133" fill="#371F00"/>
<rect x="22.7103" y="189.195" width="5.53909" height="6.04133" fill="#371F00"/>
<path d="M81.9313 178.198C89.713 177.086 97.1863 172.539 104.941 172.248C108.269 172.248 113.605 170.919 113.605 175.713C113.605 183.566 104.032 188.628 97.7201 188.628C94.1805 188.628 91.0516 186.738 87.5793 186.738C83.6163 186.738 80.8155 187.24 77.2139 189.258C74.3153 190.883 71.7319 194.065 68.5173 192.093C66.0363 190.571 63.404 188.666 61.1684 186.738C59.1319 184.982 59.0851 184.644 61.04 183.273C62.625 182.162 64.0587 180.791 65.9179 180.298C71.107 178.921 76.6512 178.952 81.9313 178.198Z" fill="#B16145"/>
<rect x="94.1647" y="171.373" width="5.53909" height="6.04133" fill="#B16145"/>
<rect x="83.0864" y="171.373" width="5.53909" height="6.04133" fill="#B16145"/>
<rect x="88.6256" y="171.373" width="5.53909" height="6.04133" fill="#B16145"/>
<rect x="99.7037" y="171.373" width="5.53909" height="6.04133" fill="#B16145"/>
<rect x="77.5472" y="177.415" width="5.53909" height="6.04133" fill="#B16145"/>
<rect x="66.4691" y="177.415" width="5.53909" height="6.04133" fill="#B16145"/>
<rect x="72.0083" y="177.415" width="5.53909" height="6.04133" fill="#B16145"/>
<rect x="60.9301" y="177.415" width="5.53909" height="6.04133" fill="#B16145"/>
<rect x="55.391" y="183.456" width="5.53909" height="6.04133" fill="#B16145"/>
<rect x="60.9301" y="183.456" width="5.53909" height="6.04133" fill="#B16145"/>
<rect x="66.4691" y="189.497" width="5.53909" height="6.04133" fill="#B16145"/>
<rect x="72.0083" y="189.497" width="5.53909" height="6.04133" fill="#B16145"/>
<rect x="72.0083" y="183.456" width="5.53909" height="6.04133" fill="#B16145"/>
<rect x="77.5472" y="183.456" width="5.53909" height="6.04133" fill="#B16145"/>
<rect x="83.0864" y="183.456" width="5.53909" height="6.04133" fill="#B16145"/>
<rect x="88.6256" y="183.456" width="5.53909" height="6.04133" fill="#B16145"/>
<rect x="94.1647" y="183.456" width="5.53909" height="6.04133" fill="#B16145"/>
<rect x="110.782" y="177.415" width="5.53909" height="6.04133" fill="#B16145"/>
<rect x="105.243" y="183.456" width="5.53909" height="6.04133" fill="#B16145"/>
<rect x="99.7037" y="183.456" width="5.53909" height="6.04133" fill="#B16145"/>
<rect x="110.782" y="171.373" width="5.53909" height="6.04133" fill="#B16145"/>
<rect x="105.243" y="171.373" width="5.53909" height="6.04133" fill="#B16145"/>
<path d="M57.5427 188.325C63.7777 186.407 70.6016 188.43 76.9539 187.988C77.7117 189.022 77.8576 191.538 77.3823 192.897C76.1002 196.56 69.1276 194.813 70.7155 201.64C67.6048 203.248 65.254 195.555 61.8234 194.164C58.6165 192.864 52.1308 197.9 51.2392 193.99C50.8142 192.126 56.2291 188.729 57.5427 188.325Z" fill="#B3844A"/>
<rect width="5.8506" height="5.74018" transform="matrix(0.591229 0.806503 -0.753681 0.65724 72.2844 182.915)" fill="#B3844A"/>
<rect width="5.8506" height="5.74018" transform="matrix(0.591229 0.806503 -0.753681 0.65724 64.4989 181.969)" fill="#B3844A"/>
<rect width="5.8506" height="5.74018" transform="matrix(0.591229 0.806503 -0.753681 0.65724 60.1727 185.742)" fill="#B3844A"/>
<rect width="5.8506" height="5.74018" transform="matrix(0.591229 0.806503 -0.753681 0.65724 80.0697 183.861)" fill="#B3844A"/>
<rect width="5.8506" height="5.74018" transform="matrix(0.591229 0.806503 -0.753681 0.65724 52.3875 184.795)" fill="#B3844A"/>
<rect width="5.8506" height="5.74018" transform="matrix(0.591229 0.806503 -0.753681 0.65724 51.5203 193.287)" fill="#B3844A"/>
<rect width="5.8506" height="5.74018" transform="matrix(0.591229 0.806503 -0.753681 0.65724 55.8464 189.515)" fill="#B3844A"/>
<rect width="5.8506" height="5.74018" transform="matrix(0.591229 0.806503 -0.753681 0.65724 63.6318 190.46)" fill="#B3844A"/>
<rect width="5.8506" height="5.74018" transform="matrix(0.591229 0.806503 -0.753681 0.65724 67.0908 195.179)" fill="#B3844A"/>
<rect width="5.8506" height="5.74018" transform="matrix(0.591229 0.806503 -0.753681 0.65724 70.5499 199.897)" fill="#B3844A"/>
<rect width="5.8506" height="5.74018" transform="matrix(0.591229 0.806503 -0.753681 0.65724 75.7434 187.634)" fill="#B3844A"/>
<rect width="5.8506" height="5.74018" transform="matrix(0.591229 0.806503 -0.753681 0.65724 71.4171 191.406)" fill="#B3844A"/>
<path d="M220.13 160.943C226.526 162.063 231.937 167.029 237.87 169.542C238.159 170.828 237.321 173.178 236.366 174.192C233.79 176.928 228.138 172.144 226.946 179.065C223.504 179.097 224.338 171.04 221.762 168.204C219.354 165.553 211.528 167.147 212.227 163.19C212.56 161.305 218.782 160.707 220.13 160.943Z" fill="#B3844A"/>
<rect width="6.01399" height="5.56876" transform="matrix(0.219229 0.975673 -0.966085 0.258224 235.591 162.797)" fill="#B3844A"/>
<rect width="6.01399" height="5.56876" transform="matrix(0.219229 0.975673 -0.966085 0.258224 228.892 158.368)" fill="#B3844A"/>
<rect width="6.01399" height="5.56876" transform="matrix(0.219229 0.975673 -0.966085 0.258224 223.512 159.806)" fill="#B3844A"/>
<rect width="6.01399" height="5.56876" transform="matrix(0.219229 0.975673 -0.966085 0.258224 242.289 167.227)" fill="#B3844A"/>
<rect width="6.01399" height="5.56876" transform="matrix(0.219229 0.975673 -0.966085 0.258224 216.814 155.376)" fill="#B3844A"/>
<rect width="6.01399" height="5.56876" transform="matrix(0.219229 0.975673 -0.966085 0.258224 212.753 162.682)" fill="#B3844A"/>
<rect width="6.01399" height="5.56876" transform="matrix(0.219229 0.975673 -0.966085 0.258224 218.133 161.244)" fill="#B3844A"/>
<rect width="6.01399" height="5.56876" transform="matrix(0.219229 0.975673 -0.966085 0.258224 224.831 165.673)" fill="#B3844A"/>
<rect width="6.01399" height="5.56876" transform="matrix(0.219229 0.975673 -0.966085 0.258224 226.149 171.541)" fill="#B3844A"/>
<rect width="6.01399" height="5.56876" transform="matrix(0.219229 0.975673 -0.966085 0.258224 227.468 177.409)" fill="#B3844A"/>
<rect width="6.01399" height="5.56876" transform="matrix(0.219229 0.975673 -0.966085 0.258224 236.909 168.665)" fill="#B3844A"/>
<rect width="6.01399" height="5.56876" transform="matrix(0.219229 0.975673 -0.966085 0.258224 231.529 170.103)" fill="#B3844A"/>
<rect x="37.2382" y="72.8545" width="12.2847" height="23.4475" fill="#F67321"/>
<rect x="88.2965" width="12.2847" height="23.4475" fill="#CE1818"/>
<rect x="193.101" y="111.794" width="12.2847" height="23.4475" fill="#FFC277"/>
</svg>
