<svg width="80" height="265" viewBox="0 0 80 265" fill="none" xmlns="http://www.w3.org/2000/svg">
<path d="M16.5226 48.2227C5.5796 50.3073 6.70196 67.8526 8.63102 76.3646C11.9981 95.9598 28.1256 99.529 35.5053 98.8643C56.4036 101.879 79.4994 72.0735 62.2941 58.6456C64.8194 47.3888 58.0852 45.9644 54.4024 46.6592C57.033 50.6547 59.0322 56.4568 45.9847 47.7015C32.9373 38.9463 47.563 17.9961 56.5069 8.61548C44.7571 11.9161 22.9412 21.123 29.6754 31.546C36.4096 41.9689 21.9591 55.345 13.8922 60.7302C11.2617 52.3918 16.5226 48.2227 16.5226 48.2227Z" fill="#F28C0E"/>
<rect x="6.15388" y="49.2307" width="6.15385" height="6.15385" fill="#F28C0E"/>
<rect x="6.15388" y="55.3845" width="6.15385" height="6.15385" fill="#F28C0E"/>
<rect x="6.15388" y="61.5386" width="6.15385" height="6.15385" fill="#F28C0E"/>
<rect x="6.15388" y="67.6924" width="6.15385" height="6.15385" fill="#F28C0E"/>
<rect x="12.3077" y="43.0769" width="6.15385" height="6.15385" fill="#F28C0E"/>
<rect x="6.15388" y="73.8462" width="6.15385" height="6.15385" fill="#F28C0E"/>
<rect x="12.3077" y="49.2307" width="6.15385" height="6.15385" fill="#F28C0E"/>
<rect x="12.3077" y="55.3845" width="6.15385" height="6.15385" fill="#F28C0E"/>
<rect x="30.7693" y="30.7693" width="6.15385" height="6.15385" fill="#F28C0E"/>
<rect x="30.7693" y="36.9231" width="6.15385" height="6.15385" fill="#F28C0E"/>
<rect x="24.6154" y="43.0769" width="6.15385" height="6.15385" fill="#F28C0E"/>
<rect x="18.4616" y="49.2307" width="11.0769" height="9.23077" fill="#F28C0E"/>
<rect x="24.6154" y="30.7693" width="6.15385" height="6.15385" fill="#F28C0E"/>
<rect x="49.2308" y="6.15381" width="6.15385" height="6.15385" fill="#F28C0E"/>
<rect x="36.9231" y="12.3076" width="6.15385" height="6.15385" fill="#F28C0E"/>
<rect x="30.7693" y="18.4614" width="6.15385" height="6.15385" fill="#F28C0E"/>
<rect x="24.6154" y="24.6155" width="6.15385" height="6.15385" fill="#F28C0E"/>
<rect x="43.077" y="6.15381" width="6.15385" height="6.15385" fill="#F28C0E"/>
<rect x="55.3847" y="6.15381" width="6.15385" height="6.15385" fill="#F28C0E"/>
<rect x="49.2308" y="12.3076" width="6.15385" height="6.15385" fill="#F28C0E"/>
<rect x="43.077" y="18.4614" width="6.15385" height="6.15385" fill="#F28C0E"/>
<rect x="40.6154" y="24.6155" width="8.61539" height="6.15385" fill="#F28C0E"/>
<rect x="36.9231" y="30.7693" width="6.15385" height="6.15385" fill="#F28C0E"/>
<rect x="36.9231" y="36.9231" width="6.15385" height="6.15385" fill="#F28C0E"/>
<rect x="40" y="43.0769" width="9.23077" height="9.23077" fill="#F28C0E"/>
<rect x="49.2308" y="49.2307" width="6.15385" height="6.15385" fill="#F28C0E"/>
<rect x="49.2308" y="43.0769" width="6.15385" height="6.15385" fill="#F28C0E"/>
<rect x="61.5385" y="49.2307" width="6.15385" height="6.15385" fill="#F28C0E"/>
<rect x="61.5385" y="55.3845" width="6.15385" height="6.15385" fill="#F28C0E"/>
<rect x="55.3847" y="43.0769" width="6.15385" height="9.84615" fill="#F28C0E"/>
<rect x="61.5385" y="61.5386" width="6.15385" height="6.15385" fill="#F28C0E"/>
<rect x="67.6924" y="67.6924" width="6.15385" height="6.15385" fill="#F28C0E"/>
<rect x="61.5385" y="73.8462" width="6.15385" height="6.15385" fill="#F28C0E"/>
<rect x="61.5385" y="80" width="6.15385" height="6.15385" fill="#F28C0E"/>
<rect x="55.3847" y="86.1538" width="6.15385" height="6.15385" fill="#F28C0E"/>
<rect x="49.2308" y="92.3076" width="6.15385" height="6.15385" fill="#F28C0E"/>
<rect x="36.9231" y="98.4614" width="6.15385" height="6.15385" fill="#F28C0E"/>
<rect x="43.077" y="92.3076" width="6.15385" height="6.15385" fill="#F28C0E"/>
<rect x="30.7693" y="98.4614" width="6.15385" height="6.15385" fill="#F28C0E"/>
<rect x="6.15388" y="80" width="6.15385" height="6.15385" fill="#F28C0E"/>
<rect x="12.3077" y="86.1538" width="6.15385" height="6.15385" fill="#F28C0E"/>
<rect x="18.4616" y="92.3076" width="6.15385" height="6.15385" fill="#F28C0E"/>
<rect x="24.6154" y="92.3076" width="6.15385" height="6.15385" fill="#F28C0E"/>
<path d="M23.9714 74.1881C18.5071 75.2606 17.477 74.9283 18.4403 79.3076C20.1216 89.3889 32.4846 100.483 36.1696 100.141C46.605 101.693 64.367 84.3544 55.7757 77.446C57.0367 71.6546 47.4446 72.9255 45.6057 73.283C46.9192 75.3386 47.9175 78.3236 41.4024 73.8192C34.8873 69.3148 38.4035 64.5867 42.8695 59.7605C37.0024 61.4586 25.679 60.4484 29.0416 65.8108C32.4043 71.1732 30.7651 75.1408 26.737 77.9114C25.4235 73.6215 23.9714 74.1881 23.9714 74.1881Z" fill="#FFDD77"/>
<rect x="20.8547" y="71.7944" width="5.47009" height="5.47009" fill="#FFDD77"/>
<rect x="15.3846" y="71.7944" width="5.47009" height="5.47009" fill="#FFDD77"/>
<rect x="15.3846" y="77.2649" width="5.47009" height="5.47009" fill="#FFDD77"/>
<rect x="26.3248" y="77.2649" width="5.47009" height="5.47009" fill="#FFDD77"/>
<rect x="26.3248" y="66.3245" width="5.47009" height="5.47009" fill="#FFDD77"/>
<rect x="26.3248" y="71.7944" width="5.47009" height="5.47009" fill="#FFDD77"/>
<rect x="26.3248" y="60.8542" width="5.47009" height="5.47009" fill="#FFDD77"/>
<rect x="31.7948" y="60.8542" width="5.47009" height="5.47009" fill="#FFDD77"/>
<rect x="37.2649" y="55.3843" width="5.47009" height="5.47009" fill="#FFDD77"/>
<rect x="42.735" y="55.3843" width="5.47009" height="5.47009" fill="#FFDD77"/>
<rect x="37.2649" y="60.8542" width="5.47009" height="5.47009" fill="#FFDD77"/>
<rect x="37.2649" y="66.3245" width="5.47009" height="5.47009" fill="#FFDD77"/>
<rect x="37.2649" y="71.7944" width="5.47009" height="5.47009" fill="#FFDD77"/>
<rect x="42.735" y="71.7944" width="5.47009" height="5.47009" fill="#FFDD77"/>
<rect x="53.6751" y="71.7944" width="5.47009" height="5.47009" fill="#FFDD77"/>
<rect x="48.2051" y="71.7944" width="5.47009" height="5.47009" fill="#FFDD77"/>
<rect x="53.6751" y="77.2649" width="5.47009" height="5.47009" fill="#FFDD77"/>
<rect x="53.6751" y="82.7346" width="5.47009" height="5.47009" fill="#FFDD77"/>
<rect x="51.0769" y="87.9998" width="8" height="5.53846" fill="#FFDD77"/>
<rect x="42.735" y="93.675" width="5.47009" height="5.47009" fill="#FFDD77"/>
<rect x="37.2649" y="99.1453" width="5.47009" height="5.47009" fill="#FFDD77"/>
<rect x="48.2051" y="93.675" width="5.47009" height="5.47009" fill="#FFDD77"/>
<rect x="32" y="97.8459" width="5.53846" height="6.76923" fill="#FFDD77"/>
<rect x="15.3846" y="82.7346" width="5.47009" height="5.47009" fill="#FFDD77"/>
<rect x="20.923" y="84.9229" width="5.53846" height="8.61539" fill="#FFDD77"/>
<rect x="26.3248" y="93.675" width="5.47009" height="5.47009" fill="#FFDD77"/>
<path d="M22.1714 133.281L30.4615 130.662L42.7164 129.006L52.0879 123.827L66.145 119.385L68.3076 121.309L65.7138 122.805L60.378 165.137L63.9824 172.62L65.974 207.469L68.3076 208.965L66.145 210.462H22.1714L17.8461 208.324L22.1714 203.406V136.488L19.6483 134.992L22.1714 133.281Z" fill="#504439"/>
<rect x="24.6153" y="209.231" width="6.15385" height="6.15385" fill="#504439"/>
<rect x="30.7692" y="209.231" width="6.15385" height="6.15385" fill="#504439"/>
<rect x="36.923" y="209.231" width="6.15385" height="6.15385" fill="#504439"/>
<rect x="43.0769" y="209.231" width="6.15385" height="6.15385" fill="#504439"/>
<rect x="49.2307" y="209.231" width="6.15385" height="6.15385" fill="#504439"/>
<rect x="55.3846" y="209.231" width="6.15385" height="6.15385" fill="#504439"/>
<rect x="61.5384" y="209.231" width="6.15385" height="6.15385" fill="#504439"/>
<rect x="18.4615" y="209.231" width="6.15385" height="6.15385" fill="#504439"/>
<rect x="61.5384" y="166.154" width="6.15385" height="6.15385" fill="#504439"/>
<rect x="55.3846" y="160" width="6.15385" height="6.15385" fill="#504439"/>
<rect x="61.5384" y="172.308" width="6.15385" height="6.15385" fill="#504439"/>
<rect x="61.5384" y="178.462" width="6.15385" height="6.15385" fill="#504439"/>
<rect x="61.5384" y="184.616" width="6.15385" height="6.15385" fill="#504439"/>
<rect x="61.5384" y="190.77" width="6.15385" height="6.15385" fill="#504439"/>
<rect x="61.5384" y="196.923" width="6.15385" height="6.15385" fill="#504439"/>
<rect x="61.5384" y="203.077" width="6.15385" height="6.15385" fill="#504439"/>
<rect x="67.6923" y="203.077" width="6.15385" height="6.15385" fill="#504439"/>
<rect x="12.3076" y="203.077" width="6.15385" height="6.15385" fill="#504439"/>
<rect x="18.4615" y="203.077" width="6.15385" height="6.15385" fill="#504439"/>
<rect x="18.4615" y="135.385" width="6.15385" height="6.15385" fill="#504439"/>
<rect x="18.4615" y="141.539" width="6.15385" height="6.15385" fill="#504439"/>
<rect x="18.4615" y="147.692" width="6.15385" height="6.15385" fill="#504439"/>
<rect x="18.4615" y="153.846" width="6.15385" height="6.15385" fill="#504439"/>
<rect x="18.4615" y="160" width="6.15385" height="6.15385" fill="#504439"/>
<rect x="18.4615" y="166.154" width="6.15385" height="6.15385" fill="#504439"/>
<rect x="18.4615" y="172.308" width="6.15385" height="6.15385" fill="#504439"/>
<rect x="18.4615" y="178.462" width="6.15385" height="6.15385" fill="#504439"/>
<rect x="18.4615" y="184.616" width="6.15385" height="6.15385" fill="#504439"/>
<rect x="18.4615" y="190.77" width="6.15385" height="6.15385" fill="#504439"/>
<rect x="18.4615" y="196.923" width="6.15385" height="6.15385" fill="#504439"/>
<rect x="18.4615" y="129.231" width="6.15385" height="6.15385" fill="#504439"/>
<rect x="61.5384" y="123.077" width="6.15385" height="6.15385" fill="#504439"/>
<rect x="61.5384" y="129.231" width="6.15385" height="6.15385" fill="#504439"/>
<rect x="61.5384" y="135.385" width="6.15385" height="6.15385" fill="#504439"/>
<rect x="61.5384" y="141.539" width="6.15385" height="6.15385" fill="#504439"/>
<rect x="61.5384" y="147.692" width="6.15385" height="6.15385" fill="#504439"/>
<rect x="55.3846" y="153.846" width="6.15385" height="6.15385" fill="#504439"/>
<rect x="61.5384" y="116.923" width="6.15385" height="6.15385" fill="#504439"/>
<rect x="67.6923" y="116.923" width="6.15385" height="6.15385" fill="#504439"/>
<rect x="49.2307" y="123.077" width="6.15385" height="6.15385" fill="#504439"/>
<rect x="55.3846" y="116.923" width="6.15385" height="6.15385" fill="#504439"/>
<rect x="24.6153" y="129.231" width="6.15385" height="6.15385" fill="#504439"/>
<rect x="30.7692" y="129.231" width="6.15385" height="6.15385" fill="#504439"/>
<rect x="36.923" y="129.231" width="6.15385" height="6.15385" fill="#504439"/>
<rect x="36.923" y="123.077" width="6.15385" height="6.15385" fill="#504439"/>
<rect x="43.0769" y="123.077" width="6.15385" height="6.15385" fill="#504439"/>
<path d="M38.1538 133.847H23.0769L33.5384 144.308L45.2307 155.693L59.3846 141.847L63.0769 131.693V123.077L68.6153 121.231H62.1538L57.8461 127.693H45.2307L38.1538 133.847Z" fill="#7A593F"/>
<rect x="24.6153" y="129.231" width="6.15385" height="6.15385" fill="#7A593F"/>
<rect x="30.7692" y="129.231" width="6.15385" height="6.15385" fill="#7A593F"/>
<rect x="18.4615" y="129.231" width="6.15385" height="6.15385" fill="#7A593F"/>
<rect x="36.923" y="129.231" width="6.15385" height="6.15385" fill="#7A593F"/>
<rect x="36.923" y="123.077" width="12.3077" height="6.15385" fill="#7A593F"/>
<rect x="49.2307" y="123.077" width="6.15385" height="6.15385" fill="#7A593F"/>
<rect x="55.3846" y="123.077" width="6.15385" height="6.15385" fill="#7A593F"/>
<rect x="55.3846" y="116.924" width="12.3077" height="6.15385" fill="#7A593F"/>
<rect x="67.6923" y="116.924" width="6.15385" height="6.15385" fill="#7A593F"/>
<rect x="61.5384" y="123.077" width="6.15385" height="6.15385" fill="#7A593F"/>
<rect x="61.5384" y="129.231" width="6.15385" height="6.15385" fill="#7A593F"/>
<rect x="55.3846" y="135.385" width="6.15385" height="6.15385" fill="#7A593F"/>
<rect x="52.3076" y="141.539" width="9.23077" height="6.15385" fill="#7A593F"/>
<rect x="46.7692" y="147.693" width="8.61539" height="6.15385" fill="#7A593F"/>
<rect x="43.0769" y="153.847" width="6.15385" height="6.15385" fill="#7A593F"/>
<rect x="30.7692" y="141.539" width="6.15385" height="6.15385" fill="#7A593F"/>
<rect x="36.923" y="147.693" width="6.15385" height="6.15385" fill="#7A593F"/>
<rect x="24.6153" y="135.385" width="6.15385" height="6.15385" fill="#7A593F"/>
<path d="M45.5384 204.616L22.1538 195.077V212.616H65.8461V195.077L45.5384 204.616Z" fill="#3F2E24"/>
<rect x="30.7692" y="196.923" width="6.15385" height="6.15385" fill="#3F2E24"/>
<rect x="24.6153" y="196.923" width="6.15385" height="6.15385" fill="#3F2E24"/>
<rect x="36.923" y="196.923" width="6.15385" height="6.15385" fill="#3F2E24"/>
<rect x="18.4615" y="190.769" width="6.15385" height="6.15385" fill="#3F2E24"/>
<rect x="43.0769" y="203.077" width="6.15385" height="6.15385" fill="#3F2E24"/>
<rect x="49.2307" y="196.923" width="6.15385" height="6.15385" fill="#3F2E24"/>
<rect x="55.3846" y="196.923" width="6.15385" height="6.15385" fill="#3F2E24"/>
<rect x="61.5384" y="190.769" width="6.15385" height="6.15385" fill="#3F2E24"/>
<rect x="61.5384" y="196.923" width="6.15385" height="6.15385" fill="#3F2E24"/>
<rect x="61.5384" y="203.077" width="12.3077" height="6.15385" fill="#3F2E24"/>
<rect x="61.5384" y="209.231" width="6.15385" height="6.15385" fill="#3F2E24"/>
<rect x="24.6153" y="209.231" width="6.15385" height="6.15385" fill="#3F2E24"/>
<rect x="30.7692" y="209.231" width="6.15385" height="6.15385" fill="#3F2E24"/>
<rect x="36.923" y="209.231" width="6.15385" height="6.15385" fill="#3F2E24"/>
<rect x="43.0769" y="209.231" width="6.15385" height="6.15385" fill="#3F2E24"/>
<rect x="49.2307" y="209.231" width="6.15385" height="6.15385" fill="#3F2E24"/>
<rect x="55.3846" y="209.231" width="6.15385" height="6.15385" fill="#3F2E24"/>
<rect x="18.4615" y="209.231" width="6.15385" height="6.15385" fill="#3F2E24"/>
<rect x="18.4615" y="196.923" width="6.15385" height="6.15385" fill="#3F2E24"/>
<rect x="12.3076" y="203.077" width="12.3077" height="6.15385" fill="#3F2E24"/>
<path fill-rule="evenodd" clip-rule="evenodd" d="M77.5385 212.923H8.61539V222.154H77.5385V212.923ZM61.5385 222.154H24.6154V246.154L47.3846 261.538L61.5385 246.154V222.154Z" fill="#D9D9D9"/>
<rect x="24.6154" y="222.769" width="36.9231" height="5.53846" fill="#BFC8D0"/>
<rect x="44.3077" y="227.077" width="17.2308" height="5.53846" fill="#BFC8D0"/>
<rect x="34.4615" y="85.5386" width="9.23077" height="9.23077" fill="#FFFC47"/>
<rect x="26.4615" y="78.1538" width="9.23077" height="9.23077" fill="#FFFC47"/>
<rect x="35.0769" y="78.1538" width="9.23077" height="9.23077" fill="#FFFC47"/>
<rect x="24.6154" y="98.4614" width="6.15385" height="6.15385" fill="#302626"/>
<rect x="30.7692" y="104.615" width="6.15385" height="6.15385" fill="#302626"/>
<rect x="18.4615" y="98.4614" width="6.15385" height="6.15385" fill="#302626"/>
<rect x="12.3077" y="92.3076" width="6.15385" height="6.15385" fill="#302626"/>
<rect x="6.15385" y="86.1538" width="6.15385" height="6.15385" fill="#302626"/>
<rect y="80" width="6.15385" height="6.15385" fill="#302626"/>
<rect y="55.3845" width="6.15385" height="6.15385" fill="#302626"/>
<rect y="61.5386" width="6.15385" height="6.15385" fill="#302626"/>
<rect y="67.6924" width="6.15385" height="6.15385" fill="#302626"/>
<rect y="73.8462" width="6.15385" height="6.15385" fill="#302626"/>
<rect y="49.2307" width="6.15385" height="6.15385" fill="#302626"/>
<rect x="6.15385" y="43.0769" width="6.15385" height="6.15385" fill="#302626"/>
<rect x="12.3077" y="36.9231" width="6.15385" height="6.15385" fill="#302626"/>
<rect x="18.4615" y="43.0769" width="6.15385" height="6.15385" fill="#302626"/>
<rect x="12.3077" y="43.0769" width="6.15385" height="6.15385" fill="#302626"/>
<rect x="24.6154" y="36.9231" width="6.15385" height="6.15385" fill="#302626"/>
<rect x="18.4615" y="30.7693" width="6.15385" height="6.15385" fill="#302626"/>
<rect x="18.4615" y="24.6155" width="6.15385" height="6.15385" fill="#302626"/>
<rect x="24.6154" y="18.4614" width="6.15385" height="6.15385" fill="#302626"/>
<rect x="30.7692" y="12.3076" width="6.15385" height="6.15385" fill="#302626"/>
<rect x="36.9231" y="6.15381" width="6.15385" height="6.15385" fill="#302626"/>
<rect x="43.0769" width="6.15385" height="6.15385" fill="#302626"/>
<rect x="49.2308" width="6.15385" height="6.15385" fill="#302626"/>
<rect x="55.3846" width="6.15385" height="6.15385" fill="#302626"/>
<rect x="61.5385" width="6.15385" height="6.15385" fill="#302626"/>
<rect x="61.5385" y="6.15381" width="6.15385" height="6.15385" fill="#302626"/>
<rect x="55.3846" y="12.3076" width="6.15385" height="6.15385" fill="#302626"/>
<rect x="49.2308" y="18.4614" width="6.15385" height="6.15385" fill="#302626"/>
<rect x="49.2308" y="24.6155" width="6.15385" height="6.15385" fill="#302626"/>
<rect x="43.0769" y="30.7693" width="6.15385" height="6.15385" fill="#302626"/>
<rect x="43.0769" y="36.9231" width="6.15385" height="6.15385" fill="#302626"/>
<rect x="49.2308" y="36.9231" width="6.15385" height="6.15385" fill="#302626"/>
<rect x="55.3846" y="36.9231" width="6.15385" height="6.15385" fill="#302626"/>
<rect x="61.5385" y="43.0769" width="6.15385" height="6.15385" fill="#302626"/>
<rect x="67.6923" y="49.2307" width="6.15385" height="6.15385" fill="#302626"/>
<rect x="67.6923" y="55.3845" width="6.15385" height="6.15385" fill="#302626"/>
<rect x="67.6923" y="61.5386" width="6.15385" height="6.15385" fill="#302626"/>
<rect x="73.8462" y="67.6924" width="6.15385" height="6.15385" fill="#302626"/>
<rect x="67.6923" y="73.8462" width="6.15385" height="6.15385" fill="#302626"/>
<rect x="61.5385" y="80" width="6.15385" height="6.15385" fill="#302626"/>
<rect x="61.5385" y="86.1538" width="6.15385" height="6.15385" fill="#302626"/>
<rect x="55.3846" y="92.3076" width="6.15385" height="6.15385" fill="#302626"/>
<rect x="49.2308" y="92.3076" width="6.15385" height="6.15385" fill="#302626"/>
<rect x="43.0769" y="98.4614" width="6.15385" height="6.15385" fill="#302626"/>
<rect x="36.9231" y="98.4614" width="6.15385" height="6.15385" fill="#302626"/>
<path d="M33.5385 126.769L19.6923 128L16.3077 133.231V200.923L11.077 202.154L9.84619 208.923L16.3077 212.308L9.84619 211.385L6.46158 216.308V219.385L11.077 223.692H19.6923L22.7693 225.539L24.3077 248L48.3077 263.385L59.3847 252L64 241.231V224.616L75.077 223.692L79.3847 219.385V214.462L70.1539 211.385L75.077 207.692V203.077L70.1539 200V170.154L64 163.077V156.308L70.1539 151.692L71.6924 125.231L76.3077 120L70.1539 115.385H59.077L52.3077 121.539H41.5385L33.5385 126.769Z" stroke="#302626"/>
<rect x="18.4616" y="123.077" width="6.15385" height="6.15385" fill="#302626"/>
<rect x="24.6154" y="123.077" width="6.15385" height="6.15385" fill="#302626"/>
<rect x="30.7693" y="123.077" width="6.15385" height="6.15385" fill="#302626"/>
<rect x="36.9231" y="116.923" width="6.15385" height="6.15385" fill="#302626"/>
<rect x="43.077" y="116.923" width="6.15385" height="6.15385" fill="#302626"/>
<rect x="49.2308" y="116.923" width="6.15385" height="6.15385" fill="#302626"/>
<rect x="55.3847" y="110.77" width="6.15385" height="6.15385" fill="#302626"/>
<rect x="61.5385" y="110.77" width="6.15385" height="6.15385" fill="#302626"/>
<rect x="67.6924" y="110.77" width="6.15385" height="6.15385" fill="#302626"/>
<rect x="73.8462" y="116.923" width="6.15385" height="6.15385" fill="#302626"/>
<rect x="67.6924" y="123.077" width="6.15385" height="6.15385" fill="#302626"/>
<rect x="67.6924" y="129.231" width="6.15385" height="6.15385" fill="#302626"/>
<rect x="67.6924" y="135.385" width="6.15385" height="6.15385" fill="#302626"/>
<rect x="67.6924" y="141.539" width="6.15385" height="6.15385" fill="#302626"/>
<rect x="67.6924" y="147.692" width="6.15385" height="6.15385" fill="#302626"/>
<rect x="61.5385" y="153.846" width="6.15385" height="6.15385" fill="#302626"/>
<rect x="61.5385" y="160" width="6.15385" height="6.15385" fill="#302626"/>
<rect x="67.6924" y="166.154" width="6.15385" height="6.15385" fill="#302626"/>
<rect x="67.6924" y="172.308" width="6.15385" height="6.15385" fill="#302626"/>
<rect x="67.6924" y="178.462" width="6.15385" height="6.15385" fill="#302626"/>
<rect x="67.6924" y="184.616" width="6.15385" height="6.15385" fill="#302626"/>
<rect x="67.6924" y="190.77" width="6.15385" height="6.15385" fill="#302626"/>
<rect x="67.6924" y="196.923" width="6.15385" height="6.15385" fill="#302626"/>
<rect x="73.8462" y="203.077" width="6.15385" height="6.15385" fill="#302626"/>
<rect x="67.6924" y="209.231" width="6.15385" height="6.15385" fill="#302626"/>
<rect x="73.8462" y="209.231" width="6.15385" height="6.15385" fill="#302626"/>
<rect x="73.8462" y="215.385" width="6.15385" height="6.15385" fill="#302626"/>
<rect x="73.8462" y="221.539" width="6.15385" height="6.15385" fill="#302626"/>
<rect x="61.5385" y="221.539" width="6.15385" height="6.15385" fill="#302626"/>
<rect x="67.6924" y="221.539" width="6.15385" height="6.15385" fill="#302626"/>
<rect x="61.5385" y="227.692" width="6.15385" height="6.15385" fill="#302626"/>
<rect x="61.5385" y="233.846" width="6.15385" height="6.15385" fill="#302626"/>
<rect x="61.5385" y="240" width="6.15385" height="6.15385" fill="#302626"/>
<rect x="55.3847" y="246.154" width="6.15385" height="6.15385" fill="#302626"/>
<rect x="55.3847" y="252.308" width="6.15385" height="6.15385" fill="#302626"/>
<rect x="49.2308" y="258.462" width="6.15385" height="6.15385" fill="#302626"/>
<rect x="43.077" y="258.462" width="6.15385" height="6.15385" fill="#302626"/>
<rect x="24.6154" y="246.154" width="6.15385" height="6.15385" fill="#302626"/>
<rect x="30.7693" y="252.308" width="6.15385" height="6.15385" fill="#302626"/>
<rect x="36.9231" y="252.308" width="6.15385" height="6.15385" fill="#302626"/>
<rect x="18.4616" y="246.154" width="6.15385" height="6.15385" fill="#302626"/>
<rect x="18.4616" y="227.692" width="6.15385" height="6.15385" fill="#302626"/>
<rect x="18.4616" y="233.846" width="6.15385" height="6.15385" fill="#302626"/>
<rect x="18.4616" y="240" width="6.15385" height="6.15385" fill="#302626"/>
<rect x="18.4616" y="221.539" width="6.15385" height="6.15385" fill="#302626"/>
<rect x="12.3077" y="221.539" width="6.15385" height="6.15385" fill="#302626"/>
<rect x="6.15388" y="221.539" width="6.15385" height="6.15385" fill="#302626"/>
<rect x="6.15388" y="215.385" width="6.15385" height="6.15385" fill="#302626"/>
<rect x="6.15388" y="209.231" width="6.15385" height="6.15385" fill="#302626"/>
<rect x="12.3077" y="209.231" width="6.15385" height="6.15385" fill="#302626"/>
<rect x="6.15388" y="203.077" width="6.15385" height="6.15385" fill="#302626"/>
<rect x="6.15388" y="196.923" width="6.15385" height="6.15385" fill="#302626"/>
<rect x="12.3077" y="196.923" width="6.15385" height="6.15385" fill="#302626"/>
<rect x="12.3077" y="135.385" width="6.15385" height="6.15385" fill="#302626"/>
<rect x="12.3077" y="141.539" width="6.15385" height="6.15385" fill="#302626"/>
<rect x="12.3077" y="147.692" width="6.15385" height="6.15385" fill="#302626"/>
<rect x="12.3077" y="153.846" width="6.15385" height="6.15385" fill="#302626"/>
<rect x="12.3077" y="160" width="6.15385" height="6.15385" fill="#302626"/>
<rect x="12.3077" y="166.154" width="6.15385" height="6.15385" fill="#302626"/>
<rect x="12.3077" y="172.308" width="6.15385" height="6.15385" fill="#302626"/>
<rect x="12.3077" y="178.462" width="6.15385" height="6.15385" fill="#302626"/>
<rect x="12.3077" y="184.616" width="6.15385" height="6.15385" fill="#302626"/>
<rect x="12.3077" y="190.77" width="6.15385" height="6.15385" fill="#302626"/>
<rect x="12.3077" y="129.231" width="6.15385" height="6.15385" fill="#302626"/>
</svg>
