<svg width="15" height="147" viewBox="0 0 15 147" fill="none" xmlns="http://www.w3.org/2000/svg">
<path fill-rule="evenodd" clip-rule="evenodd" d="M12.1023 21.3922V14.574C12.1023 11.9851 10.0036 9.88645 7.41478 9.88645C4.82594 9.88645 2.72727 11.9851 2.72727 14.574V21.3922C2.72727 23.981 4.82594 26.0797 7.41478 26.0797C10.0036 26.0797 12.1023 23.981 12.1023 21.3922ZM7.41478 9.03418C4.35525 9.03418 1.875 11.5144 1.875 14.574V21.3922C1.875 24.4517 4.35525 26.9319 7.41478 26.9319C10.4743 26.9319 12.9546 24.4517 12.9546 21.3922V14.574C12.9546 11.5144 10.4743 9.03418 7.41478 9.03418Z" fill="#8D8480"/>
<rect x="11.9318" y="15.3409" width="1.70455" height="1.70455" fill="#8D8480"/>
<rect x="11.9318" y="17.0455" width="1.70455" height="1.70455" fill="#8D8480"/>
<rect x="11.9318" y="18.75" width="1.70455" height="1.70455" fill="#8D8480"/>
<rect x="11.9318" y="20.4546" width="1.70455" height="1.70455" fill="#8D8480"/>
<rect x="11.9318" y="13.6364" width="1.70455" height="1.70455" fill="#8D8480"/>
<rect x="10.2273" y="10.2273" width="1.70455" height="1.70455" fill="#8D8480"/>
<rect x="10.2273" y="11.9319" width="1.70455" height="1.70455" fill="#8D8480"/>
<rect x="6.81818" y="8.52271" width="1.70455" height="1.70455" fill="#8D8480"/>
<rect x="8.52277" y="10.2273" width="1.70455" height="1.70455" fill="#8D8480"/>
<rect x="3.40906" y="10.2273" width="1.70455" height="1.70455" fill="#8D8480"/>
<rect x="1.70453" y="11.9319" width="1.70455" height="1.70455" fill="#8D8480"/>
<rect x="1.70453" y="13.6364" width="1.70455" height="1.70455" fill="#8D8480"/>
<rect x="5.11365" y="8.52271" width="1.70455" height="1.70455" fill="#8D8480"/>
<rect x="1.70453" y="15.3409" width="1.70455" height="1.70455" fill="#8D8480"/>
<rect x="1.70453" y="17.0455" width="1.70455" height="1.70455" fill="#8D8480"/>
<rect x="1.70453" y="18.75" width="1.70455" height="1.70455" fill="#8D8480"/>
<rect x="1.70453" y="20.4546" width="1.70455" height="1.70455" fill="#8D8480"/>
<rect x="1.70453" y="22.1592" width="1.70455" height="1.70455" fill="#8D8480"/>
<rect x="3.40906" y="23.8636" width="1.70455" height="1.70455" fill="#8D8480"/>
<rect x="5.11365" y="25.5682" width="1.70455" height="1.70455" fill="#8D8480"/>
<rect x="6.81818" y="25.5682" width="1.70455" height="1.70455" fill="#8D8480"/>
<rect x="10.2273" y="22.1592" width="1.70455" height="1.70455" fill="#8D8480"/>
<rect x="10.2273" y="23.8636" width="1.70455" height="1.70455" fill="#8D8480"/>
<rect x="8.52277" y="25.5682" width="1.70455" height="1.70455" fill="#8D8480"/>
<rect x="1.70453" y="10.2273" width="1.70455" height="1.70455" fill="#8D8480"/>
<rect x="3.40906" y="8.52271" width="1.70455" height="1.70455" fill="#8D8480"/>
<rect x="1.70453" y="23.8636" width="1.70455" height="1.70455" fill="#8D8480"/>
<rect x="3.40906" y="25.5682" width="1.70455" height="1.70455" fill="#8D8480"/>
<rect x="11.9318" y="22.1592" width="1.70455" height="1.70455" fill="#8D8480"/>
<rect x="8.52277" y="8.52271" width="1.70455" height="1.70455" fill="#8D8480"/>
<rect x="11.9318" y="11.9319" width="1.70455" height="1.70455" fill="#8D8480"/>
<path fill-rule="evenodd" clip-rule="evenodd" d="M13.4659 21.3922V14.574C13.4659 11.9851 11.3673 9.88645 8.77843 9.88645C6.18959 9.88645 4.09092 11.9851 4.09092 14.574V21.3922C4.09092 23.981 6.18959 26.0797 8.77843 26.0797C11.3673 26.0797 13.4659 23.981 13.4659 21.3922ZM8.77843 9.03418C5.71889 9.03418 3.23865 11.5144 3.23865 14.574V21.3922C3.23865 24.4517 5.71889 26.9319 8.77843 26.9319C11.838 26.9319 14.3182 24.4517 14.3182 21.3922V14.574C14.3182 11.5144 11.838 9.03418 8.77843 9.03418Z" fill="#666775"/>
<rect x="13.2954" y="15.3409" width="1.70455" height="1.70455" fill="#666775"/>
<rect x="13.2954" y="17.0455" width="1.70455" height="1.70455" fill="#666775"/>
<rect x="13.2954" y="18.75" width="1.70455" height="1.70455" fill="#666775"/>
<rect x="13.2954" y="20.4546" width="1.70455" height="1.70455" fill="#666775"/>
<rect x="13.2954" y="13.6364" width="1.70455" height="1.70455" fill="#666775"/>
<rect x="11.5909" y="10.2273" width="1.70455" height="1.70455" fill="#666775"/>
<rect x="11.5909" y="11.9319" width="1.70455" height="1.70455" fill="#666775"/>
<rect x="8.18176" y="8.52271" width="1.70455" height="1.70455" fill="#666775"/>
<rect x="9.88635" y="10.2273" width="1.70455" height="1.70455" fill="#666775"/>
<rect x="4.77271" y="10.2273" width="1.70455" height="1.70455" fill="#666775"/>
<rect x="3.06812" y="11.9319" width="1.70455" height="1.70455" fill="#666775"/>
<rect x="3.06812" y="13.6364" width="1.70455" height="1.70455" fill="#666775"/>
<rect x="6.47723" y="8.52271" width="1.70455" height="1.70455" fill="#666775"/>
<rect x="3.06812" y="15.3409" width="1.70455" height="1.70455" fill="#666775"/>
<rect x="3.06812" y="17.0455" width="1.70455" height="1.70455" fill="#666775"/>
<rect x="3.06812" y="18.75" width="1.70455" height="1.70455" fill="#666775"/>
<rect x="3.06812" y="20.4546" width="1.70455" height="1.70455" fill="#666775"/>
<rect x="3.06812" y="22.1592" width="1.70455" height="1.70455" fill="#666775"/>
<rect x="4.77271" y="23.8636" width="1.70455" height="1.70455" fill="#666775"/>
<rect x="6.47723" y="25.5682" width="1.70455" height="1.70455" fill="#666775"/>
<rect x="8.18176" y="25.5682" width="1.70455" height="1.70455" fill="#666775"/>
<rect x="11.5909" y="22.1592" width="1.70455" height="1.70455" fill="#666775"/>
<rect x="11.5909" y="23.8636" width="1.70455" height="1.70455" fill="#666775"/>
<rect x="9.88635" y="25.5682" width="1.70455" height="1.70455" fill="#666775"/>
<rect x="3.06812" y="10.2273" width="1.70455" height="1.70455" fill="#666775"/>
<rect x="4.77271" y="8.52271" width="1.70455" height="1.70455" fill="#666775"/>
<rect x="3.06812" y="23.8636" width="1.70455" height="1.70455" fill="#666775"/>
<rect x="4.77271" y="25.5682" width="1.70455" height="1.70455" fill="#666775"/>
<rect x="13.2954" y="22.1592" width="1.70455" height="1.70455" fill="#666775"/>
<rect x="9.88635" y="8.52271" width="1.70455" height="1.70455" fill="#666775"/>
<rect x="13.2954" y="11.9319" width="1.70455" height="1.70455" fill="#666775"/>
<path fill-rule="evenodd" clip-rule="evenodd" d="M10.3978 23.2672V16.449C10.3978 13.8601 8.29909 11.7615 5.71025 11.7615C3.12141 11.7615 1.02275 13.8601 1.02275 16.449V23.2672C1.02275 25.856 3.12141 27.9547 5.71025 27.9547C8.29909 27.9547 10.3978 25.856 10.3978 23.2672ZM5.71025 10.9092C2.65072 10.9092 0.170471 13.3894 0.170471 16.449V23.2672C0.170471 26.3267 2.65072 28.8069 5.71025 28.8069C8.76979 28.8069 11.25 26.3267 11.25 23.2672V16.449C11.25 13.3894 8.76979 10.9092 5.71025 10.9092Z" fill="#333022"/>
<rect x="10.2273" y="17.2159" width="1.70455" height="1.70455" fill="#333022"/>
<rect x="10.2273" y="18.9205" width="1.70455" height="1.70455" fill="#333022"/>
<rect x="10.2273" y="20.625" width="1.70455" height="1.70455" fill="#333022"/>
<rect x="10.2273" y="22.3296" width="1.70455" height="1.70455" fill="#333022"/>
<rect x="10.2273" y="15.5114" width="1.70455" height="1.70455" fill="#333022"/>
<rect x="8.52277" y="12.1023" width="1.70455" height="1.70455" fill="#333022"/>
<rect x="8.52277" y="13.8069" width="1.70455" height="1.70455" fill="#333022"/>
<rect x="5.11365" y="10.3977" width="1.70455" height="1.70455" fill="#333022"/>
<rect x="6.81818" y="12.1023" width="1.70455" height="1.70455" fill="#333022"/>
<rect x="1.70453" y="12.1023" width="1.70455" height="1.70455" fill="#333022"/>
<rect y="13.8069" width="1.70455" height="1.70455" fill="#333022"/>
<rect y="15.5114" width="1.70455" height="1.70455" fill="#333022"/>
<rect x="3.40906" y="10.3977" width="1.70455" height="1.70455" fill="#333022"/>
<rect y="17.2159" width="1.70455" height="1.70455" fill="#333022"/>
<rect y="18.9205" width="1.70455" height="1.70455" fill="#333022"/>
<rect y="20.625" width="1.70455" height="1.70455" fill="#333022"/>
<rect y="22.3296" width="1.70455" height="1.70455" fill="#333022"/>
<rect y="24.0342" width="1.70455" height="1.70455" fill="#333022"/>
<rect x="1.70453" y="25.7386" width="1.70455" height="1.70455" fill="#333022"/>
<rect x="3.40906" y="27.4432" width="1.70455" height="1.70455" fill="#333022"/>
<rect x="5.11365" y="27.4432" width="1.70455" height="1.70455" fill="#333022"/>
<rect x="8.52277" y="24.0342" width="1.70455" height="1.70455" fill="#333022"/>
<rect x="8.52277" y="25.7386" width="1.70455" height="1.70455" fill="#333022"/>
<rect x="6.81818" y="27.4432" width="1.70455" height="1.70455" fill="#333022"/>
<rect y="12.1023" width="1.70455" height="1.70455" fill="#333022"/>
<rect x="1.70453" y="10.3977" width="1.70455" height="1.70455" fill="#333022"/>
<rect y="25.7386" width="1.70455" height="1.70455" fill="#333022"/>
<rect x="1.70453" y="27.4432" width="1.70455" height="1.70455" fill="#333022"/>
<rect x="10.2273" y="24.0342" width="1.70455" height="1.70455" fill="#333022"/>
<rect x="6.81818" y="10.3977" width="1.70455" height="1.70455" fill="#333022"/>
<rect x="10.2273" y="13.8069" width="1.70455" height="1.70455" fill="#333022"/>
<path fill-rule="evenodd" clip-rule="evenodd" d="M12.1023 48.1536V41.3354C12.1023 38.7466 10.0036 36.6479 7.41478 36.6479C4.82594 36.6479 2.72727 38.7466 2.72727 41.3354V48.1536C2.72727 50.7425 4.82594 52.8411 7.41478 52.8411C10.0036 52.8411 12.1023 50.7425 12.1023 48.1536ZM7.41478 35.7957C4.35525 35.7957 1.875 38.2759 1.875 41.3354V48.1536C1.875 51.2132 4.35525 53.6934 7.41478 53.6934C10.4743 53.6934 12.9546 51.2132 12.9546 48.1536V41.3354C12.9546 38.2759 10.4743 35.7957 7.41478 35.7957Z" fill="#8D8480"/>
<rect x="11.9318" y="40.9092" width="1.70455" height="1.70455" fill="#8D8480"/>
<rect x="11.9318" y="42.6138" width="1.70455" height="1.70455" fill="#8D8480"/>
<rect x="11.9318" y="44.3184" width="1.70455" height="1.70455" fill="#8D8480"/>
<rect x="11.9318" y="46.0229" width="1.70455" height="1.70455" fill="#8D8480"/>
<rect x="11.9318" y="47.7275" width="1.70455" height="1.70455" fill="#8D8480"/>
<rect x="6.81818" y="35.7957" width="1.70455" height="1.70455" fill="#8D8480"/>
<rect x="10.2273" y="37.5002" width="1.70455" height="1.70455" fill="#8D8480"/>
<rect x="10.2273" y="39.2047" width="1.70455" height="1.70455" fill="#8D8480"/>
<rect x="8.52277" y="35.7957" width="1.70455" height="1.70455" fill="#8D8480"/>
<rect x="3.40906" y="37.5002" width="1.70455" height="1.70455" fill="#8D8480"/>
<rect x="1.70453" y="39.2047" width="1.70455" height="1.70455" fill="#8D8480"/>
<rect x="5.11365" y="35.7957" width="1.70455" height="1.70455" fill="#8D8480"/>
<rect x="1.70453" y="40.9092" width="1.70455" height="1.70455" fill="#8D8480"/>
<rect x="1.70453" y="42.6138" width="1.70455" height="1.70455" fill="#8D8480"/>
<rect x="1.70453" y="44.3184" width="1.70455" height="1.70455" fill="#8D8480"/>
<rect x="1.70453" y="46.0229" width="1.70455" height="1.70455" fill="#8D8480"/>
<rect x="1.70453" y="47.7275" width="1.70455" height="1.70455" fill="#8D8480"/>
<rect x="1.70453" y="49.4321" width="1.70455" height="1.70455" fill="#8D8480"/>
<rect x="3.40906" y="51.1366" width="1.70455" height="1.70455" fill="#8D8480"/>
<rect x="5.11365" y="51.1366" width="1.70455" height="1.70455" fill="#8D8480"/>
<rect x="6.81818" y="52.8411" width="1.70455" height="1.70455" fill="#8D8480"/>
<rect x="10.2273" y="49.4321" width="1.70455" height="1.70455" fill="#8D8480"/>
<rect x="8.52277" y="51.1366" width="1.70455" height="1.70455" fill="#8D8480"/>
<rect x="6.81818" y="51.1366" width="1.70455" height="1.70455" fill="#8D8480"/>
<rect x="3.40906" y="35.7957" width="1.70455" height="1.70455" fill="#8D8480"/>
<rect x="1.70453" y="37.5002" width="1.70455" height="1.70455" fill="#8D8480"/>
<rect x="5.11365" y="52.8411" width="1.70455" height="1.70455" fill="#8D8480"/>
<rect x="11.9318" y="49.4321" width="1.70455" height="1.70455" fill="#8D8480"/>
<rect x="10.2273" y="51.1366" width="1.70455" height="1.70455" fill="#8D8480"/>
<rect x="8.52277" y="52.8411" width="1.70455" height="1.70455" fill="#8D8480"/>
<rect x="10.2273" y="35.7957" width="1.70455" height="1.70455" fill="#8D8480"/>
<rect x="11.9318" y="37.5002" width="1.70455" height="1.70455" fill="#8D8480"/>
<rect x="11.9318" y="39.2047" width="1.70455" height="1.70455" fill="#8D8480"/>
<path fill-rule="evenodd" clip-rule="evenodd" d="M13.4659 48.1536V41.3354C13.4659 38.7466 11.3673 36.6479 8.77843 36.6479C6.18959 36.6479 4.09092 38.7466 4.09092 41.3354V48.1536C4.09092 50.7425 6.18959 52.8411 8.77843 52.8411C11.3673 52.8411 13.4659 50.7425 13.4659 48.1536ZM8.77843 35.7957C5.71889 35.7957 3.23865 38.2759 3.23865 41.3354V48.1536C3.23865 51.2132 5.71889 53.6934 8.77843 53.6934C11.838 53.6934 14.3182 51.2132 14.3182 48.1536V41.3354C14.3182 38.2759 11.838 35.7957 8.77843 35.7957Z" fill="#666775"/>
<rect x="13.2954" y="40.9092" width="1.70455" height="1.70455" fill="#666775"/>
<rect x="13.2954" y="42.6138" width="1.70455" height="1.70455" fill="#666775"/>
<rect x="13.2954" y="44.3184" width="1.70455" height="1.70455" fill="#666775"/>
<rect x="13.2954" y="46.0229" width="1.70455" height="1.70455" fill="#666775"/>
<rect x="13.2954" y="47.7275" width="1.70455" height="1.70455" fill="#666775"/>
<rect x="8.18176" y="35.7957" width="1.70455" height="1.70455" fill="#666775"/>
<rect x="11.5909" y="37.5002" width="1.70455" height="1.70455" fill="#666775"/>
<rect x="11.5909" y="39.2047" width="1.70455" height="1.70455" fill="#666775"/>
<rect x="9.88635" y="35.7957" width="1.70455" height="1.70455" fill="#666775"/>
<rect x="4.77271" y="37.5002" width="1.70455" height="1.70455" fill="#666775"/>
<rect x="3.06812" y="39.2047" width="1.70455" height="1.70455" fill="#666775"/>
<rect x="6.47723" y="35.7957" width="1.70455" height="1.70455" fill="#666775"/>
<rect x="3.06812" y="40.9092" width="1.70455" height="1.70455" fill="#666775"/>
<rect x="3.06812" y="42.6138" width="1.70455" height="1.70455" fill="#666775"/>
<rect x="3.06812" y="44.3184" width="1.70455" height="1.70455" fill="#666775"/>
<rect x="3.06812" y="46.0229" width="1.70455" height="1.70455" fill="#666775"/>
<rect x="3.06812" y="47.7275" width="1.70455" height="1.70455" fill="#666775"/>
<rect x="3.06812" y="49.4321" width="1.70455" height="1.70455" fill="#666775"/>
<rect x="4.77271" y="51.1366" width="1.70455" height="1.70455" fill="#666775"/>
<rect x="6.47723" y="51.1366" width="1.70455" height="1.70455" fill="#666775"/>
<rect x="8.18176" y="52.8411" width="1.70455" height="1.70455" fill="#666775"/>
<rect x="11.5909" y="49.4321" width="1.70455" height="1.70455" fill="#666775"/>
<rect x="9.88635" y="51.1366" width="1.70455" height="1.70455" fill="#666775"/>
<rect x="8.18176" y="51.1366" width="1.70455" height="1.70455" fill="#666775"/>
<rect x="4.77271" y="35.7957" width="1.70455" height="1.70455" fill="#666775"/>
<rect x="3.06812" y="37.5002" width="1.70455" height="1.70455" fill="#666775"/>
<rect x="6.47723" y="52.8411" width="1.70455" height="1.70455" fill="#666775"/>
<rect x="13.2954" y="49.4321" width="1.70455" height="1.70455" fill="#666775"/>
<rect x="11.5909" y="51.1366" width="1.70455" height="1.70455" fill="#666775"/>
<rect x="9.88635" y="52.8411" width="1.70455" height="1.70455" fill="#666775"/>
<rect x="11.5909" y="35.7957" width="1.70455" height="1.70455" fill="#666775"/>
<rect x="13.2954" y="37.5002" width="1.70455" height="1.70455" fill="#666775"/>
<rect x="13.2954" y="39.2047" width="1.70455" height="1.70455" fill="#666775"/>
<path fill-rule="evenodd" clip-rule="evenodd" d="M10.3978 50.0286V43.2104C10.3978 40.6216 8.29909 38.5229 5.71025 38.5229C3.12141 38.5229 1.02275 40.6216 1.02275 43.2104V50.0286C1.02275 52.6175 3.12141 54.7161 5.71025 54.7161C8.29909 54.7161 10.3978 52.6175 10.3978 50.0286ZM5.71025 37.6707C2.65072 37.6707 0.170471 40.1509 0.170471 43.2104V50.0286C0.170471 53.0882 2.65072 55.5684 5.71025 55.5684C8.76979 55.5684 11.25 53.0882 11.25 50.0286V43.2104C11.25 40.1509 8.76979 37.6707 5.71025 37.6707Z" fill="#333022"/>
<rect x="10.2273" y="42.7842" width="1.70455" height="1.70455" fill="#333022"/>
<rect x="10.2273" y="44.4888" width="1.70455" height="1.70455" fill="#333022"/>
<rect x="10.2273" y="46.1934" width="1.70455" height="1.70455" fill="#333022"/>
<rect x="10.2273" y="47.8979" width="1.70455" height="1.70455" fill="#333022"/>
<rect x="10.2273" y="49.6025" width="1.70455" height="1.70455" fill="#333022"/>
<rect x="5.11365" y="37.6707" width="1.70455" height="1.70455" fill="#333022"/>
<rect x="8.52277" y="39.3752" width="1.70455" height="1.70455" fill="#333022"/>
<rect x="8.52277" y="41.0797" width="1.70455" height="1.70455" fill="#333022"/>
<rect x="6.81818" y="37.6707" width="1.70455" height="1.70455" fill="#333022"/>
<rect x="1.70453" y="39.3752" width="1.70455" height="1.70455" fill="#333022"/>
<rect y="41.0797" width="1.70455" height="1.70455" fill="#333022"/>
<rect x="3.40906" y="37.6707" width="1.70455" height="1.70455" fill="#333022"/>
<rect y="42.7842" width="1.70455" height="1.70455" fill="#333022"/>
<rect y="44.4888" width="1.70455" height="1.70455" fill="#333022"/>
<rect y="46.1934" width="1.70455" height="1.70455" fill="#333022"/>
<rect y="47.8979" width="1.70455" height="1.70455" fill="#333022"/>
<rect y="49.6025" width="1.70455" height="1.70455" fill="#333022"/>
<rect y="51.3071" width="1.70455" height="1.70455" fill="#333022"/>
<rect x="1.70453" y="53.0116" width="1.70455" height="1.70455" fill="#333022"/>
<rect x="3.40906" y="53.0116" width="1.70455" height="1.70455" fill="#333022"/>
<rect x="5.11365" y="54.7161" width="1.70455" height="1.70455" fill="#333022"/>
<rect x="8.52277" y="51.3071" width="1.70455" height="1.70455" fill="#333022"/>
<rect x="6.81818" y="53.0116" width="1.70455" height="1.70455" fill="#333022"/>
<rect x="5.11365" y="53.0116" width="1.70455" height="1.70455" fill="#333022"/>
<rect x="1.70453" y="37.6707" width="1.70455" height="1.70455" fill="#333022"/>
<rect y="39.3752" width="1.70455" height="1.70455" fill="#333022"/>
<rect x="3.40906" y="54.7161" width="1.70455" height="1.70455" fill="#333022"/>
<rect x="10.2273" y="51.3071" width="1.70455" height="1.70455" fill="#333022"/>
<rect x="8.52277" y="53.0116" width="1.70455" height="1.70455" fill="#333022"/>
<rect x="6.81818" y="54.7161" width="1.70455" height="1.70455" fill="#333022"/>
<rect x="8.52277" y="37.6707" width="1.70455" height="1.70455" fill="#333022"/>
<rect x="10.2273" y="39.3752" width="1.70455" height="1.70455" fill="#333022"/>
<rect x="10.2273" y="41.0797" width="1.70455" height="1.70455" fill="#333022"/>
<path fill-rule="evenodd" clip-rule="evenodd" d="M12.1024 74.9149V68.0967C12.1024 65.5078 10.0037 63.4092 7.41484 63.4092C4.826 63.4092 2.72734 65.5078 2.72734 68.0967V74.9149C2.72734 77.5037 4.826 79.6024 7.41484 79.6024C10.0037 79.6024 12.1024 77.5037 12.1024 74.9149ZM7.41484 62.5569C4.35531 62.5569 1.87506 65.0371 1.87506 68.0967V74.9149C1.87506 77.9744 4.35531 80.4546 7.41484 80.4546C10.4744 80.4546 12.9546 77.9744 12.9546 74.9149V68.0967C12.9546 65.0371 10.4744 62.5569 7.41484 62.5569Z" fill="#8D8480"/>
<rect x="11.9319" y="68.1819" width="1.70455" height="1.70455" fill="#8D8480"/>
<rect x="11.9319" y="69.8865" width="1.70455" height="1.70455" fill="#8D8480"/>
<rect x="11.9319" y="71.5911" width="1.70455" height="1.70455" fill="#8D8480"/>
<rect x="11.9319" y="73.2957" width="1.70455" height="1.70455" fill="#8D8480"/>
<rect x="11.9319" y="66.4774" width="1.70455" height="1.70455" fill="#8D8480"/>
<rect x="8.52277" y="63.0684" width="1.70455" height="1.70455" fill="#8D8480"/>
<rect x="10.2273" y="64.7729" width="1.70455" height="1.70455" fill="#8D8480"/>
<rect x="6.81824" y="63.0684" width="1.70455" height="1.70455" fill="#8D8480"/>
<rect x="5.11365" y="63.0684" width="1.70455" height="1.70455" fill="#8D8480"/>
<rect x="3.40912" y="64.7729" width="1.70455" height="1.70455" fill="#8D8480"/>
<rect x="1.70459" y="66.4774" width="1.70455" height="1.70455" fill="#8D8480"/>
<rect x="3.40912" y="63.0684" width="1.70455" height="1.70455" fill="#8D8480"/>
<rect x="1.70459" y="68.1819" width="1.70455" height="1.70455" fill="#8D8480"/>
<rect x="1.70459" y="69.8865" width="1.70455" height="1.70455" fill="#8D8480"/>
<rect x="1.70459" y="71.5911" width="1.70455" height="1.70455" fill="#8D8480"/>
<rect x="1.70459" y="73.2957" width="1.70455" height="1.70455" fill="#8D8480"/>
<rect x="1.70459" y="75.0002" width="1.70455" height="1.70455" fill="#8D8480"/>
<rect x="3.40912" y="76.7048" width="1.70455" height="1.70455" fill="#8D8480"/>
<rect x="5.11365" y="78.4092" width="1.70455" height="1.70455" fill="#8D8480"/>
<rect x="6.81824" y="78.4092" width="1.70455" height="1.70455" fill="#8D8480"/>
<rect x="11.9319" y="75.0002" width="1.70455" height="1.70455" fill="#8D8480"/>
<rect x="10.2273" y="76.7048" width="1.70455" height="1.70455" fill="#8D8480"/>
<rect x="8.52277" y="78.4092" width="1.70455" height="1.70455" fill="#8D8480"/>
<rect x="1.70459" y="64.7729" width="1.70455" height="1.70455" fill="#8D8480"/>
<rect x="5.11365" y="61.3638" width="1.70455" height="1.70455" fill="#8D8480"/>
<rect x="6.81824" y="61.3638" width="1.70455" height="1.70455" fill="#8D8480"/>
<rect x="1.70459" y="76.7048" width="1.70455" height="1.70455" fill="#8D8480"/>
<rect x="3.40912" y="78.4092" width="1.70455" height="1.70455" fill="#8D8480"/>
<rect x="5.11365" y="80.1138" width="1.70455" height="1.70455" fill="#8D8480"/>
<rect x="6.81824" y="80.1138" width="1.70455" height="1.70455" fill="#8D8480"/>
<rect x="11.9319" y="76.7048" width="1.70455" height="1.70455" fill="#8D8480"/>
<rect x="10.2273" y="78.4092" width="1.70455" height="1.70455" fill="#8D8480"/>
<rect x="10.2273" y="63.0684" width="1.70455" height="1.70455" fill="#8D8480"/>
<rect x="11.9319" y="64.7729" width="1.70455" height="1.70455" fill="#8D8480"/>
<rect x="8.52277" y="61.3638" width="1.70455" height="1.70455" fill="#8D8480"/>
<path fill-rule="evenodd" clip-rule="evenodd" d="M13.4659 74.9149V68.0967C13.4659 65.5078 11.3673 63.4092 8.77843 63.4092C6.18959 63.4092 4.09092 65.5078 4.09092 68.0967V74.9149C4.09092 77.5037 6.18959 79.6024 8.77843 79.6024C11.3673 79.6024 13.4659 77.5037 13.4659 74.9149ZM8.77843 62.5569C5.71889 62.5569 3.23865 65.0371 3.23865 68.0967V74.9149C3.23865 77.9744 5.71889 80.4546 8.77843 80.4546C11.838 80.4546 14.3182 77.9744 14.3182 74.9149V68.0967C14.3182 65.0371 11.838 62.5569 8.77843 62.5569Z" fill="#666775"/>
<rect x="13.2955" y="68.1819" width="1.70455" height="1.70455" fill="#666775"/>
<rect x="13.2955" y="69.8865" width="1.70455" height="1.70455" fill="#666775"/>
<rect x="13.2955" y="71.5911" width="1.70455" height="1.70455" fill="#666775"/>
<rect x="13.2955" y="73.2957" width="1.70455" height="1.70455" fill="#666775"/>
<rect x="13.2955" y="66.4774" width="1.70455" height="1.70455" fill="#666775"/>
<rect x="9.88635" y="63.0684" width="1.70455" height="1.70455" fill="#666775"/>
<rect x="11.5909" y="64.7729" width="1.70455" height="1.70455" fill="#666775"/>
<rect x="8.18182" y="63.0684" width="1.70455" height="1.70455" fill="#666775"/>
<rect x="6.47723" y="63.0684" width="1.70455" height="1.70455" fill="#666775"/>
<rect x="4.77271" y="64.7729" width="1.70455" height="1.70455" fill="#666775"/>
<rect x="3.06818" y="66.4774" width="1.70455" height="1.70455" fill="#666775"/>
<rect x="4.77271" y="63.0684" width="1.70455" height="1.70455" fill="#666775"/>
<rect x="3.06818" y="68.1819" width="1.70455" height="1.70455" fill="#666775"/>
<rect x="3.06818" y="69.8865" width="1.70455" height="1.70455" fill="#666775"/>
<rect x="3.06818" y="71.5911" width="1.70455" height="1.70455" fill="#666775"/>
<rect x="3.06818" y="73.2957" width="1.70455" height="1.70455" fill="#666775"/>
<rect x="3.06818" y="75.0002" width="1.70455" height="1.70455" fill="#666775"/>
<rect x="4.77271" y="76.7048" width="1.70455" height="1.70455" fill="#666775"/>
<rect x="6.47723" y="78.4092" width="1.70455" height="1.70455" fill="#666775"/>
<rect x="8.18182" y="78.4092" width="1.70455" height="1.70455" fill="#666775"/>
<rect x="13.2955" y="75.0002" width="1.70455" height="1.70455" fill="#666775"/>
<rect x="11.5909" y="76.7048" width="1.70455" height="1.70455" fill="#666775"/>
<rect x="9.88635" y="78.4092" width="1.70455" height="1.70455" fill="#666775"/>
<rect x="3.06818" y="64.7729" width="1.70455" height="1.70455" fill="#666775"/>
<rect x="6.47723" y="61.3638" width="1.70455" height="1.70455" fill="#666775"/>
<rect x="8.18182" y="61.3638" width="1.70455" height="1.70455" fill="#666775"/>
<rect x="3.06818" y="76.7048" width="1.70455" height="1.70455" fill="#666775"/>
<rect x="4.77271" y="78.4092" width="1.70455" height="1.70455" fill="#666775"/>
<rect x="6.47723" y="80.1138" width="1.70455" height="1.70455" fill="#666775"/>
<rect x="8.18182" y="80.1138" width="1.70455" height="1.70455" fill="#666775"/>
<rect x="13.2955" y="76.7048" width="1.70455" height="1.70455" fill="#666775"/>
<rect x="11.5909" y="78.4092" width="1.70455" height="1.70455" fill="#666775"/>
<rect x="11.5909" y="63.0684" width="1.70455" height="1.70455" fill="#666775"/>
<rect x="13.2955" y="64.7729" width="1.70455" height="1.70455" fill="#666775"/>
<rect x="9.88635" y="61.3638" width="1.70455" height="1.70455" fill="#666775"/>
<path fill-rule="evenodd" clip-rule="evenodd" d="M10.3978 76.7899V69.9717C10.3978 67.3828 8.29909 65.2842 5.71025 65.2842C3.12141 65.2842 1.02275 67.3828 1.02275 69.9717V76.7899C1.02275 79.3787 3.12141 81.4774 5.71025 81.4774C8.29909 81.4774 10.3978 79.3787 10.3978 76.7899ZM5.71025 64.4319C2.65072 64.4319 0.170471 66.9121 0.170471 69.9717V76.7899C0.170471 79.8494 2.65072 82.3296 5.71025 82.3296C8.76979 82.3296 11.25 79.8494 11.25 76.7899V69.9717C11.25 66.9121 8.76979 64.4319 5.71025 64.4319Z" fill="#333022"/>
<rect x="10.2273" y="70.0569" width="1.70455" height="1.70455" fill="#333022"/>
<rect x="10.2273" y="71.7615" width="1.70455" height="1.70455" fill="#333022"/>
<rect x="10.2273" y="73.4661" width="1.70455" height="1.70455" fill="#333022"/>
<rect x="10.2273" y="75.1707" width="1.70455" height="1.70455" fill="#333022"/>
<rect x="10.2273" y="68.3524" width="1.70455" height="1.70455" fill="#333022"/>
<rect x="6.81818" y="64.9434" width="1.70455" height="1.70455" fill="#333022"/>
<rect x="8.52277" y="66.6479" width="1.70455" height="1.70455" fill="#333022"/>
<rect x="5.11365" y="64.9434" width="1.70455" height="1.70455" fill="#333022"/>
<rect x="3.40906" y="64.9434" width="1.70455" height="1.70455" fill="#333022"/>
<rect x="1.70453" y="66.6479" width="1.70455" height="1.70455" fill="#333022"/>
<rect y="68.3524" width="1.70455" height="1.70455" fill="#333022"/>
<rect x="1.70453" y="64.9434" width="1.70455" height="1.70455" fill="#333022"/>
<rect y="70.0569" width="1.70455" height="1.70455" fill="#333022"/>
<rect y="71.7615" width="1.70455" height="1.70455" fill="#333022"/>
<rect y="73.4661" width="1.70455" height="1.70455" fill="#333022"/>
<rect y="75.1707" width="1.70455" height="1.70455" fill="#333022"/>
<rect y="76.8752" width="1.70455" height="1.70455" fill="#333022"/>
<rect x="1.70453" y="78.5798" width="1.70455" height="1.70455" fill="#333022"/>
<rect x="3.40906" y="80.2842" width="1.70455" height="1.70455" fill="#333022"/>
<rect x="5.11365" y="80.2842" width="1.70455" height="1.70455" fill="#333022"/>
<rect x="10.2273" y="76.8752" width="1.70455" height="1.70455" fill="#333022"/>
<rect x="8.52277" y="78.5798" width="1.70455" height="1.70455" fill="#333022"/>
<rect x="6.81818" y="80.2842" width="1.70455" height="1.70455" fill="#333022"/>
<rect y="66.6479" width="1.70455" height="1.70455" fill="#333022"/>
<rect x="3.40906" y="63.2388" width="1.70455" height="1.70455" fill="#333022"/>
<rect x="5.11365" y="63.2388" width="1.70455" height="1.70455" fill="#333022"/>
<rect y="78.5798" width="1.70455" height="1.70455" fill="#333022"/>
<rect x="1.70453" y="80.2842" width="1.70455" height="1.70455" fill="#333022"/>
<rect x="3.40906" y="81.9888" width="1.70455" height="1.70455" fill="#333022"/>
<rect x="5.11365" y="81.9888" width="1.70455" height="1.70455" fill="#333022"/>
<rect x="10.2273" y="78.5798" width="1.70455" height="1.70455" fill="#333022"/>
<rect x="8.52277" y="80.2842" width="1.70455" height="1.70455" fill="#333022"/>
<rect x="8.52277" y="64.9434" width="1.70455" height="1.70455" fill="#333022"/>
<rect x="10.2273" y="66.6479" width="1.70455" height="1.70455" fill="#333022"/>
<rect x="6.81818" y="63.2388" width="1.70455" height="1.70455" fill="#333022"/>
<path fill-rule="evenodd" clip-rule="evenodd" d="M11.9319 101.676V94.8581C11.9319 92.2693 9.83321 90.1706 7.24437 90.1706C4.65553 90.1706 2.55686 92.2693 2.55686 94.8581V101.676C2.55686 104.265 4.65553 106.364 7.24437 106.364C9.83321 106.364 11.9319 104.265 11.9319 101.676ZM7.24437 89.3184C4.18484 89.3184 1.70459 91.7986 1.70459 94.8581V101.676C1.70459 104.736 4.18484 107.216 7.24437 107.216C10.3039 107.216 12.7842 104.736 12.7842 101.676V94.8581C12.7842 91.7986 10.3039 89.3184 7.24437 89.3184Z" fill="#8D8480"/>
<rect x="11.9319" y="95.4546" width="1.70455" height="1.70455" fill="#8D8480"/>
<rect x="11.9319" y="97.1592" width="1.70455" height="1.70455" fill="#8D8480"/>
<rect x="11.9319" y="98.8638" width="1.70455" height="1.70455" fill="#8D8480"/>
<rect x="11.9319" y="100.568" width="1.70455" height="1.70455" fill="#8D8480"/>
<rect x="11.9319" y="93.75" width="1.70455" height="1.70455" fill="#8D8480"/>
<rect x="8.52277" y="90.3411" width="1.70455" height="1.70455" fill="#8D8480"/>
<rect x="10.2273" y="92.0454" width="1.70455" height="1.70455" fill="#8D8480"/>
<rect x="10.2273" y="93.75" width="1.70455" height="1.70455" fill="#8D8480"/>
<rect x="6.81824" y="88.6365" width="1.70455" height="1.70455" fill="#8D8480"/>
<rect x="3.40912" y="90.3411" width="1.70455" height="1.70455" fill="#8D8480"/>
<rect x="1.70459" y="92.0454" width="1.70455" height="1.70455" fill="#8D8480"/>
<rect x="1.70459" y="93.75" width="1.70455" height="1.70455" fill="#8D8480"/>
<rect x="5.11365" y="90.3411" width="1.70455" height="1.70455" fill="#8D8480"/>
<rect x="1.70459" y="95.4546" width="1.70455" height="1.70455" fill="#8D8480"/>
<rect x="1.70459" y="97.1592" width="1.70455" height="1.70455" fill="#8D8480"/>
<rect x="1.70459" y="98.8638" width="1.70455" height="1.70455" fill="#8D8480"/>
<rect x="1.70459" y="100.568" width="1.70455" height="1.70455" fill="#8D8480"/>
<rect x="1.70459" y="102.273" width="1.70455" height="1.70455" fill="#8D8480"/>
<rect x="3.40912" y="103.978" width="1.70455" height="1.70455" fill="#8D8480"/>
<rect x="5.11365" y="105.682" width="1.70455" height="1.70455" fill="#8D8480"/>
<rect x="6.81824" y="105.682" width="1.70455" height="1.70455" fill="#8D8480"/>
<rect x="10.2273" y="102.273" width="1.70455" height="1.70455" fill="#8D8480"/>
<rect x="10.2273" y="103.978" width="1.70455" height="1.70455" fill="#8D8480"/>
<rect x="8.52277" y="105.682" width="1.70455" height="1.70455" fill="#8D8480"/>
<rect x="5.11365" y="88.6365" width="1.70455" height="1.70455" fill="#8D8480"/>
<rect x="1.70459" y="90.3411" width="1.70455" height="1.70455" fill="#8D8480"/>
<rect x="3.40912" y="88.6365" width="1.70455" height="1.70455" fill="#8D8480"/>
<rect x="1.70459" y="103.978" width="1.70455" height="1.70455" fill="#8D8480"/>
<rect x="3.40912" y="105.682" width="1.70455" height="1.70455" fill="#8D8480"/>
<rect x="11.9319" y="102.273" width="1.70455" height="1.70455" fill="#8D8480"/>
<rect x="8.52277" y="88.6365" width="1.70455" height="1.70455" fill="#8D8480"/>
<rect x="10.2273" y="90.3411" width="1.70455" height="1.70455" fill="#8D8480"/>
<rect x="11.9319" y="92.0454" width="1.70455" height="1.70455" fill="#8D8480"/>
<path fill-rule="evenodd" clip-rule="evenodd" d="M13.2955 101.676V94.8581C13.2955 92.2693 11.1968 90.1706 8.60796 90.1706C6.01912 90.1706 3.92045 92.2693 3.92045 94.8581V101.676C3.92045 104.265 6.01912 106.364 8.60796 106.364C11.1968 106.364 13.2955 104.265 13.2955 101.676ZM8.60796 89.3184C5.54842 89.3184 3.06818 91.7986 3.06818 94.8581V101.676C3.06818 104.736 5.54842 107.216 8.60796 107.216C11.6675 107.216 14.1477 104.736 14.1477 101.676V94.8581C14.1477 91.7986 11.6675 89.3184 8.60796 89.3184Z" fill="#666775"/>
<rect x="13.2955" y="95.4546" width="1.70455" height="1.70455" fill="#666775"/>
<rect x="13.2955" y="97.1592" width="1.70455" height="1.70455" fill="#666775"/>
<rect x="13.2955" y="98.8638" width="1.70455" height="1.70455" fill="#666775"/>
<rect x="13.2955" y="100.568" width="1.70455" height="1.70455" fill="#666775"/>
<rect x="13.2955" y="93.75" width="1.70455" height="1.70455" fill="#666775"/>
<rect x="9.88635" y="90.3411" width="1.70455" height="1.70455" fill="#666775"/>
<rect x="11.5909" y="92.0454" width="1.70455" height="1.70455" fill="#666775"/>
<rect x="11.5909" y="93.75" width="1.70455" height="1.70455" fill="#666775"/>
<rect x="8.18182" y="88.6365" width="1.70455" height="1.70455" fill="#666775"/>
<rect x="4.77271" y="90.3411" width="1.70455" height="1.70455" fill="#666775"/>
<rect x="3.06818" y="92.0454" width="1.70455" height="1.70455" fill="#666775"/>
<rect x="3.06818" y="93.75" width="1.70455" height="1.70455" fill="#666775"/>
<rect x="6.47723" y="90.3411" width="1.70455" height="1.70455" fill="#666775"/>
<rect x="3.06818" y="95.4546" width="1.70455" height="1.70455" fill="#666775"/>
<rect x="3.06818" y="97.1592" width="1.70455" height="1.70455" fill="#666775"/>
<rect x="3.06818" y="98.8638" width="1.70455" height="1.70455" fill="#666775"/>
<rect x="3.06818" y="100.568" width="1.70455" height="1.70455" fill="#666775"/>
<rect x="3.06818" y="102.273" width="1.70455" height="1.70455" fill="#666775"/>
<rect x="4.77271" y="103.978" width="1.70455" height="1.70455" fill="#666775"/>
<rect x="6.47723" y="105.682" width="1.70455" height="1.70455" fill="#666775"/>
<rect x="8.18182" y="105.682" width="1.70455" height="1.70455" fill="#666775"/>
<rect x="11.5909" y="102.273" width="1.70455" height="1.70455" fill="#666775"/>
<rect x="11.5909" y="103.978" width="1.70455" height="1.70455" fill="#666775"/>
<rect x="9.88635" y="105.682" width="1.70455" height="1.70455" fill="#666775"/>
<rect x="6.47723" y="88.6365" width="1.70455" height="1.70455" fill="#666775"/>
<rect x="3.06818" y="90.3411" width="1.70455" height="1.70455" fill="#666775"/>
<rect x="4.77271" y="88.6365" width="1.70455" height="1.70455" fill="#666775"/>
<rect x="3.06818" y="103.978" width="1.70455" height="1.70455" fill="#666775"/>
<rect x="4.77271" y="105.682" width="1.70455" height="1.70455" fill="#666775"/>
<rect x="13.2955" y="102.273" width="1.70455" height="1.70455" fill="#666775"/>
<rect x="9.88635" y="88.6365" width="1.70455" height="1.70455" fill="#666775"/>
<rect x="11.5909" y="90.3411" width="1.70455" height="1.70455" fill="#666775"/>
<rect x="13.2955" y="92.0454" width="1.70455" height="1.70455" fill="#666775"/>
<path fill-rule="evenodd" clip-rule="evenodd" d="M10.2273 103.551V96.7331C10.2273 94.1443 8.12862 92.0456 5.53978 92.0456C2.95094 92.0456 0.852274 94.1443 0.852274 96.7331V103.551C0.852274 106.14 2.95094 108.239 5.53978 108.239C8.12862 108.239 10.2273 106.14 10.2273 103.551ZM5.53978 91.1934C2.48025 91.1934 0 93.6736 0 96.7331V103.551C0 106.611 2.48025 109.091 5.53978 109.091C8.59932 109.091 11.0796 106.611 11.0796 103.551V96.7331C11.0796 93.6736 8.59932 91.1934 5.53978 91.1934Z" fill="#333022"/>
<rect x="10.2273" y="97.3296" width="1.70455" height="1.70455" fill="#333022"/>
<rect x="10.2273" y="99.0342" width="1.70455" height="1.70455" fill="#333022"/>
<rect x="10.2273" y="100.739" width="1.70455" height="1.70455" fill="#333022"/>
<rect x="10.2273" y="102.443" width="1.70455" height="1.70455" fill="#333022"/>
<rect x="10.2273" y="95.625" width="1.70455" height="1.70455" fill="#333022"/>
<rect x="6.81818" y="92.2161" width="1.70455" height="1.70455" fill="#333022"/>
<rect x="8.52277" y="93.9204" width="1.70455" height="1.70455" fill="#333022"/>
<rect x="8.52277" y="95.625" width="1.70455" height="1.70455" fill="#333022"/>
<rect x="5.11365" y="90.5115" width="1.70455" height="1.70455" fill="#333022"/>
<rect x="1.70453" y="92.2161" width="1.70455" height="1.70455" fill="#333022"/>
<rect y="93.9204" width="1.70455" height="1.70455" fill="#333022"/>
<rect y="95.625" width="1.70455" height="1.70455" fill="#333022"/>
<rect x="3.40906" y="92.2161" width="1.70455" height="1.70455" fill="#333022"/>
<rect y="97.3296" width="1.70455" height="1.70455" fill="#333022"/>
<rect y="99.0342" width="1.70455" height="1.70455" fill="#333022"/>
<rect y="100.739" width="1.70455" height="1.70455" fill="#333022"/>
<rect y="102.443" width="1.70455" height="1.70455" fill="#333022"/>
<rect y="104.148" width="1.70455" height="1.70455" fill="#333022"/>
<rect x="1.70453" y="105.853" width="1.70455" height="1.70455" fill="#333022"/>
<rect x="3.40906" y="107.557" width="1.70455" height="1.70455" fill="#333022"/>
<rect x="5.11365" y="107.557" width="1.70455" height="1.70455" fill="#333022"/>
<rect x="8.52277" y="104.148" width="1.70455" height="1.70455" fill="#333022"/>
<rect x="8.52277" y="105.853" width="1.70455" height="1.70455" fill="#333022"/>
<rect x="6.81818" y="107.557" width="1.70455" height="1.70455" fill="#333022"/>
<rect x="3.40906" y="90.5115" width="1.70455" height="1.70455" fill="#333022"/>
<rect y="92.2161" width="1.70455" height="1.70455" fill="#333022"/>
<rect x="1.70453" y="90.5115" width="1.70455" height="1.70455" fill="#333022"/>
<rect y="105.853" width="1.70455" height="1.70455" fill="#333022"/>
<rect x="1.70453" y="107.557" width="1.70455" height="1.70455" fill="#333022"/>
<rect x="10.2273" y="104.148" width="1.70455" height="1.70455" fill="#333022"/>
<rect x="6.81818" y="90.5115" width="1.70455" height="1.70455" fill="#333022"/>
<rect x="8.52277" y="92.2161" width="1.70455" height="1.70455" fill="#333022"/>
<rect x="10.2273" y="93.9204" width="1.70455" height="1.70455" fill="#333022"/>
<path fill-rule="evenodd" clip-rule="evenodd" d="M11.9319 128.438V121.62C11.9319 119.031 9.83321 116.932 7.24437 116.932C4.65553 116.932 2.55686 119.031 2.55686 121.62V128.438C2.55686 131.027 4.65553 133.125 7.24437 133.125C9.83321 133.125 11.9319 131.027 11.9319 128.438ZM7.24437 116.08C4.18484 116.08 1.70459 118.56 1.70459 121.62V128.438C1.70459 131.497 4.18484 133.978 7.24437 133.978C10.3039 133.978 12.7842 131.497 12.7842 128.438V121.62C12.7842 118.56 10.3039 116.08 7.24437 116.08Z" fill="#8D8480"/>
<rect x="10.2273" y="121.023" width="1.70455" height="1.70455" fill="#8D8480"/>
<rect x="11.9319" y="122.728" width="1.70455" height="1.70455" fill="#8D8480"/>
<rect x="11.9319" y="124.432" width="1.70455" height="1.70455" fill="#8D8480"/>
<rect x="11.9319" y="126.137" width="1.70455" height="1.70455" fill="#8D8480"/>
<rect x="11.9319" y="121.023" width="1.70455" height="1.70455" fill="#8D8480"/>
<rect x="11.9319" y="127.841" width="1.70455" height="1.70455" fill="#8D8480"/>
<rect x="10.2273" y="117.614" width="1.70455" height="1.70455" fill="#8D8480"/>
<rect x="10.2273" y="119.318" width="1.70455" height="1.70455" fill="#8D8480"/>
<rect x="6.81824" y="115.909" width="1.70455" height="1.70455" fill="#8D8480"/>
<rect x="8.52277" y="115.909" width="1.70455" height="1.70455" fill="#8D8480"/>
<rect x="3.40912" y="117.614" width="1.70455" height="1.70455" fill="#8D8480"/>
<rect x="1.70459" y="119.318" width="1.70455" height="1.70455" fill="#8D8480"/>
<rect x="1.70459" y="121.023" width="1.70455" height="1.70455" fill="#8D8480"/>
<rect x="5.11365" y="115.909" width="1.70455" height="1.70455" fill="#8D8480"/>
<rect x="1.70459" y="122.728" width="1.70455" height="1.70455" fill="#8D8480"/>
<rect x="1.70459" y="124.432" width="1.70455" height="1.70455" fill="#8D8480"/>
<rect x="1.70459" y="126.137" width="1.70455" height="1.70455" fill="#8D8480"/>
<rect x="1.70459" y="127.841" width="1.70455" height="1.70455" fill="#8D8480"/>
<rect x="1.70459" y="129.546" width="1.70455" height="1.70455" fill="#8D8480"/>
<rect x="3.40912" y="131.25" width="1.70455" height="1.70455" fill="#8D8480"/>
<rect x="5.11365" y="131.25" width="1.70455" height="1.70455" fill="#8D8480"/>
<rect x="6.81824" y="132.955" width="1.70455" height="1.70455" fill="#8D8480"/>
<rect x="10.2273" y="127.841" width="1.70455" height="1.70455" fill="#8D8480"/>
<rect x="10.2273" y="129.546" width="1.70455" height="1.70455" fill="#8D8480"/>
<rect x="8.52277" y="131.25" width="1.70455" height="1.70455" fill="#8D8480"/>
<rect x="3.40912" y="115.909" width="1.70455" height="1.70455" fill="#8D8480"/>
<rect x="1.70459" y="117.614" width="1.70455" height="1.70455" fill="#8D8480"/>
<rect x="1.70459" y="131.25" width="1.70455" height="1.70455" fill="#8D8480"/>
<rect x="5.11365" y="132.955" width="1.70455" height="1.70455" fill="#8D8480"/>
<rect x="3.40912" y="132.955" width="1.70455" height="1.70455" fill="#8D8480"/>
<rect x="11.9319" y="129.546" width="1.70455" height="1.70455" fill="#8D8480"/>
<rect x="10.2273" y="131.25" width="1.70455" height="1.70455" fill="#8D8480"/>
<rect x="8.52277" y="132.955" width="1.70455" height="1.70455" fill="#8D8480"/>
<rect x="11.9319" y="119.318" width="1.70455" height="1.70455" fill="#8D8480"/>
<path fill-rule="evenodd" clip-rule="evenodd" d="M13.2955 128.438V121.62C13.2955 119.031 11.1968 116.932 8.60796 116.932C6.01912 116.932 3.92045 119.031 3.92045 121.62V128.438C3.92045 131.027 6.01912 133.125 8.60796 133.125C11.1968 133.125 13.2955 131.027 13.2955 128.438ZM8.60796 116.08C5.54842 116.08 3.06818 118.56 3.06818 121.62V128.438C3.06818 131.497 5.54842 133.978 8.60796 133.978C11.6675 133.978 14.1477 131.497 14.1477 128.438V121.62C14.1477 118.56 11.6675 116.08 8.60796 116.08Z" fill="#666775"/>
<rect x="11.5909" y="121.023" width="1.70455" height="1.70455" fill="#666775"/>
<rect x="13.2955" y="122.728" width="1.70455" height="1.70455" fill="#666775"/>
<rect x="13.2955" y="124.432" width="1.70455" height="1.70455" fill="#666775"/>
<rect x="13.2955" y="126.137" width="1.70455" height="1.70455" fill="#666775"/>
<rect x="13.2955" y="121.023" width="1.70455" height="1.70455" fill="#666775"/>
<rect x="13.2955" y="127.841" width="1.70455" height="1.70455" fill="#666775"/>
<rect x="11.5909" y="117.614" width="1.70455" height="1.70455" fill="#666775"/>
<rect x="11.5909" y="119.318" width="1.70455" height="1.70455" fill="#666775"/>
<rect x="8.18182" y="115.909" width="1.70455" height="1.70455" fill="#666775"/>
<rect x="9.88635" y="115.909" width="1.70455" height="1.70455" fill="#666775"/>
<rect x="4.77271" y="117.614" width="1.70455" height="1.70455" fill="#666775"/>
<rect x="3.06818" y="119.318" width="1.70455" height="1.70455" fill="#666775"/>
<rect x="3.06818" y="121.023" width="1.70455" height="1.70455" fill="#666775"/>
<rect x="6.47723" y="115.909" width="1.70455" height="1.70455" fill="#666775"/>
<rect x="3.06818" y="122.728" width="1.70455" height="1.70455" fill="#666775"/>
<rect x="3.06818" y="124.432" width="1.70455" height="1.70455" fill="#666775"/>
<rect x="3.06818" y="126.137" width="1.70455" height="1.70455" fill="#666775"/>
<rect x="3.06818" y="127.841" width="1.70455" height="1.70455" fill="#666775"/>
<rect x="3.06818" y="129.546" width="1.70455" height="1.70455" fill="#666775"/>
<rect x="4.77271" y="131.25" width="1.70455" height="1.70455" fill="#666775"/>
<rect x="6.47723" y="131.25" width="1.70455" height="1.70455" fill="#666775"/>
<rect x="8.18182" y="132.955" width="1.70455" height="1.70455" fill="#666775"/>
<rect x="11.5909" y="127.841" width="1.70455" height="1.70455" fill="#666775"/>
<rect x="11.5909" y="129.546" width="1.70455" height="1.70455" fill="#666775"/>
<rect x="9.88635" y="131.25" width="1.70455" height="1.70455" fill="#666775"/>
<rect x="4.77271" y="115.909" width="1.70455" height="1.70455" fill="#666775"/>
<rect x="3.06818" y="117.614" width="1.70455" height="1.70455" fill="#666775"/>
<rect x="3.06818" y="131.25" width="1.70455" height="1.70455" fill="#666775"/>
<rect x="6.47723" y="132.955" width="1.70455" height="1.70455" fill="#666775"/>
<rect x="4.77271" y="132.955" width="1.70455" height="1.70455" fill="#666775"/>
<rect x="13.2955" y="129.546" width="1.70455" height="1.70455" fill="#666775"/>
<rect x="11.5909" y="131.25" width="1.70455" height="1.70455" fill="#666775"/>
<rect x="9.88635" y="132.955" width="1.70455" height="1.70455" fill="#666775"/>
<rect x="13.2955" y="119.318" width="1.70455" height="1.70455" fill="#666775"/>
<path fill-rule="evenodd" clip-rule="evenodd" d="M10.2273 130.313V123.495C10.2273 120.906 8.12862 118.807 5.53978 118.807C2.95094 118.807 0.852274 120.906 0.852274 123.495V130.313C0.852274 132.902 2.95094 135 5.53978 135C8.12862 135 10.2273 132.902 10.2273 130.313ZM5.53978 117.955C2.48025 117.955 0 120.435 0 123.495V130.313C0 133.372 2.48025 135.853 5.53978 135.853C8.59932 135.853 11.0796 133.372 11.0796 130.313V123.495C11.0796 120.435 8.59932 117.955 5.53978 117.955Z" fill="#333022"/>
<rect x="8.52277" y="122.898" width="1.70455" height="1.70455" fill="#333022"/>
<rect x="10.2273" y="124.603" width="1.70455" height="1.70455" fill="#333022"/>
<rect x="10.2273" y="126.307" width="1.70455" height="1.70455" fill="#333022"/>
<rect x="10.2273" y="128.012" width="1.70455" height="1.70455" fill="#333022"/>
<rect x="10.2273" y="122.898" width="1.70455" height="1.70455" fill="#333022"/>
<rect x="10.2273" y="129.716" width="1.70455" height="1.70455" fill="#333022"/>
<rect x="8.52277" y="119.489" width="1.70455" height="1.70455" fill="#333022"/>
<rect x="8.52277" y="121.193" width="1.70455" height="1.70455" fill="#333022"/>
<rect x="5.11365" y="117.784" width="1.70455" height="1.70455" fill="#333022"/>
<rect x="6.81818" y="117.784" width="1.70455" height="1.70455" fill="#333022"/>
<rect x="1.70453" y="119.489" width="1.70455" height="1.70455" fill="#333022"/>
<rect y="121.193" width="1.70455" height="1.70455" fill="#333022"/>
<rect y="122.898" width="1.70455" height="1.70455" fill="#333022"/>
<rect x="3.40906" y="117.784" width="1.70455" height="1.70455" fill="#333022"/>
<rect y="124.603" width="1.70455" height="1.70455" fill="#333022"/>
<rect y="126.307" width="1.70455" height="1.70455" fill="#333022"/>
<rect y="128.012" width="1.70455" height="1.70455" fill="#333022"/>
<rect y="129.716" width="1.70455" height="1.70455" fill="#333022"/>
<rect y="131.421" width="1.70455" height="1.70455" fill="#333022"/>
<rect x="1.70453" y="133.125" width="1.70455" height="1.70455" fill="#333022"/>
<rect x="3.40906" y="133.125" width="1.70455" height="1.70455" fill="#333022"/>
<rect x="5.11365" y="134.83" width="1.70455" height="1.70455" fill="#333022"/>
<rect x="8.52277" y="129.716" width="1.70455" height="1.70455" fill="#333022"/>
<rect x="8.52277" y="131.421" width="1.70455" height="1.70455" fill="#333022"/>
<rect x="6.81818" y="133.125" width="1.70455" height="1.70455" fill="#333022"/>
<rect x="1.70453" y="117.784" width="1.70455" height="1.70455" fill="#333022"/>
<rect y="119.489" width="1.70455" height="1.70455" fill="#333022"/>
<rect y="133.125" width="1.70455" height="1.70455" fill="#333022"/>
<rect x="3.40906" y="134.83" width="1.70455" height="1.70455" fill="#333022"/>
<rect x="1.70453" y="134.83" width="1.70455" height="1.70455" fill="#333022"/>
<rect x="10.2273" y="131.421" width="1.70455" height="1.70455" fill="#333022"/>
<rect x="8.52277" y="133.125" width="1.70455" height="1.70455" fill="#333022"/>
<rect x="6.81818" y="134.83" width="1.70455" height="1.70455" fill="#333022"/>
<rect x="10.2273" y="121.193" width="1.70455" height="1.70455" fill="#333022"/>
<path fill-rule="evenodd" clip-rule="evenodd" d="M6.98865 9.37497V1.10791H7.84092V9.37497H6.98865ZM6.98865 37.5V26.5057H7.84092V37.5H6.98865ZM6.98865 63.8353V53.3523H7.84092V63.8353H6.98865ZM6.98865 91.3638V80.2842H7.84092V91.3638H6.98865ZM6.98865 118.381V106.705H7.84092V118.381H6.98865ZM6.98865 144.46V131.932H7.84092V144.46H6.98865Z" fill="#8D8480"/>
<rect x="6.81812" y="1.70459" width="1.70455" height="1.70455" fill="#8D8480"/>
<rect x="6.81812" y="3.40918" width="1.70455" height="1.70455" fill="#8D8480"/>
<rect x="6.81812" y="5.11365" width="1.70455" height="1.70455" fill="#8D8480"/>
<rect x="6.81812" y="6.81824" width="1.70455" height="1.70455" fill="#8D8480"/>
<rect x="6.81812" y="8.52271" width="1.70455" height="1.70455" fill="#8D8480"/>
<rect x="6.81818" width="1.70455" height="1.70455" fill="#8D8480"/>
<rect x="6.81812" y="27.2727" width="1.70455" height="1.70455" fill="#8D8480"/>
<rect x="6.81812" y="28.9773" width="1.70455" height="1.70455" fill="#8D8480"/>
<rect x="6.81812" y="30.6819" width="1.70455" height="1.70455" fill="#8D8480"/>
<rect x="6.81812" y="32.3865" width="1.70455" height="1.70455" fill="#8D8480"/>
<rect x="6.81812" y="34.0911" width="1.70455" height="1.70455" fill="#8D8480"/>
<rect x="6.81812" y="35.7955" width="1.70455" height="1.70455" fill="#8D8480"/>
<rect x="6.81812" y="25.5682" width="1.70455" height="1.70455" fill="#8D8480"/>
<rect x="6.81812" y="37.5001" width="1.70455" height="1.70455" fill="#8D8480"/>
<rect x="6.81812" y="52.8411" width="1.70455" height="1.70455" fill="#8D8480"/>
<rect x="6.81812" y="54.5455" width="1.70455" height="1.70455" fill="#8D8480"/>
<rect x="6.81812" y="56.2501" width="1.70455" height="1.70455" fill="#8D8480"/>
<rect x="6.81812" y="57.9546" width="1.70455" height="1.70455" fill="#8D8480"/>
<rect x="6.81812" y="59.6592" width="1.70455" height="1.70455" fill="#8D8480"/>
<rect x="6.81812" y="61.3638" width="1.70455" height="1.70455" fill="#8D8480"/>
<rect x="6.81812" y="63.0684" width="1.70455" height="1.70455" fill="#8D8480"/>
<rect x="6.81812" y="80.1138" width="1.70455" height="1.70455" fill="#8D8480"/>
<rect x="6.81812" y="81.8184" width="1.70455" height="1.70455" fill="#8D8480"/>
<rect x="6.81812" y="83.5229" width="1.70455" height="1.70455" fill="#8D8480"/>
<rect x="6.81812" y="85.2275" width="1.70455" height="1.70455" fill="#8D8480"/>
<rect x="6.81812" y="86.9321" width="1.70455" height="1.70455" fill="#8D8480"/>
<rect x="6.81812" y="88.6365" width="1.70455" height="1.70455" fill="#8D8480"/>
<rect x="6.81812" y="90.3411" width="1.70455" height="1.70455" fill="#8D8480"/>
<rect x="6.81812" y="107.386" width="1.70455" height="1.70455" fill="#8D8480"/>
<rect x="6.81812" y="109.091" width="1.70455" height="1.70455" fill="#8D8480"/>
<rect x="6.81812" y="110.796" width="1.70455" height="1.70455" fill="#8D8480"/>
<rect x="6.81812" y="112.5" width="1.70455" height="1.70455" fill="#8D8480"/>
<rect x="6.81812" y="114.205" width="1.70455" height="1.70455" fill="#8D8480"/>
<rect x="6.81812" y="115.909" width="1.70455" height="1.70455" fill="#8D8480"/>
<rect x="6.81812" y="105.682" width="1.70455" height="1.70455" fill="#8D8480"/>
<rect x="6.81812" y="117.614" width="1.70455" height="1.70455" fill="#8D8480"/>
<rect x="6.81812" y="131.25" width="1.70455" height="1.70455" fill="#8D8480"/>
<rect x="6.81812" y="132.955" width="1.70455" height="1.70455" fill="#8D8480"/>
<rect x="6.81812" y="134.659" width="1.70455" height="1.70455" fill="#8D8480"/>
<rect x="6.81812" y="136.364" width="1.70455" height="1.70455" fill="#8D8480"/>
<rect x="6.81812" y="138.068" width="1.70455" height="1.70455" fill="#8D8480"/>
<rect x="6.81812" y="139.773" width="1.70455" height="1.70455" fill="#8D8480"/>
<rect x="6.81812" y="141.478" width="1.70455" height="1.70455" fill="#8D8480"/>
<rect x="6.81812" y="143.182" width="1.70455" height="1.70455" fill="#8D8480"/>
<path fill-rule="evenodd" clip-rule="evenodd" d="M4.96619 5.57424V0.658691H5.47294V5.57424H4.96619ZM4.96619 22.2972V15.7601H5.47294V22.2972H4.96619ZM4.96619 37.9561V31.7229H5.47294V37.9561H4.96619ZM4.96619 54.3243V47.7365H5.47294V54.3243H4.96619ZM4.96619 70.3886V63.446H5.47294V70.3886H4.96619ZM4.96619 85.8953V78.446H5.47294V85.8953H4.96619Z" fill="#666775"/>
<rect x="4.86487" y="1.01355" width="1.01352" height="1.01352" fill="#666775"/>
<rect x="4.86487" y="2.0271" width="1.01352" height="1.01352" fill="#666775"/>
<rect x="4.86487" y="3.04053" width="1.01352" height="1.01352" fill="#666775"/>
<rect x="4.86487" y="4.05408" width="1.01352" height="1.01352" fill="#666775"/>
<rect x="4.86487" y="5.06763" width="1.01352" height="1.01352" fill="#666775"/>
<rect x="4.86487" width="1.01352" height="1.01352" fill="#666775"/>
<rect x="4.86487" y="16.2163" width="1.01352" height="1.01352" fill="#666775"/>
<rect x="4.86487" y="17.2297" width="1.01352" height="1.01352" fill="#666775"/>
<rect x="4.86487" y="18.2433" width="1.01352" height="1.01352" fill="#666775"/>
<rect x="4.86487" y="19.2568" width="1.01352" height="1.01352" fill="#666775"/>
<rect x="4.86487" y="20.2703" width="1.01352" height="1.01352" fill="#666775"/>
<rect x="4.86487" y="21.2838" width="1.01352" height="1.01352" fill="#666775"/>
<rect x="4.86487" y="15.2028" width="1.01352" height="1.01352" fill="#666775"/>
<rect x="4.86487" y="22.2974" width="1.01352" height="1.01352" fill="#666775"/>
<rect x="4.86487" y="31.4189" width="1.01352" height="1.01352" fill="#666775"/>
<rect x="4.86487" y="32.4325" width="1.01352" height="1.01352" fill="#666775"/>
<rect x="4.86487" y="33.446" width="1.01352" height="1.01352" fill="#666775"/>
<rect x="4.86487" y="34.4595" width="1.01352" height="1.01352" fill="#666775"/>
<rect x="4.86487" y="35.473" width="1.01352" height="1.01352" fill="#666775"/>
<rect x="4.86487" y="36.4866" width="1.01352" height="1.01352" fill="#666775"/>
<rect x="4.86487" y="37.5001" width="1.01352" height="1.01352" fill="#666775"/>
<rect x="4.86487" y="47.6353" width="1.01352" height="1.01352" fill="#666775"/>
<rect x="4.86487" y="48.6487" width="1.01352" height="1.01352" fill="#666775"/>
<rect x="4.86487" y="49.6624" width="1.01352" height="1.01352" fill="#666775"/>
<rect x="4.86487" y="50.6758" width="1.01352" height="1.01352" fill="#666775"/>
<rect x="4.86487" y="51.6893" width="1.01352" height="1.01352" fill="#666775"/>
<rect x="4.86487" y="52.7028" width="1.01352" height="1.01352" fill="#666775"/>
<rect x="4.86487" y="53.7163" width="1.01352" height="1.01352" fill="#666775"/>
<rect x="4.86487" y="63.8516" width="1.01352" height="1.01352" fill="#666775"/>
<rect x="4.86487" y="64.865" width="1.01352" height="1.01352" fill="#666775"/>
<rect x="4.86487" y="65.8785" width="1.01352" height="1.01352" fill="#666775"/>
<rect x="4.86487" y="66.892" width="1.01352" height="1.01352" fill="#666775"/>
<rect x="4.86487" y="67.9055" width="1.01352" height="1.01352" fill="#666775"/>
<rect x="4.86487" y="68.9191" width="1.01352" height="1.01352" fill="#666775"/>
<rect x="4.86487" y="62.8379" width="1.01352" height="1.01352" fill="#666775"/>
<rect x="4.86487" y="69.9326" width="1.01352" height="1.01352" fill="#666775"/>
<rect x="4.86487" y="78.0408" width="1.01352" height="1.01352" fill="#666775"/>
<rect x="4.86487" y="79.0542" width="1.01352" height="1.01352" fill="#666775"/>
<rect x="4.86487" y="80.0679" width="1.01352" height="1.01352" fill="#666775"/>
<rect x="4.86487" y="81.0811" width="1.01352" height="1.01352" fill="#666775"/>
<rect x="4.86487" y="82.0947" width="1.01352" height="1.01352" fill="#666775"/>
<rect x="4.86487" y="83.1084" width="1.01352" height="1.01352" fill="#666775"/>
<rect x="4.86487" y="84.1218" width="1.01352" height="1.01352" fill="#666775"/>
<rect x="4.86487" y="85.1353" width="1.01352" height="1.01352" fill="#666775"/>
<path fill-rule="evenodd" clip-rule="evenodd" d="M5.28412 11.25V2.98291H6.13639V11.25H5.28412ZM5.28412 39.375V28.3807H6.13639V39.375H5.28412ZM5.28412 65.7103V55.2273H6.13639V65.7103H5.28412ZM5.28412 93.2388V82.1592H6.13639V93.2388H5.28412ZM5.28412 120.256V108.58H6.13639V120.256H5.28412ZM5.28412 146.335V133.807H6.13639V146.335H5.28412Z" fill="#333022"/>
<rect x="5.11365" y="3.57959" width="1.70455" height="1.70455" fill="#333022"/>
<rect x="5.11365" y="5.28418" width="1.70455" height="1.70455" fill="#333022"/>
<rect x="5.11365" y="6.98865" width="1.70455" height="1.70455" fill="#333022"/>
<rect x="5.11365" y="8.69324" width="1.70455" height="1.70455" fill="#333022"/>
<rect x="5.11365" y="10.3977" width="1.70455" height="1.70455" fill="#333022"/>
<rect x="5.11365" y="1.875" width="1.70455" height="1.70455" fill="#333022"/>
<rect x="5.11365" y="29.1477" width="1.70455" height="1.70455" fill="#333022"/>
<rect x="5.11365" y="30.8523" width="1.70455" height="1.70455" fill="#333022"/>
<rect x="5.11365" y="32.5569" width="1.70455" height="1.70455" fill="#333022"/>
<rect x="5.11365" y="34.2615" width="1.70455" height="1.70455" fill="#333022"/>
<rect x="5.11365" y="35.9661" width="1.70455" height="1.70455" fill="#333022"/>
<rect x="5.11365" y="37.6705" width="1.70455" height="1.70455" fill="#333022"/>
<rect x="5.11365" y="27.4432" width="1.70455" height="1.70455" fill="#333022"/>
<rect x="5.11365" y="39.3751" width="1.70455" height="1.70455" fill="#333022"/>
<rect x="5.11365" y="54.7161" width="1.70455" height="1.70455" fill="#333022"/>
<rect x="5.11365" y="56.4205" width="1.70455" height="1.70455" fill="#333022"/>
<rect x="5.11365" y="58.1251" width="1.70455" height="1.70455" fill="#333022"/>
<rect x="5.11365" y="59.8296" width="1.70455" height="1.70455" fill="#333022"/>
<rect x="5.11365" y="61.5342" width="1.70455" height="1.70455" fill="#333022"/>
<rect x="5.11365" y="63.2388" width="1.70455" height="1.70455" fill="#333022"/>
<rect x="5.11365" y="64.9434" width="1.70455" height="1.70455" fill="#333022"/>
<rect x="5.11365" y="81.9888" width="1.70455" height="1.70455" fill="#333022"/>
<rect x="5.11365" y="83.6934" width="1.70455" height="1.70455" fill="#333022"/>
<rect x="5.11365" y="85.3979" width="1.70455" height="1.70455" fill="#333022"/>
<rect x="5.11365" y="87.1025" width="1.70455" height="1.70455" fill="#333022"/>
<rect x="5.11365" y="88.8071" width="1.70455" height="1.70455" fill="#333022"/>
<rect x="5.11365" y="90.5115" width="1.70455" height="1.70455" fill="#333022"/>
<rect x="5.11365" y="92.2161" width="1.70455" height="1.70455" fill="#333022"/>
<rect x="5.11365" y="109.261" width="1.70455" height="1.70455" fill="#333022"/>
<rect x="5.11365" y="110.966" width="1.70455" height="1.70455" fill="#333022"/>
<rect x="5.11365" y="112.671" width="1.70455" height="1.70455" fill="#333022"/>
<rect x="5.11365" y="114.375" width="1.70455" height="1.70455" fill="#333022"/>
<rect x="5.11365" y="116.08" width="1.70455" height="1.70455" fill="#333022"/>
<rect x="5.11365" y="117.784" width="1.70455" height="1.70455" fill="#333022"/>
<rect x="5.11365" y="107.557" width="1.70455" height="1.70455" fill="#333022"/>
<rect x="5.11365" y="119.489" width="1.70455" height="1.70455" fill="#333022"/>
<rect x="5.11365" y="133.125" width="1.70455" height="1.70455" fill="#333022"/>
<rect x="5.11365" y="134.83" width="1.70455" height="1.70455" fill="#333022"/>
<rect x="5.11365" y="136.534" width="1.70455" height="1.70455" fill="#333022"/>
<rect x="5.11365" y="138.239" width="1.70455" height="1.70455" fill="#333022"/>
<rect x="5.11365" y="139.943" width="1.70455" height="1.70455" fill="#333022"/>
<rect x="5.11365" y="141.648" width="1.70455" height="1.70455" fill="#333022"/>
<rect x="5.11365" y="143.353" width="1.70455" height="1.70455" fill="#333022"/>
<rect x="5.11365" y="145.057" width="1.70455" height="1.70455" fill="#333022"/>
</svg>
