<svg width="60" height="588" viewBox="0 0 60 588" fill="none" xmlns="http://www.w3.org/2000/svg">
<path fill-rule="evenodd" clip-rule="evenodd" d="M48.4093 85.5684V58.2956C48.4093 47.9402 40.0146 39.5456 29.6592 39.5456C19.3039 39.5456 10.9092 47.9402 10.9092 58.2956V85.5684C10.9092 95.9237 19.3039 104.318 29.6592 104.318C40.0146 104.318 48.4093 95.9237 48.4093 85.5684ZM29.6592 36.1365C17.4211 36.1365 7.50011 46.0575 7.50011 58.2956V85.5684C7.50011 97.8065 17.4211 107.728 29.6592 107.728C41.8974 107.728 51.8184 97.8065 51.8184 85.5684V58.2956C51.8184 46.0575 41.8974 36.1365 29.6592 36.1365Z" fill="#8D8480"/>
<rect x="47.7274" y="61.3638" width="6.81819" height="6.81819" fill="#8D8480"/>
<rect x="47.7274" y="68.1821" width="6.81819" height="6.81819" fill="#8D8480"/>
<rect x="47.7274" y="75.0002" width="6.81819" height="6.81819" fill="#8D8480"/>
<rect x="47.7274" y="81.8184" width="6.81819" height="6.81819" fill="#8D8480"/>
<rect x="47.7274" y="54.5454" width="6.81819" height="6.81819" fill="#8D8480"/>
<rect x="40.9092" y="40.9089" width="6.81819" height="6.81819" fill="#8D8480"/>
<rect x="40.9092" y="47.7273" width="6.81819" height="6.81819" fill="#8D8480"/>
<rect x="27.2728" y="34.0908" width="6.81819" height="6.81819" fill="#8D8480"/>
<rect x="34.091" y="40.9089" width="6.81819" height="6.81819" fill="#8D8480"/>
<rect x="13.6364" y="40.9089" width="6.81819" height="6.81819" fill="#8D8480"/>
<rect x="6.8182" y="47.7273" width="6.81819" height="6.81819" fill="#8D8480"/>
<rect x="6.8182" y="54.5454" width="6.81819" height="6.81819" fill="#8D8480"/>
<rect x="20.4546" y="34.0908" width="6.81819" height="6.81819" fill="#8D8480"/>
<rect x="6.8182" y="61.3638" width="6.81819" height="6.81819" fill="#8D8480"/>
<rect x="6.8182" y="68.1821" width="6.81819" height="6.81819" fill="#8D8480"/>
<rect x="6.8182" y="75.0002" width="6.81819" height="6.81819" fill="#8D8480"/>
<rect x="6.8182" y="81.8184" width="6.81819" height="6.81819" fill="#8D8480"/>
<rect x="6.8182" y="88.6365" width="6.81819" height="6.81819" fill="#8D8480"/>
<rect x="13.6364" y="95.4546" width="6.81819" height="6.81819" fill="#8D8480"/>
<rect x="20.4546" y="102.273" width="6.81819" height="6.81819" fill="#8D8480"/>
<rect x="27.2728" y="102.273" width="6.81819" height="6.81819" fill="#8D8480"/>
<rect x="40.9092" y="88.6365" width="6.81819" height="6.81819" fill="#8D8480"/>
<rect x="40.9092" y="95.4546" width="6.81819" height="6.81819" fill="#8D8480"/>
<rect x="34.091" y="102.273" width="6.81819" height="6.81819" fill="#8D8480"/>
<rect x="6.8182" y="40.9089" width="6.81819" height="6.81819" fill="#8D8480"/>
<rect x="13.6364" y="34.0908" width="6.81819" height="6.81819" fill="#8D8480"/>
<rect x="6.8182" y="95.4546" width="6.81819" height="6.81819" fill="#8D8480"/>
<rect x="13.6364" y="102.273" width="6.81819" height="6.81819" fill="#8D8480"/>
<rect x="47.7274" y="88.6365" width="6.81819" height="6.81819" fill="#8D8480"/>
<rect x="34.091" y="34.0908" width="6.81819" height="6.81819" fill="#8D8480"/>
<rect x="47.7274" y="47.7273" width="6.81819" height="6.81819" fill="#8D8480"/>
<path fill-rule="evenodd" clip-rule="evenodd" d="M53.8636 85.5684V58.2956C53.8636 47.9402 45.469 39.5456 35.1136 39.5456C24.7582 39.5456 16.3636 47.9402 16.3636 58.2956V85.5684C16.3636 95.9237 24.7582 104.318 35.1136 104.318C45.469 104.318 53.8636 95.9237 53.8636 85.5684ZM35.1136 36.1365C22.8754 36.1365 12.9545 46.0575 12.9545 58.2956V85.5684C12.9545 97.8065 22.8754 107.728 35.1136 107.728C47.3517 107.728 57.2727 97.8065 57.2727 85.5684V58.2956C57.2727 46.0575 47.3517 36.1365 35.1136 36.1365Z" fill="#666775"/>
<rect x="53.1817" y="61.3638" width="6.81819" height="6.81819" fill="#666775"/>
<rect x="53.1817" y="68.1821" width="6.81819" height="6.81819" fill="#666775"/>
<rect x="53.1817" y="75.0002" width="6.81819" height="6.81819" fill="#666775"/>
<rect x="53.1817" y="81.8184" width="6.81819" height="6.81819" fill="#666775"/>
<rect x="53.1817" y="54.5454" width="6.81819" height="6.81819" fill="#666775"/>
<rect x="46.3635" y="40.9089" width="6.81819" height="6.81819" fill="#666775"/>
<rect x="46.3635" y="47.7273" width="6.81819" height="6.81819" fill="#666775"/>
<rect x="32.7271" y="34.0908" width="6.81819" height="6.81819" fill="#666775"/>
<rect x="39.5453" y="40.9089" width="6.81819" height="6.81819" fill="#666775"/>
<rect x="19.0907" y="40.9089" width="6.81819" height="6.81819" fill="#666775"/>
<rect x="12.2726" y="47.7273" width="6.81819" height="6.81819" fill="#666775"/>
<rect x="12.2726" y="54.5454" width="6.81819" height="6.81819" fill="#666775"/>
<rect x="25.9089" y="34.0908" width="6.81819" height="6.81819" fill="#666775"/>
<rect x="12.2726" y="61.3638" width="6.81819" height="6.81819" fill="#666775"/>
<rect x="12.2726" y="68.1821" width="6.81819" height="6.81819" fill="#666775"/>
<rect x="12.2726" y="75.0002" width="6.81819" height="6.81819" fill="#666775"/>
<rect x="12.2726" y="81.8184" width="6.81819" height="6.81819" fill="#666775"/>
<rect x="12.2726" y="88.6365" width="6.81819" height="6.81819" fill="#666775"/>
<rect x="19.0907" y="95.4546" width="6.81819" height="6.81819" fill="#666775"/>
<rect x="25.9089" y="102.273" width="6.81819" height="6.81819" fill="#666775"/>
<rect x="32.7271" y="102.273" width="6.81819" height="6.81819" fill="#666775"/>
<rect x="46.3635" y="88.6365" width="6.81819" height="6.81819" fill="#666775"/>
<rect x="46.3635" y="95.4546" width="6.81819" height="6.81819" fill="#666775"/>
<rect x="39.5453" y="102.273" width="6.81819" height="6.81819" fill="#666775"/>
<rect x="12.2726" y="40.9089" width="6.81819" height="6.81819" fill="#666775"/>
<rect x="19.0907" y="34.0908" width="6.81819" height="6.81819" fill="#666775"/>
<rect x="12.2726" y="95.4546" width="6.81819" height="6.81819" fill="#666775"/>
<rect x="19.0907" y="102.273" width="6.81819" height="6.81819" fill="#666775"/>
<rect x="53.1817" y="88.6365" width="6.81819" height="6.81819" fill="#666775"/>
<rect x="39.5453" y="34.0908" width="6.81819" height="6.81819" fill="#666775"/>
<rect x="53.1817" y="47.7273" width="6.81819" height="6.81819" fill="#666775"/>
<path fill-rule="evenodd" clip-rule="evenodd" d="M41.591 93.0684V65.7956C41.591 55.4402 33.1963 47.0456 22.841 47.0456C12.4856 47.0456 4.09091 55.4402 4.09091 65.7956V93.0684C4.09091 103.424 12.4856 111.818 22.841 111.818C33.1963 111.818 41.591 103.424 41.591 93.0684ZM22.841 43.6365C10.6028 43.6365 0.681816 53.5575 0.681816 65.7956V93.0684C0.681816 105.307 10.6028 115.228 22.841 115.228C35.0791 115.228 45.0001 105.307 45.0001 93.0684V65.7956C45.0001 53.5575 35.0791 43.6365 22.841 43.6365Z" fill="#CABC77"/>
<rect x="40.9092" y="68.8638" width="6.81819" height="6.81819" fill="#CABC77"/>
<rect x="40.9092" y="75.6821" width="6.81819" height="6.81819" fill="#CABC77"/>
<rect x="40.9092" y="82.5002" width="6.81819" height="6.81819" fill="#CABC77"/>
<rect x="40.9092" y="89.3184" width="6.81819" height="6.81819" fill="#CABC77"/>
<rect x="40.9092" y="62.0454" width="6.81819" height="6.81819" fill="#CABC77"/>
<rect x="34.091" y="48.4092" width="6.81819" height="6.81819" fill="#CABC77"/>
<rect x="34.091" y="55.2273" width="6.81819" height="6.81819" fill="#CABC77"/>
<rect x="20.4546" y="41.5908" width="6.81819" height="6.81819" fill="#CABC77"/>
<rect x="27.2728" y="48.4092" width="6.81819" height="6.81819" fill="#CABC77"/>
<rect x="6.81818" y="48.4092" width="6.81819" height="6.81819" fill="#CABC77"/>
<rect y="55.2273" width="6.81819" height="6.81819" fill="#CABC77"/>
<rect y="62.0454" width="6.81819" height="6.81819" fill="#CABC77"/>
<rect x="13.6364" y="41.5908" width="6.81819" height="6.81819" fill="#CABC77"/>
<rect y="68.8638" width="6.81819" height="6.81819" fill="#CABC77"/>
<rect y="75.6821" width="6.81819" height="6.81819" fill="#CABC77"/>
<rect y="82.5002" width="6.81819" height="6.81819" fill="#CABC77"/>
<rect y="89.3184" width="6.81819" height="6.81819" fill="#CABC77"/>
<rect y="96.1365" width="6.81819" height="6.81819" fill="#CABC77"/>
<rect x="6.81818" y="102.955" width="6.81819" height="6.81819" fill="#CABC77"/>
<rect x="13.6364" y="109.773" width="6.81819" height="6.81819" fill="#CABC77"/>
<rect x="20.4546" y="109.773" width="6.81819" height="6.81819" fill="#CABC77"/>
<rect x="34.091" y="96.1365" width="6.81819" height="6.81819" fill="#CABC77"/>
<rect x="34.091" y="102.955" width="6.81819" height="6.81819" fill="#CABC77"/>
<rect x="27.2728" y="109.773" width="6.81819" height="6.81819" fill="#CABC77"/>
<rect y="48.4092" width="6.81819" height="6.81819" fill="#CABC77"/>
<rect x="6.81818" y="41.5908" width="6.81819" height="6.81819" fill="#CABC77"/>
<rect y="102.955" width="6.81819" height="6.81819" fill="#CABC77"/>
<rect x="6.81818" y="109.773" width="6.81819" height="6.81819" fill="#CABC77"/>
<rect x="40.9092" y="96.1365" width="6.81819" height="6.81819" fill="#CABC77"/>
<rect x="27.2728" y="41.5908" width="6.81819" height="6.81819" fill="#CABC77"/>
<rect x="40.9092" y="55.2273" width="6.81819" height="6.81819" fill="#CABC77"/>
<path fill-rule="evenodd" clip-rule="evenodd" d="M48.4093 192.614V165.341C48.4093 154.986 40.0146 146.591 29.6592 146.591C19.3039 146.591 10.9092 154.986 10.9092 165.341V192.614C10.9092 202.969 19.3039 211.364 29.6592 211.364C40.0146 211.364 48.4093 202.969 48.4093 192.614ZM29.6592 143.182C17.4211 143.182 7.50011 153.103 7.50011 165.341V192.614C7.50011 204.852 17.4211 214.773 29.6592 214.773C41.8974 214.773 51.8184 204.852 51.8184 192.614V165.341C51.8184 153.103 41.8974 143.182 29.6592 143.182Z" fill="#8D8480"/>
<rect x="47.7274" y="163.636" width="6.81819" height="6.81819" fill="#8D8480"/>
<rect x="47.7274" y="170.455" width="6.81819" height="6.81819" fill="#8D8480"/>
<rect x="47.7274" y="177.273" width="6.81819" height="6.81819" fill="#8D8480"/>
<rect x="47.7274" y="184.091" width="6.81819" height="6.81819" fill="#8D8480"/>
<rect x="47.7274" y="190.909" width="6.81819" height="6.81819" fill="#8D8480"/>
<rect x="27.2728" y="143.182" width="6.81819" height="6.81819" fill="#8D8480"/>
<rect x="40.9092" y="150" width="6.81819" height="6.81819" fill="#8D8480"/>
<rect x="40.9092" y="156.818" width="6.81819" height="6.81819" fill="#8D8480"/>
<rect x="34.091" y="143.182" width="6.81819" height="6.81819" fill="#8D8480"/>
<rect x="13.6364" y="150" width="6.81819" height="6.81819" fill="#8D8480"/>
<rect x="6.8182" y="156.818" width="6.81819" height="6.81819" fill="#8D8480"/>
<rect x="20.4546" y="143.182" width="6.81819" height="6.81819" fill="#8D8480"/>
<rect x="6.8182" y="163.636" width="6.81819" height="6.81819" fill="#8D8480"/>
<rect x="6.8182" y="170.455" width="6.81819" height="6.81819" fill="#8D8480"/>
<rect x="6.8182" y="177.273" width="6.81819" height="6.81819" fill="#8D8480"/>
<rect x="6.8182" y="184.091" width="6.81819" height="6.81819" fill="#8D8480"/>
<rect x="6.8182" y="190.909" width="6.81819" height="6.81819" fill="#8D8480"/>
<rect x="6.8182" y="197.728" width="6.81819" height="6.81819" fill="#8D8480"/>
<rect x="13.6364" y="204.546" width="6.81819" height="6.81819" fill="#8D8480"/>
<rect x="20.4546" y="204.546" width="6.81819" height="6.81819" fill="#8D8480"/>
<rect x="27.2728" y="211.364" width="6.81819" height="6.81819" fill="#8D8480"/>
<rect x="40.9092" y="197.728" width="6.81819" height="6.81819" fill="#8D8480"/>
<rect x="34.091" y="204.546" width="6.81819" height="6.81819" fill="#8D8480"/>
<rect x="27.2728" y="204.546" width="6.81819" height="6.81819" fill="#8D8480"/>
<rect x="13.6364" y="143.182" width="6.81819" height="6.81819" fill="#8D8480"/>
<rect x="6.8182" y="150" width="6.81819" height="6.81819" fill="#8D8480"/>
<rect x="20.4546" y="211.364" width="6.81819" height="6.81819" fill="#8D8480"/>
<rect x="47.7274" y="197.728" width="6.81819" height="6.81819" fill="#8D8480"/>
<rect x="40.9092" y="204.546" width="6.81819" height="6.81819" fill="#8D8480"/>
<rect x="34.091" y="211.364" width="6.81819" height="6.81819" fill="#8D8480"/>
<rect x="40.9092" y="143.182" width="6.81819" height="6.81819" fill="#8D8480"/>
<rect x="47.7274" y="150" width="6.81819" height="6.81819" fill="#8D8480"/>
<rect x="47.7274" y="156.818" width="6.81819" height="6.81819" fill="#8D8480"/>
<path fill-rule="evenodd" clip-rule="evenodd" d="M53.8636 192.614V165.341C53.8636 154.986 45.469 146.591 35.1136 146.591C24.7582 146.591 16.3636 154.986 16.3636 165.341V192.614C16.3636 202.969 24.7582 211.364 35.1136 211.364C45.469 211.364 53.8636 202.969 53.8636 192.614ZM35.1136 143.182C22.8754 143.182 12.9545 153.103 12.9545 165.341V192.614C12.9545 204.852 22.8754 214.773 35.1136 214.773C47.3517 214.773 57.2727 204.852 57.2727 192.614V165.341C57.2727 153.103 47.3517 143.182 35.1136 143.182Z" fill="#666775"/>
<rect x="53.1817" y="163.636" width="6.81819" height="6.81819" fill="#666775"/>
<rect x="53.1817" y="170.455" width="6.81819" height="6.81819" fill="#666775"/>
<rect x="53.1817" y="177.273" width="6.81819" height="6.81819" fill="#666775"/>
<rect x="53.1817" y="184.091" width="6.81819" height="6.81819" fill="#666775"/>
<rect x="53.1817" y="190.909" width="6.81819" height="6.81819" fill="#666775"/>
<rect x="32.7271" y="143.182" width="6.81819" height="6.81819" fill="#666775"/>
<rect x="46.3635" y="150" width="6.81819" height="6.81819" fill="#666775"/>
<rect x="46.3635" y="156.818" width="6.81819" height="6.81819" fill="#666775"/>
<rect x="39.5453" y="143.182" width="6.81819" height="6.81819" fill="#666775"/>
<rect x="19.0907" y="150" width="6.81819" height="6.81819" fill="#666775"/>
<rect x="12.2726" y="156.818" width="6.81819" height="6.81819" fill="#666775"/>
<rect x="25.9089" y="143.182" width="6.81819" height="6.81819" fill="#666775"/>
<rect x="12.2726" y="163.636" width="6.81819" height="6.81819" fill="#666775"/>
<rect x="12.2726" y="170.455" width="6.81819" height="6.81819" fill="#666775"/>
<rect x="12.2726" y="177.273" width="6.81819" height="6.81819" fill="#666775"/>
<rect x="12.2726" y="184.091" width="6.81819" height="6.81819" fill="#666775"/>
<rect x="12.2726" y="190.909" width="6.81819" height="6.81819" fill="#666775"/>
<rect x="12.2726" y="197.728" width="6.81819" height="6.81819" fill="#666775"/>
<rect x="19.0907" y="204.546" width="6.81819" height="6.81819" fill="#666775"/>
<rect x="25.9089" y="204.546" width="6.81819" height="6.81819" fill="#666775"/>
<rect x="32.7271" y="211.364" width="6.81819" height="6.81819" fill="#666775"/>
<rect x="46.3635" y="197.728" width="6.81819" height="6.81819" fill="#666775"/>
<rect x="39.5453" y="204.546" width="6.81819" height="6.81819" fill="#666775"/>
<rect x="32.7271" y="204.546" width="6.81819" height="6.81819" fill="#666775"/>
<rect x="19.0907" y="143.182" width="6.81819" height="6.81819" fill="#666775"/>
<rect x="12.2726" y="150" width="6.81819" height="6.81819" fill="#666775"/>
<rect x="25.9089" y="211.364" width="6.81819" height="6.81819" fill="#666775"/>
<rect x="53.1817" y="197.728" width="6.81819" height="6.81819" fill="#666775"/>
<rect x="46.3635" y="204.546" width="6.81819" height="6.81819" fill="#666775"/>
<rect x="39.5453" y="211.364" width="6.81819" height="6.81819" fill="#666775"/>
<rect x="46.3635" y="143.182" width="6.81819" height="6.81819" fill="#666775"/>
<rect x="53.1817" y="150" width="6.81819" height="6.81819" fill="#666775"/>
<rect x="53.1817" y="156.818" width="6.81819" height="6.81819" fill="#666775"/>
<path fill-rule="evenodd" clip-rule="evenodd" d="M41.591 200.114V172.841C41.591 162.486 33.1963 154.091 22.841 154.091C12.4856 154.091 4.09091 162.486 4.09091 172.841V200.114C4.09091 210.469 12.4856 218.864 22.841 218.864C33.1963 218.864 41.591 210.469 41.591 200.114ZM22.841 150.682C10.6028 150.682 0.681816 160.603 0.681816 172.841V200.114C0.681816 212.352 10.6028 222.273 22.841 222.273C35.0791 222.273 45.0001 212.352 45.0001 200.114V172.841C45.0001 160.603 35.0791 150.682 22.841 150.682Z" fill="#CABC77"/>
<rect x="40.9092" y="171.136" width="6.81819" height="6.81819" fill="#CABC77"/>
<rect x="40.9092" y="177.955" width="6.81819" height="6.81819" fill="#CABC77"/>
<rect x="40.9092" y="184.773" width="6.81819" height="6.81819" fill="#CABC77"/>
<rect x="40.9092" y="191.591" width="6.81819" height="6.81819" fill="#CABC77"/>
<rect x="40.9092" y="198.41" width="6.81819" height="6.81819" fill="#CABC77"/>
<rect x="20.4546" y="150.682" width="6.81819" height="6.81819" fill="#CABC77"/>
<rect x="34.091" y="157.5" width="6.81819" height="6.81819" fill="#CABC77"/>
<rect x="34.091" y="164.318" width="6.81819" height="6.81819" fill="#CABC77"/>
<rect x="27.2728" y="150.682" width="6.81819" height="6.81819" fill="#CABC77"/>
<rect x="6.81818" y="157.5" width="6.81819" height="6.81819" fill="#CABC77"/>
<rect y="164.318" width="6.81819" height="6.81819" fill="#CABC77"/>
<rect x="13.6364" y="150.682" width="6.81819" height="6.81819" fill="#CABC77"/>
<rect y="171.136" width="6.81819" height="6.81819" fill="#CABC77"/>
<rect y="177.955" width="6.81819" height="6.81819" fill="#CABC77"/>
<rect y="184.773" width="6.81819" height="6.81819" fill="#CABC77"/>
<rect y="191.591" width="6.81819" height="6.81819" fill="#CABC77"/>
<rect y="198.41" width="6.81819" height="6.81819" fill="#CABC77"/>
<rect y="205.228" width="6.81819" height="6.81819" fill="#CABC77"/>
<rect x="6.81818" y="212.046" width="6.81819" height="6.81819" fill="#CABC77"/>
<rect x="13.6364" y="212.046" width="6.81819" height="6.81819" fill="#CABC77"/>
<rect x="20.4546" y="218.864" width="6.81819" height="6.81819" fill="#CABC77"/>
<rect x="34.091" y="205.228" width="6.81819" height="6.81819" fill="#CABC77"/>
<rect x="27.2728" y="212.046" width="6.81819" height="6.81819" fill="#CABC77"/>
<rect x="20.4546" y="212.046" width="6.81819" height="6.81819" fill="#CABC77"/>
<rect x="6.81818" y="150.682" width="6.81819" height="6.81819" fill="#CABC77"/>
<rect y="157.5" width="6.81819" height="6.81819" fill="#CABC77"/>
<rect x="13.6364" y="218.864" width="6.81819" height="6.81819" fill="#CABC77"/>
<rect x="40.9092" y="205.228" width="6.81819" height="6.81819" fill="#CABC77"/>
<rect x="34.091" y="212.046" width="6.81819" height="6.81819" fill="#CABC77"/>
<rect x="27.2728" y="218.864" width="6.81819" height="6.81819" fill="#CABC77"/>
<rect x="34.091" y="150.682" width="6.81819" height="6.81819" fill="#CABC77"/>
<rect x="40.9092" y="157.5" width="6.81819" height="6.81819" fill="#CABC77"/>
<rect x="40.9092" y="164.318" width="6.81819" height="6.81819" fill="#CABC77"/>
<path fill-rule="evenodd" clip-rule="evenodd" d="M48.4093 299.66V272.387C48.4093 262.032 40.0147 253.637 29.6593 253.637C19.304 253.637 10.9093 262.032 10.9093 272.387V299.66C10.9093 310.015 19.304 318.41 29.6593 318.41C40.0147 318.41 48.4093 310.015 48.4093 299.66ZM29.6593 250.228C17.4212 250.228 7.50018 260.149 7.50018 272.387V299.66C7.50018 311.898 17.4212 321.819 29.6593 321.819C41.8975 321.819 51.8184 311.898 51.8184 299.66V272.387C51.8184 260.149 41.8975 250.228 29.6593 250.228Z" fill="#8D8480"/>
<rect x="47.7274" y="272.728" width="6.81819" height="6.81819" fill="#8D8480"/>
<rect x="47.7274" y="279.546" width="6.81819" height="6.81819" fill="#8D8480"/>
<rect x="47.7274" y="286.364" width="6.81819" height="6.81819" fill="#8D8480"/>
<rect x="47.7274" y="293.183" width="6.81819" height="6.81819" fill="#8D8480"/>
<rect x="47.7274" y="265.91" width="6.81819" height="6.81819" fill="#8D8480"/>
<rect x="34.0911" y="252.273" width="6.81819" height="6.81819" fill="#8D8480"/>
<rect x="40.9093" y="259.092" width="6.81819" height="6.81819" fill="#8D8480"/>
<rect x="27.2729" y="252.273" width="6.81819" height="6.81819" fill="#8D8480"/>
<rect x="20.4547" y="252.273" width="6.81819" height="6.81819" fill="#8D8480"/>
<rect x="13.6365" y="259.092" width="6.81819" height="6.81819" fill="#8D8480"/>
<rect x="6.81827" y="265.91" width="6.81819" height="6.81819" fill="#8D8480"/>
<rect x="13.6365" y="252.273" width="6.81819" height="6.81819" fill="#8D8480"/>
<rect x="6.81827" y="272.728" width="6.81819" height="6.81819" fill="#8D8480"/>
<rect x="6.81827" y="279.546" width="6.81819" height="6.81819" fill="#8D8480"/>
<rect x="6.81827" y="286.364" width="6.81819" height="6.81819" fill="#8D8480"/>
<rect x="6.81827" y="293.183" width="6.81819" height="6.81819" fill="#8D8480"/>
<rect x="6.81827" y="300.001" width="6.81819" height="6.81819" fill="#8D8480"/>
<rect x="13.6365" y="306.819" width="6.81819" height="6.81819" fill="#8D8480"/>
<rect x="20.4547" y="313.637" width="6.81819" height="6.81819" fill="#8D8480"/>
<rect x="27.2729" y="313.637" width="6.81819" height="6.81819" fill="#8D8480"/>
<rect x="47.7274" y="300.001" width="6.81819" height="6.81819" fill="#8D8480"/>
<rect x="40.9093" y="306.819" width="6.81819" height="6.81819" fill="#8D8480"/>
<rect x="34.0911" y="313.637" width="6.81819" height="6.81819" fill="#8D8480"/>
<rect x="6.81827" y="259.092" width="6.81819" height="6.81819" fill="#8D8480"/>
<rect x="20.4547" y="245.455" width="6.81819" height="6.81819" fill="#8D8480"/>
<rect x="27.2729" y="245.455" width="6.81819" height="6.81819" fill="#8D8480"/>
<rect x="6.81827" y="306.819" width="6.81819" height="6.81819" fill="#8D8480"/>
<rect x="13.6365" y="313.637" width="6.81819" height="6.81819" fill="#8D8480"/>
<rect x="20.4547" y="320.455" width="6.81819" height="6.81819" fill="#8D8480"/>
<rect x="27.2729" y="320.455" width="6.81819" height="6.81819" fill="#8D8480"/>
<rect x="47.7274" y="306.819" width="6.81819" height="6.81819" fill="#8D8480"/>
<rect x="40.9093" y="313.637" width="6.81819" height="6.81819" fill="#8D8480"/>
<rect x="40.9093" y="252.273" width="6.81819" height="6.81819" fill="#8D8480"/>
<rect x="47.7274" y="259.092" width="6.81819" height="6.81819" fill="#8D8480"/>
<rect x="34.0911" y="245.455" width="6.81819" height="6.81819" fill="#8D8480"/>
<path fill-rule="evenodd" clip-rule="evenodd" d="M53.8637 299.66V272.387C53.8637 262.032 45.469 253.637 35.1137 253.637C24.7583 253.637 16.3636 262.032 16.3636 272.387V299.66C16.3636 310.015 24.7583 318.41 35.1137 318.41C45.469 318.41 53.8637 310.015 53.8637 299.66ZM35.1137 250.228C22.8755 250.228 12.9546 260.149 12.9546 272.387V299.66C12.9546 311.898 22.8755 321.819 35.1137 321.819C47.3518 321.819 57.2728 311.898 57.2728 299.66V272.387C57.2728 260.149 47.3518 250.228 35.1137 250.228Z" fill="#666775"/>
<rect x="53.1818" y="272.728" width="6.81819" height="6.81819" fill="#666775"/>
<rect x="53.1818" y="279.546" width="6.81819" height="6.81819" fill="#666775"/>
<rect x="53.1818" y="286.364" width="6.81819" height="6.81819" fill="#666775"/>
<rect x="53.1818" y="293.183" width="6.81819" height="6.81819" fill="#666775"/>
<rect x="53.1818" y="265.91" width="6.81819" height="6.81819" fill="#666775"/>
<rect x="39.5454" y="252.273" width="6.81819" height="6.81819" fill="#666775"/>
<rect x="46.3636" y="259.092" width="6.81819" height="6.81819" fill="#666775"/>
<rect x="32.7272" y="252.273" width="6.81819" height="6.81819" fill="#666775"/>
<rect x="25.909" y="252.273" width="6.81819" height="6.81819" fill="#666775"/>
<rect x="19.0908" y="259.092" width="6.81819" height="6.81819" fill="#666775"/>
<rect x="12.2726" y="265.91" width="6.81819" height="6.81819" fill="#666775"/>
<rect x="19.0908" y="252.273" width="6.81819" height="6.81819" fill="#666775"/>
<rect x="12.2726" y="272.728" width="6.81819" height="6.81819" fill="#666775"/>
<rect x="12.2726" y="279.546" width="6.81819" height="6.81819" fill="#666775"/>
<rect x="12.2726" y="286.364" width="6.81819" height="6.81819" fill="#666775"/>
<rect x="12.2726" y="293.183" width="6.81819" height="6.81819" fill="#666775"/>
<rect x="12.2726" y="300.001" width="6.81819" height="6.81819" fill="#666775"/>
<rect x="19.0908" y="306.819" width="6.81819" height="6.81819" fill="#666775"/>
<rect x="25.909" y="313.637" width="6.81819" height="6.81819" fill="#666775"/>
<rect x="32.7272" y="313.637" width="6.81819" height="6.81819" fill="#666775"/>
<rect x="53.1818" y="300.001" width="6.81819" height="6.81819" fill="#666775"/>
<rect x="46.3636" y="306.819" width="6.81819" height="6.81819" fill="#666775"/>
<rect x="39.5454" y="313.637" width="6.81819" height="6.81819" fill="#666775"/>
<rect x="12.2726" y="259.092" width="6.81819" height="6.81819" fill="#666775"/>
<rect x="25.909" y="245.455" width="6.81819" height="6.81819" fill="#666775"/>
<rect x="32.7272" y="245.455" width="6.81819" height="6.81819" fill="#666775"/>
<rect x="12.2726" y="306.819" width="6.81819" height="6.81819" fill="#666775"/>
<rect x="19.0908" y="313.637" width="6.81819" height="6.81819" fill="#666775"/>
<rect x="25.909" y="320.455" width="6.81819" height="6.81819" fill="#666775"/>
<rect x="32.7272" y="320.455" width="6.81819" height="6.81819" fill="#666775"/>
<rect x="53.1818" y="306.819" width="6.81819" height="6.81819" fill="#666775"/>
<rect x="46.3636" y="313.637" width="6.81819" height="6.81819" fill="#666775"/>
<rect x="46.3636" y="252.273" width="6.81819" height="6.81819" fill="#666775"/>
<rect x="53.1818" y="259.092" width="6.81819" height="6.81819" fill="#666775"/>
<rect x="39.5454" y="245.455" width="6.81819" height="6.81819" fill="#666775"/>
<path fill-rule="evenodd" clip-rule="evenodd" d="M41.591 307.16V279.887C41.591 269.532 33.1963 261.137 22.841 261.137C12.4856 261.137 4.09091 269.532 4.09091 279.887V307.16C4.09091 317.515 12.4856 325.91 22.841 325.91C33.1963 325.91 41.591 317.515 41.591 307.16ZM22.841 257.728C10.6028 257.728 0.681816 267.649 0.681816 279.887V307.16C0.681816 319.398 10.6028 329.319 22.841 329.319C35.0791 329.319 45.0001 319.398 45.0001 307.16V279.887C45.0001 267.649 35.0791 257.728 22.841 257.728Z" fill="#CABC77"/>
<rect x="40.9092" y="280.228" width="6.81819" height="6.81819" fill="#CABC77"/>
<rect x="40.9092" y="287.046" width="6.81819" height="6.81819" fill="#CABC77"/>
<rect x="40.9092" y="293.865" width="6.81819" height="6.81819" fill="#CABC77"/>
<rect x="40.9092" y="300.683" width="6.81819" height="6.81819" fill="#CABC77"/>
<rect x="40.9092" y="273.41" width="6.81819" height="6.81819" fill="#CABC77"/>
<rect x="27.2728" y="259.773" width="6.81819" height="6.81819" fill="#CABC77"/>
<rect x="34.091" y="266.592" width="6.81819" height="6.81819" fill="#CABC77"/>
<rect x="20.4546" y="259.773" width="6.81819" height="6.81819" fill="#CABC77"/>
<rect x="13.6364" y="259.773" width="6.81819" height="6.81819" fill="#CABC77"/>
<rect x="6.81818" y="266.592" width="6.81819" height="6.81819" fill="#CABC77"/>
<rect y="273.41" width="6.81819" height="6.81819" fill="#CABC77"/>
<rect x="6.81818" y="259.773" width="6.81819" height="6.81819" fill="#CABC77"/>
<rect y="280.228" width="6.81819" height="6.81819" fill="#CABC77"/>
<rect y="287.046" width="6.81819" height="6.81819" fill="#CABC77"/>
<rect y="293.865" width="6.81819" height="6.81819" fill="#CABC77"/>
<rect y="300.683" width="6.81819" height="6.81819" fill="#CABC77"/>
<rect y="307.501" width="6.81819" height="6.81819" fill="#CABC77"/>
<rect x="6.81818" y="314.319" width="6.81819" height="6.81819" fill="#CABC77"/>
<rect x="13.6364" y="321.137" width="6.81819" height="6.81819" fill="#CABC77"/>
<rect x="20.4546" y="321.137" width="6.81819" height="6.81819" fill="#CABC77"/>
<rect x="40.9092" y="307.501" width="6.81819" height="6.81819" fill="#CABC77"/>
<rect x="34.091" y="314.319" width="6.81819" height="6.81819" fill="#CABC77"/>
<rect x="27.2728" y="321.137" width="6.81819" height="6.81819" fill="#CABC77"/>
<rect y="266.592" width="6.81819" height="6.81819" fill="#CABC77"/>
<rect x="13.6364" y="252.955" width="6.81819" height="6.81819" fill="#CABC77"/>
<rect x="20.4546" y="252.955" width="6.81819" height="6.81819" fill="#CABC77"/>
<rect y="314.319" width="6.81819" height="6.81819" fill="#CABC77"/>
<rect x="6.81818" y="321.137" width="6.81819" height="6.81819" fill="#CABC77"/>
<rect x="13.6364" y="327.955" width="6.81819" height="6.81819" fill="#CABC77"/>
<rect x="20.4546" y="327.955" width="6.81819" height="6.81819" fill="#CABC77"/>
<rect x="40.9092" y="314.319" width="6.81819" height="6.81819" fill="#CABC77"/>
<rect x="34.091" y="321.137" width="6.81819" height="6.81819" fill="#CABC77"/>
<rect x="34.091" y="259.773" width="6.81819" height="6.81819" fill="#CABC77"/>
<rect x="40.9092" y="266.592" width="6.81819" height="6.81819" fill="#CABC77"/>
<rect x="27.2728" y="252.955" width="6.81819" height="6.81819" fill="#CABC77"/>
<path fill-rule="evenodd" clip-rule="evenodd" d="M47.7275 406.705V379.433C47.7275 369.077 39.3329 360.683 28.9775 360.683C18.6221 360.683 10.2275 369.077 10.2275 379.433V406.705C10.2275 417.061 18.6221 425.455 28.9775 425.455C39.3329 425.455 47.7275 417.061 47.7275 406.705ZM28.9775 357.273C16.7393 357.273 6.81836 367.194 6.81836 379.433V406.705C6.81836 418.943 16.7393 428.864 28.9775 428.864C41.2156 428.864 51.1366 418.943 51.1366 406.705V379.433C51.1366 367.194 41.2156 357.273 28.9775 357.273Z" fill="#8D8480"/>
<rect x="47.7274" y="381.819" width="6.81819" height="6.81819" fill="#8D8480"/>
<rect x="47.7274" y="388.637" width="6.81819" height="6.81819" fill="#8D8480"/>
<rect x="47.7274" y="395.455" width="6.81819" height="6.81819" fill="#8D8480"/>
<rect x="47.7274" y="402.273" width="6.81819" height="6.81819" fill="#8D8480"/>
<rect x="47.7274" y="375" width="6.81819" height="6.81819" fill="#8D8480"/>
<rect x="34.0911" y="361.364" width="6.81819" height="6.81819" fill="#8D8480"/>
<rect x="40.9093" y="368.182" width="6.81819" height="6.81819" fill="#8D8480"/>
<rect x="40.9093" y="375" width="6.81819" height="6.81819" fill="#8D8480"/>
<rect x="27.2729" y="354.546" width="6.81819" height="6.81819" fill="#8D8480"/>
<rect x="13.6365" y="361.364" width="6.81819" height="6.81819" fill="#8D8480"/>
<rect x="6.81827" y="368.182" width="6.81819" height="6.81819" fill="#8D8480"/>
<rect x="6.81827" y="375" width="6.81819" height="6.81819" fill="#8D8480"/>
<rect x="20.4547" y="361.364" width="6.81819" height="6.81819" fill="#8D8480"/>
<rect x="6.81827" y="381.819" width="6.81819" height="6.81819" fill="#8D8480"/>
<rect x="6.81827" y="388.637" width="6.81819" height="6.81819" fill="#8D8480"/>
<rect x="6.81827" y="395.455" width="6.81819" height="6.81819" fill="#8D8480"/>
<rect x="6.81827" y="402.273" width="6.81819" height="6.81819" fill="#8D8480"/>
<rect x="6.81827" y="409.092" width="6.81819" height="6.81819" fill="#8D8480"/>
<rect x="13.6365" y="415.91" width="6.81819" height="6.81819" fill="#8D8480"/>
<rect x="20.4547" y="422.728" width="6.81819" height="6.81819" fill="#8D8480"/>
<rect x="27.2729" y="422.728" width="6.81819" height="6.81819" fill="#8D8480"/>
<rect x="40.9093" y="409.092" width="6.81819" height="6.81819" fill="#8D8480"/>
<rect x="40.9093" y="415.91" width="6.81819" height="6.81819" fill="#8D8480"/>
<rect x="34.0911" y="422.728" width="6.81819" height="6.81819" fill="#8D8480"/>
<rect x="20.4547" y="354.546" width="6.81819" height="6.81819" fill="#8D8480"/>
<rect x="6.81827" y="361.364" width="6.81819" height="6.81819" fill="#8D8480"/>
<rect x="13.6365" y="354.546" width="6.81819" height="6.81819" fill="#8D8480"/>
<rect x="6.81827" y="415.91" width="6.81819" height="6.81819" fill="#8D8480"/>
<rect x="13.6365" y="422.728" width="6.81819" height="6.81819" fill="#8D8480"/>
<rect x="47.7274" y="409.092" width="6.81819" height="6.81819" fill="#8D8480"/>
<rect x="34.0911" y="354.546" width="6.81819" height="6.81819" fill="#8D8480"/>
<rect x="40.9093" y="361.364" width="6.81819" height="6.81819" fill="#8D8480"/>
<rect x="47.7274" y="368.182" width="6.81819" height="6.81819" fill="#8D8480"/>
<path fill-rule="evenodd" clip-rule="evenodd" d="M53.1819 406.705V379.433C53.1819 369.077 44.7872 360.683 34.4319 360.683C24.0765 360.683 15.6818 369.077 15.6818 379.433V406.705C15.6818 417.061 24.0765 425.455 34.4319 425.455C44.7872 425.455 53.1819 417.061 53.1819 406.705ZM34.4319 357.273C22.1937 357.273 12.2727 367.194 12.2727 379.433V406.705C12.2727 418.943 22.1937 428.864 34.4319 428.864C46.67 428.864 56.591 418.943 56.591 406.705V379.433C56.591 367.194 46.67 357.273 34.4319 357.273Z" fill="#666775"/>
<rect x="53.1818" y="381.819" width="6.81819" height="6.81819" fill="#666775"/>
<rect x="53.1818" y="388.637" width="6.81819" height="6.81819" fill="#666775"/>
<rect x="53.1818" y="395.455" width="6.81819" height="6.81819" fill="#666775"/>
<rect x="53.1818" y="402.273" width="6.81819" height="6.81819" fill="#666775"/>
<rect x="53.1818" y="375" width="6.81819" height="6.81819" fill="#666775"/>
<rect x="39.5454" y="361.364" width="6.81819" height="6.81819" fill="#666775"/>
<rect x="46.3636" y="368.182" width="6.81819" height="6.81819" fill="#666775"/>
<rect x="46.3636" y="375" width="6.81819" height="6.81819" fill="#666775"/>
<rect x="32.7272" y="354.546" width="6.81819" height="6.81819" fill="#666775"/>
<rect x="19.0908" y="361.364" width="6.81819" height="6.81819" fill="#666775"/>
<rect x="12.2726" y="368.182" width="6.81819" height="6.81819" fill="#666775"/>
<rect x="12.2726" y="375" width="6.81819" height="6.81819" fill="#666775"/>
<rect x="25.909" y="361.364" width="6.81819" height="6.81819" fill="#666775"/>
<rect x="12.2726" y="381.819" width="6.81819" height="6.81819" fill="#666775"/>
<rect x="12.2726" y="388.637" width="6.81819" height="6.81819" fill="#666775"/>
<rect x="12.2726" y="395.455" width="6.81819" height="6.81819" fill="#666775"/>
<rect x="12.2726" y="402.273" width="6.81819" height="6.81819" fill="#666775"/>
<rect x="12.2726" y="409.092" width="6.81819" height="6.81819" fill="#666775"/>
<rect x="19.0908" y="415.91" width="6.81819" height="6.81819" fill="#666775"/>
<rect x="25.909" y="422.728" width="6.81819" height="6.81819" fill="#666775"/>
<rect x="32.7272" y="422.728" width="6.81819" height="6.81819" fill="#666775"/>
<rect x="46.3636" y="409.092" width="6.81819" height="6.81819" fill="#666775"/>
<rect x="46.3636" y="415.91" width="6.81819" height="6.81819" fill="#666775"/>
<rect x="39.5454" y="422.728" width="6.81819" height="6.81819" fill="#666775"/>
<rect x="25.909" y="354.546" width="6.81819" height="6.81819" fill="#666775"/>
<rect x="12.2726" y="361.364" width="6.81819" height="6.81819" fill="#666775"/>
<rect x="19.0908" y="354.546" width="6.81819" height="6.81819" fill="#666775"/>
<rect x="12.2726" y="415.91" width="6.81819" height="6.81819" fill="#666775"/>
<rect x="19.0908" y="422.728" width="6.81819" height="6.81819" fill="#666775"/>
<rect x="53.1818" y="409.092" width="6.81819" height="6.81819" fill="#666775"/>
<rect x="39.5454" y="354.546" width="6.81819" height="6.81819" fill="#666775"/>
<rect x="46.3636" y="361.364" width="6.81819" height="6.81819" fill="#666775"/>
<rect x="53.1818" y="368.182" width="6.81819" height="6.81819" fill="#666775"/>
<path fill-rule="evenodd" clip-rule="evenodd" d="M40.9092 414.205V386.933C40.9092 376.577 32.5145 368.183 22.1591 368.183C11.8038 368.183 3.4091 376.577 3.4091 386.933V414.205C3.4091 424.561 11.8038 432.955 22.1591 432.955C32.5145 432.955 40.9092 424.561 40.9092 414.205ZM22.1591 364.773C9.92098 364.773 0 374.694 0 386.933V414.205C0 426.443 9.92098 436.364 22.1591 436.364C34.3973 436.364 44.3183 426.443 44.3183 414.205V386.933C44.3183 374.694 34.3973 364.773 22.1591 364.773Z" fill="#CABC77"/>
<rect x="40.9092" y="389.319" width="6.81819" height="6.81819" fill="#CABC77"/>
<rect x="40.9092" y="396.137" width="6.81819" height="6.81819" fill="#CABC77"/>
<rect x="40.9092" y="402.955" width="6.81819" height="6.81819" fill="#CABC77"/>
<rect x="40.9092" y="409.773" width="6.81819" height="6.81819" fill="#CABC77"/>
<rect x="40.9092" y="382.5" width="6.81819" height="6.81819" fill="#CABC77"/>
<rect x="27.2728" y="368.864" width="6.81819" height="6.81819" fill="#CABC77"/>
<rect x="34.091" y="375.682" width="6.81819" height="6.81819" fill="#CABC77"/>
<rect x="34.091" y="382.5" width="6.81819" height="6.81819" fill="#CABC77"/>
<rect x="20.4546" y="362.046" width="6.81819" height="6.81819" fill="#CABC77"/>
<rect x="6.81818" y="368.864" width="6.81819" height="6.81819" fill="#CABC77"/>
<rect y="375.682" width="6.81819" height="6.81819" fill="#CABC77"/>
<rect y="382.5" width="6.81819" height="6.81819" fill="#CABC77"/>
<rect x="13.6364" y="368.864" width="6.81819" height="6.81819" fill="#CABC77"/>
<rect y="389.319" width="6.81819" height="6.81819" fill="#CABC77"/>
<rect y="396.137" width="6.81819" height="6.81819" fill="#CABC77"/>
<rect y="402.955" width="6.81819" height="6.81819" fill="#CABC77"/>
<rect y="409.773" width="6.81819" height="6.81819" fill="#CABC77"/>
<rect y="416.592" width="6.81819" height="6.81819" fill="#CABC77"/>
<rect x="6.81818" y="423.41" width="6.81819" height="6.81819" fill="#CABC77"/>
<rect x="13.6364" y="430.228" width="6.81819" height="6.81819" fill="#CABC77"/>
<rect x="20.4546" y="430.228" width="6.81819" height="6.81819" fill="#CABC77"/>
<rect x="34.091" y="416.592" width="6.81819" height="6.81819" fill="#CABC77"/>
<rect x="34.091" y="423.41" width="6.81819" height="6.81819" fill="#CABC77"/>
<rect x="27.2728" y="430.228" width="6.81819" height="6.81819" fill="#CABC77"/>
<rect x="13.6364" y="362.046" width="6.81819" height="6.81819" fill="#CABC77"/>
<rect y="368.864" width="6.81819" height="6.81819" fill="#CABC77"/>
<rect x="6.81818" y="362.046" width="6.81819" height="6.81819" fill="#CABC77"/>
<rect y="423.41" width="6.81819" height="6.81819" fill="#CABC77"/>
<rect x="6.81818" y="430.228" width="6.81819" height="6.81819" fill="#CABC77"/>
<rect x="40.9092" y="416.592" width="6.81819" height="6.81819" fill="#CABC77"/>
<rect x="27.2728" y="362.046" width="6.81819" height="6.81819" fill="#CABC77"/>
<rect x="34.091" y="368.864" width="6.81819" height="6.81819" fill="#CABC77"/>
<rect x="40.9092" y="375.682" width="6.81819" height="6.81819" fill="#CABC77"/>
<path fill-rule="evenodd" clip-rule="evenodd" d="M47.7275 513.751V486.478C47.7275 476.123 39.3329 467.728 28.9775 467.728C18.6221 467.728 10.2275 476.123 10.2275 486.478V513.751C10.2275 524.106 18.6221 532.501 28.9775 532.501C39.3329 532.501 47.7275 524.106 47.7275 513.751ZM28.9775 464.319C16.7393 464.319 6.81836 474.24 6.81836 486.478V513.751C6.81836 525.989 16.7393 535.91 28.9775 535.91C41.2156 535.91 51.1366 525.989 51.1366 513.751V486.478C51.1366 474.24 41.2156 464.319 28.9775 464.319Z" fill="#8D8480"/>
<rect x="40.9093" y="484.092" width="6.81819" height="6.81819" fill="#8D8480"/>
<rect x="47.7274" y="490.91" width="6.81819" height="6.81819" fill="#8D8480"/>
<rect x="47.7274" y="497.728" width="6.81819" height="6.81819" fill="#8D8480"/>
<rect x="47.7274" y="504.547" width="6.81819" height="6.81819" fill="#8D8480"/>
<rect x="47.7274" y="484.092" width="6.81819" height="6.81819" fill="#8D8480"/>
<rect x="47.7274" y="511.365" width="6.81819" height="6.81819" fill="#8D8480"/>
<rect x="40.9093" y="470.456" width="6.81819" height="6.81819" fill="#8D8480"/>
<rect x="40.9093" y="477.274" width="6.81819" height="6.81819" fill="#8D8480"/>
<rect x="27.2729" y="463.637" width="6.81819" height="6.81819" fill="#8D8480"/>
<rect x="34.0911" y="463.637" width="6.81819" height="6.81819" fill="#8D8480"/>
<rect x="13.6365" y="470.456" width="6.81819" height="6.81819" fill="#8D8480"/>
<rect x="6.81827" y="477.274" width="6.81819" height="6.81819" fill="#8D8480"/>
<rect x="6.81827" y="484.092" width="6.81819" height="6.81819" fill="#8D8480"/>
<rect x="20.4547" y="463.637" width="6.81819" height="6.81819" fill="#8D8480"/>
<rect x="6.81827" y="490.91" width="6.81819" height="6.81819" fill="#8D8480"/>
<rect x="6.81827" y="497.728" width="6.81819" height="6.81819" fill="#8D8480"/>
<rect x="6.81827" y="504.547" width="6.81819" height="6.81819" fill="#8D8480"/>
<rect x="6.81827" y="511.365" width="6.81819" height="6.81819" fill="#8D8480"/>
<rect x="6.81827" y="518.183" width="6.81819" height="6.81819" fill="#8D8480"/>
<rect x="13.6365" y="525.001" width="6.81819" height="6.81819" fill="#8D8480"/>
<rect x="20.4547" y="525.001" width="6.81819" height="6.81819" fill="#8D8480"/>
<rect x="27.2729" y="531.819" width="6.81819" height="6.81819" fill="#8D8480"/>
<rect x="40.9093" y="511.365" width="6.81819" height="6.81819" fill="#8D8480"/>
<rect x="40.9093" y="518.183" width="6.81819" height="6.81819" fill="#8D8480"/>
<rect x="34.0911" y="525.001" width="6.81819" height="6.81819" fill="#8D8480"/>
<rect x="13.6365" y="463.637" width="6.81819" height="6.81819" fill="#8D8480"/>
<rect x="6.81827" y="470.456" width="6.81819" height="6.81819" fill="#8D8480"/>
<rect x="6.81827" y="525.001" width="6.81819" height="6.81819" fill="#8D8480"/>
<rect x="20.4547" y="531.819" width="6.81819" height="6.81819" fill="#8D8480"/>
<rect x="13.6365" y="531.819" width="6.81819" height="6.81819" fill="#8D8480"/>
<rect x="47.7274" y="518.183" width="6.81819" height="6.81819" fill="#8D8480"/>
<rect x="40.9093" y="525.001" width="6.81819" height="6.81819" fill="#8D8480"/>
<rect x="34.0911" y="531.819" width="6.81819" height="6.81819" fill="#8D8480"/>
<rect x="47.7274" y="477.274" width="6.81819" height="6.81819" fill="#8D8480"/>
<path fill-rule="evenodd" clip-rule="evenodd" d="M53.1819 513.751V486.478C53.1819 476.123 44.7872 467.728 34.4319 467.728C24.0765 467.728 15.6818 476.123 15.6818 486.478V513.751C15.6818 524.106 24.0765 532.501 34.4319 532.501C44.7872 532.501 53.1819 524.106 53.1819 513.751ZM34.4319 464.319C22.1937 464.319 12.2727 474.24 12.2727 486.478V513.751C12.2727 525.989 22.1937 535.91 34.4319 535.91C46.67 535.91 56.591 525.989 56.591 513.751V486.478C56.591 474.24 46.67 464.319 34.4319 464.319Z" fill="#666775"/>
<rect x="46.3636" y="484.092" width="6.81819" height="6.81819" fill="#666775"/>
<rect x="53.1818" y="490.91" width="6.81819" height="6.81819" fill="#666775"/>
<rect x="53.1818" y="497.728" width="6.81819" height="6.81819" fill="#666775"/>
<rect x="53.1818" y="504.547" width="6.81819" height="6.81819" fill="#666775"/>
<rect x="53.1818" y="484.092" width="6.81819" height="6.81819" fill="#666775"/>
<rect x="53.1818" y="511.365" width="6.81819" height="6.81819" fill="#666775"/>
<rect x="46.3636" y="470.456" width="6.81819" height="6.81819" fill="#666775"/>
<rect x="46.3636" y="477.274" width="6.81819" height="6.81819" fill="#666775"/>
<rect x="32.7272" y="463.637" width="6.81819" height="6.81819" fill="#666775"/>
<rect x="39.5454" y="463.637" width="6.81819" height="6.81819" fill="#666775"/>
<rect x="19.0908" y="470.456" width="6.81819" height="6.81819" fill="#666775"/>
<rect x="12.2726" y="477.274" width="6.81819" height="6.81819" fill="#666775"/>
<rect x="12.2726" y="484.092" width="6.81819" height="6.81819" fill="#666775"/>
<rect x="25.909" y="463.637" width="6.81819" height="6.81819" fill="#666775"/>
<rect x="12.2726" y="490.91" width="6.81819" height="6.81819" fill="#666775"/>
<rect x="12.2726" y="497.728" width="6.81819" height="6.81819" fill="#666775"/>
<rect x="12.2726" y="504.547" width="6.81819" height="6.81819" fill="#666775"/>
<rect x="12.2726" y="511.365" width="6.81819" height="6.81819" fill="#666775"/>
<rect x="12.2726" y="518.183" width="6.81819" height="6.81819" fill="#666775"/>
<rect x="19.0908" y="525.001" width="6.81819" height="6.81819" fill="#666775"/>
<rect x="25.909" y="525.001" width="6.81819" height="6.81819" fill="#666775"/>
<rect x="32.7272" y="531.819" width="6.81819" height="6.81819" fill="#666775"/>
<rect x="46.3636" y="511.365" width="6.81819" height="6.81819" fill="#666775"/>
<rect x="46.3636" y="518.183" width="6.81819" height="6.81819" fill="#666775"/>
<rect x="39.5454" y="525.001" width="6.81819" height="6.81819" fill="#666775"/>
<rect x="19.0908" y="463.637" width="6.81819" height="6.81819" fill="#666775"/>
<rect x="12.2726" y="470.456" width="6.81819" height="6.81819" fill="#666775"/>
<rect x="12.2726" y="525.001" width="6.81819" height="6.81819" fill="#666775"/>
<rect x="25.909" y="531.819" width="6.81819" height="6.81819" fill="#666775"/>
<rect x="19.0908" y="531.819" width="6.81819" height="6.81819" fill="#666775"/>
<rect x="53.1818" y="518.183" width="6.81819" height="6.81819" fill="#666775"/>
<rect x="46.3636" y="525.001" width="6.81819" height="6.81819" fill="#666775"/>
<rect x="39.5454" y="531.819" width="6.81819" height="6.81819" fill="#666775"/>
<rect x="53.1818" y="477.274" width="6.81819" height="6.81819" fill="#666775"/>
<path fill-rule="evenodd" clip-rule="evenodd" d="M40.9092 521.251V493.978C40.9092 483.623 32.5145 475.228 22.1591 475.228C11.8038 475.228 3.4091 483.623 3.4091 493.978V521.251C3.4091 531.606 11.8038 540.001 22.1591 540.001C32.5145 540.001 40.9092 531.606 40.9092 521.251ZM22.1591 471.819C9.92098 471.819 0 481.74 0 493.978V521.251C0 533.489 9.92098 543.41 22.1591 543.41C34.3973 543.41 44.3183 533.489 44.3183 521.251V493.978C44.3183 481.74 34.3973 471.819 22.1591 471.819Z" fill="#CABC77"/>
<rect x="34.091" y="491.592" width="6.81819" height="6.81819" fill="#CABC77"/>
<rect x="40.9092" y="498.41" width="6.81819" height="6.81819" fill="#CABC77"/>
<rect x="40.9092" y="505.228" width="6.81819" height="6.81819" fill="#CABC77"/>
<rect x="40.9092" y="512.047" width="6.81819" height="6.81819" fill="#CABC77"/>
<rect x="40.9092" y="491.592" width="6.81819" height="6.81819" fill="#CABC77"/>
<rect x="40.9092" y="518.865" width="6.81819" height="6.81819" fill="#CABC77"/>
<rect x="34.091" y="477.956" width="6.81819" height="6.81819" fill="#CABC77"/>
<rect x="34.091" y="484.774" width="6.81819" height="6.81819" fill="#CABC77"/>
<rect x="20.4546" y="471.137" width="6.81819" height="6.81819" fill="#CABC77"/>
<rect x="27.2728" y="471.137" width="6.81819" height="6.81819" fill="#CABC77"/>
<rect x="6.81818" y="477.956" width="6.81819" height="6.81819" fill="#CABC77"/>
<rect y="484.774" width="6.81819" height="6.81819" fill="#CABC77"/>
<rect y="491.592" width="6.81819" height="6.81819" fill="#CABC77"/>
<rect x="13.6364" y="471.137" width="6.81819" height="6.81819" fill="#CABC77"/>
<rect y="498.41" width="6.81819" height="6.81819" fill="#CABC77"/>
<rect y="505.228" width="6.81819" height="6.81819" fill="#CABC77"/>
<rect y="512.047" width="6.81819" height="6.81819" fill="#CABC77"/>
<rect y="518.865" width="6.81819" height="6.81819" fill="#CABC77"/>
<rect y="525.683" width="6.81819" height="6.81819" fill="#CABC77"/>
<rect x="6.81818" y="532.501" width="6.81819" height="6.81819" fill="#CABC77"/>
<rect x="13.6364" y="532.501" width="6.81819" height="6.81819" fill="#CABC77"/>
<rect x="20.4546" y="539.319" width="6.81819" height="6.81819" fill="#CABC77"/>
<rect x="34.091" y="518.865" width="6.81819" height="6.81819" fill="#CABC77"/>
<rect x="34.091" y="525.683" width="6.81819" height="6.81819" fill="#CABC77"/>
<rect x="27.2728" y="532.501" width="6.81819" height="6.81819" fill="#CABC77"/>
<rect x="6.81818" y="471.137" width="6.81819" height="6.81819" fill="#CABC77"/>
<rect y="477.956" width="6.81819" height="6.81819" fill="#CABC77"/>
<rect y="532.501" width="6.81819" height="6.81819" fill="#CABC77"/>
<rect x="13.6364" y="539.319" width="6.81819" height="6.81819" fill="#CABC77"/>
<rect x="6.81818" y="539.319" width="6.81819" height="6.81819" fill="#CABC77"/>
<rect x="40.9092" y="525.683" width="6.81819" height="6.81819" fill="#CABC77"/>
<rect x="34.091" y="532.501" width="6.81819" height="6.81819" fill="#CABC77"/>
<rect x="27.2728" y="539.319" width="6.81819" height="6.81819" fill="#CABC77"/>
<rect x="40.9092" y="484.774" width="6.81819" height="6.81819" fill="#CABC77"/>
<path fill-rule="evenodd" clip-rule="evenodd" d="M27.9545 37.5001V4.43188H31.3636V37.5001H27.9545ZM27.9545 150V106.023H31.3636V150H27.9545ZM27.9545 255.341V213.41H31.3636V255.341H27.9545ZM27.9545 365.455V321.137H31.3636V365.455H27.9545ZM27.9545 473.524V426.819H31.3636V473.524H27.9545ZM27.9545 577.842V527.728H31.3636V577.842H27.9545Z" fill="#8D8480"/>
<rect x="27.2726" y="6.81812" width="6.81819" height="6.81819" fill="#8D8480"/>
<rect x="27.2726" y="13.6365" width="6.81819" height="6.81819" fill="#8D8480"/>
<rect x="27.2726" y="20.4546" width="6.81819" height="6.81819" fill="#8D8480"/>
<rect x="27.2726" y="27.2729" width="6.81819" height="6.81819" fill="#8D8480"/>
<rect x="27.2726" y="34.0908" width="6.81819" height="6.81819" fill="#8D8480"/>
<rect x="27.2727" width="6.81819" height="6.81819" fill="#8D8480"/>
<rect x="27.2726" y="109.091" width="6.81819" height="6.81819" fill="#8D8480"/>
<rect x="27.2726" y="115.909" width="6.81819" height="6.81819" fill="#8D8480"/>
<rect x="27.2726" y="122.728" width="6.81819" height="6.81819" fill="#8D8480"/>
<rect x="27.2726" y="129.546" width="6.81819" height="6.81819" fill="#8D8480"/>
<rect x="27.2726" y="136.364" width="6.81819" height="6.81819" fill="#8D8480"/>
<rect x="27.2726" y="143.182" width="6.81819" height="6.81819" fill="#8D8480"/>
<rect x="27.2726" y="102.273" width="6.81819" height="6.81819" fill="#8D8480"/>
<rect x="27.2726" y="150" width="6.81819" height="6.81819" fill="#8D8480"/>
<rect x="27.2726" y="211.364" width="6.81819" height="6.81819" fill="#8D8480"/>
<rect x="27.2726" y="218.182" width="6.81819" height="6.81819" fill="#8D8480"/>
<rect x="27.2726" y="225" width="6.81819" height="6.81819" fill="#8D8480"/>
<rect x="27.2726" y="231.818" width="6.81819" height="6.81819" fill="#8D8480"/>
<rect x="27.2726" y="238.637" width="6.81819" height="6.81819" fill="#8D8480"/>
<rect x="27.2726" y="245.455" width="6.81819" height="6.81819" fill="#8D8480"/>
<rect x="27.2726" y="252.273" width="6.81819" height="6.81819" fill="#8D8480"/>
<rect x="27.2726" y="320.455" width="6.81819" height="6.81819" fill="#8D8480"/>
<rect x="27.2726" y="327.273" width="6.81819" height="6.81819" fill="#8D8480"/>
<rect x="27.2726" y="334.092" width="6.81819" height="6.81819" fill="#8D8480"/>
<rect x="27.2726" y="340.91" width="6.81819" height="6.81819" fill="#8D8480"/>
<rect x="27.2726" y="347.728" width="6.81819" height="6.81819" fill="#8D8480"/>
<rect x="27.2726" y="354.546" width="6.81819" height="6.81819" fill="#8D8480"/>
<rect x="27.2726" y="361.364" width="6.81819" height="6.81819" fill="#8D8480"/>
<rect x="27.2726" y="429.546" width="6.81819" height="6.81819" fill="#8D8480"/>
<rect x="27.2726" y="436.365" width="6.81819" height="6.81819" fill="#8D8480"/>
<rect x="27.2726" y="443.183" width="6.81819" height="6.81819" fill="#8D8480"/>
<rect x="27.2726" y="450.001" width="6.81819" height="6.81819" fill="#8D8480"/>
<rect x="27.2726" y="456.819" width="6.81819" height="6.81819" fill="#8D8480"/>
<rect x="27.2726" y="463.637" width="6.81819" height="6.81819" fill="#8D8480"/>
<rect x="27.2726" y="422.728" width="6.81819" height="6.81819" fill="#8D8480"/>
<rect x="27.2726" y="470.456" width="6.81819" height="6.81819" fill="#8D8480"/>
<rect x="27.2726" y="525.001" width="6.81819" height="6.81819" fill="#8D8480"/>
<rect x="27.2726" y="531.819" width="6.81819" height="6.81819" fill="#8D8480"/>
<rect x="27.2726" y="538.637" width="6.81819" height="6.81819" fill="#8D8480"/>
<rect x="27.2726" y="545.456" width="6.81819" height="6.81819" fill="#8D8480"/>
<rect x="27.2726" y="552.273" width="6.81819" height="6.81819" fill="#8D8480"/>
<rect x="27.2726" y="559.092" width="6.81819" height="6.81819" fill="#8D8480"/>
<rect x="27.2726" y="565.91" width="6.81819" height="6.81819" fill="#8D8480"/>
<rect x="27.2726" y="572.729" width="6.81819" height="6.81819" fill="#8D8480"/>
<path fill-rule="evenodd" clip-rule="evenodd" d="M19.8649 22.2972V2.63501H21.8919V22.2972H19.8649ZM19.8649 89.1892V63.0405H21.8919V89.1892H19.8649ZM19.8649 151.824V126.892H21.8919V151.824H19.8649ZM19.8649 217.298V190.946H21.8919V217.298H19.8649ZM19.8649 281.554V253.784H21.8919V281.554H19.8649ZM19.8649 343.582V313.784H21.8919V343.582H19.8649Z" fill="#666775"/>
<rect x="19.4595" y="4.0542" width="4.05406" height="4.05406" fill="#666775"/>
<rect x="19.4595" y="8.10815" width="4.05406" height="4.05406" fill="#666775"/>
<rect x="19.4595" y="12.1621" width="4.05406" height="4.05406" fill="#666775"/>
<rect x="19.4595" y="16.2163" width="4.05406" height="4.05406" fill="#666775"/>
<rect x="19.4595" y="20.2703" width="4.05406" height="4.05406" fill="#666775"/>
<rect x="19.4595" width="4.05406" height="4.05406" fill="#666775"/>
<rect x="19.4595" y="64.8652" width="4.05406" height="4.05406" fill="#666775"/>
<rect x="19.4595" y="68.9189" width="4.05406" height="4.05406" fill="#666775"/>
<rect x="19.4595" y="72.9731" width="4.05406" height="4.05406" fill="#666775"/>
<rect x="19.4595" y="77.0271" width="4.05406" height="4.05406" fill="#666775"/>
<rect x="19.4595" y="81.0813" width="4.05406" height="4.05406" fill="#666775"/>
<rect x="19.4595" y="85.1353" width="4.05406" height="4.05406" fill="#666775"/>
<rect x="19.4595" y="60.811" width="4.05406" height="4.05406" fill="#666775"/>
<rect x="19.4595" y="89.1895" width="4.05406" height="4.05406" fill="#666775"/>
<rect x="19.4595" y="125.676" width="4.05406" height="4.05406" fill="#666775"/>
<rect x="19.4595" y="129.73" width="4.05406" height="4.05406" fill="#666775"/>
<rect x="19.4595" y="133.784" width="4.05406" height="4.05406" fill="#666775"/>
<rect x="19.4595" y="137.838" width="4.05406" height="4.05406" fill="#666775"/>
<rect x="19.4595" y="141.892" width="4.05406" height="4.05406" fill="#666775"/>
<rect x="19.4595" y="145.946" width="4.05406" height="4.05406" fill="#666775"/>
<rect x="19.4595" y="150" width="4.05406" height="4.05406" fill="#666775"/>
<rect x="19.4595" y="190.541" width="4.05406" height="4.05406" fill="#666775"/>
<rect x="19.4595" y="194.595" width="4.05406" height="4.05406" fill="#666775"/>
<rect x="19.4595" y="198.649" width="4.05406" height="4.05406" fill="#666775"/>
<rect x="19.4595" y="202.703" width="4.05406" height="4.05406" fill="#666775"/>
<rect x="19.4595" y="206.757" width="4.05406" height="4.05406" fill="#666775"/>
<rect x="19.4595" y="210.811" width="4.05406" height="4.05406" fill="#666775"/>
<rect x="19.4595" y="214.865" width="4.05406" height="4.05406" fill="#666775"/>
<rect x="19.4595" y="255.406" width="4.05406" height="4.05406" fill="#666775"/>
<rect x="19.4595" y="259.46" width="4.05406" height="4.05406" fill="#666775"/>
<rect x="19.4595" y="263.514" width="4.05406" height="4.05406" fill="#666775"/>
<rect x="19.4595" y="267.568" width="4.05406" height="4.05406" fill="#666775"/>
<rect x="19.4595" y="271.622" width="4.05406" height="4.05406" fill="#666775"/>
<rect x="19.4595" y="275.676" width="4.05406" height="4.05406" fill="#666775"/>
<rect x="19.4595" y="251.352" width="4.05406" height="4.05406" fill="#666775"/>
<rect x="19.4595" y="279.73" width="4.05406" height="4.05406" fill="#666775"/>
<rect x="19.4595" y="312.163" width="4.05406" height="4.05406" fill="#666775"/>
<rect x="19.4595" y="316.217" width="4.05406" height="4.05406" fill="#666775"/>
<rect x="19.4595" y="320.271" width="4.05406" height="4.05406" fill="#666775"/>
<rect x="19.4595" y="324.325" width="4.05406" height="4.05406" fill="#666775"/>
<rect x="19.4595" y="328.379" width="4.05406" height="4.05406" fill="#666775"/>
<rect x="19.4595" y="332.433" width="4.05406" height="4.05406" fill="#666775"/>
<rect x="19.4595" y="336.487" width="4.05406" height="4.05406" fill="#666775"/>
<rect x="19.4595" y="340.541" width="4.05406" height="4.05406" fill="#666775"/>
<path fill-rule="evenodd" clip-rule="evenodd" d="M21.1364 45.0001V11.9319H24.5455V45.0001H21.1364ZM21.1364 157.5V113.523H24.5455V157.5H21.1364ZM21.1364 262.841V220.91H24.5455V262.841H21.1364ZM21.1364 372.955V328.637H24.5455V372.955H21.1364ZM21.1364 481.024V434.319H24.5455V481.024H21.1364ZM21.1364 585.342V535.228H24.5455V585.342H21.1364Z" fill="#CABC77"/>
<rect x="20.4546" y="14.3181" width="6.81819" height="6.81819" fill="#CABC77"/>
<rect x="20.4546" y="21.1365" width="6.81819" height="6.81819" fill="#CABC77"/>
<rect x="20.4546" y="27.9546" width="6.81819" height="6.81819" fill="#CABC77"/>
<rect x="20.4546" y="34.7729" width="6.81819" height="6.81819" fill="#CABC77"/>
<rect x="20.4546" y="41.5908" width="6.81819" height="6.81819" fill="#CABC77"/>
<rect x="20.4546" y="7.5" width="6.81819" height="6.81819" fill="#CABC77"/>
<rect x="20.4546" y="116.591" width="6.81819" height="6.81819" fill="#CABC77"/>
<rect x="20.4546" y="123.409" width="6.81819" height="6.81819" fill="#CABC77"/>
<rect x="20.4546" y="130.228" width="6.81819" height="6.81819" fill="#CABC77"/>
<rect x="20.4546" y="137.046" width="6.81819" height="6.81819" fill="#CABC77"/>
<rect x="20.4546" y="143.864" width="6.81819" height="6.81819" fill="#CABC77"/>
<rect x="20.4546" y="150.682" width="6.81819" height="6.81819" fill="#CABC77"/>
<rect x="20.4546" y="109.773" width="6.81819" height="6.81819" fill="#CABC77"/>
<rect x="20.4546" y="157.5" width="6.81819" height="6.81819" fill="#CABC77"/>
<rect x="20.4546" y="218.864" width="6.81819" height="6.81819" fill="#CABC77"/>
<rect x="20.4546" y="225.682" width="6.81819" height="6.81819" fill="#CABC77"/>
<rect x="20.4546" y="232.5" width="6.81819" height="6.81819" fill="#CABC77"/>
<rect x="20.4546" y="239.318" width="6.81819" height="6.81819" fill="#CABC77"/>
<rect x="20.4546" y="246.137" width="6.81819" height="6.81819" fill="#CABC77"/>
<rect x="20.4546" y="252.955" width="6.81819" height="6.81819" fill="#CABC77"/>
<rect x="20.4546" y="259.773" width="6.81819" height="6.81819" fill="#CABC77"/>
<rect x="20.4546" y="327.955" width="6.81819" height="6.81819" fill="#CABC77"/>
<rect x="20.4546" y="334.773" width="6.81819" height="6.81819" fill="#CABC77"/>
<rect x="20.4546" y="341.592" width="6.81819" height="6.81819" fill="#CABC77"/>
<rect x="20.4546" y="348.41" width="6.81819" height="6.81819" fill="#CABC77"/>
<rect x="20.4546" y="355.228" width="6.81819" height="6.81819" fill="#CABC77"/>
<rect x="20.4546" y="362.046" width="6.81819" height="6.81819" fill="#CABC77"/>
<rect x="20.4546" y="368.864" width="6.81819" height="6.81819" fill="#CABC77"/>
<rect x="20.4546" y="437.046" width="6.81819" height="6.81819" fill="#CABC77"/>
<rect x="20.4546" y="443.865" width="6.81819" height="6.81819" fill="#CABC77"/>
<rect x="20.4546" y="450.683" width="6.81819" height="6.81819" fill="#CABC77"/>
<rect x="20.4546" y="457.501" width="6.81819" height="6.81819" fill="#CABC77"/>
<rect x="20.4546" y="464.319" width="6.81819" height="6.81819" fill="#CABC77"/>
<rect x="20.4546" y="471.137" width="6.81819" height="6.81819" fill="#CABC77"/>
<rect x="20.4546" y="430.228" width="6.81819" height="6.81819" fill="#CABC77"/>
<rect x="20.4546" y="477.956" width="6.81819" height="6.81819" fill="#CABC77"/>
<rect x="20.4546" y="532.501" width="6.81819" height="6.81819" fill="#CABC77"/>
<rect x="20.4546" y="539.319" width="6.81819" height="6.81819" fill="#CABC77"/>
<rect x="20.4546" y="546.137" width="6.81819" height="6.81819" fill="#CABC77"/>
<rect x="20.4546" y="552.956" width="6.81819" height="6.81819" fill="#CABC77"/>
<rect x="20.4546" y="559.773" width="6.81819" height="6.81819" fill="#CABC77"/>
<rect x="20.4546" y="566.592" width="6.81819" height="6.81819" fill="#CABC77"/>
<rect x="20.4546" y="573.41" width="6.81819" height="6.81819" fill="#CABC77"/>
<rect x="20.4546" y="580.229" width="6.81819" height="6.81819" fill="#CABC77"/>
</svg>
