<svg width="109" height="102" viewBox="0 0 109 102" fill="none" xmlns="http://www.w3.org/2000/svg">
<rect x="95.6132" width="5.31184" height="5.35535" fill="#612604"/>
<rect x="69.054" width="5.31184" height="5.35535" fill="#612604"/>
<rect x="100.925" y="5.35547" width="5.31184" height="5.35535" fill="#612604"/>
<rect x="58.4303" y="5.35547" width="5.31184" height="5.35535" fill="#612604"/>
<rect x="103.581" y="10.7617" width="5.31184" height="5.35535" fill="#612604"/>
<rect x="53.1184" y="10.7109" width="5.31184" height="5.35535" fill="#612604"/>
<rect x="103.581" y="16.0449" width="5.31184" height="5.35535" fill="#612604"/>
<rect x="53.1184" y="16.0654" width="5.31184" height="5.35535" fill="#612604"/>
<rect x="103.581" y="21.3291" width="5.31184" height="5.35535" fill="#612604"/>
<rect x="103.581" y="26.8076" width="5.31184" height="5.35535" fill="#612604"/>
<rect x="103.581" y="32.0908" width="5.31184" height="5.35535" fill="#612604"/>
<rect x="100.925" y="37.4873" width="5.31184" height="5.35535" fill="#612604"/>
<rect x="100.925" y="42.8428" width="5.31184" height="5.35535" fill="#612604"/>
<rect x="95.6132" y="43.0488" width="5.31184" height="10.5665" fill="#612604"/>
<rect x="90.3013" y="53.5537" width="5.31184" height="5.35535" fill="#612604"/>
<rect x="90.3013" y="58.9092" width="5.31184" height="5.35535" fill="#612604"/>
<rect x="84.9894" y="64.2637" width="5.31184" height="5.35535" fill="#612604"/>
<rect x="79.6776" y="69.6191" width="5.31184" height="5.35535" fill="#612604"/>
<rect x="74.3657" y="74.9746" width="5.31184" height="5.35535" fill="#612604"/>
<rect x="69.054" y="80.3301" width="5.31184" height="5.35535" fill="#612604"/>
<rect x="63.7421" y="85.6855" width="5.31184" height="5.35535" fill="#612604"/>
<rect x="58.4303" y="91.041" width="5.31184" height="5.35535" fill="#612604"/>
<rect x="53.1184" y="96.3965" width="5.31184" height="5.35535" fill="#612604"/>
<rect x="63.7421" width="5.31184" height="5.35535" fill="#612604"/>
<rect x="74.3657" width="5.31184" height="5.35535" fill="#612604"/>
<rect x="79.6776" width="5.31184" height="5.35535" fill="#612604"/>
<rect x="84.9894" width="5.31184" height="5.35535" fill="#612604"/>
<rect x="90.3013" width="5.31184" height="5.35535" fill="#612604"/>
<rect x="47.8065" y="16.0654" width="5.31184" height="5.35535" fill="#612604"/>
<rect x="47.8065" y="96.3965" width="5.31184" height="5.35535" fill="#612604"/>
<rect x="10.6237" width="5.31184" height="5.35535" fill="#612604"/>
<rect x="31.8711" width="5.31184" height="5.35535" fill="#612604"/>
<rect x="5.31189" y="5.35547" width="5.31184" height="5.35535" fill="#612604"/>
<rect x="42.4948" y="5.35547" width="5.31184" height="5.35535" fill="#612604"/>
<rect y="10.7109" width="5.31184" height="5.35535" fill="#612604"/>
<rect x="47.8065" y="10.7109" width="5.31184" height="5.35535" fill="#612604"/>
<rect y="16.0654" width="5.31184" height="5.35535" fill="#612604"/>
<rect y="21.4209" width="5.31184" height="5.35535" fill="#612604"/>
<rect y="26.7773" width="5.31184" height="5.35535" fill="#612604"/>
<rect y="32.1318" width="5.31184" height="5.35535" fill="#612604"/>
<rect y="37.4873" width="5.31184" height="5.35535" fill="#612604"/>
<rect x="5.31189" y="42.8428" width="5.31184" height="5.35535" fill="#612604"/>
<rect x="5.31189" y="48.1982" width="5.31184" height="5.35535" fill="#612604"/>
<rect x="10.6237" y="53.5537" width="5.31184" height="5.35535" fill="#612604"/>
<rect x="15.9355" y="58.9092" width="5.31184" height="5.35535" fill="#612604"/>
<rect x="15.9355" y="64.2637" width="5.31184" height="5.35535" fill="#612604"/>
<rect x="21.2473" y="69.6191" width="5.31184" height="5.35535" fill="#612604"/>
<rect x="26.5592" y="74.9746" width="5.31184" height="5.35535" fill="#612604"/>
<rect x="31.8711" y="80.3301" width="5.31184" height="5.35535" fill="#612604"/>
<rect x="37.1829" y="85.6855" width="5.31184" height="5.35535" fill="#612604"/>
<rect x="42.4948" y="91.041" width="5.31184" height="5.35535" fill="#612604"/>
<rect x="15.9355" width="5.31184" height="5.35535" fill="#612604"/>
<rect x="21.2473" width="5.31184" height="5.35535" fill="#612604"/>
<rect x="26.5592" width="5.31184" height="5.35535" fill="#612604"/>
<rect x="37.1829" width="5.31184" height="5.35535" fill="#612604"/>
</svg>
