<svg width="109" height="102" viewBox="0 0 109 102" fill="none" xmlns="http://www.w3.org/2000/svg">
<path d="M53.1985 19.5586C66.7437 -21.3208 170.342 0.154346 53.1985 100.335C-58.7043 -0.559527 40.1231 -19.9041 53.1985 19.5586Z" fill="#E93323"/>
<rect x="94" y="2" width="7" height="5" fill="#612604"/>
<rect x="69.1613" width="5.31184" height="5.35535" fill="#612604"/>
<rect x="101.032" y="5.35547" width="5.31184" height="5.35535" fill="#612604"/>
<rect x="58.5375" y="5.35547" width="5.31184" height="5.35535" fill="#612604"/>
<rect x="103.688" y="10.7617" width="5.31184" height="5.35535" fill="#612604"/>
<rect x="53.2257" y="10.7109" width="5.31184" height="5.35535" fill="#612604"/>
<rect x="103.688" y="16.0449" width="5.31184" height="5.35535" fill="#612604"/>
<rect x="53.2257" y="16.0654" width="5.31184" height="5.35535" fill="#612604"/>
<rect x="103.688" y="21.3291" width="5.31184" height="5.35535" fill="#612604"/>
<rect x="103.688" y="26.8076" width="5.31184" height="5.35535" fill="#612604"/>
<rect x="103.688" y="32.0908" width="5.31184" height="5.35535" fill="#612604"/>
<rect x="101.032" y="37.4873" width="5.31184" height="5.35535" fill="#612604"/>
<rect x="101.032" y="42.8428" width="5.31184" height="5.35535" fill="#612604"/>
<rect x="95.7205" y="43.0488" width="5.31184" height="10.5665" fill="#612604"/>
<rect x="90.4086" y="53.5537" width="5.31184" height="5.35535" fill="#612604"/>
<rect x="90.4086" y="58.9092" width="5.31184" height="5.35535" fill="#612604"/>
<rect x="85" y="59" width="5" height="11" fill="#612604"/>
<rect x="79.7849" y="69.6191" width="5.31184" height="5.35535" fill="#612604"/>
<rect x="74.473" y="74.9746" width="5.31184" height="5.35535" fill="#612604"/>
<rect x="69.1613" y="80.3301" width="5.31184" height="5.35535" fill="#612604"/>
<rect x="63.8494" y="85.6855" width="5.31184" height="5.35535" fill="#612604"/>
<rect x="58.5375" y="91.041" width="5.31184" height="5.35535" fill="#612604"/>
<rect x="53.2257" y="96.3965" width="5.31184" height="5.35535" fill="#612604"/>
<rect x="63.8494" width="5.31184" height="5.35535" fill="#612604"/>
<rect x="74.473" width="5.31184" height="5.35535" fill="#612604"/>
<rect x="79.7849" width="5.31184" height="5.35535" fill="#612604"/>
<rect x="85.0967" width="5.31184" height="5.35535" fill="#612604"/>
<rect x="90.4086" width="5.31184" height="5.35535" fill="#612604"/>
<rect x="47.9138" y="16.0654" width="5.31184" height="5.35535" fill="#612604"/>
<rect x="47.9138" y="96.3965" width="5.31184" height="5.35535" fill="#612604"/>
<rect x="10.731" width="5.31184" height="5.35535" fill="#612604"/>
<rect x="31.9784" width="5.31184" height="5.35535" fill="#612604"/>
<rect x="5.41919" y="5.35547" width="5.31184" height="5.35535" fill="#612604"/>
<rect x="42.6021" y="5.35547" width="5.31184" height="5.35535" fill="#612604"/>
<rect x="0.1073" y="10.7109" width="5.31184" height="5.35535" fill="#612604"/>
<rect x="47.9138" y="10.7109" width="5.31184" height="5.35535" fill="#612604"/>
<rect x="0.1073" y="16.0654" width="5.31184" height="5.35535" fill="#612604"/>
<rect x="0.1073" y="21.4209" width="5.31184" height="5.35535" fill="#612604"/>
<rect x="0.1073" y="26.7773" width="5.31184" height="5.35535" fill="#612604"/>
<rect x="0.1073" y="32.1318" width="5.31184" height="5.35535" fill="#612604"/>
<rect x="0.1073" y="37.4873" width="5.31184" height="5.35535" fill="#612604"/>
<rect x="5.41919" y="42.8428" width="5.31184" height="5.35535" fill="#612604"/>
<rect x="5.41919" y="48.1982" width="5.31184" height="5.35535" fill="#612604"/>
<rect x="11" y="51" width="5" height="8" fill="#612604"/>
<rect x="16.0428" y="58.9092" width="5.31184" height="5.35535" fill="#612604"/>
<rect x="16.0428" y="64.2637" width="5.31184" height="5.35535" fill="#612604"/>
<rect x="21" y="67" width="8" height="8" fill="#612604"/>
<rect x="26.6665" y="74.9746" width="5.31184" height="5.35535" fill="#612604"/>
<rect x="32" y="79" width="5" height="7" fill="#612604"/>
<rect x="37.2902" y="85.6855" width="5.31184" height="5.35535" fill="#612604"/>
<rect x="42.6021" y="91.041" width="5.31184" height="5.35535" fill="#612604"/>
<rect x="16.0428" width="5.31184" height="5.35535" fill="#612604"/>
<rect x="21.3546" width="5.31184" height="5.35535" fill="#612604"/>
<rect x="26.6665" width="5.31184" height="5.35535" fill="#612604"/>
<rect x="37.2902" width="5.31184" height="5.35535" fill="#612604"/>
<rect x="86.6904" y="10.958" width="5.31184" height="5.87029" fill="white"/>
<rect x="81.3785" y="10.958" width="5.31184" height="5.87029" fill="white"/>
<rect x="92.0022" y="16.8281" width="5.31184" height="5.87029" fill="white"/>
<rect x="92.0022" y="22.6982" width="5.31184" height="5.87029" fill="white"/>
</svg>
