<svg width="304" height="94" viewBox="0 0 304 94" fill="none" xmlns="http://www.w3.org/2000/svg">
<path d="M67.2113 56.2668C80.9305 54.3434 94.0757 53.6111 107.709 54.8388C108.768 52.9329 110.193 48.163 112.589 46.9301C115.573 45.3947 121.026 45.5602 123.445 43.7446C124.06 43.2832 122.363 42.2792 123.811 42.042C123.851 42.0355 123.891 42.0292 123.932 42.0231C115.739 42.0367 103.316 42.0299 97.4019 41.9322C95.0611 41.8935 65.8627 41.8255 76.299 36.8794C94.6985 28.1591 114.615 20.7384 134.546 15.4599C135.246 15.2745 143.86 13.4216 138.449 13.318C159.156 13.318 176.726 8.57353 197.61 9.58328C200.892 9.74196 202.453 9.97448 203.043 10.2079C203.14 10.1834 203.24 10.1583 203.344 10.1325C216.134 6.95931 229.187 4.24589 242.378 2.88283C252.177 1.87024 267.652 -0.977193 277.326 2.11393C280.022 2.97539 264.071 9.22816 263.115 9.58328C253.38 13.1982 243.592 16.6703 233.717 19.9635C225.703 22.6363 242.636 18.5012 243.781 18.3158C256.533 16.2515 269.75 15.8951 282.688 15.5463L283.852 15.5148C284.216 15.505 301.566 14.6351 301.234 16.7231C301.148 17.267 299.461 17.3028 300.076 18.0412C300.15 18.13 266.464 31.512 264.701 32.211C249.259 38.3306 219.845 49.7309 195.235 59.1962C198.446 59.4325 201.668 59.57 204.896 59.6491C207.153 59.1704 209.402 58.7036 211.638 58.2439C225.63 55.3674 244.618 50.3913 259.15 53.5207C264.665 54.7081 253.163 59.2313 252.137 59.5621C246.48 61.3842 239.936 62.6377 233.9 62.6377C230.037 62.6377 235.286 59.8559 229.936 59.7817C221.625 59.6666 213.243 59.8536 204.896 59.6491C196.558 61.4177 188.115 63.3481 179.859 65.6781C174.845 68.0823 169.761 70.2777 169.493 70.3816C150.227 77.8678 130.445 84.9915 110.149 89.8789C106.005 90.8768 82.3313 96.4889 96.609 88.2312C104.287 83.7906 112.489 79.922 121.006 76.9722C127.175 74.8355 111.078 78.4 110.027 78.565C99.5239 80.2141 88.9072 81.1894 78.2507 81.4758C70.2989 81.6896 62.2054 81.7264 54.2812 81.3111C49.5483 81.063 1.92605 73.205 3.90247 70.4366C6.38246 66.9627 16.2683 65.9742 20.0041 65.1092C35.555 61.5083 51.344 58.4913 67.2113 56.2668Z" fill="#D3F879"/>
<path d="M138.449 13.318C159.156 13.318 176.726 8.57353 197.61 9.58328C211.297 10.245 195.047 12.1907 203.344 10.1325C216.134 6.95931 229.187 4.24589 242.378 2.88283C252.177 1.87024 267.652 -0.977193 277.326 2.11393C280.022 2.97539 264.071 9.22815 263.115 9.58328C253.38 13.1982 243.592 16.6703 233.717 19.9635C225.703 22.6363 242.636 18.5012 243.781 18.3158C256.915 16.1895 270.543 15.8753 283.852 15.5148C284.216 15.505 301.566 14.6351 301.234 16.7231C301.148 17.267 299.461 17.3028 300.076 18.0412C300.15 18.13 266.464 31.512 264.701 32.211C230.318 45.8373 126.655 85.6461 161.016 71.9744C176.985 65.6204 194.696 61.7272 211.638 58.2439C225.63 55.3674 244.618 50.3913 259.15 53.5207C264.665 54.7081 253.163 59.2313 252.136 59.5621C246.48 61.3842 239.936 62.6377 233.9 62.6377C230.037 62.6377 235.286 59.8559 229.936 59.7817C213.1 59.5485 195.97 60.555 179.435 57.0357C177.842 56.6967 176.485 54.3598 175.044 55.0585C171.931 56.5676 166.653 56.3772 163.272 56.8709C153.23 58.3374 143.246 58.7429 133.082 58.7932C132.688 58.7951 119.974 59.3632 123.018 57.6947C126.924 55.5537 147.186 48.7663 150.464 54.015C151.977 56.4364 140.388 61.8464 139.059 62.5278C134.618 64.8047 120.61 70.354 125.458 68.8988C134.491 66.1873 143.944 64.4514 153.27 62.7475C162.616 61.0399 180.146 55.9311 189.56 59.4522C192.366 60.5021 170.062 70.1608 169.493 70.3816C150.227 77.8678 130.445 84.9915 110.149 89.8789C106.005 90.8768 82.3313 96.4889 96.609 88.2312C104.287 83.7906 112.489 79.922 121.006 76.9722C127.175 74.8355 111.078 78.4 110.027 78.565C99.5239 80.2141 88.9072 81.1894 78.2507 81.4758C70.2989 81.6896 62.2054 81.7264 54.2812 81.3111C49.5483 81.063 1.92605 73.2051 3.90247 70.4366C6.38246 66.9627 16.2683 65.9742 20.0041 65.1092C35.555 61.5083 51.344 58.4913 67.2113 56.2668C80.9305 54.3434 94.0757 53.6111 107.709 54.8388C108.768 52.9329 110.193 48.163 112.589 46.9301C115.573 45.3947 121.026 45.5602 123.445 43.7446C124.06 43.2832 122.363 42.2792 123.811 42.042C125.669 41.7378 127.782 41.9871 129.666 41.9871C140.421 41.9871 108.155 42.1099 97.4019 41.9322C95.0611 41.8935 65.8627 41.8255 76.299 36.8794C94.6985 28.1591 114.615 20.7384 134.546 15.4599C135.246 15.2745 143.86 13.4216 138.449 13.318ZM138.449 13.318C136.139 13.318 138.205 13.3133 138.449 13.318Z" stroke="#97B943" stroke-width="1.15169" stroke-linecap="round"/>
<rect x="70.9386" y="52.2651" width="6.44897" height="5.80721" fill="#97B943"/>
<rect x="64.4897" y="52.2651" width="6.44897" height="5.80721" fill="#97B943"/>
<rect x="77.3877" y="52.2651" width="6.44897" height="5.80721" fill="#97B943"/>
<rect x="83.8367" y="52.2651" width="6.44897" height="5.80721" fill="#97B943"/>
<rect x="90.2857" y="52.2651" width="6.44897" height="5.80721" fill="#97B943"/>
<rect x="96.7346" y="52.2651" width="6.44897" height="5.80721" fill="#97B943"/>
<rect x="103.184" y="52.2651" width="6.44897" height="5.80721" fill="#97B943"/>
<rect x="38.6939" y="58.0723" width="6.44897" height="5.80721" fill="#97B943"/>
<rect x="19.3469" y="63.8795" width="6.44897" height="5.80721" fill="#97B943"/>
<rect x="25.7958" y="58.0723" width="6.44897" height="5.80721" fill="#97B943"/>
<rect x="32.2449" y="58.0723" width="6.44897" height="5.80721" fill="#97B943"/>
<rect x="45.1428" y="58.0723" width="6.44897" height="5.80721" fill="#97B943"/>
<rect x="51.5917" y="58.0723" width="6.44897" height="5.80721" fill="#97B943"/>
<rect x="58.0408" y="52.2651" width="6.44897" height="5.80721" fill="#97B943"/>
<rect x="6.4491" y="63.8795" width="6.44897" height="5.80721" fill="#97B943"/>
<rect x="12.898" y="63.8795" width="6.44897" height="5.80721" fill="#97B943"/>
<rect y="69.6867" width="6.44897" height="5.80721" fill="#97B943"/>
<rect x="6.4491" y="69.6867" width="6.44897" height="5.80721" fill="#97B943"/>
<rect x="32.2449" y="75.494" width="6.44897" height="5.80721" fill="#97B943"/>
<rect x="12.898" y="69.6867" width="6.44897" height="5.80721" fill="#97B943"/>
<rect x="19.3469" y="75.494" width="6.44897" height="5.80721" fill="#97B943"/>
<rect x="25.7958" y="75.494" width="6.44897" height="5.80721" fill="#97B943"/>
<rect x="38.6939" y="75.494" width="6.44897" height="5.80721" fill="#97B943"/>
<rect x="45.1428" y="75.494" width="6.44897" height="5.80721" fill="#97B943"/>
<rect x="51.5917" y="81.301" width="6.44897" height="5.80721" fill="#97B943"/>
<rect x="58.0408" y="81.301" width="6.44897" height="5.80721" fill="#97B943"/>
<rect x="64.4897" y="81.301" width="6.44897" height="5.80721" fill="#97B943"/>
<rect x="70.9386" y="81.301" width="6.44897" height="5.80721" fill="#97B943"/>
<rect x="77.3877" y="81.301" width="6.44897" height="5.80721" fill="#97B943"/>
<rect x="83.8367" y="75.494" width="6.44897" height="5.80721" fill="#97B943"/>
<rect x="90.2857" y="75.494" width="6.44897" height="5.80721" fill="#97B943"/>
<rect x="96.7346" y="75.494" width="6.44897" height="5.80721" fill="#97B943"/>
<rect x="103.184" y="75.494" width="6.44897" height="5.80721" fill="#97B943"/>
<rect x="109.633" y="75.494" width="6.44897" height="5.80721" fill="#97B943"/>
<rect x="116.082" y="75.494" width="6.44897" height="5.80721" fill="#97B943"/>
<rect x="103.184" y="81.301" width="6.44897" height="5.80721" fill="#97B943"/>
<rect x="96.7346" y="81.301" width="6.44897" height="5.80721" fill="#97B943"/>
<rect x="90.2857" y="87.1082" width="6.44897" height="5.80721" fill="#97B943"/>
<rect x="103.184" y="87.1082" width="6.44897" height="5.80721" fill="#97B943"/>
<rect x="96.7346" y="87.1082" width="6.44897" height="5.80721" fill="#97B943"/>
<rect x="109.633" y="87.1082" width="6.44897" height="5.80721" fill="#97B943"/>
<rect x="161.224" y="69.6867" width="6.44897" height="5.80721" fill="#97B943"/>
<rect x="141.877" y="75.494" width="6.44897" height="5.80721" fill="#97B943"/>
<rect x="128.979" y="81.301" width="6.44897" height="5.80721" fill="#97B943"/>
<rect x="116.082" y="87.1082" width="6.44897" height="5.80721" fill="#97B943"/>
<rect x="122.531" y="81.301" width="6.44897" height="5.80721" fill="#97B943"/>
<rect x="135.428" y="81.301" width="6.44897" height="5.80721" fill="#97B943"/>
<rect x="148.326" y="75.494" width="6.44897" height="5.80721" fill="#97B943"/>
<rect x="154.775" y="69.6867" width="6.44897" height="5.80721" fill="#97B943"/>
<rect x="167.673" y="69.6867" width="6.44897" height="5.80721" fill="#97B943"/>
<rect x="187.02" y="58.0723" width="6.44897" height="5.80721" fill="#97B943"/>
<rect x="174.122" y="63.8795" width="6.44897" height="5.80721" fill="#97B943"/>
<rect x="180.571" y="58.0723" width="6.44897" height="5.80721" fill="#97B943"/>
<rect x="161.224" y="58.0723" width="6.44897" height="5.80721" fill="#97B943"/>
<rect x="154.775" y="58.0723" width="6.44897" height="5.80721" fill="#97B943"/>
<rect x="167.673" y="58.0723" width="6.44897" height="5.80721" fill="#97B943"/>
<rect x="174.122" y="58.0723" width="6.44897" height="5.80721" fill="#97B943"/>
<rect x="148.326" y="58.0723" width="6.44897" height="5.80721" fill="#97B943"/>
<rect x="128.979" y="63.8795" width="6.44897" height="5.80721" fill="#97B943"/>
<rect x="122.531" y="63.8795" width="6.44897" height="5.80721" fill="#97B943"/>
<rect x="135.428" y="63.8795" width="6.44897" height="5.80721" fill="#97B943"/>
<rect x="141.877" y="63.8795" width="6.44897" height="5.80721" fill="#97B943"/>
<rect x="135.428" y="58.0723" width="6.44897" height="5.80721" fill="#97B943"/>
<rect x="148.326" y="52.2651" width="6.44897" height="5.80721" fill="#97B943"/>
<rect x="141.877" y="58.0723" width="6.44897" height="5.80721" fill="#97B943"/>
<rect x="128.979" y="52.2651" width="6.44897" height="5.80721" fill="#97B943"/>
<rect x="122.531" y="52.2651" width="6.44897" height="5.80721" fill="#97B943"/>
<rect x="135.428" y="52.2651" width="6.44897" height="5.80721" fill="#97B943"/>
<rect x="141.877" y="46.4578" width="6.44897" height="5.80721" fill="#97B943"/>
<rect x="122.531" y="58.0723" width="6.44897" height="5.80721" fill="#97B943"/>
<rect x="128.979" y="58.0723" width="6.44897" height="5.80721" fill="#97B943"/>
<rect x="154.775" y="52.2651" width="6.44897" height="5.80721" fill="#97B943"/>
<rect x="161.224" y="52.2651" width="6.44897" height="5.80721" fill="#97B943"/>
<rect x="174.122" y="52.2651" width="6.44897" height="5.80721" fill="#97B943"/>
<rect x="167.673" y="52.2651" width="6.44897" height="5.80721" fill="#97B943"/>
<rect x="180.571" y="52.2651" width="6.44897" height="5.80721" fill="#97B943"/>
<rect x="193.469" y="58.0723" width="6.44897" height="5.80721" fill="#97B943"/>
<rect x="199.918" y="58.0723" width="6.44897" height="5.80721" fill="#97B943"/>
<rect x="206.367" y="58.0723" width="6.44897" height="5.80721" fill="#97B943"/>
<rect x="212.816" y="58.0723" width="6.44897" height="5.80721" fill="#97B943"/>
<rect x="219.265" y="58.0723" width="6.44897" height="5.80721" fill="#97B943"/>
<rect x="225.714" y="58.0723" width="6.44897" height="5.80721" fill="#97B943"/>
<rect x="232.163" y="58.0723" width="6.44897" height="5.80721" fill="#97B943"/>
<rect x="245.061" y="58.0723" width="6.44897" height="5.80721" fill="#97B943"/>
<rect x="238.612" y="58.0723" width="6.44897" height="5.80721" fill="#97B943"/>
<rect x="251.51" y="58.0723" width="6.44897" height="5.80721" fill="#97B943"/>
<rect x="257.959" y="52.2651" width="6.44897" height="5.80721" fill="#97B943"/>
<rect x="225.714" y="52.2651" width="6.44897" height="5.80721" fill="#97B943"/>
<rect x="212.816" y="52.2651" width="6.44897" height="5.80721" fill="#97B943"/>
<rect x="219.265" y="52.2651" width="6.44897" height="5.80721" fill="#97B943"/>
<rect x="232.163" y="52.2651" width="6.44897" height="5.80721" fill="#97B943"/>
<rect x="238.612" y="52.2651" width="6.44897" height="5.80721" fill="#97B943"/>
<rect x="245.061" y="52.2651" width="6.44897" height="5.80721" fill="#97B943"/>
<rect x="251.51" y="52.2651" width="6.44897" height="5.80721" fill="#97B943"/>
<rect x="167.673" y="63.8795" width="6.44897" height="5.80721" fill="#97B943"/>
<rect x="180.571" y="63.8795" width="6.44897" height="5.80721" fill="#97B943"/>
<rect x="245.061" y="34.8433" width="6.44897" height="5.80721" fill="#97B943"/>
<rect x="232.163" y="40.6506" width="6.44897" height="5.80721" fill="#97B943"/>
<rect x="219.265" y="46.4578" width="6.44897" height="5.80721" fill="#97B943"/>
<rect x="199.918" y="52.2651" width="6.44897" height="5.80721" fill="#97B943"/>
<rect x="206.367" y="52.2651" width="6.44897" height="5.80721" fill="#97B943"/>
<rect x="212.816" y="46.4578" width="6.44897" height="5.80721" fill="#97B943"/>
<rect x="225.714" y="40.6506" width="6.44897" height="5.80721" fill="#97B943"/>
<rect x="238.612" y="40.6506" width="6.44897" height="5.80721" fill="#97B943"/>
<rect x="251.51" y="34.8433" width="6.44897" height="5.80721" fill="#97B943"/>
<rect x="257.959" y="29.0363" width="6.44897" height="5.80721" fill="#97B943"/>
<rect x="264.408" y="29.0363" width="6.44897" height="5.80721" fill="#97B943"/>
<rect x="290.204" y="17.4218" width="6.44897" height="5.80721" fill="#97B943"/>
<rect x="277.306" y="23.229" width="6.44897" height="5.80721" fill="#97B943"/>
<rect x="270.857" y="23.229" width="6.44897" height="5.80721" fill="#97B943"/>
<rect x="283.755" y="23.229" width="6.44897" height="5.80721" fill="#97B943"/>
<rect x="296.653" y="17.4218" width="6.44897" height="5.80721" fill="#97B943"/>
<rect x="296.653" y="11.6146" width="6.44897" height="5.80721" fill="#97B943"/>
<rect x="283.755" y="11.6146" width="6.44897" height="5.80721" fill="#97B943"/>
<rect x="290.204" y="11.6146" width="6.44897" height="5.80721" fill="#97B943"/>
<rect x="245.061" y="17.4218" width="6.44897" height="5.80721" fill="#97B943"/>
<rect x="251.51" y="11.6146" width="6.44897" height="5.80721" fill="#97B943"/>
<rect x="257.959" y="11.6146" width="6.44897" height="5.80721" fill="#97B943"/>
<rect x="264.408" y="11.6146" width="6.44897" height="5.80721" fill="#97B943"/>
<rect x="270.857" y="11.6146" width="6.44897" height="5.80721" fill="#97B943"/>
<rect x="277.306" y="11.6146" width="6.44897" height="5.80721" fill="#97B943"/>
<rect x="238.612" y="17.4218" width="6.44897" height="5.80721" fill="#97B943"/>
<rect x="232.163" y="17.4218" width="6.44897" height="5.80721" fill="#97B943"/>
<rect x="245.061" y="11.6146" width="6.44897" height="5.80721" fill="#97B943"/>
<rect x="238.612" y="11.6146" width="6.44897" height="5.80721" fill="#97B943"/>
<rect x="257.959" y="5.80731" width="6.44897" height="5.80721" fill="#97B943"/>
<rect x="277.306" y="0.00012207" width="6.44897" height="5.80721" fill="#97B943"/>
<rect x="264.408" y="5.80731" width="6.44897" height="5.80721" fill="#97B943"/>
<rect x="270.857" y="0.00012207" width="6.44897" height="5.80721" fill="#97B943"/>
<rect x="245.061" y="0.00012207" width="6.44897" height="5.80721" fill="#97B943"/>
<rect x="251.51" y="0.00012207" width="6.44897" height="5.80721" fill="#97B943"/>
<rect x="257.959" y="0.00012207" width="6.44897" height="5.80721" fill="#97B943"/>
<rect x="264.408" y="0.00012207" width="6.44897" height="5.80721" fill="#97B943"/>
<rect x="238.612" y="0.00012207" width="6.44897" height="5.80721" fill="#97B943"/>
<rect x="206.367" y="5.80731" width="6.44897" height="5.80721" fill="#97B943"/>
<rect x="212.816" y="5.80731" width="6.44897" height="5.80721" fill="#97B943"/>
<rect x="219.265" y="5.80731" width="6.44897" height="5.80721" fill="#97B943"/>
<rect x="225.714" y="0.00012207" width="6.44897" height="5.80721" fill="#97B943"/>
<rect x="232.163" y="0.00012207" width="6.44897" height="5.80721" fill="#97B943"/>
<rect x="199.918" y="5.80731" width="6.44897" height="5.80721" fill="#97B943"/>
<rect x="193.469" y="5.80731" width="6.44897" height="5.80721" fill="#97B943"/>
<rect x="135.428" y="11.6146" width="6.44897" height="5.80721" fill="#97B943"/>
<rect x="141.877" y="11.6146" width="6.44897" height="5.80721" fill="#97B943"/>
<rect x="148.326" y="11.6146" width="6.44897" height="5.80721" fill="#97B943"/>
<rect x="154.775" y="11.6146" width="6.44897" height="5.80721" fill="#97B943"/>
<rect x="161.224" y="5.80731" width="6.44897" height="5.80721" fill="#97B943"/>
<rect x="167.673" y="5.80731" width="6.44897" height="5.80721" fill="#97B943"/>
<rect x="174.122" y="5.80731" width="6.44897" height="5.80721" fill="#97B943"/>
<rect x="180.571" y="5.80731" width="6.44897" height="5.80721" fill="#97B943"/>
<rect x="187.02" y="5.80731" width="6.44897" height="5.80721" fill="#97B943"/>
<rect x="128.979" y="11.6146" width="6.44897" height="5.80721" fill="#97B943"/>
<rect x="116.082" y="17.4218" width="6.44897" height="5.80721" fill="#97B943"/>
<rect x="96.7346" y="23.229" width="6.44897" height="5.80721" fill="#97B943"/>
<rect x="83.8367" y="29.0363" width="6.44897" height="5.80721" fill="#97B943"/>
<rect x="77.3877" y="34.8433" width="6.44897" height="5.80721" fill="#97B943"/>
<rect x="90.2857" y="29.0363" width="6.44897" height="5.80721" fill="#97B943"/>
<rect x="103.184" y="23.229" width="6.44897" height="5.80721" fill="#97B943"/>
<rect x="109.633" y="17.4218" width="6.44897" height="5.80721" fill="#97B943"/>
<rect x="122.531" y="17.4218" width="6.44897" height="5.80721" fill="#97B943"/>
<rect x="70.9386" y="34.8433" width="6.44897" height="5.80721" fill="#97B943"/>
<rect x="77.3877" y="40.6506" width="6.44897" height="5.80721" fill="#97B943"/>
<rect x="83.8367" y="40.6506" width="6.44897" height="5.80721" fill="#97B943"/>
<rect x="90.2857" y="40.6506" width="6.44897" height="5.80721" fill="#97B943"/>
<rect x="96.7346" y="40.6506" width="6.44897" height="5.80721" fill="#97B943"/>
<rect x="103.184" y="40.6506" width="6.44897" height="5.80721" fill="#97B943"/>
<rect x="109.633" y="40.6506" width="6.44897" height="5.80721" fill="#97B943"/>
<rect x="116.082" y="40.6506" width="6.44897" height="5.80721" fill="#97B943"/>
<rect x="122.531" y="40.6506" width="6.44897" height="5.80721" fill="#97B943"/>
<rect x="128.979" y="40.6506" width="6.44897" height="5.80721" fill="#97B943"/>
<rect x="109.633" y="46.4578" width="6.44897" height="5.80721" fill="#97B943"/>
</svg>
