<svg width="136" height="38" viewBox="0 0 136 38" fill="none" xmlns="http://www.w3.org/2000/svg">
<path d="M42.5282 9.1956C56.6397 4.11123 70.9983 2.61551 85.7059 2.61674C93.8175 4.44807 101.295 4.40901 109.692 4.51729C116.61 4.60649 127.271 2.50086 133.779 5.27502C136.526 6.44585 129.203 12.7761 129.164 12.8167C120.171 22.1829 111.712 28.1935 98.8401 28.5222C86.9311 28.8264 76.2614 28.5619 64.4239 30.6718C45.9709 33.9608 21.8755 38.9069 3.3911 33.5512C0.77953 32.7945 15.2318 23.2125 15.3227 23.1529C23.9208 17.5146 32.9485 12.6471 42.5282 9.1956Z" fill="#FFE5A2"/>
<path d="M88.6314 2.63606C72.9004 2.43321 57.5738 3.77465 42.5282 9.1956C32.9485 12.6471 23.9208 17.5146 15.3227 23.1529C15.2318 23.2125 0.77953 32.7945 3.3911 33.5512C21.8755 38.9069 45.9709 33.9608 64.4239 30.6718C76.2614 28.5619 86.9311 28.8264 98.8401 28.5222C111.712 28.1935 120.171 22.1829 129.164 12.8167C129.203 12.7761 136.526 6.44585 133.779 5.27502C127.271 2.50086 116.61 4.60649 109.692 4.51729C101.265 4.40862 93.7645 4.44835 85.6198 2.59722" stroke="#93C41D" stroke-width="3" stroke-linecap="round"/>
<rect x="77.0104" y="0.987061" width="3.0621" height="3.27273" transform="rotate(0.738781 77.0104 0.987061)" fill="#93C41D"/>
<rect x="49.4115" y="3.90417" width="3.0621" height="3.27273" transform="rotate(0.738781 49.4115 3.90417)" fill="#93C41D"/>
<rect x="40.1838" y="7.05817" width="3.0621" height="3.27273" transform="rotate(0.738781 40.1838 7.05817)" fill="#93C41D"/>
<rect x="43.2456" y="7.09766" width="3.0621" height="3.27273" transform="rotate(0.738781 43.2456 7.09766)" fill="#93C41D"/>
<rect x="46.3497" y="3.86469" width="3.0621" height="3.27273" transform="rotate(0.738781 46.3497 3.86469)" fill="#93C41D"/>
<rect x="52.4734" y="3.94366" width="3.0621" height="3.27273" transform="rotate(0.738781 52.4734 3.94366)" fill="#93C41D"/>
<rect x="55.5352" y="3.98315" width="3.0621" height="3.27273" transform="rotate(0.738781 55.5352 3.98315)" fill="#93C41D"/>
<rect x="58.5971" y="4.02264" width="3.0621" height="3.27273" transform="rotate(0.738781 58.5971 4.02264)" fill="#93C41D"/>
<rect x="61.7012" y="0.789673" width="3.0621" height="3.27273" transform="rotate(0.738781 61.7012 0.789673)" fill="#93C41D"/>
<rect x="64.763" y="0.829102" width="3.0621" height="3.27273" transform="rotate(0.738781 64.763 0.829102)" fill="#93C41D"/>
<rect x="67.8248" y="0.868591" width="3.0621" height="3.27273" transform="rotate(0.738781 67.8248 0.868591)" fill="#93C41D"/>
<rect x="70.8867" y="0.908081" width="3.0621" height="3.27273" transform="rotate(0.738781 70.8867 0.908081)" fill="#93C41D"/>
<rect x="73.9485" y="0.947571" width="3.0621" height="3.27273" transform="rotate(0.738781 73.9485 0.947571)" fill="#93C41D"/>
<rect x="80.0722" y="1.02655" width="3.0621" height="3.27273" transform="rotate(0.738781 80.0722 1.02655)" fill="#93C41D"/>
<rect x="83.134" y="1.06604" width="3.0621" height="3.27273" transform="rotate(0.738781 83.134 1.06604)" fill="#93C41D"/>
<rect x="37.1219" y="7.01868" width="3.0621" height="3.27273" transform="rotate(0.738781 37.1219 7.01868)" fill="#93C41D"/>
<rect x="30.9561" y="10.2122" width="3.0621" height="3.27273" transform="rotate(0.738781 30.9561 10.2122)" fill="#93C41D"/>
<rect x="24.7902" y="13.4057" width="3.0621" height="3.27273" transform="rotate(0.738781 24.7902 13.4057)" fill="#93C41D"/>
<rect x="18.6243" y="16.5992" width="3.0621" height="3.27273" transform="rotate(0.738781 18.6243 16.5992)" fill="#93C41D"/>
<rect x="12.4584" y="19.7927" width="3.0621" height="3.27273" transform="rotate(0.738781 12.4584 19.7927)" fill="#93C41D"/>
<rect x="15.5202" y="19.8322" width="3.0621" height="3.27273" transform="rotate(0.738781 15.5202 19.8322)" fill="#93C41D"/>
<rect x="21.7283" y="13.3662" width="3.0621" height="3.27273" transform="rotate(0.738781 21.7283 13.3662)" fill="#93C41D"/>
<rect x="27.8942" y="10.1727" width="3.0621" height="3.27273" transform="rotate(0.738781 27.8942 10.1727)" fill="#93C41D"/>
<rect x="34.0179" y="10.2516" width="3.0621" height="3.27273" transform="rotate(0.738781 34.0179 10.2516)" fill="#93C41D"/>
<rect x="9.35431" y="23.0256" width="3.0621" height="3.27273" transform="rotate(0.738781 9.35431 23.0256)" fill="#93C41D"/>
<rect x="3.18842" y="26.2191" width="3.0621" height="3.27273" transform="rotate(0.738781 3.18842 26.2191)" fill="#93C41D"/>
<rect x="0.0844116" y="29.4521" width="3.0621" height="3.27273" transform="rotate(0.738781 0.0844116 29.4521)" fill="#93C41D"/>
<rect x="6.29248" y="22.9861" width="3.0621" height="3.27273" transform="rotate(0.738781 6.29248 22.9861)" fill="#93C41D"/>
<rect x="0.0421753" y="32.7245" width="3.0621" height="3.27273" transform="rotate(0.738781 0.0421753 32.7245)" fill="#93C41D"/>
<rect x="52.1358" y="30.1233" width="3.0621" height="3.27273" transform="rotate(0.738781 52.1358 30.1233)" fill="#93C41D"/>
<rect x="3.10406" y="32.764" width="3.0621" height="3.27273" transform="rotate(0.738781 3.10406 32.764)" fill="#93C41D"/>
<rect x="33.7225" y="33.1589" width="3.0621" height="3.27273" transform="rotate(0.738781 33.7225 33.1589)" fill="#93C41D"/>
<rect x="6.16589" y="32.8035" width="3.0621" height="3.27273" transform="rotate(0.738781 6.16589 32.8035)" fill="#93C41D"/>
<rect x="9.22772" y="32.843" width="3.0621" height="3.27273" transform="rotate(0.738781 9.22772 32.843)" fill="#93C41D"/>
<rect x="12.2896" y="32.8825" width="3.0621" height="3.27273" transform="rotate(0.738781 12.2896 32.8825)" fill="#93C41D"/>
<rect x="15.3514" y="32.9219" width="3.0621" height="3.27273" transform="rotate(0.738781 15.3514 32.9219)" fill="#93C41D"/>
<rect x="18.4133" y="32.9614" width="3.0621" height="3.27273" transform="rotate(0.738781 18.4133 32.9614)" fill="#93C41D"/>
<rect x="21.4751" y="33.0009" width="3.0621" height="3.27273" transform="rotate(0.738781 21.4751 33.0009)" fill="#93C41D"/>
<rect x="24.537" y="33.0404" width="3.0621" height="3.27273" transform="rotate(0.738781 24.537 33.0404)" fill="#93C41D"/>
<rect x="27.5988" y="33.0799" width="3.0621" height="3.27273" transform="rotate(0.738781 27.5988 33.0799)" fill="#93C41D"/>
<rect x="30.6607" y="33.1194" width="3.0621" height="3.27273" transform="rotate(0.738781 30.6607 33.1194)" fill="#93C41D"/>
<rect x="36.7844" y="33.1984" width="3.0621" height="3.27273" transform="rotate(0.738781 36.7844 33.1984)" fill="#93C41D"/>
<rect x="39.8462" y="33.2378" width="3.0621" height="3.27273" transform="rotate(0.738781 39.8462 33.2378)" fill="#93C41D"/>
<rect x="42.908" y="33.2773" width="3.0621" height="3.27273" transform="rotate(0.738781 42.908 33.2773)" fill="#93C41D"/>
<rect x="46.0121" y="30.0443" width="3.0621" height="3.27273" transform="rotate(0.738781 46.0121 30.0443)" fill="#93C41D"/>
<rect x="49.0739" y="30.0838" width="3.0621" height="3.27273" transform="rotate(0.738781 49.0739 30.0838)" fill="#93C41D"/>
<rect x="55.1976" y="30.1628" width="3.0621" height="3.27273" transform="rotate(0.738781 55.1976 30.1628)" fill="#93C41D"/>
<rect x="58.2595" y="30.2023" width="3.0621" height="3.27273" transform="rotate(0.738781 58.2595 30.2023)" fill="#93C41D"/>
<rect x="61.3214" y="30.2418" width="3.0621" height="3.27273" transform="rotate(0.738781 61.3214 30.2418)" fill="#93C41D"/>
<rect x="76.6728" y="27.1667" width="3.0621" height="3.27273" transform="rotate(0.738781 76.6728 27.1667)" fill="#93C41D"/>
<rect x="64.4254" y="27.0088" width="3.0621" height="3.27273" transform="rotate(0.738781 64.4254 27.0088)" fill="#93C41D"/>
<rect x="67.4872" y="27.0483" width="3.0621" height="3.27273" transform="rotate(0.738781 67.4872 27.0483)" fill="#93C41D"/>
<rect x="70.5491" y="27.0877" width="3.0621" height="3.27273" transform="rotate(0.738781 70.5491 27.0877)" fill="#93C41D"/>
<rect x="73.6109" y="27.1272" width="3.0621" height="3.27273" transform="rotate(0.738781 73.6109 27.1272)" fill="#93C41D"/>
<rect x="79.7346" y="27.2062" width="3.0621" height="3.27273" transform="rotate(0.738781 79.7346 27.2062)" fill="#93C41D"/>
<rect x="82.7964" y="27.2457" width="3.0621" height="3.27273" transform="rotate(0.738781 82.7964 27.2457)" fill="#93C41D"/>
<rect x="85.8583" y="27.2852" width="3.0621" height="3.27273" transform="rotate(0.738781 85.8583 27.2852)" fill="#93C41D"/>
<rect x="88.9202" y="27.3246" width="3.0621" height="3.27273" transform="rotate(0.738781 88.9202 27.3246)" fill="#93C41D"/>
<rect x="91.982" y="27.3641" width="3.0621" height="3.27273" transform="rotate(0.738781 91.982 27.3641)" fill="#93C41D"/>
<rect x="95.0438" y="27.4036" width="3.0621" height="3.27273" transform="rotate(0.738781 95.0438 27.4036)" fill="#93C41D"/>
<rect x="122.811" y="11.3967" width="3.0621" height="3.27273" transform="rotate(0.738781 122.811 11.3967)" fill="#93C41D"/>
<rect x="119.707" y="14.6296" width="3.0621" height="3.27273" transform="rotate(0.738781 119.707 14.6296)" fill="#93C41D"/>
<rect x="116.603" y="17.8626" width="3.0621" height="3.27273" transform="rotate(0.738781 116.603 17.8626)" fill="#93C41D"/>
<rect x="113.499" y="21.0956" width="3.0621" height="3.27273" transform="rotate(0.738781 113.499 21.0956)" fill="#93C41D"/>
<rect x="107.333" y="24.2891" width="3.0621" height="3.27273" transform="rotate(0.738781 107.333 24.2891)" fill="#93C41D"/>
<rect x="98.1057" y="27.4431" width="3.0621" height="3.27273" transform="rotate(0.738781 98.1057 27.4431)" fill="#93C41D"/>
<rect x="101.168" y="27.4825" width="3.0621" height="3.27273" transform="rotate(0.738781 101.168 27.4825)" fill="#93C41D"/>
<rect x="104.272" y="24.2496" width="3.0621" height="3.27273" transform="rotate(0.738781 104.272 24.2496)" fill="#93C41D"/>
<rect x="110.438" y="21.0561" width="3.0621" height="3.27273" transform="rotate(0.738781 110.438 21.0561)" fill="#93C41D"/>
<rect x="125.873" y="11.4362" width="3.0621" height="3.27273" transform="rotate(0.738781 125.873 11.4362)" fill="#93C41D"/>
<rect x="129.02" y="4.93073" width="3.0621" height="3.27273" transform="rotate(0.738781 129.02 4.93073)" fill="#93C41D"/>
<rect x="128.977" y="8.20319" width="3.0621" height="3.27273" transform="rotate(0.738781 128.977 8.20319)" fill="#93C41D"/>
<rect x="107.629" y="1.3819" width="3.0621" height="3.27273" transform="rotate(0.738781 107.629 1.3819)" fill="#93C41D"/>
<rect x="110.691" y="1.42139" width="3.0621" height="3.27273" transform="rotate(0.738781 110.691 1.42139)" fill="#93C41D"/>
<rect x="113.753" y="1.46082" width="3.0621" height="3.27273" transform="rotate(0.738781 113.753 1.46082)" fill="#93C41D"/>
<rect x="116.814" y="1.50031" width="3.0621" height="3.27273" transform="rotate(0.738781 116.814 1.50031)" fill="#93C41D"/>
<rect x="119.876" y="1.53979" width="3.0621" height="3.27273" transform="rotate(0.738781 119.876 1.53979)" fill="#93C41D"/>
<rect x="122.938" y="1.57928" width="3.0621" height="3.27273" transform="rotate(0.738781 122.938 1.57928)" fill="#93C41D"/>
<rect x="126" y="1.61877" width="3.0621" height="3.27273" transform="rotate(0.738781 126 1.61877)" fill="#93C41D"/>
<rect x="104.567" y="1.34241" width="3.0621" height="3.27273" transform="rotate(0.738781 104.567 1.34241)" fill="#93C41D"/>
<rect x="86.1959" y="1.10553" width="3.0621" height="3.27273" transform="rotate(0.738781 86.1959 1.10553)" fill="#93C41D"/>
<rect x="89.2578" y="1.14496" width="3.0621" height="3.27273" transform="rotate(0.738781 89.2578 1.14496)" fill="#93C41D"/>
<rect x="92.3196" y="1.18445" width="3.0621" height="3.27273" transform="rotate(0.738781 92.3196 1.18445)" fill="#93C41D"/>
<rect x="95.3814" y="1.22394" width="3.0621" height="3.27273" transform="rotate(0.738781 95.3814 1.22394)" fill="#93C41D"/>
<rect x="98.4432" y="1.26343" width="3.0621" height="3.27273" transform="rotate(0.738781 98.4432 1.26343)" fill="#93C41D"/>
<rect x="101.505" y="1.30292" width="3.0621" height="3.27273" transform="rotate(0.738781 101.505 1.30292)" fill="#93C41D"/>
</svg>
