<svg width="280" height="160" viewBox="0 0 280 160" fill="none" xmlns="http://www.w3.org/2000/svg">
<path d="M6.08691 27.3475C6.08691 19.2793 12.6275 12.7388 20.6956 12.7388H118.087C126.155 12.7388 132.696 19.2793 132.696 27.3475V58.9996C132.696 67.0678 126.155 73.6083 118.087 73.6083H20.6956C12.6275 73.6083 6.08691 67.0678 6.08691 58.9996V27.3475Z" fill="#7E7272"/>
<rect x="18.261" y="9.0874" width="6.08696" height="6.08696" fill="#7E7272"/>
<rect x="24.3477" y="9.0874" width="6.08696" height="6.08696" fill="#7E7272"/>
<rect x="30.4348" y="9.0874" width="6.08696" height="6.08696" fill="#7E7272"/>
<rect x="36.5217" y="9.0874" width="6.08696" height="6.08696" fill="#7E7272"/>
<rect x="42.6086" y="9.0874" width="6.08696" height="6.08696" fill="#7E7272"/>
<rect x="48.6956" y="9.0874" width="6.08696" height="6.08696" fill="#7E7272"/>
<rect x="54.7827" y="9.0874" width="6.08696" height="6.08696" fill="#7E7272"/>
<rect x="60.8696" y="9.0874" width="6.08696" height="6.08696" fill="#7E7272"/>
<rect x="66.9565" y="9.0874" width="6.08696" height="6.08696" fill="#7E7272"/>
<rect x="73.0435" y="9.0874" width="6.08696" height="6.08696" fill="#7E7272"/>
<rect x="79.1304" y="9.0874" width="6.08696" height="6.08696" fill="#7E7272"/>
<rect x="85.2173" y="9.0874" width="6.08696" height="6.08696" fill="#7E7272"/>
<rect x="91.3044" y="9.0874" width="6.08696" height="6.08696" fill="#7E7272"/>
<rect x="97.3914" y="9.0874" width="6.08696" height="6.08696" fill="#7E7272"/>
<rect x="103.478" y="9.0874" width="6.08696" height="6.08696" fill="#7E7272"/>
<rect x="109.565" y="9.0874" width="6.08696" height="6.08696" fill="#7E7272"/>
<rect x="115.652" y="9.0874" width="6.08696" height="6.08696" fill="#7E7272"/>
<rect x="127.826" y="27.3481" width="6.08696" height="6.08696" fill="#7E7272"/>
<rect x="127.826" y="33.4346" width="6.08696" height="6.08696" fill="#7E7272"/>
<rect x="127.826" y="39.522" width="6.08696" height="6.08696" fill="#7E7272"/>
<rect x="127.826" y="45.6089" width="6.08696" height="6.08696" fill="#7E7272"/>
<rect x="127.826" y="51.6953" width="6.08696" height="6.08696" fill="#7E7272"/>
<rect x="127.826" y="57.7822" width="6.08696" height="6.08696" fill="#7E7272"/>
<rect x="18.261" y="69.9565" width="6.08696" height="6.08696" fill="#7E7272"/>
<rect x="24.3477" y="69.9565" width="6.08696" height="6.08696" fill="#7E7272"/>
<rect x="30.4348" y="69.9565" width="6.08696" height="6.08696" fill="#7E7272"/>
<rect x="36.5217" y="69.9565" width="6.08696" height="6.08696" fill="#7E7272"/>
<rect x="42.6086" y="69.9565" width="6.08696" height="6.08696" fill="#7E7272"/>
<rect x="48.6956" y="69.9565" width="6.08696" height="6.08696" fill="#7E7272"/>
<rect x="54.7827" y="69.9565" width="6.08696" height="6.08696" fill="#7E7272"/>
<rect x="60.8696" y="69.9565" width="6.08696" height="6.08696" fill="#7E7272"/>
<rect x="66.9565" y="69.9565" width="6.08696" height="6.08696" fill="#7E7272"/>
<rect x="73.0435" y="69.9565" width="6.08696" height="6.08696" fill="#7E7272"/>
<rect x="79.1304" y="69.9565" width="6.08696" height="6.08696" fill="#7E7272"/>
<rect x="85.2173" y="69.9565" width="6.08696" height="6.08696" fill="#7E7272"/>
<rect x="91.3044" y="69.9565" width="6.08696" height="6.08696" fill="#7E7272"/>
<rect x="97.3914" y="69.9565" width="6.08696" height="6.08696" fill="#7E7272"/>
<rect x="103.478" y="69.9565" width="6.08696" height="6.08696" fill="#7E7272"/>
<rect x="109.565" y="69.9565" width="6.08696" height="6.08696" fill="#7E7272"/>
<rect x="115.652" y="69.9565" width="6.08696" height="6.08696" fill="#7E7272"/>
<rect x="6.08691" y="27.3481" width="6.08696" height="6.08696" fill="#7E7272"/>
<rect x="6.08691" y="33.4346" width="6.08696" height="6.08696" fill="#7E7272"/>
<rect x="6.08691" y="39.522" width="6.08696" height="6.08696" fill="#7E7272"/>
<rect x="6.08691" y="45.6089" width="6.08696" height="6.08696" fill="#7E7272"/>
<rect x="6.08691" y="51.6953" width="6.08696" height="6.08696" fill="#7E7272"/>
<rect x="6.08691" y="57.7822" width="6.08696" height="6.08696" fill="#7E7272"/>
<rect x="6.08691" y="63.8691" width="6.08696" height="6.08696" fill="#7E7272"/>
<rect x="12.1738" y="69.9565" width="6.08696" height="6.08696" fill="#7E7272"/>
<rect x="127.826" y="63.8691" width="6.08696" height="6.08696" fill="#7E7272"/>
<rect x="121.739" y="69.9565" width="6.08696" height="6.08696" fill="#7E7272"/>
<rect x="127.826" y="15.1738" width="6.08696" height="6.08696" fill="#7E7272"/>
<rect x="127.826" y="21.2612" width="6.08696" height="6.08696" fill="#7E7272"/>
<rect x="121.739" y="9.0874" width="6.08696" height="10.9565" fill="#7E7272"/>
<rect x="6.08691" y="15.1738" width="6.08696" height="6.08696" fill="#7E7272"/>
<rect x="6.08691" y="21.2612" width="6.08696" height="6.08696" fill="#7E7272"/>
<rect x="12.1738" y="9.0874" width="6.08696" height="6.08696" fill="#7E7272"/>
<path d="M19.4783 70.8928C19.4783 68.5654 21.931 66.6787 24.9565 66.6787H39.5652C42.5908 66.6787 45.0435 68.5654 45.0435 70.8928V70.8928C45.0435 73.2201 42.5908 75.1068 39.5652 75.1068H24.9565C21.931 75.1068 19.4783 73.2201 19.4783 70.8928V70.8928Z" fill="#59474A"/>
<rect x="24.3479" y="66.6787" width="6.08696" height="4.68227" fill="#59474A"/>
<rect x="30.4348" y="66.6787" width="6.08696" height="4.68227" fill="#59474A"/>
<rect x="36.5217" y="66.6787" width="6.08696" height="4.68227" fill="#59474A"/>
<rect x="42.6086" y="66.6787" width="6.08696" height="4.68227" fill="#59474A"/>
<rect x="24.3479" y="71.3608" width="6.08696" height="4.68227" fill="#59474A"/>
<rect x="30.4348" y="71.3608" width="6.08696" height="4.68227" fill="#59474A"/>
<rect x="36.5217" y="71.3608" width="6.08696" height="4.68227" fill="#59474A"/>
<rect x="18.261" y="66.6787" width="6.08696" height="4.68227" fill="#59474A"/>
<rect x="18.261" y="71.3608" width="6.08696" height="4.68227" fill="#59474A"/>
<rect x="42.6086" y="71.3608" width="6.08696" height="4.68227" fill="#59474A"/>
<path d="M57.2173 70.8928C57.2173 68.5654 59.67 66.6787 62.6955 66.6787H91.9129C94.9385 66.6787 97.3912 68.5654 97.3912 70.8928V70.8928C97.3912 73.2201 94.9385 75.1068 91.9129 75.1068H62.6955C59.67 75.1068 57.2173 73.2201 57.2173 70.8928V70.8928Z" fill="#59474A"/>
<rect x="60.8696" y="66.6787" width="6.08696" height="4.68227" fill="#59474A"/>
<rect x="66.9565" y="66.6787" width="6.08696" height="4.68227" fill="#59474A"/>
<rect x="73.0435" y="66.6787" width="6.08696" height="4.68227" fill="#59474A"/>
<rect x="79.1304" y="66.6787" width="6.08696" height="4.68227" fill="#59474A"/>
<rect x="85.2173" y="66.6787" width="6.08696" height="4.68227" fill="#59474A"/>
<rect x="91.3044" y="66.6787" width="6.08696" height="4.68227" fill="#59474A"/>
<rect x="97.3914" y="66.6787" width="6.08696" height="4.68227" fill="#59474A"/>
<rect x="60.8696" y="71.3608" width="6.08696" height="4.68227" fill="#59474A"/>
<rect x="66.9565" y="71.3608" width="6.08696" height="4.68227" fill="#59474A"/>
<rect x="73.0435" y="71.3608" width="6.08696" height="4.68227" fill="#59474A"/>
<rect x="79.1304" y="71.3608" width="6.08696" height="4.68227" fill="#59474A"/>
<rect x="85.2173" y="71.3608" width="6.08696" height="4.68227" fill="#59474A"/>
<rect x="91.3044" y="71.3608" width="6.08696" height="4.68227" fill="#59474A"/>
<rect x="54.7827" y="66.6787" width="6.08696" height="4.68227" fill="#59474A"/>
<rect x="54.7827" y="71.3608" width="6.08696" height="4.68227" fill="#59474A"/>
<path d="M107.131 71.9856C107.131 70.4341 109.583 69.1763 112.609 69.1763H113.826C116.852 69.1763 119.305 70.4341 119.305 71.9856V71.9856C119.305 73.5372 116.852 74.795 113.826 74.795H112.609C109.583 74.795 107.131 73.5372 107.131 71.9856V71.9856Z" fill="#59474A"/>
<rect x="107.131" y="66.6787" width="6.08696" height="3.12152" fill="#59474A"/>
<rect x="113.218" y="66.6787" width="6.08696" height="3.12152" fill="#59474A"/>
<rect x="119.304" y="69.8003" width="6.08696" height="3.12152" fill="#59474A"/>
<rect x="113.218" y="72.9214" width="6.08696" height="3.12152" fill="#59474A"/>
<rect x="107.131" y="72.9214" width="6.08696" height="3.12152" fill="#59474A"/>
<rect x="107.131" y="69.8003" width="6.08696" height="3.12152" fill="#59474A"/>
<rect x="113.218" y="69.8003" width="6.08696" height="3.12152" fill="#59474A"/>
<rect x="64.7429" y="9.0874" width="42.6087" height="6.08696" fill="#A6928B"/>
<rect x="44.822" y="9.0874" width="16.0474" height="6.08696" fill="#A6928B"/>
<rect x="34.3083" y="9.0874" width="6.08696" height="6.08696" fill="#A6928B"/>
<rect x="6.08691" y="15.1738" width="6.08696" height="6.08696" fill="#494342"/>
<rect y="21.2612" width="6.08696" height="6.08696" fill="#494342"/>
<rect x="6.08691" y="9.0874" width="6.08696" height="6.08696" fill="#494342"/>
<rect x="12.1738" y="3" width="6.08696" height="6.08696" fill="#494342"/>
<rect x="18.261" y="3" width="6.08696" height="6.08696" fill="#494342"/>
<rect x="24.3477" y="3" width="6.08696" height="6.08696" fill="#494342"/>
<rect x="30.4348" y="3" width="6.08696" height="6.08696" fill="#494342"/>
<rect x="36.5217" y="3" width="6.08696" height="6.08696" fill="#494342"/>
<rect x="42.6086" y="3" width="6.08696" height="6.08696" fill="#494342"/>
<rect x="48.6956" y="3" width="6.08696" height="6.08696" fill="#494342"/>
<rect x="54.7827" y="3" width="6.08696" height="6.08696" fill="#494342"/>
<rect x="60.8696" y="3" width="6.08696" height="6.08696" fill="#494342"/>
<rect x="66.9565" y="3" width="6.08696" height="6.08696" fill="#494342"/>
<rect x="73.0435" y="3" width="6.08696" height="6.08696" fill="#494342"/>
<rect x="79.1304" y="3" width="6.08696" height="6.08696" fill="#494342"/>
<rect x="85.2173" y="3" width="6.08696" height="6.08696" fill="#494342"/>
<rect x="91.3044" y="3" width="6.08696" height="6.08696" fill="#494342"/>
<rect x="97.3914" y="3" width="6.08696" height="6.08696" fill="#494342"/>
<rect x="103.478" y="3" width="6.08696" height="6.08696" fill="#494342"/>
<rect x="109.565" y="3" width="6.08696" height="6.08696" fill="#494342"/>
<rect x="115.652" y="3" width="6.08696" height="6.08696" fill="#494342"/>
<rect x="121.739" y="3" width="6.08696" height="6.08696" fill="#494342"/>
<rect x="127.826" y="9.0874" width="6.08696" height="6.08696" fill="#494342"/>
<rect x="133.913" y="15.1738" width="6.08696" height="6.08696" fill="#494342"/>
<rect x="133.913" y="21.2612" width="6.08696" height="6.08696" fill="#494342"/>
<rect x="133.913" y="27.3481" width="6.08696" height="6.08696" fill="#494342"/>
<rect x="133.913" y="33.4346" width="6.08696" height="6.08696" fill="#494342"/>
<rect x="133.913" y="39.5215" width="6.08696" height="6.08696" fill="#494342"/>
<rect x="133.913" y="45.6089" width="6.08696" height="6.08696" fill="#494342"/>
<rect x="133.913" y="51.6953" width="6.08696" height="6.08696" fill="#494342"/>
<rect x="133.913" y="57.7822" width="6.08696" height="6.08696" fill="#494342"/>
<rect x="133.913" y="63.8691" width="6.08696" height="6.08696" fill="#494342"/>
<rect x="127.826" y="69.9565" width="12.1739" height="6.08696" fill="#494342"/>
<rect x="115.652" y="76.0435" width="6.08696" height="6.08696" fill="#494342"/>
<rect x="121.739" y="76.0435" width="6.08696" height="6.08696" fill="#494342"/>
<rect x="127.826" y="76.0435" width="6.08696" height="6.08696" fill="#494342"/>
<rect x="12.1738" y="76.0435" width="6.08696" height="6.08696" fill="#494342"/>
<rect x="18.261" y="76.0435" width="6.08696" height="6.08696" fill="#494342"/>
<rect x="24.3477" y="76.0435" width="6.08696" height="6.08696" fill="#494342"/>
<rect x="30.4348" y="76.0435" width="6.08696" height="6.08696" fill="#494342"/>
<rect x="36.5217" y="76.0435" width="6.08696" height="6.08696" fill="#494342"/>
<rect x="42.6086" y="76.0435" width="6.08696" height="6.08696" fill="#494342"/>
<rect x="48.6956" y="76.0435" width="6.08696" height="6.08696" fill="#494342"/>
<rect x="54.7827" y="76.0435" width="6.08696" height="6.08696" fill="#494342"/>
<rect x="60.8696" y="76.0435" width="6.08696" height="6.08696" fill="#494342"/>
<rect x="66.9565" y="76.0435" width="6.08696" height="6.08696" fill="#494342"/>
<rect x="73.0435" y="76.0435" width="6.08696" height="6.08696" fill="#494342"/>
<rect x="79.1304" y="76.0435" width="6.08696" height="6.08696" fill="#494342"/>
<rect x="85.2173" y="76.0435" width="6.08696" height="6.08696" fill="#494342"/>
<rect x="91.3044" y="76.0435" width="6.08696" height="6.08696" fill="#494342"/>
<rect x="97.3914" y="76.0435" width="6.08696" height="6.08696" fill="#494342"/>
<rect x="103.478" y="76.0435" width="6.08696" height="6.08696" fill="#494342"/>
<rect x="109.565" y="76.0435" width="6.08696" height="6.08696" fill="#494342"/>
<rect x="12.1738" y="69.9565" width="6.08696" height="6.08696" fill="#494342"/>
<rect y="63.8691" width="6.08696" height="6.08696" fill="#494342"/>
<rect x="6.08691" y="63.8691" width="6.08696" height="6.08696" fill="#494342"/>
<rect y="27.3481" width="6.08696" height="6.08696" fill="#494342"/>
<rect y="33.4346" width="6.08696" height="6.08696" fill="#494342"/>
<rect y="39.5215" width="6.08696" height="6.08696" fill="#494342"/>
<rect y="45.6089" width="6.08696" height="6.08696" fill="#494342"/>
<rect y="51.6953" width="6.08696" height="6.08696" fill="#494342"/>
<rect y="57.7822" width="6.08696" height="6.08696" fill="#494342"/>
<path d="M146.087 24.3475C146.087 16.2793 152.627 9.73877 160.696 9.73877H258.087C266.155 9.73877 272.696 16.2793 272.696 24.3475V55.9996C272.696 64.0678 266.155 70.6083 258.087 70.6083H160.696C152.627 70.6083 146.087 64.0678 146.087 55.9996V24.3475Z" fill="#7E7272"/>
<rect x="158.261" y="6.0874" width="6.08696" height="6.08696" fill="#7E7272"/>
<rect x="164.348" y="6.0874" width="6.08696" height="6.08696" fill="#7E7272"/>
<rect x="170.435" y="6.0874" width="6.08696" height="6.08696" fill="#7E7272"/>
<rect x="176.522" y="6.0874" width="6.08696" height="6.08696" fill="#7E7272"/>
<rect x="182.609" y="6.0874" width="6.08696" height="6.08696" fill="#7E7272"/>
<rect x="188.696" y="6.0874" width="6.08696" height="6.08696" fill="#7E7272"/>
<rect x="194.783" y="6.0874" width="6.08696" height="6.08696" fill="#7E7272"/>
<rect x="200.87" y="6.0874" width="6.08696" height="6.08696" fill="#7E7272"/>
<rect x="206.957" y="6.0874" width="6.08696" height="6.08696" fill="#7E7272"/>
<rect x="213.043" y="6.0874" width="6.08696" height="6.08696" fill="#7E7272"/>
<rect x="219.13" y="6.0874" width="6.08696" height="6.08696" fill="#7E7272"/>
<rect x="225.217" y="6.0874" width="6.08696" height="6.08696" fill="#7E7272"/>
<rect x="231.304" y="6.0874" width="6.08696" height="6.08696" fill="#7E7272"/>
<rect x="237.391" y="6.0874" width="6.08696" height="6.08696" fill="#7E7272"/>
<rect x="243.478" y="6.0874" width="6.08696" height="6.08696" fill="#7E7272"/>
<rect x="249.565" y="6.0874" width="6.08696" height="6.08696" fill="#7E7272"/>
<rect x="255.652" y="6.0874" width="6.08696" height="6.08696" fill="#7E7272"/>
<rect x="267.826" y="24.3481" width="6.08696" height="6.08696" fill="#7E7272"/>
<rect x="267.826" y="30.4346" width="6.08696" height="6.08696" fill="#7E7272"/>
<rect x="267.826" y="36.522" width="6.08696" height="6.08696" fill="#7E7272"/>
<rect x="267.826" y="42.6089" width="6.08696" height="6.08696" fill="#7E7272"/>
<rect x="267.826" y="48.6953" width="6.08696" height="6.08696" fill="#7E7272"/>
<rect x="267.826" y="54.7822" width="6.08696" height="6.08696" fill="#7E7272"/>
<rect x="158.261" y="66.9565" width="6.08696" height="6.08696" fill="#7E7272"/>
<rect x="164.348" y="66.9565" width="6.08696" height="6.08696" fill="#7E7272"/>
<rect x="170.435" y="66.9565" width="6.08696" height="6.08696" fill="#7E7272"/>
<rect x="176.522" y="66.9565" width="6.08696" height="6.08696" fill="#7E7272"/>
<rect x="182.609" y="66.9565" width="6.08696" height="6.08696" fill="#7E7272"/>
<rect x="188.696" y="66.9565" width="6.08696" height="6.08696" fill="#7E7272"/>
<rect x="194.783" y="66.9565" width="6.08696" height="6.08696" fill="#7E7272"/>
<rect x="200.87" y="66.9565" width="6.08696" height="6.08696" fill="#7E7272"/>
<rect x="206.957" y="66.9565" width="6.08696" height="6.08696" fill="#7E7272"/>
<rect x="213.043" y="66.9565" width="6.08696" height="6.08696" fill="#7E7272"/>
<rect x="219.13" y="66.9565" width="6.08696" height="6.08696" fill="#7E7272"/>
<rect x="225.217" y="66.9565" width="6.08696" height="6.08696" fill="#7E7272"/>
<rect x="231.304" y="66.9565" width="6.08696" height="6.08696" fill="#7E7272"/>
<rect x="237.391" y="66.9565" width="6.08696" height="6.08696" fill="#7E7272"/>
<rect x="243.478" y="66.9565" width="6.08696" height="6.08696" fill="#7E7272"/>
<rect x="249.565" y="66.9565" width="6.08696" height="6.08696" fill="#7E7272"/>
<rect x="255.652" y="66.9565" width="6.08696" height="6.08696" fill="#7E7272"/>
<rect x="146.087" y="24.3481" width="6.08696" height="6.08696" fill="#7E7272"/>
<rect x="146.087" y="30.4346" width="6.08696" height="6.08696" fill="#7E7272"/>
<rect x="146.087" y="36.522" width="6.08696" height="6.08696" fill="#7E7272"/>
<rect x="146.087" y="42.6089" width="6.08696" height="6.08696" fill="#7E7272"/>
<rect x="146.087" y="48.6953" width="6.08696" height="6.08696" fill="#7E7272"/>
<rect x="146.087" y="54.7822" width="6.08696" height="6.08696" fill="#7E7272"/>
<rect x="146.087" y="60.8691" width="6.08696" height="6.08696" fill="#7E7272"/>
<rect x="152.174" y="66.9565" width="6.08696" height="6.08696" fill="#7E7272"/>
<rect x="267.826" y="60.8691" width="6.08696" height="6.08696" fill="#7E7272"/>
<rect x="261.739" y="66.9565" width="6.08696" height="6.08696" fill="#7E7272"/>
<rect x="267.826" y="12.1738" width="6.08696" height="6.08696" fill="#7E7272"/>
<rect x="267.826" y="18.2612" width="6.08696" height="6.08696" fill="#7E7272"/>
<rect x="261.739" y="6.0874" width="6.08696" height="10.9565" fill="#7E7272"/>
<rect x="146.087" y="12.1738" width="6.08696" height="6.08696" fill="#7E7272"/>
<rect x="146.087" y="18.2612" width="6.08696" height="6.08696" fill="#7E7272"/>
<rect x="152.174" y="6.0874" width="6.08696" height="6.08696" fill="#7E7272"/>
<path d="M159.478 67.8928C159.478 65.5654 161.931 63.6787 164.957 63.6787H179.565C182.591 63.6787 185.043 65.5654 185.043 67.8928V67.8928C185.043 70.2201 182.591 72.1068 179.565 72.1068H164.957C161.931 72.1068 159.478 70.2201 159.478 67.8928V67.8928Z" fill="#59474A"/>
<rect x="164.348" y="63.6787" width="6.08696" height="4.68227" fill="#59474A"/>
<rect x="170.435" y="63.6787" width="6.08696" height="4.68227" fill="#59474A"/>
<rect x="176.522" y="63.6787" width="6.08696" height="4.68227" fill="#59474A"/>
<rect x="182.609" y="63.6787" width="6.08696" height="4.68227" fill="#59474A"/>
<rect x="164.348" y="68.3608" width="6.08696" height="4.68227" fill="#59474A"/>
<rect x="170.435" y="68.3608" width="6.08696" height="4.68227" fill="#59474A"/>
<rect x="176.522" y="68.3608" width="6.08696" height="4.68227" fill="#59474A"/>
<rect x="158.261" y="63.6787" width="6.08696" height="4.68227" fill="#59474A"/>
<rect x="158.261" y="68.3608" width="6.08696" height="4.68227" fill="#59474A"/>
<rect x="182.609" y="68.3608" width="6.08696" height="4.68227" fill="#59474A"/>
<path d="M197.217 67.8928C197.217 65.5654 199.67 63.6787 202.696 63.6787H231.913C234.938 63.6787 237.391 65.5654 237.391 67.8928V67.8928C237.391 70.2201 234.938 72.1068 231.913 72.1068H202.696C199.67 72.1068 197.217 70.2201 197.217 67.8928V67.8928Z" fill="#59474A"/>
<rect x="200.87" y="63.6787" width="6.08696" height="4.68227" fill="#59474A"/>
<rect x="206.957" y="63.6787" width="6.08696" height="4.68227" fill="#59474A"/>
<rect x="213.043" y="63.6787" width="6.08696" height="4.68227" fill="#59474A"/>
<rect x="219.13" y="63.6787" width="6.08696" height="4.68227" fill="#59474A"/>
<rect x="225.217" y="63.6787" width="6.08696" height="4.68227" fill="#59474A"/>
<rect x="231.304" y="63.6787" width="6.08696" height="4.68227" fill="#59474A"/>
<rect x="237.391" y="63.6787" width="6.08696" height="4.68227" fill="#59474A"/>
<rect x="200.87" y="68.3608" width="6.08696" height="4.68227" fill="#59474A"/>
<rect x="206.957" y="68.3608" width="6.08696" height="4.68227" fill="#59474A"/>
<rect x="213.043" y="68.3608" width="6.08696" height="4.68227" fill="#59474A"/>
<rect x="219.13" y="68.3608" width="6.08696" height="4.68227" fill="#59474A"/>
<rect x="225.217" y="68.3608" width="6.08696" height="4.68227" fill="#59474A"/>
<rect x="231.304" y="68.3608" width="6.08696" height="4.68227" fill="#59474A"/>
<rect x="194.783" y="63.6787" width="6.08696" height="4.68227" fill="#59474A"/>
<rect x="194.783" y="68.3608" width="6.08696" height="4.68227" fill="#59474A"/>
<path d="M247.131 68.9856C247.131 67.4341 249.583 66.1763 252.609 66.1763H253.826C256.852 66.1763 259.305 67.4341 259.305 68.9856V68.9856C259.305 70.5372 256.852 71.795 253.826 71.795H252.609C249.583 71.795 247.131 70.5372 247.131 68.9856V68.9856Z" fill="#59474A"/>
<rect x="247.131" y="63.6787" width="6.08696" height="3.12152" fill="#59474A"/>
<rect x="253.218" y="63.6787" width="6.08696" height="3.12152" fill="#59474A"/>
<rect x="259.304" y="66.8003" width="6.08696" height="3.12152" fill="#59474A"/>
<rect x="253.218" y="69.9214" width="6.08696" height="3.12152" fill="#59474A"/>
<rect x="247.131" y="69.9214" width="6.08696" height="3.12152" fill="#59474A"/>
<rect x="247.131" y="66.8003" width="6.08696" height="3.12152" fill="#59474A"/>
<rect x="253.218" y="66.8003" width="6.08696" height="3.12152" fill="#59474A"/>
<rect x="204.743" y="6.0874" width="42.6087" height="6.08696" fill="#A6928B"/>
<rect x="184.822" y="6.0874" width="16.0474" height="6.08696" fill="#A6928B"/>
<rect x="174.308" y="6.0874" width="6.08696" height="6.08696" fill="#A6928B"/>
<rect x="146.087" y="12.1738" width="6.08696" height="6.08696" fill="#494342"/>
<rect x="140" y="18.2612" width="6.08696" height="6.08696" fill="#494342"/>
<rect x="146.087" y="6.0874" width="6.08696" height="6.08696" fill="#494342"/>
<rect x="152.174" width="6.08696" height="6.08696" fill="#494342"/>
<rect x="158.261" width="6.08696" height="6.08696" fill="#494342"/>
<rect x="164.348" width="6.08696" height="6.08696" fill="#494342"/>
<rect x="170.435" width="6.08696" height="6.08696" fill="#494342"/>
<rect x="176.522" width="6.08696" height="6.08696" fill="#494342"/>
<rect x="182.609" width="6.08696" height="6.08696" fill="#494342"/>
<rect x="188.696" width="6.08696" height="6.08696" fill="#494342"/>
<rect x="194.783" width="6.08696" height="6.08696" fill="#494342"/>
<rect x="200.87" width="6.08696" height="6.08696" fill="#494342"/>
<rect x="206.957" width="6.08696" height="6.08696" fill="#494342"/>
<rect x="213.043" width="6.08696" height="6.08696" fill="#494342"/>
<rect x="219.13" width="6.08696" height="6.08696" fill="#494342"/>
<rect x="225.217" width="6.08696" height="6.08696" fill="#494342"/>
<rect x="231.304" width="6.08696" height="6.08696" fill="#494342"/>
<rect x="237.391" width="6.08696" height="6.08696" fill="#494342"/>
<rect x="243.478" width="6.08696" height="6.08696" fill="#494342"/>
<rect x="249.565" width="6.08696" height="6.08696" fill="#494342"/>
<rect x="255.652" width="6.08696" height="6.08696" fill="#494342"/>
<rect x="261.739" width="6.08696" height="6.08696" fill="#494342"/>
<rect x="267.826" y="6.0874" width="6.08696" height="6.08696" fill="#494342"/>
<rect x="273.913" y="12.1738" width="6.08696" height="6.08696" fill="#494342"/>
<rect x="273.913" y="18.2612" width="6.08696" height="6.08696" fill="#494342"/>
<rect x="273.913" y="24.3481" width="6.08696" height="6.08696" fill="#494342"/>
<rect x="273.913" y="30.4346" width="6.08696" height="6.08696" fill="#494342"/>
<rect x="273.913" y="36.5215" width="6.08696" height="6.08696" fill="#494342"/>
<rect x="273.913" y="42.6089" width="6.08696" height="6.08696" fill="#494342"/>
<rect x="273.913" y="48.6953" width="6.08696" height="6.08696" fill="#494342"/>
<rect x="273.913" y="54.7822" width="6.08696" height="6.08696" fill="#494342"/>
<rect x="273.913" y="60.8691" width="6.08696" height="6.08696" fill="#494342"/>
<rect x="267.826" y="66.9565" width="12.1739" height="6.08696" fill="#494342"/>
<rect x="255.652" y="73.0435" width="6.08696" height="6.08696" fill="#494342"/>
<rect x="261.739" y="73.0435" width="6.08696" height="6.08696" fill="#494342"/>
<rect x="267.826" y="73.0435" width="6.08696" height="6.08696" fill="#494342"/>
<rect x="152.174" y="73.0435" width="6.08696" height="6.08696" fill="#494342"/>
<rect x="158.261" y="73.0435" width="6.08696" height="6.08696" fill="#494342"/>
<rect x="164.348" y="73.0435" width="6.08696" height="6.08696" fill="#494342"/>
<rect x="170.435" y="73.0435" width="6.08696" height="6.08696" fill="#494342"/>
<rect x="176.522" y="73.0435" width="6.08696" height="6.08696" fill="#494342"/>
<rect x="182.609" y="73.0435" width="6.08696" height="6.08696" fill="#494342"/>
<rect x="188.696" y="73.0435" width="6.08696" height="6.08696" fill="#494342"/>
<rect x="194.783" y="73.0435" width="6.08696" height="6.08696" fill="#494342"/>
<rect x="200.87" y="73.0435" width="6.08696" height="6.08696" fill="#494342"/>
<rect x="206.957" y="73.0435" width="6.08696" height="6.08696" fill="#494342"/>
<rect x="213.043" y="73.0435" width="6.08696" height="6.08696" fill="#494342"/>
<rect x="219.13" y="73.0435" width="6.08696" height="6.08696" fill="#494342"/>
<rect x="225.217" y="73.0435" width="6.08696" height="6.08696" fill="#494342"/>
<rect x="231.304" y="73.0435" width="6.08696" height="6.08696" fill="#494342"/>
<rect x="237.391" y="73.0435" width="6.08696" height="6.08696" fill="#494342"/>
<rect x="243.478" y="73.0435" width="6.08696" height="6.08696" fill="#494342"/>
<rect x="249.565" y="73.0435" width="6.08696" height="6.08696" fill="#494342"/>
<rect x="152.174" y="66.9565" width="6.08696" height="6.08696" fill="#494342"/>
<rect x="140" y="60.8691" width="6.08696" height="6.08696" fill="#494342"/>
<rect x="146.087" y="60.8691" width="6.08696" height="6.08696" fill="#494342"/>
<rect x="140" y="24.3481" width="6.08696" height="6.08696" fill="#494342"/>
<rect x="140" y="30.4346" width="6.08696" height="6.08696" fill="#494342"/>
<rect x="140" y="36.5215" width="6.08696" height="6.08696" fill="#494342"/>
<rect x="140" y="42.6089" width="6.08696" height="6.08696" fill="#494342"/>
<rect x="140" y="48.6953" width="6.08696" height="6.08696" fill="#494342"/>
<rect x="140" y="54.7822" width="6.08696" height="6.08696" fill="#494342"/>
<path d="M9.08691 104.347C9.08691 96.2793 15.6275 89.7388 23.6956 89.7388H121.087C129.155 89.7388 135.696 96.2793 135.696 104.347V136C135.696 144.068 129.155 150.608 121.087 150.608H23.6956C15.6275 150.608 9.08691 144.068 9.08691 136V104.347Z" fill="#7E7272"/>
<rect x="21.261" y="86.0874" width="6.08696" height="6.08696" fill="#7E7272"/>
<rect x="27.3477" y="86.0874" width="6.08696" height="6.08696" fill="#7E7272"/>
<rect x="33.4348" y="86.0874" width="6.08696" height="6.08696" fill="#7E7272"/>
<rect x="39.5217" y="86.0874" width="6.08696" height="6.08696" fill="#7E7272"/>
<rect x="45.6086" y="86.0874" width="6.08696" height="6.08696" fill="#7E7272"/>
<rect x="51.6956" y="86.0874" width="6.08696" height="6.08696" fill="#7E7272"/>
<rect x="57.7827" y="86.0874" width="6.08696" height="6.08696" fill="#7E7272"/>
<rect x="63.8696" y="86.0874" width="6.08696" height="6.08696" fill="#7E7272"/>
<rect x="69.9565" y="86.0874" width="6.08696" height="6.08696" fill="#7E7272"/>
<rect x="76.0435" y="86.0874" width="6.08696" height="6.08696" fill="#7E7272"/>
<rect x="82.1304" y="86.0874" width="6.08696" height="6.08696" fill="#7E7272"/>
<rect x="88.2173" y="86.0874" width="6.08696" height="6.08696" fill="#7E7272"/>
<rect x="94.3044" y="86.0874" width="6.08696" height="6.08696" fill="#7E7272"/>
<rect x="100.391" y="86.0874" width="6.08696" height="6.08696" fill="#7E7272"/>
<rect x="106.478" y="86.0874" width="6.08696" height="6.08696" fill="#7E7272"/>
<rect x="112.565" y="86.0874" width="6.08696" height="6.08696" fill="#7E7272"/>
<rect x="118.652" y="86.0874" width="6.08696" height="6.08696" fill="#7E7272"/>
<rect x="130.826" y="104.348" width="6.08696" height="6.08696" fill="#7E7272"/>
<rect x="130.826" y="110.435" width="6.08696" height="6.08696" fill="#7E7272"/>
<rect x="130.826" y="116.522" width="6.08696" height="6.08696" fill="#7E7272"/>
<rect x="130.826" y="122.609" width="6.08696" height="6.08696" fill="#7E7272"/>
<rect x="130.826" y="128.695" width="6.08696" height="6.08696" fill="#7E7272"/>
<rect x="130.826" y="134.782" width="6.08696" height="6.08696" fill="#7E7272"/>
<rect x="21.261" y="146.957" width="6.08696" height="6.08696" fill="#7E7272"/>
<rect x="27.3477" y="146.957" width="6.08696" height="6.08696" fill="#7E7272"/>
<rect x="33.4348" y="146.957" width="6.08696" height="6.08696" fill="#7E7272"/>
<rect x="39.5217" y="146.957" width="6.08696" height="6.08696" fill="#7E7272"/>
<rect x="45.6086" y="146.957" width="6.08696" height="6.08696" fill="#7E7272"/>
<rect x="51.6956" y="146.957" width="6.08696" height="6.08696" fill="#7E7272"/>
<rect x="57.7827" y="146.957" width="6.08696" height="6.08696" fill="#7E7272"/>
<rect x="63.8696" y="146.957" width="6.08696" height="6.08696" fill="#7E7272"/>
<rect x="69.9565" y="146.957" width="6.08696" height="6.08696" fill="#7E7272"/>
<rect x="76.0435" y="146.957" width="6.08696" height="6.08696" fill="#7E7272"/>
<rect x="82.1304" y="146.957" width="6.08696" height="6.08696" fill="#7E7272"/>
<rect x="88.2173" y="146.957" width="6.08696" height="6.08696" fill="#7E7272"/>
<rect x="94.3044" y="146.957" width="6.08696" height="6.08696" fill="#7E7272"/>
<rect x="100.391" y="146.957" width="6.08696" height="6.08696" fill="#7E7272"/>
<rect x="106.478" y="146.957" width="6.08696" height="6.08696" fill="#7E7272"/>
<rect x="112.565" y="146.957" width="6.08696" height="6.08696" fill="#7E7272"/>
<rect x="118.652" y="146.957" width="6.08696" height="6.08696" fill="#7E7272"/>
<rect x="9.08691" y="104.348" width="6.08696" height="6.08696" fill="#7E7272"/>
<rect x="9.08691" y="110.435" width="6.08696" height="6.08696" fill="#7E7272"/>
<rect x="9.08691" y="116.522" width="6.08696" height="6.08696" fill="#7E7272"/>
<rect x="9.08691" y="122.609" width="6.08696" height="6.08696" fill="#7E7272"/>
<rect x="9.08691" y="128.695" width="6.08696" height="6.08696" fill="#7E7272"/>
<rect x="9.08691" y="134.782" width="6.08696" height="6.08696" fill="#7E7272"/>
<rect x="9.08691" y="140.869" width="6.08696" height="6.08696" fill="#7E7272"/>
<rect x="15.1738" y="146.957" width="6.08696" height="6.08696" fill="#7E7272"/>
<rect x="130.826" y="140.869" width="6.08696" height="6.08696" fill="#7E7272"/>
<rect x="124.739" y="146.957" width="6.08696" height="6.08696" fill="#7E7272"/>
<rect x="130.826" y="92.1738" width="6.08696" height="6.08696" fill="#7E7272"/>
<rect x="130.826" y="98.2612" width="6.08696" height="6.08696" fill="#7E7272"/>
<rect x="124.739" y="86.0874" width="6.08696" height="10.9565" fill="#7E7272"/>
<rect x="9.08691" y="92.1738" width="6.08696" height="6.08696" fill="#7E7272"/>
<rect x="9.08691" y="98.2612" width="6.08696" height="6.08696" fill="#7E7272"/>
<rect x="15.1738" y="86.0874" width="6.08696" height="6.08696" fill="#7E7272"/>
<path d="M22.4783 147.893C22.4783 145.565 24.931 143.679 27.9565 143.679H42.5652C45.5908 143.679 48.0435 145.565 48.0435 147.893V147.893C48.0435 150.22 45.5908 152.107 42.5652 152.107H27.9565C24.931 152.107 22.4783 150.22 22.4783 147.893V147.893Z" fill="#59474A"/>
<rect x="27.3479" y="143.679" width="6.08696" height="4.68227" fill="#59474A"/>
<rect x="33.4348" y="143.679" width="6.08696" height="4.68227" fill="#59474A"/>
<rect x="39.5217" y="143.679" width="6.08696" height="4.68227" fill="#59474A"/>
<rect x="45.6086" y="143.679" width="6.08696" height="4.68227" fill="#59474A"/>
<rect x="27.3479" y="148.361" width="6.08696" height="4.68227" fill="#59474A"/>
<rect x="33.4348" y="148.361" width="6.08696" height="4.68227" fill="#59474A"/>
<rect x="39.5217" y="148.361" width="6.08696" height="4.68227" fill="#59474A"/>
<rect x="21.261" y="143.679" width="6.08696" height="4.68227" fill="#59474A"/>
<rect x="21.261" y="148.361" width="6.08696" height="4.68227" fill="#59474A"/>
<rect x="45.6086" y="148.361" width="6.08696" height="4.68227" fill="#59474A"/>
<path d="M60.2173 147.893C60.2173 145.565 62.67 143.679 65.6955 143.679H94.9129C97.9385 143.679 100.391 145.565 100.391 147.893V147.893C100.391 150.22 97.9385 152.107 94.9129 152.107H65.6955C62.67 152.107 60.2173 150.22 60.2173 147.893V147.893Z" fill="#59474A"/>
<rect x="63.8696" y="143.679" width="6.08696" height="4.68227" fill="#59474A"/>
<rect x="69.9565" y="143.679" width="6.08696" height="4.68227" fill="#59474A"/>
<rect x="76.0435" y="143.679" width="6.08696" height="4.68227" fill="#59474A"/>
<rect x="82.1304" y="143.679" width="6.08696" height="4.68227" fill="#59474A"/>
<rect x="88.2173" y="143.679" width="6.08696" height="4.68227" fill="#59474A"/>
<rect x="94.3044" y="143.679" width="6.08696" height="4.68227" fill="#59474A"/>
<rect x="100.391" y="143.679" width="6.08696" height="4.68227" fill="#59474A"/>
<rect x="63.8696" y="148.361" width="6.08696" height="4.68227" fill="#59474A"/>
<rect x="69.9565" y="148.361" width="6.08696" height="4.68227" fill="#59474A"/>
<rect x="76.0435" y="148.361" width="6.08696" height="4.68227" fill="#59474A"/>
<rect x="82.1304" y="148.361" width="6.08696" height="4.68227" fill="#59474A"/>
<rect x="88.2173" y="148.361" width="6.08696" height="4.68227" fill="#59474A"/>
<rect x="94.3044" y="148.361" width="6.08696" height="4.68227" fill="#59474A"/>
<rect x="57.7827" y="143.679" width="6.08696" height="4.68227" fill="#59474A"/>
<rect x="57.7827" y="148.361" width="6.08696" height="4.68227" fill="#59474A"/>
<path d="M110.131 148.986C110.131 147.434 112.583 146.176 115.609 146.176H116.826C119.852 146.176 122.305 147.434 122.305 148.986V148.986C122.305 150.537 119.852 151.795 116.826 151.795H115.609C112.583 151.795 110.131 150.537 110.131 148.986V148.986Z" fill="#59474A"/>
<rect x="110.131" y="143.679" width="6.08696" height="3.12152" fill="#59474A"/>
<rect x="116.218" y="143.679" width="6.08696" height="3.12152" fill="#59474A"/>
<rect x="122.304" y="146.8" width="6.08696" height="3.12152" fill="#59474A"/>
<rect x="116.218" y="149.921" width="6.08696" height="3.12152" fill="#59474A"/>
<rect x="110.131" y="149.921" width="6.08696" height="3.12152" fill="#59474A"/>
<rect x="110.131" y="146.8" width="6.08696" height="3.12152" fill="#59474A"/>
<rect x="116.218" y="146.8" width="6.08696" height="3.12152" fill="#59474A"/>
<rect x="67.7429" y="86.0874" width="42.6087" height="6.08696" fill="#A6928B"/>
<rect x="47.822" y="86.0874" width="16.0474" height="6.08696" fill="#A6928B"/>
<rect x="37.3083" y="86.0874" width="6.08696" height="6.08696" fill="#A6928B"/>
<rect x="9.08691" y="92.1738" width="6.08696" height="6.08696" fill="#494342"/>
<rect x="3" y="98.2612" width="6.08696" height="6.08696" fill="#494342"/>
<rect x="9.08691" y="86.0874" width="6.08696" height="6.08696" fill="#494342"/>
<rect x="15.1738" y="80" width="6.08696" height="6.08696" fill="#494342"/>
<rect x="21.261" y="80" width="6.08696" height="6.08696" fill="#494342"/>
<rect x="27.3477" y="80" width="6.08696" height="6.08696" fill="#494342"/>
<rect x="33.4348" y="80" width="6.08696" height="6.08696" fill="#494342"/>
<rect x="39.5217" y="80" width="6.08696" height="6.08696" fill="#494342"/>
<rect x="45.6086" y="80" width="6.08696" height="6.08696" fill="#494342"/>
<rect x="51.6956" y="80" width="6.08696" height="6.08696" fill="#494342"/>
<rect x="57.7827" y="80" width="6.08696" height="6.08696" fill="#494342"/>
<rect x="63.8696" y="80" width="6.08696" height="6.08696" fill="#494342"/>
<rect x="69.9565" y="80" width="6.08696" height="6.08696" fill="#494342"/>
<rect x="76.0435" y="80" width="6.08696" height="6.08696" fill="#494342"/>
<rect x="82.1304" y="80" width="6.08696" height="6.08696" fill="#494342"/>
<rect x="88.2173" y="80" width="6.08696" height="6.08696" fill="#494342"/>
<rect x="94.3044" y="80" width="6.08696" height="6.08696" fill="#494342"/>
<rect x="100.391" y="80" width="6.08696" height="6.08696" fill="#494342"/>
<rect x="106.478" y="80" width="6.08696" height="6.08696" fill="#494342"/>
<rect x="112.565" y="80" width="6.08696" height="6.08696" fill="#494342"/>
<rect x="118.652" y="80" width="6.08696" height="6.08696" fill="#494342"/>
<rect x="124.739" y="80" width="6.08696" height="6.08696" fill="#494342"/>
<rect x="130.826" y="86.0874" width="6.08696" height="6.08696" fill="#494342"/>
<rect x="136.913" y="92.1738" width="6.08696" height="6.08696" fill="#494342"/>
<rect x="136.913" y="98.2612" width="6.08696" height="6.08696" fill="#494342"/>
<rect x="136.913" y="104.348" width="6.08696" height="6.08696" fill="#494342"/>
<rect x="136.913" y="110.435" width="6.08696" height="6.08696" fill="#494342"/>
<rect x="136.913" y="116.521" width="6.08696" height="6.08696" fill="#494342"/>
<rect x="136.913" y="122.609" width="6.08696" height="6.08696" fill="#494342"/>
<rect x="136.913" y="128.695" width="6.08696" height="6.08696" fill="#494342"/>
<rect x="136.913" y="134.782" width="6.08696" height="6.08696" fill="#494342"/>
<rect x="136.913" y="140.869" width="6.08696" height="6.08696" fill="#494342"/>
<rect x="130.826" y="146.957" width="12.1739" height="6.08696" fill="#494342"/>
<rect x="118.652" y="153.043" width="6.08696" height="6.08696" fill="#494342"/>
<rect x="124.739" y="153.043" width="6.08696" height="6.08696" fill="#494342"/>
<rect x="130.826" y="153.043" width="6.08696" height="6.08696" fill="#494342"/>
<rect x="15.1738" y="153.043" width="6.08696" height="6.08696" fill="#494342"/>
<rect x="21.261" y="153.043" width="6.08696" height="6.08696" fill="#494342"/>
<rect x="27.3477" y="153.043" width="6.08696" height="6.08696" fill="#494342"/>
<rect x="33.4348" y="153.043" width="6.08696" height="6.08696" fill="#494342"/>
<rect x="39.5217" y="153.043" width="6.08696" height="6.08696" fill="#494342"/>
<rect x="45.6086" y="153.043" width="6.08696" height="6.08696" fill="#494342"/>
<rect x="51.6956" y="153.043" width="6.08696" height="6.08696" fill="#494342"/>
<rect x="57.7827" y="153.043" width="6.08696" height="6.08696" fill="#494342"/>
<rect x="63.8696" y="153.043" width="6.08696" height="6.08696" fill="#494342"/>
<rect x="69.9565" y="153.043" width="6.08696" height="6.08696" fill="#494342"/>
<rect x="76.0435" y="153.043" width="6.08696" height="6.08696" fill="#494342"/>
<rect x="82.1304" y="153.043" width="6.08696" height="6.08696" fill="#494342"/>
<rect x="88.2173" y="153.043" width="6.08696" height="6.08696" fill="#494342"/>
<rect x="94.3044" y="153.043" width="6.08696" height="6.08696" fill="#494342"/>
<rect x="100.391" y="153.043" width="6.08696" height="6.08696" fill="#494342"/>
<rect x="106.478" y="153.043" width="6.08696" height="6.08696" fill="#494342"/>
<rect x="112.565" y="153.043" width="6.08696" height="6.08696" fill="#494342"/>
<rect x="15.1738" y="146.957" width="6.08696" height="6.08696" fill="#494342"/>
<rect x="3" y="140.869" width="6.08696" height="6.08696" fill="#494342"/>
<rect x="9.08691" y="140.869" width="6.08696" height="6.08696" fill="#494342"/>
<rect x="3" y="104.348" width="6.08696" height="6.08696" fill="#494342"/>
<rect x="3" y="110.435" width="6.08696" height="6.08696" fill="#494342"/>
<rect x="3" y="116.521" width="6.08696" height="6.08696" fill="#494342"/>
<rect x="3" y="122.609" width="6.08696" height="6.08696" fill="#494342"/>
<rect x="3" y="128.695" width="6.08696" height="6.08696" fill="#494342"/>
<rect x="3" y="134.782" width="6.08696" height="6.08696" fill="#494342"/>
</svg>
