<svg width="263" height="196" viewBox="0 0 263 196" fill="none" xmlns="http://www.w3.org/2000/svg">
<path d="M15.3643 71.9134C5.88199 93.5119 8.63668 116.843 8.63668 140.03C12.1269 145.266 18.7878 156.909 23.7737 161.895C31.7236 169.845 44.7574 171.986 55.5429 171.986C66.9641 171.986 69.6634 170.199 79.2763 164.324C87.0406 159.579 94.6596 154.203 102.823 150.122C103.824 149.621 112.629 147.114 109.177 151.43C99.6901 163.288 111.583 182.488 124.874 185.441C150.491 191.134 173.976 193.026 199.532 184.507C226.893 175.387 246.717 152.131 252.512 124.519C258.836 94.387 253.564 68.1868 230.273 47.5259C221.443 39.6925 211.124 29.7003 200.279 24.8203C192.753 21.4335 184.502 20.9115 177.013 17.9993C166.885 14.0604 163.706 13.5529 155.709 21.55C151.264 25.9948 145.652 29.6156 139.825 32.0151C137.785 32.855 136.603 25.2108 136.087 23.6056C133.578 15.8006 135.744 5.47852 125.996 5.47852C103.309 5.47852 84.3835 7.78031 64.1393 19.0271C41.0132 31.8749 25.8645 47.9962 15.3643 71.9134Z" fill="#769627" stroke="#3F5C05" stroke-width="3" stroke-linecap="round"/>
<rect x="8.48401" y="67.8708" width="8.48387" height="8.48387" fill="#3F5C05"/>
<rect x="8.48401" y="76.3547" width="8.48387" height="8.48387" fill="#3F5C05"/>
<rect x="8.48401" y="84.8386" width="8.48387" height="8.48387" fill="#3F5C05"/>
<rect x="8.48401" y="93.3228" width="8.48387" height="8.48387" fill="#3F5C05"/>
<rect y="101.806" width="8.48387" height="8.48387" fill="#3F5C05"/>
<rect y="110.29" width="8.48387" height="8.48387" fill="#3F5C05"/>
<rect y="118.774" width="8.48387" height="8.48387" fill="#3F5C05"/>
<rect x="8.48401" y="127.258" width="8.48387" height="8.48387" fill="#3F5C05"/>
<rect x="8.48401" y="135.742" width="8.48387" height="8.48387" fill="#3F5C05"/>
<rect x="59.3871" y="16.9678" width="8.48387" height="8.48387" fill="#3F5C05"/>
<rect x="42.4196" y="25.4514" width="8.48387" height="8.48387" fill="#3F5C05"/>
<rect x="33.9354" y="33.9353" width="8.48387" height="8.48387" fill="#3F5C05"/>
<rect x="25.4515" y="42.4192" width="8.48387" height="8.48387" fill="#3F5C05"/>
<rect x="16.9678" y="50.9031" width="8.48387" height="8.48387" fill="#3F5C05"/>
<rect x="16.9678" y="59.387" width="8.48387" height="8.48387" fill="#3F5C05"/>
<rect x="50.9033" y="16.9678" width="8.48387" height="8.48387" fill="#3F5C05"/>
<rect x="76.3545" y="8.48364" width="8.48387" height="8.48387" fill="#3F5C05"/>
<rect x="67.8711" y="8.48364" width="8.48387" height="8.48387" fill="#3F5C05"/>
<rect x="84.8385" y="8.48364" width="8.48387" height="8.48387" fill="#3F5C05"/>
<rect x="93.3223" width="8.48387" height="8.48387" fill="#3F5C05"/>
<rect x="101.807" width="8.48387" height="8.48387" fill="#3F5C05"/>
<rect x="110.29" width="8.48387" height="8.48387" fill="#3F5C05"/>
<rect x="118.774" width="8.48387" height="8.48387" fill="#3F5C05"/>
<rect x="127.258" y="8.48364" width="8.48387" height="8.48387" fill="#3F5C05"/>
<rect x="127.258" y="16.9678" width="8.48387" height="8.48387" fill="#3F5C05"/>
<rect x="127.258" width="8.48387" height="8.48387" fill="#3F5C05"/>
<rect x="135.742" y="16.9678" width="8.48387" height="8.48387" fill="#3F5C05"/>
<rect x="135.742" y="25.4514" width="8.48387" height="8.48387" fill="#3F5C05"/>
<rect x="144.226" y="25.4514" width="8.48387" height="8.48387" fill="#3F5C05"/>
<rect x="152.71" y="16.9678" width="8.48387" height="8.48387" fill="#3F5C05"/>
<rect x="161.193" y="8.48364" width="8.48387" height="8.48387" fill="#3F5C05"/>
<rect x="169.677" y="8.48364" width="8.48387" height="8.48387" fill="#3F5C05"/>
<rect x="169.677" y="16.9678" width="8.48387" height="8.48387" fill="#3F5C05"/>
<rect x="186.645" y="16.9678" width="8.48387" height="8.48387" fill="#3F5C05"/>
<rect x="178.161" y="16.9678" width="8.48387" height="8.48387" fill="#3F5C05"/>
<rect x="195.129" y="16.9678" width="8.48387" height="8.48387" fill="#3F5C05"/>
<rect x="203.613" y="25.4514" width="8.48387" height="8.48387" fill="#3F5C05"/>
<rect x="212.097" y="33.9353" width="8.48387" height="8.48387" fill="#3F5C05"/>
<rect x="229.064" y="42.4192" width="8.48387" height="8.48387" fill="#3F5C05"/>
<rect x="220.581" y="42.4192" width="8.48387" height="8.48387" fill="#3F5C05"/>
<rect x="237.548" y="50.9031" width="8.48387" height="8.48387" fill="#3F5C05"/>
<rect x="237.548" y="59.387" width="8.48387" height="8.48387" fill="#3F5C05"/>
<rect x="246.032" y="67.8708" width="8.48387" height="8.48387" fill="#3F5C05"/>
<rect x="246.032" y="76.3547" width="8.48387" height="8.48387" fill="#3F5C05"/>
<rect x="246.032" y="84.8386" width="8.48387" height="8.48387" fill="#3F5C05"/>
<rect x="254.516" y="93.3228" width="8.48387" height="8.48387" fill="#3F5C05"/>
<rect x="254.516" y="101.806" width="8.48387" height="8.48387" fill="#3F5C05"/>
<rect x="246.032" y="110.29" width="8.48387" height="8.48387" fill="#3F5C05"/>
<rect x="246.032" y="118.774" width="8.48387" height="8.48387" fill="#3F5C05"/>
<rect x="246.032" y="127.258" width="8.48387" height="8.48387" fill="#3F5C05"/>
<rect x="246.032" y="135.742" width="8.48387" height="8.48387" fill="#3F5C05"/>
<rect x="237.548" y="144.226" width="8.48387" height="8.48387" fill="#3F5C05"/>
<rect x="237.548" y="152.709" width="8.48387" height="8.48387" fill="#3F5C05"/>
<rect x="229.064" y="161.194" width="8.48387" height="8.48387" fill="#3F5C05"/>
<rect x="212.097" y="169.677" width="8.48387" height="8.48387" fill="#3F5C05"/>
<rect x="203.613" y="178.161" width="8.48387" height="8.48387" fill="#3F5C05"/>
<rect x="220.581" y="169.677" width="8.48387" height="8.48387" fill="#3F5C05"/>
<rect x="195.129" y="178.161" width="8.48387" height="8.48387" fill="#3F5C05"/>
<rect x="127.258" y="186.645" width="8.48387" height="8.48387" fill="#3F5C05"/>
<rect x="135.742" y="186.645" width="8.48387" height="8.48387" fill="#3F5C05"/>
<rect x="144.226" y="186.645" width="8.48387" height="8.48387" fill="#3F5C05"/>
<rect x="152.71" y="186.645" width="8.48387" height="8.48387" fill="#3F5C05"/>
<rect x="161.193" y="186.645" width="8.48387" height="8.48387" fill="#3F5C05"/>
<rect x="169.677" y="186.645" width="8.48387" height="8.48387" fill="#3F5C05"/>
<rect x="178.161" y="186.645" width="8.48387" height="8.48387" fill="#3F5C05"/>
<rect x="186.645" y="186.645" width="8.48387" height="8.48387" fill="#3F5C05"/>
<rect x="118.774" y="178.161" width="8.48387" height="8.48387" fill="#3F5C05"/>
<rect x="101.807" y="152.709" width="8.48387" height="8.48387" fill="#3F5C05"/>
<rect x="101.807" y="161.194" width="8.48387" height="8.48387" fill="#3F5C05"/>
<rect x="101.807" y="169.677" width="8.48387" height="8.48387" fill="#3F5C05"/>
<rect x="110.29" y="178.161" width="8.48387" height="8.48387" fill="#3F5C05"/>
<rect x="101.807" y="144.226" width="8.48387" height="8.48387" fill="#3F5C05"/>
<rect x="84.8385" y="152.709" width="8.48387" height="8.48387" fill="#3F5C05"/>
<rect x="76.3545" y="161.194" width="8.48387" height="8.48387" fill="#3F5C05"/>
<rect x="93.3223" y="152.709" width="8.48387" height="8.48387" fill="#3F5C05"/>
<rect x="59.3871" y="169.677" width="8.48387" height="8.48387" fill="#3F5C05"/>
<rect x="67.8711" y="161.194" width="8.48387" height="8.48387" fill="#3F5C05"/>
<rect x="50.9033" y="169.677" width="8.48387" height="8.48387" fill="#3F5C05"/>
<rect x="25.4515" y="161.194" width="8.48387" height="8.48387" fill="#3F5C05"/>
<rect x="33.9354" y="169.677" width="8.48387" height="8.48387" fill="#3F5C05"/>
<rect x="42.4196" y="169.677" width="8.48387" height="8.48387" fill="#3F5C05"/>
<rect x="16.9678" y="161.194" width="8.48387" height="8.48387" fill="#3F5C05"/>
<rect x="8.48401" y="144.226" width="8.48387" height="8.48387" fill="#3F5C05"/>
<rect x="16.9678" y="152.709" width="8.48387" height="8.48387" fill="#3F5C05"/>
<path d="M217.129 127.445C199.056 104.645 181.332 80.9154 170.562 52.9667C168.249 46.9635 166.701 40.5941 164.685 34.5409" stroke="#7CAD4F" stroke-width="3" stroke-linecap="round"/>
<path d="M79.9687 47.2839C94.0502 39.7015 108.861 32.5783 127.739 31.3304C131.794 31.0623 136.225 31.419 140.358 31.3725" stroke="#7CAD4F" stroke-width="3" stroke-linecap="round"/>
<path d="M84.6089 29.8773C68.8952 30.0015 65.234 74.0194 49.9458 76.0682C46.8845 76.0682 53.0707 76.621 51.2517 78.1551C49.4116 79.7071 43.9889 79.2974 41.2059 80.2565C28.7985 84.5328 30.2024 97.6753 31.4807 104.885C32.5044 110.659 34.4637 112.833 38.0513 118.245C41.2153 123.018 42.979 129.522 49.9458 133.278C60.5977 139.02 75.8094 143.748 90.7766 145.231C102.508 146.393 115.261 145.915 127.086 145.414C140.859 144.831 156.509 166.883 169.746 164.724C196.386 160.379 242.193 145.231 230.106 111.929C233.126 102.319 232.264 91.614 221.502 83.4625C215.56 78.9617 214.477 48.5138 204.912 46.7989C192.937 44.6518 174.71 36.0846 153.618 37.2808C136.873 37.1033 101.355 29.745 84.6089 29.8773Z" fill="#769627"/>
</svg>
