<svg width="233" height="173" viewBox="0 0 233 173" fill="none" xmlns="http://www.w3.org/2000/svg">
<path d="M13.5768 63.5448C5.19803 82.6298 7.63214 103.246 7.63214 123.735C10.7162 128.361 16.6019 138.649 21.0077 143.055C28.0324 150.08 39.5494 151.972 49.0798 151.972C59.1719 151.972 61.557 150.393 70.0513 145.202C76.912 141.009 83.6444 136.258 90.8577 132.652C91.7424 132.209 99.5227 129.994 96.4721 133.808C88.0895 144.286 98.5987 161.251 110.343 163.861C132.979 168.891 153.73 170.563 176.312 163.036C200.489 154.977 218.006 134.427 223.127 110.029C228.715 83.4031 224.056 60.2518 203.476 41.9953C195.674 35.0735 186.555 26.2441 176.973 21.932C170.323 18.9394 163.031 18.4781 156.414 15.9048C147.464 12.4243 144.656 11.9758 137.589 19.0422C133.662 22.9698 128.703 26.1693 123.553 28.2895C121.751 29.0317 120.707 22.2771 120.251 20.8587C118.034 13.9619 119.947 4.84106 111.334 4.84106C91.2875 4.84106 74.5642 6.87499 56.6758 16.813C36.2409 28.1657 22.8551 42.4109 13.5768 63.5448Z" fill="#094C25" stroke="#3F5C05" stroke-width="3" stroke-linecap="round"/>
<rect x="7.99677" y="60.4729" width="6.49658" height="6.49658" fill="#3F5C05" stroke="#3F5C05"/>
<rect x="7.99677" y="67.9694" width="6.49658" height="6.49658" fill="#3F5C05" stroke="#3F5C05"/>
<rect x="7.99677" y="75.4661" width="6.49658" height="6.49658" fill="#3F5C05" stroke="#3F5C05"/>
<rect x="7.99677" y="82.9625" width="6.49658" height="6.49658" fill="#3F5C05" stroke="#3F5C05"/>
<rect x="0.500061" y="90.459" width="6.49658" height="6.49658" fill="#3F5C05" stroke="#3F5C05"/>
<rect x="0.500061" y="97.9558" width="6.49658" height="6.49658" fill="#3F5C05" stroke="#3F5C05"/>
<rect x="0.500061" y="105.452" width="6.49658" height="6.49658" fill="#3F5C05" stroke="#3F5C05"/>
<rect x="7.99677" y="112.949" width="6.49658" height="6.49658" fill="#3F5C05" stroke="#3F5C05"/>
<rect x="7.99677" y="120.446" width="6.49658" height="6.49658" fill="#3F5C05" stroke="#3F5C05"/>
<rect x="52.9763" y="15.4932" width="6.49658" height="6.49658" fill="#3F5C05" stroke="#3F5C05"/>
<rect x="37.983" y="22.99" width="6.49658" height="6.49658" fill="#3F5C05" stroke="#3F5C05"/>
<rect x="30.4865" y="30.4866" width="6.49658" height="6.49658" fill="#3F5C05" stroke="#3F5C05"/>
<rect x="22.9899" y="37.9832" width="6.49658" height="6.49658" fill="#3F5C05" stroke="#3F5C05"/>
<rect x="15.4933" y="45.4795" width="6.49658" height="6.49658" fill="#3F5C05" stroke="#3F5C05"/>
<rect x="15.4933" y="52.9766" width="6.49658" height="6.49658" fill="#3F5C05" stroke="#3F5C05"/>
<rect x="45.4796" y="15.4932" width="6.49658" height="6.49658" fill="#3F5C05" stroke="#3F5C05"/>
<rect x="67.9695" y="7.9967" width="6.49658" height="6.49658" fill="#3F5C05" stroke="#3F5C05"/>
<rect x="60.4729" y="7.9967" width="6.49658" height="6.49658" fill="#3F5C05" stroke="#3F5C05"/>
<rect x="75.4661" y="7.9967" width="6.49658" height="6.49658" fill="#3F5C05" stroke="#3F5C05"/>
<rect x="82.9626" y="0.500122" width="6.49658" height="6.49658" fill="#3F5C05" stroke="#3F5C05"/>
<rect x="90.4592" y="0.500122" width="6.49658" height="6.49658" fill="#3F5C05" stroke="#3F5C05"/>
<rect x="97.9558" y="0.500122" width="6.49658" height="6.49658" fill="#3F5C05" stroke="#3F5C05"/>
<rect x="105.452" y="0.500122" width="6.49658" height="6.49658" fill="#3F5C05" stroke="#3F5C05"/>
<rect x="112.949" y="7.9967" width="6.49658" height="6.49658" fill="#3F5C05" stroke="#3F5C05"/>
<rect x="112.949" y="15.4932" width="6.49658" height="6.49658" fill="#3F5C05" stroke="#3F5C05"/>
<rect x="112.949" y="0.500122" width="6.49658" height="6.49658" fill="#3F5C05" stroke="#3F5C05"/>
<rect x="120.446" y="15.4932" width="6.49658" height="6.49658" fill="#3F5C05" stroke="#3F5C05"/>
<rect x="120.446" y="22.99" width="6.49658" height="6.49658" fill="#3F5C05" stroke="#3F5C05"/>
<rect x="127.942" y="22.99" width="6.49658" height="6.49658" fill="#3F5C05" stroke="#3F5C05"/>
<rect x="135.439" y="15.4932" width="6.49658" height="6.49658" fill="#3F5C05" stroke="#3F5C05"/>
<rect x="142.935" y="7.9967" width="6.49658" height="6.49658" fill="#3F5C05" stroke="#3F5C05"/>
<rect x="150.432" y="7.9967" width="6.49658" height="6.49658" fill="#3F5C05" stroke="#3F5C05"/>
<rect x="150.432" y="15.4932" width="6.49658" height="6.49658" fill="#3F5C05" stroke="#3F5C05"/>
<rect x="165.425" y="15.4932" width="6.49658" height="6.49658" fill="#3F5C05" stroke="#3F5C05"/>
<rect x="157.929" y="15.4932" width="6.49658" height="6.49658" fill="#3F5C05" stroke="#3F5C05"/>
<rect x="172.921" y="15.4932" width="6.49658" height="6.49658" fill="#3F5C05" stroke="#3F5C05"/>
<rect x="180.418" y="22.99" width="6.49658" height="6.49658" fill="#3F5C05" stroke="#3F5C05"/>
<rect x="187.915" y="30.4866" width="6.49658" height="6.49658" fill="#3F5C05" stroke="#3F5C05"/>
<rect x="202.908" y="37.9832" width="6.49658" height="6.49658" fill="#3F5C05" stroke="#3F5C05"/>
<rect x="195.411" y="37.9832" width="6.49658" height="6.49658" fill="#3F5C05" stroke="#3F5C05"/>
<rect x="210.405" y="45.4795" width="6.49658" height="6.49658" fill="#3F5C05" stroke="#3F5C05"/>
<rect x="210.405" y="52.9766" width="6.49658" height="6.49658" fill="#3F5C05" stroke="#3F5C05"/>
<rect x="217.901" y="60.4729" width="6.49658" height="6.49658" fill="#3F5C05" stroke="#3F5C05"/>
<rect x="217.901" y="67.9694" width="6.49658" height="6.49658" fill="#3F5C05" stroke="#3F5C05"/>
<rect x="217.901" y="75.4661" width="6.49658" height="6.49658" fill="#3F5C05" stroke="#3F5C05"/>
<rect x="225.398" y="82.9625" width="6.49658" height="6.49658" fill="#3F5C05" stroke="#3F5C05"/>
<rect x="225.398" y="90.459" width="6.49658" height="6.49658" fill="#3F5C05" stroke="#3F5C05"/>
<rect x="217.901" y="97.9558" width="6.49658" height="6.49658" fill="#3F5C05" stroke="#3F5C05"/>
<rect x="217.901" y="105.452" width="6.49658" height="6.49658" fill="#3F5C05" stroke="#3F5C05"/>
<rect x="217.901" y="112.949" width="6.49658" height="6.49658" fill="#3F5C05" stroke="#3F5C05"/>
<rect x="217.901" y="120.446" width="6.49658" height="6.49658" fill="#3F5C05" stroke="#3F5C05"/>
<rect x="210.405" y="127.942" width="6.49658" height="6.49658" fill="#3F5C05" stroke="#3F5C05"/>
<rect x="210.405" y="135.439" width="6.49658" height="6.49658" fill="#3F5C05" stroke="#3F5C05"/>
<rect x="202.908" y="142.935" width="6.49658" height="6.49658" fill="#3F5C05" stroke="#3F5C05"/>
<rect x="187.915" y="150.432" width="6.49658" height="6.49658" fill="#3F5C05" stroke="#3F5C05"/>
<rect x="180.418" y="157.928" width="6.49658" height="6.49658" fill="#3F5C05" stroke="#3F5C05"/>
<rect x="195.411" y="150.432" width="6.49658" height="6.49658" fill="#3F5C05" stroke="#3F5C05"/>
<rect x="172.921" y="157.928" width="6.49658" height="6.49658" fill="#3F5C05" stroke="#3F5C05"/>
<rect x="112.949" y="165.425" width="6.49658" height="6.49658" fill="#3F5C05" stroke="#3F5C05"/>
<rect x="120.446" y="165.425" width="6.49658" height="6.49658" fill="#3F5C05" stroke="#3F5C05"/>
<rect x="127.942" y="165.425" width="6.49658" height="6.49658" fill="#3F5C05" stroke="#3F5C05"/>
<rect x="135.439" y="165.425" width="6.49658" height="6.49658" fill="#3F5C05" stroke="#3F5C05"/>
<rect x="142.935" y="165.425" width="6.49658" height="6.49658" fill="#3F5C05" stroke="#3F5C05"/>
<rect x="150.432" y="165.425" width="6.49658" height="6.49658" fill="#3F5C05" stroke="#3F5C05"/>
<rect x="157.929" y="165.425" width="6.49658" height="6.49658" fill="#3F5C05" stroke="#3F5C05"/>
<rect x="165.425" y="165.425" width="6.49658" height="6.49658" fill="#3F5C05" stroke="#3F5C05"/>
<rect x="105.452" y="157.928" width="6.49658" height="6.49658" fill="#3F5C05" stroke="#3F5C05"/>
<rect x="90.4592" y="135.439" width="6.49658" height="6.49658" fill="#3F5C05" stroke="#3F5C05"/>
<rect x="90.4592" y="142.935" width="6.49658" height="6.49658" fill="#3F5C05" stroke="#3F5C05"/>
<rect x="90.4592" y="150.432" width="6.49658" height="6.49658" fill="#3F5C05" stroke="#3F5C05"/>
<rect x="97.9558" y="157.928" width="6.49658" height="6.49658" fill="#3F5C05" stroke="#3F5C05"/>
<rect x="90.4592" y="127.942" width="6.49658" height="6.49658" fill="#3F5C05" stroke="#3F5C05"/>
<rect x="75.4661" y="135.439" width="6.49658" height="6.49658" fill="#3F5C05" stroke="#3F5C05"/>
<rect x="67.9695" y="142.935" width="6.49658" height="6.49658" fill="#3F5C05" stroke="#3F5C05"/>
<rect x="82.9626" y="135.439" width="6.49658" height="6.49658" fill="#3F5C05" stroke="#3F5C05"/>
<rect x="52.9763" y="150.432" width="6.49658" height="6.49658" fill="#3F5C05" stroke="#3F5C05"/>
<rect x="60.4729" y="142.935" width="6.49658" height="6.49658" fill="#3F5C05" stroke="#3F5C05"/>
<rect x="45.4796" y="150.432" width="6.49658" height="6.49658" fill="#3F5C05" stroke="#3F5C05"/>
<rect x="22.9899" y="142.935" width="6.49658" height="6.49658" fill="#3F5C05" stroke="#3F5C05"/>
<rect x="30.4865" y="150.432" width="6.49658" height="6.49658" fill="#3F5C05" stroke="#3F5C05"/>
<rect x="37.983" y="150.432" width="6.49658" height="6.49658" fill="#3F5C05" stroke="#3F5C05"/>
<rect x="15.4933" y="142.935" width="6.49658" height="6.49658" fill="#3F5C05" stroke="#3F5C05"/>
<rect x="7.99677" y="127.942" width="6.49658" height="6.49658" fill="#3F5C05" stroke="#3F5C05"/>
<rect x="15.4933" y="135.439" width="6.49658" height="6.49658" fill="#3F5C05" stroke="#3F5C05"/>
</svg>
