<svg width="216" height="161" viewBox="0 0 216 161" fill="none" xmlns="http://www.w3.org/2000/svg">
<path d="M203.09 59.6706C210.851 77.349 208.596 96.4456 208.596 115.424C205.74 119.71 200.288 129.24 196.207 133.321C189.7 139.828 179.032 141.58 170.204 141.58C160.855 141.58 158.646 140.117 150.778 135.309C144.423 131.425 138.186 127.025 131.505 123.684C130.685 123.274 123.478 121.223 126.304 124.755C134.069 134.461 124.334 150.176 113.456 152.594C92.4881 157.253 73.2659 158.801 52.3482 151.829C29.9536 144.364 13.7274 125.329 8.98419 102.729C3.80791 78.0653 8.12311 56.6203 27.1864 39.7094C34.4141 33.2977 42.8603 25.119 51.7364 21.1248C57.8966 18.3527 64.6505 17.9254 70.7799 15.5417C79.07 12.3178 81.6717 11.9024 88.2173 18.448C91.8554 22.0861 96.4492 25.0497 101.219 27.0137C102.888 27.7011 103.856 21.4444 104.278 20.1305C106.331 13.7421 104.559 5.29346 112.538 5.29346C131.107 5.29346 146.597 7.17748 163.167 16.383C182.096 26.899 194.495 40.0943 203.09 59.6706Z" fill="#769627" stroke="#3F5C05" stroke-width="3" stroke-linecap="round"/>
<rect width="6.94407" height="6.94407" transform="matrix(-1 0 0 1 208.721 56.3618)" fill="#3F5C05"/>
<rect width="6.94407" height="6.94407" transform="matrix(-1 0 0 1 208.721 63.3059)" fill="#3F5C05"/>
<rect width="6.94407" height="6.94407" transform="matrix(-1 0 0 1 208.721 70.25)" fill="#3F5C05"/>
<rect width="6.94407" height="6.94407" transform="matrix(-1 0 0 1 208.721 77.1941)" fill="#3F5C05"/>
<rect width="6.94407" height="6.94407" transform="matrix(-1 0 0 1 215.666 84.1382)" fill="#3F5C05"/>
<rect width="6.94407" height="6.94407" transform="matrix(-1 0 0 1 215.666 91.082)" fill="#3F5C05"/>
<rect width="6.94407" height="6.94407" transform="matrix(-1 0 0 1 215.666 98.0264)" fill="#3F5C05"/>
<rect width="6.94407" height="6.94407" transform="matrix(-1 0 0 1 208.721 104.97)" fill="#3F5C05"/>
<rect width="6.94407" height="6.94407" transform="matrix(-1 0 0 1 208.721 111.915)" fill="#3F5C05"/>
<rect width="6.94407" height="6.94407" transform="matrix(-1 0 0 1 167.057 14.6975)" fill="#3F5C05"/>
<rect width="6.94407" height="6.94407" transform="matrix(-1 0 0 1 180.945 21.6414)" fill="#3F5C05"/>
<rect width="6.94407" height="6.94407" transform="matrix(-1 0 0 1 187.889 28.5854)" fill="#3F5C05"/>
<rect width="6.94407" height="6.94407" transform="matrix(-1 0 0 1 194.833 35.5295)" fill="#3F5C05"/>
<rect width="6.94407" height="6.94407" transform="matrix(-1 0 0 1 201.777 42.4736)" fill="#3F5C05"/>
<rect width="6.94407" height="6.94407" transform="matrix(-1 0 0 1 201.777 49.4177)" fill="#3F5C05"/>
<rect width="6.94407" height="6.94407" transform="matrix(-1 0 0 1 174.001 14.6975)" fill="#3F5C05"/>
<rect width="6.94407" height="6.94407" transform="matrix(-1 0 0 1 153.169 7.75317)" fill="#3F5C05"/>
<rect width="6.94407" height="6.94407" transform="matrix(-1 0 0 1 160.113 7.75317)" fill="#3F5C05"/>
<rect width="6.94407" height="6.94407" transform="matrix(-1 0 0 1 146.225 7.75317)" fill="#3F5C05"/>
<rect width="6.94407" height="6.94407" transform="matrix(-1 0 0 1 139.281 0.809326)" fill="#3F5C05"/>
<rect width="6.94407" height="6.94407" transform="matrix(-1 0 0 1 132.337 0.809326)" fill="#3F5C05"/>
<rect width="6.94407" height="6.94407" transform="matrix(-1 0 0 1 125.393 0.809326)" fill="#3F5C05"/>
<rect width="6.94407" height="6.94407" transform="matrix(-1 0 0 1 118.449 0.809326)" fill="#3F5C05"/>
<rect width="6.94407" height="6.94407" transform="matrix(-1 0 0 1 111.504 7.75317)" fill="#3F5C05"/>
<rect width="6.94407" height="6.94407" transform="matrix(-1 0 0 1 111.504 14.6975)" fill="#3F5C05"/>
<rect width="6.94407" height="6.94407" transform="matrix(-1 0 0 1 111.504 0.809326)" fill="#3F5C05"/>
<rect width="6.94407" height="6.94407" transform="matrix(-1 0 0 1 104.56 14.6975)" fill="#3F5C05"/>
<rect width="6.94407" height="6.94407" transform="matrix(-1 0 0 1 104.56 21.6414)" fill="#3F5C05"/>
<rect width="6.94407" height="6.94407" transform="matrix(-1 0 0 1 97.6161 21.6414)" fill="#3F5C05"/>
<rect width="6.94407" height="6.94407" transform="matrix(-1 0 0 1 90.6721 14.6975)" fill="#3F5C05"/>
<rect width="6.94407" height="6.94407" transform="matrix(-1 0 0 1 83.7284 7.75317)" fill="#3F5C05"/>
<rect width="6.94407" height="6.94407" transform="matrix(-1 0 0 1 76.7843 7.75317)" fill="#3F5C05"/>
<rect width="6.94407" height="6.94407" transform="matrix(-1 0 0 1 76.7843 14.6975)" fill="#3F5C05"/>
<rect width="6.94407" height="6.94407" transform="matrix(-1 0 0 1 62.8962 14.6975)" fill="#3F5C05"/>
<rect width="6.94407" height="6.94407" transform="matrix(-1 0 0 1 69.8402 14.6975)" fill="#3F5C05"/>
<rect width="6.94407" height="6.94407" transform="matrix(-1 0 0 1 55.9521 14.6975)" fill="#3F5C05"/>
<rect width="6.94407" height="6.94407" transform="matrix(-1 0 0 1 49.0081 21.6414)" fill="#3F5C05"/>
<rect width="6.94407" height="6.94407" transform="matrix(-1 0 0 1 42.064 28.5854)" fill="#3F5C05"/>
<rect width="6.94407" height="6.94407" transform="matrix(-1 0 0 1 28.1758 35.5295)" fill="#3F5C05"/>
<rect width="6.94407" height="6.94407" transform="matrix(-1 0 0 1 35.1199 35.5295)" fill="#3F5C05"/>
<rect width="6.94407" height="6.94407" transform="matrix(-1 0 0 1 21.2316 42.4736)" fill="#3F5C05"/>
<rect width="6.94407" height="6.94407" transform="matrix(-1 0 0 1 21.2316 49.4177)" fill="#3F5C05"/>
<rect width="6.94407" height="6.94407" transform="matrix(-1 0 0 1 14.2876 56.3618)" fill="#3F5C05"/>
<rect width="6.94407" height="6.94407" transform="matrix(-1 0 0 1 14.2876 63.3059)" fill="#3F5C05"/>
<rect width="6.94407" height="6.94407" transform="matrix(-1 0 0 1 14.2876 70.25)" fill="#3F5C05"/>
<rect width="6.94407" height="6.94407" transform="matrix(-1 0 0 1 7.34351 77.1941)" fill="#3F5C05"/>
<rect width="6.94407" height="6.94407" transform="matrix(-1 0 0 1 7.34351 84.1382)" fill="#3F5C05"/>
<rect width="6.94407" height="6.94407" transform="matrix(-1 0 0 1 14.2876 91.082)" fill="#3F5C05"/>
<rect width="6.94407" height="6.94407" transform="matrix(-1 0 0 1 14.2876 98.0264)" fill="#3F5C05"/>
<rect width="6.94407" height="6.94407" transform="matrix(-1 0 0 1 14.2876 104.97)" fill="#3F5C05"/>
<rect width="6.94407" height="6.94407" transform="matrix(-1 0 0 1 14.2876 111.915)" fill="#3F5C05"/>
<rect width="6.94407" height="6.94407" transform="matrix(-1 0 0 1 21.2316 118.858)" fill="#3F5C05"/>
<rect width="6.94407" height="6.94407" transform="matrix(-1 0 0 1 21.2316 125.802)" fill="#3F5C05"/>
<rect width="6.94407" height="6.94407" transform="matrix(-1 0 0 1 28.1758 132.747)" fill="#3F5C05"/>
<rect width="6.94407" height="6.94407" transform="matrix(-1 0 0 1 42.064 139.691)" fill="#3F5C05"/>
<rect width="6.94407" height="6.94407" transform="matrix(-1 0 0 1 49.0081 146.635)" fill="#3F5C05"/>
<rect width="6.94407" height="6.94407" transform="matrix(-1 0 0 1 35.1199 139.691)" fill="#3F5C05"/>
<rect width="6.94407" height="6.94407" transform="matrix(-1 0 0 1 55.9521 146.635)" fill="#3F5C05"/>
<rect width="6.94407" height="6.94407" transform="matrix(-1 0 0 1 111.504 153.579)" fill="#3F5C05"/>
<rect width="6.94407" height="6.94407" transform="matrix(-1 0 0 1 104.56 153.579)" fill="#3F5C05"/>
<rect width="6.94407" height="6.94407" transform="matrix(-1 0 0 1 97.6161 153.579)" fill="#3F5C05"/>
<rect width="6.94407" height="6.94407" transform="matrix(-1 0 0 1 90.6721 153.579)" fill="#3F5C05"/>
<rect width="6.94407" height="6.94407" transform="matrix(-1 0 0 1 83.7284 153.579)" fill="#3F5C05"/>
<rect width="6.94407" height="6.94407" transform="matrix(-1 0 0 1 76.7843 153.579)" fill="#3F5C05"/>
<rect width="6.94407" height="6.94407" transform="matrix(-1 0 0 1 69.8402 153.579)" fill="#3F5C05"/>
<rect width="6.94407" height="6.94407" transform="matrix(-1 0 0 1 62.8962 153.579)" fill="#3F5C05"/>
<rect width="6.94407" height="6.94407" transform="matrix(-1 0 0 1 118.449 146.635)" fill="#3F5C05"/>
<rect width="6.94407" height="6.94407" transform="matrix(-1 0 0 1 132.337 125.802)" fill="#3F5C05"/>
<rect width="6.94407" height="6.94407" transform="matrix(-1 0 0 1 132.337 132.747)" fill="#3F5C05"/>
<rect width="6.94407" height="6.94407" transform="matrix(-1 0 0 1 132.337 139.691)" fill="#3F5C05"/>
<rect width="6.94407" height="6.94407" transform="matrix(-1 0 0 1 125.393 146.635)" fill="#3F5C05"/>
<rect width="6.94407" height="6.94407" transform="matrix(-1 0 0 1 132.337 118.858)" fill="#3F5C05"/>
<rect width="6.94407" height="6.94407" transform="matrix(-1 0 0 1 146.225 125.802)" fill="#3F5C05"/>
<rect width="6.94407" height="6.94407" transform="matrix(-1 0 0 1 153.169 132.747)" fill="#3F5C05"/>
<rect width="6.94407" height="6.94407" transform="matrix(-1 0 0 1 139.281 125.802)" fill="#3F5C05"/>
<rect width="6.94407" height="6.94407" transform="matrix(-1 0 0 1 167.057 139.691)" fill="#3F5C05"/>
<rect width="6.94407" height="6.94407" transform="matrix(-1 0 0 1 160.113 132.747)" fill="#3F5C05"/>
<rect width="6.94407" height="6.94407" transform="matrix(-1 0 0 1 174.001 139.691)" fill="#3F5C05"/>
<rect width="6.94407" height="6.94407" transform="matrix(-1 0 0 1 194.833 132.747)" fill="#3F5C05"/>
<rect width="6.94407" height="6.94407" transform="matrix(-1 0 0 1 187.889 139.691)" fill="#3F5C05"/>
<rect width="6.94407" height="6.94407" transform="matrix(-1 0 0 1 180.945 139.691)" fill="#3F5C05"/>
<rect width="6.94407" height="6.94407" transform="matrix(-1 0 0 1 201.777 132.747)" fill="#3F5C05"/>
<rect width="6.94407" height="6.94407" transform="matrix(-1 0 0 1 208.721 118.858)" fill="#3F5C05"/>
<rect width="6.94407" height="6.94407" transform="matrix(-1 0 0 1 201.777 125.802)" fill="#3F5C05"/>
</svg>
