<svg width="326" height="220" viewBox="0 0 326 220" fill="none" xmlns="http://www.w3.org/2000/svg">
<path d="M320.765 107.631C319.126 94.5583 314.776 82.6351 312.28 69.7413C311.584 66.9537 308.524 65.4134 310.214 63.0082C306.92 59.5849 299.051 56.2818 295.57 54.2264C285.223 48.1168 288.617 47.2738 277.241 46.3599C244.508 43.7305 211.364 46.3644 178.857 50.1813C129.4 55.9885 80.6268 65.8544 32.3836 78.0641C23.3177 80.3585 13.6607 75.7454 4.75998 79.0348C2.08064 80.025 4.41281 90.5778 4.75987 92.3131C6.05901 98.8088 5.5158 106.294 8.87267 112.262C10.2412 114.695 10.6824 117.368 11.6253 120.002C17.7817 137.197 39.4597 141.91 55.0202 146.881C58.2346 147.907 61.1344 149.214 64.4116 149.666C68.4488 150.222 72.744 152.264 75.3575 155.43C77.7893 158.376 77.4529 161.604 77.0804 165.179L77.0738 165.242C76.8606 167.289 76.0698 170.322 77.8834 171.881C81.8174 175.263 86.816 177.685 91.1286 180.56C113.666 195.585 140.232 202.293 166.26 208.767C177.604 211.588 188.852 214.742 200.166 217.672C205.998 219.183 211.294 218.25 217.006 216.442C222.098 214.83 226.85 212.367 231.903 210.71C240.097 208.023 248.295 205.528 256.644 203.359C271.663 199.456 283.384 191.499 295.57 182.082C309.331 171.449 321.259 158.877 321.575 140.436C321.76 129.584 322.117 118.417 320.765 107.631Z" fill="#D9D9D9" stroke="#403737" stroke-width="3" stroke-linecap="round"/>
<rect x="307.359" y="70.2524" width="8.78173" height="8.78173" fill="#403737"/>
<rect x="307.359" y="79.0344" width="8.78173" height="8.78173" fill="#403737"/>
<rect x="316.141" y="87.8162" width="8.78173" height="8.78173" fill="#403737"/>
<rect x="316.141" y="96.5981" width="8.78173" height="8.78173" fill="#403737"/>
<rect x="316.141" y="105.38" width="8.78173" height="8.78173" fill="#403737"/>
<rect x="307.359" y="61.4709" width="8.78173" height="8.78173" fill="#403737"/>
<rect x="316.141" y="114.162" width="8.78173" height="8.78173" fill="#403737"/>
<rect x="316.141" y="122.943" width="8.78173" height="8.78173" fill="#403737"/>
<rect x="316.141" y="131.725" width="8.78173" height="8.78173" fill="#403737"/>
<rect x="316.141" y="140.507" width="8.78173" height="8.78173" fill="#403737"/>
<rect x="316.141" y="149.289" width="8.78173" height="8.78173" fill="#403737"/>
<rect x="307.359" y="158.071" width="8.78173" height="8.78173" fill="#403737"/>
<rect x="307.359" y="166.851" width="8.78173" height="8.78173" fill="#403737"/>
<rect x="289.796" y="175.634" width="8.78173" height="8.78173" fill="#403737"/>
<rect x="298.578" y="175.634" width="8.78173" height="8.78173" fill="#403737"/>
<rect x="281.015" y="184.415" width="8.78173" height="8.78173" fill="#403737"/>
<rect x="263.451" y="193.197" width="8.78173" height="8.78173" fill="#403737"/>
<rect x="254.669" y="201.979" width="8.78173" height="8.78173" fill="#403737"/>
<rect x="272.233" y="193.197" width="8.78173" height="8.78173" fill="#403737"/>
<rect x="237.106" y="201.979" width="8.78173" height="8.78173" fill="#403737"/>
<rect x="228.324" y="201.979" width="8.78173" height="8.78173" fill="#403737"/>
<rect x="245.887" y="201.979" width="8.78173" height="8.78173" fill="#403737"/>
<rect x="219.543" y="210.761" width="8.78173" height="8.78173" fill="#403737"/>
<rect x="210.761" y="210.761" width="8.78173" height="8.78173" fill="#403737"/>
<rect x="201.979" y="210.761" width="8.78173" height="8.78173" fill="#403737"/>
<rect x="193.197" y="210.761" width="8.78173" height="8.78173" fill="#403737"/>
<rect x="184.415" y="210.761" width="8.78173" height="8.78173" fill="#403737"/>
<rect x="166.852" y="201.979" width="8.78173" height="8.78173" fill="#403737"/>
<rect x="175.634" y="210.761" width="8.78173" height="8.78173" fill="#403737"/>
<rect x="158.071" y="201.979" width="8.78173" height="8.78173" fill="#403737"/>
<rect x="105.38" y="184.415" width="8.78173" height="8.78173" fill="#403737"/>
<rect x="122.944" y="193.197" width="8.78173" height="8.78173" fill="#403737"/>
<rect x="149.289" y="201.979" width="8.78173" height="8.78173" fill="#403737"/>
<rect x="87.8167" y="175.634" width="8.78173" height="8.78173" fill="#403737"/>
<rect x="96.5984" y="184.415" width="8.78173" height="8.78173" fill="#403737"/>
<rect x="114.161" y="193.197" width="8.78173" height="8.78173" fill="#403737"/>
<rect x="131.725" y="193.197" width="8.78173" height="8.78173" fill="#403737"/>
<rect x="140.507" y="201.979" width="8.78173" height="8.78173" fill="#403737"/>
<rect x="79.0348" y="175.634" width="8.78173" height="8.78173" fill="#403737"/>
<rect x="70.2529" y="166.851" width="8.78173" height="8.78173" fill="#403737"/>
<rect x="70.2529" y="158.071" width="8.78173" height="8.78173" fill="#403737"/>
<rect x="70.2529" y="149.289" width="8.78173" height="8.78173" fill="#403737"/>
<rect x="61.4712" y="149.289" width="8.78173" height="8.78173" fill="#403737"/>
<rect x="52.6899" y="140.507" width="8.78173" height="8.78173" fill="#403737"/>
<rect x="8.78101" y="122.943" width="8.78173" height="8.78173" fill="#403737"/>
<rect x="17.5627" y="131.725" width="8.78173" height="8.78173" fill="#403737"/>
<rect x="43.9081" y="140.507" width="8.78173" height="8.78173" fill="#403737"/>
<rect x="26.3447" y="131.725" width="8.78173" height="8.78173" fill="#403737"/>
<rect x="35.1265" y="140.507" width="8.78173" height="8.78173" fill="#403737"/>
<rect x="8.78101" y="114.162" width="8.78173" height="8.78173" fill="#403737"/>
<rect x="8.78101" y="105.38" width="8.78173" height="8.78173" fill="#403737"/>
<rect x="-0.000366211" y="96.5981" width="8.78173" height="8.78173" fill="#403737"/>
<rect x="-0.000366211" y="105.38" width="8.78173" height="8.78173" fill="#403737"/>
<rect x="-0.000366211" y="87.8162" width="8.78173" height="8.78173" fill="#403737"/>
<rect x="-0.000366211" y="79.0344" width="8.78173" height="8.78173" fill="#403737"/>
<rect x="8.78101" y="70.2524" width="8.78173" height="8.78173" fill="#403737"/>
<rect x="17.5627" y="70.2524" width="8.78173" height="8.78173" fill="#403737"/>
<rect x="26.3447" y="70.2524" width="8.78173" height="8.78173" fill="#403737"/>
<rect x="122.944" y="52.6895" width="8.78173" height="8.78173" fill="#403737"/>
<rect x="79.0348" y="61.4709" width="8.78173" height="8.78173" fill="#403737"/>
<rect x="43.9081" y="70.2524" width="8.78173" height="8.78173" fill="#403737"/>
<rect x="35.1265" y="70.2524" width="8.78173" height="8.78173" fill="#403737"/>
<rect x="52.6899" y="70.2524" width="8.78173" height="8.78173" fill="#403737"/>
<rect x="61.4712" y="61.4709" width="8.78173" height="8.78173" fill="#403737"/>
<rect x="70.2529" y="61.4709" width="8.78173" height="8.78173" fill="#403737"/>
<rect x="87.8167" y="61.4709" width="8.78173" height="8.78173" fill="#403737"/>
<rect x="96.5984" y="61.4709" width="8.78173" height="8.78173" fill="#403737"/>
<rect x="105.38" y="52.6895" width="8.78173" height="8.78173" fill="#403737"/>
<rect x="114.161" y="52.6895" width="8.78173" height="8.78173" fill="#403737"/>
<rect x="131.725" y="52.6895" width="8.78173" height="8.78173" fill="#403737"/>
<rect x="140.507" y="52.6895" width="8.78173" height="8.78173" fill="#403737"/>
<rect x="149.289" y="52.6895" width="8.78173" height="8.78173" fill="#403737"/>
<rect x="158.071" y="43.9082" width="8.78173" height="8.78173" fill="#403737"/>
<rect x="166.852" y="43.9082" width="8.78173" height="8.78173" fill="#403737"/>
<rect x="175.634" y="43.9082" width="8.78173" height="8.78173" fill="#403737"/>
<rect x="193.197" y="43.9082" width="8.78173" height="8.78173" fill="#403737"/>
<rect x="184.415" y="43.9082" width="8.78173" height="8.78173" fill="#403737"/>
<rect x="201.979" y="43.9082" width="8.78173" height="8.78173" fill="#403737"/>
<rect x="210.761" y="43.9082" width="8.78173" height="8.78173" fill="#403737"/>
<rect x="219.543" y="43.9082" width="8.78173" height="8.78173" fill="#403737"/>
<rect x="228.324" y="43.9082" width="8.78173" height="8.78173" fill="#403737"/>
<rect x="237.106" y="43.9082" width="8.78173" height="8.78173" fill="#403737"/>
<rect x="245.887" y="43.9082" width="8.78173" height="8.78173" fill="#403737"/>
<rect x="254.669" y="43.9082" width="8.78173" height="8.78173" fill="#403737"/>
<rect x="263.451" y="43.9082" width="8.78173" height="8.78173" fill="#403737"/>
<rect x="272.233" y="43.9082" width="8.78173" height="8.78173" fill="#403737"/>
<rect x="281.015" y="43.9082" width="8.78173" height="8.78173" fill="#403737"/>
<rect x="289.796" y="52.6895" width="8.78173" height="8.78173" fill="#403737"/>
<rect x="298.578" y="52.6895" width="8.78173" height="8.78173" fill="#403737"/>
<path d="M27.6275 120.098C20.9793 113.604 16.0009 108.049 15.1176 97.1066C16.4584 91.5698 19.833 84.6589 24.7957 87.5351C33.729 92.7123 44.4804 93.6938 54.0454 94.4917C61.1974 95.0883 68.3099 97.5729 75.4807 97.9453C83.0044 98.3361 90.1635 95.6699 97.5613 95.3304C104.919 94.9929 119.57 94.7187 119.57 108.652C119.57 116.59 117.706 124.37 117.706 132.383C117.706 146.33 113.773 160.613 107.383 171.607C103.341 178.561 100.509 183.209 94.1202 180.044C88.8489 177.432 84.3849 171.419 79.352 167.956C73.7751 164.118 70.4491 160.099 66.0893 153.944C60.492 146.042 53.0486 139.795 46.0877 134.406C39.787 129.528 33.5438 125.877 27.6275 120.098Z" fill="#887567"/>
<rect x="15.2579" y="96.5845" width="6.34236" height="8.72973" fill="#887567"/>
<rect x="15.2579" y="105.314" width="6.34236" height="8.72973" fill="#887567"/>
<rect x="21.5994" y="114.044" width="6.34236" height="8.72973" fill="#887567"/>
<rect x="8.91553" y="96.5845" width="6.34236" height="8.72973" fill="#887567"/>
<rect x="34.285" y="122.773" width="6.34236" height="8.72973" fill="#887567"/>
<rect x="27.7966" y="123.009" width="6.58629" height="14.6282" fill="#887567"/>
<rect x="40.6265" y="131.504" width="6.34236" height="8.72973" fill="#887567"/>
<rect x="46.9695" y="131.504" width="6.34236" height="8.72973" fill="#887567"/>
<rect x="53.3118" y="140.232" width="6.34236" height="8.72973" fill="#887567"/>
<rect x="59.6545" y="148.964" width="6.34236" height="8.72973" fill="#887567"/>
<rect x="65.9961" y="148.964" width="6.34236" height="8.72973" fill="#887567"/>
<rect x="72.3391" y="157.693" width="6.34236" height="8.72973" fill="#887567"/>
<rect x="65.9961" y="157.693" width="6.34236" height="8.72973" fill="#887567"/>
<rect x="78.6804" y="166.422" width="6.34236" height="8.72973" fill="#887567"/>
<rect x="91.3656" y="175.152" width="6.34236" height="8.72973" fill="#887567"/>
<rect x="85.0233" y="175.152" width="6.34236" height="8.72973" fill="#887567"/>
<rect x="97.7085" y="175.152" width="6.34236" height="8.72973" fill="#887567"/>
<rect x="104.05" y="166.422" width="6.34236" height="8.72973" fill="#887567"/>
<rect x="116.736" y="131.504" width="6.34236" height="8.72973" fill="#887567"/>
<rect x="116.736" y="140.232" width="6.34236" height="8.72973" fill="#887567"/>
<rect x="110.393" y="148.964" width="6.34236" height="8.72973" fill="#887567"/>
<rect x="110.393" y="157.693" width="6.34236" height="8.72973" fill="#887567"/>
<rect x="116.736" y="105.314" width="6.34236" height="8.72973" fill="#887567"/>
<rect x="116.736" y="114.044" width="6.34236" height="8.72973" fill="#887567"/>
<rect x="116.736" y="122.773" width="6.34236" height="8.72973" fill="#887567"/>
<rect x="116.736" y="96.5845" width="6.34236" height="8.72973" fill="#887567"/>
<rect x="97.7085" y="87.8542" width="6.34236" height="8.72973" fill="#887567"/>
<rect x="104.05" y="87.8542" width="6.34236" height="8.72973" fill="#887567"/>
<rect x="110.393" y="96.5845" width="6.34236" height="8.72973" fill="#887567"/>
<rect x="91.3656" y="87.8542" width="6.34236" height="8.72973" fill="#887567"/>
<rect x="72.3391" y="96.5845" width="6.34236" height="8.72973" fill="#887567"/>
<rect x="78.6804" y="96.5845" width="6.34236" height="8.72973" fill="#887567"/>
<rect x="85.0233" y="96.5845" width="6.34236" height="8.72973" fill="#887567"/>
<rect x="53.3118" y="87.8542" width="6.34236" height="8.72973" fill="#887567"/>
<rect x="59.6545" y="87.8542" width="6.34236" height="8.72973" fill="#887567"/>
<rect x="65.9961" y="96.5845" width="6.34236" height="8.72973" fill="#887567"/>
<rect x="34.285" y="87.8542" width="6.34236" height="8.72973" fill="#887567"/>
<rect x="27.9423" y="87.8542" width="6.34236" height="8.72973" fill="#887567"/>
<rect x="40.6265" y="87.8542" width="6.34236" height="8.72973" fill="#887567"/>
<rect x="46.9695" y="87.8542" width="6.34236" height="8.72973" fill="#887567"/>
<rect x="21.5994" y="79.125" width="6.34236" height="8.72973" fill="#887567"/>
<rect x="15.2579" y="87.8542" width="6.34236" height="8.72973" fill="#887567"/>
<path d="M151.984 131.068C142.447 128.318 135.304 125.967 134.037 121.334C135.961 118.991 140.802 116.065 147.922 117.282C160.737 119.474 176.161 119.89 189.884 120.227C200.144 120.48 210.348 121.532 220.635 121.69C231.429 121.855 241.699 120.726 252.312 120.583C262.867 120.44 283.887 120.324 283.887 126.222C283.887 129.583 281.213 132.876 281.213 136.268C281.213 142.173 275.57 148.219 266.402 152.873C260.604 155.817 256.541 157.785 247.376 156.445C239.813 155.339 233.409 152.794 226.189 151.328C218.188 149.703 213.417 148.001 207.162 145.396C199.132 142.051 188.454 139.406 178.467 137.125C169.428 135.06 160.472 133.514 151.984 131.068Z" fill="#958980"/>
<rect x="134.238" y="121.114" width="9.09884" height="3.69564" fill="#958980"/>
<rect x="134.238" y="124.81" width="9.09884" height="3.69564" fill="#958980"/>
<rect x="143.337" y="128.506" width="9.09884" height="3.69564" fill="#958980"/>
<rect x="125.139" y="121.114" width="9.09884" height="3.69564" fill="#958980"/>
<rect x="161.534" y="132.201" width="9.09884" height="3.69564" fill="#958980"/>
<rect x="152.435" y="132.201" width="9.09884" height="3.69564" fill="#958980"/>
<rect x="170.633" y="135.897" width="9.09884" height="3.69564" fill="#958980"/>
<rect x="179.732" y="135.897" width="9.09884" height="3.69564" fill="#958980"/>
<rect x="188.831" y="139.593" width="9.09884" height="3.69564" fill="#958980"/>
<rect x="197.93" y="143.288" width="9.09884" height="3.69564" fill="#958980"/>
<rect x="207.029" y="143.288" width="9.09884" height="3.69564" fill="#958980"/>
<rect x="216.127" y="146.984" width="9.09884" height="3.69564" fill="#958980"/>
<rect x="207.029" y="146.984" width="9.09884" height="3.69564" fill="#958980"/>
<rect x="225.227" y="150.679" width="9.09884" height="3.69564" fill="#958980"/>
<rect x="243.424" y="154.375" width="9.09884" height="3.69564" fill="#958980"/>
<rect x="234.325" y="154.375" width="9.09884" height="3.69564" fill="#958980"/>
<rect x="252.522" y="154.375" width="9.09884" height="3.69564" fill="#958980"/>
<rect x="261.622" y="150.679" width="9.09884" height="3.69564" fill="#958980"/>
<rect x="279.82" y="135.897" width="9.09884" height="3.69564" fill="#958980"/>
<rect x="279.82" y="139.593" width="9.09884" height="3.69564" fill="#958980"/>
<rect x="270.721" y="143.288" width="9.09884" height="3.69564" fill="#958980"/>
<rect x="270.721" y="146.984" width="9.09884" height="3.69564" fill="#958980"/>
<rect x="279.82" y="124.81" width="9.09884" height="3.69564" fill="#958980"/>
<rect x="279.82" y="128.506" width="9.09884" height="3.69564" fill="#958980"/>
<rect x="279.82" y="132.201" width="9.09884" height="3.69564" fill="#958980"/>
<rect x="279.82" y="121.114" width="9.09884" height="3.69564" fill="#958980"/>
<rect x="252.522" y="117.419" width="9.09884" height="3.69564" fill="#958980"/>
<rect x="261.622" y="117.419" width="9.09884" height="3.69564" fill="#958980"/>
<rect x="270.721" y="121.114" width="9.09884" height="3.69564" fill="#958980"/>
<rect x="243.424" y="117.419" width="9.09884" height="3.69564" fill="#958980"/>
<rect x="216.127" y="121.114" width="9.09884" height="3.69564" fill="#958980"/>
<rect x="225.227" y="121.114" width="9.09884" height="3.69564" fill="#958980"/>
<rect x="234.325" y="121.114" width="9.09884" height="3.69564" fill="#958980"/>
<rect x="188.831" y="117.419" width="9.09884" height="3.69564" fill="#958980"/>
<rect x="197.93" y="117.419" width="9.09884" height="3.69564" fill="#958980"/>
<rect x="207.029" y="121.114" width="9.09884" height="3.69564" fill="#958980"/>
<rect x="161.534" y="117.419" width="9.09884" height="3.69564" fill="#958980"/>
<rect x="152.435" y="117.419" width="9.09884" height="3.69564" fill="#958980"/>
<rect x="170.633" y="117.419" width="9.09884" height="3.69564" fill="#958980"/>
<rect x="179.732" y="117.419" width="9.09884" height="3.69564" fill="#958980"/>
<rect x="143.337" y="113.723" width="9.09884" height="3.69564" fill="#958980"/>
<rect x="134.238" y="117.419" width="9.09884" height="3.69564" fill="#958980"/>
<path d="M208.981 195.5H164.045C172.957 200.211 174.798 206.462 185.283 208.783C195.405 211.023 207.311 211.437 217.658 210.221C226.344 209.2 235.322 207.277 243.816 205.086C259.03 201.162 268.599 195.624 280.853 184.682C293.723 173.189 310.18 161.602 317.631 144.969C322.381 134.364 319.379 122.272 318.149 111.282C317.635 106.699 318.14 101.715 312.645 104.298C308.865 106.074 305.483 108.169 303.192 111.898C297.778 120.706 290.214 128.899 284.091 137.3C278.084 145.54 275.882 156.259 269.457 164.14C260.891 174.649 248.832 190.793 235.27 193.993C226.705 196.014 217.689 195.5 208.981 195.5Z" fill="#615353" stroke="#958980" stroke-width="3" stroke-linecap="round"/>
<rect x="166.376" y="195.393" width="8.3045" height="8.78173" fill="#958980"/>
<rect x="174.68" y="195.393" width="8.3045" height="8.78173" fill="#958980"/>
<rect x="182.984" y="195.393" width="8.3045" height="8.78173" fill="#958980"/>
<rect x="191.288" y="195.393" width="8.3045" height="8.78173" fill="#958980"/>
<rect x="199.593" y="195.393" width="8.3045" height="8.78173" fill="#958980"/>
<rect x="158.071" y="195.393" width="8.3045" height="8.78173" fill="#958980"/>
<rect x="207.898" y="195.393" width="8.3045" height="8.78173" fill="#958980"/>
<rect x="216.202" y="195.393" width="8.3045" height="8.78173" fill="#958980"/>
<rect x="224.507" y="186.611" width="8.3045" height="8.78173" fill="#958980"/>
<rect x="232.811" y="186.611" width="8.3045" height="8.78173" fill="#958980"/>
<rect x="266.029" y="160.266" width="8.3045" height="8.78173" fill="#958980"/>
<rect x="257.725" y="169.048" width="8.3045" height="8.78173" fill="#958980"/>
<rect x="249.42" y="177.829" width="8.3045" height="8.78173" fill="#958980"/>
<rect x="241.116" y="186.611" width="8.3045" height="8.78173" fill="#958980"/>
<rect x="282.638" y="133.921" width="8.3045" height="8.78173" fill="#958980"/>
<rect x="274.334" y="142.703" width="8.3045" height="8.78173" fill="#958980"/>
<rect x="274.334" y="151.485" width="8.3045" height="8.78173" fill="#958980"/>
<rect x="299.247" y="107.575" width="8.3045" height="8.78173" fill="#958980"/>
<rect x="290.943" y="116.358" width="8.3045" height="8.78173" fill="#958980"/>
<rect x="282.638" y="125.139" width="8.3045" height="8.78173" fill="#958980"/>
<rect x="307.552" y="98.7939" width="8.3045" height="8.78173" fill="#958980"/>
<rect x="315.856" y="107.575" width="8.3045" height="8.78173" fill="#958980"/>
<rect x="315.856" y="116.358" width="8.3045" height="8.78173" fill="#958980"/>
<rect x="315.856" y="125.139" width="8.3045" height="8.78173" fill="#958980"/>
<rect x="315.856" y="133.921" width="8.3045" height="8.78173" fill="#958980"/>
<rect x="315.856" y="142.703" width="8.3045" height="8.78173" fill="#958980"/>
<rect x="307.552" y="151.485" width="8.3045" height="8.78173" fill="#958980"/>
<rect x="299.247" y="160.266" width="8.3045" height="8.78173" fill="#958980"/>
<rect x="290.943" y="169.048" width="8.3045" height="8.78173" fill="#958980"/>
<rect x="282.638" y="177.829" width="8.3045" height="8.78173" fill="#958980"/>
<rect x="274.334" y="177.829" width="8.3045" height="8.78173" fill="#958980"/>
<rect x="266.029" y="186.611" width="8.3045" height="8.78173" fill="#958980"/>
<rect x="257.725" y="195.393" width="8.3045" height="8.78173" fill="#958980"/>
<rect x="241.116" y="204.175" width="8.3045" height="8.78173" fill="#958980"/>
<rect x="249.42" y="195.393" width="8.3045" height="8.78173" fill="#958980"/>
<rect x="274.334" y="186.611" width="8.3045" height="8.78173" fill="#958980"/>
<rect x="224.507" y="204.175" width="8.3045" height="8.78173" fill="#958980"/>
<rect x="216.202" y="204.175" width="8.3045" height="8.78173" fill="#958980"/>
<rect x="232.811" y="204.175" width="8.3045" height="8.78173" fill="#958980"/>
<rect x="182.984" y="204.175" width="8.3045" height="8.78173" fill="#958980"/>
<rect x="191.288" y="204.175" width="8.3045" height="8.78173" fill="#958980"/>
<rect x="199.593" y="204.175" width="8.3045" height="8.78173" fill="#958980"/>
<rect x="207.898" y="204.175" width="8.3045" height="8.78173" fill="#958980"/>
<rect x="174.68" y="204.175" width="8.3045" height="8.78173" fill="#958980"/>
<path d="M290.01 133.894C206.407 135.606 122.524 116.75 41.5911 98.1691C27.485 102.744 24.5044 101.658 12.1085 92.8569C4.56285 87.4994 -0.241642 81.4995 7.19469 74.2642C21.6521 60.1975 43.1393 50.0229 60.5638 40.1334C99.5858 17.9857 140.455 8.06545 185.319 7.46336C231.345 6.84568 297.507 7.60782 317.309 56.6012C324.026 73.2214 325.825 91.2092 322.496 108.793C318.64 129.157 310.422 133.475 290.01 133.894Z" fill="#D9D9D9" stroke="#808080" stroke-width="3" stroke-linecap="round"/>
<rect x="45.1283" y="96.5989" width="9.02566" height="8.78173" fill="#808080"/>
<rect x="90.2562" y="105.381" width="9.02566" height="8.78173" fill="#808080"/>
<rect x="135.385" y="114.163" width="9.02566" height="8.78173" fill="#808080"/>
<rect x="180.513" y="122.944" width="9.02566" height="8.78173" fill="#808080"/>
<rect x="54.1537" y="96.5989" width="9.02566" height="8.78173" fill="#808080"/>
<rect x="63.1792" y="96.5989" width="9.02566" height="8.78173" fill="#808080"/>
<rect x="72.2048" y="105.381" width="9.02566" height="8.78173" fill="#808080"/>
<rect x="81.2305" y="105.381" width="9.02566" height="8.78173" fill="#808080"/>
<rect x="99.2821" y="105.381" width="9.02566" height="8.78173" fill="#808080"/>
<rect x="108.307" y="105.381" width="9.02566" height="8.78173" fill="#808080"/>
<rect x="117.333" y="114.163" width="9.02566" height="8.78173" fill="#808080"/>
<rect x="126.359" y="114.163" width="9.02566" height="8.78173" fill="#808080"/>
<rect x="144.41" y="114.163" width="9.02566" height="8.78173" fill="#808080"/>
<rect x="153.436" y="114.163" width="9.02566" height="8.78173" fill="#808080"/>
<rect x="162.461" y="122.944" width="9.02566" height="8.78173" fill="#808080"/>
<rect x="171.487" y="122.944" width="9.02566" height="8.78173" fill="#808080"/>
<rect x="189.538" y="122.944" width="9.02566" height="8.78173" fill="#808080"/>
<rect x="198.564" y="122.944" width="9.02566" height="8.78173" fill="#808080"/>
<rect x="207.59" y="122.944" width="9.02566" height="8.78173" fill="#808080"/>
<rect x="216.616" y="122.944" width="9.02566" height="8.78173" fill="#808080"/>
<rect x="225.641" y="131.726" width="9.02566" height="8.78173" fill="#808080"/>
<rect x="234.667" y="131.726" width="9.02566" height="8.78173" fill="#808080"/>
<rect x="243.692" y="131.726" width="9.02566" height="8.78173" fill="#808080"/>
<rect x="252.718" y="131.726" width="9.02566" height="8.78173" fill="#808080"/>
<rect x="261.744" y="131.726" width="9.02566" height="8.78173" fill="#808080"/>
<rect x="270.769" y="131.726" width="9.02566" height="8.78173" fill="#808080"/>
<rect x="279.795" y="131.726" width="9.02566" height="8.78173" fill="#808080"/>
<rect x="36.1021" y="96.5989" width="9.02566" height="8.78173" fill="#808080"/>
<rect x="288.821" y="131.726" width="9.02566" height="8.78173" fill="#808080"/>
<rect x="315.898" y="105.381" width="9.02566" height="8.78173" fill="#808080"/>
<rect x="315.898" y="114.163" width="9.02566" height="8.78173" fill="#808080"/>
<rect x="306.872" y="122.944" width="9.02566" height="8.78173" fill="#808080"/>
<rect x="297.846" y="131.726" width="9.02566" height="8.78173" fill="#808080"/>
<rect x="315.898" y="52.6909" width="9.02566" height="8.78173" fill="#808080"/>
<rect x="315.898" y="61.4724" width="9.02566" height="8.78173" fill="#808080"/>
<rect x="315.898" y="70.2542" width="9.02566" height="8.78173" fill="#808080"/>
<rect x="315.898" y="79.0352" width="9.02566" height="8.78173" fill="#808080"/>
<rect x="315.898" y="87.8179" width="9.02566" height="8.78173" fill="#808080"/>
<rect x="315.898" y="96.5989" width="9.02566" height="8.78173" fill="#808080"/>
<rect x="252.718" y="8.78174" width="9.02566" height="8.78173" fill="#808080"/>
<rect x="279.795" y="17.564" width="9.02566" height="8.78173" fill="#808080"/>
<rect x="297.846" y="26.3452" width="9.02566" height="8.78173" fill="#808080"/>
<rect x="306.872" y="35.1274" width="9.02566" height="8.78173" fill="#808080"/>
<rect x="306.872" y="43.9089" width="9.02566" height="8.78173" fill="#808080"/>
<rect x="189.538" width="9.02566" height="8.78173" fill="#808080"/>
<rect x="198.564" width="9.02566" height="8.78173" fill="#808080"/>
<rect x="207.59" width="9.02566" height="8.78173" fill="#808080"/>
<rect x="216.616" width="9.02566" height="8.78173" fill="#808080"/>
<rect x="225.641" width="9.02566" height="8.78173" fill="#808080"/>
<rect x="234.667" y="8.78174" width="9.02566" height="8.78173" fill="#808080"/>
<rect x="243.692" y="8.78174" width="9.02566" height="8.78173" fill="#808080"/>
<rect x="261.744" y="8.78174" width="9.02566" height="8.78173" fill="#808080"/>
<rect x="270.769" y="17.564" width="9.02566" height="8.78173" fill="#808080"/>
<rect x="288.821" y="26.3452" width="9.02566" height="8.78173" fill="#808080"/>
<rect x="180.513" width="9.02566" height="8.78173" fill="#808080"/>
<rect x="126.359" y="8.78174" width="9.02566" height="8.78173" fill="#808080"/>
<rect x="99.2821" y="17.564" width="9.02566" height="8.78173" fill="#808080"/>
<rect x="72.2048" y="26.3452" width="9.02566" height="8.78173" fill="#808080"/>
<rect x="54.1537" y="35.1274" width="9.02566" height="8.78173" fill="#808080"/>
<rect x="63.1792" y="35.1274" width="9.02566" height="8.78173" fill="#808080"/>
<rect x="81.2305" y="26.3452" width="9.02566" height="8.78173" fill="#808080"/>
<rect x="90.2562" y="17.564" width="9.02566" height="8.78173" fill="#808080"/>
<rect x="108.307" y="17.564" width="9.02566" height="8.78173" fill="#808080"/>
<rect x="117.333" y="8.78174" width="9.02566" height="8.78173" fill="#808080"/>
<rect x="135.385" y="8.78174" width="9.02566" height="8.78173" fill="#808080"/>
<rect x="144.41" y="8.78174" width="9.02566" height="8.78173" fill="#808080"/>
<rect x="153.436" y="8.78174" width="9.02566" height="8.78173" fill="#808080"/>
<rect x="162.461" width="9.02566" height="8.78173" fill="#808080"/>
<rect x="171.487" width="9.02566" height="8.78173" fill="#808080"/>
<rect x="45.1283" y="43.9089" width="9.02566" height="8.78173" fill="#808080"/>
<rect x="27.0768" y="52.6909" width="9.02566" height="8.78173" fill="#808080"/>
<rect x="9.02539" y="61.4724" width="9.02566" height="8.78173" fill="#808080"/>
<rect x="18.0508" y="61.4724" width="9.02566" height="8.78173" fill="#808080"/>
<rect x="36.1021" y="43.9089" width="9.02566" height="8.78173" fill="#808080"/>
<rect x="-0.00012207" y="70.2542" width="9.02566" height="8.78173" fill="#808080"/>
<rect x="-0.00012207" y="79.0352" width="9.02566" height="8.78173" fill="#808080"/>
<rect x="9.02539" y="87.8179" width="9.02566" height="8.78173" fill="#808080"/>
<rect x="18.0508" y="96.5989" width="9.02566" height="8.78173" fill="#808080"/>
<rect x="27.0768" y="96.5989" width="9.02566" height="8.78173" fill="#808080"/>
<path d="M259.078 127.413C240 127.413 220.808 128.013 201.739 127.356C194.51 127.106 187.317 126.692 180.396 124.529C173.952 122.516 166.994 122.378 160.667 120.145C151.997 117.085 143.144 113.633 135.055 109.243C130.657 106.855 125.009 106.218 120.98 103.532" stroke="white" stroke-width="3" stroke-linecap="round"/>
<rect x="201.979" y="122.945" width="8.78173" height="8.78173" fill="white"/>
<rect x="210.761" y="122.945" width="8.78173" height="8.78173" fill="white"/>
<rect x="219.543" y="122.945" width="8.78173" height="8.78173" fill="white"/>
<rect x="228.324" y="122.945" width="8.78173" height="8.78173" fill="white"/>
<rect x="237.106" y="122.945" width="8.78173" height="8.78173" fill="white"/>
<rect x="245.888" y="122.945" width="8.78173" height="8.78173" fill="white"/>
<rect x="254.67" y="122.945" width="8.78173" height="8.78173" fill="white"/>
<rect x="193.197" y="122.945" width="8.78173" height="8.78173" fill="white"/>
<rect x="184.415" y="122.945" width="8.78173" height="8.78173" fill="white"/>
<rect x="175.634" y="122.945" width="8.78173" height="8.78173" fill="white"/>
<rect x="158.071" y="114.163" width="8.78173" height="8.78173" fill="white"/>
<rect x="166.852" y="114.163" width="8.78173" height="8.78173" fill="white"/>
<rect x="131.725" y="105.382" width="8.78173" height="8.78173" fill="white"/>
<rect x="149.289" y="114.163" width="8.78173" height="8.78173" fill="white"/>
<rect x="140.507" y="105.382" width="8.78173" height="8.78173" fill="white"/>
<rect x="122.944" y="105.382" width="8.78173" height="8.78173" fill="white"/>
<rect x="114.162" y="96.5999" width="8.78173" height="8.78173" fill="white"/>
</svg>
