<svg width="229" height="169" viewBox="0 0 229 169" fill="none" xmlns="http://www.w3.org/2000/svg">
<path d="M14.1301 62.1181C5.93937 80.7748 8.31885 100.928 8.31885 120.957C11.3337 125.479 17.0873 135.537 21.3942 139.844C28.2612 146.711 39.5198 148.561 48.8362 148.561C58.7019 148.561 61.0335 147.017 69.3371 141.942C76.0438 137.844 82.6251 133.2 89.6765 129.674C90.5414 129.242 98.147 127.076 95.1649 130.804C86.9704 141.047 97.2438 157.632 108.724 160.183C130.852 165.1 151.138 166.734 173.213 159.376C196.847 151.498 213.971 131.409 218.977 107.559C224.44 81.5307 219.886 58.8991 199.768 41.0523C192.14 34.2858 183.226 25.6546 173.859 21.4393C167.358 18.5138 160.23 18.0629 153.762 15.5473C145.013 12.145 142.267 11.7066 135.359 18.6144C131.52 22.4538 126.672 25.5815 121.638 27.6541C119.877 28.3796 118.856 21.7766 118.41 20.39C116.243 13.6481 118.113 4.73193 109.693 4.73193C90.0967 4.73193 73.7486 6.72021 56.2617 16.4352C36.2856 27.533 23.2002 41.4585 14.1301 62.1181Z" fill="#41893F" stroke="#3F5C05" stroke-width="3" stroke-linecap="round"/>
<rect x="8.18658" y="58.6265" width="7.32833" height="7.32833" fill="#3F5C05"/>
<rect x="8.18658" y="65.9548" width="7.32833" height="7.32833" fill="#3F5C05"/>
<rect x="8.18658" y="73.2832" width="7.32833" height="7.32833" fill="#3F5C05"/>
<rect x="8.18658" y="80.6113" width="7.32833" height="7.32833" fill="#3F5C05"/>
<rect x="0.858337" y="87.9397" width="7.32833" height="7.32833" fill="#3F5C05"/>
<rect x="0.858337" y="95.2681" width="7.32833" height="7.32833" fill="#3F5C05"/>
<rect x="0.858337" y="102.596" width="7.32833" height="7.32833" fill="#3F5C05"/>
<rect x="8.18658" y="109.925" width="7.32833" height="7.32833" fill="#3F5C05"/>
<rect x="8.18658" y="117.253" width="7.32833" height="7.32833" fill="#3F5C05"/>
<rect x="52.1567" y="14.6562" width="7.32833" height="7.32833" fill="#3F5C05"/>
<rect x="37.4996" y="21.9849" width="7.32833" height="7.32833" fill="#3F5C05"/>
<rect x="30.1714" y="29.313" width="7.32833" height="7.32833" fill="#3F5C05"/>
<rect x="22.8431" y="36.6416" width="7.32833" height="7.32833" fill="#3F5C05"/>
<rect x="15.515" y="43.9702" width="7.32833" height="7.32833" fill="#3F5C05"/>
<rect x="15.515" y="51.2979" width="7.32833" height="7.32833" fill="#3F5C05"/>
<rect x="44.8285" y="14.6562" width="7.32833" height="7.32833" fill="#3F5C05"/>
<rect x="66.8132" y="7.32812" width="7.32833" height="7.32833" fill="#3F5C05"/>
<rect x="59.4848" y="7.32812" width="7.32833" height="7.32833" fill="#3F5C05"/>
<rect x="74.1414" y="7.32812" width="7.32833" height="7.32833" fill="#3F5C05"/>
<rect x="81.4698" width="7.32833" height="7.32833" fill="#3F5C05"/>
<rect x="88.7981" width="7.32833" height="7.32833" fill="#3F5C05"/>
<rect x="96.1266" width="7.32833" height="7.32833" fill="#3F5C05"/>
<rect x="103.455" width="7.32833" height="7.32833" fill="#3F5C05"/>
<rect x="110.783" y="7.32812" width="7.32833" height="7.32833" fill="#3F5C05"/>
<rect x="110.783" y="14.6562" width="7.32833" height="7.32833" fill="#3F5C05"/>
<rect x="110.783" width="7.32833" height="7.32833" fill="#3F5C05"/>
<rect x="118.111" y="14.6562" width="7.32833" height="7.32833" fill="#3F5C05"/>
<rect x="118.111" y="21.9849" width="7.32833" height="7.32833" fill="#3F5C05"/>
<rect x="125.44" y="21.9849" width="7.32833" height="7.32833" fill="#3F5C05"/>
<rect x="132.768" y="14.6562" width="7.32833" height="7.32833" fill="#3F5C05"/>
<rect x="140.097" y="7.32812" width="7.32833" height="7.32833" fill="#3F5C05"/>
<rect x="147.425" y="7.32812" width="7.32833" height="7.32833" fill="#3F5C05"/>
<rect x="147.425" y="14.6562" width="7.32833" height="7.32833" fill="#3F5C05"/>
<rect x="162.081" y="14.6562" width="7.32833" height="7.32833" fill="#3F5C05"/>
<rect x="154.753" y="14.6562" width="7.32833" height="7.32833" fill="#3F5C05"/>
<rect x="169.41" y="14.6562" width="7.32833" height="7.32833" fill="#3F5C05"/>
<rect x="176.738" y="21.9849" width="7.32833" height="7.32833" fill="#3F5C05"/>
<rect x="184.067" y="29.313" width="7.32833" height="7.32833" fill="#3F5C05"/>
<rect x="198.723" y="36.6416" width="7.32833" height="7.32833" fill="#3F5C05"/>
<rect x="191.395" y="36.6416" width="7.32833" height="7.32833" fill="#3F5C05"/>
<rect x="206.051" y="43.9702" width="7.32833" height="7.32833" fill="#3F5C05"/>
<rect x="206.051" y="51.2979" width="7.32833" height="7.32833" fill="#3F5C05"/>
<rect x="213.38" y="58.6265" width="7.32833" height="7.32833" fill="#3F5C05"/>
<rect x="213.38" y="65.9548" width="7.32833" height="7.32833" fill="#3F5C05"/>
<rect x="213.38" y="73.2832" width="7.32833" height="7.32833" fill="#3F5C05"/>
<rect x="220.708" y="80.6113" width="7.32833" height="7.32833" fill="#3F5C05"/>
<rect x="220.708" y="87.9397" width="7.32833" height="7.32833" fill="#3F5C05"/>
<rect x="213.38" y="95.2681" width="7.32833" height="7.32833" fill="#3F5C05"/>
<rect x="213.38" y="102.596" width="7.32833" height="7.32833" fill="#3F5C05"/>
<rect x="213.38" y="109.925" width="7.32833" height="7.32833" fill="#3F5C05"/>
<rect x="213.38" y="117.253" width="7.32833" height="7.32833" fill="#3F5C05"/>
<rect x="206.051" y="124.581" width="7.32833" height="7.32833" fill="#3F5C05"/>
<rect x="206.051" y="131.91" width="7.32833" height="7.32833" fill="#3F5C05"/>
<rect x="198.723" y="139.238" width="7.32833" height="7.32833" fill="#3F5C05"/>
<rect x="184.067" y="146.566" width="7.32833" height="7.32833" fill="#3F5C05"/>
<rect x="176.738" y="153.895" width="7.32833" height="7.32833" fill="#3F5C05"/>
<rect x="191.395" y="146.566" width="7.32833" height="7.32833" fill="#3F5C05"/>
<rect x="169.41" y="153.895" width="7.32833" height="7.32833" fill="#3F5C05"/>
<rect x="110.783" y="161.223" width="7.32833" height="7.32833" fill="#3F5C05"/>
<rect x="118.111" y="161.223" width="7.32833" height="7.32833" fill="#3F5C05"/>
<rect x="125.44" y="161.223" width="7.32833" height="7.32833" fill="#3F5C05"/>
<rect x="132.768" y="161.223" width="7.32833" height="7.32833" fill="#3F5C05"/>
<rect x="140.097" y="161.223" width="7.32833" height="7.32833" fill="#3F5C05"/>
<rect x="147.425" y="161.223" width="7.32833" height="7.32833" fill="#3F5C05"/>
<rect x="154.753" y="161.223" width="7.32833" height="7.32833" fill="#3F5C05"/>
<rect x="162.081" y="161.223" width="7.32833" height="7.32833" fill="#3F5C05"/>
<rect x="103.455" y="153.895" width="7.32833" height="7.32833" fill="#3F5C05"/>
<rect x="88.7981" y="131.91" width="7.32833" height="7.32833" fill="#3F5C05"/>
<rect x="88.7981" y="139.238" width="7.32833" height="7.32833" fill="#3F5C05"/>
<rect x="88.7981" y="146.566" width="7.32833" height="7.32833" fill="#3F5C05"/>
<rect x="96.1266" y="153.895" width="7.32833" height="7.32833" fill="#3F5C05"/>
<rect x="88.7981" y="124.581" width="7.32833" height="7.32833" fill="#3F5C05"/>
<rect x="74.1414" y="131.91" width="7.32833" height="7.32833" fill="#3F5C05"/>
<rect x="66.8132" y="139.238" width="7.32833" height="7.32833" fill="#3F5C05"/>
<rect x="81.4698" y="131.91" width="7.32833" height="7.32833" fill="#3F5C05"/>
<rect x="52.1567" y="146.566" width="7.32833" height="7.32833" fill="#3F5C05"/>
<rect x="59.4848" y="139.238" width="7.32833" height="7.32833" fill="#3F5C05"/>
<rect x="44.8285" y="146.566" width="7.32833" height="7.32833" fill="#3F5C05"/>
<rect x="22.8431" y="139.238" width="7.32833" height="7.32833" fill="#3F5C05"/>
<rect x="30.1714" y="146.566" width="7.32833" height="7.32833" fill="#3F5C05"/>
<rect x="37.4996" y="146.566" width="7.32833" height="7.32833" fill="#3F5C05"/>
<rect x="15.515" y="139.238" width="7.32833" height="7.32833" fill="#3F5C05"/>
<rect x="8.18658" y="124.581" width="7.32833" height="7.32833" fill="#3F5C05"/>
<rect x="15.515" y="131.91" width="7.32833" height="7.32833" fill="#3F5C05"/>
<path d="M188.413 110.086C172.802 90.392 157.492 69.8943 148.189 45.7523C146.191 40.5668 144.854 35.0649 143.113 29.8362" stroke="#7CAD4F" stroke-width="3" stroke-linecap="round"/>
<path d="M69.9349 40.8436C82.0985 34.294 94.8916 28.141 111.198 27.063C114.701 26.8315 118.529 27.1396 122.099 27.0995" stroke="#7CAD4F" stroke-width="3" stroke-linecap="round"/>
<path d="M69.9349 40.8436C82.0985 34.294 94.8916 28.141 111.198 27.063C114.701 26.8315 118.529 27.1396 122.099 27.0995" stroke="#7CAD4F" stroke-width="3" stroke-linecap="round"/>
</svg>
