<svg width="279" height="158" viewBox="0 0 279 158" fill="none" xmlns="http://www.w3.org/2000/svg">
<path d="M144.087 24.3475C144.087 16.2793 150.627 9.73877 158.696 9.73877H256.087C264.155 9.73877 270.696 16.2793 270.696 24.3475V55.9996C270.696 64.0678 264.155 70.6083 256.087 70.6083H158.696C150.627 70.6083 144.087 64.0678 144.087 55.9996V24.3475Z" fill="#7E7272"/>
<rect x="156.261" y="6.0874" width="6.08696" height="6.08696" fill="#7E7272"/>
<rect x="162.348" y="6.0874" width="6.08696" height="6.08696" fill="#7E7272"/>
<rect x="168.435" y="6.0874" width="6.08696" height="6.08696" fill="#7E7272"/>
<rect x="174.522" y="6.0874" width="6.08696" height="6.08696" fill="#7E7272"/>
<rect x="180.609" y="6.0874" width="6.08696" height="6.08696" fill="#7E7272"/>
<rect x="186.696" y="6.0874" width="6.08696" height="6.08696" fill="#7E7272"/>
<rect x="192.783" y="6.0874" width="6.08696" height="6.08696" fill="#7E7272"/>
<rect x="198.87" y="6.0874" width="6.08696" height="6.08696" fill="#7E7272"/>
<rect x="204.957" y="6.0874" width="6.08696" height="6.08696" fill="#7E7272"/>
<rect x="211.043" y="6.0874" width="6.08696" height="6.08696" fill="#7E7272"/>
<rect x="217.13" y="6.0874" width="6.08696" height="6.08696" fill="#7E7272"/>
<rect x="223.217" y="6.0874" width="6.08696" height="6.08696" fill="#7E7272"/>
<rect x="229.304" y="6.0874" width="6.08696" height="6.08696" fill="#7E7272"/>
<rect x="235.391" y="6.0874" width="6.08696" height="6.08696" fill="#7E7272"/>
<rect x="241.478" y="6.0874" width="6.08696" height="6.08696" fill="#7E7272"/>
<rect x="247.565" y="6.0874" width="6.08696" height="6.08696" fill="#7E7272"/>
<rect x="253.652" y="6.0874" width="6.08696" height="6.08696" fill="#7E7272"/>
<rect x="265.826" y="24.3481" width="6.08696" height="6.08696" fill="#7E7272"/>
<rect x="265.826" y="30.4346" width="6.08696" height="6.08696" fill="#7E7272"/>
<rect x="265.826" y="36.522" width="6.08696" height="6.08696" fill="#7E7272"/>
<rect x="265.826" y="42.6089" width="6.08696" height="6.08696" fill="#7E7272"/>
<rect x="265.826" y="48.6953" width="6.08696" height="6.08696" fill="#7E7272"/>
<rect x="265.826" y="54.7822" width="6.08696" height="6.08696" fill="#7E7272"/>
<rect x="156.261" y="66.9565" width="6.08696" height="6.08696" fill="#7E7272"/>
<rect x="162.348" y="66.9565" width="6.08696" height="6.08696" fill="#7E7272"/>
<rect x="168.435" y="66.9565" width="6.08696" height="6.08696" fill="#7E7272"/>
<rect x="174.522" y="66.9565" width="6.08696" height="6.08696" fill="#7E7272"/>
<rect x="180.609" y="66.9565" width="6.08696" height="6.08696" fill="#7E7272"/>
<rect x="186.696" y="66.9565" width="6.08696" height="6.08696" fill="#7E7272"/>
<rect x="192.783" y="66.9565" width="6.08696" height="6.08696" fill="#7E7272"/>
<rect x="198.87" y="66.9565" width="6.08696" height="6.08696" fill="#7E7272"/>
<rect x="204.957" y="66.9565" width="6.08696" height="6.08696" fill="#7E7272"/>
<rect x="211.043" y="66.9565" width="6.08696" height="6.08696" fill="#7E7272"/>
<rect x="217.13" y="66.9565" width="6.08696" height="6.08696" fill="#7E7272"/>
<rect x="223.217" y="66.9565" width="6.08696" height="6.08696" fill="#7E7272"/>
<rect x="229.304" y="66.9565" width="6.08696" height="6.08696" fill="#7E7272"/>
<rect x="235.391" y="66.9565" width="6.08696" height="6.08696" fill="#7E7272"/>
<rect x="241.478" y="66.9565" width="6.08696" height="6.08696" fill="#7E7272"/>
<rect x="247.565" y="66.9565" width="6.08696" height="6.08696" fill="#7E7272"/>
<rect x="253.652" y="66.9565" width="6.08696" height="6.08696" fill="#7E7272"/>
<rect x="144.087" y="24.3481" width="6.08696" height="6.08696" fill="#7E7272"/>
<rect x="144.087" y="30.4346" width="6.08696" height="6.08696" fill="#7E7272"/>
<rect x="144.087" y="36.522" width="6.08696" height="6.08696" fill="#7E7272"/>
<rect x="144.087" y="42.6089" width="6.08696" height="6.08696" fill="#7E7272"/>
<rect x="144.087" y="48.6953" width="6.08696" height="6.08696" fill="#7E7272"/>
<rect x="144.087" y="54.7822" width="6.08696" height="6.08696" fill="#7E7272"/>
<rect x="144.087" y="60.8691" width="6.08696" height="6.08696" fill="#7E7272"/>
<rect x="150.174" y="66.9565" width="6.08696" height="6.08696" fill="#7E7272"/>
<rect x="265.826" y="60.8691" width="6.08696" height="6.08696" fill="#7E7272"/>
<rect x="259.739" y="66.9565" width="6.08696" height="6.08696" fill="#7E7272"/>
<rect x="265.826" y="12.1738" width="6.08696" height="6.08696" fill="#7E7272"/>
<rect x="265.826" y="18.2612" width="6.08696" height="6.08696" fill="#7E7272"/>
<rect x="259.739" y="6.0874" width="6.08696" height="10.9565" fill="#7E7272"/>
<rect x="144.087" y="12.1738" width="6.08696" height="6.08696" fill="#7E7272"/>
<rect x="144.087" y="18.2612" width="6.08696" height="6.08696" fill="#7E7272"/>
<rect x="150.174" y="6.0874" width="6.08696" height="6.08696" fill="#7E7272"/>
<path d="M157.478 67.8928C157.478 65.5654 159.931 63.6787 162.956 63.6787H177.565C180.591 63.6787 183.043 65.5654 183.043 67.8928V67.8928C183.043 70.2201 180.591 72.1068 177.565 72.1068H162.956C159.931 72.1068 157.478 70.2201 157.478 67.8928V67.8928Z" fill="#59474A"/>
<rect x="162.348" y="63.6787" width="6.08696" height="4.68227" fill="#59474A"/>
<rect x="168.435" y="63.6787" width="6.08696" height="4.68227" fill="#59474A"/>
<rect x="174.521" y="63.6787" width="6.08696" height="4.68227" fill="#59474A"/>
<rect x="180.608" y="63.6787" width="6.08696" height="4.68227" fill="#59474A"/>
<rect x="162.348" y="68.3608" width="6.08696" height="4.68227" fill="#59474A"/>
<rect x="168.435" y="68.3608" width="6.08696" height="4.68227" fill="#59474A"/>
<rect x="174.521" y="68.3608" width="6.08696" height="4.68227" fill="#59474A"/>
<rect x="156.261" y="63.6787" width="6.08696" height="4.68227" fill="#59474A"/>
<rect x="156.261" y="68.3608" width="6.08696" height="4.68227" fill="#59474A"/>
<rect x="180.608" y="68.3608" width="6.08696" height="4.68227" fill="#59474A"/>
<path d="M195.217 67.8928C195.217 65.5654 197.67 63.6787 200.696 63.6787H229.913C232.938 63.6787 235.391 65.5654 235.391 67.8928V67.8928C235.391 70.2201 232.938 72.1068 229.913 72.1068H200.696C197.67 72.1068 195.217 70.2201 195.217 67.8928V67.8928Z" fill="#59474A"/>
<rect x="198.87" y="63.6787" width="6.08696" height="4.68227" fill="#59474A"/>
<rect x="204.957" y="63.6787" width="6.08696" height="4.68227" fill="#59474A"/>
<rect x="211.043" y="63.6787" width="6.08696" height="4.68227" fill="#59474A"/>
<rect x="217.13" y="63.6787" width="6.08696" height="4.68227" fill="#59474A"/>
<rect x="223.217" y="63.6787" width="6.08696" height="4.68227" fill="#59474A"/>
<rect x="229.304" y="63.6787" width="6.08696" height="4.68227" fill="#59474A"/>
<rect x="235.392" y="63.6787" width="6.08696" height="4.68227" fill="#59474A"/>
<rect x="198.87" y="68.3608" width="6.08696" height="4.68227" fill="#59474A"/>
<rect x="204.957" y="68.3608" width="6.08696" height="4.68227" fill="#59474A"/>
<rect x="211.043" y="68.3608" width="6.08696" height="4.68227" fill="#59474A"/>
<rect x="217.13" y="68.3608" width="6.08696" height="4.68227" fill="#59474A"/>
<rect x="223.217" y="68.3608" width="6.08696" height="4.68227" fill="#59474A"/>
<rect x="229.304" y="68.3608" width="6.08696" height="4.68227" fill="#59474A"/>
<rect x="192.783" y="63.6787" width="6.08696" height="4.68227" fill="#59474A"/>
<rect x="192.783" y="68.3608" width="6.08696" height="4.68227" fill="#59474A"/>
<path d="M245.13 68.9856C245.13 67.4341 247.583 66.1763 250.609 66.1763H251.826C254.852 66.1763 257.304 67.4341 257.304 68.9856V68.9856C257.304 70.5372 254.852 71.795 251.826 71.795H250.609C247.583 71.795 245.13 70.5372 245.13 68.9856V68.9856Z" fill="#59474A"/>
<rect x="245.13" y="63.6787" width="6.08696" height="3.12152" fill="#59474A"/>
<rect x="251.217" y="63.6787" width="6.08696" height="3.12152" fill="#59474A"/>
<rect x="257.304" y="66.8003" width="6.08696" height="3.12152" fill="#59474A"/>
<rect x="251.217" y="69.9214" width="6.08696" height="3.12152" fill="#59474A"/>
<rect x="245.13" y="69.9214" width="6.08696" height="3.12152" fill="#59474A"/>
<rect x="245.13" y="66.8003" width="6.08696" height="3.12152" fill="#59474A"/>
<rect x="251.217" y="66.8003" width="6.08696" height="3.12152" fill="#59474A"/>
<rect x="202.743" y="6.0874" width="42.6087" height="6.08696" fill="#A6928B"/>
<rect x="182.822" y="6.0874" width="16.0474" height="6.08696" fill="#A6928B"/>
<rect x="172.308" y="6.0874" width="6.08696" height="6.08696" fill="#A6928B"/>
<rect x="144.087" y="12.1738" width="6.08696" height="6.08696" fill="#494342"/>
<rect x="138" y="18.2612" width="6.08696" height="6.08696" fill="#494342"/>
<rect x="144.087" y="6.0874" width="6.08696" height="6.08696" fill="#494342"/>
<rect x="150.174" width="6.08696" height="6.08696" fill="#494342"/>
<rect x="156.261" width="6.08696" height="6.08696" fill="#494342"/>
<rect x="162.348" width="6.08696" height="6.08696" fill="#494342"/>
<rect x="168.435" width="6.08696" height="6.08696" fill="#494342"/>
<rect x="174.522" width="6.08696" height="6.08696" fill="#494342"/>
<rect x="180.609" width="6.08696" height="6.08696" fill="#494342"/>
<rect x="186.696" width="6.08696" height="6.08696" fill="#494342"/>
<rect x="192.783" width="6.08696" height="6.08696" fill="#494342"/>
<rect x="198.87" width="6.08696" height="6.08696" fill="#494342"/>
<rect x="204.957" width="6.08696" height="6.08696" fill="#494342"/>
<rect x="211.043" width="6.08696" height="6.08696" fill="#494342"/>
<rect x="217.13" width="6.08696" height="6.08696" fill="#494342"/>
<rect x="223.217" width="6.08696" height="6.08696" fill="#494342"/>
<rect x="229.304" width="6.08696" height="6.08696" fill="#494342"/>
<rect x="235.391" width="6.08696" height="6.08696" fill="#494342"/>
<rect x="241.478" width="6.08696" height="6.08696" fill="#494342"/>
<rect x="247.565" width="6.08696" height="6.08696" fill="#494342"/>
<rect x="253.652" width="6.08696" height="6.08696" fill="#494342"/>
<rect x="259.739" width="6.08696" height="6.08696" fill="#494342"/>
<rect x="265.826" y="6.0874" width="6.08696" height="6.08696" fill="#494342"/>
<rect x="271.913" y="12.1738" width="6.08696" height="6.08696" fill="#494342"/>
<rect x="271.913" y="18.2612" width="6.08696" height="6.08696" fill="#494342"/>
<rect x="271.913" y="24.3481" width="6.08696" height="6.08696" fill="#494342"/>
<rect x="271.913" y="30.4346" width="6.08696" height="6.08696" fill="#494342"/>
<rect x="271.913" y="36.5215" width="6.08696" height="6.08696" fill="#494342"/>
<rect x="271.913" y="42.6089" width="6.08696" height="6.08696" fill="#494342"/>
<rect x="271.913" y="48.6953" width="6.08696" height="6.08696" fill="#494342"/>
<rect x="271.913" y="54.7822" width="6.08696" height="6.08696" fill="#494342"/>
<rect x="271.913" y="60.8691" width="6.08696" height="6.08696" fill="#494342"/>
<rect x="265.826" y="66.9565" width="12.1739" height="6.08696" fill="#494342"/>
<rect x="253.652" y="73.0435" width="6.08696" height="6.08696" fill="#494342"/>
<rect x="259.739" y="73.0435" width="6.08696" height="6.08696" fill="#494342"/>
<rect x="265.826" y="73.0435" width="6.08696" height="6.08696" fill="#494342"/>
<rect x="150.174" y="73.0435" width="6.08696" height="6.08696" fill="#494342"/>
<rect x="156.261" y="73.0435" width="6.08696" height="6.08696" fill="#494342"/>
<rect x="162.348" y="73.0435" width="6.08696" height="6.08696" fill="#494342"/>
<rect x="168.435" y="73.0435" width="6.08696" height="6.08696" fill="#494342"/>
<rect x="174.522" y="73.0435" width="6.08696" height="6.08696" fill="#494342"/>
<rect x="180.609" y="73.0435" width="6.08696" height="6.08696" fill="#494342"/>
<rect x="186.696" y="73.0435" width="6.08696" height="6.08696" fill="#494342"/>
<rect x="192.783" y="73.0435" width="6.08696" height="6.08696" fill="#494342"/>
<rect x="198.87" y="73.0435" width="6.08696" height="6.08696" fill="#494342"/>
<rect x="204.957" y="73.0435" width="6.08696" height="6.08696" fill="#494342"/>
<rect x="211.043" y="73.0435" width="6.08696" height="6.08696" fill="#494342"/>
<rect x="217.13" y="73.0435" width="6.08696" height="6.08696" fill="#494342"/>
<rect x="223.217" y="73.0435" width="6.08696" height="6.08696" fill="#494342"/>
<rect x="229.304" y="73.0435" width="6.08696" height="6.08696" fill="#494342"/>
<rect x="235.391" y="73.0435" width="6.08696" height="6.08696" fill="#494342"/>
<rect x="241.478" y="73.0435" width="6.08696" height="6.08696" fill="#494342"/>
<rect x="247.565" y="73.0435" width="6.08696" height="6.08696" fill="#494342"/>
<rect x="150.174" y="66.9565" width="6.08696" height="6.08696" fill="#494342"/>
<rect x="138" y="60.8691" width="6.08696" height="6.08696" fill="#494342"/>
<rect x="144.087" y="60.8691" width="6.08696" height="6.08696" fill="#494342"/>
<rect x="138" y="24.3481" width="6.08696" height="6.08696" fill="#494342"/>
<rect x="138" y="30.4346" width="6.08696" height="6.08696" fill="#494342"/>
<rect x="138" y="36.5215" width="6.08696" height="6.08696" fill="#494342"/>
<rect x="138" y="42.6089" width="6.08696" height="6.08696" fill="#494342"/>
<rect x="138" y="48.6953" width="6.08696" height="6.08696" fill="#494342"/>
<rect x="138" y="54.7822" width="6.08696" height="6.08696" fill="#494342"/>
<path d="M145.087 102.347C145.087 94.2793 151.627 87.7388 159.696 87.7388H257.087C265.155 87.7388 271.696 94.2793 271.696 102.347V134C271.696 142.068 265.155 148.608 257.087 148.608H159.696C151.627 148.608 145.087 142.068 145.087 134V102.347Z" fill="#7E7272"/>
<rect x="157.261" y="84.0874" width="6.08696" height="6.08696" fill="#7E7272"/>
<rect x="163.348" y="84.0874" width="6.08696" height="6.08696" fill="#7E7272"/>
<rect x="169.435" y="84.0874" width="6.08696" height="6.08696" fill="#7E7272"/>
<rect x="175.522" y="84.0874" width="6.08696" height="6.08696" fill="#7E7272"/>
<rect x="181.609" y="84.0874" width="6.08696" height="6.08696" fill="#7E7272"/>
<rect x="187.696" y="84.0874" width="6.08696" height="6.08696" fill="#7E7272"/>
<rect x="193.783" y="84.0874" width="6.08696" height="6.08696" fill="#7E7272"/>
<rect x="199.87" y="84.0874" width="6.08696" height="6.08696" fill="#7E7272"/>
<rect x="205.957" y="84.0874" width="6.08696" height="6.08696" fill="#7E7272"/>
<rect x="212.043" y="84.0874" width="6.08696" height="6.08696" fill="#7E7272"/>
<rect x="218.13" y="84.0874" width="6.08696" height="6.08696" fill="#7E7272"/>
<rect x="224.217" y="84.0874" width="6.08696" height="6.08696" fill="#7E7272"/>
<rect x="230.304" y="84.0874" width="6.08696" height="6.08696" fill="#7E7272"/>
<rect x="236.391" y="84.0874" width="6.08696" height="6.08696" fill="#7E7272"/>
<rect x="242.478" y="84.0874" width="6.08696" height="6.08696" fill="#7E7272"/>
<rect x="248.565" y="84.0874" width="6.08696" height="6.08696" fill="#7E7272"/>
<rect x="254.652" y="84.0874" width="6.08696" height="6.08696" fill="#7E7272"/>
<rect x="266.826" y="102.348" width="6.08696" height="6.08696" fill="#7E7272"/>
<rect x="266.826" y="108.435" width="6.08696" height="6.08696" fill="#7E7272"/>
<rect x="266.826" y="114.522" width="6.08696" height="6.08696" fill="#7E7272"/>
<rect x="266.826" y="120.609" width="6.08696" height="6.08696" fill="#7E7272"/>
<rect x="266.826" y="126.695" width="6.08696" height="6.08696" fill="#7E7272"/>
<rect x="266.826" y="132.782" width="6.08696" height="6.08696" fill="#7E7272"/>
<rect x="157.261" y="144.957" width="6.08696" height="6.08696" fill="#7E7272"/>
<rect x="163.348" y="144.957" width="6.08696" height="6.08696" fill="#7E7272"/>
<rect x="169.435" y="144.957" width="6.08696" height="6.08696" fill="#7E7272"/>
<rect x="175.522" y="144.957" width="6.08696" height="6.08696" fill="#7E7272"/>
<rect x="181.609" y="144.957" width="6.08696" height="6.08696" fill="#7E7272"/>
<rect x="187.696" y="144.957" width="6.08696" height="6.08696" fill="#7E7272"/>
<rect x="193.783" y="144.957" width="6.08696" height="6.08696" fill="#7E7272"/>
<rect x="199.87" y="144.957" width="6.08696" height="6.08696" fill="#7E7272"/>
<rect x="205.957" y="144.957" width="6.08696" height="6.08696" fill="#7E7272"/>
<rect x="212.043" y="144.957" width="6.08696" height="6.08696" fill="#7E7272"/>
<rect x="218.13" y="144.957" width="6.08696" height="6.08696" fill="#7E7272"/>
<rect x="224.217" y="144.957" width="6.08696" height="6.08696" fill="#7E7272"/>
<rect x="230.304" y="144.957" width="6.08696" height="6.08696" fill="#7E7272"/>
<rect x="236.391" y="144.957" width="6.08696" height="6.08696" fill="#7E7272"/>
<rect x="242.478" y="144.957" width="6.08696" height="6.08696" fill="#7E7272"/>
<rect x="248.565" y="144.957" width="6.08696" height="6.08696" fill="#7E7272"/>
<rect x="254.652" y="144.957" width="6.08696" height="6.08696" fill="#7E7272"/>
<rect x="145.087" y="102.348" width="6.08696" height="6.08696" fill="#7E7272"/>
<rect x="145.087" y="108.435" width="6.08696" height="6.08696" fill="#7E7272"/>
<rect x="145.087" y="114.522" width="6.08696" height="6.08696" fill="#7E7272"/>
<rect x="145.087" y="120.609" width="6.08696" height="6.08696" fill="#7E7272"/>
<rect x="145.087" y="126.695" width="6.08696" height="6.08696" fill="#7E7272"/>
<rect x="145.087" y="132.782" width="6.08696" height="6.08696" fill="#7E7272"/>
<rect x="145.087" y="138.869" width="6.08696" height="6.08696" fill="#7E7272"/>
<rect x="151.174" y="144.957" width="6.08696" height="6.08696" fill="#7E7272"/>
<rect x="266.826" y="138.869" width="6.08696" height="6.08696" fill="#7E7272"/>
<rect x="260.739" y="144.957" width="6.08696" height="6.08696" fill="#7E7272"/>
<rect x="266.826" y="90.1738" width="6.08696" height="6.08696" fill="#7E7272"/>
<rect x="266.826" y="96.2612" width="6.08696" height="6.08696" fill="#7E7272"/>
<rect x="260.739" y="84.0874" width="6.08696" height="10.9565" fill="#7E7272"/>
<rect x="145.087" y="90.1738" width="6.08696" height="6.08696" fill="#7E7272"/>
<rect x="145.087" y="96.2612" width="6.08696" height="6.08696" fill="#7E7272"/>
<rect x="151.174" y="84.0874" width="6.08696" height="6.08696" fill="#7E7272"/>
<path d="M158.478 145.893C158.478 143.565 160.931 141.679 163.956 141.679H178.565C181.591 141.679 184.043 143.565 184.043 145.893V145.893C184.043 148.22 181.591 150.107 178.565 150.107H163.956C160.931 150.107 158.478 148.22 158.478 145.893V145.893Z" fill="#59474A"/>
<rect x="163.348" y="141.679" width="6.08696" height="4.68227" fill="#59474A"/>
<rect x="169.435" y="141.679" width="6.08696" height="4.68227" fill="#59474A"/>
<rect x="175.521" y="141.679" width="6.08696" height="4.68227" fill="#59474A"/>
<rect x="181.608" y="141.679" width="6.08696" height="4.68227" fill="#59474A"/>
<rect x="163.348" y="146.361" width="6.08696" height="4.68227" fill="#59474A"/>
<rect x="169.435" y="146.361" width="6.08696" height="4.68227" fill="#59474A"/>
<rect x="175.521" y="146.361" width="6.08696" height="4.68227" fill="#59474A"/>
<rect x="157.261" y="141.679" width="6.08696" height="4.68227" fill="#59474A"/>
<rect x="157.261" y="146.361" width="6.08696" height="4.68227" fill="#59474A"/>
<rect x="181.608" y="146.361" width="6.08696" height="4.68227" fill="#59474A"/>
<path d="M196.217 145.893C196.217 143.565 198.67 141.679 201.696 141.679H230.913C233.938 141.679 236.391 143.565 236.391 145.893V145.893C236.391 148.22 233.938 150.107 230.913 150.107H201.696C198.67 150.107 196.217 148.22 196.217 145.893V145.893Z" fill="#59474A"/>
<rect x="199.87" y="141.679" width="6.08696" height="4.68227" fill="#59474A"/>
<rect x="205.957" y="141.679" width="6.08696" height="4.68227" fill="#59474A"/>
<rect x="212.043" y="141.679" width="6.08696" height="4.68227" fill="#59474A"/>
<rect x="218.13" y="141.679" width="6.08696" height="4.68227" fill="#59474A"/>
<rect x="224.217" y="141.679" width="6.08696" height="4.68227" fill="#59474A"/>
<rect x="230.304" y="141.679" width="6.08696" height="4.68227" fill="#59474A"/>
<rect x="236.392" y="141.679" width="6.08696" height="4.68227" fill="#59474A"/>
<rect x="199.87" y="146.361" width="6.08696" height="4.68227" fill="#59474A"/>
<rect x="205.957" y="146.361" width="6.08696" height="4.68227" fill="#59474A"/>
<rect x="212.043" y="146.361" width="6.08696" height="4.68227" fill="#59474A"/>
<rect x="218.13" y="146.361" width="6.08696" height="4.68227" fill="#59474A"/>
<rect x="224.217" y="146.361" width="6.08696" height="4.68227" fill="#59474A"/>
<rect x="230.304" y="146.361" width="6.08696" height="4.68227" fill="#59474A"/>
<rect x="193.783" y="141.679" width="6.08696" height="4.68227" fill="#59474A"/>
<rect x="193.783" y="146.361" width="6.08696" height="4.68227" fill="#59474A"/>
<path d="M246.13 146.986C246.13 145.434 248.583 144.176 251.609 144.176H252.826C255.852 144.176 258.304 145.434 258.304 146.986V146.986C258.304 148.537 255.852 149.795 252.826 149.795H251.609C248.583 149.795 246.13 148.537 246.13 146.986V146.986Z" fill="#59474A"/>
<rect x="246.13" y="141.679" width="6.08696" height="3.12152" fill="#59474A"/>
<rect x="252.217" y="141.679" width="6.08696" height="3.12152" fill="#59474A"/>
<rect x="258.304" y="144.8" width="6.08696" height="3.12152" fill="#59474A"/>
<rect x="252.217" y="147.921" width="6.08696" height="3.12152" fill="#59474A"/>
<rect x="246.13" y="147.921" width="6.08696" height="3.12152" fill="#59474A"/>
<rect x="246.13" y="144.8" width="6.08696" height="3.12152" fill="#59474A"/>
<rect x="252.217" y="144.8" width="6.08696" height="3.12152" fill="#59474A"/>
<rect x="203.743" y="84.0874" width="42.6087" height="6.08696" fill="#A6928B"/>
<rect x="183.822" y="84.0874" width="16.0474" height="6.08696" fill="#A6928B"/>
<rect x="173.308" y="84.0874" width="6.08696" height="6.08696" fill="#A6928B"/>
<rect x="145.087" y="90.1738" width="6.08696" height="6.08696" fill="#494342"/>
<rect x="139" y="96.2612" width="6.08696" height="6.08696" fill="#494342"/>
<rect x="145.087" y="84.0874" width="6.08696" height="6.08696" fill="#494342"/>
<rect x="151.174" y="78" width="6.08696" height="6.08696" fill="#494342"/>
<rect x="157.261" y="78" width="6.08696" height="6.08696" fill="#494342"/>
<rect x="163.348" y="78" width="6.08696" height="6.08696" fill="#494342"/>
<rect x="169.435" y="78" width="6.08696" height="6.08696" fill="#494342"/>
<rect x="175.522" y="78" width="6.08696" height="6.08696" fill="#494342"/>
<rect x="181.609" y="78" width="6.08696" height="6.08696" fill="#494342"/>
<rect x="187.696" y="78" width="6.08696" height="6.08696" fill="#494342"/>
<rect x="193.783" y="78" width="6.08696" height="6.08696" fill="#494342"/>
<rect x="199.87" y="78" width="6.08696" height="6.08696" fill="#494342"/>
<rect x="205.957" y="78" width="6.08696" height="6.08696" fill="#494342"/>
<rect x="212.043" y="78" width="6.08696" height="6.08696" fill="#494342"/>
<rect x="218.13" y="78" width="6.08696" height="6.08696" fill="#494342"/>
<rect x="224.217" y="78" width="6.08696" height="6.08696" fill="#494342"/>
<rect x="230.304" y="78" width="6.08696" height="6.08696" fill="#494342"/>
<rect x="236.391" y="78" width="6.08696" height="6.08696" fill="#494342"/>
<rect x="242.478" y="78" width="6.08696" height="6.08696" fill="#494342"/>
<rect x="248.565" y="78" width="6.08696" height="6.08696" fill="#494342"/>
<rect x="254.652" y="78" width="6.08696" height="6.08696" fill="#494342"/>
<rect x="260.739" y="78" width="6.08696" height="6.08696" fill="#494342"/>
<rect x="266.826" y="84.0874" width="6.08696" height="6.08696" fill="#494342"/>
<rect x="272.913" y="90.1738" width="6.08696" height="6.08696" fill="#494342"/>
<rect x="272.913" y="96.2612" width="6.08696" height="6.08696" fill="#494342"/>
<rect x="272.913" y="102.348" width="6.08696" height="6.08696" fill="#494342"/>
<rect x="272.913" y="108.435" width="6.08696" height="6.08696" fill="#494342"/>
<rect x="272.913" y="114.521" width="6.08696" height="6.08696" fill="#494342"/>
<rect x="272.913" y="120.609" width="6.08696" height="6.08696" fill="#494342"/>
<rect x="272.913" y="126.695" width="6.08696" height="6.08696" fill="#494342"/>
<rect x="272.913" y="132.782" width="6.08696" height="6.08696" fill="#494342"/>
<rect x="272.913" y="138.869" width="6.08696" height="6.08696" fill="#494342"/>
<rect x="266.826" y="144.957" width="12.1739" height="6.08696" fill="#494342"/>
<rect x="254.652" y="151.043" width="6.08696" height="6.08696" fill="#494342"/>
<rect x="260.739" y="151.043" width="6.08696" height="6.08696" fill="#494342"/>
<rect x="266.826" y="151.043" width="6.08696" height="6.08696" fill="#494342"/>
<rect x="151.174" y="151.043" width="6.08696" height="6.08696" fill="#494342"/>
<rect x="157.261" y="151.043" width="6.08696" height="6.08696" fill="#494342"/>
<rect x="163.348" y="151.043" width="6.08696" height="6.08696" fill="#494342"/>
<rect x="169.435" y="151.043" width="6.08696" height="6.08696" fill="#494342"/>
<rect x="175.522" y="151.043" width="6.08696" height="6.08696" fill="#494342"/>
<rect x="181.609" y="151.043" width="6.08696" height="6.08696" fill="#494342"/>
<rect x="187.696" y="151.043" width="6.08696" height="6.08696" fill="#494342"/>
<rect x="193.783" y="151.043" width="6.08696" height="6.08696" fill="#494342"/>
<rect x="199.87" y="151.043" width="6.08696" height="6.08696" fill="#494342"/>
<rect x="205.957" y="151.043" width="6.08696" height="6.08696" fill="#494342"/>
<rect x="212.043" y="151.043" width="6.08696" height="6.08696" fill="#494342"/>
<rect x="218.13" y="151.043" width="6.08696" height="6.08696" fill="#494342"/>
<rect x="224.217" y="151.043" width="6.08696" height="6.08696" fill="#494342"/>
<rect x="230.304" y="151.043" width="6.08696" height="6.08696" fill="#494342"/>
<rect x="236.391" y="151.043" width="6.08696" height="6.08696" fill="#494342"/>
<rect x="242.478" y="151.043" width="6.08696" height="6.08696" fill="#494342"/>
<rect x="248.565" y="151.043" width="6.08696" height="6.08696" fill="#494342"/>
<rect x="151.174" y="144.957" width="6.08696" height="6.08696" fill="#494342"/>
<rect x="139" y="138.869" width="6.08696" height="6.08696" fill="#494342"/>
<rect x="145.087" y="138.869" width="6.08696" height="6.08696" fill="#494342"/>
<rect x="139" y="102.348" width="6.08696" height="6.08696" fill="#494342"/>
<rect x="139" y="108.435" width="6.08696" height="6.08696" fill="#494342"/>
<rect x="139" y="114.521" width="6.08696" height="6.08696" fill="#494342"/>
<rect x="139" y="120.609" width="6.08696" height="6.08696" fill="#494342"/>
<rect x="139" y="126.695" width="6.08696" height="6.08696" fill="#494342"/>
<rect x="139" y="132.782" width="6.08696" height="6.08696" fill="#494342"/>
<path d="M6.08691 26.3475C6.08691 18.2793 12.6275 11.7388 20.6956 11.7388H118.087C126.155 11.7388 132.696 18.2793 132.696 26.3475V57.9996C132.696 66.0678 126.155 72.6083 118.087 72.6083H20.6956C12.6275 72.6083 6.08691 66.0678 6.08691 57.9996V26.3475Z" fill="#7E7272"/>
<rect x="18.2607" y="8.0874" width="6.08696" height="6.08696" fill="#7E7272"/>
<rect x="24.3477" y="8.0874" width="6.08696" height="6.08696" fill="#7E7272"/>
<rect x="30.4351" y="8.0874" width="6.08696" height="6.08696" fill="#7E7272"/>
<rect x="36.522" y="8.0874" width="6.08696" height="6.08696" fill="#7E7272"/>
<rect x="42.6089" y="8.0874" width="6.08696" height="6.08696" fill="#7E7272"/>
<rect x="48.6958" y="8.0874" width="6.08696" height="6.08696" fill="#7E7272"/>
<rect x="54.7827" y="8.0874" width="6.08696" height="6.08696" fill="#7E7272"/>
<rect x="60.8696" y="8.0874" width="6.08696" height="6.08696" fill="#7E7272"/>
<rect x="66.9565" y="8.0874" width="6.08696" height="6.08696" fill="#7E7272"/>
<rect x="73.0435" y="8.0874" width="6.08696" height="6.08696" fill="#7E7272"/>
<rect x="79.1304" y="8.0874" width="6.08696" height="6.08696" fill="#7E7272"/>
<rect x="85.2173" y="8.0874" width="6.08696" height="6.08696" fill="#7E7272"/>
<rect x="91.3042" y="8.0874" width="6.08696" height="6.08696" fill="#7E7272"/>
<rect x="97.3911" y="8.0874" width="6.08696" height="6.08696" fill="#7E7272"/>
<rect x="103.478" y="8.0874" width="6.08696" height="6.08696" fill="#7E7272"/>
<rect x="109.565" y="8.0874" width="6.08696" height="6.08696" fill="#7E7272"/>
<rect x="115.652" y="8.0874" width="6.08696" height="6.08696" fill="#7E7272"/>
<rect x="127.826" y="26.3481" width="6.08696" height="6.08696" fill="#7E7272"/>
<rect x="127.826" y="32.4346" width="6.08696" height="6.08696" fill="#7E7272"/>
<rect x="127.826" y="38.522" width="6.08696" height="6.08696" fill="#7E7272"/>
<rect x="127.826" y="44.6089" width="6.08696" height="6.08696" fill="#7E7272"/>
<rect x="127.826" y="50.6953" width="6.08696" height="6.08696" fill="#7E7272"/>
<rect x="127.826" y="56.7822" width="6.08696" height="6.08696" fill="#7E7272"/>
<rect x="18.2607" y="68.9565" width="6.08696" height="6.08696" fill="#7E7272"/>
<rect x="24.3477" y="68.9565" width="6.08696" height="6.08696" fill="#7E7272"/>
<rect x="30.4351" y="68.9565" width="6.08696" height="6.08696" fill="#7E7272"/>
<rect x="36.522" y="68.9565" width="6.08696" height="6.08696" fill="#7E7272"/>
<rect x="42.6089" y="68.9565" width="6.08696" height="6.08696" fill="#7E7272"/>
<rect x="48.6958" y="68.9565" width="6.08696" height="6.08696" fill="#7E7272"/>
<rect x="54.7827" y="68.9565" width="6.08696" height="6.08696" fill="#7E7272"/>
<rect x="60.8696" y="68.9565" width="6.08696" height="6.08696" fill="#7E7272"/>
<rect x="66.9565" y="68.9565" width="6.08696" height="6.08696" fill="#7E7272"/>
<rect x="73.0435" y="68.9565" width="6.08696" height="6.08696" fill="#7E7272"/>
<rect x="79.1304" y="68.9565" width="6.08696" height="6.08696" fill="#7E7272"/>
<rect x="85.2173" y="68.9565" width="6.08696" height="6.08696" fill="#7E7272"/>
<rect x="91.3042" y="68.9565" width="6.08696" height="6.08696" fill="#7E7272"/>
<rect x="97.3911" y="68.9565" width="6.08696" height="6.08696" fill="#7E7272"/>
<rect x="103.478" y="68.9565" width="6.08696" height="6.08696" fill="#7E7272"/>
<rect x="109.565" y="68.9565" width="6.08696" height="6.08696" fill="#7E7272"/>
<rect x="115.652" y="68.9565" width="6.08696" height="6.08696" fill="#7E7272"/>
<rect x="6.08691" y="26.3481" width="6.08696" height="6.08696" fill="#7E7272"/>
<rect x="6.08691" y="32.4346" width="6.08696" height="6.08696" fill="#7E7272"/>
<rect x="6.08691" y="38.522" width="6.08696" height="6.08696" fill="#7E7272"/>
<rect x="6.08691" y="44.6089" width="6.08696" height="6.08696" fill="#7E7272"/>
<rect x="6.08691" y="50.6953" width="6.08696" height="6.08696" fill="#7E7272"/>
<rect x="6.08691" y="56.7822" width="6.08696" height="6.08696" fill="#7E7272"/>
<rect x="6.08691" y="62.8691" width="6.08696" height="6.08696" fill="#7E7272"/>
<rect x="12.1738" y="68.9565" width="6.08696" height="6.08696" fill="#7E7272"/>
<rect x="127.826" y="62.8691" width="6.08696" height="6.08696" fill="#7E7272"/>
<rect x="121.739" y="68.9565" width="6.08696" height="6.08696" fill="#7E7272"/>
<rect x="127.826" y="14.1738" width="6.08696" height="6.08696" fill="#7E7272"/>
<rect x="127.826" y="20.2612" width="6.08696" height="6.08696" fill="#7E7272"/>
<rect x="121.739" y="8.0874" width="6.08696" height="10.9565" fill="#7E7272"/>
<rect x="6.08691" y="14.1738" width="6.08696" height="6.08696" fill="#7E7272"/>
<rect x="6.08691" y="20.2612" width="6.08696" height="6.08696" fill="#7E7272"/>
<rect x="12.1738" y="8.0874" width="6.08696" height="6.08696" fill="#7E7272"/>
<path d="M19.478 69.8928C19.478 67.5654 21.9307 65.6787 24.9563 65.6787H39.565C42.5905 65.6787 45.0432 67.5654 45.0432 69.8928V69.8928C45.0432 72.2201 42.5905 74.1068 39.565 74.1068H24.9563C21.9307 74.1068 19.478 72.2201 19.478 69.8928V69.8928Z" fill="#59474A"/>
<rect x="24.3477" y="65.6787" width="6.08696" height="4.68227" fill="#59474A"/>
<rect x="30.4346" y="65.6787" width="6.08696" height="4.68227" fill="#59474A"/>
<rect x="36.5215" y="65.6787" width="6.08696" height="4.68227" fill="#59474A"/>
<rect x="42.6084" y="65.6787" width="6.08696" height="4.68227" fill="#59474A"/>
<rect x="24.3477" y="70.3608" width="6.08696" height="4.68227" fill="#59474A"/>
<rect x="30.4346" y="70.3608" width="6.08696" height="4.68227" fill="#59474A"/>
<rect x="36.5215" y="70.3608" width="6.08696" height="4.68227" fill="#59474A"/>
<rect x="18.2607" y="65.6787" width="6.08696" height="4.68227" fill="#59474A"/>
<rect x="18.2607" y="70.3608" width="6.08696" height="4.68227" fill="#59474A"/>
<rect x="42.6084" y="70.3608" width="6.08696" height="4.68227" fill="#59474A"/>
<path d="M57.2173 69.8928C57.2173 67.5654 59.67 65.6787 62.6955 65.6787H91.9129C94.9385 65.6787 97.3912 67.5654 97.3912 69.8928V69.8928C97.3912 72.2201 94.9385 74.1068 91.9129 74.1068H62.6955C59.67 74.1068 57.2173 72.2201 57.2173 69.8928V69.8928Z" fill="#59474A"/>
<rect x="60.8696" y="65.6787" width="6.08696" height="4.68227" fill="#59474A"/>
<rect x="66.9565" y="65.6787" width="6.08696" height="4.68227" fill="#59474A"/>
<rect x="73.0435" y="65.6787" width="6.08696" height="4.68227" fill="#59474A"/>
<rect x="79.1304" y="65.6787" width="6.08696" height="4.68227" fill="#59474A"/>
<rect x="85.2173" y="65.6787" width="6.08696" height="4.68227" fill="#59474A"/>
<rect x="91.3042" y="65.6787" width="6.08696" height="4.68227" fill="#59474A"/>
<rect x="97.3916" y="65.6787" width="6.08696" height="4.68227" fill="#59474A"/>
<rect x="60.8696" y="70.3608" width="6.08696" height="4.68227" fill="#59474A"/>
<rect x="66.9565" y="70.3608" width="6.08696" height="4.68227" fill="#59474A"/>
<rect x="73.0435" y="70.3608" width="6.08696" height="4.68227" fill="#59474A"/>
<rect x="79.1304" y="70.3608" width="6.08696" height="4.68227" fill="#59474A"/>
<rect x="85.2173" y="70.3608" width="6.08696" height="4.68227" fill="#59474A"/>
<rect x="91.3042" y="70.3608" width="6.08696" height="4.68227" fill="#59474A"/>
<rect x="54.7827" y="65.6787" width="6.08696" height="4.68227" fill="#59474A"/>
<rect x="54.7827" y="70.3608" width="6.08696" height="4.68227" fill="#59474A"/>
<path d="M107.13 70.9856C107.13 69.4341 109.583 68.1763 112.609 68.1763H113.826C116.852 68.1763 119.304 69.4341 119.304 70.9856V70.9856C119.304 72.5372 116.852 73.795 113.826 73.795H112.609C109.583 73.795 107.13 72.5372 107.13 70.9856V70.9856Z" fill="#59474A"/>
<rect x="107.13" y="65.6787" width="6.08696" height="3.12152" fill="#59474A"/>
<rect x="113.217" y="65.6787" width="6.08696" height="3.12152" fill="#59474A"/>
<rect x="119.304" y="68.8003" width="6.08696" height="3.12152" fill="#59474A"/>
<rect x="113.217" y="71.9214" width="6.08696" height="3.12152" fill="#59474A"/>
<rect x="107.13" y="71.9214" width="6.08696" height="3.12152" fill="#59474A"/>
<rect x="107.13" y="68.8003" width="6.08696" height="3.12152" fill="#59474A"/>
<rect x="113.217" y="68.8003" width="6.08696" height="3.12152" fill="#59474A"/>
<rect x="64.7432" y="8.0874" width="42.6087" height="6.08696" fill="#A6928B"/>
<rect x="44.8223" y="8.0874" width="16.0474" height="6.08696" fill="#A6928B"/>
<rect x="34.3081" y="8.0874" width="6.08696" height="6.08696" fill="#A6928B"/>
<rect x="6.08691" y="14.1738" width="6.08696" height="6.08696" fill="#494342"/>
<rect y="20.2612" width="6.08696" height="6.08696" fill="#494342"/>
<rect x="6.08691" y="8.0874" width="6.08696" height="6.08696" fill="#494342"/>
<rect x="12.1738" y="2" width="6.08696" height="6.08696" fill="#494342"/>
<rect x="18.2607" y="2" width="6.08696" height="6.08696" fill="#494342"/>
<rect x="24.3477" y="2" width="6.08696" height="6.08696" fill="#494342"/>
<rect x="30.4351" y="2" width="6.08696" height="6.08696" fill="#494342"/>
<rect x="36.522" y="2" width="6.08696" height="6.08696" fill="#494342"/>
<rect x="42.6089" y="2" width="6.08696" height="6.08696" fill="#494342"/>
<rect x="48.6958" y="2" width="6.08696" height="6.08696" fill="#494342"/>
<rect x="54.7827" y="2" width="6.08696" height="6.08696" fill="#494342"/>
<rect x="60.8696" y="2" width="6.08696" height="6.08696" fill="#494342"/>
<rect x="66.9565" y="2" width="6.08696" height="6.08696" fill="#494342"/>
<rect x="73.0435" y="2" width="6.08696" height="6.08696" fill="#494342"/>
<rect x="79.1304" y="2" width="6.08696" height="6.08696" fill="#494342"/>
<rect x="85.2173" y="2" width="6.08696" height="6.08696" fill="#494342"/>
<rect x="91.3042" y="2" width="6.08696" height="6.08696" fill="#494342"/>
<rect x="97.3911" y="2" width="6.08696" height="6.08696" fill="#494342"/>
<rect x="103.478" y="2" width="6.08696" height="6.08696" fill="#494342"/>
<rect x="109.565" y="2" width="6.08696" height="6.08696" fill="#494342"/>
<rect x="115.652" y="2" width="6.08696" height="6.08696" fill="#494342"/>
<rect x="121.739" y="2" width="6.08696" height="6.08696" fill="#494342"/>
<rect x="127.826" y="8.0874" width="6.08696" height="6.08696" fill="#494342"/>
<rect x="133.913" y="14.1738" width="6.08696" height="6.08696" fill="#494342"/>
<rect x="133.913" y="20.2612" width="6.08696" height="6.08696" fill="#494342"/>
<rect x="133.913" y="26.3481" width="6.08696" height="6.08696" fill="#494342"/>
<rect x="133.913" y="32.4346" width="6.08696" height="6.08696" fill="#494342"/>
<rect x="133.913" y="38.5215" width="6.08696" height="6.08696" fill="#494342"/>
<rect x="133.913" y="44.6089" width="6.08696" height="6.08696" fill="#494342"/>
<rect x="133.913" y="50.6953" width="6.08696" height="6.08696" fill="#494342"/>
<rect x="133.913" y="56.7822" width="6.08696" height="6.08696" fill="#494342"/>
<rect x="133.913" y="62.8691" width="6.08696" height="6.08696" fill="#494342"/>
<rect x="127.826" y="68.9565" width="12.1739" height="6.08696" fill="#494342"/>
<rect x="115.652" y="75.0435" width="6.08696" height="6.08696" fill="#494342"/>
<rect x="121.739" y="75.0435" width="6.08696" height="6.08696" fill="#494342"/>
<rect x="127.826" y="75.0435" width="6.08696" height="6.08696" fill="#494342"/>
<rect x="12.1738" y="75.0435" width="6.08696" height="6.08696" fill="#494342"/>
<rect x="18.2607" y="75.0435" width="6.08696" height="6.08696" fill="#494342"/>
<rect x="24.3477" y="75.0435" width="6.08696" height="6.08696" fill="#494342"/>
<rect x="30.4351" y="75.0435" width="6.08696" height="6.08696" fill="#494342"/>
<rect x="36.522" y="75.0435" width="6.08696" height="6.08696" fill="#494342"/>
<rect x="42.6089" y="75.0435" width="6.08696" height="6.08696" fill="#494342"/>
<rect x="48.6958" y="75.0435" width="6.08696" height="6.08696" fill="#494342"/>
<rect x="54.7827" y="75.0435" width="6.08696" height="6.08696" fill="#494342"/>
<rect x="60.8696" y="75.0435" width="6.08696" height="6.08696" fill="#494342"/>
<rect x="66.9565" y="75.0435" width="6.08696" height="6.08696" fill="#494342"/>
<rect x="73.0435" y="75.0435" width="6.08696" height="6.08696" fill="#494342"/>
<rect x="79.1304" y="75.0435" width="6.08696" height="6.08696" fill="#494342"/>
<rect x="85.2173" y="75.0435" width="6.08696" height="6.08696" fill="#494342"/>
<rect x="91.3042" y="75.0435" width="6.08696" height="6.08696" fill="#494342"/>
<rect x="97.3911" y="75.0435" width="6.08696" height="6.08696" fill="#494342"/>
<rect x="103.478" y="75.0435" width="6.08696" height="6.08696" fill="#494342"/>
<rect x="109.565" y="75.0435" width="6.08696" height="6.08696" fill="#494342"/>
<rect x="12.1738" y="68.9565" width="6.08696" height="6.08696" fill="#494342"/>
<rect y="62.8691" width="6.08696" height="6.08696" fill="#494342"/>
<rect x="6.08691" y="62.8691" width="6.08696" height="6.08696" fill="#494342"/>
<rect y="26.3481" width="6.08696" height="6.08696" fill="#494342"/>
<rect y="32.4346" width="6.08696" height="6.08696" fill="#494342"/>
<rect y="38.5215" width="6.08696" height="6.08696" fill="#494342"/>
<rect y="44.6089" width="6.08696" height="6.08696" fill="#494342"/>
<rect y="50.6953" width="6.08696" height="6.08696" fill="#494342"/>
<rect y="56.7822" width="6.08696" height="6.08696" fill="#494342"/>
</svg>
