<svg width="151" height="258" viewBox="0 0 151 258" fill="none" xmlns="http://www.w3.org/2000/svg">
<rect width="11.0159" height="11.0159" transform="matrix(-1 0 0 1 119.472 141.738)" fill="#BBA791"/>
<rect width="110.159" height="38.5557" transform="matrix(-1 0 0 1 132.691 59.1191)" fill="#BBA791"/>
<rect width="60.5875" height="22.0318" transform="matrix(-1 0 0 1 105.151 97.6743)" fill="#BBA791"/>
<rect width="88.1273" height="5.50796" transform="matrix(-1 0 0 1 122.226 98.5923)" fill="#BBA791"/>
<rect width="88.1273" height="5.50796" transform="matrix(-1 0 0 1 121.308 103.183)" fill="#BBA791"/>
<rect width="71.6034" height="5.50796" transform="matrix(-1 0 0 1 110.659 103.183)" fill="#7B3335"/>
<rect width="22.5826" height="5.50796" transform="matrix(-1 0 0 1 83.6702 97.6743)" fill="#7B3335"/>
<rect width="5.32436" height="22.0318" transform="matrix(-1 0 0 1 138.199 70.1348)" fill="#C1A079"/>
<rect width="5.32436" height="22.0318" transform="matrix(-1 0 0 1 138.199 70.1348)" fill="#7B796A"/>
<rect width="5.32436" height="22.0318" transform="matrix(-1 0 0 1 22.5317 75.6426)" fill="#C1A079"/>
<rect width="5.32436" height="22.0318" transform="matrix(-1 0 0 1 22.5317 75.6426)" fill="#7B796A"/>
<rect width="121.175" height="6.60955" transform="matrix(-1 0 0 1 137.832 40.3916)" fill="#4F5256"/>
<rect width="121.175" height="6.97674" transform="matrix(-1 0 0 1 137.648 33.415)" fill="#4F5256"/>
<rect width="106.671" height="6.97674" transform="matrix(-1 0 0 1 131.589 26.8057)" fill="#4F5256"/>
<rect width="94.0024" height="6.97674" transform="matrix(-1 0 0 1 124.429 20.1958)" fill="#4F5256"/>
<rect width="81.3342" height="6.97674" transform="matrix(-1 0 0 1 117.269 13.2192)" fill="#4F5256"/>
<rect width="65.3611" height="6.97674" transform="matrix(-1 0 0 1 106.437 6.60938)" fill="#4F5256"/>
<rect width="5.50796" height="27.5398" transform="matrix(-1 0 0 1 110.108 174.786)" fill="black"/>
<rect width="5.50796" height="27.5398" transform="matrix(-1 0 0 1 44.5635 174.786)" fill="black"/>
<rect width="5.50796" height="27.5398" transform="matrix(-1 0 0 1 44.5635 212.975)" fill="black"/>
<rect width="5.50796" height="22.0318" transform="matrix(-1 0 0 1 72.1035 212.975)" fill="black"/>
<rect width="5.50796" height="22.0318" transform="matrix(-1 0 0 1 66.5955 235.006)" fill="black"/>
<rect width="5.50796" height="44.0636" transform="matrix(-1 0 0 1 104.784 130.722)" fill="black"/>
<rect width="5.50796" height="44.0636" transform="matrix(-1 0 0 1 104.784 130.722)" fill="black"/>
<rect width="5.32436" height="5.50796" transform="matrix(-1 0 0 1 104.6 152.754)" fill="black"/>
<rect width="5.50796" height="5.50796" transform="matrix(-1 0 0 1 109.007 158.262)" fill="black"/>
<rect width="5.50796" height="5.50796" transform="matrix(-1 0 0 1 114.515 163.77)" fill="black"/>
<rect width="5.50796" height="5.50796" transform="matrix(-1 0 0 1 119.839 169.278)" fill="black"/>
<rect width="5.50796" height="5.50796" transform="matrix(-1 0 0 1 124.98 174.786)" fill="black"/>
<rect width="5.50796" height="5.50796" transform="matrix(-1 0 0 1 124.98 180.294)" fill="black"/>
<rect width="5.50796" height="5.50796" transform="matrix(-1 0 0 1 130.488 185.802)" fill="black"/>
<rect width="5.50796" height="5.50796" transform="matrix(-1 0 0 1 135.996 185.802)" fill="black"/>
<rect width="5.50796" height="5.50796" transform="matrix(-1 0 0 1 141.136 180.294)" fill="black"/>
<rect width="5.50796" height="5.50796" transform="matrix(-1 0 0 1 146.644 180.294)" fill="black"/>
<rect width="5.50796" height="5.50796" transform="matrix(-1 0 0 1 150.5 174.786)" fill="black"/>
<rect width="5.50796" height="5.50796" transform="matrix(-1 0 0 1 150.5 169.278)" fill="black"/>
<rect width="5.50796" height="5.50796" transform="matrix(-1 0 0 1 144.992 169.278)" fill="black"/>
<rect width="5.50796" height="5.50796" transform="matrix(-1 0 0 1 140.586 163.77)" fill="black"/>
<rect width="5.50796" height="5.50796" transform="matrix(-1 0 0 1 135.628 158.262)" fill="black"/>
<rect width="5.50796" height="5.50796" transform="matrix(-1 0 0 1 124.429 147.246)" fill="black"/>
<rect width="5.50796" height="5.50796" transform="matrix(-1 0 0 1 130.121 152.754)" fill="black"/>
<rect width="5.50796" height="5.50796" transform="matrix(-1 0 0 1 119.472 141.738)" fill="black"/>
<rect width="5.50796" height="5.50796" transform="matrix(-1 0 0 1 113.964 136.23)" fill="black"/>
<rect width="5.50796" height="5.50796" transform="matrix(-1 0 0 1 108.456 130.722)" fill="black"/>
<rect width="5.50796" height="5.50796" transform="matrix(-1 0 0 1 102.948 125.214)" fill="black"/>
<rect width="5.50796" height="5.50796" transform="matrix(-1 0 0 1 97.4399 125.214)" fill="black"/>
<rect width="5.50796" height="5.50796" transform="matrix(-1 0 0 1 91.9321 125.214)" fill="black"/>
<rect width="5.50796" height="5.50796" transform="matrix(-1 0 0 1 91.9321 119.706)" fill="black"/>
<rect width="5.50796" height="11.0159" transform="matrix(-1 0 0 1 50.0715 163.77)" fill="black"/>
<rect width="5.50796" height="22.0318" transform="matrix(-1 0 0 1 50.0715 141.738)" fill="black"/>
<rect width="5.50796" height="5.50796" transform="matrix(-1 0 0 1 33.5479 174.786)" fill="black"/>
<rect width="5.50796" height="5.50796" transform="matrix(-1 0 0 1 44.5635 163.77)" fill="black"/>
<rect width="5.50796" height="5.50796" transform="matrix(-1 0 0 1 39.0557 169.278)" fill="black"/>
<rect width="5.50796" height="5.50796" transform="matrix(-1 0 0 1 33.5479 180.294)" fill="black"/>
<rect width="5.50796" height="5.50796" transform="matrix(-1 0 0 1 33.5479 180.294)" fill="black"/>
<rect width="5.50796" height="5.50796" transform="matrix(-1 0 0 1 33.5479 180.294)" fill="black"/>
<rect width="5.50796" height="5.50796" transform="matrix(-1 0 0 1 22.5317 191.31)" fill="black"/>
<rect width="5.50796" height="5.50796" transform="matrix(-1 0 0 1 17.0239 185.802)" fill="black"/>
<rect width="5.50796" height="5.50796" transform="matrix(-1 0 0 1 11.5161 185.802)" fill="black"/>
<rect width="5.50796" height="5.50796" transform="matrix(-1 0 0 1 44.5635 240.514)" fill="black"/>
<rect width="5.50796" height="5.50796" transform="matrix(-1 0 0 1 39.0557 240.514)" fill="black"/>
<rect width="5.50796" height="5.50796" transform="matrix(-1 0 0 1 33.5479 240.514)" fill="black"/>
<rect width="5.50796" height="5.50796" transform="matrix(-1 0 0 1 39.0557 240.514)" fill="black"/>
<rect width="5.50796" height="5.50796" transform="matrix(-1 0 0 1 33.5479 240.514)" fill="black"/>
<rect width="33.0477" height="5.50796" transform="matrix(-1 0 0 1 61.0876 251.53)" fill="#331C19"/>
<rect width="5.50796" height="16.5239" transform="matrix(-1 0 0 1 66.5955 212.975)" fill="#331C19"/>
<rect width="33.0477" height="5.50796" transform="matrix(-1 0 0 1 61.0876 246.022)" fill="#593324"/>
<rect width="16.5239" height="33.0477" transform="matrix(-1 0 0 1 61.0876 212.975)" fill="#593324"/>
<rect width="5.50796" height="5.50796" transform="matrix(-1 0 0 1 66.5955 229.498)" fill="black"/>
<rect width="5.50796" height="11.0159" transform="matrix(-1 0 0 1 28.0398 246.022)" fill="black"/>
<rect width="5.50796" height="5.50796" transform="matrix(-1 0 0 1 6.00806 180.294)" fill="black"/>
<rect width="5.50796" height="5.50796" transform="matrix(-1 0 0 1 6.00806 174.786)" fill="black"/>
<rect width="5.50796" height="5.50796" transform="matrix(-1 0 0 1 11.5161 174.786)" fill="black"/>
<rect width="5.50796" height="5.50796" transform="matrix(-1 0 0 1 17.0239 169.278)" fill="black"/>
<rect width="5.50796" height="5.50796" transform="matrix(-1 0 0 1 22.5317 163.77)" fill="black"/>
<rect width="5.50796" height="5.50796" transform="matrix(-1 0 0 1 28.0398 158.262)" fill="black"/>
<rect width="5.50796" height="5.50796" transform="matrix(-1 0 0 1 33.5479 152.754)" fill="black"/>
<rect width="5.50796" height="5.50796" transform="matrix(-1 0 0 1 39.0557 147.246)" fill="black"/>
<rect width="5.50796" height="5.50796" transform="matrix(-1 0 0 1 44.5635 141.738)" fill="black"/>
<rect width="5.50796" height="5.50796" transform="matrix(-1 0 0 1 50.0715 136.23)" fill="black"/>
<rect width="5.50796" height="5.50796" transform="matrix(-1 0 0 1 55.5796 125.214)" fill="black"/>
<rect width="5.50796" height="5.50796" transform="matrix(-1 0 0 1 50.0715 130.722)" fill="black"/>
<rect width="5.50796" height="5.50796" transform="matrix(-1 0 0 1 61.0876 125.214)" fill="black"/>
<rect width="5.50796" height="5.50796" transform="matrix(-1 0 0 1 66.5955 125.214)" fill="black"/>
<rect width="5.50796" height="5.50796" transform="matrix(-1 0 0 1 66.5955 119.706)" fill="black"/>
<rect width="5.50796" height="5.50796" transform="matrix(-1 0 0 1 61.0876 114.198)" fill="black"/>
<rect width="5.50796" height="5.50796" transform="matrix(-1 0 0 1 55.5796 114.198)" fill="black"/>
<rect width="5.50796" height="5.50796" transform="matrix(-1 0 0 1 44.5635 108.69)" fill="black"/>
<rect width="5.50796" height="5.50796" transform="matrix(-1 0 0 1 39.0557 108.69)" fill="black"/>
<rect width="5.50796" height="5.50796" transform="matrix(-1 0 0 1 33.5479 103.183)" fill="black"/>
<rect width="5.50796" height="5.50796" transform="matrix(-1 0 0 1 33.5479 97.6743)" fill="#7B3335"/>
<rect width="5.50796" height="5.50796" transform="matrix(-1 0 0 1 33.5479 92.1665)" fill="#7B3335"/>
<rect width="5.50796" height="5.50796" transform="matrix(-1 0 0 1 39.0557 103.183)" fill="#7B3335"/>
<rect width="5.50796" height="5.50796" transform="matrix(-1 0 0 1 39.0557 97.6743)" fill="#7B3335"/>
<rect width="5.50796" height="5.50796" transform="matrix(-1 0 0 1 116.167 103.183)" fill="#7B3335"/>
<rect width="5.50796" height="5.50796" transform="matrix(-1 0 0 1 28.0398 97.6743)" fill="black"/>
<rect width="5.50796" height="5.50796" transform="matrix(-1 0 0 1 22.5317 97.6743)" fill="black"/>
<rect width="5.50796" height="5.50796" transform="matrix(-1 0 0 1 17.0239 92.1665)" fill="black"/>
<rect width="5.50796" height="5.50796" transform="matrix(-1 0 0 1 17.0239 92.1665)" fill="black"/>
<rect width="5.50796" height="5.50796" transform="matrix(-1 0 0 1 17.0239 86.6587)" fill="black"/>
<rect width="5.50796" height="5.50796" transform="matrix(-1 0 0 1 17.0239 81.1504)" fill="black"/>
<rect width="5.50796" height="5.50796" transform="matrix(-1 0 0 1 17.0239 75.6426)" fill="black"/>
<rect width="5.50796" height="5.50796" transform="matrix(-1 0 0 1 22.5317 70.1348)" fill="black"/>
<rect width="5.50796" height="5.50796" transform="matrix(-1 0 0 1 22.5317 64.627)" fill="black"/>
<rect width="5.50796" height="5.50796" transform="matrix(-1 0 0 1 22.5317 59.1191)" fill="black"/>
<rect width="5.50796" height="5.50796" transform="matrix(-1 0 0 1 22.5317 53.6108)" fill="black"/>
<rect width="5.50796" height="5.50796" transform="matrix(-1 0 0 1 22.1646 53.6108)" fill="black"/>
<rect width="5.87515" height="5.50796" transform="matrix(-1 0 0 1 16.6567 53.6108)" fill="black"/>
<rect width="110.159" height="5.50796" transform="matrix(-1 0 0 1 132.324 53.6108)" fill="black"/>
<rect width="5.87515" height="6.60955" transform="matrix(-1 0 0 1 16.6567 47.0015)" fill="black"/>
<rect width="5.87515" height="6.60955" transform="matrix(-1 0 0 1 16.6567 40.3916)" fill="black"/>
<rect width="6.24235" height="6.97674" transform="matrix(-1 0 0 1 22.8992 33.415)" fill="black"/>
<rect width="6.05875" height="19.4614" transform="matrix(-1 0 0 1 28.9578 13.9531)" fill="black"/>
<rect width="6.05875" height="19.4614" transform="matrix(-1 0 0 1 28.9578 13.9531)" fill="black"/>
<rect width="6.24235" height="6.60955" transform="matrix(-1 0 0 1 35.2002 20.1958)" fill="white"/>
<rect width="6.05875" height="6.97674" transform="matrix(-1 0 0 1 41.0752 13.2192)" fill="white"/>
<rect width="6.05875" height="6.97674" transform="matrix(-1 0 0 1 35.0166 13.2192)" fill="white"/>
<rect width="6.05875" height="7.71114" transform="matrix(-1 0 0 1 34.833 6.24219)" fill="white"/>
<rect width="6.05875" height="7.71114" transform="matrix(-1 0 0 1 28.9578 6.24219)" fill="white"/>
<rect width="12.1175" height="6.97674" transform="matrix(-1 0 0 1 46.9504 6.24219)" fill="black"/>
<rect width="6.24235" height="6.60955" transform="matrix(-1 0 0 1 53.1929 6.24219)" fill="black"/>
<rect width="6.24235" height="7.71114" transform="matrix(-1 0 0 1 23.2661 6.24219)" fill="black"/>
<rect width="5.87515" height="6.60955" transform="matrix(-1 0 0 1 59.0679 6.24219)" fill="black"/>
<rect width="6.05875" height="6.60955" transform="matrix(-1 0 0 1 65.1267 0)" fill="black"/>
<rect width="6.05875" height="6.60955" transform="matrix(-1 0 0 1 71.1855 0)" fill="black"/>
<rect width="5.87515" height="6.60955" transform="matrix(-1 0 0 1 77.0605 0)" fill="black"/>
<rect width="6.24235" height="6.60955" transform="matrix(-1 0 0 1 83.3027 0)" fill="black"/>
<rect width="6.05875" height="6.60955" transform="matrix(-1 0 0 1 89.3616 0)" fill="black"/>
<rect width="6.05875" height="6.60955" transform="matrix(-1 0 0 1 95.4204 6.60938)" fill="black"/>
<rect width="5.87515" height="6.60955" transform="matrix(-1 0 0 1 101.295 6.60938)" fill="black"/>
<rect width="6.24235" height="6.60955" transform="matrix(-1 0 0 1 107.538 6.60938)" fill="black"/>
<rect width="5.87515" height="6.97674" transform="matrix(-1 0 0 1 113.413 13.2192)" fill="black"/>
<rect width="6.60955" height="6.97674" transform="matrix(-1 0 0 1 119.839 6.24219)" fill="black"/>
<rect width="6.60955" height="6.24235" transform="matrix(-1 0 0 1 126.265 0.734375)" fill="black"/>
<rect width="6.60955" height="6.24235" transform="matrix(-1 0 0 1 136.914 0.734375)" fill="black"/>
<rect width="6.60955" height="6.24235" transform="matrix(-1 0 0 1 136.914 6.97656)" fill="black"/>
<rect width="7.16034" height="6.60955" transform="matrix(-1 0 0 1 131.589 13.2192)" fill="black"/>
<rect width="7.16034" height="7.89474" transform="matrix(-1 0 0 1 131.589 18.5435)" fill="black"/>
<rect width="6.05875" height="6.97674" transform="matrix(-1 0 0 1 119.472 13.2192)" fill="white"/>
<rect width="6.05875" height="6.97674" transform="matrix(-1 0 0 1 119.472 13.2192)" fill="white"/>
<rect width="6.24235" height="6.97674" transform="matrix(-1 0 0 1 125.714 13.2192)" fill="white"/>
<rect width="6.24235" height="6.97674" transform="matrix(-1 0 0 1 125.714 13.2192)" fill="white"/>
<rect width="6.24235" height="6.97674" transform="matrix(-1 0 0 1 125.898 6.24219)" fill="white"/>
<rect width="6.24235" height="6.97674" transform="matrix(-1 0 0 1 125.898 6.24219)" fill="white"/>
<rect width="6.24235" height="6.97674" transform="matrix(-1 0 0 1 131.222 6.24219)" fill="white"/>
<rect width="6.24235" height="6.97674" transform="matrix(-1 0 0 1 131.222 6.24219)" fill="white"/>
<rect width="6.24235" height="6.97674" transform="matrix(-1 0 0 1 131.222 0.734375)" fill="white"/>
<rect width="6.24235" height="6.97674" transform="matrix(-1 0 0 1 131.222 0.734375)" fill="white"/>
<rect width="5.50796" height="6.60955" transform="matrix(-1 0 0 1 125.714 20.1958)" fill="white"/>
<rect width="5.50796" height="6.60955" transform="matrix(-1 0 0 1 125.714 20.1958)" fill="white"/>
<rect width="5.87515" height="6.97674" transform="matrix(-1 0 0 1 131.589 26.4385)" fill="black"/>
<rect width="6.24235" height="6.97674" transform="matrix(-1 0 0 1 137.832 33.415)" fill="black"/>
<rect width="6.24235" height="6.60955" transform="matrix(-1 0 0 1 137.832 40.3916)" fill="black"/>
<rect width="121.175" height="6.60955" transform="matrix(-1 0 0 1 137.832 47.0015)" fill="#4F5256"/>
<rect width="5.87515" height="6.60955" transform="matrix(-1 0 0 1 143.707 40.3916)" fill="black"/>
<rect width="5.87515" height="6.60955" transform="matrix(-1 0 0 1 143.707 47.0015)" fill="black"/>
<rect width="5.50796" height="5.50796" transform="matrix(-1 0 0 1 137.832 53.6108)" fill="black"/>
<rect width="6.60955" height="5.50796" transform="matrix(-1 0 0 1 143.707 53.6108)" fill="black"/>
<rect width="5.50796" height="5.50796" transform="matrix(-1 0 0 1 138.199 53.6108)" fill="black"/>
<rect width="5.50796" height="5.50796" transform="matrix(-1 0 0 1 138.199 59.1191)" fill="black"/>
<rect width="5.50796" height="5.50796" transform="matrix(-1 0 0 1 138.199 64.627)" fill="black"/>
<rect width="5.50796" height="5.50796" transform="matrix(-1 0 0 1 132.691 75.6426)" fill="black"/>
<rect width="5.50796" height="5.50796" transform="matrix(-1 0 0 1 132.691 81.1504)" fill="black"/>
<rect width="5.50796" height="5.50796" transform="matrix(-1 0 0 1 132.691 86.6587)" fill="black"/>
<rect width="5.50796" height="5.50796" transform="matrix(-1 0 0 1 132.691 64.627)" fill="black"/>
<rect width="5.50796" height="5.50796" transform="matrix(-1 0 0 1 121.675 75.6426)" fill="#573F42"/>
<rect width="5.50796" height="5.50796" transform="matrix(-1 0 0 1 116.167 75.6426)" fill="#573F42"/>
<rect width="5.50796" height="5.50796" transform="matrix(-1 0 0 1 116.167 81.1504)" fill="#573F42"/>
<rect width="5.50796" height="5.50796" transform="matrix(-1 0 0 1 116.167 70.1348)" fill="#573F42"/>
<rect width="5.50796" height="5.50796" transform="matrix(-1 0 0 1 110.659 70.1348)" fill="#573F42"/>
<rect width="5.50796" height="5.50796" transform="matrix(-1 0 0 1 110.659 64.627)" fill="#573F42"/>
<rect width="5.50796" height="5.50796" transform="matrix(-1 0 0 1 105.151 64.627)" fill="#573F42"/>
<rect width="5.50796" height="5.50796" transform="matrix(-1 0 0 1 94.1353 64.627)" fill="#573F42"/>
<rect width="5.50796" height="5.50796" transform="matrix(-1 0 0 1 94.1353 70.1348)" fill="#573F42"/>
<rect width="5.50796" height="5.50796" transform="matrix(-1 0 0 1 99.6431 70.1348)" fill="#573F42"/>
<rect width="5.50796" height="5.50796" transform="matrix(-1 0 0 1 88.6274 64.627)" fill="#573F42"/>
<rect width="5.50796" height="5.50796" transform="matrix(-1 0 0 1 88.6274 70.1348)" fill="#573F42"/>
<rect width="5.50796" height="5.50796" transform="matrix(-1 0 0 1 88.6274 64.627)" fill="#573F42"/>
<rect width="5.50796" height="5.50796" transform="matrix(-1 0 0 1 99.6431 64.627)" fill="#573F42"/>
<rect width="5.50796" height="5.50796" transform="matrix(-1 0 0 1 110.659 70.1348)" fill="#573F42"/>
<rect width="5.50796" height="5.50796" transform="matrix(-1 0 0 1 110.659 70.1348)" fill="#573F42"/>
<rect width="5.50796" height="5.50796" transform="matrix(-1 0 0 1 138.199 92.1665)" fill="black"/>
<rect width="5.50796" height="5.50796" transform="matrix(-1 0 0 1 132.691 70.1348)" fill="black"/>
<rect width="5.50796" height="5.50796" transform="matrix(-1 0 0 1 143.707 70.1348)" fill="black"/>
<rect width="5.50796" height="5.50796" transform="matrix(-1 0 0 1 143.707 75.6426)" fill="black"/>
<rect width="5.50796" height="5.50796" transform="matrix(-1 0 0 1 143.707 86.6587)" fill="black"/>
<rect width="5.50796" height="5.50796" transform="matrix(-1 0 0 1 143.707 81.1504)" fill="black"/>
<rect width="5.50796" height="5.50796" transform="matrix(-1 0 0 1 143.707 92.1665)" fill="black"/>
<rect width="5.50796" height="5.50796" transform="matrix(-1 0 0 1 138.199 97.6743)" fill="black"/>
<rect width="5.50796" height="5.50796" transform="matrix(-1 0 0 1 132.691 97.6743)" fill="black"/>
<rect width="5.50796" height="5.50796" transform="matrix(-1 0 0 1 127.183 97.6743)" fill="black"/>
<rect width="5.50796" height="5.50796" transform="matrix(-1 0 0 1 116.167 108.69)" fill="black"/>
<rect width="5.50796" height="5.50796" transform="matrix(-1 0 0 1 110.659 108.69)" fill="black"/>
<rect width="5.50796" height="5.50796" transform="matrix(-1 0 0 1 105.151 114.198)" fill="black"/>
<rect width="5.50796" height="5.50796" transform="matrix(-1 0 0 1 99.6431 114.198)" fill="black"/>
<rect width="5.50796" height="5.50796" transform="matrix(-1 0 0 1 94.1353 114.198)" fill="black"/>
<rect width="5.50796" height="5.50796" transform="matrix(-1 0 0 1 121.675 103.183)" fill="black"/>
<rect width="5.50796" height="5.50796" transform="matrix(-1 0 0 1 116.167 125.214)" fill="black"/>
<rect width="5.50796" height="5.50796" transform="matrix(-1 0 0 1 39.0557 125.214)" fill="black"/>
<rect width="5.50796" height="16.5239" transform="matrix(-1 0 0 1 33.5479 108.69)" fill="black"/>
<rect width="5.50796" height="16.5239" transform="matrix(-1 0 0 1 121.675 108.69)" fill="black"/>
<rect width="5.50796" height="5.50796" transform="matrix(-1 0 0 1 28.0398 70.1348)" fill="black"/>
<rect width="5.50796" height="5.50796" transform="matrix(-1 0 0 1 28.0398 64.627)" fill="#573F42"/>
<rect width="5.50796" height="5.50796" transform="matrix(-1 0 0 1 33.5479 70.1348)" fill="#573F42"/>
<rect width="5.50796" height="5.50796" transform="matrix(-1 0 0 1 33.5479 64.627)" fill="#573F42"/>
<rect width="5.50796" height="5.50796" transform="matrix(-1 0 0 1 39.0557 64.627)" fill="#573F42"/>
<rect width="5.50796" height="5.50796" transform="matrix(-1 0 0 1 39.0557 64.627)" fill="#573F42"/>
<rect width="5.50796" height="5.50796" transform="matrix(-1 0 0 1 44.5635 64.627)" fill="#573F42"/>
<rect width="5.50796" height="5.50796" transform="matrix(-1 0 0 1 50.0715 64.627)" fill="#573F42"/>
<rect width="5.50796" height="5.50796" transform="matrix(-1 0 0 1 50.0715 70.1348)" fill="#573F42"/>
<rect width="5.50796" height="5.50796" transform="matrix(-1 0 0 1 44.5635 70.1348)" fill="#573F42"/>
<rect width="5.50796" height="5.50796" transform="matrix(-1 0 0 1 44.5635 75.6426)" fill="#573F42"/>
<rect width="5.50796" height="5.50796" transform="matrix(-1 0 0 1 44.5635 75.6426)" fill="#3C2014"/>
<rect width="5.50796" height="5.50796" transform="matrix(-1 0 0 1 39.0557 75.6426)" fill="#3C2014"/>
<rect width="5.50796" height="5.50796" transform="matrix(-1 0 0 1 50.0715 75.6426)" fill="#3C2014"/>
<rect width="5.50796" height="5.50796" transform="matrix(-1 0 0 1 44.5635 81.1504)" fill="#573F42"/>
<rect width="5.50796" height="5.50796" transform="matrix(-1 0 0 1 44.5635 81.1504)" fill="#542E1D"/>
<rect width="5.50796" height="5.50796" transform="matrix(-1 0 0 1 39.0557 81.1504)" fill="#542E1D"/>
<rect width="5.50796" height="5.50796" transform="matrix(-1 0 0 1 50.0715 81.1504)" fill="#542E1D"/>
<rect width="5.50796" height="5.50796" transform="matrix(-1 0 0 1 44.5635 86.6587)" fill="#573F42"/>
<rect width="5.50796" height="5.50796" transform="matrix(-1 0 0 1 44.5635 86.6587)" fill="#9F5130"/>
<rect width="5.50796" height="5.50796" transform="matrix(-1 0 0 1 39.0557 86.6587)" fill="#9F5130"/>
<rect width="5.50796" height="5.50796" transform="matrix(-1 0 0 1 50.0715 86.6587)" fill="#9F5130"/>
<rect width="5.50796" height="5.50796" transform="matrix(-1 0 0 1 44.5635 92.1665)" fill="#9F5130"/>
<rect width="5.50796" height="5.50796" transform="matrix(-1 0 0 1 50.0715 92.1665)" fill="#9F5130"/>
<rect width="5.50796" height="5.50796" transform="matrix(-1 0 0 1 55.5796 70.1348)" fill="#573F42"/>
<rect width="5.50796" height="5.50796" transform="matrix(-1 0 0 1 55.5796 75.6426)" fill="#3C2014"/>
<rect width="5.50796" height="5.50796" transform="matrix(-1 0 0 1 55.5796 81.1504)" fill="#573F42"/>
<rect width="5.50796" height="5.50796" transform="matrix(-1 0 0 1 55.5796 81.1504)" fill="#573F42"/>
<rect width="5.50796" height="5.50796" transform="matrix(-1 0 0 1 55.5796 81.1504)" fill="#542E1D"/>
<rect width="5.50796" height="5.50796" transform="matrix(-1 0 0 1 55.5796 86.6587)" fill="#9F5130"/>
<rect width="5.50796" height="5.50796" transform="matrix(-1 0 0 1 44.5635 75.6426)" fill="#3C2014"/>
<rect width="5.50796" height="5.50796" transform="matrix(-1 0 0 1 39.0557 75.6426)" fill="#3C2014"/>
<rect width="5.50796" height="5.50796" transform="matrix(-1 0 0 1 50.0715 75.6426)" fill="#3C2014"/>
<rect width="5.50796" height="5.50796" transform="matrix(-1 0 0 1 44.5635 81.1504)" fill="#542E1D"/>
<rect width="5.50796" height="5.50796" transform="matrix(-1 0 0 1 39.0557 81.1504)" fill="#542E1D"/>
<rect width="5.50796" height="5.50796" transform="matrix(-1 0 0 1 50.0715 81.1504)" fill="#542E1D"/>
<rect width="5.50796" height="5.50796" transform="matrix(-1 0 0 1 44.5635 86.6587)" fill="#9F5130"/>
<rect width="5.50796" height="5.50796" transform="matrix(-1 0 0 1 39.0557 86.6587)" fill="#9F5130"/>
<rect width="5.50796" height="5.50796" transform="matrix(-1 0 0 1 50.0715 86.6587)" fill="#9F5130"/>
<rect width="5.50796" height="5.50796" transform="matrix(-1 0 0 1 44.5635 92.1665)" fill="#9F5130"/>
<rect width="5.50796" height="5.50796" transform="matrix(-1 0 0 1 50.0715 92.1665)" fill="#9F5130"/>
<rect width="5.50796" height="5.50796" transform="matrix(-1 0 0 1 55.5796 75.6426)" fill="#3C2014"/>
<rect width="5.50796" height="5.50796" transform="matrix(-1 0 0 1 55.5796 81.1504)" fill="#542E1D"/>
<rect width="5.50796" height="5.50796" transform="matrix(-1 0 0 1 55.5796 86.6587)" fill="#9F5130"/>
<rect x="94.1353" y="75.6426" width="5.50796" height="5.50796" fill="#3C2014"/>
<rect x="99.6431" y="75.6426" width="5.50796" height="5.50796" fill="#3C2014"/>
<rect x="88.6274" y="75.6426" width="5.50796" height="5.50796" fill="#3C2014"/>
<rect x="94.1353" y="81.1504" width="5.50796" height="5.50796" fill="#542E1D"/>
<rect x="99.6431" y="81.1504" width="5.50796" height="5.50796" fill="#542E1D"/>
<rect x="88.6274" y="81.1504" width="5.50796" height="5.50796" fill="#542E1D"/>
<rect x="94.1353" y="86.6587" width="5.50796" height="5.50796" fill="#9F5130"/>
<rect x="99.6431" y="86.6587" width="5.50796" height="5.50796" fill="#9F5130"/>
<rect x="88.6274" y="86.6587" width="5.50796" height="5.50796" fill="#9F5130"/>
<rect x="94.1353" y="92.1665" width="5.50796" height="5.50796" fill="#9F5130"/>
<rect x="88.6274" y="92.1665" width="5.50796" height="5.50796" fill="#9F5130"/>
<rect width="5.50796" height="5.50796" transform="matrix(-1 0 0 1 28.0398 75.6426)" fill="black"/>
<rect width="5.50796" height="5.50796" transform="matrix(-1 0 0 1 28.0398 86.6587)" fill="black"/>
<rect width="5.50796" height="5.50796" transform="matrix(-1 0 0 1 28.0398 81.1504)" fill="black"/>
<rect width="5.50796" height="5.50796" transform="matrix(-1 0 0 1 28.0398 92.1665)" fill="black"/>
<rect width="5.50796" height="5.50796" transform="matrix(-1 0 0 1 50.0715 114.198)" fill="black"/>
<rect width="5.50796" height="5.50796" transform="matrix(-1 0 0 1 72.1035 119.706)" fill="black"/>
<rect width="5.50796" height="5.50796" transform="matrix(-1 0 0 1 77.6113 119.706)" fill="black"/>
<rect width="5.50796" height="5.50796" transform="matrix(-1 0 0 1 83.1194 119.706)" fill="black"/>
<rect width="5.50796" height="5.50796" transform="matrix(-1 0 0 1 88.6274 119.706)" fill="black"/>
<rect width="11.0159" height="5.50796" transform="matrix(-1 0 0 1 17.0239 180.294)" fill="#BBA791"/>
<rect width="11.0159" height="5.50796" transform="matrix(-1 0 0 1 144.992 174.786)" fill="#BBA791"/>
<rect width="11.0159" height="5.50796" transform="matrix(-1 0 0 1 139.484 169.278)" fill="#BBA791"/>
<rect width="11.0159" height="5.50796" transform="matrix(-1 0 0 1 130.855 169.278)" fill="#BBA791"/>
<rect width="11.0159" height="5.50796" transform="matrix(-1 0 0 1 135.628 163.77)" fill="#BBA791"/>
<rect width="11.0159" height="5.50796" transform="matrix(-1 0 0 1 125.531 163.77)" fill="#BBA791"/>
<rect width="11.0159" height="5.50796" transform="matrix(-1 0 0 1 130.488 158.262)" fill="#BBA791"/>
<rect width="11.0159" height="5.50796" transform="matrix(-1 0 0 1 120.023 158.262)" fill="#BBA791"/>
<rect width="16.5239" height="5.50796" transform="matrix(-1 0 0 1 124.98 152.754)" fill="#BBA791"/>
<rect width="3.67197" height="22.0318" transform="matrix(-1 0 0 1 108.456 136.23)" fill="#BBA791"/>
<rect width="11.0159" height="5.50796" transform="matrix(-1 0 0 1 22.5317 174.786)" fill="#BBA791"/>
<rect width="11.0159" height="5.50796" transform="matrix(-1 0 0 1 44.5635 152.754)" fill="#BBA791"/>
<rect width="19.8286" height="5.50796" transform="matrix(-1 0 0 1 86.4241 125.214)" fill="#BBA791"/>
<rect width="49.2044" height="44.0636" transform="matrix(-1 0 0 1 99.2761 130.722)" fill="#8D8C88"/>
<rect width="60.0367" height="5.50796" transform="matrix(-1 0 0 1 104.6 174.786)" fill="#8D8C88"/>
<rect width="71.0526" height="11.0159" transform="matrix(-1 0 0 1 110.108 201.958)" fill="black"/>
<rect width="60.2203" height="11.0159" transform="matrix(-1 0 0 1 104.784 191.31)" fill="#8D8C88"/>
<rect width="60.0367" height="5.50796" transform="matrix(-1 0 0 1 104.6 180.294)" fill="#583C2D"/>
<rect width="60.0367" height="5.50796" transform="matrix(-1 0 0 1 104.6 185.802)" fill="#3E221B"/>
<rect width="11.0159" height="5.50796" transform="matrix(-1 0 0 1 39.0557 163.77)" fill="#BBA791"/>
<rect width="11.0159" height="5.50796" transform="matrix(-1 0 0 1 33.5479 169.278)" fill="#BBA791"/>
<rect width="11.0159" height="5.50796" transform="matrix(-1 0 0 1 28.0398 174.786)" fill="#BBA791"/>
<rect width="11.0159" height="5.50796" transform="matrix(-1 0 0 1 28.0398 169.278)" fill="#BBA791"/>
<rect width="11.0159" height="5.50796" transform="matrix(-1 0 0 1 33.5479 163.77)" fill="#BBA791"/>
<rect width="11.0159" height="5.50796" transform="matrix(-1 0 0 1 39.0557 158.262)" fill="#BBA791"/>
<rect width="5.50796" height="16.5239" transform="matrix(-1 0 0 1 44.5635 147.246)" fill="#BBA791"/>
<rect width="11.0159" height="11.0159" transform="matrix(-1 0 0 1 28.0398 180.294)" fill="#BBA791"/>
<rect width="11.0159" height="11.0159" transform="matrix(-1 0 0 1 135.996 174.786)" fill="#BBA791"/>
<rect width="5.50796" height="5.50796" transform="matrix(-1 0 0 1 28.0398 185.802)" fill="black"/>
<rect width="5.50796" height="11.0159" transform="matrix(-1 0 0 1 84.5881 180.294)" fill="#685452"/>
<rect width="5.50796" height="22.0318" transform="matrix(-1 0 0 1 61.0876 223.99)" fill="#331C19"/>
<rect width="5.50796" height="5.50796" transform="matrix(-1 0 0 1 61.0876 246.022)" fill="#331C19"/>
<rect x="104.784" y="212.975" width="5.50796" height="27.5398" fill="black"/>
<rect x="77.2441" y="212.975" width="5.50796" height="22.0318" fill="black"/>
<rect x="82.752" y="235.006" width="5.50796" height="22.0318" fill="black"/>
<rect x="104.784" y="240.514" width="5.50796" height="5.50796" fill="black"/>
<rect x="110.292" y="240.514" width="5.50796" height="5.50796" fill="black"/>
<rect x="115.8" y="240.514" width="5.50796" height="5.50796" fill="black"/>
<rect x="110.292" y="240.514" width="5.50796" height="5.50796" fill="black"/>
<rect x="115.8" y="240.514" width="5.50796" height="5.50796" fill="black"/>
<rect x="88.26" y="251.53" width="33.0477" height="5.50796" fill="#331C19"/>
<rect x="82.752" y="212.975" width="5.50796" height="16.5239" fill="#331C19"/>
<rect x="88.26" y="246.022" width="33.0477" height="5.50796" fill="#593324"/>
<rect x="88.26" y="212.975" width="16.5239" height="33.0477" fill="#593324"/>
<rect x="82.752" y="229.498" width="5.50796" height="5.50796" fill="black"/>
<rect x="121.308" y="246.022" width="5.50796" height="11.0159" fill="black"/>
<rect x="88.26" y="223.99" width="5.50796" height="22.0318" fill="#331C19"/>
<rect x="88.26" y="246.022" width="5.50796" height="5.50796" fill="#331C19"/>
<rect width="82.6193" height="5.50796" transform="matrix(-1 0 0 1 116.167 108.69)" fill="#7B3335"/>
<rect width="82.6193" height="5.50796" transform="matrix(-1 0 0 1 116.167 114.198)" fill="#7B3335"/>
<rect width="82.6193" height="5.50796" transform="matrix(-1 0 0 1 116.167 119.706)" fill="#7B3335"/>
<rect width="71.6034" height="5.50796" transform="matrix(-1 0 0 1 110.659 125.214)" fill="#7B3335"/>
<rect width="71.6034" height="5.50796" transform="matrix(-1 0 0 1 110.659 130.722)" fill="black"/>
<rect width="5.50796" height="5.50796" transform="matrix(-1 0 0 1 116.167 97.6743)" fill="#7B3335"/>
<rect width="5.50796" height="5.50796" transform="matrix(-1 0 0 1 121.675 97.6743)" fill="#7B3335"/>
<rect width="5.50796" height="11.0159" transform="matrix(-1 0 0 1 121.675 92.1665)" fill="#7B3335"/>
</svg>
